<svg width="512" height="512" viewBox="0 0 512 512" fill="none" xmlns="http://www.w3.org/2000/svg">
<rect width="512" height="512" rx="85" fill="#5754F9"/>
<g clip-path="url(#clip0_410_742)">
<path d="M278.924 366.122V437.999H400.903V366.122L339.823 330.959L278.924 366.122Z" fill="white"/>
<path d="M256 74C155.551 74 74 155.529 74 256C74 356.471 155.551 438 256 438V368.485C193.909 368.485 143.515 318.091 143.515 256C143.515 193.909 193.909 143.515 256 143.515C318.091 143.515 368.485 193.909 368.485 256C368.485 276.495 362.995 295.685 353.412 312.242L413.613 347C429.114 320.229 438 289.138 438 256C438 155.529 356.449 74 256 74Z" fill="white"/>
</g>
<defs>
<clipPath id="clip0_410_742">
<rect width="364" height="364" fill="white" transform="translate(74 74)"/>
</clipPath>
</defs>
</svg>
