<svg width="512" height="512" viewBox="0 0 512 512" fill="none" xmlns="http://www.w3.org/2000/svg">
<rect width="512" height="512" rx="85" fill="#5754F9"/>
<g clip-path="url(#clip0_410_742)">
<path d="M275.649 350.391V412.001H380.202V350.391L327.849 320.252L275.649 350.391Z" fill="white"/>
<path d="M256 100C169.901 100 100 169.882 100 256C100 342.118 169.901 412 256 412V352.415C202.779 352.415 159.585 309.221 159.585 256C159.585 202.779 202.779 159.585 256 159.585C309.221 159.585 352.415 202.779 352.415 256C352.415 273.567 347.71 290.015 339.496 304.208L391.097 334C404.383 311.053 412 284.404 412 256C412 169.882 342.099 100 256 100Z" fill="white"/>
</g>
<defs>
<clipPath id="clip0_410_742">
<rect width="312" height="312" fill="white" transform="translate(100 100)"/>
</clipPath>
</defs>
</svg>
