<svg width="310" height="310" viewBox="0 0 310 310" fill="none" xmlns="http://www.w3.org/2000/svg">
<g clip-path="url(#clip0_1152_3231)">
<path d="M0 80C0 35.8172 35.8172 0 80 0H230C274.183 0 310 35.8172 310 80V230C310 274.183 274.183 310 230 310H80C35.8172 310 0 274.183 0 230V80Z" fill="#5754F9"/>
<path d="M190.514 260.864C188.968 259.661 187.621 258.22 186.522 256.595L177.747 244.931C170.323 247.32 162.56 248.471 154.766 248.337C130.532 248.337 111.482 242.358 97.6164 230.399C83.7506 218.439 76.3998 200.897 75.5641 177.772C75.3088 172.757 75.3088 165.339 75.3088 155.472C75.3088 145.604 75.3088 137.93 75.5641 132.914C76.2605 110.1 83.7041 92.5117 97.8949 80.1483C112.086 67.785 131.043 61.6421 154.766 61.7199C178.521 61.7199 197.532 67.8627 211.8 80.1483C226.069 92.434 233.551 110.023 234.247 132.914C234.603 142.945 234.773 150.464 234.758 155.472C234.743 160.479 234.572 167.913 234.247 177.772C233.551 199.047 227.361 215.64 215.677 227.553L234.503 254.519C234.943 255.316 235.204 256.199 235.269 257.108V257.668C235.274 258.327 235.14 258.979 234.876 259.582C234.612 260.186 234.223 260.726 233.737 261.167C232.752 262.084 231.458 262.592 230.115 262.59H196.317C194.246 262.682 192.203 262.074 190.514 260.864ZM177.445 202.406C183.032 196.714 185.995 187.982 186.336 176.21C186.599 166.21 186.731 159.15 186.731 155.029C186.731 150.526 186.545 143.365 186.197 133.777C185.887 121.974 182.97 113.218 177.445 107.511C171.921 101.804 164.361 98.9811 154.766 99.0433C150.662 98.8507 146.562 99.5116 142.724 100.985C138.885 102.458 135.391 104.711 132.459 107.604C126.857 113.265 123.886 121.966 123.545 133.708C123.39 138.591 123.305 145.698 123.29 155.029C123.274 164.359 123.359 171.443 123.545 176.28C123.886 188.036 126.81 196.769 132.32 202.476C137.829 208.183 145.311 211.029 154.766 211.014C164.237 211.014 171.797 208.144 177.445 202.406Z" fill="white"/>
</g>
<defs>
<clipPath id="clip0_1152_3231">
<rect width="310" height="310" fill="white"/>
</clipPath>
</defs>
</svg>
