<?xml version="1.0" encoding="utf-8"?>
<!-- Generator: Adobe Illustrator 25.1.0, SVG Export Plug-In . SVG Version: 6.00 Build 0)  -->
<svg version="1.1" id="Layer_1" xmlns="http://www.w3.org/2000/svg" xmlns:xlink="http://www.w3.org/1999/xlink" x="0px" y="0px"
	 viewBox="0 0 1175.5 1080" style="enable-background:new 0 0 1175.5 1080;" xml:space="preserve">
<style type="text/css">
	.st0{fill:#F2F7FC;}
	.st1{fill:url(#SVGID_2_);}
	.st2{fill:url(#SVGID_3_);}
	.st3{fill:url(#SVGID_4_);}
	.st4{fill:#D2DCE7;}
	.st5{fill:#27C3F3;}
	.st6{fill:#4AC7F4;}
	.st7{fill:#E6EFF9;}
	.st8{fill:#DEE8F4;}
	.st9{fill:url(#SVGID_5_);}
	.st10{fill:#FFFFFF;}
	.st11{fill:#4564AE;}
	.st12{fill:url(#SVGID_6_);}
	.st13{fill:#BDCFE0;}
	.st14{fill:url(#SVGID_7_);}
	.st15{fill:#76B6E3;}
	.st16{fill-rule:evenodd;clip-rule:evenodd;fill:#BDCFE0;}
	.st17{fill-rule:evenodd;clip-rule:evenodd;fill:#F2F7FC;}
	.st18{fill-rule:evenodd;clip-rule:evenodd;fill:url(#SVGID_8_);}
	.st19{fill-rule:evenodd;clip-rule:evenodd;fill:url(#SVGID_9_);}
	.st20{fill-rule:evenodd;clip-rule:evenodd;fill:#76B6E3;}
	.st21{fill-rule:evenodd;clip-rule:evenodd;fill:url(#SVGID_10_);}
	.st22{fill-rule:evenodd;clip-rule:evenodd;fill:#8347E5;}
	.st23{fill-rule:evenodd;clip-rule:evenodd;fill:#4B1AAE;}
	.st24{fill-rule:evenodd;clip-rule:evenodd;fill:url(#SVGID_11_);}
	.st25{fill-rule:evenodd;clip-rule:evenodd;fill:url(#SVGID_12_);}
	.st26{fill-rule:evenodd;clip-rule:evenodd;fill:url(#SVGID_13_);}
	.st27{fill-rule:evenodd;clip-rule:evenodd;fill:url(#SVGID_14_);}
	.st28{fill-rule:evenodd;clip-rule:evenodd;fill:#FFFFFF;}
	.st29{fill-rule:evenodd;clip-rule:evenodd;fill:#E5DEFC;}
	.st30{fill-rule:evenodd;clip-rule:evenodd;fill:#4984B7;}
	.st31{opacity:0.9;fill-rule:evenodd;clip-rule:evenodd;fill:#76B6E3;enable-background:new    ;}
	.st32{opacity:0.9;fill-rule:evenodd;clip-rule:evenodd;fill:#FFFFFF;enable-background:new    ;}
	.st33{fill-rule:evenodd;clip-rule:evenodd;fill:#0D5ED1;}
	.st34{fill-rule:evenodd;clip-rule:evenodd;fill:#FFB5B9;}
	.st35{fill-rule:evenodd;clip-rule:evenodd;fill:#E5E5F7;}
	.st36{fill-rule:evenodd;clip-rule:evenodd;fill:#F4F3FF;}
	.st37{fill-rule:evenodd;clip-rule:evenodd;fill:#C5D2E1;}
	.st38{fill-rule:evenodd;clip-rule:evenodd;fill:#80C1E8;}
	.st39{fill-rule:evenodd;clip-rule:evenodd;fill:#5495C6;}
	.st40{fill-rule:evenodd;clip-rule:evenodd;fill:#6AA8CE;}
	.st41{fill:#FFB3C7;}
	.st42{fill:#0A0B09;}
	.st43{clip-path:url(#SVGID_16_);}
	.st44{clip-path:url(#SVGID_18_);}
	.st45{opacity:0.4;fill:url(#SVGID_19_);enable-background:new    ;}
	.st46{clip-path:url(#SVGID_23_);}
	.st47{clip-path:url(#SVGID_24_);}
	.st48{clip-path:url(#SVGID_25_);fill:url(#SVGID_26_);}
	.st49{opacity:0.4;clip-path:url(#SVGID_28_);fill:url(#SVGID_29_);enable-background:new    ;}
	.st50{fill:#4D4D4F;}
	.st51{fill-rule:evenodd;clip-rule:evenodd;fill:#009DE2;}
	.st52{fill-rule:evenodd;clip-rule:evenodd;fill:#113984;}
	.st53{fill-rule:evenodd;clip-rule:evenodd;fill:#172C70;}
</style>
<g>
	<path class="st0" d="M353.6,500.8c6.9,4,6.9,10.4,0.1,14.4L161,626.2c-6.8,4-18,4-24.8,0l-129-81.9c-6.8-4-6.9-10.4-0.1-14.4
		l192.6-111c6.8-4,18-4,24.8,0L353.6,500.8z"/>
</g>
<g>
	<path class="st0" d="M1166.8,796.2c6.8,4,6.9,10.4,0.1,14.4l-168.5,96.7c-6.8,4-18,4-24.8,0l-71.3-43.6c-6.8-4-6.9-10.4-0.1-14.4
		l168.5-96.7c6.8-4,18-4,24.8,0L1166.8,796.2z"/>
</g>
<path class="st0" d="M298.6,614l299.9-182.9c11.8-7.2,26.7-7.4,38.7-0.4l355,208.3c13.4,7.8,13.6,27.1,0.4,35.2l-277.7,170
	c-11.4,7-25.7,7.2-37.4,0.7L298.9,631.7C292.1,627.8,291.9,618,298.6,614z"/>
<linearGradient id="SVGID_2_" gradientUnits="userSpaceOnUse" x1="649.7416" y1="346.61" x2="1857.0222" y2="346.61" gradientTransform="matrix(1 0 0 -1 0 1080)">
	<stop  offset="0" style="stop-color:#E6EFF9"/>
	<stop  offset="1" style="stop-color:#E6EFF9"/>
</linearGradient>
<path class="st1" d="M677.6,628.4c0.4,3.1,0.3,6.3-0.3,9.5l343,200.4c0.4-0.7,0.8-1.4,1.1-2.1c1-1.8,2-3.5,3-5.2L677.6,628.4z"/>
<linearGradient id="SVGID_3_" gradientUnits="userSpaceOnUse" x1="536.7466" y1="169.6328" x2="1023.3715" y2="169.6328" gradientTransform="matrix(1 0 0 -1 0 1080)">
	<stop  offset="0" style="stop-color:#E6EFF9"/>
	<stop  offset="1" style="stop-color:#E6EFF9"/>
</linearGradient>
<path class="st2" d="M1022.8,818.8c-1.2-2-3.7-2.7-5.7-1.5L722.7,989.9c-2.3,4.8-4.8,9.5-7.5,14.1l306.1-179.5
	C1023.3,823.3,1024,820.8,1022.8,818.8z"/>
<linearGradient id="SVGID_4_" gradientUnits="userSpaceOnUse" x1="-167.858" y1="533.355" x2="1039.4227" y2="533.355" gradientTransform="matrix(1 0 0 -1 0 1080)">
	<stop  offset="0" style="stop-color:#E6EFF9"/>
	<stop  offset="1" style="stop-color:#E6EFF9"/>
</linearGradient>
<path class="st3" d="M408.8,586.9l-151.2-88.3c-1.4,2.4-2.8,4.8-4.2,7.3l151.1,88.3c0.7,0.4,1.4,0.6,2.1,0.6c1.4,0,2.8-0.7,3.6-2.1
	C411.5,590.7,410.8,588.1,408.8,586.9z"/>
<g>
	<g>
		<path class="st0" d="M905.7,966c6.8,4,6.9,10.4,0.1,14.4L737.2,1077c-6.8,3.9-18,3.9-24.8,0l-71.3-43.6
			c-6.8-3.9-6.9-10.4-0.1-14.4l168.5-96.7c6.8-4,18-4,24.8,0L905.7,966z"/>
	</g>
	<g>
		<g>
			<path class="st4" d="M914.4,922.4L914.4,922.4c-0.2,2.1-1.8,4.3-4.8,6.1l-172.4,98.4c-0.8,0.5-1.7,0.9-2.7,1.2v29
				c-0.9,0.4-1.9,0.7-2.9,0.9c2-0.5,3.9-1.2,5.6-2.1l172.3-98.4c3.3-1.9,5-4.4,4.8-6.8L914.4,922.4L914.4,922.4z"/>
			<path class="st5" d="M731.6,1058c-0.3,0.1-0.6,0.1-1,0.2C731,1058.2,731.3,1058.1,731.6,1058z"/>
			<path class="st5" d="M721.6,1058.2C721.6,1058.2,721.7,1058.2,721.6,1058.2c0.2,0,0.2,0.1,0.3,0.1c0.2,0,0.4,0.1,0.6,0.1
				C722.2,1058.3,721.9,1058.2,721.6,1058.2z"/>
			<path class="st5" d="M725.5,1058.6c0.3,0,0.6,0,1,0C726.1,1058.6,725.8,1058.6,725.5,1058.6z"/>
			<path class="st5" d="M726.6,1058.6c0.1,0,0.1,0,0.2,0c0,0,0,0,0,0l0,0c1.3,0,2.5-0.2,3.8-0.4
				C729.2,1058.5,727.9,1058.6,726.6,1058.6z"/>
			<path class="st5" d="M722.5,1058.3c0.1,0,0.3,0.1,0.4,0.1c0,0,0,0,0.1,0c0.4,0.1,0.8,0.1,1.2,0.1h0c0.4,0,0.8,0.1,1.2,0.1
				C724.5,1058.6,723.5,1058.5,722.5,1058.3z"/>
			<path class="st6" d="M632.3,975.1L632.3,975.1v0.1C632.3,975.2,632.3,975.1,632.3,975.1z"/>
			<g>
				<path class="st7" d="M719.1,1057.4c0.2,0.1,0.3,0.1,0.5,0.2c0.2,0.1,0.3,0.1,0.5,0.2c-0.4-0.1-0.8-0.3-1.2-0.4
					C719,1057.3,719.1,1057.4,719.1,1057.4z"/>
				<path class="st7" d="M720.2,1057.8C720.2,1057.8,720.2,1057.8,720.2,1057.8C720.1,1057.8,720.2,1057.8,720.2,1057.8z"/>
				<path class="st7" d="M718.9,1057.3C718.9,1057.3,718.9,1057.3,718.9,1057.3C718.9,1057.3,718.9,1057.3,718.9,1057.3
					L718.9,1057.3z"/>
				<path class="st7" d="M720.2,1057.8c0.1,0,0.1,0,0.2,0.1c0.1,0,0.2,0.1,0.3,0.1c0.2,0.1,0.5,0.1,0.8,0.2
					C721,1058,720.6,1057.9,720.2,1057.8z"/>
				<path class="st7" d="M717.7,1027.7l-78.2-45.1l-3.8-2.2c-2.1-1.2-3.2-2.8-3.4-4.6v28.3c-0.1,2,1,3.9,3.4,5.2l3.8,2.2l0,0
					l78.2,45.1c0.3,0.2,0.6,0.3,1,0.5c0.1,0,0.2,0.1,0.3,0.1v-29C718.5,1028.2,718,1028,717.7,1027.7z"/>
			</g>
			<path class="st8" d="M734.6,1028.2c-5.1,1.9-11.4,2-15.7,0.2v29c0.8,0.3,1.7,0.6,2.6,0.8c0,0,0.1,0,0.1,0
				c0.3,0.1,0.6,0.1,0.9,0.2c0,0,0.1,0,0.1,0c0.9,0.2,1.9,0.2,2.9,0.3h0c0.3,0,0.6,0,1,0c0,0,0.1,0,0.2,0c1.3,0,2.7-0.2,4-0.4
				c0,0,0.1,0,0.1,0c0.3-0.1,0.6-0.1,1-0.2c0,0,0,0,0.1,0c1-0.2,2-0.5,2.9-0.9L734.6,1028.2L734.6,1028.2z"/>
			
				<linearGradient id="SVGID_5_" gradientUnits="userSpaceOnUse" x1="632.255" y1="131.2081" x2="914.442" y2="131.2081" gradientTransform="matrix(1 0 0 -1 0 1080)">
				<stop  offset="0" style="stop-color:#FFFFFF"/>
				<stop  offset="0.4982" style="stop-color:#FCFDFF"/>
				<stop  offset="0.7974" style="stop-color:#F4F7FF"/>
				<stop  offset="1" style="stop-color:#E9EEFF"/>
			</linearGradient>
			<path class="st9" d="M635.6,980.4l3.8,2.2l78.2,45.1c0.4,0.2,0.8,0.4,1.3,0.6c4.3,1.9,10.6,1.8,15.7-0.2c0.9-0.4,1.8-0.8,2.7-1.2
				l172.3-98.4c3-1.7,4.6-3.9,4.8-6.1c0.1-2-1-3.9-3.4-5.2l-82-47.3c-5-2.9-13.8-2.5-19.6,0.8l-172.3,98.4c-3,1.7-4.6,3.9-4.8,6
				c0,0,0,0.1,0,0.1c0,0.2,0,0.5,0,0.7C632.4,977.6,633.5,979.2,635.6,980.4z"/>
		</g>
		<path class="st10" d="M909.6,922.9l-172.3,98.4c-5.8,3.3-14.6,3.7-19.6,0.8l-82-47.3c-1.1-0.7-2-1.4-2.5-2.2
			c-1.7,2.8-1,5.8,2.5,7.8l82,47.3c5,2.9,13.8,2.5,19.6-0.8l172.3-98.4c4.5-2.6,5.9-6.2,3.9-9.1
			C912.8,920.7,911.5,921.9,909.6,922.9z"/>
		<g>
			<path class="st11" d="M884.3,958.1c0,2.1-1.5,4.7-3.3,5.7c-1.8,1-3.3,0.2-3.3-1.9s1.5-4.7,3.3-5.7
				C882.8,955.2,884.3,956,884.3,958.1z"/>
			<path class="st11" d="M894.9,952c0,2.1-1.5,4.7-3.3,5.7c-1.8,1-3.3,0.2-3.3-1.9s1.5-4.7,3.3-5.7S894.9,949.9,894.9,952z"/>
			<path class="st11" d="M905.6,945.8c0,2.1-1.5,4.7-3.3,5.7c-1.8,1-3.3,0.2-3.3-1.9s1.5-4.7,3.3-5.7
				C904.1,942.9,905.6,943.7,905.6,945.8z"/>
		</g>
	</g>
</g>
<g>
	<g>
		<path class="st4" d="M1175.5,752.6L1175.5,752.6c-0.2,2.1-1.8,4.3-4.8,6.1l-172.3,98.4c-0.8,0.5-1.7,0.9-2.7,1.2v29
			c-0.9,0.4-1.9,0.7-2.9,0.9c2-0.5,3.9-1.2,5.6-2.1l172.3-98.4c3.3-1.9,5-4.4,4.8-6.8V752.6z"/>
		<path class="st5" d="M992.7,888.2c-0.3,0.1-0.6,0.1-1,0.2C992.1,888.4,992.4,888.3,992.7,888.2z"/>
		<path class="st5" d="M982.7,888.4C982.7,888.4,982.8,888.4,982.7,888.4c0.2,0,0.2,0.1,0.3,0.1c0.2,0,0.4,0.1,0.6,0.1
			C983.3,888.5,983,888.5,982.7,888.4z"/>
		<path class="st5" d="M986.6,888.9c0.3,0,0.6,0,1,0C987.2,888.9,986.9,888.9,986.6,888.9z"/>
		<path class="st5" d="M987.7,888.9c0.1,0,0.1,0,0.2,0c0,0,0,0,0,0l0,0c1.3,0,2.5-0.2,3.8-0.4C990.3,888.7,989,888.8,987.7,888.9z"
			/>
		<path class="st5" d="M983.7,888.6c0.1,0,0.3,0,0.4,0.1c0,0,0,0,0.1,0c0.4,0.1,0.8,0.1,1.2,0.1h0c0.4,0,0.8,0.1,1.2,0.1
			C985.6,888.8,984.6,888.7,983.7,888.6z"/>
		<path class="st6" d="M893.4,805.3L893.4,805.3v0.1C893.4,805.4,893.4,805.3,893.4,805.3z"/>
		<g>
			<path class="st7" d="M980.2,887.6c0.2,0.1,0.3,0.1,0.5,0.2c0.2,0,0.3,0.1,0.5,0.2c-0.4-0.1-0.8-0.3-1.2-0.4
				C980.1,887.6,980.2,887.6,980.2,887.6z"/>
			<path class="st7" d="M981.3,888C981.3,888,981.2,888,981.3,888C981.2,888,981.3,888,981.3,888z"/>
			<path class="st7" d="M980,887.5C980,887.5,980,887.5,980,887.5C980,887.5,980,887.5,980,887.5L980,887.5z"/>
			<path class="st7" d="M981.3,888c0.1,0,0.1,0,0.2,0.1c0.1,0,0.2,0.1,0.3,0.1c0.2,0.1,0.5,0.1,0.8,0.2
				C982.2,888.3,981.7,888.1,981.3,888z"/>
			<path class="st7" d="M978.8,858l-78.2-45.1l-3.8-2.2c-2.1-1.2-3.2-2.8-3.4-4.6v28.3c-0.1,2,1,3.9,3.4,5.2l3.8,2.2l0,0l78.2,45.1
				c0.3,0.2,0.6,0.3,1,0.5c0.1,0,0.2,0.1,0.3,0.1v-29C979.6,858.4,979.2,858.2,978.8,858z"/>
		</g>
		<path class="st8" d="M995.7,858.4c-5.1,1.9-11.4,2-15.7,0.2v29c0.8,0.3,1.7,0.6,2.6,0.8c0,0,0.1,0,0.1,0c0.3,0.1,0.6,0.1,0.9,0.2
			c0,0,0.1,0,0.1,0c0.9,0.2,1.9,0.2,2.9,0.3h0c0.3,0,0.6,0,1,0c0,0,0.1,0,0.2,0c1.3,0,2.7-0.2,4-0.4c0,0,0.1,0,0.1,0
			c0.3-0.1,0.6-0.1,1-0.2c0,0,0,0,0.1,0c1-0.2,2-0.5,2.9-0.9L995.7,858.4L995.7,858.4z"/>
		
			<linearGradient id="SVGID_6_" gradientUnits="userSpaceOnUse" x1="893.355" y1="300.968" x2="1175.542" y2="300.968" gradientTransform="matrix(1 0 0 -1 0 1080)">
			<stop  offset="0" style="stop-color:#FFFFFF"/>
			<stop  offset="0.4982" style="stop-color:#FCFDFF"/>
			<stop  offset="0.7974" style="stop-color:#F4F7FF"/>
			<stop  offset="1" style="stop-color:#E9EEFF"/>
		</linearGradient>
		<path class="st12" d="M896.7,810.7l3.8,2.2l78.2,45.1c0.4,0.2,0.8,0.4,1.3,0.6c4.3,1.9,10.6,1.8,15.7-0.2c0.9-0.4,1.8-0.8,2.7-1.2
			l172.3-98.4c3-1.7,4.6-3.9,4.8-6.1c0.1-2-0.9-3.9-3.4-5.2l-82-47.3c-5-2.9-13.8-2.5-19.6,0.8l-172.3,98.4c-3,1.7-4.6,3.9-4.8,6
			c0,0,0,0.1,0,0.1c0,0.2,0,0.5,0,0.7C893.5,807.8,894.6,809.5,896.7,810.7z"/>
	</g>
	<path class="st10" d="M1170.7,753.2l-172.3,98.4c-5.8,3.3-14.6,3.7-19.6,0.8l-82-47.3c-1.1-0.7-2-1.4-2.5-2.2
		c-1.7,2.8-1,5.8,2.5,7.8l82,47.3c5,2.9,13.8,2.5,19.6-0.8l172.3-98.4c4.5-2.6,5.9-6.2,3.9-9.1
		C1173.9,750.9,1172.6,752.1,1170.7,753.2z"/>
	<g>
		<path class="st11" d="M1145.4,788.3c0,2.1-1.5,4.7-3.3,5.7c-1.8,1-3.3,0.2-3.3-1.9s1.5-4.7,3.3-5.7
			C1143.9,785.4,1145.4,786.2,1145.4,788.3z"/>
		<path class="st11" d="M1156,782.2c0,2.1-1.5,4.7-3.3,5.7c-1.8,1-3.3,0.2-3.3-1.9s1.5-4.7,3.3-5.7
			C1154.5,779.2,1156,780.1,1156,782.2z"/>
		<path class="st11" d="M1166.7,776.1c0,2.1-1.5,4.7-3.3,5.7c-1.8,1-3.3,0.2-3.3-1.9s1.5-4.7,3.3-5.7
			C1165.2,773.1,1166.7,774,1166.7,776.1z"/>
	</g>
</g>
<g>
	<g>
		<path class="st13" d="M358.7,438.4L358.7,438.4c-0.2,2.1-1.8,4.3-4.8,6.1L160.5,555.7c-0.8,0.5-1.7,0.9-2.7,1.2v29
			c-0.9,0.4-1.9,0.7-2.9,0.9c2-0.5,3.9-1.2,5.6-2.1L354,473.4c3.4-1.9,5-4.4,4.8-6.8V438.4z"/>
		<path class="st5" d="M154.8,586.8c-0.3,0.1-0.6,0.1-1,0.2C154.1,586.9,154.5,586.8,154.8,586.8z"/>
		<path class="st5" d="M144.7,586.9C144.8,586.9,144.8,586.9,144.7,586.9c0.1,0,0.2,0.1,0.3,0.1c0.2,0,0.4,0.1,0.6,0.1
			C145.3,587,145,587,144.7,586.9z"/>
		<path class="st5" d="M148.6,587.4c0.3,0,0.6,0,0.9,0C149.3,587.4,148.9,587.4,148.6,587.4z"/>
		<path class="st5" d="M149.7,587.4c0.1,0,0.1,0,0.2,0c0,0,0,0,0,0l0,0c1.3,0,2.5-0.2,3.8-0.4C152.4,587.2,151.1,587.4,149.7,587.4z
			"/>
		<path class="st5" d="M145.7,587.1c0.1,0,0.3,0,0.4,0.1c0,0,0.1,0,0.1,0c0.4,0.1,0.8,0.1,1.2,0.1h0c0.4,0,0.8,0.1,1.2,0.1
			C147.6,587.3,146.6,587.2,145.7,587.1z"/>
		<path class="st6" d="M0,472L0,472v0.1C0,472.1,0,472,0,472z"/>
		<g>
			<path class="st7" d="M142.3,586.1c0.2,0.1,0.3,0.1,0.5,0.2c0.1,0,0.3,0.1,0.5,0.2c-0.4-0.1-0.8-0.3-1.2-0.4
				C142.2,586.1,142.2,586.1,142.3,586.1z"/>
			<path class="st7" d="M143.4,586.5c0,0-0.1,0-0.1,0C143.3,586.5,143.3,586.5,143.4,586.5z"/>
			<path class="st7" d="M142.1,586C142.1,586,142.1,586,142.1,586C142.1,586.1,142.1,586.1,142.1,586L142.1,586z"/>
			<path class="st7" d="M143.4,586.5c0.1,0,0.1,0,0.2,0.1c0.1,0,0.2,0.1,0.3,0.1c0.2,0.1,0.5,0.1,0.8,0.2
				C144.2,586.8,143.8,586.7,143.4,586.5z"/>
			<path class="st7" d="M140.8,556.5L7.2,479.6l-3.8-2.2c-2.1-1.2-3.2-2.9-3.4-4.6v28.3c-0.1,2,0.9,3.9,3.4,5.2l3.8,2.2l0,0
				l133.6,76.9c0.3,0.2,0.6,0.3,1,0.5c0.1,0,0.2,0.1,0.3,0.1v-28.9C141.6,556.9,141.2,556.7,140.8,556.5z"/>
		</g>
		<path class="st8" d="M157.8,556.9c-5.1,1.9-11.4,2-15.7,0.2v29c0.8,0.3,1.7,0.6,2.6,0.8c0,0,0.1,0,0.1,0c0.3,0.1,0.6,0.1,0.9,0.2
			c0,0,0.1,0,0.1,0c0.9,0.2,1.9,0.2,2.9,0.3h0c0.3,0,0.6,0,0.9,0c0.1,0,0.1,0,0.1,0c1.3,0,2.7-0.2,4-0.4c0,0,0.1,0,0.1,0
			c0.3-0.1,0.6-0.1,1-0.2c0,0,0,0,0.1,0c1-0.2,2-0.5,2.9-0.9L157.8,556.9L157.8,556.9z"/>
		
			<linearGradient id="SVGID_7_" gradientUnits="userSpaceOnUse" x1="36.2359" y1="621.3437" x2="360.1953" y2="629.0939" gradientTransform="matrix(1 0 0 -1 0 1080)">
			<stop  offset="0" style="stop-color:#FFFFFF"/>
			<stop  offset="0.4982" style="stop-color:#FCFDFF"/>
			<stop  offset="0.7974" style="stop-color:#F4F7FF"/>
			<stop  offset="1" style="stop-color:#E9EEFF"/>
		</linearGradient>
		<path class="st14" d="M3.4,477.4l3.8,2.2l133.6,76.9c0.4,0.2,0.8,0.4,1.3,0.6c4.3,1.9,10.6,1.8,15.7-0.2c0.9-0.4,1.8-0.8,2.7-1.2
			l193.5-111.2c3-1.7,4.6-3.9,4.8-6.1c0.1-2-1-3.9-3.4-5.2L217.9,354c-5-2.9-13.8-2.5-19.6,0.8L4.8,466c-3,1.7-4.6,3.9-4.8,6
			c0,0,0,0.1,0,0.1c0,0.2,0,0.5,0,0.7C0.2,474.5,1.3,476.1,3.4,477.4z"/>
	</g>
	<path class="st10" d="M354,438.9L160.5,550.1c-5.8,3.3-14.6,3.7-19.6,0.8L3.4,471.8c-1.1-0.6-2-1.4-2.5-2.2
		c-1.7,2.8-0.9,5.8,2.5,7.8l137.4,79.1c5,2.9,13.8,2.5,19.6-0.8L354,444.4c4.5-2.6,5.9-6.2,3.9-9.1
		C357.1,436.6,355.8,437.8,354,438.9z"/>
	<g>
		<path class="st15" d="M328.6,474.1c0,2.1-1.5,4.7-3.3,5.7c-1.8,1-3.3,0.2-3.3-1.9c0-2.1,1.5-4.7,3.3-5.7S328.6,472,328.6,474.1z"
			/>
		<path class="st15" d="M339.2,467.9c0,2.1-1.5,4.7-3.3,5.7c-1.8,1-3.3,0.2-3.3-1.9c0-2.1,1.5-4.7,3.3-5.7
			C337.7,465,339.2,465.8,339.2,467.9z"/>
		<path class="st15" d="M349.9,461.8c0,2.1-1.5,4.7-3.3,5.7c-1.8,1-3.3,0.2-3.3-1.9s1.5-4.7,3.3-5.7S349.9,459.7,349.9,461.8z"/>
	</g>
</g>
<g>
	<path class="st16" d="M964.5,251.2c-1.7-3.6-6.1-9.3-8.6-12.1c-1.9-2.1-4.1-4.2-6.6-5.7l-387-223.1c-5.1-2.9-6.9-5.5-12.2-3.8
		L549,4.2c10.1-5.8,8.8-5.6,19.8,0.8l395.5,228.3c8.2,7.1,9,16.9,9,27.1v336.1c0,14-0.1,14.3-10.9,20.5l-1.4-2.2
		c5.3-4.2,4.3-8.4,4.3-15.4V314.4L964.5,251.2z"/>
	<path class="st17" d="M960.1,614.8l0.1,17.5c0,3.1-2.4,7.2-4.9,8.6L707.8,783.1c-9.5,5.3-19.4,5.3-29,0L302.6,566.1l-0.1,0
		c-2.1-1.6-3.8-4.3-4-7V559l-0.1-21.3l2.5-0.2l0.2,1.2c0.5,2.8,1.5,4.3,3.9,5.8l375,216.2c8.7,4.8,17.6,4.8,26.3,0L960.1,614.8z"/>
	<path class="st17" d="M957,234.5c7.1,4.1,11.3,15,11.3,22.9c0,53.4,0,106.8,0,160.2c0,62.5,0,125,0,187.5c0,4.3-1.3,10.1-5.9,11.8
		c-2.3,0.9-4.8,0.3-6.8-0.9c-66.6-38.4-133.2-76.8-199.8-115.2c-66.6-38.4-133.1-76.7-199.7-115.1c-7.1-4.1-11.3-15.1-11.3-23
		c0-53.4,0-106.8,0-160.2c0-62.5,0-125,0-187.6c0-4.3,1.3-10,5.8-11.7c2.3-0.9,4.8-0.3,7,0.9C624.1,42.6,690.7,81,757.3,119.4
		C823.8,157.7,890.4,196.1,957,234.5"/>
	
		<linearGradient id="SVGID_8_" gradientUnits="userSpaceOnUse" x1="546.26" y1="769.8289" x2="966.8201" y2="769.8289" gradientTransform="matrix(1 0 0 -1 0 1080)">
		<stop  offset="0" style="stop-color:#FFFFFF"/>
		<stop  offset="0.4982" style="stop-color:#FCFDFF"/>
		<stop  offset="0.7974" style="stop-color:#F4F7FF"/>
		<stop  offset="1" style="stop-color:#E9EEFF"/>
	</linearGradient>
	<path class="st18" d="M956.3,235.8C889.7,197.4,823,159,756.5,120.6C690,82.3,623.3,43.9,556.8,5.5c-5.8-3.4-10.6,1-10.6,9.5
		c0,62.5,0,125.1,0,187.6s0,97.7,0,160.2c0,8.6,4.7,18.3,10.6,21.7c66.5,38.4,133.1,76.7,199.7,115.1
		C823,538,889.7,576.4,956.3,614.8c5.8,3.4,10.5-1,10.5-9.6c0-62.5,0-125.1,0-187.5s0-97.8,0-160.2
		C966.8,248.9,962.1,239.1,956.3,235.8"/>
	
		<linearGradient id="SVGID_9_" gradientUnits="userSpaceOnUse" x1="615.7857" y1="971.138" x2="781.7461" y2="707.0375" gradientTransform="matrix(1 0 0 -1 0 1080)">
		<stop  offset="0" style="stop-color:#FFFFFF"/>
		<stop  offset="0.4982" style="stop-color:#FCFDFF"/>
		<stop  offset="0.7974" style="stop-color:#F4F7FF"/>
		<stop  offset="1" style="stop-color:#E9EEFF"/>
	</linearGradient>
	<path class="st19" d="M914.8,211.9L556.8,5.5c-5.8-3.4-10.6,1-10.6,9.5c0,62.5,0,125.1,0,187.5s0,97.7,0,160.2
		c0,8.6,4.7,18.4,10.6,21.7L653,440L914.8,211.9z"/>
	<polygon class="st16" points="948,577.3 557.5,352.2 557.5,36.8 948,261.9 	"/>
	<polygon class="st20" points="946.9,262.8 756.5,153 561,40.3 561,349.3 946.9,571.7 	"/>
	<path class="st17" d="M764.3,140.9c0,6.3-3.5,9.4-7.7,7c-4.3-2.4-7.7-9.6-7.7-15.9c0-6.3,3.5-9.4,7.7-7
		C760.8,127.5,764.3,134.7,764.3,140.9"/>
	<path class="st16" d="M750.3,132.9c0-5.1,2.8-7.8,6.3-5.8c3.5,2,6.3,7.9,6.3,13c0,5.1-2.8,7.7-6.3,5.7
		C753.1,143.8,750.3,138,750.3,132.9"/>
	
		<linearGradient id="SVGID_10_" gradientUnits="userSpaceOnUse" x1="753.35" y1="943.505" x2="759.7899" y2="943.505" gradientTransform="matrix(1 0 0 -1 0 1080)">
		<stop  offset="0" style="stop-color:#FFFFFF"/>
		<stop  offset="0.4982" style="stop-color:#FCFDFF"/>
		<stop  offset="0.7974" style="stop-color:#F4F7FF"/>
		<stop  offset="1" style="stop-color:#E9EEFF"/>
	</linearGradient>
	<path class="st21" d="M753.3,134.7c0-2.6,1.4-4,3.2-2.9c1.8,1.1,3.2,4,3.2,6.6s-1.4,4-3.2,2.9S753.3,137.3,753.3,134.7"/>
	<path class="st22" d="M331.1,521.1l0.1,20c-0.2-4,0.9-7,4.5-9.2l219.1-126.3l-0.1-20L333.6,513.4
		C331.4,515.6,330.9,518.2,331.1,521.1"/>
	<path class="st23" d="M554.7,385.6l0.1,20L954.5,636c0.6,0.4,1.3,0.4,2,0s1-1,1-1.7l-0.1-16.6L554.7,385.6z"/>
	<path class="st16" d="M958.8,617l0.1,14.3c0,3.6-1.8,6.7-4.9,8.5l-246.8,142c-9.1,5.1-18.5,5.1-27.6,0L303.4,565
		c-1.9-1.4-3.3-3.7-3.5-6l-0.1-20c0.6,3.1,1.7,5,4.5,6.7l375.1,216.2c9.1,5.1,18.5,5.1,27.6,0L958.8,617z"/>
	<path class="st17" d="M303.6,528.6L554.7,384l405.4,233.4L707.7,763.1c-9.2,5.3-19.8,5.3-29,0L303.6,546.9
		c-3.4-1.9-5.3-5.3-5.3-9.2C298.3,533.8,300.2,530.5,303.6,528.6"/>
	
		<linearGradient id="SVGID_11_" gradientUnits="userSpaceOnUse" x1="299.7" y1="504.3525" x2="957.39" y2="504.3525" gradientTransform="matrix(1 0 0 -1 0 1080)">
		<stop  offset="0" style="stop-color:#FFFFFF"/>
		<stop  offset="0.4982" style="stop-color:#FCFDFF"/>
		<stop  offset="0.7974" style="stop-color:#F4F7FF"/>
		<stop  offset="1" style="stop-color:#E9EEFF"/>
	</linearGradient>
	<path class="st24" d="M304.3,529.8l250.4-144.1l402.7,232.1L707,761.9c-8.8,5.1-18.8,5.1-27.6,0L304.3,545.7
		c-2.9-1.7-4.6-4.6-4.6-8C299.7,534.3,301.4,531.4,304.3,529.8"/>
	<polygon class="st16" points="451.7,609.6 518.9,570.8 620.2,629.3 552.9,668 	"/>
	
		<linearGradient id="SVGID_12_" gradientUnits="userSpaceOnUse" x1="454.88" y1="458.715" x2="616.97" y2="458.715" gradientTransform="matrix(1 0 0 -1 0 1080)">
		<stop  offset="0" style="stop-color:#FFFFFF"/>
		<stop  offset="0.4982" style="stop-color:#FCFDFF"/>
		<stop  offset="0.7974" style="stop-color:#F4F7FF"/>
		<stop  offset="1" style="stop-color:#E9EEFF"/>
	</linearGradient>
	<polygon class="st25" points="617,631.1 552.9,668 454.9,611.5 518.9,574.5 	"/>
	
		<linearGradient id="SVGID_13_" gradientUnits="userSpaceOnUse" x1="406.8397" y1="522.064" x2="916.2643" y2="522.064" gradientTransform="matrix(1 0 0 -1 0 1080)">
		<stop  offset="0" style="stop-color:#FFFFFF"/>
		<stop  offset="0.4982" style="stop-color:#FCFDFF"/>
		<stop  offset="0.7974" style="stop-color:#F4F7FF"/>
		<stop  offset="1" style="stop-color:#E9EEFF"/>
	</linearGradient>
	<path class="st26" d="M539,412.9c62.3,35.9,124.7,71.9,187,107.8c62.3,35.9,124.7,71.9,187,107.8c3.7,2.1,4.3,5.1,1.4,6.8
		c-19.8,11.4-39.6,22.8-59.4,34.2c-19.8,11.4-39.6,22.9-59.4,34.2c-2.8,1.6-8.1,1.2-11.8-0.9C721.6,667,659.3,631,597,595.1
		c-62.2-35.9-124.6-71.8-186.9-107.8c-3.7-2.1-4.3-5.1-1.5-6.8c19.8-11.4,39.6-22.8,59.4-34.2c19.8-11.4,39.5-22.8,59.4-34.2
		C530.2,410.5,535.4,410.9,539,412.9"/>
	<path class="st16" d="M788.1,608.8c0,5.3,0.4,3.7-10.2,9.8c-6.1,3.5-7.7,1.1-16.9-4.2L740.6,602l-0.2-4.2
		c0.3,2.2,10.5,6.3,12.8,7.7c3.8,2.2,16.3,10.5,19.7,10.7c3.1,0.2,10.5-4.4,13.5-6.2L788.1,608.8z M826.1,678.3
		c0,5.3,0.4,3.7-10.2,9.8c-6.2,3.6-7.9,0.9-17.3-4.5c-8-4.6-7.1-3.2-7.1-8.7c0.2,2.5,11.6,7,14.1,8.4c7.8,4.5,6.5,2.8,18.4-4.2
		L826.1,678.3z M773.3,647.8c0,5.3,0.5,3.7-10.1,9.8c-6.2,3.6-8,0.9-17.3-4.5c-8-4.6-7.1-3.2-7.1-8.7c0.4,2.2,10.5,6.6,12.9,8
		c8.7,5,6.9,4.1,19.8-3.4L773.3,647.8z M720.7,617.5c0,5.3,0.4,3.7-10.2,9.8c-6.3,3.6-7.8,1-17.9-4.8l-19.7-11.9l-0.2-4.2
		c0.1,2.3,8.3,5.4,11.8,7.4c4,2.3,17.6,10.8,21,11.1c3.1,0.2,10.1-4.5,13.1-6.2L720.7,617.5z M680.8,594.5c0,5.3,0.4,3.7-10.2,9.8
		c-6.2,3.6-7.8,1-17.3-4.5c-8-4.6-7.1-3.2-7.1-8.7c0.1,2.5,10.9,6.5,13.3,7.9c8.7,5,6.1,4.2,19.1-3.3L680.8,594.5z M654.4,579.3
		c0,5.3,0.4,3.7-10.2,9.8c-6.2,3.6-7.8,1-17.3-4.5c-8-4.6-7.1-3.2-7.1-8.7c0.1,2.5,11,6.5,13.4,7.9c8.7,5,6.1,4.3,19.1-3.2
		L654.4,579.3z M628,564c0,5.3,0.4,3.7-10.2,9.8c-6.2,3.6-7.9,0.9-17.3-4.5c-8-4.6-7.1-3.2-7.1-8.7c0.1,2.5,11.3,6.2,13.7,7.5
		c8.7,5,5.6,4.5,18.6-3L628,564z M601.6,548.8c0,5.3,0.4,3.7-10.2,9.8c-6.2,3.6-7.9,0.9-17.3-4.5c-8-4.6-7.1-3.2-7.1-8.7
		c0.1,2.5,10.6,6.4,13,7.8c8.7,5,6.2,4.1,19.2-3.3L601.6,548.8z M575.2,533.6c0,5.3,0.4,3.7-10.2,9.8c-6.2,3.6-7.9,0.9-17.3-4.5
		c-8-4.6-7.1-3.2-7.1-8.7c0.2,2.5,11.8,6.9,14.3,8.3c7.8,4.5,6.4,3.1,18.3-3.8L575.2,533.6z M548.8,518.4c0,5.3,0.4,3.7-10.2,9.8
		c-6.2,3.6-7.9,0.9-17.3-4.5c-8-4.6-7.1-3.2-7.1-8.7c0.1,2.5,10.9,6.7,13.3,8.1c8.7,5,6.2,3.9,19.1-3.6L548.8,518.4z M522.3,503.1
		c0,5.3,0.4,3.7-10.2,9.8c-6.2,3.6-7.9,0.9-17.3-4.5c-8-4.6-7.1-3.2-7.1-8.7c0.1,2.5,10.6,6.5,13,7.8c8.7,5,6.5,4.3,19.5-3.2
		L522.3,503.1z M495.9,487.9c0,5.3,0.4,3.7-10.1,9.8c-6.2,3.6-7.8,1-17.1-4.4c-4-2.3-32.7-18.2-33.5-19.8l-0.2-3.7
		c0.8,2.4,19.2,11.3,22.5,13.3c4.1,2.4,19.6,12.2,23.1,12.5c3.1,0.2,10.5-4.6,13.5-6.3L495.9,487.9z M867.4,654.5
		c0,5.3,0.4,3.7-10.2,9.8c-6.2,3.6-7.9,0.9-17.3-4.5c-8-4.6-7.1-3.3-7.1-8.7c0.1,2.5,11.2,7,13.6,8.4c7.8,4.5,7,3.1,19-3.8
		L867.4,654.5z M841,639.3c0,5.3,0.4,3.7-10.2,9.8c-6.2,3.6-7.9,0.9-17.3-4.5c-8-4.6-7.1-3.2-7.1-8.7c0.1,2.4,10.7,6.5,13,7.9
		c8.7,5,6.6,4.1,19.6-3.4L841,639.3z M748.5,586c0,5.3,0.5,3.7-10.2,9.8c-6.2,3.6-8,0.9-17.3-4.5c-8-4.6-7.1-3.2-7.1-8.7l13.1,7.9
		c8.6,5.2,6.6,4.2,19.5-3.3L748.5,586z M722.1,570.7c0,5.3,0.4,3.7-10.1,9.8c-6.2,3.6-8,0.9-17.3-4.5c-8-4.6-7.1-3.2-7.1-8.7
		l12.9,7.7c8.6,5.1,6.6,4.2,19.5-3.3L722.1,570.7z M695.7,555.5c0,5.3,0.4,3.7-10.1,9.8c-6.2,3.6-8,0.9-17.3-4.5
		c-8-4.6-7.1-3.2-7.1-8.7c0.1,2.4,10.8,6.4,13.1,7.7c8.7,5,6.4,4.3,19.4-3.2L695.7,555.5z M669.2,540.3c0,5.3,0.4,3.7-10.1,9.8
		c-6.2,3.6-8.1,0.9-17.3-4.5c-8-4.6-7-3.2-7-8.7c0.1,2.4,11,6.4,13.3,7.7c8.8,5,6.1,4.1,19-3.3L669.2,540.3z M642.8,525
		c0,5.3,0.4,3.7-10.1,9.8c-6.2,3.6-8.1,0.9-17.3-4.5c-8-4.6-7-3.2-7-8.7l13.3,7.8c8.7,5.1,6.2,4.1,19.1-3.3L642.8,525z M616.4,509.8
		c0,5.3,0.4,3.7-10.1,9.8c-6.2,3.6-8.1,0.9-17.3-4.5c-8-4.6-7.1-3.2-7.1-8.7l13,7.9c8.6,5.2,6.7,4.1,19.6-3.4L616.4,509.8z
		 M590,494.6c0,5.3,0.4,3.7-10.2,9.8c-6.2,3.6-8,0.9-17.3-4.5c-8-4.6-7.1-3.2-7.1-8.7l13.1,7.9c8.6,5.2,6.5,4,19.4-3.5L590,494.6z
		 M563.6,479.4c0,5.3,0.4,3.7-10.2,9.8c-6.2,3.6-8,0.9-17.3-4.5c-8-4.6-7.1-3.2-7.1-8.7l13,7.7c8.7,5,6.6,4.2,19.6-3.2L563.6,479.4z
		 M537.2,464.1c0,5.3,0.4,3.7-10.2,9.8c-6.2,3.6-7.9,0.9-17.3-4.5c-7.8-4.5-7.1-3.2-7.1-8.2l16.4,9.4c4.9,2.8,9-1.4,16.1-5.5
		L537.2,464.1z M510.7,448.9c0,5.3,0.4,3.7-10.1,9.8c-6.2,3.6-7.9,0.9-17.3-4.5c-7.8-4.5-7.1-3.2-7.1-8.2l16.2,9.6
		c4.9,2.9,9.3-1.4,16.4-5.5L510.7,448.9z M908.6,630.7c0,5.3,0.4,3.7-10.2,9.8c-6.2,3.6-7.9,1-17.3-4.4c-8-4.6-7.1-3.3-7.1-8.7
		c0.2,2.5,11.8,7.2,14.3,8.6c7.8,4.5,6.1,2.7,18.1-4.1L908.6,630.7z M850.2,618.2c-2.1-1.4-1.6-1.9-1.6-5.5
		c0.1,2.5,10.7,6.4,13.1,7.8c8.6,5,6.6,4.5,19.7-3l1.9-1.4c0,5.3,0.4,3.7-10.2,9.8c-6.2,3.6-7.8,1-17.3-4.4L850.2,618.2z
		 M824.7,603.5c-2.1-1.4-1.6-1.9-1.6-5.5c0.1,2.5,10.8,6.7,13.2,8c8.7,5,6.2,4,19.2-3.5l2.2-1.2c0,5.3,0.4,3.7-10.2,9.8
		c-6.2,3.6-7.9,1-17.3-4.5L824.7,603.5z M799.3,588.8c-2.1-1.4-1.6-1.9-1.6-5.5c0.1,2.5,10.4,6.5,12.8,7.9c8.7,5,6.7,4.2,19.7-3.4
		l2.1-1.2c0,5.3,0.4,3.7-10.2,9.8c-6.2,3.6-7.9,1-17.3-4.5L799.3,588.8z M773.8,574.2c-2.1-1.4-1.6-2-1.6-5.5
		c0.1,2.5,10.6,6.3,13,7.7c8.7,5,6.7,4.5,19.7-3l1.9-1.3c0,5.3,0.5,3.7-10.2,9.8c-6.2,3.6-7.9,1-17.3-4.5L773.8,574.2z M748.3,559.5
		c-2.1-1.4-1.6-2-1.6-5.5c0.1,2.5,10.6,6.6,13,8c8.6,5,6.6,4.3,19.7-3.3l1.9-1.3c0,5.3,0.4,3.7-10.2,9.8c-6.2,3.6-7.8,1-17.3-4.5
		L748.3,559.5z M722.9,544.8c-2.1-1.4-1.6-1.9-1.6-5.5c0.1,2.5,10.6,6.5,13,7.9c8.6,5,6.5,4.3,19.5-3.2l2-1.3
		c0,5.3,0.4,3.7-10.2,9.8c-6.2,3.6-7.8,1-17.3-4.5L722.9,544.8z M697.3,530.1c-2.1-1.4-1.6-1.9-1.6-5.5c0.1,2.4,10.7,6.4,13.1,7.8
		c8.6,5,6.4,4.4,19.5-3.1l2-1.3c0,5.3,0.4,3.7-10.2,9.8c-6.2,3.6-7.8,1-17.3-4.5L697.3,530.1z M671.9,515.4
		c-2.1-1.4-1.6-1.9-1.6-5.5c0.1,2.4,10.3,6.5,12.7,7.9c8.7,5,6.9,4.1,19.9-3.4l2-1.1c0,5.3,0.4,3.7-10.2,9.8
		c-6.1,3.5-7.5,1.2-16.4-4L671.9,515.4z M646.4,500.7c-2.1-1.4-1.6-1.9-1.6-5.5c0.1,2.4,10.6,6.5,12.9,7.9c8.7,5,6.6,4.2,19.6-3.3
		l2-1.2c0,5.3,0.4,3.7-10.2,9.8c-6.1,3.5-7.5,1.1-16.4-4L646.4,500.7z M620.9,486c-2.1-1.4-1.6-1.9-1.6-5.5c0.1,2.5,10.8,6.6,13.2,8
		c8.7,5,6.1,3.8,19.1-3.7l2.2-1c0,5.3,0.4,3.7-10.2,9.8c-6.1,3.5-7.5,1.1-16.4-4L620.9,486z M595.5,471.4c-2.1-1.4-1.6-1.9-1.6-5.5
		c0.1,2.5,10.8,6.5,13.1,7.8c8.6,5,6.5,4.3,19.5-3.2l1.9-1.3c0,5.3,0.4,3.7-10.2,9.8c-6.2,3.6-7.8,1-17.3-4.5L595.5,471.4z
		 M570,456.7c-2.1-1.4-1.6-1.9-1.6-5.5c0.1,2.5,10.5,6.5,12.9,7.9c8.6,5,6.5,4.1,19.5-3.4l2.1-1.2c0,5.3,0.3,3.7-10.2,9.8
		c-6.2,3.6-7.8,1-17.3-4.5L570,456.7z M544.5,442c-2.1-1.4-1.6-1.8-1.6-5.5c0.1,2.4,10.6,6.6,12.9,8c8.6,5,6.8,4.2,19.8-3.2l1.9-1.4
		c0,5.3,0.4,3.7-10.2,9.8c-6.2,3.6-7.8,1-17.3-4.5L544.5,442z M552,425.1c0,5.3,0.4,3.7-10.2,9.8c-6.2,3.6-7.8,0.9-17.2-4.5
		c-8-4.6-7.1-3.2-7.1-8.7c0.1,2.4,10.7,6.5,13,7.8c8.7,5,6.5,4.2,19.6-3.2L552,425.1z M805.5,690.2c0,5.3,0.4,3.7-10.2,9.8
		c-6.2,3.6-7.8,1-17.2-4.5c-8-4.6-7.2-3.2-7.2-8.7c0.2,2.5,11.7,6.9,14.2,8.3c7.7,4.4,6.4,3.3,18.4-3.6L805.5,690.2z M779.1,674.9
		c0,5.3,0.4,3.7-10.2,9.8c-6.2,3.6-7.9,0.9-17.3-4.5c-8-4.6-7.1-3.2-7.1-8.7c0.1,2.5,11.5,7.1,13.9,8.5c7.7,4.5,6.3,3.2,18.4-3.7
		L779.1,674.9z M752.7,659.7c0,5.3,0.5,3.7-10.2,9.8c-6.2,3.6-8,0.9-17.3-4.5c-8-4.6-7.1-3.2-7.1-8.7c0.1,2.5,11.7,7.1,14.2,8.5
		c7.8,4.5,6.3,3.2,18.3-3.8L752.7,659.7z M726.3,644.5c0,5.3,0.5,3.7-10.2,9.8c-6.2,3.6-8,0.9-17.3-4.5c-8-4.6-7.1-3.2-7.1-8.7
		l12.7,8c8.5,5.3,7,4.2,20-3.3L726.3,644.5z M699.9,629.3c0,5.3,0.4,3.7-10.2,9.8c-6.2,3.6-7.9,0.9-17.3-4.5c-8-4.6-7.1-3.2-7.1-8.7
		l19.6,11.2L699.9,629.3z M673.4,614c0,5.3,0.4,3.7-10.2,9.8c-6.2,3.5-7.4,1.2-17.3-4.5l-138.6-80.1l-0.6-4.7l151.8,87.2L673.4,614z
		 M515,522.7c0,5.3,0.4,3.7-10.2,9.8c-6.2,3.6-7.9,1-17.2-4.5c-8-4.6-7.1-3.2-7.1-8.7l13.9,8.5c7.3,4.5,6.4,2.3,19-3.6L515,522.7z
		 M488.5,507.4c0,5.3,0.4,3.7-10.2,9.8c-6.2,3.6-7.9,1-17.2-4.5c-8-4.6-7.1-3.2-7.1-8.7l14,8.6c7.6,4.7,6.6,3,18.7-3.9L488.5,507.4z
		 M462.1,492.2c0,5.3,0.4,3.7-10.2,9.8c-6.1,3.5-7.5,1.1-16.9-4.2l-20.5-12.4l-0.2-3.7l19.4,11.4c8.6,5,11.5,9,17.1,5.8
		C452.8,497.7,461.7,493.7,462.1,492.2z M846.7,666.4c0,5.3,0.4,3.7-10.2,9.8c-6.2,3.6-7.9,0.9-17.2-4.5c-8-4.6-7.1-3.2-7.1-8.7
		c0.2,2.5,11.3,6.9,13.8,8.3c7.8,4.5,6.7,3.2,18.7-3.6L846.7,666.4z M820.3,651.2c0,5.3,0.4,3.7-10.2,9.8c-6.2,3.6-7.9,0.9-17.3-4.5
		c-8-4.6-7.1-3.2-7.1-8.7c0.1,2.5,10.7,6.7,13.1,8c8.7,5,6.4,4,19.4-3.4L820.3,651.2z M814.5,624c0,5.3,0.6,3.6-9.9,9.6
		c-3.7,2.1-22.5,13.7-25.1,13.8c-4,0.1-16.5-8.2-20.7-10.6l-25.8-15.4l-0.2-4.2c0.1,2.5,11.3,6.9,13.7,8.3l31.1,17.6
		c3.9,0.7,10.1-3.7,13.5-5.7l23-13.3L814.5,624z M741.1,605.5c0,5.3,0.4,3.7-10.2,9.8c-6.2,3.6-8,0.9-17.3-4.5
		c-8-4.6-7.1-3.2-7.1-8.7c0.1,2.5,10.5,6.5,12.9,7.9c8.8,5,6.7,4.2,19.7-3.2L741.1,605.5z M714.6,590.2c0,5.3,0.4,3.7-10.2,9.8
		c-6.2,3.6-7.8,1-17.3-4.5c-8-4.6-7.1-3.2-7.1-8.7c0.1,2.5,10.6,6.5,13,7.8c8.7,5,6.2,4.2,19.3-3.3L714.6,590.2z M688.2,575
		c0,5.3,0.4,3.7-10.2,9.8c-6.2,3.6-7.8,1-17.3-4.5c-8-4.6-7.1-3.2-7.1-8.7c0.1,2.5,10.5,6.1,12.9,7.5c8.7,5,6.6,4.6,19.6-2.8
		L688.2,575z M661.8,559.8c0,5.3,0.4,3.7-10.2,9.8c-6.2,3.6-7.8,1-17.3-4.5c-8-4.6-7.1-3.2-7.1-8.7c0.1,2.5,10.6,6.4,13,7.7
		c8.7,5,6.4,4.3,19.4-3.2L661.8,559.8z M635.4,544.5c0,5.3,0.4,3.7-10.2,9.8c-6.2,3.6-7.9,0.9-17.3-4.5c-8-4.6-7.1-3.2-7.1-8.7
		c0.1,2.5,10.6,6.6,12.9,8c8.7,5,6.7,4.2,19.7-3.3L635.4,544.5z M609,529.3c0,5.3,0.4,3.7-10.2,9.8c-6.2,3.6-7.9,0.9-17.3-4.5
		c-8-4.6-7.1-3.2-7.1-8.7c0.2,2.5,11.2,7.1,13.7,8.5c7.8,4.5,6.9,3,18.9-3.9L609,529.3z M582.6,514.1c0,5.3,0.4,3.7-10.2,9.8
		c-6.2,3.6-7.9,0.9-17.3-4.5c-8-4.6-7.1-3.2-7.1-8.7c0.2,2.5,11.5,6.8,14,8.3c7.8,4.5,6.8,3.4,18.7-3.5L582.6,514.1z M556.2,498.9
		c0,5.3,0.4,3.7-10.2,9.8c-6.2,3.6-7.9,0.9-17.3-4.5c-8-4.6-7.1-3.2-7.1-8.7c0.1,2.5,11,6.1,13.4,7.5c8.7,5,6.1,4.6,19.1-2.8
		L556.2,498.9z M529.8,483.6c0,5.3,0.4,3.7-10.2,9.8c-6.2,3.6-7.9,0.9-17.3-4.5c-8-4.6-7.1-3.2-7.1-8.7c0.1,2.4,10.8,6.5,13.1,7.9
		c8.7,5,6.5,4.3,19.4-3.2L529.8,483.6z M470.4,470.6c-2.2-1.3-14.5-7.7-14.8-9.4v-3.3c0.8,2.3,19,10.4,22.6,12.5
		c12.9,7.4,8.2,7.6,23-0.9l2.2-1.1c0,5.3,0.4,3.7-10.2,9.8c-6.2,3.6-8,0.9-17.2-4.5L470.4,470.6z M888,642.6c0,5.3,0.4,3.7-10.2,9.8
		c-6.2,3.6-7.8,1-17.2-4.4c-8-4.6-7.1-3.3-7.1-8.7c0.2,2.6,12.6,7,15.1,8.5c6.8,3.9,6.8,2.2,17.4-3.9L888,642.6z M861.6,627.4
		c0,5.3,0.4,3.7-10.2,9.8c-6.2,3.6-7.9,1-17.3-4.5c-8-4.6-7.1-3.2-7.1-8.7c0.1,2.5,11.6,6.8,14.1,8.2c7.7,4.5,6.1,3.2,18.1-3.7
		L861.6,627.4z M803.3,614.9c-2.1-1.4-1.6-1.9-1.6-5.5c0.1,2.4,10.8,6.5,13.1,7.8c8.8,5,6.4,4.3,19.4-3.1l2-1.4
		c0,5.3,0.4,3.7-10.2,9.8c-6.2,3.6-7.9,0.9-17.3-4.5L803.3,614.9z M777.9,600.3c-2.1-1.4-1.6-2-1.6-5.6c0.1,2.5,10.6,6.3,13,7.7
		c8.7,5,6.4,4.4,19.4-3l2.1-1.3c0,5.3,0.5,3.7-10.2,9.8c-6.2,3.6-7.9,0.9-17.3-4.5L777.9,600.3z M752.5,585.6
		c-2.1-1.5-1.6-1.9-1.6-5.5c0.1,2.5,11.6,7.3,14.1,8.7c7.8,4.5,6.4,2.8,18.5-4.1l1.9-1.2c0,5.3,0.4,3.7-10.2,9.8
		c-6.2,3.6-7.7,1-17.2-4.5L752.5,585.6z M727,571c-2.1-1.4-1.6-1.9-1.6-5.5c0.1,2.5,10.8,6.4,13.2,7.8c8.8,5.1,6.2,3.9,19.1-3.5
		l2.2-1c0,5.3,0.5,3.7-10.2,9.8c-6.2,3.6-8,0.9-17.3-4.5L727,571z M701.7,556.4c-2.2-1.5-1.7-2-1.7-5.6c0.2,2.6,12.5,7.5,15.1,9
		c6.9,4,6.9,1.6,17.5-4.5l2-1.2c0,5.3,0.5,3.7-10.2,9.8c-6.2,3.6-7.9,0.9-17.3-4.5L701.7,556.4z M676.3,541.7
		c-2.1-1.4-1.7-1.9-1.7-5.5c0.1,2.4,10.7,6.4,13.1,7.8c8.7,5,6.5,4.3,19.5-3.1l2-1.3c0,5.3,0.4,3.7-10.2,9.8
		c-6.2,3.6-7.9,0.9-17.3-4.5L676.3,541.7z M650.8,527.1c-2.1-1.4-1.6-1.9-1.6-5.5c0.1,2.5,11.5,7,14,8.4c7.8,4.5,6.6,3,18.6-3.8
		l2-1.2c0,5.3,0.5,3.6-10.2,9.8c-6.2,3.6-8,0.9-17.3-4.5L650.8,527.1z M625.5,512.4c-2.2-1.4-1.7-1.9-1.7-5.5
		c0.2,2.5,11.4,6.9,13.8,8.3c7.8,4.5,6.6,3.2,18.7-3.7l2-1.2c0,5.3,0.4,3.6-10.2,9.8c-6.2,3.6-7.9,0.9-17.3-4.5L625.5,512.4z
		 M600.1,497.8c-2.1-1.5-1.6-1.9-1.6-5.6l12.8,7.8c8.6,5.2,6.8,4.2,19.8-3.3l2-1.1c0,5.3,0.4,3.7-10.2,9.8
		c-6.2,3.6-7.9,0.9-17.3-4.5L600.1,497.8z M574.7,483.1c-2.1-1.5-1.6-1.9-1.6-5.5l14.1,8c7.8,4.5,6.4,3.3,18.4-3.5l2-1.1
		c0,5.3,0.5,3.7-10.2,9.8c-6.2,3.6-7.9,0.9-17.3-4.5L574.7,483.1z M549.2,468.5c-2.1-1.4-1.6-1.9-1.6-5.5l14.1,8.3
		c7.8,4.6,6.5,3.1,18.5-3.8l2-1.2c0,5.3,0.5,3.6-10.2,9.8c-6.2,3.6-8,0.9-17.3-4.5L549.2,468.5z M523.9,453.9
		c-2.2-1.5-1.7-2-1.7-5.6L537,457c6.8,4,7.2,1.8,17.8-4.2l1.9-1.1c0,5.3,0.4,3.6-10.2,9.8c-6.2,3.6-7.9,0.9-17.2-4.4L523.9,453.9z
		 M712.6,629.4c0,5.1-0.7,3.9,7.1,8.4c9.3,5.3,11.1,8.1,17.3,4.5c10.6-6.1,10.1-4.5,10.1-9.8c0,0.5-0.7,0.6-1.2,0.9
		c-0.2,0.1-0.5,0.3-0.7,0.4l-10.3,5.9c-0.1,0.1-0.2,0.1-0.3,0.2c-1.4,0.8-4.2,0.6-6-0.5c-1-0.6-2.1-1.2-3.1-1.8
		c-0.2-0.1-0.3-0.2-0.5-0.3l-9.8-5.7c-0.2-0.1-0.5-0.3-0.7-0.4C713.5,630.5,712.7,630,712.6,629.4z M764.9,660
		c0,5.1-0.7,3.9,7.1,8.4c9.3,5.3,11.1,8.1,17.3,4.5c10.6-6.1,10.1-4.5,10.1-9.8c0,0.5-0.4,0.7-0.9,1c-0.2,0.1-0.5,0.3-0.7,0.4
		c-5.3,3-8.4,4.7-10.6,5.7c-0.1,0.1-0.2,0.1-0.3,0.2c-1.4,0.8-3.8,0.2-5.6-0.9C779.3,668.4,765.1,662.2,764.9,660z M531.4,437
		c0,5.3,0.4,3.7-10.2,9.8c-6.2,3.6-7.8,0.9-17.2-4.5c-8-4.6-7.1-3.2-7.1-8.7l13.3,7.6c8.7,5,6.1,4.3,19.2-3.2L531.4,437z"/>
	
		<linearGradient id="SVGID_14_" gradientUnits="userSpaceOnUse" x1="414.3643" y1="524.0411" x2="908.6324" y2="524.0411" gradientTransform="matrix(1 0 0 -1 0 1080)">
		<stop  offset="0" style="stop-color:#FFFFFF"/>
		<stop  offset="0.4982" style="stop-color:#FCFDFF"/>
		<stop  offset="0.7974" style="stop-color:#F4F7FF"/>
		<stop  offset="1" style="stop-color:#E9EEFF"/>
	</linearGradient>
	<path class="st27" d="M540.5,441c4.9,2.8,9.8,5.6,14.6,8.4c1.8,1,2.2,2.6,0.7,3.4c-3.8,2.2-7.7,4.4-11.4,6.6
		c-1.5,0.8-4.1,0.7-6-0.4c-4.9-2.8-9.8-5.6-14.6-8.4c-1.8-1.1-2.2-2.7-0.8-3.5c3.8-2.2,7.6-4.4,11.4-6.6
		C535.9,439.7,538.7,439.9,540.5,441 M565.9,455.6c4.9,2.8,9.8,5.6,14.6,8.4c1.9,1.1,2.2,2.6,0.8,3.5c-3.8,2.2-7.6,4.4-11.4,6.6
		c-1.5,0.8-4.1,0.6-6-0.5c-4.9-2.8-9.8-5.6-14.6-8.4c-1.8-1.1-2.2-2.6-0.7-3.4c3.8-2.2,7.6-4.4,11.4-6.6
		C561.3,454.3,564.1,454.5,565.9,455.6z M591.3,470.3c4.9,2.8,9.8,5.6,14.6,8.4c1.8,1,2.2,2.6,0.7,3.4c-3.8,2.2-7.6,4.4-11.4,6.6
		c-1.5,0.8-4.1,0.6-6-0.4c-4.9-2.8-9.8-5.6-14.6-8.4c-1.8-1.1-2.2-2.6-0.7-3.4c3.8-2.2,7.6-4.4,11.4-6.6
		C586.8,469,589.5,469.2,591.3,470.3z M616.7,484.9c4.9,2.8,9.8,5.6,14.6,8.4c1.8,1.1,2.2,2.6,0.7,3.4c-3.8,2.2-7.6,4.4-11.4,6.6
		c-1.5,0.8-4.1,0.6-6-0.4c-4.9-2.8-9.8-5.6-14.6-8.4c-1.9-1.1-2.2-2.7-0.7-3.5c3.8-2.2,7.6-4.4,11.4-6.6
		C612.2,483.6,614.8,483.8,616.7,484.9z M642.2,499.5c4.9,2.8,9.8,5.6,14.6,8.4c1.8,1.1,2.2,2.6,0.7,3.5c-3.8,2.2-7.6,4.4-11.4,6.6
		c-1.5,0.8-4.1,0.6-6-0.5c-4.9-2.8-9.8-5.6-14.6-8.4c-1.9-1.1-2.2-2.6-0.8-3.4c3.8-2.2,7.6-4.4,11.4-6.6
		C637.5,498.3,640.3,498.5,642.2,499.5z M667.5,514.2c4.9,2.8,9.8,5.6,14.6,8.4c1.8,1.1,2.2,2.6,0.8,3.4c-3.8,2.2-7.7,4.4-11.4,6.6
		c-1.5,0.8-4.2,0.6-6-0.4c-4.9-2.8-9.8-5.6-14.6-8.4c-1.8-1.1-2.2-2.6-0.7-3.4c3.8-2.2,7.6-4.4,11.4-6.6
		C663,512.9,665.7,513.1,667.5,514.2z M692.9,528.8c4.9,2.8,9.8,5.6,14.6,8.4c1.9,1.1,2.2,2.6,0.7,3.4c-3.8,2.2-7.6,4.4-11.4,6.6
		c-1.5,0.8-4.1,0.6-6-0.4c-4.9-2.8-9.8-5.6-14.6-8.4c-1.9-1.1-2.2-2.6-0.7-3.4c3.8-2.2,7.6-4.4,11.4-6.6
		C688.4,527.6,691,527.8,692.9,528.8z M718.3,543.5c4.9,2.8,9.8,5.6,14.6,8.4c1.8,1.1,2.2,2.6,0.7,3.4c-3.8,2.2-7.6,4.4-11.4,6.6
		c-1.5,0.8-4.1,0.6-6-0.4c-4.9-2.8-9.8-5.6-14.6-8.4c-1.8-1.1-2.2-2.7-0.8-3.5c3.8-2.2,7.6-4.4,11.4-6.6
		C713.7,542.2,716.5,542.4,718.3,543.5z M743.7,558.1c4.9,2.8,9.8,5.6,14.6,8.4c1.9,1.1,2.2,2.6,0.8,3.5c-3.8,2.2-7.6,4.4-11.4,6.6
		c-1.5,0.8-4.1,0.6-6-0.5c-4.9-2.8-9.8-5.6-14.6-8.4c-1.8-1.1-2.2-2.6-0.7-3.4c3.8-2.2,7.6-4.4,11.4-6.6
		C739.2,556.8,741.9,557,743.7,558.1z M769.1,572.8c4.9,2.8,9.8,5.6,14.7,8.4c1.8,1.1,2.1,2.6,0.7,3.4c-3.8,2.2-7.6,4.4-11.4,6.6
		c-1.5,0.8-4.1,0.7-5.9-0.4c-4.9-2.8-9.8-5.6-14.7-8.4c-1.8-1.1-2.2-2.6-0.7-3.4c3.8-2.2,7.6-4.4,11.4-6.6
		C764.6,571.5,767.3,571.7,769.1,572.8z M794.5,587.4c4.9,2.8,9.8,5.6,14.6,8.4c1.8,1.1,2.2,2.6,0.7,3.4c-3.8,2.2-7.6,4.4-11.4,6.6
		c-1.5,0.8-4.1,0.6-6-0.4c-4.9-2.8-9.8-5.6-14.6-8.4c-1.8-1.1-2.2-2.7-0.7-3.5c3.8-2.2,7.6-4.4,11.4-6.6
		C790,586.1,792.7,586.3,794.5,587.4z M820,602c4.9,2.8,9.8,5.6,14.6,8.4c1.8,1.1,2.2,2.6,0.7,3.5c-3.8,2.2-7.6,4.4-11.4,6.6
		c-1.5,0.8-4.1,0.6-6-0.5c-4.9-2.8-9.8-5.6-14.6-8.4c-1.9-1.1-2.2-2.6-0.7-3.4c3.8-2.2,7.6-4.4,11.4-6.6
		C815.4,600.8,818.1,601,820,602z M845.3,616.7c4.9,2.8,9.8,5.6,14.7,8.5c1.8,1.1,2.2,2.6,0.7,3.4c-3.8,2.2-7.6,4.4-11.4,6.6
		c-1.5,0.8-4.1,0.7-6-0.4c-4.9-2.8-9.8-5.7-14.7-8.5c-1.8-1-2.2-2.6-0.7-3.4c3.8-2.2,7.6-4.4,11.4-6.6
		C840.8,615.4,843.5,615.6,845.3,616.7z M871.8,631.9c4.9,2.8,9.8,5.6,14.6,8.4c1.8,1.1,2.2,2.6,0.7,3.4c-3.8,2.2-7.6,4.4-11.4,6.6
		c-1.5,0.8-4.1,0.7-6-0.4c-4.9-2.8-9.8-5.6-14.6-8.4c-1.8-1.1-2.2-2.6-0.8-3.5c3.8-2.2,7.6-4.4,11.4-6.6
		C867.2,630.7,870,630.9,871.8,631.9z M487,457.7c0.5,0.3,0.9,0.5,1.4,0.8c4.4,2.5,8.8,5.1,13.2,7.6c1.9,1.1,2.2,2.6,0.8,3.5
		c-3.8,2.2-7.6,4.4-11.4,6.6c-1.4,0.8-4.1,0.6-6-0.5c-4.4-2.5-8.8-5.1-13.2-7.6c-0.5-0.3-0.9-0.5-1.4-0.8c-4.4-2.5-8.8-5.1-13.2-7.6
		c-1.8-1.1-2.1-2.6-0.7-3.4c3.8-2.2,7.6-4.4,11.4-6.6c1.5-0.8,4.1-0.7,5.9,0.4C478.2,452.6,482.6,455.2,487,457.7z M513.5,473
		c4.9,2.8,9.8,5.6,14.6,8.4c1.8,1.1,2.2,2.6,0.7,3.4c-3.8,2.2-7.6,4.4-11.4,6.6c-1.4,0.8-4.1,0.6-6-0.4c-4.9-2.8-9.8-5.6-14.6-8.4
		c-1.9-1.1-2.1-2.6-0.7-3.4c3.8-2.2,7.6-4.4,11.4-6.6C509,471.7,511.6,471.9,513.5,473z M539.9,488.2c4.9,2.8,9.8,5.6,14.6,8.4
		c1.8,1.1,2.2,2.6,0.7,3.4c-3.8,2.2-7.6,4.4-11.4,6.6c-1.4,0.8-4.1,0.6-6-0.4c-4.9-2.8-9.8-5.6-14.6-8.4c-1.8-1.1-2.2-2.6-0.7-3.4
		c3.8-2.2,7.6-4.4,11.4-6.6C535.4,486.9,538.1,487.1,539.9,488.2z M566.3,503.4c4.9,2.8,9.8,5.6,14.6,8.4c1.8,1.1,2.2,2.6,0.7,3.4
		c-3.8,2.2-7.6,4.4-11.4,6.6c-1.4,0.8-4.1,0.6-6-0.4c-4.9-2.8-9.8-5.6-14.6-8.4c-1.8-1.1-2.2-2.7-0.8-3.5c3.8-2.2,7.6-4.4,11.4-6.6
		C561.8,502.1,564.5,502.4,566.3,503.4z M592.7,518.6c4.9,2.8,9.8,5.6,14.6,8.4c1.8,1,2.2,2.6,0.7,3.4c-3.8,2.2-7.6,4.4-11.4,6.6
		c-1.4,0.8-4.1,0.6-6-0.4c-4.9-2.8-9.8-5.6-14.6-8.4c-1.8-1.1-2.2-2.7-0.8-3.5c3.8-2.2,7.6-4.4,11.4-6.6
		C588.2,517.3,590.9,517.6,592.7,518.6z M619.2,533.8c4.9,2.8,9.8,5.6,14.6,8.4c1.8,1.1,2.2,2.6,0.7,3.4c-3.8,2.2-7.6,4.4-11.4,6.6
		c-1.4,0.8-4.1,0.6-6-0.4c-4.9-2.8-9.8-5.6-14.6-8.4c-1.8-1.1-2.2-2.6-0.7-3.4c3.8-2.2,7.6-4.4,11.4-6.6
		C614.6,532.6,617.3,532.8,619.2,533.8z M645.6,549.1c4.9,2.8,9.8,5.6,14.6,8.4c1.9,1.1,2.2,2.6,0.7,3.5c-3.8,2.2-7.6,4.4-11.4,6.6
		c-1.4,0.8-4.1,0.7-6-0.4c-4.9-2.8-9.8-5.6-14.6-8.4c-1.8-1.1-2.2-2.6-0.7-3.4c3.8-2.2,7.6-4.4,11.4-6.6
		C641,547.8,643.7,548,645.6,549.1z M672,564.3c4.9,2.8,9.8,5.6,14.6,8.4c1.9,1.1,2.2,2.6,0.7,3.4c-3.8,2.2-7.6,4.4-11.4,6.6
		c-1.4,0.8-4.1,0.7-6-0.4c-4.9-2.8-9.8-5.6-14.6-8.4c-1.8-1.1-2.2-2.6-0.7-3.4c3.8-2.2,7.6-4.4,11.4-6.6
		C667.5,563,670.1,563.2,672,564.3z M698.4,579.5c4.9,2.8,9.8,5.6,14.6,8.4c1.9,1.1,2.2,2.6,0.7,3.5c-3.8,2.2-7.6,4.4-11.4,6.6
		c-1.4,0.8-4.1,0.7-6-0.4c-4.9-2.8-9.8-5.6-14.6-8.4c-1.8-1-2.2-2.6-0.7-3.4c3.8-2.2,7.6-4.4,11.4-6.6
		C693.9,578.3,696.5,578.5,698.4,579.5z M724.8,594.8c4.9,2.8,9.8,5.6,14.6,8.4c1.9,1.1,2.2,2.6,0.8,3.5c-3.8,2.2-7.6,4.4-11.4,6.6
		c-1.4,0.8-4.1,0.6-6-0.5c-4.9-2.8-9.8-5.6-14.6-8.4c-1.8-1.1-2.2-2.6-0.7-3.4c3.8-2.2,7.6-4.4,11.4-6.6
		C720.3,593.5,723,593.7,724.8,594.8z M781.6,643.7c-1.4,0.8-4.2,0.6-6-0.5c-13.7-7.9-27.3-15.8-41-23.7c-1.8-1.1-2.1-2.6-0.7-3.4
		c3.8-2.2,7.6-4.4,11.4-6.6c1.5-0.8,4.1-0.7,5.9,0.4c6.9,4,13.8,7.9,20.7,11.9c1.3,0.7,3.2,0.9,4.2,0.3c5.4-3.1,10.8-6.2,16.1-9.3
		c1.5-0.8,4.1-0.6,6,0.4c4.9,2.8,9.8,5.6,14.6,8.4c1.8,1,2.2,2.6,0.8,3.4C803,631.4,792.3,637.5,781.6,643.7z M804,640.4
		c4.9,2.8,9.8,5.6,14.7,8.5c1.8,1,2.2,2.6,0.7,3.4c-3.8,2.2-7.6,4.4-11.4,6.6c-1.4,0.8-4.1,0.6-6-0.4c-4.9-2.8-9.8-5.7-14.7-8.5
		c-1.8-1-2.2-2.6-0.7-3.4c3.8-2.2,7.6-4.4,11.4-6.6C799.5,639.2,802.2,639.4,804,640.4z M830.5,655.7c4.9,2.8,9.8,5.6,14.6,8.4
		c1.8,1.1,2.2,2.6,0.7,3.4c-3.8,2.2-7.6,4.4-11.4,6.6c-1.4,0.8-4.1,0.6-6-0.4c-4.9-2.8-9.8-5.6-14.6-8.4c-1.8-1.1-2.2-2.7-0.8-3.5
		c3.8-2.2,7.6-4.4,11.4-6.6C825.9,654.4,828.7,654.6,830.5,655.7z M460.5,489.9c1.9,1.1,2.2,2.7,0.8,3.5c-3.8,2.2-7.6,4.4-11.4,6.6
		c-1.5,0.9-4.1,0.6-6-0.5c-9.3-5.4-18.5-10.7-27.8-16c-1.8-1.1-2.1-2.6-0.7-3.4c3.8-2.2,7.6-4.4,11.4-6.6c1.4-0.8,4.1-0.7,5.9,0.4
		C441.9,479.2,451.2,484.5,460.5,489.9z M472.3,496.7c4.9,2.8,9.8,5.6,14.6,8.4c1.8,1.1,2.1,2.6,0.7,3.5c-3.8,2.2-7.6,4.4-11.4,6.6
		c-1.5,0.8-4.1,0.6-6-0.4c-4.9-2.8-9.8-5.6-14.6-8.4c-1.9-1.1-2.2-2.6-0.7-3.4c3.8-2.2,7.6-4.4,11.4-6.6
		C467.8,495.5,470.4,495.6,472.3,496.7z M498.7,512c4.9,2.8,9.8,5.6,14.6,8.4c1.8,1.1,2.2,2.6,0.7,3.5c-3.8,2.2-7.6,4.4-11.4,6.6
		c-1.5,0.8-4.1,0.6-6-0.4c-4.9-2.8-9.8-5.6-14.6-8.4c-1.8-1.1-2.2-2.6-0.7-3.4c3.8-2.2,7.6-4.4,11.4-6.6
		C494.2,510.7,496.9,510.9,498.7,512z M525.1,527.2c24.4,14.1,48.9,28.2,73.3,42.3c24.5,14.1,48.9,28.2,73.4,42.3
		c1.9,1.1,2.2,2.6,0.7,3.4c-3.8,2.2-7.7,4.4-11.4,6.6c-1.5,0.8-4.1,0.7-6-0.4c-24.5-14.1-48.9-28.2-73.4-42.3
		c-24.4-14.1-48.9-28.2-73.3-42.3c-1.8-1.1-2.2-2.6-0.8-3.5c3.8-2.2,7.6-4.4,11.4-6.6C520.5,525.9,523.3,526.1,525.1,527.2z
		 M683.6,618.5c4.9,2.8,9.8,5.6,14.6,8.4c1.9,1.1,2.2,2.7,0.8,3.5c-3.8,2.2-7.7,4.4-11.4,6.6c-1.5,0.8-4.1,0.6-6-0.5
		c-4.9-2.8-9.8-5.6-14.6-8.4c-1.8-1-2.2-2.6-0.7-3.4c3.8-2.2,7.6-4.4,11.4-6.6C679,617.3,681.8,617.5,683.6,618.5z M710,633.8
		c4.9,2.8,9.8,5.6,14.6,8.4c1.8,1,2.2,2.7,0.8,3.5c-3.8,2.2-7.7,4.4-11.4,6.6c-1.5,0.8-4.2,0.6-6-0.5c-4.9-2.8-9.8-5.6-14.6-8.4
		c-1.8-1.1-2.2-2.6-0.7-3.4c3.8-2.2,7.6-4.4,11.4-6.6C705.5,632.5,708.2,632.7,710,633.8z M736.4,649c4.9,2.8,9.8,5.6,14.6,8.4
		c1.8,1,2.2,2.7,0.8,3.5c-3.8,2.2-7.7,4.4-11.4,6.6c-1.5,0.8-4.2,0.6-6-0.5c-4.9-2.8-9.8-5.6-14.6-8.4c-1.8-1.1-2.2-2.6-0.7-3.4
		c3.8-2.2,7.6-4.4,11.4-6.6C731.9,647.7,734.6,647.9,736.4,649z M762.8,664.2c4.9,2.8,9.8,5.6,14.7,8.5c1.8,1.1,2.2,2.6,0.7,3.4
		c-3.8,2.2-7.7,4.4-11.4,6.6c-1.5,0.8-4.1,0.6-6-0.4c-4.9-2.8-9.8-5.7-14.7-8.5c-1.8-1.1-2.2-2.6-0.7-3.4c3.8-2.2,7.6-4.4,11.4-6.6
		C758.3,663,761,663.2,762.8,664.2z M789.3,679.5c4.9,2.8,9.8,5.6,14.6,8.4c1.8,1.1,2.2,2.6,0.7,3.4c-3.8,2.2-7.7,4.4-11.4,6.6
		c-1.5,0.8-4.1,0.6-6-0.4c-4.9-2.8-9.8-5.6-14.6-8.4c-1.8-1.1-2.2-2.6-0.8-3.5c3.8-2.2,7.6-4.4,11.4-6.6
		C784.7,678.2,787.5,678.4,789.3,679.5z M535.7,414.4c4.9,2.8,9.8,5.6,14.6,8.4c1.8,1.1,2.2,2.6,0.7,3.5c-3.8,2.2-7.6,4.4-11.4,6.6
		c-1.4,0.8-4.1,0.6-6-0.5c-4.9-2.8-9.7-5.6-14.6-8.4c-1.9-1.1-2.2-2.6-0.7-3.4c3.8-2.2,7.6-4.4,11.4-6.6
		C531.2,413.2,533.8,413.3,535.7,414.4z M561.2,429.1c4.9,2.8,9.8,5.6,14.6,8.5c1.9,1,2.2,2.6,0.7,3.4c-3.8,2.2-7.6,4.4-11.4,6.6
		c-1.4,0.9-4.1,0.6-6-0.4c-4.9-2.8-9.8-5.6-14.6-8.5c-1.9-1.1-2.2-2.6-0.7-3.4c3.8-2.2,7.6-4.4,11.4-6.6
		C556.7,427.9,559.3,428,561.2,429.1z M586.7,443.8c4.9,2.8,9.8,5.6,14.6,8.4c1.9,1.1,2.2,2.6,0.7,3.4c-3.8,2.2-7.6,4.4-11.4,6.6
		c-1.4,0.9-4.1,0.6-6-0.4c-4.9-2.8-9.8-5.6-14.6-8.4c-1.8-1.1-2.2-2.6-0.7-3.4c3.8-2.2,7.6-4.4,11.4-6.6
		C582.2,442.6,584.8,442.7,586.7,443.8z M612.1,458.5c4.9,2.8,9.8,5.6,14.6,8.4c1.9,1,2.2,2.6,0.7,3.4c-3.8,2.2-7.6,4.4-11.4,6.6
		c-1.4,0.9-4.1,0.6-6-0.4c-4.9-2.8-9.8-5.6-14.6-8.4c-1.8-1.1-2.2-2.6-0.7-3.5c3.8-2.2,7.6-4.4,11.4-6.6
		C607.6,457.2,610.3,457.4,612.1,458.5z M637.6,473.2c4.9,2.8,9.8,5.6,14.6,8.4c1.9,1.1,2.2,2.7,0.8,3.5c-3.8,2.2-7.6,4.4-11.4,6.6
		c-1.4,0.9-4.1,0.6-6-0.5c-4.9-2.8-9.8-5.6-14.6-8.4c-1.8-1.1-2.2-2.6-0.7-3.4c3.8-2.2,7.6-4.4,11.4-6.6
		C633.1,471.9,635.8,472.1,637.6,473.2z M663.1,487.8c4.9,2.8,9.8,5.6,14.6,8.4c1.9,1.1,2.2,2.7,0.8,3.5c-3.8,2.2-7.6,4.4-11.4,6.6
		c-1.4,0.8-4.1,0.6-6-0.5c-4.9-2.8-9.8-5.6-14.6-8.4c-1.8-1.1-2.1-2.6-0.7-3.4c3.8-2.2,7.6-4.4,11.4-6.6
		C658.6,486.6,661.2,486.8,663.1,487.8z M688.5,502.5c4.9,2.8,9.7,5.6,14.6,8.4c1.9,1.1,2.2,2.7,0.8,3.5c-3.8,2.2-7.6,4.4-11.4,6.6
		c-1.4,0.8-4.1,0.6-6-0.5c-4.9-2.8-9.8-5.6-14.6-8.4c-1.8-1.1-2.1-2.6-0.7-3.4c3.8-2.2,7.6-4.4,11.4-6.6
		C684.1,501.3,686.7,501.5,688.5,502.5z M714,517.2c4.9,2.8,9.8,5.7,14.7,8.5c1.8,1.1,2.2,2.6,0.7,3.4c-3.8,2.2-7.6,4.4-11.4,6.6
		c-1.4,0.8-4.1,0.6-6-0.4c-4.9-2.8-9.8-5.7-14.7-8.5c-1.8-1.1-2.1-2.6-0.7-3.5c3.8-2.2,7.6-4.4,11.4-6.6
		C709.5,516,712.2,516.2,714,517.2z M739.5,531.9c4.9,2.8,9.8,5.6,14.6,8.4c1.8,1.1,2.2,2.6,0.7,3.4c-3.8,2.2-7.6,4.4-11.4,6.6
		c-1.4,0.8-4.1,0.6-6-0.4c-4.9-2.8-9.8-5.6-14.6-8.4c-1.8-1.1-2.2-2.6-0.7-3.5c3.8-2.2,7.6-4.4,11.4-6.6
		C735,530.7,737.7,530.9,739.5,531.9z M765,546.6c4.9,2.8,9.8,5.6,14.6,8.4c1.8,1.1,2.2,2.6,0.7,3.4c-3.8,2.2-7.6,4.4-11.4,6.6
		c-1.4,0.8-4.1,0.6-6-0.4c-4.9-2.8-9.8-5.6-14.6-8.4c-1.8-1.1-2.2-2.6-0.7-3.5c3.8-2.2,7.6-4.4,11.4-6.6
		C760.5,545.3,763.2,545.5,765,546.6z M790.5,561.3c4.9,2.8,9.8,5.6,14.6,8.4c1.8,1.1,2.2,2.6,0.8,3.4c-3.8,2.2-7.6,4.4-11.4,6.6
		c-1.4,0.8-4.2,0.6-6-0.4c-4.9-2.8-9.8-5.6-14.6-8.4c-1.8-1.1-2.2-2.6-0.7-3.5c3.8-2.2,7.6-4.4,11.4-6.6
		C786,560,788.6,560.2,790.5,561.3z M815.9,576c4.9,2.8,9.8,5.6,14.6,8.4c1.8,1.1,2.3,2.6,0.8,3.4c-3.8,2.2-7.6,4.4-11.4,6.6
		c-1.4,0.8-4.2,0.6-6-0.4c-4.9-2.8-9.8-5.6-14.6-8.4c-1.8-1-2.2-2.6-0.7-3.4c3.8-2.2,7.6-4.4,11.4-6.6
		C811.4,574.7,814.1,574.9,815.9,576z M841.4,590.6c4.9,2.8,9.8,5.6,14.6,8.4c1.8,1,2.2,2.6,0.8,3.4c-3.8,2.2-7.6,4.4-11.4,6.6
		c-1.4,0.8-4.2,0.6-6-0.4c-4.9-2.8-9.8-5.6-14.6-8.4c-1.8-1.1-2.2-2.6-0.7-3.4c3.8-2.2,7.6-4.4,11.4-6.6
		C836.9,589.4,839.6,589.6,841.4,590.6z M866.9,605.3c4.9,2.8,9.8,5.7,14.7,8.5c1.8,1.1,2.2,2.6,0.7,3.4c-3.8,2.2-7.6,4.4-11.4,6.6
		c-1.4,0.8-4.1,0.7-6-0.4c-4.9-2.8-9.8-5.7-14.7-8.5c-1.8-1.1-2.2-2.6-0.7-3.4c3.8-2.2,7.6-4.4,11.4-6.6
		C862.4,604.1,865,604.3,866.9,605.3z M892.4,620c4.9,2.8,9.8,5.6,14.6,8.4c1.8,1.1,2.2,2.6,0.7,3.4c-3.8,2.2-7.6,4.4-11.4,6.6
		c-1.4,0.8-4.1,0.7-6-0.4c-4.9-2.8-9.8-5.6-14.6-8.4c-1.8-1.1-2.2-2.7-0.8-3.5c3.8-2.2,7.6-4.4,11.4-6.6
		C887.8,618.8,890.5,619,892.4,620z M494.5,438.2c4.9,2.8,9.8,5.6,14.6,8.4c1.8,1.1,2.2,2.6,0.7,3.5c-3.8,2.2-7.6,4.4-11.4,6.6
		c-1.5,0.8-4.2,0.6-6-0.5c-4.9-2.8-9.7-5.6-14.6-8.4c-1.9-1.1-2.1-2.6-0.7-3.4c3.8-2.2,7.6-4.4,11.4-6.6
		C490,437,492.6,437.1,494.5,438.2z M520.9,453.4c4.9,2.8,9.7,5.6,14.6,8.5c1.9,1.1,2.2,2.6,0.7,3.4c-3.8,2.2-7.6,4.4-11.4,6.6
		c-1.5,0.8-4.2,0.7-6-0.4c-4.9-2.8-9.7-5.7-14.6-8.5c-1.9-1.1-2.1-2.6-0.7-3.4c3.8-2.2,7.6-4.4,11.4-6.6
		C516.4,452.2,519,452.3,520.9,453.4z M547.3,468.7c4.9,2.8,9.7,5.6,14.6,8.4c1.9,1.1,2.2,2.6,0.7,3.4c-3.8,2.2-7.6,4.4-11.4,6.6
		c-1.5,0.8-4.2,0.6-6-0.4c-4.9-2.8-9.7-5.6-14.6-8.4c-1.8-1-2.2-2.6-0.7-3.4c3.8-2.2,7.6-4.4,11.4-6.6
		C542.8,467.4,545.5,467.6,547.3,468.7z M573.7,483.9c4.9,2.8,9.7,5.6,14.6,8.4c1.9,1.1,2.2,2.6,0.7,3.4c-3.8,2.2-7.6,4.4-11.4,6.6
		c-1.5,0.9-4.2,0.6-6-0.4c-4.9-2.8-9.8-5.6-14.6-8.4c-1.8-1-2.2-2.6-0.7-3.4c3.8-2.2,7.6-4.4,11.4-6.6
		C569.2,482.6,571.9,482.8,573.7,483.9z M600.1,499.1c4.9,2.8,9.7,5.6,14.6,8.4c1.9,1.1,2.2,2.6,0.8,3.5c-3.8,2.2-7.6,4.4-11.4,6.6
		c-1.5,0.8-4.2,0.6-6.1-0.5c-4.9-2.8-9.8-5.6-14.6-8.4c-1.8-1.1-2.2-2.6-0.7-3.4c3.8-2.2,7.6-4.4,11.4-6.6
		C595.6,497.9,598.3,498.1,600.1,499.1z M626.5,514.3c4.9,2.8,9.7,5.6,14.6,8.4c1.9,1.1,2.2,2.6,0.8,3.5c-3.8,2.2-7.6,4.4-11.4,6.6
		c-1.5,0.8-4.2,0.6-6.1-0.5c-4.9-2.8-9.8-5.6-14.6-8.4c-1.8-1.1-2.1-2.6-0.7-3.4c3.8-2.2,7.6-4.4,11.4-6.6
		C622.1,513.1,624.7,513.3,626.5,514.3z M653,529.6c4.9,2.8,9.7,5.6,14.6,8.4c1.9,1.1,2.2,2.6,0.8,3.5c-3.8,2.2-7.6,4.4-11.4,6.6
		c-1.5,0.8-4.2,0.6-6.1-0.5c-4.9-2.8-9.8-5.6-14.6-8.4c-1.8-1.1-2.1-2.6-0.7-3.4c3.8-2.2,7.6-4.4,11.4-6.6
		C648.5,528.3,651.1,528.5,653,529.6z M679.4,544.8c4.9,2.8,9.7,5.6,14.7,8.5c1.8,1.1,2.2,2.6,0.7,3.4c-3.8,2.2-7.6,4.4-11.4,6.6
		c-1.5,0.8-4.2,0.6-6-0.4c-4.9-2.8-9.8-5.7-14.7-8.5c-1.8-1.1-2.1-2.6-0.7-3.4c3.8-2.2,7.6-4.4,11.4-6.6
		C674.9,543.5,677.5,543.7,679.4,544.8z M705.8,560c4.9,2.8,9.8,5.6,14.6,8.4c1.8,1,2.2,2.6,0.7,3.4c-3.8,2.2-7.6,4.4-11.4,6.6
		c-1.5,0.8-4.2,0.6-6-0.4c-4.9-2.8-9.8-5.6-14.6-8.4c-1.8-1.1-2.2-2.6-0.7-3.5c3.8-2.2,7.6-4.4,11.4-6.6
		C701.3,558.8,704,559,705.8,560z M732.2,575.3c4.9,2.8,9.8,5.6,14.6,8.4c1.8,1.1,2.2,2.6,0.8,3.5c-3.8,2.2-7.6,4.4-11.4,6.6
		c-1.4,0.8-4.2,0.6-6-0.5c-4.9-2.8-9.8-5.6-14.6-8.4c-1.8-1.1-2.2-2.6-0.7-3.4c3.8-2.2,7.6-4.4,11.4-6.6
		C727.7,574,730.4,574.2,732.2,575.3z M824.7,628.6c4.9,2.8,9.8,5.6,14.7,8.5c1.8,1.1,2.2,2.6,0.7,3.4c-3.8,2.2-7.6,4.4-11.4,6.6
		c-1.4,0.8-4.1,0.6-6-0.4c-4.9-2.8-9.8-5.7-14.7-8.5c-1.8-1-2.2-2.6-0.7-3.4c3.8-2.2,7.6-4.4,11.4-6.6
		C820.2,627.3,822.8,627.5,824.7,628.6z M851.1,643.8c4.9,2.8,9.8,5.6,14.6,8.4c1.8,1.1,2.2,2.6,0.7,3.4c-3.8,2.2-7.6,4.4-11.4,6.6
		c-1.4,0.8-4.1,0.6-6-0.4c-4.9-2.8-9.8-5.6-14.6-8.4c-1.8-1.1-2.2-2.6-0.7-3.5c3.8-2.2,7.6-4.4,11.4-6.6
		C846.6,642.5,849.3,642.7,851.1,643.8z M494.3,485.6c1.8,1,2.1,2.6,0.7,3.4c-3.8,2.2-7.6,4.4-11.4,6.6c-1.4,0.8-4.1,0.6-6-0.4
		c-13.7-7.9-27.4-15.8-41.1-23.7c-1.8-1.1-2.1-2.6-0.7-3.4c3.8-2.2,7.6-4.4,11.4-6.6c1.4-0.8,4.1-0.7,5.9,0.4
		C466.9,469.8,480.6,477.7,494.3,485.6z M506.1,492.4c4.9,2.8,9.8,5.6,14.6,8.4c1.8,1.1,2.2,2.6,0.7,3.4c-3.8,2.2-7.6,4.4-11.4,6.6
		c-1.4,0.8-4.1,0.6-6-0.4c-4.9-2.8-9.8-5.6-14.6-8.4c-1.8-1.1-2.1-2.6-0.7-3.4c3.8-2.2,7.6-4.4,11.4-6.6
		C501.5,491.2,504.3,491.4,506.1,492.4z M532.5,507.7c4.9,2.8,9.8,5.6,14.6,8.4c1.8,1,2.2,2.6,0.7,3.4c-3.8,2.2-7.6,4.4-11.4,6.6
		c-1.4,0.8-4.1,0.6-6-0.4c-4.9-2.8-9.8-5.6-14.6-8.4c-1.8-1-2.2-2.6-0.7-3.4c3.8-2.2,7.6-4.4,11.4-6.6
		C528,506.4,530.7,506.6,532.5,507.7z M558.9,522.9c4.9,2.8,9.8,5.6,14.6,8.4c1.8,1,2.2,2.6,0.7,3.4c-3.8,2.2-7.6,4.4-11.4,6.6
		c-1.4,0.8-4.1,0.6-6-0.4c-4.9-2.8-9.8-5.6-14.6-8.4c-1.8-1.1-2.2-2.7-0.8-3.5c3.8-2.2,7.6-4.4,11.4-6.6
		C554.3,521.6,557.1,521.8,558.9,522.9z M585.3,538.1c4.9,2.8,9.8,5.6,14.6,8.4c1.8,1.1,2.2,2.6,0.7,3.4c-3.8,2.2-7.6,4.4-11.4,6.6
		c-1.4,0.8-4.1,0.6-6-0.4c-4.9-2.8-9.8-5.6-14.6-8.4c-1.8-1.1-2.2-2.6-0.7-3.5c3.8-2.2,7.6-4.4,11.4-6.6
		C580.8,536.9,583.5,537.1,585.3,538.1z M611.8,553.3c4.9,2.8,9.8,5.6,14.6,8.4c1.8,1.1,2.2,2.6,0.7,3.4c-3.8,2.2-7.6,4.4-11.4,6.6
		c-1.4,0.8-4.1,0.6-6-0.4c-4.9-2.8-9.8-5.6-14.6-8.4c-1.8-1.1-2.2-2.6-0.7-3.5c3.8-2.2,7.6-4.4,11.4-6.6
		C607.2,552.1,609.9,552.3,611.8,553.3z M638.2,568.6c4.9,2.8,9.8,5.6,14.6,8.4c1.9,1.1,2.2,2.6,0.7,3.4c-3.8,2.2-7.6,4.4-11.4,6.6
		c-1.4,0.8-4.1,0.7-6-0.4c-4.9-2.8-9.8-5.6-14.6-8.4c-1.8-1.1-2.2-2.6-0.7-3.4c3.8-2.2,7.6-4.4,11.4-6.6
		C633.6,567.3,636.3,567.5,638.2,568.6z M664.6,583.8c4.9,2.8,9.8,5.6,14.6,8.4c1.9,1.1,2.2,2.6,0.7,3.4c-3.8,2.2-7.6,4.4-11.4,6.6
		c-1.4,0.8-4.1,0.7-6-0.4c-4.9-2.8-9.8-5.6-14.6-8.4c-1.8-1.1-2.2-2.6-0.7-3.5c3.8-2.2,7.6-4.4,11.4-6.6
		C660,582.5,662.8,582.7,664.6,583.8z M719.1,615.2c1.8,1,2.2,2.6,0.7,3.4c-3.8,2.2-7.6,4.4-11.4,6.6c-1.4,0.8-4.1,0.6-6-0.4
		c-13.7-7.9-14.4-8.3-28.1-16.2c-1.8-1.1-2.2-2.6-0.7-3.4c3.8-2.2,7.6-4.4,11.4-6.6c1.4-0.8,4.1-0.6,6,0.4
		C704.7,606.9,705.4,607.3,719.1,615.2z M757,637.1c4.9,2.8,9.8,5.6,14.6,8.4c1.8,1.1,2.2,2.7,0.8,3.5c-3.8,2.2-7.6,4.4-11.4,6.6
		c-1.4,0.8-4.2,0.6-6-0.5c-4.9-2.8-9.8-5.6-14.6-8.4c-1.8-1.1-2.2-2.6-0.7-3.4c3.8-2.2,7.6-4.4,11.4-6.6
		C752.5,635.8,755.2,636,757,637.1z M809.9,667.6c4.9,2.8,9.8,5.6,14.6,8.4c1.8,1,2.2,2.6,0.7,3.4c-3.8,2.2-7.6,4.4-11.4,6.6
		c-1.4,0.8-4.1,0.6-6-0.4c-4.9-2.8-9.8-5.6-14.6-8.4c-1.8-1-2.2-2.7-0.8-3.5c3.8-2.2,7.6-4.4,11.4-6.6
		C805.3,666.3,808.1,666.5,809.9,667.6z M786.5,606.5c1.8,1.1,2.2,2.6,0.8,3.4c-3.8,2.2-7.6,4.4-11.4,6.6c-1.4,0.8-4.2,0.6-6-0.5
		c-9.3-5.3-18.5-10.7-27.8-16c-1.8-1.1-2.2-2.6-0.7-3.4c3.8-2.2,7.6-4.4,11.4-6.6c1.5-0.8,4.1-0.6,6,0.5
		C767.9,595.8,777.2,601.2,786.5,606.5z M767.2,662.3c3.4,2,6.9,4,10.3,5.9c0.2,0.1,0.3,0.2,0.5,0.3c4.8,2.7,6.4,3.4,9.5,2.1
		c3.5-2,6.9-4,10.4-6c0.2-0.1,0.5-0.3,0.7-0.4c0.5-0.3,0.8-0.7,0.9-1.2c0.1-0.8-0.5-1.6-1.6-2.3c-4.9-2.8-9.8-5.6-14.6-8.4
		c-1.8-1.1-4.6-1.2-6-0.4c-3.8,2.2-7.6,4.4-11.4,6.6c-0.5,0.3-0.8,0.7-0.9,1.2c0,0.1,0,0.2,0,0.3c0.1,0.7,0.6,1.4,1.6,2
		C766.7,662.1,766.9,662.2,767.2,662.3z M714.9,631.7c3.4,2,6.9,4,10.3,5.9c0.2,0.1,0.3,0.2,0.5,0.3c4.8,2.7,6.4,3.4,9.5,2.1
		c3.5-2,6.9-4,10.4-6c0.2-0.1,0.5-0.3,0.7-0.4c0.5-0.3,0.8-0.7,0.9-1.2c0.1-0.8-0.5-1.6-1.6-2.3c-4.9-2.8-9.8-5.6-14.6-8.4
		c-1.8-1.1-4.6-1.2-6-0.4c-3.8,2.2-7.6,4.4-11.4,6.6c-0.5,0.3-0.8,0.7-0.9,1.2c0,0.1,0,0.2,0,0.3c0.1,0.7,0.6,1.4,1.6,2
		C714.5,631.5,714.7,631.6,714.9,631.7z M515.1,426.3c4.9,2.8,9.8,5.6,14.6,8.4c1.8,1.1,2.2,2.6,0.7,3.5c-3.8,2.2-7.6,4.4-11.4,6.6
		c-1.5,0.8-4.1,0.6-6-0.5c-4.9-2.8-9.7-5.6-14.6-8.4c-1.9-1.1-2.2-2.6-0.7-3.4c3.8-2.2,7.6-4.4,11.4-6.6
		C510.6,425.1,513.2,425.2,515.1,426.3z"/>
	<path class="st28" d="M816.8,282c15.4,8.9,30.7,17.7,46.1,26.6c15.4,8.9,30.7,17.7,46.1,26.6c3.4,2,6.2,6.9,6.2,11
		c0,30.2,0,60.4,0,90.6c0,30.2,0,60.4,0,90.6c0,4.1-2.8,5.8-6.2,3.8c-15.4-8.9-30.7-17.7-46.1-26.6c-15.4-8.9-30.7-17.7-46.1-26.6
		c-3.4-2-6.2-6.9-6.2-11c0-30.2,0-60.4,0-90.6c0-30.2,0-60.4,0-90.6C810.6,281.7,813.4,280,816.8,282"/>
	<path class="st29" d="M845.5,475.5c0.8-1.2,2.5-0.7,3.9,1c1.4,1.7,1.8,4,1,5.2c-0.8,1.2-2.5,0.7-3.9-1
		C845.2,479,844.7,476.7,845.5,475.5"/>
	<path class="st29" d="M856.2,481.7c0.8-1.2,2.5-0.7,3.9,1s1.8,4,1,5.2c-0.8,1.2-2.5,0.7-3.9-1S855.4,482.9,856.2,481.7"/>
	<path class="st30" d="M867,487.9c0.8-1.2,2.5-0.7,3.9,1s1.8,4,1,5.2s-2.5,0.7-3.9-1C866.6,491.4,866.2,489.1,867,487.9"/>
	<path class="st31" d="M833,422c8.6,4.9,17.1,9.9,25.7,14.8c8.6,4.9,17.1,9.9,25.7,14.8c4.8,2.8,8.8,9.7,8.8,15.5l0,0
		c0,5.7-4,8.1-8.8,5.3c-8.6-4.9-17.2-9.9-25.7-14.8c-8.6-4.9-17.1-9.9-25.7-14.8c-4.8-2.8-8.8-9.8-8.8-15.5l0,0
		C824.2,421.6,828.1,419.2,833,422"/>
	<path class="st10" d="M875,459.8c-0.3-0.2-0.6-0.4-1-0.5c-0.3-1.5-0.6-2.9-0.9-4.4c0-0.2-0.1-0.5-0.2-0.8c-0.1-0.4-0.1-0.6-0.1-0.7
		c0,0.2-0.1,0.4-0.1,0.7c0,0.2-0.1,0.4-0.1,0.6c-0.3,1.1-0.6,2.2-0.9,3.3c-0.3-0.2-0.7-0.4-1-0.6c-0.2-1.2-0.5-2.4-0.7-3.6
		c-0.2-1.2-0.5-2.4-0.7-3.6c0.3,0.1,0.6,0.3,0.9,0.5c0.3,1.4,0.5,2.8,0.8,4.2c0.1,0.7,0.2,1.3,0.3,1.7c0-0.2,0.1-0.5,0.1-0.8
		c0-0.3,0.1-0.5,0.2-0.7c0.3-1.1,0.6-2.1,0.9-3.2c0.3,0.1,0.6,0.3,0.9,0.5c0.3,1.5,0.6,2.9,0.9,4.3c0.1,0.4,0.2,1,0.3,1.7
		c0-0.4,0.1-0.9,0.3-1.4c0.3-1.1,0.5-2.2,0.8-3.3c0.3,0.2,0.6,0.4,0.9,0.5C875.9,456,875.4,457.9,875,459.8 M864.7,450.6
		c0,0.8,0.1,1.4,0.4,2c0.3,0.6,0.7,1,1.2,1.3c0.5,0.3,0.9,0.3,1.2,0.1s0.4-0.8,0.4-1.6c0-0.8-0.1-1.5-0.4-2c-0.3-0.5-0.7-1-1.2-1.3
		c-0.5-0.3-0.9-0.3-1.2-0.1C864.8,449.3,864.7,449.8,864.7,450.6z M868.8,453c0,1-0.2,1.7-0.7,2s-1.1,0.3-1.9-0.2
		c-0.8-0.5-1.4-1.1-1.9-2c-0.4-0.8-0.7-1.8-0.7-2.8c0-1,0.2-1.7,0.7-2c0.4-0.3,1.1-0.2,1.9,0.2c0.8,0.5,1.4,1.1,1.9,1.9
		C868.6,451,868.8,452,868.8,453z M862.6,452.6c-0.4-0.2-0.7-0.4-1.1-0.6c-0.9-2.2-1.8-4.4-2.7-6.6c0,0,0,0,0,0c0,0.1,0,0.2,0,0.3
		c0,0.6,0,1.1,0,1.5c0,1.1,0,2.2,0,3.3c-0.3-0.1-0.5-0.3-0.8-0.5c0-2.1,0-4.2,0-6.4c0.3,0.2,0.7,0.4,1.1,0.6
		c0.9,2.2,1.8,4.4,2.7,6.6c0,0,0,0,0,0c0-0.1,0-0.3,0-0.8c0-0.4,0-0.8,0-1c0-1.1,0-2.3,0-3.4c0.3,0.1,0.5,0.3,0.8,0.4
		C862.6,448.4,862.6,450.5,862.6,452.6z M853.1,443.7c0.4-0.7,0.8-1.5,1.3-2.2c0.3,0.2,0.6,0.4,1,0.6c-0.6,1-1.2,1.9-1.8,2.9
		c0,0.8,0,1.7,0,2.5c-0.3-0.2-0.6-0.4-0.9-0.5c0-0.8,0-1.6,0-2.5c-0.6-1.7-1.2-3.3-1.8-5c0.3,0.2,0.6,0.4,1,0.5
		C852.3,441.3,852.7,442.5,853.1,443.7z M850.2,439.1c0,1.4,0,2.8,0,4.1c0,0.5-0.1,0.9-0.3,1.1c-0.2,0.2-0.4,0.4-0.7,0.4
		c-0.3,0-0.7-0.1-1.2-0.4c-0.7-0.4-1.2-0.9-1.6-1.5c-0.4-0.6-0.6-1.3-0.6-2.1c0-1.4,0-2.8,0-4.1c0.3,0.1,0.6,0.3,0.9,0.5
		c0,1.4,0,2.7,0,4c0,0.5,0.1,1,0.3,1.4c0.2,0.4,0.5,0.7,1,0.9c0.8,0.5,1.2,0.2,1.2-0.8c0-1.4,0-2.7,0-4
		C849.6,438.8,849.9,439,850.2,439.1z M841.9,437.8c0,0.7,0,1.4,0,2c0.3,0.2,0.6,0.4,0.9,0.5c0.4,0.2,0.7,0.3,0.8,0.2
		c0.2-0.1,0.3-0.3,0.3-0.6c0-0.3-0.1-0.6-0.3-0.9c-0.2-0.3-0.5-0.5-0.9-0.8C842.5,438.1,842.2,438,841.9,437.8z M841.9,436.9
		c0.3,0.2,0.6,0.3,0.8,0.5c0.4,0.2,0.6,0.3,0.8,0.3s0.2-0.2,0.2-0.5c0-0.3-0.1-0.6-0.3-0.8c-0.2-0.3-0.5-0.5-0.9-0.7
		c-0.2-0.1-0.5-0.3-0.8-0.4C841.9,435.8,841.9,436.4,841.9,436.9z M841,433.8c0.5,0.3,1.1,0.6,1.6,0.9c0.8,0.4,1.3,0.9,1.6,1.3
		s0.5,1,0.5,1.5c0,0.4-0.1,0.6-0.2,0.8c-0.2,0.2-0.4,0.2-0.7,0.1c0,0,0,0,0,0c0.4,0.3,0.7,0.6,0.8,1c0.2,0.3,0.3,0.8,0.3,1.2
		c0,0.6-0.2,0.9-0.5,1c-0.3,0.1-0.8,0-1.4-0.3c-0.7-0.4-1.3-0.8-2-1.1C841,438.1,841,435.9,841,433.8z"/>
	<path class="st20" d="M832.2,334.1c1.1-0.6,5.3-3.2,6.2-3.4c2-0.4,4.5,1.5,6.5,2.6l37.5,21.6c3,1.8,5.1,4.3,6.1,7.7
		c0.7,2.4,0.5,6.2,0.5,8.9v40.9c0,1.7-0.1,3.5-1.7,4.5l-5.4,3.1c2.2-1.5,1.7-4,1.7-6.8l0.1-43.9c0-3.5-2.2-7.8-3.7-9.1
		c-1.9-1.7-5.1-3.5-7.4-4.9L837,334.9C835.4,333.9,834,333.2,832.2,334.1"/>
	<path class="st31" d="M836.3,334.5c6.9,4,13.8,7.9,20.7,11.9c6.9,4,13.8,8,20.7,11.9c3.2,1.9,5.9,6.5,5.9,10.2c0,7.9,0,15.9,0,23.8
		s0,15.9,0,23.8c0,3.7-2.7,5.3-5.9,3.4c-6.9-4-13.8-7.9-20.7-11.9c-6.9-4-13.8-7.9-20.7-11.9c-3.2-1.9-5.9-6.5-5.9-10.2
		c0-7.9,0-15.9,0-23.8s0-15.9,0-23.8C830.5,334.2,833.1,332.6,836.3,334.5"/>
	<path class="st28" d="M867.1,367c3.1,5.2,6.2,10.5,9.3,15.7c-0.7,2.7-2.6,4.8-5.6,4.2c-3.6-2.9-6.4-10.6-6.4-14.5
		S866,368,867.1,367C867.1,367,867.1,367,867.1,367"/>
	<path class="st28" d="M847,355.4c-3.1,1.6-6.2,3.3-9.3,5c0.7,3.5,2.6,7.9,5.5,10.5c3.6,1.3,6.4-3.2,6.4-7.1S848,357.6,847,355.4
		C847,355.4,847,355.4,847,355.4"/>
	<path class="st32" d="M871.1,387c-0.6,2.4-1.1,4.7-1.7,7.1c-0.6,2.4-1.1,4.7-1.7,7.1c-2.7-1.5-5.3-3.1-8-4.6
		c-0.9-3-1.8-5.9-2.7-8.9c-0.9,1.9-1.8,3.9-2.7,5.8c-2.7-1.5-5.3-3.1-8-4.6c-0.6-3-1.1-6-1.7-9c-0.6-3-1.1-6-1.7-9
		c3.8,1.5,5.6-3.3,5.6-7.6c0-4.3-0.8-6.2-2.2-9c1.8,0.6,3.5,1.2,5.3,1.8c0,3.8,2,10,5.3,12c3.3,1.8,5.3-2.1,5.4-5.8
		c1.8,1.4,3.5,2.9,5.3,4.3c-1.4,1.2-2.2,2.1-2.2,6.5C865.5,377.2,867.3,384.2,871.1,387"/>
	<path class="st33" d="M855.2,376.9c0.6-0.9,2-0.5,3.1,0.8s1.5,3.1,0.8,4c-0.6,0.9-2,0.5-3.1-0.8C855,379.5,854.6,377.8,855.2,376.9
		"/>
	<path class="st28" d="M855.1,376.5c0.6-0.9,2-0.5,3.1,0.8s1.5,3.1,0.8,4c-0.6,0.9-2,0.5-3.1-0.8
		C854.8,379.1,854.5,377.4,855.1,376.5"/>
	<path class="st28" d="M704.6,217.3c15.4,8.9,30.7,17.7,46.1,26.6c15.4,8.9,30.7,17.7,46.1,26.6c3.4,2,6.2,6.9,6.2,11
		c0,30.2,0,60.4,0,90.6c0,30.2,0,60.4,0,90.6c0,4.1-2.8,5.8-6.2,3.8c-15.4-8.9-30.7-17.7-46.1-26.6c-15.4-8.9-30.7-17.7-46.1-26.6
		c-3.4-2-6.2-6.9-6.2-11c0-30.2,0-60.4,0-90.6c0-30.2,0-60.4,0-90.6C698.4,217,701.2,215.3,704.6,217.3"/>
	<path class="st29" d="M733.3,410.8c0.8-1.2,2.5-0.7,3.9,1c1.4,1.7,1.8,4,1,5.2c-0.8,1.2-2.5,0.7-3.9-1
		C733,414.3,732.5,412,733.3,410.8"/>
	<path class="st30" d="M744,417c0.8-1.2,2.5-0.7,3.9,1s1.8,4,1,5.2c-0.8,1.2-2.5,0.7-3.9-1C743.7,420.5,743.2,418.2,744,417"/>
	<path class="st29" d="M754.8,423.2c0.8-1.2,2.5-0.7,3.9,1s1.8,4,1,5.2c-0.8,1.2-2.5,0.7-3.9-1C754.5,426.7,754,424.4,754.8,423.2"
		/>
	<path class="st34" d="M720.8,357.2c8.6,4.9,17.1,9.9,25.7,14.8c8.6,4.9,17.1,9.9,25.7,14.8c4.8,2.8,8.8,9.8,8.8,15.5l0,0
		c0,5.7-4,8.1-8.8,5.3c-8.6-4.9-17.2-9.9-25.7-14.8c-8.6-4.9-17.1-9.9-25.7-14.8c-4.8-2.8-8.8-9.8-8.8-15.5l0,0
		C712,356.9,716,354.5,720.8,357.2"/>
	<path class="st31" d="M720.8,357.2c8.6,4.9,17.1,9.9,25.7,14.8c8.6,4.9,17.1,9.9,25.7,14.8c4.8,2.8,8.8,9.8,8.8,15.5l0,0
		c0,5.7-4,8.1-8.8,5.3c-8.6-4.9-17.2-9.9-25.7-14.8c-8.6-4.9-17.1-9.9-25.7-14.8c-4.8-2.8-8.8-9.8-8.8-15.5l0,0
		C712,356.9,716,354.5,720.8,357.2"/>
	<path class="st10" d="M762.8,395.1c-0.3-0.2-0.6-0.4-1-0.5c-0.3-1.5-0.6-2.9-0.9-4.4c0-0.2-0.1-0.5-0.2-0.8
		c-0.1-0.4-0.1-0.6-0.1-0.7c0,0.2-0.1,0.4-0.1,0.7c0,0.2-0.1,0.4-0.1,0.6c-0.3,1.1-0.6,2.2-0.9,3.3c-0.3-0.2-0.7-0.4-1-0.6
		c-0.2-1.2-0.5-2.4-0.7-3.6c-0.2-1.2-0.5-2.4-0.7-3.6c0.3,0.1,0.6,0.3,0.9,0.5c0.3,1.4,0.5,2.8,0.8,4.2c0.1,0.7,0.2,1.3,0.3,1.7
		c0-0.2,0.1-0.5,0.1-0.8c0-0.3,0.1-0.5,0.2-0.7c0.3-1.1,0.6-2.1,0.9-3.2c0.3,0.1,0.6,0.3,0.9,0.5c0.3,1.5,0.6,2.9,0.9,4.3
		c0.1,0.4,0.2,1,0.3,1.7c0-0.4,0.1-0.9,0.3-1.4c0.3-1.1,0.5-2.2,0.8-3.3c0.3,0.2,0.6,0.4,0.9,0.5
		C763.7,391.3,763.2,393.2,762.8,395.1 M752.5,385.9c0,0.8,0.1,1.4,0.4,2c0.3,0.6,0.7,1,1.2,1.3c0.5,0.3,0.9,0.3,1.2,0.1
		c0.3-0.3,0.4-0.8,0.4-1.5c0-0.8-0.1-1.5-0.4-2c-0.3-0.5-0.7-1-1.2-1.3c-0.5-0.3-0.9-0.3-1.2-0.1
		C752.6,384.6,752.5,385.1,752.5,385.9z M756.6,388.3c0,1-0.2,1.7-0.7,2s-1.1,0.3-1.9-0.2c-0.8-0.5-1.4-1.1-1.9-2
		c-0.4-0.8-0.7-1.8-0.7-2.8c0-1,0.2-1.7,0.7-2s1.1-0.2,1.9,0.2c0.8,0.5,1.4,1.1,1.9,1.9C756.4,386.3,756.6,387.3,756.6,388.3z
		 M750.4,387.9c-0.4-0.2-0.7-0.4-1.1-0.6c-0.9-2.2-1.8-4.4-2.7-6.6c0,0,0,0,0,0c0,0.1,0,0.2,0,0.3c0,0.6,0,1.1,0,1.5
		c0,1.1,0,2.2,0,3.3c-0.3-0.1-0.5-0.3-0.8-0.5c0-2.1,0-4.2,0-6.4c0.3,0.2,0.7,0.4,1.1,0.6c0.9,2.2,1.8,4.4,2.7,6.6c0,0,0,0,0,0
		c0-0.1,0-0.3,0-0.8c0-0.4,0-0.8,0-1c0-1.1,0-2.3,0-3.4c0.3,0.1,0.5,0.3,0.8,0.4C750.4,383.7,750.4,385.8,750.4,387.9z M741,379
		c0.4-0.7,0.8-1.5,1.3-2.2c0.3,0.2,0.6,0.4,1,0.6c-0.6,1-1.2,1.9-1.8,2.9c0,0.8,0,1.7,0,2.5c-0.3-0.2-0.6-0.4-0.9-0.5
		c0-0.8,0-1.6,0-2.5c-0.6-1.7-1.2-3.3-1.8-5c0.3,0.2,0.6,0.4,1,0.5C740.1,376.6,740.5,377.8,741,379z M738,374.4c0,1.4,0,2.8,0,4.1
		c0,0.5-0.1,0.9-0.3,1.1c-0.2,0.2-0.4,0.4-0.7,0.4c-0.3,0-0.7-0.1-1.2-0.4c-0.7-0.4-1.2-0.9-1.6-1.5c-0.4-0.6-0.6-1.3-0.6-2.1
		c0-1.4,0-2.8,0-4.1c0.3,0.2,0.6,0.3,0.9,0.5c0,1.4,0,2.7,0,4c0,0.5,0.1,1,0.3,1.4c0.2,0.4,0.5,0.7,1,0.9c0.8,0.5,1.2,0.2,1.2-0.8
		c0-1.4,0-2.7,0-4C737.5,374.1,737.8,374.2,738,374.4z M729.7,373.1c0,0.7,0,1.4,0,2c0.3,0.2,0.6,0.4,0.9,0.5
		c0.4,0.2,0.7,0.3,0.8,0.2c0.2-0.1,0.3-0.3,0.3-0.6c0-0.3-0.1-0.6-0.3-0.9c-0.2-0.3-0.5-0.5-0.9-0.8
		C730.3,373.4,730,373.3,729.7,373.1z M729.7,372.2c0.3,0.2,0.6,0.3,0.8,0.5c0.4,0.2,0.6,0.3,0.8,0.3s0.2-0.2,0.2-0.5
		c0-0.3-0.1-0.6-0.3-0.8c-0.2-0.3-0.5-0.5-0.9-0.7c-0.2-0.1-0.5-0.3-0.8-0.4C729.7,371.1,729.7,371.7,729.7,372.2z M728.8,369.1
		c0.5,0.3,1.1,0.6,1.6,0.9c0.8,0.4,1.3,0.9,1.6,1.3s0.5,1,0.5,1.5c0,0.4-0.1,0.6-0.2,0.8c-0.2,0.2-0.4,0.2-0.7,0.1c0,0,0,0,0,0
		c0.4,0.3,0.7,0.6,0.8,1c0.2,0.3,0.3,0.8,0.3,1.2c0,0.6-0.2,0.9-0.5,1c-0.3,0.1-0.8,0-1.4-0.3c-0.7-0.4-1.3-0.8-2-1.1
		C728.8,373.4,728.8,371.2,728.8,369.1z"/>
	<path class="st20" d="M720,269.4c1.1-0.6,5.3-3.2,6.2-3.4c2-0.4,4.5,1.5,6.5,2.6l37.5,21.6c3,1.8,5.1,4.3,6.1,7.7
		c0.7,2.4,0.5,6.2,0.5,8.9v40.9c0,1.7-0.1,3.5-1.7,4.5l-5.4,3.1c2.2-1.5,1.7-4,1.7-6.8l0.1-43.9c0-3.5-2.2-7.8-3.7-9.1
		c-1.8-1.7-5.1-3.5-7.4-4.9l-35.5-20.5C723.2,269.2,721.8,268.5,720,269.4"/>
	<path class="st31" d="M724.2,269.8c6.9,4,13.8,7.9,20.7,11.9c6.9,4,13.8,7.9,20.7,11.9c3.2,1.9,5.9,6.5,5.9,10.2
		c0,7.9,0,15.9,0,23.8s0,15.9,0,23.8c0,3.7-2.7,5.3-5.9,3.4c-6.9-4-13.8-7.9-20.7-11.9c-6.9-4-13.8-7.9-20.7-11.9
		c-3.2-1.9-5.9-6.5-5.9-10.2c0-7.9,0-15.9,0-23.8s0-15.9,0-23.8C718.3,269.5,720.9,267.9,724.2,269.8"/>
	<path class="st28" d="M744.7,298.5c-1.5-2.9-3-5.9-4.6-8.8c-1.5-0.3-2.9-0.6-4.4-0.9c1.2,2.1,2,4.9,2,6.6s-0.3,2.4-0.8,3.2
		c0.7,2.7,1.3,5.4,2,8c-1.3,3-2.6,6-3.9,9c-1.3,3-2.6,6-3.9,9c4.5,2.6,9.1,5.2,13.6,7.9c4.5,2.6,9.1,5.2,13.6,7.9
		c-1.3-4.5-2.6-9-3.9-13.5c-1.3-4.5-2.6-9-3.9-13.5c0.7-1.9,1.3-3.8,2-5.7c-0.5-1.4-0.8-2.4-0.8-4.1s0.8-3.6,2-4.3
		c-1.5-1.4-3-2.8-4.6-4.2C747.8,296.1,746.3,297.3,744.7,298.5"/>
	<path class="st31" d="M738.3,308.2c4.4,2.5,8.8,5,13.2,7.6c-0.2-0.9-0.5-1.7-0.7-2.5c0.1-0.3,0.2-0.6,0.3-0.9
		c-4.1-2.4-8.2-4.7-12.3-7.1c0.1,0.4,0.2,0.9,0.3,1.3C738.8,307.1,738.5,307.7,738.3,308.2"/>
	<path class="st28" d="M592.5,152.6c15.4,8.9,30.7,17.7,46.1,26.6c15.4,8.9,30.7,17.7,46.1,26.6c3.4,2,6.2,6.9,6.2,11
		c0,30.2,0,60.4,0,90.6c0,30.2,0,60.4,0,90.6c0,4.1-2.8,5.8-6.2,3.8c-15.4-8.9-30.7-17.7-46.1-26.6c-15.4-8.9-30.7-17.7-46.1-26.6
		c-3.4-2-6.2-6.9-6.2-11c0-30.2,0-60.4,0-90.6c0-30.2,0-60.4,0-90.6C586.2,152.3,589,150.6,592.5,152.6"/>
	<path class="st30" d="M621.1,346.1c0.8-1.2,2.5-0.7,3.9,1c1.4,1.7,1.8,4,1,5.2c-0.8,1.2-2.5,0.7-3.9-1
		C620.8,349.6,620.3,347.3,621.1,346.1"/>
	<path class="st29" d="M631.9,352.3c0.8-1.2,2.5-0.7,3.9,1s1.8,4,1,5.2c-0.8,1.2-2.5,0.7-3.9-1C631.5,355.8,631.1,353.5,631.9,352.3
		"/>
	<path class="st29" d="M642.6,358.5c0.8-1.2,2.5-0.7,3.9,1s1.8,4,1,5.2c-0.8,1.2-2.5,0.7-3.9-1C642.3,362,641.8,359.7,642.6,358.5"
		/>
	<path class="st34" d="M608.6,292.6c8.6,4.9,17.1,9.9,25.7,14.8c8.6,4.9,17.1,9.9,25.7,14.8c4.8,2.8,8.8,9.8,8.8,15.5l0,0
		c0,5.7-4,8.1-8.8,5.3c-8.6-4.9-17.2-9.9-25.7-14.8c-8.6-4.9-17.1-9.9-25.7-14.8c-4.8-2.8-8.8-9.8-8.8-15.5l0,0
		C599.8,292.2,603.8,289.8,608.6,292.6"/>
	<path class="st31" d="M608.6,292.6c8.6,4.9,17.1,9.9,25.7,14.8c8.6,4.9,17.1,9.9,25.7,14.8c4.8,2.8,8.8,9.8,8.8,15.5l0,0
		c0,5.7-4,8.1-8.8,5.3c-8.6-4.9-17.2-9.9-25.7-14.8c-8.6-4.9-17.1-9.9-25.7-14.8c-4.8-2.8-8.8-9.8-8.8-15.5l0,0
		C599.8,292.2,603.8,289.8,608.6,292.6"/>
	<path class="st10" d="M650.6,330.4c-0.3-0.2-0.6-0.4-1-0.5c-0.3-1.5-0.6-2.9-0.9-4.4c0-0.2-0.1-0.5-0.2-0.8
		c-0.1-0.4-0.1-0.6-0.1-0.7c0,0.2-0.1,0.4-0.1,0.7c0,0.2-0.1,0.4-0.1,0.6c-0.3,1.1-0.6,2.2-0.9,3.3c-0.3-0.2-0.7-0.4-1-0.6
		c-0.2-1.2-0.5-2.4-0.7-3.6c-0.2-1.2-0.5-2.4-0.7-3.6c0.3,0.1,0.6,0.3,0.9,0.5c0.2,1.4,0.5,2.8,0.8,4.2c0.1,0.7,0.2,1.3,0.3,1.7
		c0-0.2,0.1-0.5,0.1-0.8c0-0.3,0.1-0.5,0.2-0.7c0.3-1.1,0.6-2.1,0.9-3.2c0.3,0.1,0.6,0.3,0.9,0.5c0.3,1.5,0.6,2.9,0.9,4.3
		c0.1,0.4,0.2,1,0.3,1.7c0-0.4,0.1-0.9,0.3-1.4c0.3-1.1,0.5-2.2,0.8-3.3c0.3,0.2,0.6,0.4,0.9,0.5
		C651.5,326.6,651.1,328.5,650.6,330.4 M640.3,321.2c0,0.8,0.1,1.4,0.4,2c0.3,0.6,0.7,1,1.2,1.3c0.5,0.3,0.9,0.3,1.2,0.1
		s0.4-0.8,0.4-1.6c0-0.8-0.1-1.5-0.4-2c-0.3-0.5-0.7-1-1.2-1.3c-0.5-0.3-0.9-0.3-1.2-0.1C640.5,319.9,640.3,320.5,640.3,321.2z
		 M644.5,323.6c0,1-0.2,1.7-0.7,2s-1.1,0.3-1.9-0.2c-0.8-0.5-1.4-1.1-1.9-2c-0.4-0.8-0.7-1.8-0.7-2.8c0-1,0.2-1.7,0.7-2
		s1.1-0.2,1.9,0.2c0.8,0.5,1.4,1.1,1.9,1.9C644.2,321.6,644.5,322.6,644.5,323.6z M638.2,323.2c-0.4-0.2-0.7-0.4-1.1-0.6
		c-0.9-2.2-1.8-4.4-2.7-6.6c0,0,0,0,0,0c0,0.1,0,0.2,0,0.3c0,0.6,0,1.1,0,1.5c0,1.1,0,2.2,0,3.3c-0.3-0.1-0.5-0.3-0.8-0.5
		c0-2.1,0-4.2,0-6.4c0.3,0.2,0.7,0.4,1.1,0.6c0.9,2.2,1.8,4.4,2.7,6.6c0,0,0,0,0,0c0-0.1,0-0.3,0-0.8c0-0.4,0-0.8,0-1
		c0-1.1,0-2.3,0-3.4c0.3,0.1,0.5,0.3,0.8,0.4C638.2,319,638.2,321.1,638.2,323.2z M628.8,314.3c0.4-0.7,0.8-1.5,1.3-2.2
		c0.3,0.2,0.6,0.4,1,0.6c-0.6,1-1.2,1.9-1.8,2.9c0,0.8,0,1.7,0,2.5c-0.3-0.2-0.6-0.4-0.9-0.5c0-0.8,0-1.6,0-2.5
		c-0.6-1.7-1.2-3.3-1.8-5c0.3,0.2,0.6,0.4,1,0.5C627.9,311.9,628.4,313.1,628.8,314.3z M625.9,309.7c0,1.4,0,2.8,0,4.1
		c0,0.5-0.1,0.9-0.3,1.1c-0.2,0.2-0.4,0.4-0.7,0.4c-0.3,0-0.7-0.1-1.2-0.4c-0.7-0.4-1.2-0.9-1.6-1.5c-0.4-0.6-0.6-1.3-0.6-2.1
		c0-1.4,0-2.8,0-4.1c0.3,0.1,0.6,0.3,0.9,0.5c0,1.4,0,2.7,0,4c0,0.5,0.1,1,0.3,1.4c0.2,0.4,0.5,0.7,1,0.9c0.8,0.5,1.2,0.2,1.2-0.8
		c0-1.4,0-2.7,0-4C625.3,309.4,625.6,309.6,625.9,309.7z M617.5,308.4c0,0.7,0,1.4,0,2c0.3,0.2,0.6,0.4,0.9,0.5
		c0.4,0.2,0.7,0.3,0.8,0.2c0.2-0.1,0.3-0.3,0.3-0.6c0-0.3-0.1-0.6-0.3-0.9c-0.2-0.3-0.5-0.5-0.9-0.8
		C618.1,308.8,617.8,308.6,617.5,308.4z M617.5,307.5c0.3,0.2,0.6,0.3,0.8,0.5c0.4,0.2,0.6,0.3,0.8,0.3s0.3-0.2,0.3-0.5
		c0-0.3-0.1-0.6-0.3-0.8c-0.2-0.3-0.5-0.5-0.9-0.7c-0.2-0.1-0.5-0.3-0.8-0.4C617.5,306.4,617.5,307,617.5,307.5z M616.6,304.4
		c0.5,0.3,1.1,0.6,1.6,0.9c0.8,0.4,1.3,0.9,1.6,1.3s0.5,1,0.5,1.5c0,0.4-0.1,0.6-0.2,0.8c-0.2,0.2-0.4,0.2-0.7,0.1c0,0,0,0,0,0
		c0.4,0.3,0.7,0.6,0.8,1c0.2,0.3,0.3,0.8,0.3,1.2c0,0.6-0.2,0.9-0.5,1c-0.3,0.1-0.8,0-1.4-0.3c-0.7-0.4-1.3-0.8-2-1.1
		C616.6,308.7,616.6,306.5,616.6,304.4z"/>
	<path class="st20" d="M607.8,204.7c1.1-0.6,5.3-3.2,6.2-3.4c2-0.4,4.5,1.4,6.5,2.6l37.5,21.6c3,1.8,5.1,4.3,6.1,7.7
		c0.7,2.4,0.5,6.2,0.5,8.9v40.9c0,1.7-0.1,3.5-1.7,4.5l-5.4,3.1c2.2-1.5,1.7-4,1.7-6.8l0.1-43.9c0-3.5-2.2-7.8-3.7-9.1
		c-1.9-1.7-5.1-3.5-7.4-4.9l-35.5-20.5C611,204.5,609.7,203.8,607.8,204.7"/>
	<path class="st31" d="M612,205.1c6.9,4,13.8,7.9,20.7,11.9c6.9,4,13.8,7.9,20.7,11.9c3.2,1.9,5.9,6.5,5.9,10.2c0,7.9,0,15.9,0,23.8
		c0,7.9,0,15.9,0,23.8c0,3.7-2.7,5.3-5.9,3.4c-6.9-4-13.8-7.9-20.7-11.9c-6.9-4-13.8-7.9-20.7-11.9c-3.2-1.9-5.9-6.5-5.9-10.2
		c0-7.9,0-15.9,0-23.8s0-15.9,0-23.8C606.1,204.8,608.8,203.2,612,205.1"/>
	<path class="st28" d="M619.6,222.1c4.7,3.4,7.1,11.7,9.5,19.4c2.4,7.7,5,14.8,10.1,16c6.2,4.4,11.9,15.5,10.5,18
		c-2.5-1.5-5.1-2.9-7.6-4.4c-2.5-1.5-5.1-2.9-7.6-4.4c-2.3-2.5-4.3-9.2-6.4-15.5c-2.1-6.3-4.3-12.2-6.8-12.9
		c-0.2,3.4-0.4,6.7-0.6,10.1c-0.2,3.4-0.4,6.7-0.6,10.1c-0.7-0.4-1.4-0.8-2.1-1.2c-0.2-3.6-0.3-7.1-0.5-10.7
		c-0.2-3.6-0.3-7.1-0.5-10.7C613.6,228.1,616.3,222.3,619.6,222.1"/>
	<path class="st35" d="M485.5,87.8c0,12.8,0,3.3,0,16.1c0,4.4,1.3,9.2,3.5,13.3c2.1,4.1,5.1,7.6,8.3,9.5c3.2,1.9,6.2,1.8,8.3,0.1
		c2.1-1.7,3.5-4.9,3.5-9.3c0-12.8,0-3.3,0-16.1C501.2,96.9,493.3,92.4,485.5,87.8"/>
	<path class="st35" d="M532.7,115c0,12.8,0,3.3,0,16.1c0,4.4,1.3,9.2,3.5,13.3c2.1,4.1,5.1,7.6,8.3,9.5c3.2,1.9,6.2,1.8,8.3,0.1
		s3.5-4.9,3.5-9.3c0-12.8,0-3.3,0-16.1C548.4,124.1,540.5,119.6,532.7,115"/>
	<path class="st35" d="M579.9,142.2c0,12.8,0,3.3,0,16.1c0,4.4,1.3,9.2,3.5,13.3c2.1,4.1,5.1,7.6,8.3,9.5c3.2,1.9,6.2,1.8,8.3,0.1
		c2.1-1.7,3.5-4.9,3.5-9.3c0-12.8,0-3.3,0-16.1C595.6,151.3,587.7,146.8,579.9,142.2"/>
	<path class="st35" d="M627.1,169.4c0,12.8,0,3.3,0,16.1c0,4.4,1.3,9.2,3.5,13.3c2.1,4.1,5.1,7.6,8.3,9.5s6.2,1.8,8.3,0.1
		c2.1-1.7,3.5-4.9,3.5-9.3c0-12.8,0-3.3,0-16.1C642.8,178.5,634.9,174,627.1,169.4"/>
	<path class="st36" d="M594.3,68.9c-20.5,15.4-41.1,30.7-61.6,46.1c7.9,4.5,15.7,9.1,23.6,13.6c20.5-15.4,41.1-30.7,61.6-46.1
		C610,78,602.1,73.4,594.3,68.9"/>
	<path class="st36" d="M641.5,96.1c-20.5,15.4-41.1,30.7-61.6,46.1c7.9,4.5,15.7,9.1,23.6,13.6c20.5-15.4,41.1-30.7,61.6-46.1
		C657.2,105.2,649.3,100.7,641.5,96.1"/>
	<polygon class="st36" points="688.7,123.3 627.1,169.4 650.7,183 712.2,136.9 	"/>
	<polygon class="st37" points="650.7,189.1 650.7,183 716.5,133.7 716.5,150.2 	"/>
	<polygon class="st38" points="551.4,32.9 716.6,128.1 712.2,131.1 547.1,35.9 	"/>
	<polygon class="st20" points="547.1,35.9 547.1,41.7 948.2,272.9 948.2,267.1 	"/>
	<path class="st35" d="M674.2,196.6c0,12.8,0,3.3,0,16.1c0,4.4,1.3,9.2,3.5,13.3c2.1,4.1,5.1,7.6,8.3,9.5s6.2,1.8,8.3,0.1
		c2.1-1.7,3.5-4.9,3.5-9.3c0-12.8,0-3.3,0-16.1C690,205.7,682.1,201.2,674.2,196.6"/>
	<path class="st35" d="M721.5,223.8c0,12.8,0,3.3,0,16.1c0,4.4,1.3,9.2,3.5,13.3c2.1,4.1,5.1,7.6,8.3,9.5c3.2,1.9,6.2,1.8,8.3,0.1
		c2.1-1.7,3.5-4.9,3.5-9.3c0-12.8,0-3.3,0-16.1C737.2,232.9,729.3,228.4,721.5,223.8"/>
	<path class="st35" d="M768.6,251c0,12.8,0,3.3,0,16.1c0,4.4,1.3,9.2,3.5,13.3c2.1,4.1,5.1,7.6,8.3,9.5c3.2,1.9,6.2,1.8,8.3,0.1
		c2.1-1.7,3.5-4.9,3.5-9.3c0-12.8,0-3.3,0-16.1C784.4,260.1,776.5,255.6,768.6,251"/>
	<path class="st36" d="M735.8,150.5c-20.5,15.4-41.1,30.7-61.6,46.1c7.9,4.5,15.7,9.1,23.6,13.6c20.5-15.4,41.1-30.7,61.6-46.1
		C751.6,159.6,743.7,155.1,735.8,150.5"/>
	<path class="st36" d="M783,177.7c-20.5,15.4-41.1,30.7-61.6,46.1c7.9,4.5,15.7,9.1,23.6,13.6c20.5-15.4,41.1-30.7,61.6-46.1
		C798.8,186.8,790.9,182.2,783,177.7"/>
	<path class="st35" d="M815.8,278.2c0,12.8,0,3.3,0,16.1c0,4.4,1.3,9.2,3.5,13.3c2.1,4.1,5.1,7.6,8.3,9.5c3.2,1.9,6.2,1.8,8.3,0.1
		c2.1-1.7,3.5-4.9,3.5-9.3c0-12.8,0-3.3,0-16.1C831.6,287.3,823.7,282.8,815.8,278.2"/>
	<g>
		<path class="st39" d="M509.1,101.4c0,12.8,0,3.3,0,16.1c0,4.4,1.3,9.2,3.5,13.3c2.1,4.1,5.1,7.6,8.3,9.5c3.2,1.9,6.2,1.8,8.3,0.1
			c2.1-1.7,3.5-4.9,3.5-9.3c0-12.8,0-3.3,0-16.1C524.8,110.5,516.9,106,509.1,101.4"/>
		<path class="st39" d="M556.3,128.6c0,12.8,0,3.3,0,16.1c0,4.4,1.3,9.2,3.5,13.3s5.1,7.6,8.3,9.5c3.2,1.9,6.2,1.8,8.3,0.1
			c2.1-1.7,3.5-4.9,3.5-9.3c0-12.8,0-3.3,0-16.1C572,137.7,564.1,133.2,556.3,128.6"/>
		<path class="st39" d="M603.5,155.8c0,12.8,0,3.3,0,16.1c0,4.4,1.3,9.2,3.5,13.3c2.1,4.1,5.1,7.6,8.3,9.5c3.2,1.9,6.2,1.8,8.3,0.1
			c2.1-1.7,3.5-4.9,3.5-9.3c0-12.8,0-3.3,0-16.1C619.2,164.9,611.3,160.4,603.5,155.8"/>
		<path class="st39" d="M650.7,183c0,12.8,0,3.3,0,16.1c0,4.4,1.3,9.2,3.5,13.3c2.1,4.1,5.1,7.6,8.3,9.5s6.2,1.8,8.3,0.1
			c2.1-1.7,3.5-4.9,3.5-9.3c0-12.8,0-3.3,0-16.1C666.4,192.1,658.5,187.6,650.7,183"/>
		<path class="st39" d="M697.8,210.2c0,12.8,0,3.3,0,16.1c0,4.4,1.3,9.2,3.5,13.3c2.1,4.1,5.1,7.6,8.3,9.5c3.2,1.9,6.2,1.8,8.3,0.1
			c2.1-1.7,3.5-4.9,3.5-9.3c0-12.8,0-3.3,0-16.1C713.6,219.3,705.7,214.8,697.8,210.2"/>
		<path class="st39" d="M745,237.4c0,12.8,0,3.3,0,16.1c0,4.4,1.3,9.2,3.5,13.3c2.1,4.1,5.1,7.6,8.3,9.5c3.2,1.9,6.2,1.8,8.3,0.1
			c2.1-1.7,3.5-4.9,3.5-9.3c0-12.8,0-3.3,0-16.1C760.8,246.5,752.9,242,745,237.4"/>
		<path class="st39" d="M792.2,264.6c0,12.8,0,3.3,0,16.1c0,4.4,1.3,9.2,3.5,13.3c2.1,4.1,5.1,7.6,8.3,9.5c3.2,1.9,6.2,1.8,8.3,0.1
			c2.1-1.7,3.5-4.9,3.5-9.3c0-12.8,0-3.3,0-16.1C808,273.7,800.1,269.2,792.2,264.6"/>
		<path class="st39" d="M839.4,291.8c0,12.8,0,3.3,0,16.1c0,4.4,1.3,9.2,3.5,13.3s5.1,7.6,8.3,9.5c3.2,1.9,6.2,1.8,8.3,0.1
			c2.1-1.7,3.5-4.9,3.5-9.3c0-12.8,0-3.3,0-16.1C855.2,300.9,847.3,296.4,839.4,291.8"/>
	</g>
	<path class="st35" d="M863,305.4c0,12.8,0,3.3,0,16.1c0,4.4,1.3,9.2,3.5,13.3c2.1,4.1,5.1,7.6,8.3,9.5c3.2,1.9,6.2,1.8,8.3,0.1
		c2.1-1.7,3.5-4.9,3.5-9.3c0-12.8,0-3.3,0-16.1C878.8,314.5,870.9,310,863,305.4"/>
	<path class="st36" d="M877.4,232.1c-20.5,15.4-41.1,30.7-61.6,46.1c7.9,4.5,15.7,9.1,23.6,13.6c20.5-15.4,41.1-30.7,61.6-46.1
		C893.2,241.2,885.3,236.6,877.4,232.1"/>
	<path class="st36" d="M830.2,204.9c-20.5,15.4-41.1,30.7-61.6,46.1c7.9,4.5,15.7,9.1,23.6,13.6c20.5-15.4,41.1-30.7,61.6-46.1
		C846,214,838.1,209.4,830.2,204.9"/>
	<g>
		<path class="st30" d="M570.7,55.3c-20.5,15.4-41.1,30.7-61.6,46.1c7.9,4.5,15.7,9.1,23.6,13.6c20.5-15.4,41.1-30.7,61.6-46.1
			C586.4,64.4,578.5,59.8,570.7,55.3"/>
		<path class="st30" d="M617.9,82.5c-20.5,15.4-41.1,30.7-61.6,46.1c7.9,4.5,15.7,9.1,23.6,13.6c20.5-15.4,41.1-30.7,61.6-46.1
			C633.6,91.6,625.7,87,617.9,82.5"/>
		<path class="st30" d="M665.1,109.7c-20.5,15.4-41.1,30.7-61.6,46.1c7.9,4.5,15.7,9.1,23.6,13.6c20.5-15.4,41.1-30.7,61.6-46.1
			C680.8,118.8,672.9,114.2,665.1,109.7"/>
		<polygon class="st30" points="712.2,136.9 650.7,183 674.2,196.6 735.8,150.5 		"/>
		<path class="st30" d="M759.4,164.1c-20.5,15.4-41.1,30.7-61.6,46.1c7.9,4.5,15.7,9.1,23.6,13.6c20.5-15.4,41.1-30.7,61.6-46.1
			C775.2,173.2,767.3,168.6,759.4,164.1"/>
		<path class="st30" d="M806.6,191.3c-20.5,15.4-41.1,30.7-61.6,46.1c7.9,4.5,15.7,9.1,23.6,13.6c20.5-15.4,41.1-30.7,61.6-46.1
			C822.4,200.4,814.5,195.9,806.6,191.3"/>
		<polygon class="st30" points="853.8,218.5 792.2,264.6 815.8,278.2 877.4,232.1 		"/>
		<polygon class="st38" points="715.7,127.6 952.5,264 948.2,267.1 711.3,130.6 		"/>
		<path class="st30" d="M901,245.7c-20.5,15.4-41.1,30.7-61.6,46.1c7.9,4.5,15.7,9.1,23.6,13.6c20.5-15.4,41.1-30.7,61.6-46.1
			C916.8,254.8,908.9,250.2,901,245.7"/>
	</g>
	<polygon class="st36" points="924.6,259.3 863,305.4 886.6,319 948.2,272.9 	"/>
	<polygon class="st40" points="948.2,267.1 952.5,264 952.5,269.8 948.2,272.9 	"/>
</g>
<g>
	<path class="st41" d="M61.5,461.3l132.3-73.4c8.7-4.8,23.7-4,33.5,1.7l67.8,39.8c9.9,5.8,10.9,14.5,2.2,19.3l-133.1,74
		c-8.7,4.9-23.8,4-33.7-1.9l-67.1-40.2C53.7,474.7,52.9,466.1,61.5,461.3z"/>
	<path class="st42" d="M254.7,423.1c-2.1,1.2-1.9,3.3,0.6,4.8h0c2.4,1.5,6.2,1.7,8.3,0.5c0,0,0,0,0,0c2.1-1.2,1.9-3.3-0.6-4.8
		C260.6,422.1,256.8,421.9,254.7,423.1C254.7,423.1,254.7,423.1,254.7,423.1z M238.4,428.2c-3.4-2-8.6-2.2-11.7-0.5
		c-3.1,1.7-2.9,4.7,0.5,6.7c3.4,2,8.6,2.2,11.7,0.5C242,433.2,241.8,430.2,238.4,428.2L238.4,428.2z M226.6,421.2l6.2-3.4l23.7,13.9
		l-6.2,3.4l-1.5-0.9c-0.4,1.8-1.8,3.5-4,4.7c-6,3.4-16.5,2.8-23.4-1.3c-6.9-4.1-7.6-10.1-1.6-13.4c2.3-1.3,5.2-2,8.3-2.1
		L226.6,421.2z M180.1,450.6l-3.1-1.8l-6.3,3.5l23.6,14l6.4-3.5l-11-6.5c-3.7-2.2-2.2-5.4,0.3-6.7l0.1,0l-6.9-4.1
		C180.6,446.8,179.5,448.8,180.1,450.6z M173.1,464.5c-3.4-2-8.6-2.2-11.7-0.5c-3.1,1.7-2.9,4.7,0.4,6.7c3.4,2,8.6,2.2,11.7,0.5
		C176.6,469.5,176.4,466.5,173.1,464.5L173.1,464.5z M161.3,457.5l6.2-3.4l23.6,14l-6.2,3.5l-1.5-0.9c-0.4,1.8-1.7,3.4-4,4.7
		c-6,3.4-16.5,2.8-23.4-1.3c-6.9-4.1-7.5-10.1-1.5-13.5c2.3-1.3,5.2-2,8.3-2.1L161.3,457.5z M197.9,436.4c-2.5,1.4-3.9,3.2-3.1,5.5
		l-2.7-1.6l-6.2,3.4l23.6,14l6.2-3.5l-12.4-7.4c-3.6-2.1-3.2-4.3-0.7-5.8c2.7-1.5,6.1-1.3,9.6,0.8l12.5,7.4l6.2-3.4L216,437
		C210.5,433.8,202.9,433.7,197.9,436.4L197.9,436.4z M158.8,486l6.5-3.6l-34.1-20.3l-6.5,3.6L158.8,486z M130.2,501.9l6.9-3.8
		l-34-20.3l-6.9,3.8L130.2,501.9z M120.2,468.2c7.3,4.4,11.7,9.9,12.3,15.4l24.2,3.5l-8.5,4.7l-26.3-3.8l0.4-2.8
		c0.7-4.7-2.6-9.6-8.8-13.3L120.2,468.2L120.2,468.2z"/>
</g>
<g>
	<g>
		<g>
			<defs>
				<path id="SVGID_15_" d="M747.7,964.1c18.8,10.8,22,26.5,7,35c-3.5,2-7.7,3.4-12.3,4.3c12.1-3,18.5-10.5,15.1-19.2
					c-4.4-11.3-23.5-20.7-43-21l-3.3-8.7C723.6,954.7,737,958,747.7,964.1z M683,974.5c-3.4-9.2,4-16.8,17.1-19.3
					c-5.3,0.8-10.1,2.2-14.1,4.4c-15.5,8.4-12.7,24.3,6.5,35.3c10.9,6.3,24.7,9.6,37.3,9.7l-3.3-8.9
					C706.7,995.4,687.3,986,683,974.5z"/>
			</defs>
			<clipPath id="SVGID_16_">
				<use xlink:href="#SVGID_15_"  style="overflow:visible;"/>
			</clipPath>
			<g class="st43">
				
					<image style="overflow:visible;enable-background:new    ;" width="60" height="53" xlink:href="44A73FA1D82345F7.png"  transform="matrix(1 0 0 1 709.4747 953)">
				</image>
			</g>
		</g>
		<g>
			<defs>
				<path id="SVGID_17_" d="M747.7,964.1c18.8,10.8,22,26.5,7,35c-3.5,2-7.7,3.4-12.3,4.3c12.1-3,18.5-10.5,15.1-19.2
					c-4.4-11.3-23.5-20.7-43-21l-3.3-8.7C723.6,954.7,737,958,747.7,964.1z M683,974.5c-3.4-9.2,4-16.8,17.1-19.3
					c-5.3,0.8-10.1,2.2-14.1,4.4c-15.5,8.4-12.7,24.3,6.5,35.3c10.9,6.3,24.7,9.6,37.3,9.7l-3.3-8.9
					C706.7,995.4,687.3,986,683,974.5z"/>
			</defs>
			<clipPath id="SVGID_18_">
				<use xlink:href="#SVGID_17_"  style="overflow:visible;"/>
			</clipPath>
			<g class="st44">
				
					<image style="overflow:visible;enable-background:new    ;" width="64" height="55" xlink:href="44A73FA1D82345F2.png"  transform="matrix(1 0 0 1 671.4747 953)">
				</image>
			</g>
		</g>
	</g>
	<g>
		
			<linearGradient id="SVGID_19_" gradientUnits="userSpaceOnUse" x1="676.0215" y1="104.5054" x2="741.5192" y2="104.5054" gradientTransform="matrix(1 0 0 -1 0 1080)">
			<stop  offset="0" style="stop-color:#00ADEE"/>
			<stop  offset="0.1767" style="stop-color:#3BC0F2"/>
			<stop  offset="0.4009" style="stop-color:#80D6F7"/>
			<stop  offset="0.6035" style="stop-color:#B7E8FA"/>
			<stop  offset="0.7772" style="stop-color:#DEF4FD"/>
			<stop  offset="0.9151" style="stop-color:#F6FCFE"/>
			<stop  offset="1" style="stop-color:#FFFFFF"/>
		</linearGradient>
		<path class="st45" d="M725.9,995.7c-19.5-0.4-38.6-9.8-42.8-21.2c-3.4-9.2,4-16.8,17.1-19.3c-5.3,0.8-10.1,2.2-14.1,4.4
			c-10.7,5.8-12.7,15.1-6.7,23.9c0.5,0.3,1.1,0.7,1.7,1C702.1,997.3,722.3,996,725.9,995.7z"/>
	</g>
	<g>
		<g>
			<g>
				<defs>
					<path id="SVGID_20_" d="M747.7,964.1c18.8,10.8,22,26.5,7,35c-3.5,2-7.7,3.4-12.3,4.3c12.1-3,18.5-10.5,15.1-19.2
						c-4.4-11.3-23.5-20.7-43-21l-3.3-8.7C723.6,954.7,737,958,747.7,964.1z"/>
				</defs>
				<defs>
					<polygon id="SVGID_21_" points="1,1 2,1 1,2 					"/>
				</defs>
				<defs>
					<polygon id="SVGID_22_" points="-1,-1 -2,-1 -1,-2 					"/>
				</defs>
				<clipPath id="SVGID_23_">
					<use xlink:href="#SVGID_20_"  style="overflow:visible;"/>
				</clipPath>
				<clipPath id="SVGID_24_" class="st46">
					<use xlink:href="#SVGID_21_"  style="overflow:visible;"/>
				</clipPath>
				<clipPath id="SVGID_25_" class="st47">
					<use xlink:href="#SVGID_22_"  style="overflow:visible;"/>
				</clipPath>
				
					<linearGradient id="SVGID_26_" gradientUnits="userSpaceOnUse" x1="728.5422" y1="80.8019" x2="749.7059" y2="109.1671" gradientTransform="matrix(1 0 0 -1 0 1080)">
					<stop  offset="0" style="stop-color:#000000"/>
					<stop  offset="8.590000e-02" style="stop-color:#080808"/>
					<stop  offset="0.2181" style="stop-color:#1D1D1D"/>
					<stop  offset="0.3803" style="stop-color:#414141"/>
					<stop  offset="0.566" style="stop-color:#727272"/>
					<stop  offset="0.7717" style="stop-color:#B1B1B1"/>
					<stop  offset="0.9913" style="stop-color:#FCFCFC"/>
					<stop  offset="1" style="stop-color:#FFFFFF"/>
				</linearGradient>
				<path class="st48" d="M714.4,963.1c0,0,21.8-2.8,44.7,11c22.9,13.9,12.3,22.5,12.3,22.5l-12.5,10.9l-20.2,7.6L714.4,963.1z"/>
			</g>
		</g>
		<g>
			<defs>
				<path id="SVGID_27_" d="M747.7,964.1c18.8,10.8,22,26.5,7,35c-3.5,2-7.7,3.4-12.3,4.3c12.1-3,18.5-10.5,15.1-19.2
					c-4.4-11.3-23.5-20.7-43-21l-3.3-8.7C723.6,954.7,737,958,747.7,964.1z"/>
			</defs>
			<clipPath id="SVGID_28_">
				<use xlink:href="#SVGID_27_"  style="overflow:visible;"/>
			</clipPath>
			
				<linearGradient id="SVGID_29_" gradientUnits="userSpaceOnUse" x1="726.8275" y1="86.1044" x2="746.088" y2="111.9189" gradientTransform="matrix(1 0 0 -1 0 1080)">
				<stop  offset="0" style="stop-color:#FFFFFF"/>
				<stop  offset="8.590000e-02" style="stop-color:#FFFFF7"/>
				<stop  offset="0.2181" style="stop-color:#FFFDE2"/>
				<stop  offset="0.3803" style="stop-color:#FFFBBE"/>
				<stop  offset="0.566" style="stop-color:#FFF98D"/>
				<stop  offset="0.7717" style="stop-color:#FFF54E"/>
				<stop  offset="0.9913" style="stop-color:#FFF103"/>
				<stop  offset="1" style="stop-color:#FFF100"/>
			</linearGradient>
			<path class="st49" d="M714.4,963.1c0,0,21.8-2.8,44.7,11c4.7,2.8,4.8,5.8,5.8,8.3c0.8,1.9-0.1,8.4-3.1,12.1
				c-3,3.8-7.7,6.2-12.6,7.9c-4.9,1.7-18.2,2.3-18.2,2.3L714.4,963.1z"/>
		</g>
	</g>
	<g>
		<path class="st50" d="M772.5,961.7l-0.4-0.8c-0.5-1,0.1-1.4,1.8-1.6c1.6-0.2,4.3-0.4,6.4-1.6c1.8-1,1.8-2.2,0.2-3.2
			c-4.3-2.5-13,4.2-22-1c-5.2-3-4.3-6.5,0.1-9c2.8-1.5,5.8-1.9,7.7-2.1c1.5-0.2,2.8,0.4,3.5,1.3l0.5,0.8c0.8,1,0.1,1.5-1.5,1.7
			c-1.4,0.2-3.5,0.5-5.2,1.5c-1.8,1-1.9,2.1-0.2,3c4.3,2.5,12.9-4.2,21.8,1c4.6,2.7,5,6.4,0.2,9c-3.3,1.9-7.2,2.2-9.6,2.3
			C774.3,963.3,773.1,962.8,772.5,961.7L772.5,961.7z"/>
		<path class="st50" d="M770.7,941.4c-1.8-0.7-2.2-1.5-1-2.2l1.9-1.1c1-0.6,2.2-0.5,3.7,0.1l18.5,7c1.6,0.7,3.2,1.4,3.2,1.4l0.1,0
			c0,0-1.2-0.9-2.3-1.8L783,934c-1-0.8-1-1.5,0-2.1l1.5-0.8c1-0.5,2.2-0.5,3.7,0l18.5,6.9c1.7,0.6,3.2,1.3,3.2,1.3l0.1,0
			c0,0-1.2-0.9-2.3-1.8l-11.9-10.5c-1-0.9-1-1.5,0-2.1l1.8-1c1.2-0.7,2.7-0.4,3.8,0.6l16.5,15.4c1,0.9,0.9,1.5-0.1,2.1l-2.7,1.5
			c-1,0.6-2.2,0.6-3.7,0l-16-5.8c-1.7-0.6-3.3-1.3-3.3-1.3l-0.1,0c0,0,1.2,0.9,2.3,1.9l9.9,9.2c1,0.8,1,1.5,0,2.1l-2.8,1.5
			c-1,0.5-2.1,0.5-3.6,0L770.7,941.4L770.7,941.4z"/>
		<path class="st50" d="M804,922.7c-1.4-0.8-1.6-1.5-0.5-2.1l1.7-1c1.1-0.6,2.4-0.5,3.7,0.3l21.5,12.4c1.4,0.8,1.6,1.5,0.5,2.1
			l-1.7,1c-1,0.6-2.3,0.5-3.7-0.3L804,922.7L804,922.7z"/>
		<path class="st50" d="M831,928.9l-0.4-0.8c-0.5-0.9,0.1-1.4,1.7-1.5c1.6-0.2,4.2-0.3,6.2-1.5c1.7-1,1.7-2.1,0.1-3
			c-4.2-2.4-12.4,4-21.3-1.1c-5-2.9-4.3-6.4-0.1-8.7c2.7-1.5,5.6-1.8,7.4-2c1.5-0.2,2.7,0.4,3.4,1.3l0.5,0.7c0.8,1,0.2,1.5-1.4,1.7
			c-1.4,0.2-3.4,0.5-5,1.4c-1.7,1-1.8,2-0.2,2.9c4.2,2.4,12.4-4,21.1,1c4.5,2.6,5,6.2,0.4,8.8c-3.2,1.8-7,2.1-9.2,2.2
			C832.7,930.5,831.5,929.9,831,928.9L831,928.9z"/>
		<path class="st50" d="M819.8,902.6c-1.3-0.8-1.5-1.5-0.5-2.1l1.7-0.9c1.1-0.6,2.4-0.5,3.7,0.3l10.3,6c1.2,0.7,2,1.3,2,1.3l0.1,0
			c-1.5-1.9-1.7-4.9,1.7-6.7c4.3-2.4,9.8-2.1,16.5,1.8l14.2,8.2c1.4,0.8,1.5,1.5,0.5,2.1l-1.6,0.9c-1.1,0.6-2.3,0.5-3.7-0.3l-13-7.5
			c-3.1-1.8-5.8-2.7-8.3-1.3c-3.4,1.9-2,5.2,2.8,8l9.8,5.6c1.4,0.8,1.6,1.5,0.5,2.1l-1.6,0.9c-1,0.6-2.3,0.5-3.7-0.3L819.8,902.6
			L819.8,902.6z"/>
		<path class="st50" d="M847.5,891.9c0.4-0.2,0.3-0.6-0.3-0.9c-0.6-0.3-1.2-0.4-1.6-0.2l-0.7,0.4l1.9,1.1L847.5,891.9L847.5,891.9z
			 M843.8,891.5c-0.3-0.2-0.4-0.4-0.1-0.5l1.3-0.7c0.8-0.5,2-0.4,3.1,0.2c0.9,0.5,1,1,0.7,1.3l0,0c0,0,0.1,0,0.5,0.1l2.1,0.5
			c0.5,0.1,0.6,0.3,0.4,0.4l-0.1,0.1c-0.2,0.1-0.5,0.1-0.8,0l-2.5-0.7l-0.7,0.4l1.7,1c0.3,0.2,0.4,0.3,0.1,0.5l-0.1,0.1
			c-0.2,0.1-0.5,0.1-0.8-0.1L843.8,891.5L843.8,891.5z M852,894.6c1.9-1,1.3-3-1.2-4.4c-2.5-1.5-5.9-1.8-7.8-0.8
			c-1.8,1-1.3,2.9,1.2,4.4S850.2,895.7,852,894.6L852,894.6z M842.1,888.9c2.3-1.3,6.6-0.9,9.6,0.9s3.7,4.2,1.4,5.5
			c-2.3,1.2-6.5,0.9-9.6-0.9C840.4,892.6,839.8,890.1,842.1,888.9L842.1,888.9z"/>
	</g>
</g>
<g>
	<path class="st51" d="M947.2,805.5l11.4-6.3c6.1-3.4,12.1-2.8,17.3,0.2c8.6,4.9,9.2,10,3.2,13.4l-3,1.7c-0.8,0.5-0.7,1.1,0.9,2.2
		l9.3,6.2c0.6,0.4,0.7,0.8,0.3,1.1l-7.2,4.1c-0.7,0.4-1.6,0.2-2.8-0.6l-29.3-19.8C946.1,806.8,946,806.1,947.2,805.5z"/>
	<path class="st52" d="M995.5,778c3.7-2.1,9.7-2.8,15.6,0.5c7,4,8,7.8,2.9,10.7l-4.5,2.5c-0.7,0.4-0.3,0.9,0.9,1.6l6.1,3.9
		c0.9,0.6,1,1.1,0.4,1.5l-4.2,2.4c-0.7,0.4-1.4,0.2-2.5-0.4L986,785.2c-1.2-0.8-1.2-1.2-0.5-1.6L995.5,778L995.5,778z M1003.4,788.9
		l3.4-1.9c2-1.2,1.6-2.9-1.6-4.6c-2-1-4.5-1.1-6.2-0.2l-3.2,1.8L1003.4,788.9L1003.4,788.9z M1042.5,782c-0.1-0.4,0.1-0.8,0.6-0.5
		l1.2,0.7c0.6,0.4,1.2,0.4,1.7,0.1l3.7-2.1c0.6-0.3,0.6-0.7-0.5-1.3l-15.9-9.8c-0.8-0.5-1.4-0.6-1.9-0.3l-4,2.2
		c-0.4,0.2-0.3,0.4,0.3,0.8l1,0.6c0.5,0.3,0.4,0.5-0.4,0.3c-2.7-0.6-5.4-0.1-7.8,1.3c-5.5,3.2-3.9,8,2.7,11.6
		c5.1,2.8,12.5,3.1,16.5,0.9C1042.6,784.9,1042.8,783.6,1042.5,782L1042.5,782z M1036.7,782.4c-2.4,1.4-6.6,1.1-9.3-0.5
		c-2.7-1.7-2.9-4.1-0.4-5.5c2.4-1.4,6.6-1.1,9.3,0.5C1038.9,778.5,1039.1,781,1036.7,782.4L1036.7,782.4z M1038.9,764.5l-3.7,2
		c-0.8,0.4-0.3,0.9,0.8,1.2l21.9,5.6l3.8,6.5c0.3,0.5,1.2,0.7,1.8,0.4l4.1-2.3c0.6-0.3,0.7-0.6,0.4-1.1l-12.3-20
		c-0.4-0.6-1.4-0.9-2.1-0.5l-3.9,2.2c-0.7,0.4-0.6,0.7-0.2,1.2l5.2,8.4l-13.6-3.7C1040.3,764.1,1039.6,764.1,1038.9,764.5z"/>
	<path class="st51" d="M1058.1,743.2c3.6-2,9.5-2.7,15.5,0.5c7.1,3.8,8.3,7.5,3.4,10.2l-4.3,2.4c-0.6,0.3-0.2,0.8,1,1.5l6.2,3.7
		c0.9,0.6,1.1,1,0.4,1.4l-4,2.3c-0.7,0.4-1.4,0.2-2.5-0.4l-24.6-14.7c-1.2-0.7-1.3-1.2-0.6-1.6L1058.1,743.2L1058.1,743.2z
		 M1066.4,753.6l3.3-1.8c1.9-1.2,1.4-2.8-1.8-4.4c-2-1-4.5-1.1-6.2-0.1l-3.1,1.7L1066.4,753.6L1066.4,753.6z M1104.9,746.8
		c-0.1-0.4,0.1-0.7,0.6-0.4l1.2,0.7c0.6,0.3,1.2,0.4,1.7,0.1l3.5-2c0.6-0.3,0.6-0.6-0.6-1.3l-16.2-9.3c-0.8-0.5-1.4-0.6-1.9-0.3
		l-3.8,2.2c-0.3,0.2-0.2,0.4,0.4,0.8l1,0.6c0.5,0.3,0.4,0.5-0.4,0.3c-2.7-0.5-5.3,0-7.6,1.3c-5.3,3.1-3.5,7.6,3.2,11
		c5.2,2.7,12.5,3,16.4,0.8C1105.1,749.5,1105.2,748.3,1104.9,746.8L1104.9,746.8z M1099.1,747.2c-2.3,1.3-6.5,1.1-9.2-0.5
		c-2.7-1.6-3-3.9-0.7-5.2c2.3-1.3,6.5-1.1,9.2,0.4C1101.1,743.5,1101.5,745.8,1099.1,747.2L1099.1,747.2z M1120.5,740.3l-4.1,2.3
		c-0.3,0.2-0.9,0.2-1.3-0.1l-26.8-15.3c-0.4-0.2-0.4-0.5-0.1-0.7l4-2.2c0.3-0.2,0.9-0.2,1.2,0l26.9,15.3
		C1120.7,739.8,1120.8,740.1,1120.5,740.3z"/>
	<path class="st52" d="M928.8,803.6l11.4-6.3c3.2-1.8,7.1-3.8,12.3-3.8c3.5,0,7.2,0.9,10.1,2.6c9.8,5.7,10.6,11.6,3.6,15.5l-5.7,3.2
		c-1,0.5-0.8,1.3,1,2.5l10.7,7.2c0.7,0.5,0.9,0.9,0.4,1.2l-7.1,4c-0.8,0.5-1.8,0.2-3.2-0.7L928.7,806
		C927.4,805.1,927.4,804.4,928.8,803.6z"/>
	<path class="st53" d="M960.5,816.5l-13.2-9c-1.2-0.8-1.2-1.4,0-2.1l11.4-6.3c1.9-1,3.7-1.7,5.6-2c8.2,5.3,8.5,10.8,1.9,14.5
		l-5.7,3.2C959.7,815.2,959.6,815.7,960.5,816.5z"/>
</g>
</svg>
