<?xml version="1.0" encoding="utf-8"?>
<!-- Generator: Adobe Illustrator 25.0.1, SVG Export Plug-In . SVG Version: 6.00 Build 0)  -->
<svg version="1.1" id="Layer_1" xmlns="http://www.w3.org/2000/svg" xmlns:xlink="http://www.w3.org/1999/xlink" x="0px" y="0px"
	 viewBox="0 0 1705.8 1495.5" style="enable-background:new 0 0 1705.8 1495.5;" xml:space="preserve">
<style type="text/css">
	.st0{fill:#F2F7FC;}
	.st1{opacity:0.81;}
	.st2{fill:#76B6E3;}
	.st3{opacity:0.4;fill:#6154F9;stroke:#76B6E3;stroke-miterlimit:10;enable-background:new    ;}
	.st4{opacity:0.6;}
	.st5{fill:#6154F9;stroke:#76B6E3;stroke-miterlimit:10;}
	.st6{opacity:0.8;}
	.st7{fill:#4984B7;}
	.st8{fill:#FFFFFF;}
	.st9{fill:url(#SVGID_1_);}
	.st10{fill:#D2DCE7;}
	.st11{fill:#27C3F3;}
	.st12{fill:#4AC7F4;}
	.st13{fill:#E6EFF9;}
	.st14{fill:#DEE8F4;}
	.st15{fill:url(#SVGID_2_);}
	.st16{fill:#4564AE;}
	.st17{fill:#E43238;}
	.st18{fill:#3566AF;}
	.st19{fill:#F2AE1C;}
	.st20{fill:#85B940;}
	.st21{fill:url(#SVGID_3_);}
	.st22{fill:#3780FF;}
	.st23{fill:#38B137;}
	.st24{fill:#FA3913;}
	.st25{fill:#FCBD06;}
	.st26{fill:url(#SVGID_4_);}
	.st27{fill:#E9F5FC;}
	.st28{fill:#BDCFE0;}
	.st29{fill:url(#SVGID_5_);}
	.st30{fill:url(#SVGID_6_);}
	.st31{fill:url(#SVGID_7_);}
	.st32{fill:url(#SVGID_8_);}
	.st33{fill-rule:evenodd;clip-rule:evenodd;fill:#FF9900;}
	.st34{fill-rule:evenodd;clip-rule:evenodd;}
	.st35{fill:#F45800;}
	.st36{fill:#002136;}
	.st37{fill:#DD2729;}
	.st38{fill:#4895B6;}
	.st39{fill:#FFD400;}
	.st40{fill:#C42128;}
	.st41{fill:#438BAA;}
	.st42{fill:#E4B60B;}
	.st43{fill:url(#SVGID_9_);}
	.st44{fill:#858585;}
	.st45{fill-rule:evenodd;clip-rule:evenodd;fill:#4B1AAE;}
	.st46{fill-rule:evenodd;clip-rule:evenodd;fill:#F2F7FC;}
	.st47{fill-rule:evenodd;clip-rule:evenodd;fill:url(#SVGID_10_);}
	.st48{fill-rule:evenodd;clip-rule:evenodd;fill:url(#SVGID_11_);}
	.st49{fill-rule:evenodd;clip-rule:evenodd;fill:#BDCFE0;}
	.st50{fill-rule:evenodd;clip-rule:evenodd;fill:#302b40;}
	.st51{fill-rule:evenodd;clip-rule:evenodd;fill:url(#SVGID_12_);}
	.st52{fill-rule:evenodd;clip-rule:evenodd;fill:url(#SVGID_13_);}
	.st53{opacity:0.37;fill-rule:evenodd;clip-rule:evenodd;fill:#626D7B;enable-background:new    ;}
	.st54{fill-rule:evenodd;clip-rule:evenodd;fill:#E5E5F7;}
	.st55{fill-rule:evenodd;clip-rule:evenodd;fill:#F4F3FF;}
	.st56{fill-rule:evenodd;clip-rule:evenodd;fill:#362F4A;}
	.st57{fill-rule:evenodd;clip-rule:evenodd;fill:#DCDCF4;}
	.st58{fill-rule:evenodd;clip-rule:evenodd;fill:#F80067;}
	.st59{fill-rule:evenodd;clip-rule:evenodd;fill:#4984B7;}
	.st60{fill-rule:evenodd;clip-rule:evenodd;fill:#92D0F7;}
	.st61{fill-rule:evenodd;clip-rule:evenodd;fill:#FFFFFF;}
	.st62{fill-rule:evenodd;clip-rule:evenodd;fill:#5495C6;}
	.st63{fill:#5495C6;}
	.st64{fill:#F3F9FF;}
	.st65{opacity:0.62;}
	.st66{opacity:0.2;fill:#6154F9;enable-background:new    ;}
	.st67{opacity:0.6;fill:#6154F9;enable-background:new    ;}
	.st68{fill:#6154F9;}
	.st69{opacity:0.8;fill:#6154F9;enable-background:new    ;}
</style>
<g>
	<path class="st0" d="M517.5,1332.6c5.3,3,5.3,8,0.1,11.1l-148.2,85.6c-5.2,3-13.8,3-19.1,0l-99.2-63.1c-5.3-3-5.3-8-0.1-11.1
		l148.2-85.6c5.2-3,13.8-3,19.1,0L517.5,1332.6z"/>
</g>
<g>
	<path class="st0" d="M477.5,799.7c2.3,1.3,2.3,3.5,0,4.8l-58.3,33.7c-2.3,1.3-6,1.3-8.3,0l-43.3-27.5c-2.3-1.3-2.3-3.5,0-4.8
		l58.3-33.7c2.3-1.3,6-1.3,8.3,0L477.5,799.7z"/>
</g>
<g class="st1">
	<g>
		<g>
			<polygon class="st2" points="529.3,316.2 532.9,326.9 541.2,333 535.2,336.3 536.6,346.5 529.2,337.8 521.8,338 523.3,329.4 
				517.3,319.3 525.6,322.7 			"/>
		</g>
		<g>
			<path class="st2" d="M580.5,305.1c4.7,2.7,8.4,9.2,8.4,14.5c0,5.4-3.8,7.5-8.5,4.8L522.6,291c-4.7-2.7-8.4-9.2-8.4-14.6
				s3.8-7.5,8.5-4.8L580.5,305.1z"/>
		</g>
		<g>
			<path class="st2" d="M655,307.4c4.7,2.7,8.4,9.2,8.4,14.5c0,5.4-3.8,7.5-8.5,4.8l-132.1-76.3c-4.7-2.7-8.4-9.2-8.4-14.6
				c0-5.4,3.8-7.5,8.5-4.8L655,307.4z"/>
		</g>
	</g>
	<path class="st3" d="M716.6,70.8c8.2,4.8,14.9,16.3,14.8,25.7L731,233.4c0,9.5-6.7,13.3-14.9,8.5L597,173.2
		c-8.2-4.8-14.9-16.3-14.8-25.7l0.4-136.9c0-9.5,6.7-13.3,14.9-8.5L716.6,70.8z"/>
	<g class="st4">
		<path class="st5" d="M682.9,90.3c8.2,4.8,14.9,16.3,14.8,25.7l-0.4,136.9c0,9.5-6.7,13.3-14.9,8.5l-119.2-68.8
			c-8.2-4.8-14.9-16.3-14.8-25.7L548.7,30c0-9.5,6.7-13.3,14.9-8.5L682.9,90.3z"/>
	</g>
	<g class="st6">
		<path class="st5" d="M649.1,109.7c8.2,4.8,14.9,16.3,14.8,25.7l-0.4,136.9c0,9.5-6.7,13.3-14.9,8.5L529.4,212
			c-8.2-4.8-14.9-16.3-14.8-25.7L515,49.4c0-9.5,6.7-13.3,14.9-8.5L649.1,109.7z"/>
	</g>
	<g>
		<polygon class="st2" points="559,333.4 562.7,344.1 570.9,350.2 564.9,353.4 566.3,363.7 558.9,355 551.5,355.2 553,346.6 
			547,336.4 555.3,339.8 		"/>
	</g>
	<g>
		<polygon class="st2" points="588.7,350.5 592.4,361.2 600.6,367.4 594.6,370.6 596,380.9 588.7,372.1 581.3,372.3 582.7,363.7 
			576.8,353.6 585,357 		"/>
	</g>
	<g>
		<polygon class="st2" points="618.5,367.7 622.1,378.4 630.3,384.5 624.4,387.8 625.7,398 618.4,389.3 611,389.5 612.4,380.9 
			606.5,370.8 614.7,374.1 		"/>
	</g>
	<g>
		<polygon class="st2" points="648.2,384.9 651.8,395.6 660.1,401.7 654.1,404.9 655.5,415.2 648.1,406.5 640.7,406.7 642.2,398 
			636.2,387.9 644.5,391.3 		"/>
	</g>
	<g>
		<g>
			<path class="st7" d="M660,102.5c11.4,6.6,20.5,22.5,20.5,35.5s-9.3,18.3-20.6,11.8c-11.4-6.6-20.5-22.5-20.5-35.5
				S648.7,96,660,102.5z"/>
		</g>
	</g>
	<g>
		<path class="st8" d="M664.7,119.5c0.3,0.2,0.6,0.4,0.9,0.6c2,1.4,4.3,4.8,4.6,9v1.4c-0.3,3.7-2.8,7-10.3,8.7
			c-7.4-10.3-9.9-16.5-10.2-20.5v-1.3c0.3-3.9,2.6-4.7,4.6-3.7c0.3,0.2,0.6,0.3,0.9,0.5c2.3,1.3,3.4,3.1,4.7,5.6
			C661.2,118.6,662.4,118.1,664.7,119.5z"/>
	</g>
	<path class="st8" d="M618.3,138.4l-16-15.7c-0.8,0.7-1.7,1.2-2.7,1.6c1-0.4,1.9-0.9,2.7-1.6l-2.3-2.3l0,0
		c-0.2-0.2-3.9-3.2-10.2-6.9c-3.2-1.8-7-3.8-11.2-5.4l-18.3-3.1L548,126.4l16,15l2.3-4.4l-0.2,53.5l45.8,26.4l0.2-53.5l2.3,7l16,3.6
		L618.3,138.4z"/>
</g>
<g>
	<g>
		<path class="st0" d="M1456,337.7c8.2,4.7,8.2,12.4,0.1,17.1l-200.8,115.4c-8.1,4.7-21.4,4.7-29.6,0l-85-52.1
			c-8.2-4.7-8.2-12.4-0.1-17.1l200.8-115.4c8.1-4.7,21.4-4.7,29.6,0L1456,337.7z"/>
	</g>
	<g>
		
			<linearGradient id="SVGID_1_" gradientUnits="userSpaceOnUse" x1="1210.7111" y1="-20.9944" x2="1519.6888" y2="-20.9944" gradientTransform="matrix(1 0 0 1 0 416)">
			<stop  offset="0" style="stop-color:#E6EFF9"/>
			<stop  offset="1" style="stop-color:#E6EFF9"/>
		</linearGradient>
		<path class="st9" d="M1514.7,487.5c-0.9,0-1.7-0.2-2.5-0.7l-299-175c-2.4-1.4-3.2-4.5-1.8-6.8c1.4-2.4,4.5-3.2,6.8-1.8l299,175
			c2.4,1.4,3.2,4.5,1.8,6.8C1518.1,486.6,1516.4,487.5,1514.7,487.5z"/>
	</g>
	<g>
		<g>
			<path class="st10" d="M1464.4,289.8L1464.4,289.8c-0.2,2.5-2.1,5.2-5.7,7.2l-205.4,117.5c-1,0.6-2.1,1.1-3.2,1.5v34.6
				c-1.1,0.4-2.3,0.8-3.5,1c2.4-0.5,4.7-1.4,6.7-2.5l205.4-117.5c4-2.3,5.9-5.3,5.7-8.1V289.8L1464.4,289.8z"/>
			<path class="st11" d="M1246.6,451.6c-0.4,0.1-0.8,0.2-1.2,0.2C1245.9,451.8,1246.2,451.7,1246.6,451.6z"/>
			<path class="st11" d="M1234.7,451.8L1234.7,451.8c0.2,0,0.3,0,0.3,0c0.2,0,0.5,0.1,0.7,0.1C1235.3,451.9,1235,451.8,1234.7,451.8
				z"/>
			<path class="st11" d="M1239.3,452.3c0.4,0,0.8,0,1.1,0C1240,452.4,1239.7,452.4,1239.3,452.3z"/>
			<path class="st11" d="M1240.6,452.3c0.1,0,0.2,0,0.2,0l0,0l0,0c1.5,0,3-0.2,4.5-0.5C1243.8,452.2,1242.2,452.3,1240.6,452.3z"/>
			<path class="st11" d="M1235.8,452c0.2,0,0.3,0.1,0.5,0.1h0.1c0.5,0.1,0.9,0.1,1.4,0.2l0,0c0.5,0,0.9,0.1,1.4,0.1
				C1238.1,452.3,1236.9,452.2,1235.8,452z"/>
			<path class="st12" d="M1128.2,352.6L1128.2,352.6v0.1C1128.2,352.7,1128.2,352.7,1128.2,352.6z"/>
			<g>
				<path class="st13" d="M1231.7,450.9c0.2,0.1,0.4,0.2,0.6,0.2c0.2,0.1,0.4,0.1,0.6,0.2c-0.5-0.2-0.9-0.3-1.4-0.5
					C1231.6,450.8,1231.7,450.8,1231.7,450.9z"/>
				<path class="st13" d="M1233,451.3L1233,451.3L1233,451.3z"/>
				<path class="st13" d="M1231.5,450.8L1231.5,450.8L1231.5,450.8L1231.5,450.8z"/>
				<path class="st13" d="M1233,451.3c0.1,0,0.2,0,0.2,0.1c0.1,0,0.2,0.1,0.4,0.1c0.3,0.1,0.6,0.1,0.9,0.2
					C1234,451.6,1233.5,451.5,1233,451.3z"/>
				<path class="st13" d="M1230,415.5l-93.2-53.8l-4.6-2.6c-2.5-1.5-3.9-3.4-4-5.4v33.7c-0.2,2.3,1.1,4.6,4,6.3l4.6,2.6l0,0
					L1230,450c0.4,0.2,0.8,0.4,1.2,0.6c0.1,0,0.2,0.1,0.4,0.1v-34.6C1230.9,416,1230.4,415.7,1230,415.5z"/>
			</g>
			<path class="st14" d="M1250.2,416c-6.1,2.3-13.5,2.4-18.7,0.2v34.6c0.9,0.4,2,0.7,3.1,1h0.1c0.3,0.1,0.7,0.1,1,0.2h0.1
				c1.1,0.2,2.3,0.3,3.5,0.3l0,0c0.4,0,0.8,0,1.1,0c0.1,0,0.1,0,0.2,0c1.6,0,3.2-0.2,4.8-0.5h0.1c0.4-0.1,0.8-0.1,1.2-0.2h0.1
				c1.2-0.3,2.4-0.6,3.5-1L1250.2,416L1250.2,416z"/>
			
				<linearGradient id="SVGID_2_" gradientUnits="userSpaceOnUse" x1="1128.2" y1="-94.7756" x2="1464.52" y2="-94.7756" gradientTransform="matrix(1 0 0 1 0 416)">
				<stop  offset="0" style="stop-color:#FFFFFF"/>
				<stop  offset="0.4982" style="stop-color:#FCFDFF"/>
				<stop  offset="0.7974" style="stop-color:#F4F7FF"/>
				<stop  offset="1" style="stop-color:#E9EEFF"/>
			</linearGradient>
			<path class="st15" d="M1132.2,359l4.6,2.6l93.2,53.8c0.5,0.3,1,0.5,1.5,0.7c5.2,2.2,12.7,2.1,18.7-0.2c1.1-0.4,2.2-0.9,3.2-1.5
				L1458.8,297c3.6-2.1,5.5-4.7,5.7-7.2c0.2-2.3-1.1-4.6-4-6.3l-97.8-56.4c-6-3.5-16.5-3-23.4,1l-205.4,117.5
				c-3.5,2-5.5,4.6-5.7,7.1v0.1c0,0.3,0,0.5,0,0.8C1128.4,355.6,1129.7,357.6,1132.2,359z"/>
		</g>
		<path class="st8" d="M1458.8,290.4l-205.4,117.5c-6.9,4-17.4,4.4-23.4,1l-97.8-56.4c-1.3-0.8-2.3-1.7-3-2.7
			c-2.1,3.3-1.1,6.9,3,9.3l97.8,56.4c6,3.5,16.5,3,23.4-1L1458.8,297c5.4-3.1,7-7.5,4.7-10.9
			C1462.5,287.6,1460.9,289.1,1458.8,290.4z"/>
		<g>
			<path class="st16" d="M1428.5,332.4c0,2.5-1.8,5.6-3.9,6.8c-2.2,1.3-3.9,0.2-3.9-2.3s1.8-5.6,3.9-6.8S1428.5,329.9,1428.5,332.4z
				"/>
			<path class="st16" d="M1441.2,325c0,2.5-1.8,5.6-3.9,6.8c-2.2,1.3-3.9,0.2-3.9-2.3s1.8-5.6,3.9-6.8
				C1439.4,321.5,1441.2,322.5,1441.2,325z"/>
			<path class="st16" d="M1453.9,317.7c0,2.5-1.8,5.6-3.9,6.8c-2.2,1.3-3.9,0.2-3.9-2.3s1.8-5.6,3.9-6.8
				C1452.1,314.2,1453.9,315.2,1453.9,317.7z"/>
		</g>
	</g>
	<g>
		<path class="st17" d="M1210.3,346.5c-12.8,7.3-17.6,16.5,0.4,25.9c14.2,7.4,30.3,8,46.8-1.6c19.3-11.2,6.5-19.2,6.5-19.2l-9.4,5.4
			c0,0,5.6,5.1-4.2,10.8c-8,4.6-19.7,4.9-28.1,0.5l36-20.7l-5.2-2.7C1245,340.5,1227.6,336.6,1210.3,346.5z M1216.7,350.1
			c7.6-4.4,17.9-4.7,25.6-0.7l-26.3,15.1C1207.8,360.3,1209.9,354,1216.7,350.1z"/>
		<path class="st18" d="M1215.1,324.9l55.1,28.7c3.1,1.6,7.3,4,7.3,4l8.9-5.1c0,0-2.8-1.8-5.7-3.3c0,0,12,1.4,23.8-5.5
			c12.4-7.2,11.3-17.1-2.5-24.3c-12.8-6.7-30.9-7.6-44.1,0c-12.4,7.1-8.9,13.2-8.9,13.2l-24.8-12.9L1215.1,324.9z M1262.4,324.3
			c8.5-4.9,20.9-4.3,30.2,0.5c10,5.2,10.4,12.2,2.8,16.6c-9.1,5.2-21.8,4-30.6-0.6C1256.8,336.6,1252.8,329.8,1262.4,324.3z"/>
		<path class="st19" d="M1300.7,294.9c-18.7,10.7-8.5,17.3-6.7,18.2l9.3-5.3c0,0-6.2-3.7,3.3-9.1c6.1-3.5,14-4.6,19.9-1.5l2.1,1.1
			l-10.8,6.2c-14.4,8.3-17.4,15.2-7.8,20.1c9.4,4.9,21.6,3.5,31.1-2c12.9-7.5,9.1-14,9.1-14c3.2,1.6,6.5,3.1,6.5,3.1l8.2-4.7
			c0,0-4.2-1.8-6.7-3.1l-21.4-11.1C1322.7,285.5,1309.6,289.8,1300.7,294.9L1300.7,294.9z M1335,301.6l2.8,1.5
			c3.7,1.9,10.9,7.9-1.2,14.9c-6.6,3.8-13.2,3.5-17.4,1.3C1311.5,315.2,1321,309.7,1335,301.6z"/>
		<path class="st20" d="M1316.6,287.7l10.4-5.9l48,8.8l-18.4-25.7l9.3-5.3l32.3,46l-9.7,5.7l-8.8-13.1L1316.6,287.7L1316.6,287.7z"
			/>
		<path d="M1362.9,254.4l1,0.5l0.8-0.4l0.7,0.4l-0.8,0.4l1.6,0.8c0.4,0.2,0.8,0.3,1.1,0.1c0.1-0.1,0.2-0.1,0.3-0.2l0.7,0.4
			c-0.1,0.1-0.2,0.2-0.5,0.4c-0.3,0.2-0.7,0.2-1,0.2c-0.4,0-0.8-0.1-1.2-0.4l-1.7-0.9l-0.5,0.3l-0.7-0.4l0.5-0.3l-0.8-0.4
			L1362.9,254.4z M1366.3,254.7c-0.4-0.2-0.8-0.4-1.1-0.5l0.7-0.4l0.6,0.3l0,0c-0.1-0.2-0.2-0.6,0.4-0.9c0.4-0.2,1-0.3,1.5-0.2l0,0
			c-0.1-0.2-0.1-0.3-0.1-0.4c0-0.2,0.2-0.3,0.4-0.5c0.5-0.3,1.5-0.4,2.6,0.2l2.1,1.1l-0.8,0.4l-2-1c-0.6-0.3-1.1-0.4-1.5-0.2
			c-0.3,0.2-0.3,0.4-0.1,0.6c0.1,0.1,0.2,0.1,0.3,0.2l2.1,1.1l-0.8,0.4l-2.1-1.1c-0.5-0.3-1-0.3-1.4-0.1c-0.3,0.2-0.2,0.4-0.1,0.6
			c0.1,0.1,0.2,0.1,0.2,0.2l2.1,1.1l-0.8,0.4L1366.3,254.7L1366.3,254.7z"/>
	</g>
	<g>
		<g>
			<path class="st0" d="M1695.3,506.3c8.2,4.7,8.2,12.4,0.1,17.1l-200.8,115.5c-8.1,4.7-21.4,4.7-29.6,0l-85-52.1
				c-8.2-4.7-8.2-12.4-0.1-17.1l200.8-115.4c8.1-4.7,21.4-4.7,29.6,0L1695.3,506.3z"/>
		</g>
		<g>
			<g>
				<path class="st10" d="M1705.8,454.3L1705.8,454.3c-0.2,2.5-2.1,5.2-5.7,7.2L1494.7,579c-1,0.6-2.1,1.1-3.2,1.5v34.6
					c-1.1,0.4-2.3,0.8-3.5,1c2.4-0.5,4.7-1.4,6.7-2.5l205.4-117.5c4-2.3,5.9-5.3,5.7-8.1L1705.8,454.3L1705.8,454.3z"/>
				<path class="st11" d="M1488,616.1c-0.4,0.1-0.8,0.2-1.2,0.2C1487.2,616.3,1487.6,616.2,1488,616.1z"/>
				<path class="st11" d="M1476,616.3L1476,616.3c0.2,0,0.3,0,0.3,0c0.2,0,0.5,0.1,0.7,0.1C1476.7,616.4,1476.3,616.4,1476,616.3z"
					/>
				<path class="st11" d="M1480.6,616.9c0.4,0,0.8,0,1.1,0C1481.4,616.9,1481,616.9,1480.6,616.9z"/>
				<path class="st11" d="M1481.9,616.9c0.1,0,0.2,0,0.2,0l0,0l0,0c1.5,0,3-0.2,4.5-0.5C1485.1,616.7,1483.5,616.8,1481.9,616.9z"/>
				<path class="st11" d="M1477.1,616.5c0.2,0,0.3,0.1,0.5,0.1h0.1c0.5,0.1,0.9,0.1,1.4,0.2l0,0c0.5,0,0.9,0.1,1.4,0.1
					C1479.4,616.8,1478.2,616.7,1477.1,616.5z"/>
				<path class="st12" d="M1369.5,517.2L1369.5,517.2L1369.5,517.2C1369.5,517.2,1369.5,517.2,1369.5,517.2z"/>
				<g>
					<path class="st13" d="M1473.1,615.4c0.2,0.1,0.4,0.2,0.6,0.2c0.2,0.1,0.4,0.1,0.6,0.2c-0.5-0.2-0.9-0.3-1.4-0.5
						C1472.9,615.3,1473,615.4,1473.1,615.4z"/>
					<path class="st13" d="M1474.3,615.8L1474.3,615.8C1474.3,615.8,1474.3,615.8,1474.3,615.8z"/>
					<path class="st13" d="M1472.8,615.3L1472.8,615.3L1472.8,615.3L1472.8,615.3z"/>
					<path class="st13" d="M1474.3,615.8c0.1,0,0.2,0,0.2,0.1c0.1,0,0.2,0.1,0.4,0.1c0.3,0.1,0.6,0.2,0.9,0.2
						C1475.3,616.1,1474.8,616,1474.3,615.8z"/>
					<path class="st13" d="M1471.3,580l-93.2-53.8l-4.6-2.6c-2.5-1.5-3.9-3.4-4-5.4v33.7c-0.2,2.3,1.1,4.6,4,6.3l4.6,2.6l0,0
						l93.2,53.8c0.4,0.2,0.8,0.4,1.2,0.6c0.1,0,0.2,0.1,0.4,0.2v-34.6C1472.3,580.5,1471.8,580.3,1471.3,580z"/>
				</g>
				<path class="st14" d="M1491.5,580.5c-6.1,2.3-13.5,2.4-18.7,0.2v34.6c0.9,0.4,2,0.7,3.1,1h0.1c0.3,0.1,0.7,0.2,1,0.2h0.1
					c1.1,0.2,2.3,0.3,3.5,0.3l0,0c0.4,0,0.8,0,1.1,0c0.1,0,0.1,0,0.2,0c1.6,0,3.2-0.2,4.8-0.5h0.1c0.4-0.1,0.8-0.2,1.2-0.2h0.1
					c1.2-0.3,2.4-0.6,3.5-1L1491.5,580.5L1491.5,580.5z"/>
				
					<linearGradient id="SVGID_3_" gradientUnits="userSpaceOnUse" x1="1369.5997" y1="69.6744" x2="1705.9198" y2="69.6744" gradientTransform="matrix(1 0 0 1 0 416)">
					<stop  offset="0" style="stop-color:#FFFFFF"/>
					<stop  offset="0.4982" style="stop-color:#FCFDFF"/>
					<stop  offset="0.7974" style="stop-color:#F4F7FF"/>
					<stop  offset="1" style="stop-color:#E9EEFF"/>
				</linearGradient>
				<path class="st21" d="M1373.6,523.5l4.6,2.6l93.2,53.8c0.5,0.3,1,0.5,1.5,0.7c5.2,2.2,12.7,2.1,18.7-0.2
					c1.1-0.4,2.2-0.9,3.2-1.5l205.4-117.5c3.6-2.1,5.5-4.7,5.7-7.2c0.2-2.3-1.1-4.6-4-6.3l-97.8-56.4c-6-3.5-16.5-3-23.4,1
					L1375.3,510c-3.5,2-5.5,4.6-5.7,7.1v0.1c0,0.3,0,0.5,0,0.8C1369.7,520.2,1371,522.1,1373.6,523.5z"/>
			</g>
			<path class="st8" d="M1700.1,454.9l-205.4,117.5c-6.9,4-17.4,4.4-23.4,1l-97.8-56.4c-1.3-0.8-2.3-1.7-3-2.7
				c-2.1,3.3-1.1,6.9,3,9.3l97.8,56.4c6,3.5,16.5,3,23.4-1l205.4-117.5c5.4-3.1,7-7.5,4.7-10.9
				C1703.8,452.2,1702.3,453.6,1700.1,454.9z"/>
			<g>
				<path class="st16" d="M1669.8,496.9c0,2.5-1.8,5.6-3.9,6.8c-2.2,1.3-3.9,0.2-3.9-2.3s1.8-5.6,3.9-6.8
					C1668.1,493.4,1669.8,494.4,1669.8,496.9z"/>
				<path class="st16" d="M1682.5,489.6c0,2.5-1.8,5.6-3.9,6.8c-2.2,1.3-3.9,0.2-3.9-2.3s1.8-5.6,3.9-6.8
					C1680.8,486,1682.5,487,1682.5,489.6z"/>
				<path class="st16" d="M1695.2,482.2c0,2.5-1.8,5.6-3.9,6.8c-2.2,1.3-3.9,0.2-3.9-2.3s1.8-5.6,3.9-6.8
					C1693.5,478.7,1695.2,479.7,1695.2,482.2z"/>
			</g>
		</g>
		<g>
			<path class="st22" d="M1435.4,504.8l1.6-0.9c5.6-3,13.9-4.6,22.9-4.1c0.4,1.8,0.8,3.6,1.3,5.5c-4.8-0.1-9.4,0.3-12.9,1.6
				c-5.4,1.8-8.9,4.9-9.3,8.6c-0.6,3.9,2.3,8.4,7.6,11.9c5.2,3.5,12.7,6.1,20.2,6.9c7.3,0.8,14.5-0.1,19.3-2.5
				c4.6-2.2,7.4-5.5,6.7-9.3c-0.2-2.8-3.2-5.6-6.9-8c-5.1,2.8-10.1,5.7-15.2,8.4l-8-4.3l21.2-11.9c9.8,4,18,10.1,19,16.3
				c0.9,4.3-1.2,8.3-5.6,11.2c-4.1,2.9-10.1,4.9-17.1,5.6c-8.3,0.9-17.9,0-26.5-2.6c-7.9-2.3-14.8-6-19.2-10.3
				c-4.1-3.9-6.1-8.2-5.8-12.1C1428.8,511,1431.3,507.5,1435.4,504.8z"/>
			<path class="st23" d="M1562.2,434.7l7-4l59.5,30.5c-2.4,1.3-4.8,2.7-7.3,3.9C1601.6,454.9,1581.8,444.8,1562.2,434.7
				L1562.2,434.7z"/>
			<path class="st24" d="M1493,495.6c3.1-2.8,8.6-4.7,15.2-5c5.9-0.3,12.4,0.8,17.9,3c6.4,2.5,11.4,6.3,13,10.2
				c1.9,4.3-0.5,8.5-5.8,10.9c-4.8,2.3-12,3.2-19.2,2.1c-8-1.1-15.7-4.4-20-8.4C1489.3,504.2,1489,499.1,1493,495.6 M1501.4,499
				c-1.1,1.2-1.4,2.7-0.8,4.3c1.6,4.1,9.2,8,16.9,8.4c4.4,0.3,8.4-0.7,10.4-2.5c1.9-1.7,2-4,0.4-6.1c-2.7-3.7-9.8-6.8-16.7-7
				C1507.2,496,1503.2,497.1,1501.4,499L1501.4,499z"/>
			<path class="st25" d="M1526.1,477c3.6-3.3,10.6-5.4,18.5-5.2c12.6,0.2,25.9,6.4,28.6,13.2c1.8,4.3-0.5,8.4-5.7,11
				c-4.8,2.5-12.4,3.5-19.9,2.5c-8.4-1.1-16.3-4.5-20.7-8.7C1522.3,485.5,1522.1,480.5,1526.1,477 M1534.7,480.4
				c-1.2,1.2-1.5,2.8-0.9,4.3c1.5,4.1,9.2,8,16.8,8.5c4.6,0.3,8.9-0.7,11.1-2.6c1.9-1.7,2.1-4.1,0.4-6.2c-2.8-3.7-10.1-6.9-17.1-7
				C1540.5,477.3,1536.5,478.5,1534.7,480.4L1534.7,480.4z"/>
			<path class="st22" d="M1557.2,462c0.8-3.6,4.9-6.8,11.5-7.8c2-0.4,4.2-0.3,6.4-0.3c-1.1-0.6-2.3-1.2-3.4-1.8
				c2.2-1.2,4.4-2.5,6.7-3.7l36.7,18.8c5.5,2.9,10.3,6.5,11.1,10.4c0.9,4.2-3.1,7.9-8.9,10c-6.1,2.3-15.3,2.3-23.2,0.3
				c0.8-1.7,1.9-3.3,2.8-5c4.6,1.1,9.8,1.4,13.4,0.1s6.2-3.6,5-6.3c-1.1-2.8-5.4-5-9.4-7c0.3,1.8,0.2,3.6-1.3,5.1
				c-3,3.4-10.1,5.1-17.5,5s-15.4-2-21.2-5.2C1559.6,471.3,1556.2,466.4,1557.2,462 M1569.2,461c-1.6,1.3-2,3.1-1.4,4.8
				c1.5,4.1,8.9,7.9,16.5,8.5c4.5,0.4,8.8-0.4,11.2-2.1c2.3-1.6,2.6-4,1.1-6.2c-2.7-3.7-9.6-6.9-16.8-7.4
				C1575.4,458.2,1571.3,459.1,1569.2,461L1569.2,461z"/>
			<path class="st24" d="M1602.8,438.8c-0.7-4.6,3.9-8.9,11.6-10.6c7.3-1.6,16.3-0.4,24,1.8c-3.6,6.1-7.2,12-10.8,18.1
				c3.4,0.7,7.2,0.9,10.2,0.2c4.3-1,7.4-3.2,7.4-5.8c0.1-1-0.4-2.1-0.8-3.1c3.5-0.2,6.9-0.5,10.4-0.8c2.3,4,1.3,8.3-3,11.2
				c-4.6,3.3-12.8,5.1-21.4,4.4C1616.7,453.1,1603.8,445.9,1602.8,438.8 M1614.2,440.7c0.9,1.7,3,3.2,5.5,4.5c2.4-4,4.8-8,7.1-12.1
				c-3.2-0.8-6.6-0.4-9,0.5C1613.8,435.1,1612.7,438,1614.2,440.7z"/>
		</g>
	</g>
	<g>
		<path class="st0" d="M383.3,730.9c8.2,4.7,8.2,12.4,0.1,17.1L182.5,863.5c-8.1,4.7-21.4,4.7-29.6,0l-85-52.1
			c-8.2-4.7-8.2-12.4-0.1-17.1l200.8-115.4c8.1-4.7,21.4-4.7,29.6,0L383.3,730.9z"/>
	</g>
	<g>
		<path class="st0" d="M556.6,1050c8.2,4.7,8.2,12.4,0.1,17.1l-281.4,160.2c-8.1,4.7-21.4,4.7-29.6,0L92,1129.6
			c-8.2-4.7-8.2-12.4-0.1-17.1l281.4-160.2c8.1-4.7,21.4-4.7,29.6,0L556.6,1050z"/>
	</g>
	<path class="st0" d="M1469,893.9c23.5,13.6,23.7,35.6,0.3,49.2l-353.2,206.7c-23.4,13.6-61.4,13.6-84.9,0L605.5,904
		c-23.5-13.6-23.6-35.6-0.3-49.2l353.2-206.7c23.4-13.6,61.3-13.6,84.9,0L1469,893.9z"/>
	
		<linearGradient id="SVGID_4_" gradientUnits="userSpaceOnUse" x1="0" y1="516.9555" x2="1438.6888" y2="516.9555" gradientTransform="matrix(1 0 0 1 0 416)">
		<stop  offset="0" style="stop-color:#E6EFF9"/>
		<stop  offset="1" style="stop-color:#E6EFF9"/>
	</linearGradient>
	<path class="st26" d="M1438,590.8c-1.4-2.4-4.5-3.2-6.8-1.8l-945.4,553.3c-4.4,2.5-9.7,2.5-14.1,0L13.5,874c-2.2-1.3-3.5-3.5-3.5-6
		s1.3-4.8,3.5-6l220.8-129.2c2.4-1.4,3.2-4.5,1.8-6.8c-1.4-2.4-4.5-3.2-6.8-1.8L8.4,853.3C3.1,856.4,0,861.9,0,868
		s3.1,11.6,8.4,14.7l467.9,273.8l0,0l205.8,120.4c0.8,0.5,1.7,0.7,2.5,0.7c1.7,0,3.4-0.9,4.3-2.5c1.4-2.4,0.6-5.4-1.8-6.8
		L495.3,1156c-3-1.7-3-6,0-7.8l940.9-550.7C1438.6,596.2,1439.4,593.1,1438,590.8z"/>
	<g>
		<path class="st0" d="M982.5,1354.1c8.2,4.7,8.2,12.4,0.1,17.1l-206.8,119.5c-8.1,4.7-21.4,4.7-29.6,0L592.5,1393
			c-8.2-4.7-8.2-12.4-0.1-17.1l206.8-119.5c8.1-4.7,21.4-4.7,29.6,0L982.5,1354.1z"/>
	</g>
	<g>
		<path class="st0" d="M968.9,436.8c3.4,2,3.4,5.2,0,7.2l-86.6,50c-3.4,2-9,2-12.4,0l-64.4-40.9c-3.4-2-3.4-5.2,0-7.2l86.6-50
			c3.4-2,9-2,12.4,0L968.9,436.8z"/>
	</g>
	<g>
		<g>
			<path class="st10" d="M560.3,976.9L560.3,976.9c-0.2,2.5-2.1,5.2-5.7,7.2l-205.4,117.5c-1,0.6-2.1,1.1-3.2,1.5v34.6
				c-1.1,0.4-2.3,0.8-3.5,1.1c2.4-0.6,4.7-1.4,6.7-2.6l205.4-117.5c4-2.3,5.9-5.3,5.7-8.1V976.9z"/>
			<path class="st11" d="M342.4,1138.8c-0.4,0.1-0.8,0.2-1.1,0.2C341.7,1139,342.1,1138.9,342.4,1138.8z"/>
			<path class="st11" d="M330.5,1138.9h0.1c0.1,0,0.1,0,0.2,0.1c0.2,0.1,0.5,0.1,0.7,0.1C331.1,1139.1,330.8,1139,330.5,1138.9z"/>
			<path class="st11" d="M335.1,1139.5c0.4,0,0.8,0,1.1,0C335.9,1139.5,335.5,1139.5,335.1,1139.5z"/>
			<path class="st11" d="M336.4,1139.5c0.1,0,0.1,0,0.2,0l0,0l0,0c1.5,0,3-0.2,4.5-0.5C339.6,1139.3,338,1139.5,336.4,1139.5z"/>
			<path class="st11" d="M331.6,1139.2c0.2,0,0.3,0.1,0.5,0.1h0.1c0.5,0.1,1,0.1,1.4,0.2l0,0c0.5,0,1,0.1,1.4,0.1
				C333.9,1139.5,332.7,1139.4,331.6,1139.2z"/>
			<path class="st12" d="M224,1039.8L224,1039.8L224,1039.8C224,1039.9,224,1039.9,224,1039.8z"/>
			<g>
				<path class="st13" d="M327.5,1138.1c0.2,0.1,0.4,0.2,0.6,0.2c0.2,0.1,0.4,0.1,0.5,0.2c-0.5-0.2-1-0.3-1.4-0.5
					C327.4,1138,327.5,1138,327.5,1138.1z"/>
				<path class="st13" d="M328.8,1138.5h-0.1C328.8,1138.5,328.8,1138.5,328.8,1138.5z"/>
				<path class="st13" d="M327.3,1137.9L327.3,1137.9L327.3,1137.9L327.3,1137.9z"/>
				<path class="st13" d="M328.8,1138.5c0.1,0,0.2,0.1,0.2,0.1c0.1,0,0.2,0.1,0.4,0.1c0.3,0.1,0.6,0.2,0.9,0.2
					C329.8,1138.8,329.3,1138.7,328.8,1138.5z"/>
				<path class="st13" d="M325.8,1102.6l-93.2-53.8l-4.6-2.6c-2.5-1.5-3.9-3.4-4-5.4v33.7c-0.2,2.3,1.1,4.6,4,6.3l4.6,2.6l0,0
					l93.2,53.8c0.4,0.2,0.8,0.4,1.1,0.6c0.1,0.1,0.2,0.1,0.4,0.2v-34.6C326.8,1103.2,326.2,1102.9,325.8,1102.6z"/>
			</g>
			<path class="st14" d="M346,1103.2c-6,2.3-13.5,2.4-18.7,0.2v34.6c1,0.4,2,0.7,3,1h0.1c0.3,0.1,0.7,0.2,1,0.2h0.1
				c1.1,0.2,2.3,0.3,3.5,0.3l0,0c0.4,0,0.8,0,1.1,0c0.1,0,0.1,0,0.2,0c1.6,0,3.2-0.2,4.8-0.5h0.1c0.4-0.1,0.8-0.2,1.1-0.2
				c0,0,0,0,0.1,0c1.2-0.3,2.4-0.6,3.5-1.1L346,1103.2L346,1103.2z"/>
			<path class="st27" d="M228,1046.2l4.6,2.6l93.2,53.8c0.5,0.3,1,0.5,1.5,0.7c5.2,2.2,12.7,2.1,18.7-0.2c1.1-0.4,2.2-0.9,3.2-1.5
				l205.4-117.5c3.6-2.1,5.5-4.7,5.7-7.2c0.2-2.3-1.1-4.6-4-6.3l-97.8-56.4c-6-3.5-16.5-3-23.4,1l-205.4,117.5
				c-3.5,2-5.5,4.6-5.7,7.1v0.1c0,0.3,0,0.6,0,0.8C224.2,1042.8,225.5,1044.7,228,1046.2z"/>
		</g>
		<path class="st8" d="M554.6,977.5L349.2,1095c-6.9,4-17.4,4.4-23.4,1l-97.8-56.4c-1.3-0.8-2.3-1.7-3-2.7c-2.1,3.3-1.1,6.9,3,9.3
			l97.8,56.4c6,3.5,16.5,3,23.4-1l205.4-117.5c5.4-3.1,7-7.5,4.7-10.9C558.3,974.8,556.7,976.3,554.6,977.5z"/>
		<g>
			<path class="st16" d="M524.3,1019.6c0,2.5-1.8,5.6-4,6.8s-4,0.2-4-2.3s1.8-5.6,4-6.8C522.5,1016,524.3,1017,524.3,1019.6z"/>
			<path class="st16" d="M537,1012.2c0,2.5-1.8,5.6-4,6.8s-4,0.2-4-2.3s1.8-5.6,4-6.8S537,1009.7,537,1012.2z"/>
			<path class="st16" d="M549.7,1004.9c0,2.5-1.8,5.6-4,6.8s-4,0.2-4-2.3s1.8-5.6,4-6.8C548,1001.4,549.7,1002.4,549.7,1004.9z"/>
		</g>
	</g>
	<g>
		<g>
			<path class="st28" d="M381.7,665.3L381.7,665.3c-0.2,2.5-2.1,5.2-5.7,7.2L170.6,790c-1,0.6-2.1,1.1-3.2,1.5v34.6
				c-1.1,0.4-2.3,0.8-3.5,1c2.4-0.5,4.7-1.4,6.7-2.5L376,707.1c4-2.3,5.9-5.3,5.7-8.1V665.3L381.7,665.3z"/>
			<path class="st11" d="M163.8,827.1c-0.4,0.1-0.8,0.2-1.1,0.2C163.1,827.3,163.5,827.2,163.8,827.1z"/>
			<path class="st11" d="M151.9,827.3h0.1c0.1,0,0.1,0,0.2,0c0.2,0,0.5,0.1,0.7,0.1C152.6,827.4,152.2,827.4,151.9,827.3z"/>
			<path class="st11" d="M156.5,827.9c0.4,0,0.8,0,1.1,0C157.2,827.9,156.9,827.9,156.5,827.9z"/>
			<path class="st11" d="M157.8,827.9c0.1,0,0.1,0,0.2,0l0,0l0,0c1.5,0,3-0.2,4.5-0.5C161,827.7,159.4,827.8,157.8,827.9z"/>
			<path class="st11" d="M153,827.5c0.2,0,0.3,0.1,0.5,0.1h0.1c0.5,0.1,0.9,0.1,1.4,0.2l0,0c0.5,0,0.9,0.1,1.4,0.1
				C155.3,827.8,154.1,827.7,153,827.5z"/>
			<path class="st12" d="M45.4,728.2L45.4,728.2L45.4,728.2C45.4,728.2,45.4,728.2,45.4,728.2z"/>
			<g>
				<path class="st13" d="M148.9,826.4c0.2,0.1,0.4,0.2,0.6,0.2c0.2,0.1,0.4,0.1,0.6,0.2c-0.5-0.2-0.9-0.3-1.4-0.5
					C148.8,826.3,148.9,826.3,148.9,826.4z"/>
				<path class="st13" d="M150.2,826.8h-0.1C150.1,826.8,150.2,826.8,150.2,826.8z"/>
				<path class="st13" d="M148.7,826.3L148.7,826.3L148.7,826.3L148.7,826.3z"/>
				<path class="st13" d="M150.2,826.8c0.1,0,0.2,0,0.2,0.1c0.1,0,0.2,0.1,0.4,0.1c0.3,0.1,0.6,0.2,0.9,0.2
					C151.2,827.1,150.7,827,150.2,826.8z"/>
				<path class="st13" d="M147.2,791L54,737.2l-4.5-2.6c-2.5-1.5-3.9-3.4-4-5.4v33.7c-0.2,2.3,1.1,4.6,4,6.3l4.5,2.6l0,0l93.2,53.8
					c0.4,0.2,0.8,0.4,1.1,0.6c0.1,0,0.2,0.1,0.4,0.2v-34.6C148.2,791.5,147.6,791.2,147.2,791z"/>
			</g>
			<path class="st14" d="M167.4,791.5c-6.1,2.3-13.5,2.4-18.7,0.2v34.6c0.9,0.4,2,0.7,3.1,1h0.1c0.3,0.1,0.7,0.2,1,0.2h0.1
				c1.1,0.2,2.3,0.3,3.5,0.3l0,0c0.4,0,0.8,0,1.1,0c0.1,0,0.1,0,0.2,0c1.6,0,3.2-0.2,4.8-0.5h0.1c0.4-0.1,0.8-0.2,1.1-0.2h0.1
				c1.2-0.3,2.4-0.6,3.5-1L167.4,791.5L167.4,791.5z"/>
			
				<linearGradient id="SVGID_5_" gradientUnits="userSpaceOnUse" x1="119.3998" y1="289.9191" x2="427.2847" y2="259.8563" gradientTransform="matrix(1 0 0 1 0 416)">
				<stop  offset="0" style="stop-color:#FFFFFF"/>
				<stop  offset="0.4982" style="stop-color:#FCFDFF"/>
				<stop  offset="0.7974" style="stop-color:#F4F7FF"/>
				<stop  offset="1" style="stop-color:#E9EEFF"/>
			</linearGradient>
			<path class="st29" d="M49.4,734.5l4.5,2.6l93.2,53.8c0.5,0.3,1,0.5,1.5,0.7c5.2,2.2,12.7,2.1,18.7-0.2c1.1-0.4,2.2-0.9,3.2-1.5
				L376,672.5c3.6-2.1,5.5-4.7,5.7-7.2c0.2-2.3-1.1-4.6-4-6.3l-97.8-56.4c-6-3.5-16.5-3-23.4,1L51.1,721c-3.5,2-5.5,4.6-5.7,7.1v0.1
				c0,0.3,0,0.5,0,0.8C45.6,731.2,46.9,733.1,49.4,734.5z"/>
		</g>
		<path class="st8" d="M376,665.9L170.6,783.4c-6.9,4-17.4,4.4-23.4,1L49.4,728c-1.3-0.8-2.3-1.7-3-2.7c-2.1,3.3-1.1,6.9,3,9.3
			l97.8,56.4c6,3.5,16.5,3,23.4-1L376,672.5c5.4-3.1,7-7.5,4.7-10.9C379.7,663.2,378.1,664.6,376,665.9z"/>
		<g>
			<path class="st2" d="M345.7,707.9c0,2.5-1.8,5.6-4,6.8c-2.2,1.3-4,0.2-4-2.3s1.8-5.6,4-6.8C344,704.4,345.7,705.4,345.7,707.9z"
				/>
			<path class="st2" d="M358.4,700.6c0,2.5-1.8,5.6-4,6.8c-2.2,1.3-4,0.2-4-2.3s1.8-5.6,4-6.8C356.6,697,358.4,698,358.4,700.6z"/>
			<path class="st2" d="M371.1,693.2c0,2.5-1.8,5.6-4,6.8c-2.2,1.3-4,0.2-4-2.3s1.8-5.6,4-6.8C369.4,689.7,371.1,690.7,371.1,693.2z
				"/>
		</g>
	</g>
	<g>
		<g>
			<path class="st28" d="M987.9,1287.1L987.9,1287.1c-0.2,2.5-2.1,5.2-5.7,7.2l-205.4,117.5c-1,0.6-2.1,1.1-3.2,1.5v34.6
				c-1.1,0.4-2.3,0.8-3.5,1.1c2.4-0.6,4.7-1.4,6.7-2.6l205.4-117.5c4-2.3,5.9-5.3,5.7-8.1L987.9,1287.1L987.9,1287.1z"/>
			<path class="st11" d="M770.1,1449c-0.4,0.1-0.8,0.2-1.2,0.2C769.3,1449.2,769.7,1449.1,770.1,1449z"/>
			<path class="st11" d="M758.1,1449.2L758.1,1449.2c0.2,0,0.3,0,0.3,0.1c0.2,0.1,0.5,0.1,0.7,0.1
				C758.8,1449.3,758.5,1449.2,758.1,1449.2z"/>
			<path class="st11" d="M762.8,1449.7c0.4,0,0.8,0,1.1,0C763.5,1449.7,763.1,1449.7,762.8,1449.7z"/>
			<path class="st11" d="M764.1,1449.7c0.1,0,0.2,0,0.2,0l0,0l0,0c1.5,0,3-0.2,4.5-0.5C767.2,1449.6,765.7,1449.7,764.1,1449.7z"/>
			<path class="st11" d="M759.3,1449.4c0.2,0,0.3,0.1,0.5,0.1h0.1c0.5,0.1,1,0.1,1.4,0.2l0,0c0.5,0,1,0.1,1.4,0.1
				C761.5,1449.7,760.4,1449.6,759.3,1449.4z"/>
			<path class="st12" d="M585.7,1312L585.7,1312L585.7,1312C585.7,1312.1,585.7,1312.1,585.7,1312z"/>
			<g>
				<path class="st13" d="M755.2,1448.2c0.2,0.1,0.4,0.2,0.6,0.2c0.2,0.1,0.4,0.1,0.5,0.2c-0.5-0.2-1-0.3-1.4-0.5
					C755,1448.2,755.1,1448.2,755.2,1448.2z"/>
				<path class="st13" d="M756.5,1448.7L756.5,1448.7C756.4,1448.7,756.4,1448.7,756.5,1448.7z"/>
				<path class="st13" d="M755,1448.1L755,1448.1C755,1448.2,755,1448.1,755,1448.1L755,1448.1z"/>
				<path class="st13" d="M756.5,1448.7c0.1,0,0.2,0.1,0.2,0.1c0.1,0,0.2,0.1,0.4,0.1c0.3,0.1,0.6,0.2,0.9,0.2
					C757.5,1449,757,1448.9,756.5,1448.7z"/>
				<path class="st13" d="M753.4,1412.8L594.2,1321l-4.5-2.6c-2.5-1.5-3.9-3.4-4-5.4v33.7c-0.2,2.3,1.1,4.6,4,6.3l4.5,2.6l0,0
					l159.2,91.8c0.4,0.2,0.8,0.4,1.2,0.6c0.1,0.1,0.2,0.1,0.4,0.2v-34.6C754.4,1413.4,753.9,1413.1,753.4,1412.8z"/>
			</g>
			<path class="st14" d="M773.7,1413.4c-6,2.3-13.5,2.4-18.7,0.2v34.6c1,0.4,2,0.7,3,1h0.1c0.3,0.1,0.7,0.2,1,0.2h0.1
				c1.1,0.2,2.3,0.3,3.5,0.3l0,0c0.4,0,0.8,0,1.1,0c0.1,0,0.1,0,0.2,0c1.6,0,3.2-0.2,4.8-0.5h0.1c0.4-0.1,0.8-0.2,1.2-0.2
				c0,0,0,0,0.1,0c1.2-0.3,2.4-0.6,3.5-1.1L773.7,1413.4L773.7,1413.4z"/>
			
				<linearGradient id="SVGID_6_" gradientUnits="userSpaceOnUse" x1="646.3046" y1="869.3152" x2="993.5821" y2="904.5613" gradientTransform="matrix(1 0 0 1 0 416)">
				<stop  offset="0" style="stop-color:#FFFFFF"/>
				<stop  offset="0.4982" style="stop-color:#FCFDFF"/>
				<stop  offset="0.7974" style="stop-color:#F4F7FF"/>
				<stop  offset="1" style="stop-color:#E9EEFF"/>
			</linearGradient>
			<path class="st30" d="M589.7,1318.4l4.5,2.6l159.2,91.8c0.5,0.3,1,0.5,1.5,0.7c5.2,2.2,12.7,2.1,18.7-0.2
				c1.1-0.4,2.2-0.9,3.2-1.5l205.4-117.5c3.6-2.1,5.5-4.7,5.7-7.2c0.2-2.3-1.1-4.6-4-6.3l-163.8-94.4c-6-3.5-16.5-3-23.4,1
				l-205.4,117.5c-3.5,2-5.5,4.6-5.7,7.1v0.1c0,0.3,0,0.6,0,0.8C585.8,1315,587.2,1316.9,589.7,1318.4z"/>
		</g>
		<path class="st8" d="M982.2,1287.7l-205.4,117.5c-6.9,4-17.4,4.4-23.4,1l-163.8-94.4c-1.3-0.8-2.3-1.7-3-2.7
			c-2.1,3.3-1.1,6.9,3,9.3l163.8,94.4c6,3.5,16.5,3,23.4-1l205.4-117.5c5.4-3.1,7-7.4,4.7-10.9C986,1285,984.4,1286.5,982.2,1287.7z
			"/>
		<g>
			<path class="st16" d="M952,1329.8c0,2.5-1.8,5.6-4,6.8s-4,0.2-4-2.3s1.8-5.6,4-6.8C950.2,1326.2,952,1327.2,952,1329.8z"/>
			<path class="st16" d="M964.7,1322.4c0,2.5-1.8,5.6-4,6.8s-4,0.2-4-2.3s1.8-5.6,4-6.8S964.7,1319.9,964.7,1322.4z"/>
			<path class="st16" d="M977.4,1315.1c0,2.5-1.8,5.6-4,6.8s-4,0.2-4-2.3s1.8-5.6,4-6.8C975.6,1311.6,977.4,1312.6,977.4,1315.1z"/>
		</g>
	</g>
	<g>
		<g>
			<path class="st28" d="M562.8,975.4L562.8,975.4c-0.2,2.5-2.1,5.2-5.7,7.2l-282.4,160.5c-1,0.6-2.1,1.1-3.2,1.5v34.6
				c-1.1,0.4-2.3,0.8-3.5,1.1c2.4-0.6,4.7-1.4,6.7-2.6l282.4-160.5c4-2.3,5.9-5.3,5.7-8.1V975.4z"/>
			<path class="st11" d="M267.9,1180.3c-0.4,0.1-0.8,0.2-1.1,0.2C267.2,1180.5,267.6,1180.4,267.9,1180.3z"/>
			<path class="st11" d="M256,1180.4h0.1c0.1,0,0.1,0,0.2,0.1c0.2,0.1,0.5,0.1,0.7,0.1C256.6,1180.6,256.3,1180.5,256,1180.4z"/>
			<path class="st11" d="M260.6,1181c0.4,0,0.8,0,1.1,0C261.4,1181,261,1181,260.6,1181z"/>
			<path class="st11" d="M261.9,1181c0.1,0,0.1,0,0.2,0l0,0l0,0c1.5,0,3-0.2,4.5-0.5C265.1,1180.8,263.5,1181,261.9,1181z"/>
			<path class="st11" d="M257.1,1180.7c0.2,0,0.3,0.1,0.5,0.1h0.1c0.5,0.1,1,0.1,1.4,0.2l0,0c0.5,0,1,0.1,1.4,0.1
				C259.4,1181,258.2,1180.9,257.1,1180.7z"/>
			<path class="st12" d="M83.5,1043.3L83.5,1043.3L83.5,1043.3C83.5,1043.4,83.5,1043.4,83.5,1043.3z"/>
			<g>
				<path class="st13" d="M253.1,1179.6c0.2,0.1,0.4,0.2,0.6,0.2c0.2,0.1,0.4,0.1,0.6,0.2c-0.5-0.2-0.9-0.3-1.4-0.5
					C252.9,1179.5,253,1179.5,253.1,1179.6z"/>
				<path class="st13" d="M254.3,1180h-0.1H254.3z"/>
				<path class="st13" d="M252.8,1179.4L252.8,1179.4L252.8,1179.4L252.8,1179.4z"/>
				<path class="st13" d="M254.3,1180c0.1,0,0.2,0.1,0.2,0.1c0.1,0,0.2,0.1,0.4,0.1c0.3,0.1,0.6,0.2,0.9,0.2
					C255.3,1180.3,254.8,1180.2,254.3,1180z"/>
				<path class="st13" d="M251.3,1144.1l-159.2-91.8l-4.6-2.6c-2.5-1.5-3.9-3.4-4-5.4v33.7c-0.2,2.3,1.1,4.6,4,6.3l4.6,2.6l0,0
					l159.2,91.8c0.4,0.2,0.8,0.4,1.1,0.6c0.1,0.1,0.2,0.1,0.4,0.2v-34.6C252.3,1144.7,251.8,1144.4,251.3,1144.1z"/>
			</g>
			<path class="st14" d="M271.5,1144.7c-6,2.3-13.5,2.4-18.7,0.2v34.6c0.9,0.4,2,0.7,3.1,1h0.1c0.3,0.1,0.7,0.2,1,0.2h0.1
				c1.1,0.2,2.3,0.3,3.5,0.3l0,0c0.4,0,0.8,0,1.1,0c0.1,0,0.1,0,0.2,0c1.6,0,3.2-0.2,4.8-0.5h0.1c0.4-0.1,0.8-0.2,1.1-0.2
				c0,0,0,0,0.1,0c1.2-0.3,2.4-0.6,3.5-1.1L271.5,1144.7L271.5,1144.7z"/>
			
				<linearGradient id="SVGID_7_" gradientUnits="userSpaceOnUse" x1="131.676" y1="597.9566" x2="564.9954" y2="587.5901" gradientTransform="matrix(1 0 0 1 0 416)">
				<stop  offset="0" style="stop-color:#FFFFFF"/>
				<stop  offset="0.4982" style="stop-color:#FCFDFF"/>
				<stop  offset="0.7974" style="stop-color:#F4F7FF"/>
				<stop  offset="1" style="stop-color:#E9EEFF"/>
			</linearGradient>
			<path class="st31" d="M87.5,1049.7l4.6,2.6l159.2,91.8c0.5,0.3,1,0.5,1.5,0.7c5.2,2.2,12.7,2.1,18.7-0.2c1.1-0.4,2.2-0.9,3.2-1.5
				l282.4-160.5c3.6-2.1,5.5-4.7,5.7-7.2c0.2-2.3-1.1-4.6-4-6.3L395,874.7c-6-3.5-16.5-3-23.4,1L89.2,1036.2c-3.5,2-5.5,4.6-5.7,7.1
				v0.1c0,0.3,0,0.6,0,0.8C83.7,1046.3,85,1048.2,87.5,1049.7z"/>
		</g>
		<path class="st8" d="M557.1,976l-282.4,160.5c-6.9,4-17.4,4.4-23.4,1l-163.8-94.4c-1.3-0.8-2.3-1.7-3-2.7c-2.1,3.3-1.1,6.9,3,9.3
			l163.8,94.4c6,3.5,16.5,3,23.4-1l282.4-160.5c5.4-3.1,7-7.5,4.7-10.9C560.8,973.3,559.2,974.8,557.1,976z"/>
		<g>
			<path class="st2" d="M526.8,1018.1c0,2.5-1.8,5.6-4,6.8s-4,0.2-4-2.3s1.8-5.6,4-6.8C525,1014.5,526.8,1015.5,526.8,1018.1z"/>
			<path class="st2" d="M539.5,1010.7c0,2.5-1.8,5.6-4,6.8s-4,0.2-4-2.3s1.8-5.6,4-6.8S539.5,1008.2,539.5,1010.7z"/>
			<path class="st2" d="M552.2,1003.4c0,2.5-1.8,5.6-4,6.8s-4,0.2-4-2.3s1.8-5.6,4-6.8C550.5,999.9,552.2,1000.9,552.2,1003.4z"/>
		</g>
	</g>
	<g>
		
			<linearGradient id="SVGID_8_" gradientUnits="userSpaceOnUse" x1="1243.6184" y1="-8.3459" x2="1242.5114" y2="-13.2425" gradientTransform="matrix(1 0 0 1 0 416)">
			<stop  offset="0" style="stop-color:#D5E8F6"/>
			<stop  offset="1" style="stop-color:#E6EFF9"/>
		</linearGradient>
		<path class="st32" d="M1243.1,407.7c3.2,0,3.2-5,0-5C1239.8,402.7,1239.8,407.7,1243.1,407.7L1243.1,407.7z"/>
	</g>
	<g>
		<g>
			<path class="st33" d="M389.6,1006.5c-1.3,16.1-15.3,32.5-33.6,43.2c-25.9,15.1-61.3,21.9-99.1,20.8c-3-0.1-3.8-2.1-0.9-2.3
				c33.2-3.2,65.3-12.2,89.7-26.3c16.3-9.4,29.9-22.2,37.7-36.5C384.5,1003,389.8,1003.8,389.6,1006.5z"/>
			<path class="st33" d="M387.2,998c-4.8-0.7-13.6,6.2-17.6,9.3c-1.2,0.9-3,0.2-2.8-1.2c1.1-9,16.8-15.5,20.7-15
				c4,0.5,18.7,11.5,19,20.7c0,1.4-1.7,1.7-2.8,0.4C400.1,1008,391.9,998.7,387.2,998z"/>
		</g>
		<g>
			<path class="st34" d="M316.6,975.8l-7-4.1c-1.1-0.6-1.1-1.4-0.3-1.9l25.6-14.3c0.8-0.5,2.2-0.4,3.2,0.2l6,3.5
				c1,0.6,1.6,1.8,2.5,3.7l9.9,21c4.8-2.9,10.8-5.3,18.3-6c1.7-0.2,3,0.3,4,0.8l7.4,4.4c1,0.6,1.3,1.8-0.3,2
				c-12.8,1.5-23.7,7.1-26.7,15.4c-0.3,0.8-2.4,0.7-3.4,0.1l-7.1-4.2c-1.1-0.7-3.1-1.8-3.9-3.4l-11.6-24.5l-13.4,7.5
				C319,976.5,317.7,976.4,316.6,975.8z"/>
			<path class="st34" d="M265.3,1055.9l-8.1,4.6c-0.8,0.4-2.1,0.3-3.1-0.1l-50.2-29.4c-1-0.6-1.1-1.5-0.2-1.9l7.6-4.3
				c0.9-0.4,2.2-0.3,3.2,0.2l6.5,3.8l0.1-0.1c-4.3-4.8-3.6-8.6,1.5-11.5c5.1-2.8,11.2-2.9,19.8-0.5c-4.3-4.8-2.8-9,1.9-11.7
				c3.4-1.9,8.8-3,14.8-2c6.7,1,12.2,4.9,17.6,8l31.3,18.4c1,0.6,1.1,1.4,0.2,1.9l-7.9,4.6c-0.9,0.4-2.3,0.3-3.2-0.2l-26.3-15.5
				c-2.1-1.2-7.2-4.4-9.5-5.3c-4-1.6-6.7-1.2-9,0.1c-2,1.1-2.4,3.2-0.7,5.1c1.7,1.9,6,4.4,8.8,6l26.4,15.5c1,0.6,1.1,1.4,0.2,1.9
				l-8,4.6c-0.9,0.4-2.3,0.3-3.2-0.2l-26.5-15.5c-5.6-3.3-13-8.5-18.8-5.3c-5.9,3.3,2.4,7.9,8.2,11.3l26.5,15.6
				C266.1,1054.5,266.2,1055.4,265.3,1055.9z"/>
			<path class="st34" d="M357.4,941.9c11.4-6.3,29.5-2.7,44.7,6.2c14.7,8.7,19.7,19.3,9.1,25.4c-11.1,6.3-29.2,2.7-44.2-6.1
				C351.8,958.5,346.2,948.2,357.4,941.9z M367.3,947.7c-5.7,3.2,3.5,9,9.4,12.4s18.5,11,24.4,7.6c5.9-3.3-4-9.5-10.2-13.2
				c-4.1-2.4-9.1-5.2-14-6.9C372.8,946.2,369.8,946.3,367.3,947.7z"/>
			<path class="st34" d="M441.8,954.8l-7.5,4.3c-0.8,0.4-2.1,0.3-3.1-0.2l-48.1-28.4c-0.8-0.6-0.9-1.3-0.1-1.7l7-3.9
				c0.7-0.3,1.8-0.3,2.7,0l7.3,4.3l0.1-0.1c-4.5-5.1-4.6-8.6,0.6-11.5c3.4-1.9,8.2-2.8,14.4-1.6c5.8,1.2,12.2,5,16.8,7.7l30,17.7
				c0.8,0.5,0.8,1.3,0.1,1.7l-7.4,4.2c-0.7,0.4-1.9,0.3-2.8-0.1l-26-15.3c-5.2-3.1-12.4-7.9-17.6-5c-1.8,1-2,2.9-0.5,4.7
				c1.9,2.3,4.7,4.1,7.9,6l25.8,15.2C442.5,953.6,442.6,954.4,441.8,954.8z"/>
			<path class="st34" d="M316.4,999.4c3.7,2.2,6.9,4,8.7,6.8c1.5,2.3,1.1,4.4-1.1,5.7c-3,1.7-7.6,1.1-11.8-1.4
				c-8.2-4.8-3.6-9.1,2.1-12.3L316.4,999.4z M347.6,1008.6c0,0.6-0.6,1.1-1.6,1.2c-5.2-0.1-6.9-0.5-10.9-1.2c1.1,5.6-0.4,8.3-6,11.5
				c-6.6,3.8-16.8,3.8-26.8-2.1c-7.8-4.6-9.6-9.7-7.3-14c2-3.8,7.6-7.4,11.5-10.3l-1.2-0.7c-2.3-1.3-4.8-3-7.9-3.5
				c-2.7-0.5-5.3,0.1-6.9,1c-3,1.7-3.8,4.3-0.6,7c0.7,0.6,1.1,1.4,0.4,1.8l-8.7,3.8c-0.8,0.3-2.2,0.3-3.2-0.5
				c-9.5-7.7-4.5-14.4,3.1-18.6c3.9-2.2,10.1-4.2,16.7-3.9c8.2,0.4,13.6,4,19.9,7.7l14.9,8.8c4.5,2.6,8,2.9,11.8,3.5
				c1.4,0.2,2.5,0.8,2.5,1.5C347.4,1003.4,347.5,1006.7,347.6,1008.6L347.6,1008.6z"/>
			<path class="st34" d="M210.8,1059.2c3.8,2.2,7.1,4.1,8.9,7c1.5,2.4,1.1,4.6-1.2,5.9c-3.2,1.8-7.9,1.2-12.2-1.3
				c-8.4-4.9-3.6-9.4,2.4-12.8L210.8,1059.2z M243,1068.5c0,0.7-0.7,1.1-1.7,1.2c-5.4,0-7.2-0.5-11.2-1.2c1,5.8-0.6,8.6-6.4,11.9
				c-6.9,4-17.5,4.1-27.8-1.9c-8-4.7-9.8-10-7.3-14.5c2.2-3.9,8-7.7,12.2-10.8l-1.3-0.8c-2.3-1.4-4.9-3.1-8.1-3.6
				c-2.8-0.5-5.5,0.2-7.2,1.1c-3.2,1.8-4.1,4.5-0.8,7.2c0.7,0.6,1.1,1.4,0.4,1.9l-9.1,3.9c-0.9,0.3-2.3,0.3-3.3-0.5
				c-9.8-7.8-4.4-14.9,3.6-19.3c4.1-2.3,10.6-4.5,17.4-4.1c8.5,0.4,14,4.1,20.5,7.9l15.3,8.9c4.6,2.7,8.2,3,12.2,3.6
				c1.4,0.2,2.6,0.8,2.6,1.5C242.8,1063,242.9,1066.5,243,1068.5L243,1068.5z"/>
		</g>
	</g>
	<g>
		<path class="st35" d="M640.8,1318.3c-1.4-0.8-2.1-1.7-0.6-2.5s17.3-8.6,27.4-14.1c20.9-11.2,23.8-15.1,27.4-17
			c2-1,4.3-0.1,5.4,0.5s2.4,2.5,5.4,4.3s6.8,3.4,9.4,5c2.6,1.6,1.7,3.1,0.7,3.6s-2.1,0.6-4.4-0.7c-4.4-2.5-8-7.6-33.3,6
			c-13,7-11.5,8.2-6.5,11.3s21.8,13,24.3,14.6c2.6,1.6,4,1.7,5.7,0.8c1.7-0.9,14.9-8.2,18.5-10.1s4.8-5.3-1-9.3
			c-3.1-2.1-2.5-2.5-1.2-3.2s3.8-0.6,6.7,1.4s5.6,4.2,10.1,6.9c4.4,2.7,9.5,4.9,12.8,6.8c3.2,1.9,0.6,4.3-3.6,2.6
			c-4.2-1.7-11-4.7-19.1-0.3c-8.1,4.4-14.6,8-16.4,9s-1.5,2.2,2.2,4.4c3.6,2.2,21.4,12.9,25.9,15.6s10.4,5,17.7,0.9
			s21.5-10.9,21.6-17.8c-0.1-3-3-5.7-8.1-9.8c-2.4-1.9,2.5-4.5,8.7-0.6c2.8,1.9,6.9,7,11,9.4c3.4,2.1,8.6,4.5,6.1,5.9
			c-2.1,1.2-2.6-0.1-12,5.2c-9.4,5.3-42.1,23.9-47.6,27c-2.1,1.2-3.2,1-4.8,0c-1.6-0.9-2-2.1-0.2-3.1s9.3-5-2.3-12.1
			c-11.6-7-53.7-32.5-59.9-36.3s-13.5-6.9-20.6-3.9C643.5,1320.1,642.3,1319.2,640.8,1318.3z"/>
		<path class="st35" d="M744.5,1303.4c-1.9-1.2-1.9-2.1-0.8-3.6c1.8-2.9,1-8-7.1-16.8c-2.5-2.8,2.1-4.2,5.3-1.7s9.4,6.9,13.3,9.2
			c1.6-0.9,13.4-7.3,14.9-8.1c1.5-0.8,4,0.4,5.8,1.4c1.8,1.1,2.8,2.2,1.6,2.9c-1.4,0.8-14.9,8.1-14.9,8.1s20.5,12.3,32.2,19.3
			c11.6,7,17.5,6.8,21.7,4.5c2.4-1.4,3.2-3.2,3.4-5.2c0.1-1.4,5.5-1.2,6.4,0.9s2.7,8.8-4.2,12.6c-6.9,3.9-18.4,2.8-29.2-3.8
			c-10.8-6.6-28.5-17.6-31-19.1s-8.7-2.2-11.6-0.6C747.7,1304.8,745.7,1304.1,744.5,1303.4z"/>
		<path class="st35" d="M796.7,1265.9c4.7-2.6,10.5-3.3,12-4.2c1.5-0.8-0.3-2.6,1.4-3.6c1.7-0.9,4.6,0.3,6.2,1.8
			c1.6,1.5,6.3,4.6,12,7.8c2,1.1,1.9,2.4,0.7,3.1s-2.3,0.5-5.7-0.9c-3.4-1.5-12.5-4.5-20.7-0.1c-5.9,3.2-3.2,7.4,0,9.3
			s7.7,3,17.5,1.6c10.2-1.5,26.1-5.8,40.9,2.9c13.5,8.5,7.2,17.1,0.8,20.7c-5.3,3-12.4,4.6-14.6,5.8c-2.2,1.2-0.7,3.1-2.1,3.9
			s-4.5,0.1-6-1.4c-1.6-1.6-2.5-2.9-4.6-4.2c-2.1-1.3-8-3.7-11.5-6.4c-3.5-2.8,0.2-5.5,4.1-3.1c3.9,2.4,16.7,8.4,27.9,2.1
			c9-5.1,2-10.4-0.3-11.8c-2.8-1.7-7.3-3.8-23.6-1.1c-16.4,2.8-25.8,2.1-34.5-3.2C788,1279.8,786.1,1271.7,796.7,1265.9z"/>
		<path class="st35" d="M821.4,1256.6c-1.3-0.8-1.9-1.2-0.7-1.8c1.2-0.7,7.8-3.9,11.1-5.8c3.3-1.8,9.2-5.3,10.4-5.9
			c0.9-0.5,2,0.5,3,1c0.9,0.6,2.6,1.4,1,2.3s-3.8,2.9-0.5,4.9s5,2.2,9.6,3.7c5.1,1.7,37.3,11.5,37.3,11.5s-10.5-13.5-13.3-17.3
			s-7.6-8-10.2-9.5s-6.5-1.4-8.7-0.8s-3,1.3-5.7-0.3c-1.4-0.8-1.9-1.4-1.1-1.8s6.6-3.1,10.5-5.2s8.1-4.8,9.4-5.5
			c1.2-0.6,2.1,0.3,3.1,0.9s2,1.3,1.2,2s-5.6,3,2.6,13.2c8.2,10.3,25.1,31,35.5,44.9c5.5,7.3,8.8,17,1.8,20.9
			c-3.6,2.1-9.1,0.5-11.1-0.7s-4.5-3.7-0.4-6c2.8-1.6,5.2-0.9,6.5-1.7c2.7-1.6,1-10.6-12.5-20.9c-3.3-2.3-14.8-5.8-19.8-7.6
			c-7.5-2.5-29.3-9.8-43-13.7c-4.7-1.3-9.7-0.6-12.1,0.3C824.2,1258,823.6,1257.9,821.4,1256.6z"/>
	</g>
	<g>
		<path class="st36" d="M175,702.4l9.7,5.7l4.2-2.4c2.9-1.6,2.8-3.6-0.3-5.4c-3-1.8-6.5-1.9-9.4-0.2L175,702.4z M183.6,693.2
			c4.2,0,8.3,1.2,11.9,3.2c3.6,2.1,5.5,4.5,5.5,6.9c0.1,2.2-1.6,4.4-4.6,6.1l-4.8,2.7l11.7,6.8l-6.9,3.9l-35.2-20.6l11.7-6.6
			C175.9,694,179.6,693.1,183.6,693.2z M205.2,693.3l-3.5-1.7l-5.9,3.3l24.4,14.3l6.6-3.8l-13.8-8c-0.6-2,0-3.3,1.9-4.4l0.8-0.5
			l-7.5-4.4l-0.3,0.2C205.6,689.7,204.6,691.5,205.2,693.3 M202.4,678.4c-2.2,1.2-1.9,3.2,0.6,4.7s6,1.6,8.1,0.4s1.9-3.2-0.6-4.7
			C208,677.3,204.5,677.2,202.4,678.4 M234.7,701l6.5-3.7l-24.4-14.2l-6.6,3.7L234.7,701z M252.9,681.7c-3.7-2.1-8.2-2.3-13.9-0.5
			c-3.7,1.2-4.7,1.2-5.6,0.7c-0.4-0.2-1.5-0.9,0.9-2.2c2.1-1.2,4.8-1.5,6.6-1.5h0.6l-3-4.6h-0.4c-3.2,0-7,0.9-9.9,2.6
			c-5.5,3.1-5.8,6.8-0.8,9.8c3.7,2.2,7.8,2.3,13.9,0.3c3.5-1.1,4.6-1,5.5-0.5c1.4,0.8,0.3,1.8-0.9,2.4c-2,1.1-4.7,1.7-7.7,1.7h-0.6
			l3,4.7h0.4c3.6,0,7.8-1.1,10.9-2.8C257.5,688.5,257.9,684.6,252.9,681.7 M264.5,685.7c1.9,1.1,2.1,2.3,0.5,3.2
			c-1.3,0.8-3.3,0.7-4.8,0.6h-0.5l0.9,5.4h0.4c4.2,0.3,7.8-0.5,10.8-2.2c5.2-3,4.6-7.6-1.3-11L245.1,667l-6.5,3.7L264.5,685.7z
			 M230.5,662.5c-2.2,1.2-1.9,3.2,0.6,4.6s5.9,1.6,8.1,0.4c2.2-1.2,1.9-3.2-0.6-4.6S232.6,661.3,230.5,662.5 M276.1,670.2
			c-2.6,1.5-6.6,1.1-10.2-1s-4.3-4.4-1.7-5.9c1.6-0.9,3.7-1.1,6.5-0.6l6.5,3.8C278.1,668.1,277.7,669.3,276.1,670.2L276.1,670.2z
			 M264.4,658.6c-2.1-0.2-5.3,0-8.3,1.7c-5.5,3.1-4.1,8.3,3.3,12.6s16.4,5.1,21.9,2c2.3-1.3,3.5-3,3.1-4.7l2.4,1.1l5.8-3.3l-24.3-14
			l-5.8,3.3L264.4,658.6z M291,641.1l-7.7,4.4l5,10.1l-22.2-12.8l-6.4,3.6l35.2,20.3l5-2.9l-2.9-7.1l11.4,2.3l7.3-4.1l-21-4.3
			L291,641.1z M321.9,643l-0.1,0.3c-0.2,0.6-0.8,1.2-1.8,1.7c-1.5,0.9-3.5,0.8-5.3-0.2l-8.6-4.9l5.7-3.2l-6.4-3.7l-5.7,3.2l-7.8-4.5
			l-6.4,3.6l7.8,4.5l0,0l2.4,6l4.1-2.3l8.6,5c6,3.5,12.7,3.8,17.9,0.8c1.7-1,2.8-2.2,3.2-3.5v-0.2L321.9,643z"/>
		<path id="Fill-15_4_" class="st37" d="M108.8,713.7c16.3-9.1,44.3-7.8,62.7,3s20.4,27.1,4.2,36.4c-16.3,9.3-44.6,8-63.1-3
			C94,739.2,92.4,722.9,108.8,713.7"/>
		<path id="Fill-16_4_" class="st38" d="M157.6,724.5c9.8,5.7,10.7,14.4,2.2,19.3c-8.6,4.9-23.6,4.2-33.3-1.6
			c-9.8-5.8-10.7-14.4-2.1-19.3C133.1,718.1,147.9,718.8,157.6,724.5"/>
		<path id="Fill-17_4_" class="st39" d="M126.5,742.2c-9.8-5.8-10.7-14.4-2.1-19.3c8.6-4.8,23.5-4.1,33.2,1.6
			c9.8,5.7,10.7,14.4,2.2,19.3C151.2,748.7,136.3,748,126.5,742.2 M164.2,720.8c-5.4-3.2-11.9-5.3-18.6-6.2l-0.4-3.6
			c-3.7-0.5-7.5-0.7-11.1-0.5l0.4,3.6c-6.5,0.3-12.7,1.8-17.4,4.5c-4.8,2.7-7.5,6.2-8.2,10l-6.2-0.3c-0.3,2.1-0.1,4.3,0.7,6.5
			l6.2,0.3c1.5,3.9,5,7.8,10.5,11s12,5.3,18.7,6.3l0.4,3.6c3.8,0.5,7.5,0.7,11.2,0.5l-0.4-3.6c6.6-0.3,12.7-1.8,17.5-4.6
			c4.8-2.7,7.5-6.3,8.1-10.1l6.2,0.3c0.3-2.1,0-4.3-0.8-6.5l-6.2-0.3C173.1,727.8,169.6,724,164.2,720.8"/>
		<path id="Fill-18_4_" class="st40" d="M172.7,718.1l-25.1-3.3l-0.3-2.8c-0.7-0.1-1.4-0.2-2.1-0.2l0.3,2.8c6.7,1,13.2,3,18.6,6.2
			c5.4,3.2,8.9,7,10.5,10.8l6.2,0.3c0.8,2.2,1,4.3,0.8,6.5l-6.2-0.3c-0.6,3.8-3.4,7.3-8.1,10.1c-4.8,2.7-10.9,4.2-17.5,4.6l0.4,3.6
			c-3,0.1-6.1,0-9.1-0.3l0.1,0.8c3.8,0.5,7.5,0.7,11.2,0.5L152,754l15.6,2c-2,0.7-4.1,1.2-6.3,1.6c-5.1,1-10.6,1.3-16.3,1.1
			c-5.7-0.3-11.4-1.2-16.7-2.7c-5.6-1.5-10.7-3.7-15.1-6.3s-8-5.6-10.5-8.9c-2.4-3.2-3.8-6.4-4.2-9.7c-0.3-3.3,0.4-6.5,2.3-9.4
			c1.9-3,4.8-5.7,8.8-7.9c3.9-2.2,8.6-3.8,13.8-4.8c5.1-1,10.6-1.3,16.2-1c5.7,0.3,11.2,1.2,16.6,2.6c5.5,1.5,10.6,3.6,15,6.2
			C171.6,717.4,172.2,717.8,172.7,718.1L172.7,718.1z M173.9,718.3c-0.8-0.5-1.6-1-2.4-1.5c-18.4-10.8-46.4-12.2-62.7-3
			s-14.7,25.5,3.8,36.5s46.8,12.3,63.1,3l0,0l0,0C191.1,744.3,190,729,173.9,718.3L173.9,718.3L173.9,718.3z"/>
		<path id="Fill-19_4_" class="st40" d="M105.1,734.8c0.1,0.3,0.2,0.6,0.3,0.9l4.5,0.2c-0.1-0.3-0.3-0.7-0.4-1L105.1,734.8z"/>
		<path id="Fill-20_4_" class="st41" d="M130.4,742.4c-9.8-5.8-10.7-14.4-2.1-19.3c3.8-2.2,8.9-3.2,14.2-3.2
			c-6.6-0.6-13.4,0.3-18.1,3c-8.6,4.9-7.7,13.5,2.1,19.3c5.4,3.2,12.4,4.8,19,4.8C140.1,746.6,134.7,745,130.4,742.4"/>
		<path id="Fill-21_4_" class="st39" d="M150.5,738.3c-4.1,2.3-11.2,2-15.8-0.8c-4.6-2.7-5.1-6.8-1-9.2s11.2-2,15.8,0.8
			C154.1,731.9,154.6,736,150.5,738.3z"/>
		<path id="Fill-22_4_" class="st41" d="M144.1,727.2c1.9,0.4,3.8,1,5.4,1.9c4.6,2.7,5.1,6.8,1,9.2c-2.3,1.3-5.4,1.8-8.6,1.5
			c3.8,0.7,7.8,0.3,10.5-1.2c4.1-2.3,3.6-6.4-1-9.2C149.3,728.2,146.7,727.5,144.1,727.2"/>
		<path id="Fill-23_4_" class="st42" d="M123.9,722.6c-2.2,1.2-3.8,2.7-4.8,4.4c-1,1.6-1.4,3.4-1.2,5.2c0.2,1.8,1,3.6,2.3,5.4
			c1.4,1.8,3.4,3.5,5.8,4.9c2.4,1.5,5.3,2.6,8.4,3.5c3,0.8,6.1,1.3,9.3,1.5c3.1,0.2,6.2,0,9.1-0.6c2.9-0.6,5.5-1.5,7.7-2.7
			c2.1-1.2,3.8-2.7,4.8-4.4c1-1.6,1.4-3.4,1.1-5.2s-1-3.7-2.4-5.4c-1.4-1.8-3.4-3.4-5.9-4.9c-2.4-1.4-5.3-2.6-8.4-3.5
			c-3-0.8-6.1-1.3-9.2-1.5c-3.1-0.2-6.2,0-9,0.6C128.6,720.5,126.1,721.4,123.9,722.6 M124.4,722.9c8.6-4.8,23.4-4.2,33.2,1.6
			c9.8,5.7,10.7,14.4,2.2,19.3c-8.6,4.9-23.6,4.2-33.3-1.6C116.7,736.4,115.8,727.8,124.4,722.9"/>
	</g>
	<g>
		<g>
			
				<linearGradient id="SVGID_9_" gradientUnits="userSpaceOnUse" x1="1040.7687" y1="647.9" x2="1040.7687" y2="130.4" gradientTransform="matrix(1 0 0 1 0 416)">
				<stop  offset="0" style="stop-color:#FFFFFF"/>
				<stop  offset="0.4982" style="stop-color:#FCFDFF"/>
				<stop  offset="0.7974" style="stop-color:#F4F7FF"/>
				<stop  offset="1" style="stop-color:#E9EEFF"/>
			</linearGradient>
			<path class="st43" d="M1468.4,802.8c23.6,13.6,23.7,35.6,0.3,49.2l-344.2,201.7c-23.4,13.6-61.5,13.6-85,0L613.1,807.5
				c-23.5-13.6-23.7-35.6-0.3-49.2L957,556.6c23.4-13.6,61.5-13.6,85,0L1468.4,802.8z"/>
		</g>
		<path class="st28" d="M1485.9,821.4c0,0.1,0,0.3-0.1,0.4c-0.1,0.4-0.2,0.7-0.3,1.1c2.3,10.3-3.2,21.1-16.9,29.1l-344.2,201.7
			c-23.4,13.6-61.5,13.6-85,0L613.1,807.5c-11.8-6.8-17.7-15.7-17.7-24.6v10.2c0,9,5.9,18,17.7,24.8l426.4,246.2
			c1.4,0.8,2.9,1.6,4.4,2.3c0.5,0.2,1,0.4,1.6,0.7c0.9,0.4,1.8,0.8,2.7,1.2c0.2,0.1,0.3,0.1,0.5,0.2c0.3,0.1,0.7,0.2,1.1,0.4
			c1.2,0.4,2.4,0.9,3.7,1.2c0.4,0.1,0.8,0.3,1.3,0.4c0.3,0.1,0.6,0.2,0.8,0.3c0.5,0.1,1,0.2,1.5,0.4c1.2,0.3,2.5,0.6,3.7,0.9
			c0.3,0.1,0.7,0.2,1,0.2c0.5,0.1,1,0.2,1.5,0.3c1.1,0.2,2.1,0.4,3.2,0.6c0.4,0.1,0.8,0.2,1.3,0.2c0.5,0.1,0.9,0.1,1.4,0.2
			c1,0.1,2,0.2,3,0.3c0.5,0.1,0.9,0.1,1.4,0.2c0.4,0,0.9,0,1.3,0.1c1,0.1,2,0.1,3.1,0.2c0.5,0,1,0.1,1.5,0.1c0.4,0,0.8,0,1.2,0
			c1.1,0,2.2,0,3.3,0c0.6,0,1.1,0,1.6,0c0.3,0,0.6-0.1,1-0.1c1.4-0.1,2.7-0.2,4.1-0.3c0.5-0.1,1.1-0.1,1.6-0.1
			c0.3,0,0.5-0.1,0.8-0.1c0.4,0,0.8-0.1,1.2-0.2c1.4-0.2,2.8-0.4,4.2-0.6c0.3-0.1,0.7-0.1,1-0.2c0.2,0,0.3-0.1,0.5-0.1
			c0.7-0.1,1.3-0.3,1.9-0.4c1.1-0.2,2.2-0.4,3.3-0.7c0.8-0.2,1.6-0.4,2.4-0.6c1-0.3,2.1-0.6,3.1-0.9c0.2-0.1,0.4-0.1,0.7-0.2
			c1.2-0.4,2.4-0.8,3.7-1.3c0.2-0.1,0.3-0.1,0.5-0.2c1.3-0.5,2.6-1.1,3.8-1.6c0.4-0.2,0.7-0.3,1.1-0.5c1.4-0.7,2.8-1.4,4.1-2.1
			l344.2-201.7c0.2-0.1,0.5-0.3,0.7-0.4c1.1-0.7,2.1-1.3,3.1-2c0.2-0.1,0.3-0.2,0.5-0.3c1.1-0.8,2.1-1.6,3.1-2.5
			c0.1-0.1,0.3-0.2,0.4-0.4c0.2-0.2,0.4-0.3,0.5-0.5c0.8-0.7,1.5-1.4,2.2-2.2c0.1-0.2,0.3-0.3,0.4-0.5c0.4-0.5,0.8-0.9,1.2-1.4
			c0.3-0.4,0.5-0.7,0.8-1.1c0.1-0.1,0.2-0.3,0.3-0.4c0.5-0.7,0.9-1.4,1.3-2.1c0.1-0.2,0.2-0.5,0.4-0.7c0.1-0.2,0.2-0.3,0.2-0.5
			c0.4-0.8,0.7-1.5,1-2.3c0.1-0.2,0.1-0.4,0.2-0.6c0.1-0.1,0.1-0.3,0.1-0.4c0.3-0.8,0.5-1.6,0.6-2.4c0-0.2,0.1-0.3,0.1-0.5
			c0-0.1,0.1-0.3,0.1-0.4c0.1-0.8,0.2-1.7,0.2-2.5c0-0.2,0-0.3,0-0.5l0.1-19.6C1486.1,819.3,1486,820.4,1485.9,821.4z"/>
	</g>
	<path class="st44" d="M1301.7,644.8L1301.7,644.8L1301.7,644.8z"/>
	<path class="st44" d="M754.3,644.8L754.3,644.8L754.3,644.8z"/>
	<g>
		<path class="st45" d="M931.8,756.1c-9.1-5.3-14.1-14-14.2-24.5l0.1-623.9c0.7-5.3,3.9-9,8.7-11.2L890.7,117c-4.6,2.6-7,7-7.1,12.3
			v622c0.1,10.5,5.1,19.2,14.2,24.5l234.9,135.4c4.7,2,9,1.2,13.3-1.4l34-19.6c-4.9,3-9.9,3.3-15,0.5L931.8,756.1z"/>
		<path class="st46" d="M902.6,117.3c-3.3-1.4-6.4-1.2-9.7,0.1l-1.1,0.4l-1-2.2l1-0.6c5.8-3.4,11.6-6.8,17.4-10.2
			c3.9-2.2,7.8-4.5,11.7-6.7c1.7-0.9,5.1-3,7-3.5c4-1.1,8-0.4,11.7,1.6l233.2,134.6c9.5,5.5,14.8,14.6,14.8,25.6l-0.1,624v0.1
			c-0.6,4.4-3,8.4-6.8,10.8l-35.1,20.2l-1.3-2.1l1-0.7c3.8-2.7,5.6-6,5.7-10.7V276c0-10.1-4.8-18.4-13.5-23.4L902.6,117.3z"/>
		
			<linearGradient id="SVGID_10_" gradientUnits="userSpaceOnUse" x1="975.6422" y1="102.9198" x2="1046.6873" y2="84.2851" gradientTransform="matrix(1 0 0 1 0 416)">
			<stop  offset="0" style="stop-color:#FFFFFF"/>
			<stop  offset="0.4982" style="stop-color:#FCFDFF"/>
			<stop  offset="0.7974" style="stop-color:#F4F7FF"/>
			<stop  offset="1" style="stop-color:#E9EEFF"/>
		</linearGradient>
		<path class="st47" d="M1152.2,276.1c-0.1-10.5-5.1-19.2-14.2-24.5L903.2,116.1c-3.7-1.5-7.1-1.4-10.7,0c5.1-3,32.6-19.4,35.7-20.2
			c3.7-1,7.3-0.4,10.7,1.5L1172,231.9c9.1,5.3,14.1,14,14.2,24.5l-0.1,623.9c-0.5,4-2.8,7.7-6.1,9.8l-34,19.6
			c4.1-2.9,6.2-6.7,6.3-11.8L1152.2,276.1L1152.2,276.1z"/>
		<path class="st46" d="M905.5,115.8l233.1,134.6c9.4,5.4,14.8,14.8,14.8,25.6v622c0,5.7-2.8,10.5-7.7,13.4
			c-4.9,2.8-10.6,2.8-15.4,0L897.2,776.8c-9.4-5.4-14.8-14.8-14.8-25.6v-622c0-5.7,2.8-10.6,7.7-13.4C895,113,900.6,113,905.5,115.8
			"/>
		
			<linearGradient id="SVGID_11_" gradientUnits="userSpaceOnUse" x1="1017.0155" y1="119.451" x2="1005.9929" y2="391.7729" gradientTransform="matrix(1 0 0 1 0 416)">
			<stop  offset="0" style="stop-color:#FFFFFF"/>
			<stop  offset="0.4982" style="stop-color:#FCFDFF"/>
			<stop  offset="0.7974" style="stop-color:#F4F7FF"/>
			<stop  offset="1" style="stop-color:#E9EEFF"/>
		</linearGradient>
		<path class="st48" d="M904.9,116.9L1138,251.5c9,5.2,14.2,14.1,14.2,24.5v622c0,5.2-2.6,9.7-7.1,12.2c-4.5,2.6-9.7,2.6-14.2,0
			L897.8,775.7c-9-5.2-14.2-14.1-14.2-24.5v-622c0-5.2,2.6-9.7,7.1-12.3C895.2,114.3,900.4,114.3,904.9,116.9"/>
		<path class="st49" d="M896.9,133.4v619.4c0,5.3,2.4,9.5,7,12.1L1139,900.6v-627c0-5.3-2.4-9.5-7-12.1L903.5,129.6
			c-1.4-0.8-3-0.8-4.4,0C897.7,130.4,896.9,131.8,896.9,133.4"/>
		<path class="st50" d="M1139,896.8V273.6c0-5.3-2.4-9.5-7-12.1L907,131.7c-1.4-0.8-3-0.8-4.4,0s-2.2,2.2-2.2,3.8v615.6
			c0,5.3,2.4,9.5,7,12.1L1139,896.8z"/>
		<path class="st49" d="M1176.2,358.8l-3.4-2c-1.2-0.6-1.9-0.6-3.1,0l-2.6,1.5c-1.8,1.2-2.4,2.3-2.6,4.5v110.9
			c0.1,1.3,0.5,2,1.6,2.7l3.4,2c-1.1-0.7-1.5-1.4-1.6-2.7V364.8c0.1-2.1,0.8-3.3,2.6-4.5l2.6-1.5c1-0.5,1.7-0.5,2.7-0.2
			L1176.2,358.8z"/>
		
			<linearGradient id="SVGID_12_" gradientUnits="userSpaceOnUse" x1="1167.9701" y1="2.6" x2="1177.77" y2="2.6" gradientTransform="matrix(1 0 0 1 0 416)">
			<stop  offset="0" style="stop-color:#FFFFFF"/>
			<stop  offset="0.4982" style="stop-color:#FCFDFF"/>
			<stop  offset="0.7974" style="stop-color:#F4F7FF"/>
			<stop  offset="1" style="stop-color:#E9EEFF"/>
		</linearGradient>
		<path class="st51" d="M1173.1,358.8l-2.6,1.5c-1.6,1-2.6,2.6-2.6,4.5v110.9c0,1.1,0.6,2.1,1.6,2.7s2.1,0.6,3.1,0l2.6-1.5
			c1.6-1,2.6-2.6,2.6-4.5V361.5c0-1.1-0.6-2.1-1.6-2.7S1174.1,358.2,1173.1,358.8"/>
		<path class="st49" d="M1176.2,490.5l-3.4-2c-1.2-0.6-1.9-0.6-3.1,0l-2.6,1.5c-1.8,1.2-2.4,2.3-2.6,4.5v55.1c0.1,1.3,0.5,2,1.6,2.7
			l3.4,2c-1.1-0.7-1.5-1.4-1.6-2.7v-55.1c0.1-2.1,0.8-3.3,2.6-4.5l2.6-1.5c1-0.5,1.7-0.5,2.7-0.2L1176.2,490.5z"/>
		
			<linearGradient id="SVGID_13_" gradientUnits="userSpaceOnUse" x1="1167.9701" y1="106.4375" x2="1177.77" y2="106.4375" gradientTransform="matrix(1 0 0 1 0 416)">
			<stop  offset="0" style="stop-color:#FFFFFF"/>
			<stop  offset="0.4982" style="stop-color:#FCFDFF"/>
			<stop  offset="0.7974" style="stop-color:#F4F7FF"/>
			<stop  offset="1" style="stop-color:#E9EEFF"/>
		</linearGradient>
		<path class="st52" d="M1173.1,490.5l-2.6,1.5c-1.6,1-2.6,2.6-2.6,4.5v55.1c0,1.1,0.6,2.1,1.6,2.7c1,0.6,2.1,0.6,3.1,0l2.6-1.5
			c1.6-1,2.6-2.6,2.6-4.5v-55.1c0-1.1-0.6-2.1-1.6-2.7C1175.2,490,1174.1,490,1173.1,490.5"/>
		<path class="st53" d="M905.6,164.3l-5.2,3.9v156.1c4.6,3.3,9.5,4.1,13.4,1.1c3.1-2.4,5-7,5-13.3c0-18.4,0-4.7,0-23.1l0,0v23
			c0,20.1,18.1,41.1,28.8,32.8c3.1-2.4,5-7,5-13.3c0-18.4,0-4.7,0-23.1l0,0v23.1c0,20.1,18.1,41.1,28.8,32.8c3.1-2.4,5-7,5-13.3
			c0-18.4,0-4.7,0-23.1l0,0V351c0,20.1,18.1,41.1,28.8,32.8c3.1-2.4,5-7,5-13.3c0-18.4,0-4.7,0-23.1l0,0v23.1
			c0,20.1,18.1,41.1,28.8,32.8c6.5-5,5-18.1,5-27.8l85-50.2v-42.6l-227.2-131l-6.2,4.4l0,0V164.3L905.6,164.3z"/>
		<path class="st54" d="M809.6,207.6c0,18.3,0,4.7,0,23c0,6.3,1.9,13.1,4.9,19s7.2,10.9,11.9,13.5s8.8,2.5,11.9,0.2
			c3-2.4,4.9-7,4.9-13.3c0-18.3,0-4.7,0-23C832,220.5,820.8,214.1,809.6,207.6"/>
		<path class="st50" d="M843.3,227c0,18.3,0,4.7,0,23c0,6.3,1.9,13.1,4.9,19s7.2,10.9,11.9,13.5c4.6,2.7,8.8,2.5,11.9,0.2
			c3-2.4,4.9-7,4.9-13.3c0-18.3,0-4.7,0-23C865.7,239.9,854.5,233.5,843.3,227"/>
		<path class="st54" d="M876.9,246.4c0,18.3,0,4.7,0,23c0,6.3,1.9,13.1,4.9,19s7.2,10.9,11.9,13.5c4.6,2.7,8.8,2.5,11.9,0.2
			c3-2.4,4.9-7,4.9-13.3c0-18.3,0-4.7,0-23C899.3,259.4,888.1,252.9,876.9,246.4"/>
		<path class="st50" d="M910.5,265.8c0,18.3,0,4.7,0,23c0,6.3,1.9,13.1,4.9,19s7.2,10.9,11.9,13.5c4.6,2.7,8.8,2.5,11.9,0.2
			c3-2.4,4.9-7,4.9-13.3c0-18.3,0-4.7,0-23C932.9,278.8,921.7,272.3,910.5,265.8"/>
		<path class="st54" d="M944.2,285.2c0,18.3,0,4.7,0,23c0,6.3,1.9,13.1,4.9,19s7.2,10.9,11.9,13.5s8.8,2.5,11.9,0.2
			c3-2.4,4.9-7,4.9-13.3c0-18.3,0-4.7,0-23C966.6,298.2,955.3,291.7,944.2,285.2"/>
		<path class="st50" d="M977.8,304.7c0,18.3,0,4.7,0,23c0,6.3,1.9,13.1,4.9,19s7.2,10.9,11.9,13.5c4.6,2.7,8.8,2.5,11.9,0.2
			s4.9-7,4.9-13.3c0-18.3,0-4.7,0-23C1000.2,317.6,989,311.1,977.8,304.7"/>
		<path class="st54" d="M1011.4,324.1c0,18.3,0,4.7,0,23c0,6.3,1.9,13.1,4.9,19s7.2,10.9,11.9,13.5c4.6,2.7,8.8,2.5,11.9,0.2
			c3.1-2.4,4.9-7,4.9-13.3c0-18.3,0-4.7,0-23C1033.8,337,1022.6,330.6,1011.4,324.1"/>
		<polygon class="st55" points="897.4,141.8 809.6,207.6 843.3,227 931,161.2 		"/>
		<path class="st56" d="M931,161.2c-29.3,21.9-58.5,43.9-87.8,65.8c11.2,6.5,22.4,12.9,33.6,19.4c29.3-21.9,58.5-43.9,87.8-65.8
			C953.5,174.1,942.2,167.7,931,161.2"/>
		<path class="st55" d="M964.7,180.6c-29.3,21.9-58.5,43.9-87.8,65.8c11.2,6.5,22.4,12.9,33.6,19.4c29.3-21.9,58.5-43.9,87.8-65.8
			C987.1,193.6,975.9,187.1,964.7,180.6"/>
		<path class="st56" d="M998.3,200c-29.3,21.9-58.5,43.9-87.8,65.8c11.2,6.5,22.4,12.9,33.6,19.4c29.3-21.9,58.5-43.9,87.8-65.8
			C1020.7,213,1009.5,206.5,998.3,200"/>
		<path class="st55" d="M1031.9,219.4c-29.3,21.9-58.5,43.9-87.8,65.8c11.2,6.5,22.4,12.9,33.6,19.4c29.3-21.9,58.5-43.9,87.8-65.8
			C1054.3,232.4,1043.1,225.9,1031.9,219.4"/>
		<path class="st56" d="M1065.6,238.9c-29.3,21.9-58.5,43.9-87.8,65.8c11.2,6.5,22.4,12.9,33.6,19.4c29.3-21.9,58.5-43.9,87.8-65.8
			C1088,251.8,1076.8,245.3,1065.6,238.9"/>
		<polygon class="st55" points="1099.2,258.3 1011.4,324.1 1045,343.5 1132.8,277.7 		"/>
		<polygon class="st57" points="1045,352.1 1045,343.5 1138.8,273.1 1138.8,296.7 		"/>
		<polygon class="st58" points="903.5,129.2 903.5,139 1138.8,273.1 1139,265.1 		"/>
		<polygon class="st50" points="1132.8,269.4 1139,265 1138.8,273.1 1132.8,277.7 		"/>
		<polygon class="st50" points="903.5,129.2 1139,265.1 1132.8,269.4 897.4,133.5 		"/>
		<polygon class="st50" points="897.4,133.5 897.4,141.8 1132.8,277.7 1132.8,269.4 		"/>
		<path class="st59" d="M921.9,488.5c1.7-1,8-4.9,9.4-5.2c3-0.6,6.8,2.2,9.8,3.9l56.5,32.6c4.6,2.6,7.6,6.5,9.2,11.6
			c1.1,3.6,0.7,9.3,0.7,13.4v61.8c0,2.6-0.1,5.3-2.6,6.9l-8.1,4.7c3.3-2.2,2.5-6.1,2.5-10.2l0.1-66.4c0-5.3-3.4-11.8-5.5-13.7
			c-2.8-2.5-7.7-5.3-11.2-7.3l-53.6-30.9C926.7,488.2,924.7,487.2,921.9,488.5"/>
		<path class="st60" d="M928.2,489.1c10.4,6,20.8,12,31.2,18c10.4,6,20.8,12,31.2,18c4.9,2.8,8.9,9.8,8.9,15.4c0,12,0,24,0,36
			s0,24,0,36c0,5.7-4,8-8.9,5.1c-10.4-6-20.8-12-31.2-18s-20.8-12-31.2-18c-4.9-2.8-8.9-9.8-8.9-15.4c0-12,0-24,0-36s0-24,0-36
			C919.3,488.6,923.3,486.2,928.2,489.1"/>
		<path class="st61" d="M939.7,514.8c7.1,5.2,10.6,17.7,14.3,29.3s7.5,22.4,15.2,24.2c9.3,6.6,18,23.4,15.9,27.1
			c-3.8-2.2-7.7-4.4-11.5-6.6s-7.7-4.4-11.5-6.6c-3.4-3.8-6.5-13.9-9.7-23.4s-6.4-18.4-10.2-19.5c-0.3,5.1-0.6,10.2-0.8,15.2
			s-0.6,10.2-0.8,15.2c-1.1-0.6-2.1-1.2-3.2-1.8c-0.3-5.4-0.5-10.8-0.8-16.2s-0.5-10.8-0.8-16.2
			C930.5,523.7,934.7,515.1,939.7,514.8"/>
		<path class="st59" d="M1024.8,548.2c1.7-1,8-4.9,9.4-5.2c3-0.6,6.8,2.2,9.8,3.9l56.5,32.6c4.6,2.6,7.6,6.5,9.2,11.6
			c1.1,3.6,0.7,9.3,0.7,13.4v61.9c0,2.6-0.1,5.3-2.6,6.9l-8.1,4.7c3.3-2.2,2.5-6.1,2.5-10.2l0.1-66.4c0-5.3-3.4-11.8-5.5-13.8
			c-2.8-2.5-7.7-5.3-11.2-7.3l-53.6-31C1029.6,548,1027.6,546.9,1024.8,548.2"/>
		<path class="st60" d="M1031.1,548.7c10.4,6,20.8,12,31.2,18c10.4,6,20.8,12,31.2,18c4.9,2.8,8.9,9.8,8.9,15.5c0,12,0,24,0,36
			s0,24,0,36c0,5.7-4,8-8.9,5.1c-10.4-6-20.8-12-31.2-18s-20.8-12-31.2-18c-4.9-2.8-8.9-9.8-8.9-15.4c0-12,0-24,0-36s0-24,0-36
			C1022.2,548.2,1026.2,545.9,1031.1,548.7"/>
		<path class="st61" d="M1041.2,576.5c7,4.1,14,8.1,21.1,12.2c7,4,14,8.1,21.1,12.2c1,8.7,2.1,17.5,3.1,26.2s2.1,17.5,3.1,26.2
			c-3.7-2.1-7.3-4.2-11-6.3s-7.3-4.2-11-6.3c-0.6-2.8-1.3-5.6-1.9-8.4c-1.2-5-2.3-10-3.4-15.1c-1.1,3.7-2.3,7.4-3.4,11.1
			c-0.6,2.1-1.3,4.1-1.9,6.2c-3.7-2.1-7.3-4.2-11-6.3s-7.3-4.2-11-6.3c1-7.5,2.1-15.1,3.1-22.6
			C1039.1,591.6,1040.2,584,1041.2,576.5"/>
		<path class="st59" d="M921.9,352.9c1.7-1,8-4.9,9.4-5.2c3-0.6,6.8,2.2,9.8,3.9l56.5,32.6c4.6,2.6,7.6,6.5,9.2,11.6
			c1.1,3.6,0.7,9.3,0.7,13.4v61.9c0,2.6-0.1,5.3-2.6,6.9l-8.1,4.7c3.3-2.2,2.5-6.1,2.5-10.2l0.1-66.4c0-5.3-3.4-11.8-5.5-13.8
			c-2.8-2.5-7.7-5.3-11.2-7.3l-53.5-31C926.7,352.6,924.7,351.5,921.9,352.9"/>
		<path class="st60" d="M928.2,353.5c10.4,6,20.8,12,31.2,18s20.8,12,31.2,18c4.9,2.8,8.9,9.8,8.9,15.4c0,12,0,24,0,36s0,24,0,36
			c0,5.6-4,8-8.9,5.1c-10.4-6-20.8-12-31.2-18s-20.8-12-31.2-18c-4.9-2.8-8.9-9.8-8.9-15.4c0-12,0-24,0-36s0-24,0-36
			C919.3,353,923.3,350.6,928.2,353.5"/>
		<path class="st61" d="M959.2,396.8c-2.3-4.4-4.6-8.9-6.9-13.3c-2.2-0.5-4.4-0.9-6.6-1.4c1.9,3.1,3,7.4,3,10s-0.4,3.6-1.2,4.8
			c1,4,2,8.1,3,12.1c-2,4.5-3.9,9-5.9,13.6c-2,4.5-3.9,9-5.9,13.5c6.8,4,13.7,7.9,20.5,11.9s13.7,7.9,20.6,11.9
			c-2-6.8-3.9-13.6-5.9-20.3c-2-6.8-3.9-13.6-5.9-20.3c1-2.9,2-5.7,3-8.6c-0.8-2.1-1.2-3.6-1.2-6.2s1.2-5.5,3-6.5
			c-2.3-2.1-4.6-4.3-6.9-6.4C963.8,393.2,961.5,395,959.2,396.8"/>
		<path class="st60" d="M949.5,411.5c6.6,3.8,13.2,7.6,19.8,11.5c-0.4-1.3-0.7-2.6-1.1-3.9c0.2-0.5,0.3-0.9,0.5-1.4
			c-6.2-3.6-12.4-7.2-18.6-10.8c0.2,0.7,0.3,1.3,0.5,2C950.2,409.8,949.8,410.7,949.5,411.5"/>
		<path class="st62" d="M1024.8,686.5c1.7-1,8-4.9,9.4-5.2c3-0.6,6.8,2.2,9.8,3.9l56.5,32.6c4.6,2.6,7.6,6.5,9.2,11.6
			c1.1,3.6,0.7,9.3,0.7,13.4v61.9c0,2.6-0.1,5.3-2.6,6.9l-8.1,4.7c3.3-2.2,2.5-6.1,2.5-10.2l0.1-66.4c0-5.3-3.4-11.8-5.5-13.7
			c-2.8-2.5-7.7-5.3-11.2-7.3l-53.6-30.9C1029.6,686.3,1027.6,685.2,1024.8,686.5"/>
		<path class="st60" d="M1031.1,687.1c10.4,6,20.8,12,31.2,18c10.4,6,20.8,12,31.2,18c4.9,2.8,8.9,9.8,8.9,15.4c0,12,0,24,0,36
			s0,24,0,36c0,5.7-4,8-8.9,5.1c-10.4-6-20.8-12-31.2-18s-20.8-12-31.2-18c-4.9-2.8-8.9-9.8-8.9-15.4c0-12,0-24,0-36s0-24,0-36
			C1022.2,686.6,1026.2,684.3,1031.1,687.1"/>
		<path class="st63" d="M1082,734.6c-4.5,7.3-8.9,14.6-13.4,21.9c-4.5,7.3-8.9,14.6-13.4,21.9c-2.1-1.2-4.3-2.5-6.4-3.7
			c4.5-7.3,8.9-14.6,13.4-21.9c4.5-7.3,8.9-14.6,13.4-21.9C1077.7,732.1,1079.8,733.3,1082,734.6 M1091.8,781.7
			c0,6.2-0.9,10.3-2.7,12.4c-1.8,2.1-4.5,2.1-8,0c-3.3-1.9-5.9-5-7.8-9.3c-1.8-4.3-2.8-9.4-2.8-15.4c0-6.2,0.9-10.3,2.6-12.4
			c1.8-2.1,4.4-2.1,7.9-0.1c3.4,2,6,5.1,7.9,9.3C1090.8,770.5,1091.8,775.7,1091.8,781.7z M1076.9,773.1c0,4,0.3,7.2,1,9.6
			c0.7,2.4,1.7,4,3.2,4.8c2.9,1.7,4.3-1.5,4.3-9.5c0-7.9-1.4-12.7-4.3-14.4c-1.4-0.8-2.5-0.5-3.2,1.1
			C1077.3,766.2,1076.9,769,1076.9,773.1z M1060.4,739.8c0,6.2-0.9,10.3-2.7,12.4c-1.8,2.1-4.5,2.1-8,0c-3.3-1.9-5.9-5-7.8-9.3
			c-1.8-4.3-2.8-9.4-2.8-15.4c0-6.2,0.9-10.3,2.6-12.3c1.8-2.1,4.4-2.1,7.9-0.1s6.1,5.1,8,9.4
			C1059.4,728.7,1060.4,733.8,1060.4,739.8z M1045.5,731.3c0,4,0.3,7.2,0.9,9.5s1.7,3.9,3.1,4.8c2.9,1.7,4.3-1.5,4.4-9.4
			s-1.4-12.8-4.3-14.5c-1.4-0.8-2.5-0.5-3.1,1.1C1045.8,724.5,1045.5,727.3,1045.5,731.3z"/>
		<path class="st64" d="M1078.8,731.4c-4.5,7.3-8.9,14.6-13.4,21.9c-4.5,7.3-8.9,14.6-13.4,21.9c-2.1-1.2-4.3-2.5-6.4-3.7
			c4.5-7.3,8.9-14.6,13.4-21.9s8.9-14.6,13.4-21.9C1074.5,728.9,1076.7,730.2,1078.8,731.4 M1088.6,778.5c0,6.2-0.9,10.3-2.7,12.4
			c-1.8,2.1-4.5,2.1-8,0c-3.3-1.9-5.9-5-7.8-9.3c-1.8-4.3-2.8-9.4-2.8-15.4c0-6.2,0.9-10.3,2.6-12.4c1.8-2.1,4.4-2.1,7.9,0
			c3.4,2,6,5.1,7.9,9.3C1087.7,767.4,1088.6,772.5,1088.6,778.5z M1073.8,769.9c0,4,0.3,7.2,1,9.6c0.7,2.4,1.7,4,3.2,4.8
			c2.9,1.7,4.3-1.5,4.3-9.5c0-7.9-1.4-12.7-4.3-14.4c-1.4-0.8-2.5-0.5-3.2,1.1C1074.1,763.1,1073.8,765.9,1073.8,769.9z
			 M1057.2,736.6c0,6.2-0.9,10.3-2.7,12.4c-1.8,2.1-4.5,2.1-8,0c-3.3-1.9-5.9-5-7.8-9.3s-2.8-9.4-2.8-15.4c0-6.2,0.9-10.3,2.6-12.3
			c1.8-2.1,4.4-2.1,7.9-0.1s6.1,5.1,8,9.4C1056.3,725.6,1057.2,730.7,1057.2,736.6z M1042.3,728.1c0,4,0.3,7.2,0.9,9.5
			s1.7,3.9,3.1,4.8c2.9,1.7,4.3-1.5,4.4-9.4s-1.4-12.8-4.3-14.5c-1.4-0.8-2.5-0.5-3.1,1.1C1042.7,721.3,1042.4,724.1,1042.3,728.1z"
			/>
		<path class="st59" d="M1024.8,412.6c1.7-1,8-4.9,9.4-5.2c3-0.6,6.8,2.2,9.8,3.9l56.5,32.6c4.6,2.6,7.6,6.5,9.2,11.6
			c1.1,3.6,0.7,9.3,0.7,13.4v61.8c0,2.6-0.1,5.3-2.6,6.9l-8.1,4.7c3.3-2.2,2.5-6.1,2.5-10.2l0.1-66.4c0-5.3-3.4-11.8-5.5-13.7
			c-2.8-2.5-7.7-5.3-11.2-7.3l-53.6-30.9C1029.6,412.4,1027.6,411.3,1024.8,412.6"/>
		<path class="st60" d="M1031.1,413.2c10.4,6,20.8,12,31.2,18c10.4,6,20.8,12,31.2,18c4.9,2.8,8.9,9.8,8.9,15.4c0,12,0,24,0,36
			c0,12,0,24,0,36c0,5.7-4,8-8.9,5.1c-10.4-6-20.8-12-31.2-18c-10.4-6-20.8-12-31.2-18c-4.9-2.8-8.9-9.8-8.9-15.4c0-12,0-24,0-36
			s0-24,0-36C1022.2,412.7,1026.2,410.4,1031.1,413.2"/>
		<path class="st61" d="M1054.7,442.1c-2.8-0.7-5.6-1.4-8.4-2.1c-4.2,2.2-8.5,4.4-12.7,6.6c2.1,5.2,4.2,10.4,6.3,15.5
			c2.1-0.9,4.2-1.7,6.3-2.6c0,6.6,0,13.3,0,19.9s0,13.2,0,19.9c5.3,3.1,10.7,6.2,16,9.3c5.3,3.1,10.7,6.2,16,9.3
			c0-6.6,0-13.2,0-19.9c0-6.6,0-13.2,0-19.9c2.1,3.3,4.2,6.6,6.3,9.9c2.1-2.7,4.2-5.5,6.3-8.2c-4.2-7.1-8.5-14.2-12.7-21.3
			c-2.8-2.5-5.6-5.1-8.4-7.6c-0.8,3.5-3.9,4.8-7.6,2.6C1058.6,451.4,1055.4,446.6,1054.7,442.1"/>
	</g>
</g>
<g class="st65">
	<path class="st66" d="M1577.1,1042.8c7.1-4.1,12.9-0.8,13,7.4l0.2,78.8c0,8.2-5.8,18.2-12.9,22.3l-236.1,136.3
		c-7.2,4.1-12.9,0.8-13-7.4l-0.2-78.8c0-8.2,5.7-18.2,12.9-22.3L1577.1,1042.8z"/>
	<path class="st67" d="M1610.8,1062.3c7.1-4.1,12.9-0.8,13,7.4l0.2,78.8c0,8.2-5.8,18.2-12.9,22.3L1375,1307.1
		c-7.2,4.1-12.9,0.8-13-7.4l-0.2-78.8c0-8.2,5.7-18.2,12.9-22.3L1610.8,1062.3z"/>
	<g class="st6">
		<path class="st68" d="M1644.4,1081.9c7.1-4.1,12.9-0.8,13,7.4l0.2,78.8c0,8.2-5.8,18.2-12.9,22.3l-236.1,136.3
			c-7.2,4.1-12.9,0.8-13-7.4l-0.2-78.8c0-8.2,5.7-18.2,12.9-22.3L1644.4,1081.9z"/>
	</g>
	<g>
		<g>
			<path class="st8" d="M1443,1212.9c18.1-10.4,32.8-2.1,32.8,18.7c0.1,20.8-14.6,46.1-32.6,56.5c-18.1,10.4-32.8,2.1-32.8-18.7
				C1410.3,1248.7,1424.9,1223.4,1443,1212.9z"/>
		</g>
		<g>
			<path class="st8" d="M1581,1186.9c3.8-2.2,7-0.4,7,4s-3.1,9.8-6.9,12l-87.1,50.3c-3.8,2.2-7,0.4-7-4s3.1-9.8,6.9-12L1581,1186.9z
				"/>
		</g>
		<g>
			<polygon class="st8" points="1498.2,1188.1 1501.8,1194.3 1509.7,1191 1504,1200.7 1505.3,1209 1498.3,1208.8 1491.2,1217.1 
				1492.6,1207.3 1486.8,1204.2 1494.7,1198.3 			"/>
		</g>
		<g>
			<polygon class="st8" points="1530.6,1169.4 1534.1,1175.6 1542,1172.3 1536.3,1182 1537.7,1190.3 1530.6,1190.1 1523.6,1198.4 
				1524.9,1188.6 1519.2,1185.5 1527.1,1179.7 			"/>
		</g>
		<g>
			<polygon class="st8" points="1562.9,1150.7 1566.5,1156.9 1574.4,1153.7 1568.7,1163.3 1570.1,1171.6 1563,1171.4 1556,1179.7 
				1557.3,1169.9 1551.6,1166.8 1559.4,1161 			"/>
		</g>
		<g>
			<polygon class="st8" points="1595.3,1132.1 1598.8,1138.2 1606.7,1135 1601.1,1144.7 1602.4,1152.9 1595.4,1152.7 1588.3,1161 
				1589.7,1151.2 1583.9,1148.2 1591.8,1142.3 			"/>
		</g>
		<g>
			<polygon class="st8" points="1627.7,1113.4 1631.2,1119.5 1639.1,1116.3 1633.4,1126 1634.8,1134.2 1627.7,1134 1620.7,1142.3 
				1622,1132.6 1616.3,1129.5 1624.2,1123.6 			"/>
		</g>
	</g>
	<path class="st66" d="M1577.1,886.8c7.1-4.1,12.9-0.8,13,7.4l0.2,78.8c0,8.2-5.8,18.2-12.9,22.3l-236.1,136.3
		c-7.2,4.1-12.9,0.8-13-7.4l-0.2-78.8c0-8.2,5.7-18.2,12.9-22.3L1577.1,886.8z"/>
	<path class="st67" d="M1610.8,906.4c7.1-4.1,12.9-0.8,13,7.4l0.2,78.8c0,8.2-5.8,18.2-12.9,22.3L1375,1151.2
		c-7.2,4.1-12.9,0.8-13-7.4l-0.2-78.8c0-8.2,5.7-18.2,12.9-22.3L1610.8,906.4z"/>
	<path class="st69" d="M1644.4,925.9c7.1-4.1,12.9-0.8,13,7.4l0.2,78.8c0,8.2-5.8,18.2-12.9,22.3l-236.1,136.3
		c-7.2,4.1-12.9,0.8-13-7.4l-0.2-78.8c0-8.2,5.7-18.2,12.9-22.3L1644.4,925.9z"/>
	<g>
		<g>
			<path class="st8" d="M1443,1057c18.1-10.4,32.8-2,32.8,18.7c0.1,20.8-14.6,46.1-32.6,56.5c-18.1,10.4-32.8,2.1-32.8-18.7
				C1410.3,1092.7,1424.9,1067.4,1443,1057z"/>
		</g>
		<g>
			<polygon class="st8" points="1498.2,1032.2 1501.8,1038.3 1509.7,1035.1 1504,1044.8 1505.3,1053 1498.3,1052.8 1491.2,1061.2 
				1492.6,1051.4 1486.8,1048.3 1494.7,1042.4 			"/>
		</g>
		<g>
			<polygon class="st8" points="1530.6,1013.5 1534.1,1019.7 1542,1016.4 1536.3,1026.1 1537.7,1034.3 1530.6,1034.1 1523.6,1042.5 
				1524.9,1032.7 1519.2,1029.6 1527.1,1023.7 			"/>
		</g>
		<g>
			<polygon class="st8" points="1562.9,994.8 1566.5,1001 1574.4,997.7 1568.7,1007.4 1570.1,1015.6 1563,1015.5 1556,1023.8 
				1557.3,1014 1551.6,1010.9 1559.4,1005 			"/>
		</g>
		<g>
			<polygon class="st8" points="1595.3,976.1 1598.8,982.3 1606.7,979 1601.1,988.7 1602.4,997 1595.4,996.8 1588.3,1005.1 
				1589.7,995.3 1583.9,992.2 1591.8,986.3 			"/>
		</g>
		<g>
			<polygon class="st8" points="1627.7,957.4 1631.2,963.6 1639.1,960.4 1633.4,970 1634.8,978.3 1627.7,978.1 1620.7,986.4 
				1622,976.6 1616.3,973.5 1624.2,967.7 			"/>
		</g>
		<g>
			<path class="st8" d="M1614,1012c3.8-2.2,7-0.4,7,4s-3.1,9.8-6.9,12l-120.1,69.3c-3.8,2.2-7,0.4-7-4s3.1-9.8,6.9-12L1614,1012z"/>
		</g>
	</g>
</g>
</svg>
