<svg width="150" height="56" viewBox="0 0 150 56" fill="none" xmlns="http://www.w3.org/2000/svg">
<path d="M122.348 54.4877C120.582 54.4877 118.881 54.4877 117.147 54.4877C117.147 45.9545 117.147 38.1325 117.147 29.5401C118.752 29.5401 120.357 29.5401 122.059 29.5401C122.059 31.0215 122.059 33.9844 122.059 33.9844C122.091 33.9252 122.316 33.6289 122.476 33.3919C124.467 30.1919 129.346 29.1845 133.199 29.4512C133.199 29.4512 133.199 32.4734 133.199 33.5993C131.754 33.5993 130.727 33.6881 129.411 33.8659C125.847 34.3992 123.76 37.9251 122.958 40.5324C122.444 42.1917 122.412 43.0213 122.348 44.7694C122.251 47.9397 122.316 50.4581 122.316 53.5988C122.348 53.8951 122.348 54.1618 122.348 54.4877Z" fill="#FB9733"/>
<path d="M108.479 42.5769C105.847 42.6361 101.481 42.4583 98.5914 44.3842C97.243 45.3324 96.7293 46.8731 96.9541 48.3841C97.1788 49.8952 98.2382 50.5174 99.7471 50.9915C102.733 51.8804 105.526 51.5544 108.511 50.9915C108.479 48.0582 108.479 45.4509 108.479 42.5769ZM108.511 39.0806C108.511 38.1029 108.608 37.4214 108.511 36.5325C108.223 34.2511 106.649 33.0956 104.081 32.8882C100.646 32.6808 97.0825 33.6289 94.5463 34.9622C94.5463 33.6585 94.5463 30.8438 94.5463 30.8438C96.1194 29.6883 103.086 28.4142 107.58 29.4512C111.112 30.2808 113.038 32.4141 113.423 35.7918C113.488 36.4733 113.52 36.9474 113.52 37.6584C113.52 42.9028 113.52 47.7619 113.52 52.9766C113.52 54.221 111.754 54.6951 111.24 54.784C105.751 55.4655 98.6556 56.7691 94.5784 53.3914C91.1112 51.11 90.9186 45.8953 94.0647 42.9324C96.2157 41.0065 100.164 39.0806 108.511 39.0806Z" fill="#FB9733"/>
<path d="M149.315 29.4216C149.315 30.8141 149.315 32.0882 149.315 33.4807C146.682 33.4807 144.082 33.4807 141.417 33.4807C141.417 33.8363 141.417 34.1622 141.417 34.4289C141.417 38.3399 141.417 42.2213 141.417 46.1027C141.417 46.8434 141.482 47.5545 141.514 48.2952C141.674 49.8952 142.573 50.9915 144.371 51.1989C145.88 51.347 149.636 51.0507 149.925 50.9915C149.925 50.9915 149.925 51.4063 149.925 51.5544C149.925 52.5914 149.925 53.6877 149.925 54.8432C146.618 55.5247 143.344 55.8802 140.197 54.6358C137.661 53.6581 136.505 51.7618 136.313 49.3322C136.249 48.1471 136.152 46.9323 136.152 45.7471C136.152 38.9325 136.152 32.2659 136.152 25.4513C136.152 24.8883 136.313 24.5624 136.891 24.2661C138.303 23.4661 139.812 22.6662 141.449 21.7773C141.449 24.4439 141.449 26.8735 141.449 29.4808C141.482 29.4808 148.705 29.4512 149.315 29.4216Z" fill="#FB9733"/>
<path d="M89.6657 34.7251C87.7074 33.7474 85.7491 33.0659 83.7265 33.0659C78.911 33.1844 75.5401 35.9696 74.9622 40.4435C74.6733 42.6361 74.8659 44.799 75.9253 46.8434C77.3379 49.5396 79.7457 50.9618 82.8919 51.1989C85.2033 51.4063 87.0974 51.0507 89.12 50.0433C89.2484 49.9841 89.3447 49.9248 89.6336 49.8063C89.6336 51.11 89.6336 52.6507 89.6336 53.8358C89.6336 53.8358 89.5373 53.9247 89.1842 54.1025C81.1582 58.1617 71.0777 53.3618 69.7935 45.036C69.3441 42.0139 69.5046 39.051 70.8529 36.2362C73.036 31.5548 77.98 28.7401 83.5018 28.9475C85.3959 29.0067 87.8679 29.7178 89.6657 30.5178C89.6657 30.4882 89.6657 33.4807 89.6657 34.7251Z" fill="#FB9733"/>
<path d="M60.6443 23.0217C59.8738 22.2514 59.4243 21.2143 59.4243 19.8514C59.4243 18.4885 59.938 17.3626 60.9974 16.4144C62.0568 15.4663 63.4052 15.0515 64.9783 15.0515C66.3908 15.0515 67.5466 15.4071 68.4455 16.0885C69.3444 16.77 69.7938 17.807 69.7938 19.0514C69.7938 20.6218 69.2802 21.8662 68.285 22.7551C67.2897 23.7032 65.9414 24.118 64.3041 24.118C62.6989 24.1772 61.479 23.7624 60.6443 23.0217Z" fill="#FB9733"/>
<path d="M64.2718 27.7031C62.474 27.7031 61.1898 27.9105 60.3873 28.4438C59.6168 28.9179 59.392 29.8067 59.0389 31.0512C58.5573 32.8882 58.0758 35.5251 57.6584 38.3399C56.7916 38.7547 55.7643 39.1399 54.4159 39.3176C54.3838 39.051 54.3838 38.7843 54.3517 38.488C54.0307 35.5251 52.9392 33.0363 51.1092 30.9919C49.3114 28.9771 46.9679 27.8809 44.0464 27.6735C47.1926 24.0884 49.3756 20.7107 50.724 17.4218C52.0724 14.1923 52.4576 11.9108 52.4576 8.5924C52.4576 6.04431 51.8476 4.02954 50.6598 2.39995C49.4399 0.829611 47.8668 0 45.8442 0C42.1523 0 39.0061 2.13329 36.3736 6.39986C33.7411 10.6664 31.9433 14.8737 30.5949 20.9181C29.1824 26.992 28.5082 32.6215 28.5082 37.7769C28.5082 41.3324 28.8934 44.3546 29.5997 46.9027C28.3156 48.5915 26.8709 49.9545 25.2336 49.6582C24.2384 49.51 23.5963 48.0582 23.5963 47.436C23.5963 45.6286 24.11 42.4583 25.1052 37.8066C25.7151 34.6363 26.0683 32.6215 26.0683 31.7623C26.0683 30.3697 24.7199 30.1919 22.6011 30.1919C21.6059 30.1919 20.1933 27.3772 17.2718 27.5549C14.2862 27.7031 11.429 28.3846 8.79644 30.1623C6.09972 31.94 4.01298 34.2215 2.40778 37.0658C0.770491 39.9399 0 42.9324 0 46.1619C0 49.1248 0.770491 51.4655 2.40778 53.2729C3.98087 55.0506 6.09972 55.9691 8.92486 55.9691C12.2958 55.9691 15.153 54.3099 17.4003 50.9322C18.0102 52.5025 18.9091 53.747 20.097 54.6358C21.2848 55.5247 22.6332 56.0284 24.0136 55.9988C27.3845 55.8506 30.0171 54.1914 31.8791 51.7914C33.8695 54.4877 36.9194 55.8506 41.0287 55.8506C43.9501 55.8506 46.5826 54.8136 48.9904 52.7692C51.1735 50.9322 52.6823 48.4434 53.5812 45.5397C54.737 45.5694 55.8285 45.4212 56.7916 45.1546C56.3422 49.0656 56.0532 52.2359 56.0532 52.5025C56.0532 53.5988 56.278 54.4284 56.7916 54.9321C57.3053 55.4654 58.2363 55.7025 59.7131 55.7617C61.2219 55.7617 62.4098 55.4951 63.1482 54.9914C63.8866 54.4877 64.2718 53.5988 64.3681 52.2951C64.7534 46.4582 65.5881 40.088 67.0006 30.9623C67.0648 30.3993 67.0969 30.0142 67.0969 29.8067C67.0969 28.3846 66.1338 27.7031 64.2718 27.7031ZM15.7309 44.1472C15.3456 45.8657 14.6714 47.2582 13.8367 48.2952C13.002 49.3322 12.1031 49.8656 11.14 49.8063C10.1769 49.8063 9.47062 49.5396 8.89275 48.9174C8.37909 48.3545 8.12226 47.4064 8.12226 46.1619C8.12226 43.8805 8.57171 41.8065 9.47062 39.7621C10.3695 37.7769 11.5895 36.177 13.1305 34.9326C14.7035 33.7474 16.3729 33.1252 18.1708 33.0659L15.7309 44.1472ZM38.4282 18.6663C39.2629 14.5478 41.7991 5.92579 44.4317 6.04431C44.9774 6.04431 46.4542 7.49613 46.4542 10.1924C46.4542 13.8367 45.6837 15.2293 43.918 18.9329C42.2486 22.6365 39.4235 26.4587 36.6304 31.3178C37.0157 26.4587 37.5293 22.7847 38.4282 18.6663ZM44.8811 47.9989C43.8217 49.036 42.6339 49.5693 41.2855 49.5693C40.0655 49.5693 38.9419 48.9471 38.043 47.7619C37.0799 46.5767 36.6304 44.799 36.6304 42.5176C36.6304 39.8213 37.2404 37.6288 38.4282 36.0288C38.4925 35.9696 38.5246 35.9103 38.5888 35.8214C38.7493 35.5548 39.0382 35.2585 39.3593 34.9918L39.4235 34.9326C39.5198 34.8733 39.584 34.7844 39.7124 34.7252C39.8087 34.6066 39.9371 34.577 40.0334 34.4585C41.1571 33.6881 42.666 33.0067 44.0785 32.9771C43.4043 36.9177 45.0416 40.3843 47.1926 42.6065C47.0963 43.0805 46.9679 43.5546 46.8394 44.0879C46.4542 45.7471 45.78 47.0508 44.8811 47.9989Z" fill="#FB9733"/>
</svg>
