<?xml version="1.0" encoding="utf-8"?>
<!-- Generator: Adobe Illustrator 25.0.0, SVG Export Plug-In . SVG Version: 6.00 Build 0)  -->
<svg version="1.1" id="Layer_1" xmlns="http://www.w3.org/2000/svg" xmlns:xlink="http://www.w3.org/1999/xlink" x="0px" y="0px"
	 viewBox="0 0 1440.41 1024" style="enable-background:new 0 0 1440.41 1024;" xml:space="preserve">
<style type="text/css">
	.st0{fill:#FFFFFF;}
	.st1{opacity:0.24;fill:#69A1DA;}
	.st2{opacity:0.24;fill:#6AD8B9;}
	.st3{fill:#EAEAEA;}
	.st4{font-family:'FontAwesome5Pro-Regular';}
	.st5{font-size:24px;}
	.st6{fill:#4D4D4D;}
	.st7{font-family:'ProximaNova-Medium';}
	.st8{font-size:14px;}
	.st9{font-family:'ProximaNova-Regular';}
	.st10{font-size:20px;}
	.st11{fill:none;stroke:#E0E0E0;stroke-miterlimit:10;}
	.st12{fill:none;stroke:#69A1DA;stroke-width:4;stroke-linecap:round;stroke-linejoin:round;stroke-miterlimit:10;}
	.st13{fill:none;stroke:#6AD8B9;stroke-width:4;stroke-linecap:round;stroke-linejoin:round;stroke-miterlimit:10;}
	.st14{fill-rule:evenodd;clip-rule:evenodd;fill:#69A1DA;}
	.st15{fill-rule:evenodd;clip-rule:evenodd;fill:#6AD8B9;}
	.st16{fill:none;stroke:#EFEFEF;stroke-miterlimit:10;}
	.st17{fill:none;stroke:#69A1DA;stroke-linecap:round;stroke-linejoin:round;stroke-miterlimit:10;}
	.st18{fill:none;stroke:#6AD8B9;stroke-linecap:round;stroke-linejoin:round;stroke-miterlimit:10;}
	.st19{fill:#1E1E1E;}
	.st20{fill:#6154F9;}
	
		.st21{fill-rule:evenodd;clip-rule:evenodd;fill:#FFFFFF;stroke:#69A1DA;stroke-width:2;stroke-linecap:round;stroke-linejoin:round;stroke-miterlimit:10;}
	
		.st22{fill-rule:evenodd;clip-rule:evenodd;fill:#FFFFFF;stroke:#6AD8B9;stroke-width:2;stroke-linecap:round;stroke-linejoin:round;stroke-miterlimit:10;}
	.st23{fill-rule:evenodd;clip-rule:evenodd;fill:#2D2D2D;}
	.st24{fill:#767676;}
	.st25{fill:#737373;}
	.st26{fill:#474A4D;}
	.st27{fill:none;stroke:#737373;stroke-linecap:round;stroke-linejoin:round;}
	.st28{fill:none;stroke:#737373;stroke-width:1.5;stroke-linecap:round;stroke-linejoin:round;}
	
		.st29{opacity:0.3;fill:none;stroke:#BFBFBF;stroke-width:1.5;stroke-linecap:round;stroke-linejoin:round;enable-background:new    ;}
	.st30{fill:#FF5F57;stroke:#E14640;}
	.st31{fill:#FFBD2E;stroke:#DFA123;}
	.st32{fill:#28CA42;stroke:#1DAD2C;}
	.st33{fill:#9E9E9E;}
	.st34{font-size:26px;}
	.st35{font-family:'FontAwesome5Pro-Solid';}
	.st36{font-size:36px;}
	.st37{fill:#B3B3B3;}
	.st38{fill:#20D287;}
</style>
<g>
	<g>
		<path class="st0" d="M1422.96,1024H17.45c-9.53,0-17.25-7.72-17.25-17.25V17.25C0.2,7.72,7.93,0,17.45,0h1405.51
			c9.53,0,17.25,7.72,17.25,17.25v989.51C1440.2,1016.28,1432.48,1024,1422.96,1024z"/>
		<path class="st1" d="M388.92,756.25c22.34-71.94,57.68-155.7,107.66-159.05c46.98-3.15,69.83,67.24,114.52,60.18
			c58.77-9.28,59.88-137.47,146.28-166.34c21.11-7.05,40.51-5.91,52.66-4.18v269.38H388.92z"/>
		<path class="st2" d="M926.11,691.05c16.74-22.48,44.44-51.84,82.35-56.05c45.6-5.07,64.11,30.89,96.09,22.02
			c55.99-15.52,46.3-138.75,99.1-150.15c29.34-6.33,47.39,28.46,87.08,21.02c25.59-4.8,43.91-24.1,55.93-41.02v269.38l-420.56,0
			V691.05z"/>
		<g>
			<g>
				<path class="st3" d="M390.81,859.47l-3.93,3.93c-0.36,0.36-1.08,0.66-1.59,0.66h-12.57c-1.24,0-2.25-1.01-2.25-2.25v-16.5
					c0-1.24,1.01-2.25,2.25-2.25h16.5c1.24,0,2.25,1.01,2.25,2.25v12.57C391.47,858.39,391.18,859.1,390.81,859.47z M372.72,845.31
					v16.5h10.5v-4.88c0-0.62,0.5-1.12,1.12-1.12h4.88v-10.5H372.72z M389.04,858.06h-3.57v3.57L389.04,858.06z"/>
			</g>
		</g>
		<g>
			<text transform="matrix(1 0 0 1 1226.042 372.7164)" class="st3 st4 st5"></text>
		</g>
		<text transform="matrix(1 0 0 1 575.2167 412.2886)" class="st6 st7 st8">Visitors</text>
		<g>
			<text transform="matrix(1 0 0 1 359.6913 378.8563)" class="st6 st9 st10">Last 7 days</text>
		</g>
		<text transform="matrix(1 0 0 1 405.2713 857.4504)" class="st6 st7 st8">Notes</text>
		<g>
			<text transform="matrix(1 0 0 1 1103.6917 412.2886)" class="st6 st7 st8">Revenue</text>
		</g>
		<g>
			<text transform="matrix(1 0 0 1 1262.5276 369.051)" class="st6 st7 st8">Sales Statistics</text>
		</g>
		<path class="st3" d="M414.74,788.25h-50.51c-3.79,0-6.86-3.07-6.86-6.86l0,0c0-3.79,3.07-6.86,6.86-6.86h50.51
			c3.79,0,6.86,3.07,6.86,6.86l0,0C421.6,785.18,418.53,788.25,414.74,788.25z"/>
		<path class="st3" d="M553.85,901.44H374.39c-3.79,0-6.86-3.07-6.86-6.86v0c0-3.79,3.07-6.86,6.86-6.86h179.47
			c3.79,0,6.86,3.07,6.86,6.86v0C560.71,898.37,557.64,901.44,553.85,901.44z"/>
		<path class="st3" d="M486.45,934.61H373.03c-3.04,0-5.51-2.47-5.51-5.51v-2.71c0-3.04,2.47-5.51,5.51-5.51h113.42
			c3.04,0,5.51,2.47,5.51,5.51v2.71C491.96,932.15,489.49,934.61,486.45,934.61z"/>
		<path class="st3" d="M549.47,1002.39H374.31c-3.75,0-6.78-3.04-6.78-6.78v-0.16c0-3.75,3.04-6.78,6.78-6.78h175.17
			c3.75,0,6.78,3.04,6.78,6.78v0.16C556.26,999.35,553.22,1002.39,549.47,1002.39z"/>
		<path class="st3" d="M662.73,1002.39h-96.91c-2.82,0-5.11-2.29-5.11-5.11v-3.5c0-2.82,2.29-5.11,5.11-5.11h96.91
			c2.82,0,5.11,2.29,5.11,5.11v3.5C667.84,1000.1,665.56,1002.39,662.73,1002.39z"/>
		<path class="st3" d="M750.12,966.75H636.7c-3.04,0-5.51-2.47-5.51-5.51v-2.71c0-3.04,2.47-5.51,5.51-5.51h113.42
			c3.04,0,5.51,2.47,5.51,5.51v2.71C755.63,964.29,753.16,966.75,750.12,966.75z"/>
		<path class="st3" d="M615.61,966.75H374.39c-3.79,0-6.86-3.07-6.86-6.86l0,0c0-3.79,3.07-6.86,6.86-6.86h241.22
			c3.79,0,6.86,3.07,6.86,6.86l0,0C622.47,963.68,619.4,966.75,615.61,966.75z"/>
		<path class="st3" d="M645.13,901.44h-65.66c-2.35,0-4.25-1.9-4.25-4.25v-5.22c0-2.35,1.9-4.25,4.25-4.25h65.66
			c2.35,0,4.25,1.9,4.25,4.25v5.22C649.38,899.53,647.48,901.44,645.13,901.44z"/>
		<path class="st3" d="M369.25,756.78h-5.02c-3.79,0-6.86-3.07-6.86-6.86v0c0-3.79,3.07-6.86,6.86-6.86h5.02
			c3.79,0,6.86,3.07,6.86,6.86v0C376.11,753.71,373.04,756.78,369.25,756.78z"/>
		<path class="st3" d="M369.25,656.24h-5.02c-3.79,0-6.86-3.07-6.86-6.86l0,0c0-3.79,3.07-6.86,6.86-6.86h5.02
			c3.79,0,6.86,3.07,6.86,6.86l0,0C376.11,653.17,373.04,656.24,369.25,656.24z"/>
		<path class="st3" d="M369.25,555.7h-5.02c-3.79,0-6.86-3.07-6.86-6.86l0,0c0-3.79,3.07-6.86,6.86-6.86h5.02
			c3.79,0,6.86,3.07,6.86,6.86l0,0C376.11,552.62,373.04,555.7,369.25,555.7z"/>
		<path class="st3" d="M369.25,455.15h-5.02c-3.79,0-6.86-3.07-6.86-6.86l0,0c0-3.79,3.07-6.86,6.86-6.86h5.02
			c3.79,0,6.86,3.07,6.86,6.86l0,0C376.11,452.08,373.04,455.15,369.25,455.15z"/>
		<path class="st3" d="M513.09,788.25h-50.51c-3.79,0-6.86-3.07-6.86-6.86l0,0c0-3.79,3.07-6.86,6.86-6.86h50.51
			c3.79,0,6.86,3.07,6.86,6.86l0,0C519.96,785.18,516.88,788.25,513.09,788.25z"/>
		<path class="st3" d="M611.45,788.25h-50.51c-3.79,0-6.86-3.07-6.86-6.86l0,0c0-3.79,3.07-6.86,6.86-6.86h50.51
			c3.79,0,6.86,3.07,6.86,6.86l0,0C618.31,785.18,615.24,788.25,611.45,788.25z"/>
		<path class="st3" d="M709.8,788.25h-50.51c-3.79,0-6.86-3.07-6.86-6.86l0,0c0-3.79,3.07-6.86,6.86-6.86h50.51
			c3.79,0,6.86,3.07,6.86,6.86l0,0C716.66,785.18,713.59,788.25,709.8,788.25z"/>
		<path class="st3" d="M808.15,788.25h-50.51c-3.79,0-6.86-3.07-6.86-6.86l0,0c0-3.79,3.07-6.86,6.86-6.86h50.51
			c3.79,0,6.86,3.07,6.86,6.86l0,0C815.01,785.18,811.94,788.25,808.15,788.25z"/>
		<path class="st11" d="M829.55,797.92H354.55c-6.61,0-11.96-5.36-11.96-11.96V403.22c0-6.61,5.36-11.96,11.96-11.96h475.01
			c6.61,0,11.96,5.36,11.96,11.96v382.73C841.52,792.56,836.16,797.92,829.55,797.92z"/>
		<path class="st11" d="M1368.65,1009.89H355.85c-7.33,0-13.27-5.94-13.27-13.27V842.44c0-7.33,5.94-13.27,13.27-13.27h1012.8
			c7.33,0,13.27,5.94,13.27,13.27v154.19C1381.92,1003.95,1375.98,1009.89,1368.65,1009.89z"/>
		<path class="st11" d="M1369.95,797.92h-485.1c-6.61,0-11.96-5.36-11.96-11.96V403.22c0-6.61,5.36-11.96,11.96-11.96h485.1
			c6.61,0,11.96,5.36,11.96,11.96v382.73C1381.92,792.56,1376.56,797.92,1369.95,797.92z"/>
		<path class="st11" d="M1374.43,386.16h-167.86c-4.13,0-7.49-3.35-7.49-7.49v-31.3c0-4.13,3.35-7.49,7.49-7.49h167.86
			c4.13,0,7.49,3.35,7.49,7.49v31.3C1381.92,382.81,1378.57,386.16,1374.43,386.16z"/>
		<line class="st11" x1="389.49" y1="448.29" x2="389.49" y2="756.25"/>
		<line class="st11" x1="389.49" y1="756.25" x2="809.48" y2="756.25"/>
		<path class="st12" d="M389.49,756.25c22.34-71.94,57.68-155.7,107.66-159.05c46.98-3.15,69.83,67.24,114.52,60.18
			c58.77-9.28,59.88-137.47,146.28-166.34c21.11-7.05,40.51-5.91,52.66-4.18"/>
		<path class="st13" d="M926.11,691.05c16.74-22.48,44.44-51.84,82.35-56.05c45.6-5.07,64.11,30.89,96.09,22.02
			c55.99-15.52,46.3-138.75,99.1-150.15c29.34-6.33,47.39,28.46,87.08,21.02c25.59-4.8,43.91-24.1,55.93-41.02"/>
		<path class="st3" d="M951.37,788.25h-50.51c-3.79,0-6.86-3.07-6.86-6.86l0,0c0-3.79,3.07-6.86,6.86-6.86h50.51
			c3.79,0,6.86,3.07,6.86,6.86l0,0C958.23,785.18,955.16,788.25,951.37,788.25z"/>
		<path class="st3" d="M905.88,756.78h-5.02c-3.79,0-6.86-3.07-6.86-6.86v0c0-3.79,3.07-6.86,6.86-6.86h5.02
			c3.79,0,6.86,3.07,6.86,6.86v0C912.74,753.71,909.67,756.78,905.88,756.78z"/>
		<path class="st3" d="M905.88,656.24h-5.02c-3.79,0-6.86-3.07-6.86-6.86l0,0c0-3.79,3.07-6.86,6.86-6.86h5.02
			c3.79,0,6.86,3.07,6.86,6.86l0,0C912.74,653.17,909.67,656.24,905.88,656.24z"/>
		<path class="st3" d="M905.88,555.7h-5.02c-3.79,0-6.86-3.07-6.86-6.86l0,0c0-3.79,3.07-6.86,6.86-6.86h5.02
			c3.79,0,6.86,3.07,6.86,6.86l0,0C912.74,552.62,909.67,555.7,905.88,555.7z"/>
		<path class="st3" d="M905.88,455.15h-5.02c-3.79,0-6.86-3.07-6.86-6.86l0,0c0-3.79,3.07-6.86,6.86-6.86h5.02
			c3.79,0,6.86,3.07,6.86,6.86l0,0C912.74,452.08,909.67,455.15,905.88,455.15z"/>
		<path class="st3" d="M1049.72,788.25h-50.51c-3.79,0-6.86-3.07-6.86-6.86l0,0c0-3.79,3.07-6.86,6.86-6.86h50.51
			c3.79,0,6.86,3.07,6.86,6.86l0,0C1056.58,785.18,1053.51,788.25,1049.72,788.25z"/>
		<path class="st3" d="M1148.07,788.25h-50.51c-3.79,0-6.86-3.07-6.86-6.86l0,0c0-3.79,3.07-6.86,6.86-6.86h50.51
			c3.79,0,6.86,3.07,6.86,6.86l0,0C1154.93,785.18,1151.86,788.25,1148.07,788.25z"/>
		<path class="st3" d="M1246.43,788.25h-50.51c-3.79,0-6.86-3.07-6.86-6.86l0,0c0-3.79,3.07-6.86,6.86-6.86h50.51
			c3.79,0,6.86,3.07,6.86,6.86l0,0C1253.29,785.18,1250.21,788.25,1246.43,788.25z"/>
		<path class="st3" d="M1344.78,788.25h-50.51c-3.79,0-6.86-3.07-6.86-6.86l0,0c0-3.79,3.07-6.86,6.86-6.86h50.51
			c3.79,0,6.86,3.07,6.86,6.86l0,0C1351.64,785.18,1348.57,788.25,1344.78,788.25z"/>
		<line class="st11" x1="926.11" y1="448.29" x2="926.11" y2="756.25"/>
		<line class="st11" x1="926.11" y1="756.25" x2="1346.1" y2="756.25"/>
		<circle class="st14" cx="389.62" cy="755.64" r="4.96"/>
		<circle class="st14" cx="809.48" cy="486.43" r="4.96"/>
		<circle class="st15" cx="926.11" cy="691.05" r="4.96"/>
		<circle class="st15" cx="1346.67" cy="485.56" r="4.96"/>
		<line class="st16" x1="342.58" y1="875.72" x2="1381.92" y2="875.72"/>
		<line class="st16" x1="342.58" y1="909.19" x2="1381.92" y2="909.19"/>
		<line class="st16" x1="342.58" y1="942.67" x2="1381.92" y2="942.67"/>
		<line class="st16" x1="342.58" y1="977.11" x2="1381.92" y2="977.11"/>
		<line class="st17" x1="624.96" y1="652.55" x2="624.96" y2="756.78"/>
		<line class="st18" x1="1029.59" y1="635.84" x2="1029.59" y2="756.25"/>
		<g>
			<g>
				<path class="st19" d="M759.85,142.97v-10.71l-9.98-14.62h3.68l7.86,11.77l7.86-11.77h3.68L763,132.27v10.71H759.85z"/>
				<path class="st19" d="M770.25,133.79c0-5.31,3.49-9.6,9.07-9.6c5.58,0,9.07,4.29,9.07,9.6c0,5.32-3.49,9.64-9.07,9.64
					C773.74,143.43,770.25,139.1,770.25,133.79z M785.4,133.79c0-3.72-2.16-7.06-6.07-7.06s-6.11,3.34-6.11,7.06
					c0,3.76,2.2,7.1,6.11,7.1S785.4,137.55,785.4,133.79z"/>
				<path class="st19" d="M805.4,142.97v-2.58c-1.4,1.59-3.8,3.04-6.53,3.04c-3.83,0-5.85-1.86-5.85-5.85v-12.95h2.85v12.07
					c0,3.23,1.63,4.18,4.1,4.18c2.24,0,4.37-1.29,5.43-2.77v-13.48h2.85v18.34H805.4z"/>
				<path class="st19" d="M813.94,142.97v-18.34h2.85v2.96c1.48-1.94,3.61-3.34,6.11-3.34v2.92c-0.34-0.08-0.68-0.11-1.14-0.11
					c-1.75,0-4.14,1.44-4.97,2.92v12.98H813.94z"/>
				<path class="st19" d="M834.86,139.41l1.86-2.39c1.67,1.86,4.4,3.61,7.97,3.61c4.52,0,5.96-2.43,5.96-4.37
					c0-6.53-15-2.92-15-11.96c0-4.18,3.72-7.02,8.69-7.02c3.87,0,6.87,1.29,9,3.53l-1.9,2.32c-1.9-2.09-4.56-3.04-7.33-3.04
					c-3.04,0-5.2,1.63-5.2,4.02c0,5.69,15,2.43,15,11.88c0,3.68-2.5,7.44-9.34,7.44C840.17,143.43,836.95,141.76,834.86,139.41z"/>
				<path class="st19" d="M858.43,139.14v-12h-3.04v-2.51h3.04v-5.01h2.85v5.01H865v2.51h-3.72v11.39c0,1.37,0.61,2.35,1.86,2.35
					c0.8,0,1.56-0.34,1.94-0.76l0.83,2.13c-0.72,0.68-1.75,1.18-3.42,1.18C859.8,143.43,858.43,141.87,858.43,139.14z"/>
				<path class="st19" d="M867.96,133.79c0-5.31,3.49-9.6,9.07-9.6c5.58,0,9.07,4.29,9.07,9.6c0,5.32-3.49,9.64-9.07,9.64
					C871.45,143.43,867.96,139.1,867.96,133.79z M883.11,133.79c0-3.72-2.16-7.06-6.07-7.06s-6.11,3.34-6.11,7.06
					c0,3.76,2.2,7.1,6.11,7.1S883.11,137.55,883.11,133.79z"/>
				<path class="st19" d="M890.73,142.97v-18.34h2.85v2.96c1.48-1.94,3.61-3.34,6.11-3.34v2.92c-0.34-0.08-0.68-0.11-1.14-0.11
					c-1.75,0-4.14,1.44-4.97,2.92v12.98H890.73z"/>
				<path class="st19" d="M902.2,133.79c0-5.31,3.8-9.6,9.04-9.6c5.54,0,8.81,4.33,8.81,9.83v0.72H905.2
					c0.23,3.46,2.66,6.34,6.61,6.34c2.09,0,4.21-0.83,5.66-2.32l1.37,1.86c-1.82,1.82-4.29,2.81-7.29,2.81
					C906.11,143.43,902.2,139.52,902.2,133.79z M911.19,126.54c-3.91,0-5.85,3.3-6,6.11h12.04
					C917.19,129.91,915.37,126.54,911.19,126.54z"/>
			</g>
			<path class="st20" d="M728.25,141.13h-30.61c-0.86,0-1.56-0.7-1.56-1.56c0-0.86,0.7-1.56,1.56-1.56h29.4l5.93-23.36h-41.06
				c-0.58,0-1.12-0.33-1.39-0.85l-2.81-5.47h-4.68c-0.86,0-1.56-0.7-1.56-1.56c0-0.86,0.7-1.56,1.56-1.56h5.64
				c0.58,0,1.12,0.33,1.39,0.85l2.81,5.47h42.11c0.48,0,0.94,0.22,1.23,0.6c0.3,0.38,0.4,0.87,0.28,1.34l-6.72,26.47
				C729.58,140.65,728.96,141.13,728.25,141.13z M693.75,139.57c0-0.86-0.7-1.56-1.56-1.56h-1.64c-0.86,0-1.56,0.7-1.56,1.56
				c0,0.86,0.7,1.56,1.56,1.56h1.64C693.05,141.13,693.75,140.43,693.75,139.57z M726.43,126.33c0-0.86-0.7-1.56-1.56-1.56h-7.71
				c-0.86,0-1.56,0.7-1.56,1.56c0,0.86,0.7,1.56,1.56,1.56h7.71C725.73,127.89,726.43,127.2,726.43,126.33z M712.54,126.33
				c0-0.86-0.7-1.56-1.56-1.56h-21.66c-0.86,0-1.56,0.7-1.56,1.56c0,0.86,0.7,1.56,1.56,1.56h21.66
				C711.84,127.89,712.54,127.2,712.54,126.33z M701.81,132.95c0-0.86-0.7-1.56-1.56-1.56h-3.22c-0.86,0-1.56,0.7-1.56,1.56
				c0,0.86,0.7,1.56,1.56,1.56h3.22C701.11,134.51,701.81,133.82,701.81,132.95z M724.75,132.95c0-0.86-0.7-1.56-1.56-1.56h-17
				c-0.86,0-1.56,0.7-1.56,1.56c0,0.86,0.7,1.56,1.56,1.56h17C724.05,134.51,724.75,133.82,724.75,132.95z M692.52,132.95
				c0-0.86-0.7-1.56-1.56-1.56h-7.69c-0.86,0-1.56,0.7-1.56,1.56c0,0.86,0.7,1.56,1.56,1.56h7.69
				C691.83,134.51,692.52,133.82,692.52,132.95z M678.51,106.78c0-0.86-0.7-1.56-1.56-1.56h-4.55c-0.86,0-1.56,0.7-1.56,1.56
				c0,0.86,0.7,1.56,1.56,1.56h4.55C677.82,108.34,678.51,107.64,678.51,106.78z M728.1,119.71c0-0.86-0.7-1.56-1.56-1.56h-23.16
				c-0.86,0-1.56,0.7-1.56,1.56c0,0.86,0.7,1.56,1.56,1.56h23.16C727.41,121.27,728.1,120.58,728.1,119.71z M698.54,119.71
				c0-0.86-0.7-1.56-1.56-1.56h-12.25c-0.86,0-1.56,0.7-1.56,1.56c0,0.86,0.7,1.56,1.56,1.56h12.25
				C697.84,121.27,698.54,120.58,698.54,119.71z M697.89,144.21c-2.34,0-4.24,1.9-4.24,4.24c0,2.34,1.9,4.24,4.24,4.24
				s4.24-1.9,4.24-4.24C702.13,146.11,700.23,144.21,697.89,144.21z M719.79,144.21c-2.34,0-4.24,1.9-4.24,4.24
				c0,2.34,1.9,4.24,4.24,4.24c2.34,0,4.24-1.9,4.24-4.24C724.02,146.11,722.13,144.21,719.79,144.21z"/>
		</g>
		<circle class="st21" cx="624.96" cy="652.55" r="5.37"/>
		<circle class="st22" cx="1029.83" cy="635.84" r="5.37"/>
	</g>
	<g>
		<path class="st23" d="M14.23,0C6.37,0,0,6.37,0,14.23v59.75h1440.41V14.23c0-7.86-6.37-14.23-14.23-14.23H14.23z"/>
		<path class="st24" d="M1283.2,38.98c0.59,0,1.09-0.48,1.09-1.06V26.1l-0.09-1.82l0.64,0.7l1.67,1.8c0.2,0.21,0.47,0.32,0.73,0.32
			c0.58,0,1-0.39,1-0.94c0-0.3-0.12-0.52-0.33-0.71l-3.91-3.74c-0.27-0.27-0.5-0.36-0.79-0.36c-0.27,0-0.5,0.09-0.79,0.36
			l-3.91,3.74c-0.2,0.2-0.32,0.41-0.32,0.71c0,0.55,0.41,0.94,0.99,0.94c0.26,0,0.55-0.11,0.74-0.32l1.67-1.8l0.64-0.7l-0.09,1.82
			v11.82C1282.12,38.49,1282.62,38.98,1283.2,38.98z M1276.4,48.37h13.6c2.59,0,3.87-1.27,3.87-3.82V32.9
			c0-2.55-1.27-3.82-3.87-3.82h-3.26v2.2h3.23c1.08,0,1.71,0.59,1.71,1.73v11.44c0,1.15-0.64,1.73-1.71,1.73h-13.54
			c-1.09,0-1.71-0.58-1.71-1.73V33.01c0-1.14,0.62-1.73,1.71-1.73h3.23v-2.2h-3.26c-2.58,0-3.87,1.27-3.87,3.82v11.65
			C1272.54,47.1,1273.83,48.37,1276.4,48.37z"/>
		<path class="st24" d="M1340.85,46.44c0.67,0,1.22-0.53,1.22-1.21v-7.71h7.52c0.66,0,1.22-0.56,1.22-1.24
			c0-0.67-0.56-1.24-1.22-1.24h-7.52v-7.72c0-0.67-0.55-1.21-1.22-1.21s-1.24,0.53-1.24,1.21v7.72h-7.51
			c-0.67,0-1.24,0.56-1.24,1.24c0,0.67,0.56,1.24,1.24,1.24h7.51v7.71C1339.61,45.9,1340.18,46.44,1340.85,46.44z"/>
		<path class="st24" d="M1390.16,43.09h1.85v1.85c0,2.49,1.24,3.72,3.78,3.72h11.64c2.52,0,3.78-1.23,3.78-3.72V33.18
			c0-2.49-1.26-3.72-3.78-3.72h-1.85v-1.85c0-2.49-1.26-3.72-3.78-3.72h-11.64c-2.53,0-3.78,1.23-3.78,3.72v11.76
			C1386.38,41.86,1387.62,43.09,1390.16,43.09z M1390.19,40.96c-1.07,0-1.67-0.58-1.67-1.7V27.73c0-1.13,0.61-1.7,1.67-1.7h11.58
			c1.07,0,1.67,0.58,1.67,1.7v1.73h-7.66c-2.53,0-3.78,1.23-3.78,3.72v7.78H1390.19z M1395.82,46.53c-1.07,0-1.67-0.58-1.67-1.7
			V33.3c0-1.13,0.61-1.7,1.67-1.7h11.58c1.07,0,1.67,0.58,1.67,1.7v11.52c0,1.13-0.61,1.7-1.67,1.7H1395.82z"/>
		<path class="st25" d="M328.63,49.08c0.17,0,0.47-0.06,0.8-0.24c6.76-3.72,9.16-5.42,9.16-9.9v-9.11c0-1.24-0.59-1.62-1.52-2.03
			c-1.22-0.53-6.21-2.3-7.43-2.72c-0.32-0.11-0.66-0.18-1.01-0.18s-0.71,0.11-1.01,0.18c-1.22,0.3-6.21,2.21-7.43,2.72
			c-0.93,0.39-1.52,0.79-1.52,2.03v9.11c0,4.48,2.4,6.16,9.16,9.9C328.17,49.02,328.47,49.08,328.63,49.08z M329.04,27.17
			c1.91,0.77,5.12,1.91,7.1,2.57c0.26,0.09,0.3,0.23,0.3,0.5v8.17c0,3.68-1.61,4.65-7.05,7.92c-0.38,0.23-0.56,0.27-0.74,0.27V27.09
			C328.75,27.09,328.89,27.11,329.04,27.17z"/>
		<path class="st26" d="M371.31,17.07h800.21c3.93,0,7.11,3.18,7.11,7.11v25.61c0,3.93-3.18,7.11-7.11,7.11H371.31
			c-3.93,0-7.11-3.18-7.11-7.11V24.19C364.2,20.26,367.38,17.07,371.31,17.07z"/>
		<path class="st27" d="M1161.56,29.88l3.32,3.32l-3.32,3.32 M1168.68,39.29c0,3.67-2.98,6.65-6.65,6.65
			c-3.67,0-6.65-2.98-6.65-6.65c0-3.67,2.98-6.65,6.65-6.65c0.78,0,1.66,0,2.77,0.55"/>
		<path class="st25" d="M144.57,46.95h19.69c2.5,0,3.73-1.23,3.73-3.69V29.3c0-2.46-1.23-3.69-3.73-3.69h-19.69
			c-2.49,0-3.73,1.23-3.73,3.69v13.96C140.84,45.72,142.09,46.95,144.57,46.95z M144.6,44.83c-1.05,0-1.65-0.56-1.65-1.67V29.4
			c0-1.1,0.6-1.67,1.65-1.67h5.09v17.1H144.6z M164.23,27.73c1.05,0,1.65,0.57,1.65,1.67v13.76c0,1.11-0.6,1.67-1.65,1.67h-12.47
			v-17.1H164.23z M147.49,31.97c0.4,0,0.73-0.35,0.73-0.73s-0.34-0.7-0.73-0.7h-2.3c-0.38,0-0.72,0.32-0.72,0.7s0.34,0.73,0.72,0.73
			H147.49z M147.49,34.9c0.4,0,0.73-0.34,0.73-0.73c0-0.38-0.34-0.7-0.73-0.7h-2.3c-0.38,0-0.72,0.32-0.72,0.7
			c0,0.4,0.34,0.73,0.72,0.73H147.49z M147.49,37.83c0.4,0,0.73-0.34,0.73-0.72c0-0.38-0.34-0.7-0.73-0.7h-2.3
			c-0.38,0-0.72,0.32-0.72,0.7c0,0.38,0.34,0.72,0.72,0.72H147.49z"/>
		<path class="st28" d="M218.38,27.74l-9.25,9.25l9.25,9.25"/>
		<path class="st29" d="M257.5,46.24l9.25-9.25l-9.25-9.25"/>
		<path class="st30" d="M44.81,36.99c0,4.32-3.5,7.82-7.82,7.82s-7.82-3.5-7.82-7.82s3.5-7.82,7.82-7.82S44.81,32.67,44.81,36.99z"
			/>
		<path class="st31" d="M73.27,36.99c0,4.32-3.5,7.82-7.82,7.82s-7.82-3.5-7.82-7.82s3.5-7.82,7.82-7.82S73.27,32.67,73.27,36.99z"
			/>
		<path class="st32" d="M101.72,36.99c0,4.32-3.5,7.82-7.82,7.82c-4.32,0-7.82-3.5-7.82-7.82s3.5-7.82,7.82-7.82
			C98.22,29.16,101.72,32.67,101.72,36.99z"/>
		<g>
			<path class="st33" d="M676.84,46.95h8.98c1.26,0,1.88-0.62,1.88-1.98v-6.91c0-1.21-0.5-1.84-1.5-1.96v-2.35
				c0-3.64-2.44-5.3-4.86-5.3c-2.43,0-4.87,1.66-4.87,5.3v2.38c-0.94,0.18-1.51,0.79-1.51,1.92v6.91
				C674.97,46.33,675.6,46.95,676.84,46.95z M678.43,33.54c0-2.12,1.35-3.22,2.91-3.22c1.54,0,2.91,1.09,2.91,3.22v2.54l-5.81,0.01
				V33.54z"/>
			<text transform="matrix(1 0 0 1 703.0834 45.8591)" class="st33 st9 st34">quickbutik.com</text>
		</g>
	</g>
	<path class="st3" d="M1273.92,178.18h-35.83c-3.79,0-6.86-3.07-6.86-6.86v0c0-3.79,3.07-6.86,6.86-6.86h35.83
		c3.79,0,6.86,3.07,6.86,6.86v0C1280.78,175.11,1277.71,178.18,1273.92,178.18z"/>
	<path class="st1" d="M1318.62,178.18h-27.22c-3.38,0-6.12-2.74-6.12-6.12v-1.47c0-3.38,2.74-6.12,6.12-6.12h27.22
		c3.38,0,6.12,2.74,6.12,6.12v1.47C1324.75,175.44,1322.01,178.18,1318.62,178.18z"/>
	<path class="st3" d="M1364.24,178.18h-27.22c-3.38,0-6.12-2.74-6.12-6.12v-1.47c0-3.38,2.74-6.12,6.12-6.12h27.22
		c3.38,0,6.12,2.74,6.12,6.12v1.47C1370.36,175.44,1367.62,178.18,1364.24,178.18z"/>
	<g>
		<text transform="matrix(1 0 0 1 451.1124 265.7673)" class="st19 st35 st36"></text>
		<g>
			<text transform="matrix(1 0 0 1 796.0383 266.1683)" class="st19 st35 st36"></text>
		</g>
		<text transform="matrix(1 0 0 1 505.7446 254.3461)" class="st6 st9 st34">1206</text>
		<g>
			<text transform="matrix(1 0 0 1 510.3436 270.3593)" class="st37 st7 st8">views</text>
		</g>
		<g>
			<text transform="matrix(1 0 0 1 564.1166 238.678)" class="st38 st7 st8">+12%</text>
		</g>
		<g>
			<text transform="matrix(1 0 0 1 915.9119 238.678)" class="st38 st7 st8">+20%</text>
		</g>
		<g>
			<text transform="matrix(1 0 0 1 1276.4087 238.678)" class="st38 st7 st8">+21%</text>
		</g>
		<text transform="matrix(1 0 0 1 852.717 254.3461)" class="st6 st9 st34">1206</text>
		<text transform="matrix(1 0 0 1 1143.8057 254.3461)" class="st6 st9 st34">23.410 SEK</text>
		<g>
			<text transform="matrix(1 0 0 1 857.3159 270.3593)" class="st37 st7 st8">orders</text>
		</g>
		<g>
			<text transform="matrix(1 0 0 1 1186.4895 270.3593)" class="st37 st7 st8">revenue</text>
		</g>
		<path class="st11" d="M1369.95,318.93H354.55c-6.61,0-11.96-5.36-11.96-11.96v-108.6c0-6.61,5.36-11.96,11.96-11.96h1015.41
			c6.61,0,11.96,5.36,11.96,11.96v108.6C1381.92,313.57,1376.56,318.93,1369.95,318.93z"/>
		<line class="st11" x1="689.03" y1="186.4" x2="689.03" y2="318.93"/>
		<line class="st11" x1="1035.47" y1="186.4" x2="1035.47" y2="318.93"/>
	</g>
</g>
</svg>
