<?xml version="1.0" encoding="utf-8"?>
<!-- Generator: Adobe Illustrator 25.0.0, SVG Export Plug-In . SVG Version: 6.00 Build 0)  -->
<svg version="1.1" id="Layer_1" xmlns="http://www.w3.org/2000/svg" xmlns:xlink="http://www.w3.org/1999/xlink" x="0px" y="0px"
	 viewBox="0 0 274.29 950.02" style="enable-background:new 0 0 274.29 950.02;" xml:space="preserve">
<style type="text/css">
	.st0{fill:#1E1E1E;}
	.st1{fill:#282828;}
	.st2{fill:#69A1DA;}
	.st3{fill:#999999;}
	.st4{fill:#FFFFFF;}
	.st5{fill:none;stroke:#333333;stroke-miterlimit:10;}
	.st6{fill:#3A3A3A;}
	.st7{fill:#6154F9;}
</style>
<g>
	<path class="st0" d="M274.29,950.02H16.85c-9.3,0-16.85-7.54-16.85-16.85V0h274.29V950.02z"/>
	<rect y="206.8" class="st1" width="274.29" height="64"/>
	<g>
		<path class="st2" d="M245.63,229.14c7.46,0,13.5,6.04,13.5,13.5c0,2.47-0.67,4.79-1.83,6.79c-0.26,0.45-0.76,0.71-1.29,0.71
			h-20.77c-0.52,0-1.02-0.26-1.29-0.71c-1.16-1.99-1.83-4.31-1.83-6.79C232.13,235.19,238.17,229.14,245.63,229.14z M235.68,247.89
			h19.9c0.85-1.61,1.3-3.42,1.3-5.25c0-6.2-5.05-11.25-11.25-11.25s-11.25,5.05-11.25,11.25
			C234.38,244.48,234.83,246.28,235.68,247.89z M239.63,242.64c0,0.83-0.67,1.5-1.5,1.5s-1.5-0.67-1.5-1.5s0.67-1.5,1.5-1.5
			S239.63,241.81,239.63,242.64z M238.88,237.39c0-0.83,0.67-1.5,1.5-1.5s1.5,0.67,1.5,1.5s-0.67,1.5-1.5,1.5
			S238.88,238.22,238.88,237.39z M245.63,241.14c0.28,0,0.55,0.05,0.81,0.12l3.55-4.57c0.38-0.49,1.08-0.58,1.58-0.2
			c0.49,0.38,0.58,1.09,0.2,1.58l-3.55,4.57c0.26,0.44,0.41,0.95,0.41,1.49c0,0.55-0.16,1.06-0.42,1.5h-5.17
			c-0.26-0.44-0.42-0.95-0.42-1.5C242.63,242.49,243.97,241.14,245.63,241.14z M245.63,236.64c-0.83,0-1.5-0.67-1.5-1.5
			s0.67-1.5,1.5-1.5s1.5,0.67,1.5,1.5S246.46,236.64,245.63,236.64z M253.13,241.14c0.83,0,1.5,0.67,1.5,1.5s-0.67,1.5-1.5,1.5
			s-1.5-0.67-1.5-1.5S252.3,241.14,253.13,241.14z"/>
	</g>
	<g>
		<path class="st3" d="M257.7,295.85l-2.12,9.75c-0.11,0.52-0.57,0.89-1.1,0.89h-14.64l0.44,2.25h13.23c0.72,0,1.25,0.66,1.1,1.36
			l-0.05,0.22c0.57,0.55,0.92,1.31,0.92,2.16c0,1.66-1.34,3-3,3s-3-1.34-3-3v0c0-0.44,0.18-1.11,0.4-1.5h-6.8
			c0.22,0.38,0.4,1.05,0.4,1.5v0c0,1.66-1.34,3-3,3s-3-1.34-3-3c0-0.81,0.32-1.54,0.84-2.08l-3.26-16.67h-3.76
			c-0.31,0-0.56-0.25-0.56-0.56v-1.12c0-0.31,0.25-0.56,0.56-0.56h4.69c0.54,0,1,0.38,1.1,0.91l0.41,2.09h19.11
			C257.32,294.49,257.85,295.15,257.7,295.85z M255.2,296.74h-17.28l1.47,7.5h14.18L255.2,296.74z M241.6,312.49
			c0-0.62-0.5-1.12-1.12-1.12s-1.12,0.5-1.12,1.12s0.5,1.12,1.12,1.12S241.6,313.11,241.6,312.49z M253.6,312.49
			c0-0.62-0.5-1.12-1.12-1.12s-1.12,0.5-1.12,1.12s0.5,1.12,1.12,1.12S253.6,313.11,253.6,312.49z"/>
	</g>
	<g>
		<path class="st3" d="M236.27,369.34c-0.18-0.07-0.37-0.12-0.58-0.12h-1.12c-0.93,0-1.69,0.76-1.69,1.69
			c0,0.62-0.51,1.12-1.12,1.12s-1.12-0.51-1.12-1.12c0-2.17,1.77-3.94,3.94-3.94h1.12c0.81,0,1.57,0.25,2.19,0.67
			C237.26,368.12,236.71,368.69,236.27,369.34z M231.38,361.73c0-2.07,1.68-3.75,3.75-3.75s3.75,1.68,3.75,3.75
			s-1.68,3.75-3.75,3.75S231.38,363.8,231.38,361.73z M233.63,361.73c0,0.83,0.67,1.5,1.5,1.5s1.5-0.67,1.5-1.5s-0.67-1.5-1.5-1.5
			S233.63,360.9,233.63,361.73z M254.62,373.13v2.1c0,1.24-1.01,2.25-2.25,2.25h-13.5c-1.24,0-2.25-1.01-2.25-2.25v-2.1
			c0-1.12,0.34-2.15,0.92-3.01c1.29-1.92,3.78-2.62,5.99-1.95c0.67,0.2,1.36,0.31,2.1,0.31c0.73,0,1.43-0.11,2.1-0.31
			c2.21-0.67,4.7,0.04,5.99,1.95C254.3,370.98,254.63,372.01,254.62,373.13z M252.38,373.13c0-1.71-1.37-3.1-3.07-3.15
			c-1.2,0.5-2.43,0.75-3.68,0.75s-2.49-0.25-3.68-0.75c-1.7,0.05-3.07,1.44-3.07,3.15v2.1h13.5V373.13z M240.38,361.73
			c0-2.9,2.35-5.25,5.25-5.25s5.25,2.35,5.25,5.25s-2.35,5.25-5.25,5.25S240.38,364.63,240.38,361.73z M242.63,361.73
			c0,1.65,1.35,3,3,3s3-1.35,3-3s-1.35-3-3-3S242.63,360.07,242.63,361.73z M252.38,361.73c0-2.07,1.68-3.75,3.75-3.75
			s3.75,1.68,3.75,3.75s-1.68,3.75-3.75,3.75S252.38,363.8,252.38,361.73z M260.63,370.92c0,0.62-0.51,1.12-1.12,1.12
			c-0.62,0-1.12-0.51-1.12-1.12c0-0.93-0.76-1.69-1.69-1.69h-1.12c-0.2,0-0.39,0.05-0.58,0.12c-0.43-0.66-0.98-1.22-1.61-1.7
			c0.63-0.42,1.38-0.67,2.19-0.67h1.12C258.87,366.98,260.63,368.75,260.63,370.92z M254.63,361.73c0,0.83,0.67,1.5,1.5,1.5
			s1.5-0.67,1.5-1.5s-0.67-1.5-1.5-1.5S254.63,360.9,254.63,361.73z"/>
	</g>
	<g>
		<path class="st3" d="M244.92,421.14l9.75,3.66c0.88,0.33,1.46,1.17,1.46,2.1v10.55c0,0.85-0.48,1.63-1.24,2.01l-9.75,4.88
			c-0.63,0.32-1.38,0.32-2.01,0l-9.75-4.88c-0.76-0.38-1.24-1.16-1.24-2.01V426.9c0-0.94,0.58-1.78,1.46-2.11l9.75-3.66
			C243.85,420.94,244.41,420.94,244.92,421.14z M234.38,426.9v0.01l9.75,3.96l9.75-3.96v-0.01l-9.75-3.66L234.38,426.9z
			 M234.38,437.45l8.62,4.31v-8.92l-8.62-3.51V437.45z M253.88,437.45v-8.1l-8.62,3.51v8.91L253.88,437.45z"/>
	</g>
	<g>
		<path class="st3" d="M256.88,495.92h-4.88v3.38h2.62c0.83,0,1.5,0.67,1.5,1.5v4.5c0,0.83-0.67,1.5-1.5,1.5h-7.5
			c-0.83,0-1.5-0.67-1.5-1.5v-4.5c0-0.83,0.67-1.5,1.5-1.5h2.62v-3.38h-14.25v3.38h2.62c0.83,0,1.5,0.67,1.5,1.5v4.5
			c0,0.83-0.67,1.5-1.5,1.5h-7.5c-0.83,0-1.5-0.67-1.5-1.5v-4.5c0-0.83,0.67-1.5,1.5-1.5h2.62v-3.38h-4.88
			c-0.41,0-0.75-0.34-0.75-0.75v-0.75c0-0.41,0.34-0.75,0.75-0.75h13.12v-3.38h-3.38c-0.83,0-1.5-0.67-1.5-1.5v-4.5
			c0-0.83,0.67-1.5,1.5-1.5h9c0.83,0,1.5,0.67,1.5,1.5v4.5c0,0.83-0.67,1.5-1.5,1.5h-3.38v3.38h13.12c0.41,0,0.75,0.34,0.75,0.75
			v0.75C257.63,495.59,257.29,495.92,256.88,495.92z M231.38,501.55v3h6v-3H231.38z M238.88,488.05h7.5v-3h-7.5V488.05z
			 M247.88,501.55v3h6v-3H247.88z"/>
	</g>
	<g>
		<path class="st3" d="M257.26,549.05v15c0,1.24-1.01,2.25-2.25,2.25h-2.25v2.25c0,1.24-1.01,2.25-2.25,2.25h-15
			c-1.24,0-2.25-1.01-2.25-2.25v-15c0-1.24,1.01-2.25,2.25-2.25h2.25v-2.25c0-1.24,1.01-2.25,2.25-2.25h15
			C256.25,546.8,257.26,547.81,257.26,549.05z M250.51,558.8h-15v9.75h15V558.8z M255.01,549.05h-15v2.25h10.5
			c1.24,0,2.25,1.01,2.25,2.25v10.5h2.25V549.05z"/>
	</g>
	<g>
		<path class="st3" d="M253.23,632.55c0,1.24-1.01,2.25-2.25,2.25h-13.5c-1.24,0-2.25-1.01-2.25-2.25v-19.5
			c0-1.24,1.01-2.25,2.25-2.25h9.57c0.6,0,1.17,0.24,1.59,0.66l3.93,3.93c0.42,0.42,0.66,0.99,0.66,1.59V632.55z M250.98,619.05
			h-4.88c-0.62,0-1.12-0.5-1.12-1.12v-4.88h-7.5v19.5h13.5V619.05z M248.73,623.74c0,0.31-0.25,0.56-0.56,0.56h-7.88
			c-0.31,0-0.56-0.25-0.56-0.56v-1.31c0-0.31,0.25-0.56,0.56-0.56h7.88c0.31,0,0.56,0.25,0.56,0.56V623.74z M248.73,626.36v1.31
			c0,0.31-0.25,0.56-0.56,0.56h-7.88c-0.31,0-0.56-0.25-0.56-0.56v-1.31c0-0.31,0.25-0.56,0.56-0.56h7.88
			C248.47,625.8,248.73,626.05,248.73,626.36z M247.23,616.8h3.57l-3.57-3.57V616.8z"/>
	</g>
	<g>
		<path class="st3" d="M256.51,683.8c0,0.2-0.07,0.51-0.16,0.68c-2.54,4.96-7.57,8.32-13.34,8.32s-10.79-3.36-13.34-8.32
			c-0.09-0.18-0.16-0.48-0.16-0.68c0-0.2,0.07-0.51,0.16-0.68c2.54-4.96,7.57-8.32,13.34-8.32s10.79,3.36,13.34,8.32
			C256.43,683.29,256.51,683.6,256.51,683.8z M254.16,683.8c-2.29-4.17-6.53-6.75-11.15-6.75s-8.86,2.58-11.15,6.75
			c2.29,4.17,6.53,6.75,11.15,6.75C247.63,690.55,251.87,687.97,254.16,683.8z M243.02,678.55c2.89,0,5.24,2.35,5.24,5.24
			s-2.35,5.24-5.24,5.24c-2.89,0-5.24-2.35-5.24-5.24c0-0.41,0.09-1.06,0.21-1.45c0.32,0.19,0.89,0.34,1.27,0.34
			c1.45,0,2.62-1.18,2.62-2.62c0-0.37-0.15-0.94-0.34-1.27c0.4-0.12,1.05-0.23,1.46-0.23C243.01,678.55,243.02,678.55,243.02,678.55
			z"/>
	</g>
	<g>
		<path class="st3" d="M255.1,748.36v1.12c0,0.31-0.25,0.56-0.56,0.56h-0.88l-1.29,9.31c-0.15,1.11-1.11,1.94-2.23,1.94h-17.08
			c-1.12,0-2.07-0.83-2.23-1.94l-1.29-9.31h-0.88c-0.31,0-0.56-0.25-0.56-0.56v-1.12c0-0.31,0.25-0.56,0.56-0.56h3.42l6.04-7.1
			c0.4-0.47,1.11-0.53,1.59-0.13c0.47,0.4,0.53,1.11,0.13,1.59l-4.8,5.65h13.13l-4.8-5.65c-0.4-0.47-0.35-1.18,0.13-1.59
			c0.47-0.4,1.18-0.34,1.59,0.13l6.04,7.1h3.42C254.85,747.8,255.1,748.05,255.1,748.36z M251.39,750.05h-19.58l1.25,9h17.08
			L251.39,750.05z M237.48,756.42c0,0.62-0.5,1.12-1.12,1.12s-1.12-0.5-1.12-1.12v-3.75c0-0.62,0.5-1.12,1.12-1.12
			s1.12,0.5,1.12,1.12V756.42z M242.73,756.42c0,0.62-0.5,1.12-1.12,1.12s-1.12-0.5-1.12-1.12v-3.75c0-0.62,0.5-1.12,1.12-1.12
			s1.12,0.5,1.12,1.12V756.42z M247.98,756.42c0,0.62-0.5,1.12-1.12,1.12s-1.12-0.5-1.12-1.12v-3.75c0-0.62,0.5-1.12,1.12-1.12
			s1.12,0.5,1.12,1.12V756.42z"/>
	</g>
	<g>
		<path class="st3" d="M252.05,825.65v1.58c0,0.62-0.5,1.12-1.12,1.12s-1.12-0.5-1.12-1.12v-1.58c0-2.23-1.82-4.05-4.05-4.05h-0.61
			c-1.1,0.48-2.32,0.75-3.59,0.75s-2.49-0.27-3.59-0.75h-0.61c-2.23,0-4.05,1.82-4.05,4.05v1.58c0,0.62-0.5,1.12-1.12,1.12
			s-1.12-0.5-1.12-1.12v-1.58c0-2.73,1.75-5.02,4.19-5.89c-0.96-0.95-1.71-2.11-2.17-3.41h-0.52c-0.41,0-0.75-0.34-0.75-0.75v-4.5
			c0-0.41,0.34-0.75,0.75-0.75h0.52c1.23-3.49,4.56-6,8.48-6s7.24,2.51,8.48,6h0.52c0.41,0,0.75,0.34,0.75,0.75v4.5
			c0,0.41-0.34,0.75-0.75,0.75h-0.52c-0.46,1.3-1.2,2.47-2.17,3.41C250.3,820.63,252.05,822.91,252.05,825.65z M248.3,813.35
			c0-3.72-3.03-6.75-6.75-6.75s-6.75,3.03-6.75,6.75s3.03,6.75,6.75,6.75S248.3,817.07,248.3,813.35z M246.8,812.6v0.75
			c0,2.48-2.02,4.5-4.5,4.5h-1.5c-2.48,0-4.5-2.02-4.5-4.5v-0.75c0-1.24,1.01-2.25,2.25-2.25h6
			C245.8,810.35,246.8,811.35,246.8,812.6z M246.8,825.35v3h-6.75v-2.25c0-0.41-0.34-0.75-0.75-0.75s-0.75,0.34-0.75,0.75v2.25
			h-2.25v-3c0-0.83,0.67-1.5,1.5-1.5h7.5C246.13,823.85,246.8,824.52,246.8,825.35z M242.3,814.1l-1.69-0.56l-0.56-1.69l-0.56,1.69
			l-1.69,0.56l1.69,0.56l0.56,1.69l0.56-1.69L242.3,814.1z M244.55,826.1c0-0.41-0.34-0.75-0.75-0.75s-0.75,0.34-0.75,0.75
			s0.34,0.75,0.75,0.75S244.55,826.51,244.55,826.1z"/>
	</g>
	<g>
		<path class="st4" d="M31.09,162.81c0.31,0,0.56,0.25,0.56,0.56v1.12c0,0.31-0.25,0.56-0.56,0.56h-3.94
			c-1.24,0-2.25,1.01-2.25,2.25v9c0,1.24,1.01,2.25,2.25,2.25h3.94c0.31,0,0.56,0.25,0.56,0.56v1.12c0,0.31-0.25,0.56-0.56,0.56
			h-3.94c-2.48,0-4.5-2.02-4.5-4.5v-9c0-2.48,2.02-4.5,4.5-4.5H31.09z M38.78,163.72l7.71,7.69c0.22,0.22,0.22,0.58,0,0.8
			l-7.71,7.69c-0.22,0.22-0.58,0.22-0.8,0l-0.92-0.92c-0.22-0.22-0.22-0.58,0.01-0.8l5.3-5.14H30.71c-0.31,0-0.56-0.25-0.56-0.56
			v-1.31c0-0.31,0.25-0.56,0.56-0.56h11.66l-5.3-5.15c-0.23-0.22-0.23-0.58-0.01-0.8l0.92-0.92C38.2,163.5,38.56,163.5,38.78,163.72
			z"/>
	</g>
	<g>
		<path class="st4" d="M98.67,171.81c0,6.42-5.21,11.62-11.62,11.62s-11.62-5.2-11.62-11.62c0-6.42,5.21-11.62,11.62-11.62
			S98.67,165.39,98.67,171.81z M96.42,171.81c0-5.18-4.2-9.38-9.38-9.38c-5.18,0-9.38,4.2-9.38,9.38c0,5.18,4.19,9.38,9.38,9.38
			C92.23,181.18,96.42,176.99,96.42,171.81z M88.68,173.57v0.3c0,0.31-0.25,0.56-0.56,0.56h-2.14c-0.31,0-0.56-0.25-0.56-0.56v-0.41
			c0-1.67,1.27-2.34,2.23-2.88c0.82-0.46,1.33-0.78,1.33-1.39c0-0.81-1.03-1.34-1.87-1.34c-1.09,0-1.59,0.51-2.29,1.4
			c-0.19,0.24-0.54,0.28-0.78,0.1l-1.3-0.99c-0.24-0.18-0.29-0.52-0.12-0.77c1.11-1.63,2.52-2.54,4.71-2.54
			c2.3,0,4.76,1.8,4.76,4.16C92.07,172.36,88.68,172.41,88.68,173.57z M87.04,179.03c-1.09,0-1.97-0.88-1.97-1.97
			s0.88-1.97,1.97-1.97s1.97,0.88,1.97,1.97S88.13,179.03,87.04,179.03z"/>
	</g>
	<g>
		<path class="st4" d="M142.72,183.81h-16.03c-1.24,0-2.25-1.01-2.25-2.25v-1.2c0-3.48,2.82-6.3,6.3-6.3c1.35,0,1.99,0.75,4.2,0.75
			c2.12,0,2.7-0.67,4.04-0.73c-0.29,1.14-0.29,1.96-0.29,2.31c-0.47,0.12-1.76,0.67-3.75,0.67c-2.4,0-3.52-0.75-4.2-0.75
			c-2.23,0-4.05,1.82-4.05,4.05v1.2h13.7C141.02,182.44,141.81,183.2,142.72,183.81z M128.19,166.56c0-3.73,3.02-6.75,6.75-6.75
			s6.75,3.02,6.75,6.75s-3.02,6.75-6.75,6.75S128.19,170.29,128.19,166.56z M130.44,166.56c0,2.48,2.02,4.5,4.5,4.5
			s4.5-2.02,4.5-4.5s-2.02-4.5-4.5-4.5S130.44,164.08,130.44,166.56z M154.27,178.01c0.14,0.08,0.2,0.24,0.15,0.4
			c-0.31,1.01-0.85,1.93-1.56,2.69c-0.11,0.12-0.29,0.15-0.42,0.07l-1.21-0.7c-0.51,0.44-1.1,0.77-1.73,1v1.4
			c0,0.16-0.11,0.3-0.27,0.33c-0.99,0.23-2.06,0.23-3.1,0c-0.15-0.03-0.27-0.17-0.27-0.33v-1.4c-0.63-0.22-1.22-0.56-1.73-1
			l-1.21,0.7c-0.14,0.08-0.31,0.05-0.42-0.07c-0.7-0.76-1.24-1.68-1.56-2.69c-0.05-0.16,0.01-0.32,0.15-0.4l1.21-0.7
			c-0.12-0.66-0.12-1.34,0-2l-1.21-0.7c-0.14-0.08-0.2-0.24-0.15-0.4c0.31-1.01,0.85-1.93,1.56-2.69c0.11-0.12,0.29-0.15,0.42-0.07
			l1.21,0.7c0.51-0.44,1.1-0.77,1.73-1v-1.4c0-0.16,0.11-0.3,0.27-0.33c0.99-0.23,2.06-0.23,3.1,0c0.15,0.03,0.27,0.17,0.27,0.33
			v1.4c0.63,0.22,1.22,0.56,1.73,1l1.21-0.7c0.14-0.08,0.31-0.05,0.42,0.07c0.7,0.76,1.24,1.68,1.56,2.69
			c0.05,0.16-0.01,0.32-0.15,0.4l-1.21,0.7c0.12,0.66,0.12,1.34,0,2L154.27,178.01z M149.96,176.31c0-1.25-1.02-2.27-2.27-2.27
			s-2.27,1.02-2.27,2.27s1.02,2.27,2.27,2.27S149.96,177.56,149.96,176.31z"/>
	</g>
	<g>
		<path class="st4" d="M205.33,171.06c0,1.11-0.61,2.06-1.5,2.58v7.17c0,0.43-0.33,1.5-1.5,1.5c-0.29,0-0.71-0.15-0.94-0.33
			l-3.99-3.19c-2-1.6-4.52-2.48-7.08-2.48h-1.32c-0.13,0.48-0.21,0.98-0.21,1.5c0,1.36,0.46,2.62,1.23,3.63
			c0.74,0.97,0.01,2.37-1.21,2.37h-4.98c-0.56,0-1.09-0.3-1.33-0.8c-0.76-1.57-1.2-3.34-1.2-5.2l0.02-1.5c-1.66,0-3-1.34-3-3v-4.5
			c0-1.66,1.34-3,3-3h9c2.56,0,5.08-0.88,7.08-2.48l3.99-3.19c0.27-0.22,0.6-0.33,0.94-0.33h0c1.17,0,1.5,1.09,1.5,1.5v7.17
			C204.72,169,205.33,169.95,205.33,171.06z M189.58,168.06h-8.25c-0.41,0-0.75,0.34-0.75,0.75v4.5c0,0.41,0.34,0.75,0.75,0.75h8.25
			V168.06z M187.46,181.56c-0.59-1.15-0.9-2.43-0.9-3.75c0-0.5,0.07-1,0.17-1.5h-3.04c-0.04,0.31-0.12,0.83-0.12,1.5
			c0,1.3,0.26,2.56,0.76,3.75H187.46z M201.58,162.87l-2.77,2.21c-2.01,1.6-4.44,2.6-6.98,2.88v6.19c2.54,0.29,4.98,1.28,6.98,2.88
			l2.77,2.21V162.87z"/>
	</g>
	<g>
		<path class="st4" d="M256.22,171.5v10.66c0,0.91-0.67,1.65-1.5,1.65h-21c-0.83,0-1.5-0.74-1.5-1.65V171.5
			c-2.25-0.95-3.17-3.92-1.78-6.13l3.04-4.86c0.27-0.44,0.75-0.7,1.27-0.7h18.94c0.52,0,1,0.27,1.27,0.7l3.04,4.86
			C259.39,167.58,258.47,170.55,256.22,171.5z M256.1,166.56l-2.82-4.5h-18.11l-2.82,4.5c-0.44,0.7-0.34,1.49-0.11,2
			c0.15,0.32,0.52,0.87,1.27,0.97c0.11,0.01,0.22,0.02,0.34,0.02c0.68,0,1.32-0.29,1.79-0.81l1.67-1.87l1.68,1.87
			c0.46,0.52,1.1,0.81,1.79,0.81c0.68,0,1.32-0.29,1.79-0.81l1.67-1.87l1.68,1.87c0.46,0.52,1.1,0.81,1.79,0.81
			c0.68,0,1.32-0.29,1.79-0.81l1.67-1.87l1.67,1.87c0.46,0.52,1.1,0.81,1.79,0.81c0.11,0,0.23-0.01,0.34-0.02
			c0.75-0.1,1.12-0.66,1.27-0.98C256.45,168.06,256.54,167.27,256.1,166.56z M253.97,171.77c-1.12-0.16-2.11-0.71-2.83-1.51
			c-0.84,0.94-2.07,1.55-3.46,1.55c-1.38,0-2.62-0.61-3.46-1.55c-0.84,0.94-2.07,1.55-3.46,1.55c-1.38,0-2.62-0.61-3.46-1.55
			c-0.71,0.8-1.7,1.35-2.83,1.51v3.03h19.49V171.77z M253.97,177.06h-19.5v4.5h19.5V177.06z"/>
	</g>
	<line class="st5" x1="0" y1="142.8" x2="274.29" y2="142.8"/>
	<line class="st5" x1="0" y1="206.8" x2="274.29" y2="206.8"/>
	<line class="st5" x1="0" y1="270.8" x2="274.29" y2="270.8"/>
	<line class="st5" x1="0" y1="334.8" x2="274.29" y2="334.8"/>
	<line class="st5" x1="0" y1="398.8" x2="274.29" y2="398.8"/>
	<line class="st5" x1="0" y1="462.8" x2="274.29" y2="462.8"/>
	<line class="st5" x1="0" y1="526.8" x2="274.29" y2="526.8"/>
	<line class="st5" x1="0" y1="590.8" x2="274.29" y2="590.8"/>
	<line class="st5" x1="0" y1="654.8" x2="274.29" y2="654.8"/>
	<line class="st5" x1="0" y1="718.8" x2="274.29" y2="718.8"/>
	<line class="st5" x1="0" y1="782.8" x2="274.29" y2="782.8"/>
	<line class="st5" x1="0" y1="846.8" x2="274.29" y2="846.8"/>
	<path class="st6" d="M150.16,251.56H32.27c-5.57,0-10.08-4.51-10.08-10.08v0c0-5.57,4.51-10.08,10.08-10.08h117.88
		c5.57,0,10.08,4.51,10.08,10.08v0C160.24,247.05,155.73,251.56,150.16,251.56z"/>
	<path class="st6" d="M195.37,131.97H77.49c-5.57,0-10.08-4.51-10.08-10.08v0c0-5.57,4.51-10.08,10.08-10.08h117.88
		c5.57,0,10.08,4.51,10.08,10.08v0C205.46,127.45,200.94,131.97,195.37,131.97z"/>
	<path class="st6" d="M135.33,314.32H32.27c-5.57,0-10.08-4.51-10.08-10.08l0,0c0-5.57,4.51-10.08,10.08-10.08h103.06
		c5.57,0,10.08,4.51,10.08,10.08l0,0C145.42,309.81,140.9,314.32,135.33,314.32z"/>
	<path class="st6" d="M144.43,378H32.27c-5.57,0-10.08-4.51-10.08-10.08l0,0c0-5.57,4.51-10.08,10.08-10.08h112.16
		c5.57,0,10.08,4.51,10.08,10.08l0,0C154.51,373.48,150,378,144.43,378z"/>
	<path class="st6" d="M132.24,442.87H32.27c-5.57,0-10.08-4.51-10.08-10.08l0,0c0-5.57,4.51-10.08,10.08-10.08h99.97
		c5.57,0,10.08,4.51,10.08,10.08l0,0C142.32,438.35,137.81,442.87,132.24,442.87z"/>
	<path class="st6" d="M132.24,632.88H32.27c-5.57,0-10.08-4.51-10.08-10.08l0,0c0-5.57,4.51-10.08,10.08-10.08h99.97
		c5.57,0,10.08,4.51,10.08,10.08l0,0C142.32,628.37,137.81,632.88,132.24,632.88z"/>
	<path class="st6" d="M144.43,506.72H32.27c-5.57,0-10.08-4.51-10.08-10.08l0,0c0-5.57,4.51-10.08,10.08-10.08h112.16
		c5.57,0,10.08,4.51,10.08,10.08l0,0C154.51,502.2,150,506.72,144.43,506.72z"/>
	<path class="st6" d="M158.65,568.88H32.27c-5.57,0-10.08-4.51-10.08-10.08l0,0c0-5.57,4.51-10.08,10.08-10.08h126.38
		c5.57,0,10.08,4.51,10.08,10.08l0,0C168.73,564.37,164.22,568.88,158.65,568.88z"/>
	<path class="st6" d="M132.24,696.88H32.27c-5.57,0-10.08-4.51-10.08-10.08l0,0c0-5.57,4.51-10.08,10.08-10.08h99.97
		c5.57,0,10.08,4.51,10.08,10.08l0,0C142.32,692.37,137.81,696.88,132.24,696.88z"/>
	<path class="st6" d="M132.24,824.88H32.27c-5.57,0-10.08-4.51-10.08-10.08l0,0c0-5.57,4.51-10.08,10.08-10.08h99.97
		c5.57,0,10.08,4.51,10.08,10.08l0,0C142.32,820.37,137.81,824.88,132.24,824.88z"/>
	<path class="st6" d="M149.08,760.88H32.27c-5.57,0-10.08-4.51-10.08-10.08l0,0c0-5.57,4.51-10.08,10.08-10.08h116.81
		c5.57,0,10.08,4.51,10.08,10.08l0,0C159.16,756.37,154.65,760.88,149.08,760.88z"/>
	<g>
		<path class="st7" d="M49.77,75.6c-1.31,0.89-2.76,1.65-4.25,2.17c-1.6,0.52-3.24,0.8-4.93,0.8c-2.27,0.05-4.54-0.47-6.57-1.46
			c-1.93-0.94-3.67-2.21-5.12-3.81c-1.45-1.6-2.56-3.44-3.29-5.42c-0.77-2.02-1.16-4.14-1.16-6.26c0-2.21,0.44-4.38,1.21-6.4
			c0.77-1.98,1.93-3.81,3.43-5.42c1.45-1.55,3.19-2.83,5.12-3.72c2.03-0.94,4.21-1.41,6.43-1.37c2.27-0.05,4.54,0.47,6.57,1.51
			c1.93,0.94,3.67,2.26,5.08,3.91c1.4,1.6,2.51,3.44,3.29,5.46c0.77,1.98,1.16,4.1,1.16,6.17c0,2.21-0.39,4.38-1.26,6.45
			c-0.77,1.98-1.93,3.81-3.38,5.42l4.35,4.71h-4.25L49.77,75.6z M40.63,74.75c1.21,0,2.42-0.19,3.53-0.57
			c1.06-0.38,2.08-0.89,3-1.55l-4.59-5.23h4.25l2.61,2.97c1.93-2.54,2.95-5.6,2.95-8.76c0-1.7-0.29-3.34-0.87-4.94
			c-0.53-1.55-1.35-2.97-2.42-4.24c-1.02-1.22-2.27-2.21-3.72-2.92c-1.45-0.75-3.09-1.08-4.74-1.08c-1.69,0-3.43,0.42-4.93,1.18
			c-1.45,0.75-2.71,1.74-3.67,3.01c-1.02,1.27-1.84,2.68-2.37,4.24c-1.11,3.15-1.11,6.59,0,9.7c0.53,1.55,1.35,2.97,2.42,4.24
			c1.02,1.22,2.27,2.21,3.72,2.92C37.3,74.42,38.94,74.8,40.63,74.75z"/>
		<path class="st7" d="M67.9,78.8c-2.66,0-4.64-0.85-5.99-2.59c-1.35-1.74-2.03-4.28-2.03-7.72V53.75h4.25v13.94
			c0,5.04,1.79,7.53,5.37,7.53c1.79,0,3.48-0.57,4.88-1.6c1.55-1.13,2.76-2.68,3.43-4.47v-15.4h4.25v19.49
			c0,0.99,0.44,1.46,1.35,1.51v3.58c-0.48,0.05-0.87,0.09-1.11,0.14s-0.53,0-0.82,0c-0.77,0.05-1.5-0.24-2.08-0.75
			c-0.53-0.47-0.87-1.13-0.87-1.79l-0.1-2.87c-1.06,1.79-2.61,3.25-4.45,4.24C72.1,78.28,70.02,78.8,67.9,78.8z"/>
		<path class="st7" d="M87.23,49.13v-5.18h4.25v5.18H87.23z M87.23,78.33V53.75h4.25v24.58H87.23z"/>
		<path class="st7" d="M94.72,65.99c0-1.7,0.29-3.34,0.92-4.9c0.58-1.51,1.45-2.87,2.61-4c1.16-1.18,2.51-2.07,4.06-2.73
			c1.64-0.71,3.43-1.04,5.27-1.04c2.27-0.05,4.54,0.52,6.48,1.65c1.79,1.04,3.19,2.54,4.16,4.33l-4.16,1.27
			c-0.63-1.13-1.55-2.07-2.71-2.73c-1.16-0.66-2.51-0.99-3.87-0.94c-2.27,0-4.45,0.94-5.95,2.59c-0.77,0.85-1.35,1.84-1.74,2.87
			c-0.44,1.18-0.68,2.4-0.68,3.63s0.24,2.45,0.68,3.63c0.44,1.08,1.02,2.07,1.84,2.97c0.73,0.8,1.64,1.51,2.66,1.98
			s2.13,0.71,3.29,0.71c0.73,0,1.5-0.09,2.22-0.33c0.68-0.19,1.35-0.47,1.98-0.85c0.58-0.33,1.11-0.75,1.59-1.18
			c0.44-0.42,0.77-0.94,0.97-1.51l4.16,1.22c-0.39,0.89-0.92,1.74-1.59,2.5c-0.68,0.75-1.5,1.41-2.42,1.93
			c-0.97,0.57-2.03,0.99-3.09,1.27c-1.21,0.33-2.42,0.47-3.67,0.47c-3.48,0.05-6.86-1.32-9.28-3.81c-1.16-1.18-2.03-2.54-2.61-4.1
			C95.01,69.33,94.72,67.69,94.72,65.99z"/>
		<path class="st7" d="M139.05,78.33l-8.7-12.01l-4.83,4.43v7.58h-4.25V43.95h4.25v22.6l12.95-12.76h4.69L133.1,63.97l10.54,14.36
			H139.05z"/>
		<path class="st4" d="M158.33,78.8c-1.89,0-3.72-0.47-5.37-1.41c-1.55-0.89-2.9-2.17-3.82-3.67v4.61h-3.77V43.95h4.25v14.69
			c1.02-1.55,2.32-2.87,3.92-3.86c3.09-1.79,6.91-1.93,10.1-0.38c1.35,0.71,2.56,1.7,3.58,2.83c1.02,1.22,1.79,2.59,2.27,4.1
			c0.53,1.55,0.77,3.15,0.77,4.76c0,1.7-0.29,3.34-0.92,4.9c-0.58,1.46-1.45,2.83-2.51,4.05c-1.06,1.13-2.37,2.07-3.82,2.73
			C161.57,78.47,159.98,78.8,158.33,78.8z M157.27,75.22c1.21,0,2.42-0.24,3.48-0.75c1.06-0.47,1.98-1.18,2.75-2.02
			c0.77-0.85,1.4-1.84,1.79-2.92c0.44-1.08,0.63-2.26,0.63-3.44c0-1.18-0.19-2.35-0.63-3.44c-0.39-1.08-0.97-2.07-1.69-2.97
			c-0.73-0.85-1.59-1.55-2.61-2.07c-1.02-0.52-2.17-0.8-3.38-0.75c-0.87,0-1.74,0.14-2.56,0.47c-0.82,0.33-1.55,0.75-2.22,1.22
			c-0.68,0.52-1.31,1.13-1.84,1.84c-0.53,0.71-1.02,1.41-1.4,2.21v7.11c0.15,0.8,0.53,1.55,1.02,2.17c0.53,0.66,1.16,1.22,1.89,1.74
			c0.72,0.47,1.5,0.85,2.32,1.18C155.63,75.08,156.45,75.22,157.27,75.22z"/>
		<path class="st4" d="M181.34,78.8c-2.66,0-4.64-0.85-5.99-2.59c-1.35-1.74-2.03-4.28-2.03-7.72V53.75h4.25v13.94
			c0,5.04,1.79,7.53,5.37,7.53c1.74,0,3.48-0.57,4.88-1.6c1.55-1.13,2.76-2.68,3.38-4.47v-15.4h4.25v19.49
			c0,0.99,0.44,1.46,1.35,1.51v3.58c-0.48,0.05-0.87,0.09-1.16,0.14c-0.29,0.05-0.53,0-0.77,0c-0.77,0-1.5-0.24-2.13-0.75
			c-0.53-0.47-0.87-1.13-0.92-1.79l-0.1-2.87c-1.06,1.79-2.61,3.25-4.45,4.24C185.5,78.28,183.42,78.8,181.34,78.8z"/>
		<path class="st4" d="M213.72,77.1c-0.24,0.14-0.58,0.28-1.02,0.42c-0.43,0.14-0.92,0.33-1.45,0.52c-0.58,0.19-1.16,0.33-1.74,0.42
			c-0.63,0.09-1.31,0.19-1.93,0.14c-1.45,0.05-2.85-0.42-4.01-1.27c-1.11-0.85-1.69-2.12-1.69-3.91V57h-3.43v-3.25h3.43v-8.19h4.25
			v8.19h5.65V57h-5.65v15.26c0,0.75,0.34,1.46,0.92,1.98c0.53,0.42,1.26,0.61,1.93,0.61c0.77,0,1.55-0.14,2.32-0.38
			c0.48-0.19,0.97-0.38,1.45-0.61L213.72,77.1z"/>
		<path class="st4" d="M215.75,49.13v-5.18h4.25v5.18H215.75z M215.75,78.33V53.75h4.25v24.58H215.75z"/>
		<path class="st4" d="M242.73,78.33l-8.7-12.01l-4.83,4.43v7.58h-4.25V43.95h4.25v22.6l12.95-12.76h4.69l-10.05,10.17l10.54,14.36
			H242.73z"/>
	</g>
</g>
</svg>
