<svg width="489" height="544" viewBox="0 0 489 544" fill="none" xmlns="http://www.w3.org/2000/svg">
<rect width="489" height="466" fill="#362F4A"/>
<path d="M64.46 60.38V59.246L57.674 55.988L64.46 52.694V51.56L56.522 55.502V56.456L64.46 60.38ZM68.5464 62.216C69.3204 62.216 69.8064 61.982 70.1484 61.658L69.7524 60.632C69.5724 60.83 69.2304 61.01 68.8344 61.01C68.2584 61.01 67.9704 60.542 67.9704 59.894V54.494H69.7344V53.306H67.9704V50.93H66.6024V53.306H65.1624V54.494H66.6024V60.182C66.6024 61.478 67.2504 62.216 68.5464 62.216ZM72.3074 52.064C72.8114 52.064 73.2074 51.668 73.2074 51.164C73.2074 50.66 72.8114 50.246 72.3074 50.246C71.8034 50.246 71.3894 50.66 71.3894 51.164C71.3894 51.668 71.8034 52.064 72.3074 52.064ZM72.9734 62V53.306H71.6234V62H72.9734ZM77.8804 62.216C78.6544 62.216 79.1404 61.982 79.4824 61.658L79.0864 60.632C78.9064 60.83 78.5644 61.01 78.1684 61.01C77.5924 61.01 77.3044 60.542 77.3044 59.894V54.494H79.0684V53.306H77.3044V50.93H75.9364V53.306H74.4964V54.494H75.9364V60.182C75.9364 61.478 76.5844 62.216 77.8804 62.216ZM82.3074 62V49.994H80.9574V62H82.3074ZM88.9424 62.216C90.3464 62.216 91.5164 61.73 92.3984 60.866L91.7504 59.984C91.0484 60.704 90.0584 61.1 89.0504 61.1C87.1784 61.1 86.0444 59.732 85.9364 58.094H92.9564V57.752C92.9564 55.142 91.4084 53.09 88.7804 53.09C86.2964 53.09 84.4964 55.124 84.4964 57.644C84.4964 60.362 86.3504 62.216 88.9424 62.216ZM91.6244 57.086H85.9184C85.9904 55.772 86.9084 54.206 88.7624 54.206C90.7424 54.206 91.6064 55.808 91.6244 57.086ZM102.253 56.456V55.502L94.315 51.56V52.694L101.101 55.988L94.315 59.246V60.38L102.253 56.456ZM191.251 60.38V59.246L184.465 55.988L191.251 52.694V51.56L183.313 55.502V56.456L191.251 60.38ZM192.835 62.36L197.101 49.634H196.039L191.773 62.36H192.835ZM200.664 62.216C201.438 62.216 201.924 61.982 202.266 61.658L201.87 60.632C201.69 60.83 201.348 61.01 200.952 61.01C200.376 61.01 200.088 60.542 200.088 59.894V54.494H201.852V53.306H200.088V50.93H198.72V53.306H197.28V54.494H198.72V60.182C198.72 61.478 199.368 62.216 200.664 62.216ZM204.425 52.064C204.929 52.064 205.325 51.668 205.325 51.164C205.325 50.66 204.929 50.246 204.425 50.246C203.921 50.246 203.507 50.66 203.507 51.164C203.507 51.668 203.921 52.064 204.425 52.064ZM205.091 62V53.306H203.741V62H205.091ZM209.998 62.216C210.772 62.216 211.258 61.982 211.6 61.658L211.204 60.632C211.024 60.83 210.682 61.01 210.286 61.01C209.71 61.01 209.422 60.542 209.422 59.894V54.494H211.186V53.306H209.422V50.93H208.054V53.306H206.614V54.494H208.054V60.182C208.054 61.478 208.702 62.216 209.998 62.216ZM214.425 62V49.994H213.075V62H214.425ZM221.06 62.216C222.464 62.216 223.634 61.73 224.516 60.866L223.868 59.984C223.166 60.704 222.176 61.1 221.168 61.1C219.296 61.1 218.162 59.732 218.054 58.094H225.074V57.752C225.074 55.142 223.526 53.09 220.898 53.09C218.414 53.09 216.614 55.124 216.614 57.644C216.614 60.362 218.468 62.216 221.06 62.216ZM223.742 57.086H218.036C218.108 55.772 219.026 54.206 220.88 54.206C222.86 54.206 223.724 55.808 223.742 57.086ZM234.37 56.456V55.502L226.432 51.56V52.694L233.218 55.988L226.432 59.246V60.38L234.37 56.456ZM64.46 110.38V109.246L57.674 105.988L64.46 102.694V101.56L56.522 105.502V106.456L64.46 110.38ZM78.1764 112V105.718C78.1764 103.972 77.3304 103.09 75.7464 103.09C74.4864 103.09 73.3164 103.918 72.8304 104.71C72.5784 103.81 71.8224 103.09 70.5084 103.09C69.2124 103.09 68.0604 104.008 67.6824 104.566V103.306H66.3324V112H67.6824V105.646C68.1504 104.944 69.0864 104.296 69.9684 104.296C71.1204 104.296 71.5704 104.998 71.5704 106.096V112H72.9204V105.628C73.3704 104.926 74.3244 104.296 75.2244 104.296C76.3584 104.296 76.8264 104.998 76.8264 106.096V112H78.1764ZM84.8115 112.216C86.2155 112.216 87.3855 111.73 88.2675 110.866L87.6195 109.984C86.9175 110.704 85.9275 111.1 84.9195 111.1C83.0475 111.1 81.9135 109.732 81.8055 108.094H88.8255V107.752C88.8255 105.142 87.2775 103.09 84.6495 103.09C82.1655 103.09 80.3655 105.124 80.3655 107.644C80.3655 110.362 82.2195 112.216 84.8115 112.216ZM87.4935 107.086H81.7875C81.8595 105.772 82.7775 104.206 84.6315 104.206C86.6115 104.206 87.4755 105.808 87.4935 107.086ZM93.2261 112.216C94.0001 112.216 94.4861 111.982 94.8281 111.658L94.4321 110.632C94.2521 110.83 93.9101 111.01 93.5141 111.01C92.9381 111.01 92.6501 110.542 92.6501 109.894V104.494H94.4141V103.306H92.6501V100.93H91.2821V103.306H89.8421V104.494H91.2821V110.182C91.2821 111.478 91.9301 112.216 93.2261 112.216ZM103.089 112V106.024C103.089 103.918 101.577 103.09 99.7231 103.09C98.3011 103.09 97.1851 103.558 96.2491 104.53L96.8791 105.466C97.6531 104.62 98.4991 104.26 99.5431 104.26C100.803 104.26 101.739 104.926 101.739 106.078V107.644C101.037 106.852 100.047 106.474 98.8591 106.474C97.3831 106.474 95.8351 107.374 95.8351 109.336C95.8351 111.226 97.4011 112.216 98.8591 112.216C100.029 112.216 101.037 111.802 101.739 111.01V112H103.089ZM99.3631 111.244C98.0851 111.244 97.2031 110.452 97.2031 109.336C97.2031 108.238 98.0851 107.446 99.3631 107.446C100.299 107.446 101.217 107.806 101.739 108.508V110.164C101.217 110.884 100.299 111.244 99.3631 111.244ZM401.734 112.36L406 99.634H404.938L400.672 112.36H401.734ZM414.458 106.456V105.502L406.52 101.56V102.694L413.306 105.988L406.52 109.246V110.38L414.458 106.456ZM64.46 160.38V159.246L57.674 155.988L64.46 152.694V151.56L56.522 155.502V156.456L64.46 160.38ZM78.1764 162V155.718C78.1764 153.972 77.3304 153.09 75.7464 153.09C74.4864 153.09 73.3164 153.918 72.8304 154.71C72.5784 153.81 71.8224 153.09 70.5084 153.09C69.2124 153.09 68.0604 154.008 67.6824 154.566V153.306H66.3324V162H67.6824V155.646C68.1504 154.944 69.0864 154.296 69.9684 154.296C71.1204 154.296 71.5704 154.998 71.5704 156.096V162H72.9204V155.628C73.3704 154.926 74.3244 154.296 75.2244 154.296C76.3584 154.296 76.8264 154.998 76.8264 156.096V162H78.1764ZM84.8115 162.216C86.2155 162.216 87.3855 161.73 88.2675 160.866L87.6195 159.984C86.9175 160.704 85.9275 161.1 84.9195 161.1C83.0475 161.1 81.9135 159.732 81.8055 158.094H88.8255V157.752C88.8255 155.142 87.2775 153.09 84.6495 153.09C82.1655 153.09 80.3655 155.124 80.3655 157.644C80.3655 160.362 82.2195 162.216 84.8115 162.216ZM87.4935 157.086H81.7875C81.8595 155.772 82.7775 154.206 84.6315 154.206C86.6115 154.206 87.4755 155.808 87.4935 157.086ZM93.2261 162.216C94.0001 162.216 94.4861 161.982 94.8281 161.658L94.4321 160.632C94.2521 160.83 93.9101 161.01 93.5141 161.01C92.9381 161.01 92.6501 160.542 92.6501 159.894V154.494H94.4141V153.306H92.6501V150.93H91.2821V153.306H89.8421V154.494H91.2821V160.182C91.2821 161.478 91.9301 162.216 93.2261 162.216ZM103.089 162V156.024C103.089 153.918 101.577 153.09 99.7231 153.09C98.3011 153.09 97.1851 153.558 96.2491 154.53L96.8791 155.466C97.6531 154.62 98.4991 154.26 99.5431 154.26C100.803 154.26 101.739 154.926 101.739 156.078V157.644C101.037 156.852 100.047 156.474 98.8591 156.474C97.3831 156.474 95.8351 157.374 95.8351 159.336C95.8351 161.226 97.4011 162.216 98.8591 162.216C100.029 162.216 101.037 161.802 101.739 161.01V162H103.089ZM99.3631 161.244C98.0851 161.244 97.2031 160.452 97.2031 159.336C97.2031 158.238 98.0851 157.446 99.3631 157.446C100.299 157.446 101.217 157.806 101.739 158.508V160.164C101.217 160.884 100.299 161.244 99.3631 161.244ZM315.478 162.36L319.744 149.634H318.682L314.416 162.36H315.478ZM328.202 156.456V155.502L320.264 151.56V152.694L327.05 155.988L320.264 159.246V160.38L328.202 156.456ZM64.46 210.38V209.246L57.674 205.988L64.46 202.694V201.56L56.522 205.502V206.456L64.46 210.38ZM78.1764 212V205.718C78.1764 203.972 77.3304 203.09 75.7464 203.09C74.4864 203.09 73.3164 203.918 72.8304 204.71C72.5784 203.81 71.8224 203.09 70.5084 203.09C69.2124 203.09 68.0604 204.008 67.6824 204.566V203.306H66.3324V212H67.6824V205.646C68.1504 204.944 69.0864 204.296 69.9684 204.296C71.1204 204.296 71.5704 204.998 71.5704 206.096V212H72.9204V205.628C73.3704 204.926 74.3244 204.296 75.2244 204.296C76.3584 204.296 76.8264 204.998 76.8264 206.096V212H78.1764ZM84.8115 212.216C86.2155 212.216 87.3855 211.73 88.2675 210.866L87.6195 209.984C86.9175 210.704 85.9275 211.1 84.9195 211.1C83.0475 211.1 81.9135 209.732 81.8055 208.094H88.8255V207.752C88.8255 205.142 87.2775 203.09 84.6495 203.09C82.1655 203.09 80.3655 205.124 80.3655 207.644C80.3655 210.362 82.2195 212.216 84.8115 212.216ZM87.4935 207.086H81.7875C81.8595 205.772 82.7775 204.206 84.6315 204.206C86.6115 204.206 87.4755 205.808 87.4935 207.086ZM93.2261 212.216C94.0001 212.216 94.4861 211.982 94.8281 211.658L94.4321 210.632C94.2521 210.83 93.9101 211.01 93.5141 211.01C92.9381 211.01 92.6501 210.542 92.6501 209.894V204.494H94.4141V203.306H92.6501V200.93H91.2821V203.306H89.8421V204.494H91.2821V210.182C91.2821 211.478 91.9301 212.216 93.2261 212.216ZM103.089 212V206.024C103.089 203.918 101.577 203.09 99.7231 203.09C98.3011 203.09 97.1851 203.558 96.2491 204.53L96.8791 205.466C97.6531 204.62 98.4991 204.26 99.5431 204.26C100.803 204.26 101.739 204.926 101.739 206.078V207.644C101.037 206.852 100.047 206.474 98.8591 206.474C97.3831 206.474 95.8351 207.374 95.8351 209.336C95.8351 211.226 97.4011 212.216 98.8591 212.216C100.029 212.216 101.037 211.802 101.739 211.01V212H103.089ZM99.3631 211.244C98.0851 211.244 97.2031 210.452 97.2031 209.336C97.2031 208.238 98.0851 207.446 99.3631 207.446C100.299 207.446 101.217 207.806 101.739 208.508V210.164C101.217 210.884 100.299 211.244 99.3631 211.244ZM276.033 212.36L280.299 199.634H279.237L274.971 212.36H276.033ZM288.757 206.456V205.502L280.819 201.56V202.694L287.605 205.988L280.819 209.246V210.38L288.757 206.456ZM64.46 235.38V234.246L57.674 230.988L64.46 227.694V226.56L56.522 230.502V231.456L64.46 235.38ZM78.1764 237V230.718C78.1764 228.972 77.3304 228.09 75.7464 228.09C74.4864 228.09 73.3164 228.918 72.8304 229.71C72.5784 228.81 71.8224 228.09 70.5084 228.09C69.2124 228.09 68.0604 229.008 67.6824 229.566V228.306H66.3324V237H67.6824V230.646C68.1504 229.944 69.0864 229.296 69.9684 229.296C71.1204 229.296 71.5704 229.998 71.5704 231.096V237H72.9204V230.628C73.3704 229.926 74.3244 229.296 75.2244 229.296C76.3584 229.296 76.8264 229.998 76.8264 231.096V237H78.1764ZM84.8115 237.216C86.2155 237.216 87.3855 236.73 88.2675 235.866L87.6195 234.984C86.9175 235.704 85.9275 236.1 84.9195 236.1C83.0475 236.1 81.9135 234.732 81.8055 233.094H88.8255V232.752C88.8255 230.142 87.2775 228.09 84.6495 228.09C82.1655 228.09 80.3655 230.124 80.3655 232.644C80.3655 235.362 82.2195 237.216 84.8115 237.216ZM87.4935 232.086H81.7875C81.8595 230.772 82.7775 229.206 84.6315 229.206C86.6115 229.206 87.4755 230.808 87.4935 232.086ZM93.2261 237.216C94.0001 237.216 94.4861 236.982 94.8281 236.658L94.4321 235.632C94.2521 235.83 93.9101 236.01 93.5141 236.01C92.9381 236.01 92.6501 235.542 92.6501 234.894V229.494H94.4141V228.306H92.6501V225.93H91.2821V228.306H89.8421V229.494H91.2821V235.182C91.2821 236.478 91.9301 237.216 93.2261 237.216ZM103.089 237V231.024C103.089 228.918 101.577 228.09 99.7231 228.09C98.3011 228.09 97.1851 228.558 96.2491 229.53L96.8791 230.466C97.6531 229.62 98.4991 229.26 99.5431 229.26C100.803 229.26 101.739 229.926 101.739 231.078V232.644C101.037 231.852 100.047 231.474 98.8591 231.474C97.3831 231.474 95.8351 232.374 95.8351 234.336C95.8351 236.226 97.4011 237.216 98.8591 237.216C100.029 237.216 101.037 236.802 101.739 236.01V237H103.089ZM99.3631 236.244C98.0851 236.244 97.2031 235.452 97.2031 234.336C97.2031 233.238 98.0851 232.446 99.3631 232.446C100.299 232.446 101.217 232.806 101.739 233.508V235.164C101.217 235.884 100.299 236.244 99.3631 236.244ZM276.033 237.36L280.299 224.634H279.237L274.971 237.36H276.033ZM288.757 231.456V230.502L280.819 226.56V227.694L287.605 230.988L280.819 234.246V235.38L288.757 231.456ZM64.46 285.38V284.246L57.674 280.988L64.46 277.694V276.56L56.522 280.502V281.456L64.46 285.38ZM78.1764 287V280.718C78.1764 278.972 77.3304 278.09 75.7464 278.09C74.4864 278.09 73.3164 278.918 72.8304 279.71C72.5784 278.81 71.8224 278.09 70.5084 278.09C69.2124 278.09 68.0604 279.008 67.6824 279.566V278.306H66.3324V287H67.6824V280.646C68.1504 279.944 69.0864 279.296 69.9684 279.296C71.1204 279.296 71.5704 279.998 71.5704 281.096V287H72.9204V280.628C73.3704 279.926 74.3244 279.296 75.2244 279.296C76.3584 279.296 76.8264 279.998 76.8264 281.096V287H78.1764ZM84.8115 287.216C86.2155 287.216 87.3855 286.73 88.2675 285.866L87.6195 284.984C86.9175 285.704 85.9275 286.1 84.9195 286.1C83.0475 286.1 81.9135 284.732 81.8055 283.094H88.8255V282.752C88.8255 280.142 87.2775 278.09 84.6495 278.09C82.1655 278.09 80.3655 280.124 80.3655 282.644C80.3655 285.362 82.2195 287.216 84.8115 287.216ZM87.4935 282.086H81.7875C81.8595 280.772 82.7775 279.206 84.6315 279.206C86.6115 279.206 87.4755 280.808 87.4935 282.086ZM93.2261 287.216C94.0001 287.216 94.4861 286.982 94.8281 286.658L94.4321 285.632C94.2521 285.83 93.9101 286.01 93.5141 286.01C92.9381 286.01 92.6501 285.542 92.6501 284.894V279.494H94.4141V278.306H92.6501V275.93H91.2821V278.306H89.8421V279.494H91.2821V285.182C91.2821 286.478 91.9301 287.216 93.2261 287.216ZM103.089 287V281.024C103.089 278.918 101.577 278.09 99.7231 278.09C98.3011 278.09 97.1851 278.558 96.2491 279.53L96.8791 280.466C97.6531 279.62 98.4991 279.26 99.5431 279.26C100.803 279.26 101.739 279.926 101.739 281.078V282.644C101.037 281.852 100.047 281.474 98.8591 281.474C97.3831 281.474 95.8351 282.374 95.8351 284.336C95.8351 286.226 97.4011 287.216 98.8591 287.216C100.029 287.216 101.037 286.802 101.739 286.01V287H103.089ZM99.3631 286.244C98.0851 286.244 97.2031 285.452 97.2031 284.336C97.2031 283.238 98.0851 282.446 99.3631 282.446C100.299 282.446 101.217 282.806 101.739 283.508V285.164C101.217 285.884 100.299 286.244 99.3631 286.244ZM276.033 287.36L280.299 274.634H279.237L274.971 287.36H276.033ZM288.757 281.456V280.502L280.819 276.56V277.694L287.605 280.988L280.819 284.246V285.38L288.757 281.456ZM64.46 310.38V309.246L57.674 305.988L64.46 302.694V301.56L56.522 305.502V306.456L64.46 310.38ZM78.1764 312V305.718C78.1764 303.972 77.3304 303.09 75.7464 303.09C74.4864 303.09 73.3164 303.918 72.8304 304.71C72.5784 303.81 71.8224 303.09 70.5084 303.09C69.2124 303.09 68.0604 304.008 67.6824 304.566V303.306H66.3324V312H67.6824V305.646C68.1504 304.944 69.0864 304.296 69.9684 304.296C71.1204 304.296 71.5704 304.998 71.5704 306.096V312H72.9204V305.628C73.3704 304.926 74.3244 304.296 75.2244 304.296C76.3584 304.296 76.8264 304.998 76.8264 306.096V312H78.1764ZM84.8115 312.216C86.2155 312.216 87.3855 311.73 88.2675 310.866L87.6195 309.984C86.9175 310.704 85.9275 311.1 84.9195 311.1C83.0475 311.1 81.9135 309.732 81.8055 308.094H88.8255V307.752C88.8255 305.142 87.2775 303.09 84.6495 303.09C82.1655 303.09 80.3655 305.124 80.3655 307.644C80.3655 310.362 82.2195 312.216 84.8115 312.216ZM87.4935 307.086H81.7875C81.8595 305.772 82.7775 304.206 84.6315 304.206C86.6115 304.206 87.4755 305.808 87.4935 307.086ZM93.2261 312.216C94.0001 312.216 94.4861 311.982 94.8281 311.658L94.4321 310.632C94.2521 310.83 93.9101 311.01 93.5141 311.01C92.9381 311.01 92.6501 310.542 92.6501 309.894V304.494H94.4141V303.306H92.6501V300.93H91.2821V303.306H89.8421V304.494H91.2821V310.182C91.2821 311.478 91.9301 312.216 93.2261 312.216ZM103.089 312V306.024C103.089 303.918 101.577 303.09 99.7231 303.09C98.3011 303.09 97.1851 303.558 96.2491 304.53L96.8791 305.466C97.6531 304.62 98.4991 304.26 99.5431 304.26C100.803 304.26 101.739 304.926 101.739 306.078V307.644C101.037 306.852 100.047 306.474 98.8591 306.474C97.3831 306.474 95.8351 307.374 95.8351 309.336C95.8351 311.226 97.4011 312.216 98.8591 312.216C100.029 312.216 101.037 311.802 101.739 311.01V312H103.089ZM99.3631 311.244C98.0851 311.244 97.2031 310.452 97.2031 309.336C97.2031 308.238 98.0851 307.446 99.3631 307.446C100.299 307.446 101.217 307.806 101.739 308.508V310.164C101.217 310.884 100.299 311.244 99.3631 311.244ZM276.033 312.36L280.299 299.634H279.237L274.971 312.36H276.033ZM288.757 306.456V305.502L280.819 301.56V302.694L287.605 305.988L280.819 309.246V310.38L288.757 306.456Z" fill="#6154F9"/>
<path d="M107.167 65.42V64.43H106.051C105.421 64.43 104.863 63.818 104.863 62.99V59.192C104.863 58.436 104.647 57.86 104.053 57.608C104.647 57.356 104.863 56.78 104.863 56.024V52.208C104.863 51.362 105.421 50.786 106.051 50.786H107.167V49.796H106.051C104.917 49.796 103.819 50.732 103.819 52.226V55.916C103.819 56.582 103.513 57.158 102.865 57.158V58.058C103.513 58.058 103.819 58.634 103.819 59.3V63.008C103.819 64.484 104.917 65.42 106.051 65.42H107.167ZM111.861 65.42V64.43H110.745C110.115 64.43 109.557 63.818 109.557 62.99V59.192C109.557 58.436 109.341 57.86 108.747 57.608C109.341 57.356 109.557 56.78 109.557 56.024V52.208C109.557 51.362 110.115 50.786 110.745 50.786H111.861V49.796H110.745C109.611 49.796 108.513 50.732 108.513 52.226V55.916C108.513 56.582 108.207 57.158 107.559 57.158V58.058C108.207 58.058 108.513 58.634 108.513 59.3V63.008C108.513 64.484 109.611 65.42 110.745 65.42H111.861ZM116.284 62.216C118.516 62.216 119.686 61.046 119.686 59.588C119.686 56.204 114.304 57.446 114.304 55.556C114.304 54.782 115.042 54.188 116.23 54.188C117.364 54.188 118.3 54.656 118.822 55.286L119.452 54.35C118.768 53.648 117.724 53.09 116.23 53.09C114.16 53.09 113.008 54.224 113.008 55.592C113.008 58.814 118.39 57.518 118.39 59.624C118.39 60.488 117.652 61.118 116.32 61.118C115.132 61.118 114.034 60.542 113.458 59.876L112.774 60.848C113.656 61.766 114.844 62.216 116.284 62.216ZM125.821 62.216C127.225 62.216 128.395 61.73 129.277 60.866L128.629 59.984C127.927 60.704 126.937 61.1 125.929 61.1C124.057 61.1 122.923 59.732 122.815 58.094H129.835V57.752C129.835 55.142 128.287 53.09 125.659 53.09C123.175 53.09 121.375 55.124 121.375 57.644C121.375 60.362 123.229 62.216 125.821 62.216ZM128.503 57.086H122.797C122.869 55.772 123.787 54.206 125.641 54.206C127.621 54.206 128.485 55.808 128.503 57.086ZM135.82 62.216C138.466 62.216 140.122 60.164 140.122 57.644C140.122 55.124 138.466 53.09 135.82 53.09C133.174 53.09 131.518 55.124 131.518 57.644C131.518 60.164 133.174 62.216 135.82 62.216ZM135.82 61.01C133.966 61.01 132.94 59.426 132.94 57.644C132.94 55.88 133.966 54.296 135.82 54.296C137.674 54.296 138.7 55.88 138.7 57.644C138.7 59.426 137.674 61.01 135.82 61.01ZM142.92 62.18C143.46 62.18 143.91 61.73 143.91 61.19C143.91 60.65 143.46 60.2 142.92 60.2C142.38 60.2 141.93 60.65 141.93 61.19C141.93 61.73 142.38 62.18 142.92 62.18ZM148.158 62.216C148.932 62.216 149.418 61.982 149.76 61.658L149.364 60.632C149.184 60.83 148.842 61.01 148.446 61.01C147.87 61.01 147.582 60.542 147.582 59.894V54.494H149.346V53.306H147.582V50.93H146.214V53.306H144.774V54.494H146.214V60.182C146.214 61.478 146.862 62.216 148.158 62.216ZM151.919 52.064C152.423 52.064 152.819 51.668 152.819 51.164C152.819 50.66 152.423 50.246 151.919 50.246C151.415 50.246 151.001 50.66 151.001 51.164C151.001 51.668 151.415 52.064 151.919 52.064ZM152.585 62V53.306H151.235V62H152.585ZM157.492 62.216C158.266 62.216 158.752 61.982 159.094 61.658L158.698 60.632C158.518 60.83 158.176 61.01 157.78 61.01C157.204 61.01 156.916 60.542 156.916 59.894V54.494H158.68V53.306H156.916V50.93H155.548V53.306H154.108V54.494H155.548V60.182C155.548 61.478 156.196 62.216 157.492 62.216ZM161.919 62V49.994H160.569V62H161.919ZM168.554 62.216C169.958 62.216 171.128 61.73 172.01 60.866L171.362 59.984C170.66 60.704 169.67 61.1 168.662 61.1C166.79 61.1 165.656 59.732 165.548 58.094H172.568V57.752C172.568 55.142 171.02 53.09 168.392 53.09C165.908 53.09 164.108 55.124 164.108 57.644C164.108 60.362 165.962 62.216 168.554 62.216ZM171.236 57.086H165.53C165.602 55.772 166.52 54.206 168.374 54.206C170.354 54.206 171.218 55.808 171.236 57.086ZM173.71 65.42H174.808C175.96 65.42 177.058 64.484 177.058 63.008V59.3C177.058 58.634 177.364 58.058 177.994 58.058V57.158C177.364 57.158 177.058 56.582 177.058 55.916V52.226C177.058 50.732 175.96 49.796 174.808 49.796H173.71V50.786H174.808C175.456 50.786 176.014 51.362 176.014 52.208V56.024C176.014 56.78 176.23 57.356 176.824 57.608C176.23 57.86 176.014 58.436 176.014 59.192V62.99C176.014 63.818 175.456 64.43 174.808 64.43H173.71V65.42ZM178.404 65.42H179.502C180.654 65.42 181.752 64.484 181.752 63.008V59.3C181.752 58.634 182.058 58.058 182.688 58.058V57.158C182.058 57.158 181.752 56.582 181.752 55.916V52.226C181.752 50.732 180.654 49.796 179.502 49.796H178.404V50.786H179.502C180.15 50.786 180.708 51.362 180.708 52.208V56.024C180.708 56.78 180.924 57.356 181.518 57.608C180.924 57.86 180.708 58.436 180.708 59.192V62.99C180.708 63.818 180.15 64.43 179.502 64.43H178.404V65.42ZM188.501 215.42V214.43H187.385C186.755 214.43 186.197 213.818 186.197 212.99V209.192C186.197 208.436 185.981 207.86 185.387 207.608C185.981 207.356 186.197 206.78 186.197 206.024V202.208C186.197 201.362 186.755 200.786 187.385 200.786H188.501V199.796H187.385C186.251 199.796 185.153 200.732 185.153 202.226V205.916C185.153 206.582 184.847 207.158 184.199 207.158V208.058C184.847 208.058 185.153 208.634 185.153 209.3V213.008C185.153 214.484 186.251 215.42 187.385 215.42H188.501ZM193.195 215.42V214.43H192.079C191.449 214.43 190.891 213.818 190.891 212.99V209.192C190.891 208.436 190.675 207.86 190.081 207.608C190.675 207.356 190.891 206.78 190.891 206.024V202.208C190.891 201.362 191.449 200.786 192.079 200.786H193.195V199.796H192.079C190.945 199.796 189.847 200.732 189.847 202.226V205.916C189.847 206.582 189.541 207.158 188.893 207.158V208.058C189.541 208.058 189.847 208.634 189.847 209.3V213.008C189.847 214.484 190.945 215.42 192.079 215.42H193.195ZM197.618 212.216C199.85 212.216 201.02 211.046 201.02 209.588C201.02 206.204 195.638 207.446 195.638 205.556C195.638 204.782 196.376 204.188 197.564 204.188C198.698 204.188 199.634 204.656 200.156 205.286L200.786 204.35C200.102 203.648 199.058 203.09 197.564 203.09C195.494 203.09 194.342 204.224 194.342 205.592C194.342 208.814 199.724 207.518 199.724 209.624C199.724 210.488 198.986 211.118 197.654 211.118C196.466 211.118 195.368 210.542 194.792 209.876L194.108 210.848C194.99 211.766 196.178 212.216 197.618 212.216ZM207.155 212.216C208.559 212.216 209.729 211.73 210.611 210.866L209.963 209.984C209.261 210.704 208.271 211.1 207.263 211.1C205.391 211.1 204.257 209.732 204.149 208.094H211.169V207.752C211.169 205.142 209.621 203.09 206.993 203.09C204.509 203.09 202.709 205.124 202.709 207.644C202.709 210.362 204.563 212.216 207.155 212.216ZM209.837 207.086H204.131C204.203 205.772 205.121 204.206 206.975 204.206C208.955 204.206 209.819 205.808 209.837 207.086ZM217.154 212.216C219.8 212.216 221.456 210.164 221.456 207.644C221.456 205.124 219.8 203.09 217.154 203.09C214.508 203.09 212.852 205.124 212.852 207.644C212.852 210.164 214.508 212.216 217.154 212.216ZM217.154 211.01C215.3 211.01 214.274 209.426 214.274 207.644C214.274 205.88 215.3 204.296 217.154 204.296C219.008 204.296 220.034 205.88 220.034 207.644C220.034 209.426 219.008 211.01 217.154 211.01ZM224.254 212.18C224.794 212.18 225.244 211.73 225.244 211.19C225.244 210.65 224.794 210.2 224.254 210.2C223.714 210.2 223.264 210.65 223.264 211.19C223.264 211.73 223.714 212.18 224.254 212.18ZM229.492 212.216C230.266 212.216 230.752 211.982 231.094 211.658L230.698 210.632C230.518 210.83 230.176 211.01 229.78 211.01C229.204 211.01 228.916 210.542 228.916 209.894V204.494H230.68V203.306H228.916V200.93H227.548V203.306H226.108V204.494H227.548V210.182C227.548 211.478 228.196 212.216 229.492 212.216ZM233.253 202.064C233.757 202.064 234.153 201.668 234.153 201.164C234.153 200.66 233.757 200.246 233.253 200.246C232.749 200.246 232.335 200.66 232.335 201.164C232.335 201.668 232.749 202.064 233.253 202.064ZM233.919 212V203.306H232.569V212H233.919ZM238.826 212.216C239.6 212.216 240.086 211.982 240.428 211.658L240.032 210.632C239.852 210.83 239.51 211.01 239.114 211.01C238.538 211.01 238.25 210.542 238.25 209.894V204.494H240.014V203.306H238.25V200.93H236.882V203.306H235.442V204.494H236.882V210.182C236.882 211.478 237.53 212.216 238.826 212.216ZM243.253 212V199.994H241.903V212H243.253ZM249.888 212.216C251.292 212.216 252.462 211.73 253.344 210.866L252.696 209.984C251.994 210.704 251.004 211.1 249.996 211.1C248.124 211.1 246.99 209.732 246.882 208.094H253.902V207.752C253.902 205.142 252.354 203.09 249.726 203.09C247.242 203.09 245.442 205.124 245.442 207.644C245.442 210.362 247.296 212.216 249.888 212.216ZM252.57 207.086H246.864C246.936 205.772 247.854 204.206 249.708 204.206C251.688 204.206 252.552 205.808 252.57 207.086ZM255.044 215.42H256.142C257.294 215.42 258.392 214.484 258.392 213.008V209.3C258.392 208.634 258.698 208.058 259.328 208.058V207.158C258.698 207.158 258.392 206.582 258.392 205.916V202.226C258.392 200.732 257.294 199.796 256.142 199.796H255.044V200.786H256.142C256.79 200.786 257.348 201.362 257.348 202.208V206.024C257.348 206.78 257.564 207.356 258.158 207.608C257.564 207.86 257.348 208.436 257.348 209.192V212.99C257.348 213.818 256.79 214.43 256.142 214.43H255.044V215.42ZM259.738 215.42H260.836C261.988 215.42 263.086 214.484 263.086 213.008V209.3C263.086 208.634 263.392 208.058 264.022 208.058V207.158C263.392 207.158 263.086 206.582 263.086 205.916V202.226C263.086 200.732 261.988 199.796 260.836 199.796H259.738V200.786H260.836C261.484 200.786 262.042 201.362 262.042 202.208V206.024C262.042 206.78 262.258 207.356 262.852 207.608C262.258 207.86 262.042 208.436 262.042 209.192V212.99C262.042 213.818 261.484 214.43 260.836 214.43H259.738V215.42ZM188.501 240.42V239.43H187.385C186.755 239.43 186.197 238.818 186.197 237.99V234.192C186.197 233.436 185.981 232.86 185.387 232.608C185.981 232.356 186.197 231.78 186.197 231.024V227.208C186.197 226.362 186.755 225.786 187.385 225.786H188.501V224.796H187.385C186.251 224.796 185.153 225.732 185.153 227.226V230.916C185.153 231.582 184.847 232.158 184.199 232.158V233.058C184.847 233.058 185.153 233.634 185.153 234.3V238.008C185.153 239.484 186.251 240.42 187.385 240.42H188.501ZM193.195 240.42V239.43H192.079C191.449 239.43 190.891 238.818 190.891 237.99V234.192C190.891 233.436 190.675 232.86 190.081 232.608C190.675 232.356 190.891 231.78 190.891 231.024V227.208C190.891 226.362 191.449 225.786 192.079 225.786H193.195V224.796H192.079C190.945 224.796 189.847 225.732 189.847 227.226V230.916C189.847 231.582 189.541 232.158 188.893 232.158V233.058C189.541 233.058 189.847 233.634 189.847 234.3V238.008C189.847 239.484 190.945 240.42 192.079 240.42H193.195ZM197.618 237.216C199.85 237.216 201.02 236.046 201.02 234.588C201.02 231.204 195.638 232.446 195.638 230.556C195.638 229.782 196.376 229.188 197.564 229.188C198.698 229.188 199.634 229.656 200.156 230.286L200.786 229.35C200.102 228.648 199.058 228.09 197.564 228.09C195.494 228.09 194.342 229.224 194.342 230.592C194.342 233.814 199.724 232.518 199.724 234.624C199.724 235.488 198.986 236.118 197.654 236.118C196.466 236.118 195.368 235.542 194.792 234.876L194.108 235.848C194.99 236.766 196.178 237.216 197.618 237.216ZM207.155 237.216C208.559 237.216 209.729 236.73 210.611 235.866L209.963 234.984C209.261 235.704 208.271 236.1 207.263 236.1C205.391 236.1 204.257 234.732 204.149 233.094H211.169V232.752C211.169 230.142 209.621 228.09 206.993 228.09C204.509 228.09 202.709 230.124 202.709 232.644C202.709 235.362 204.563 237.216 207.155 237.216ZM209.837 232.086H204.131C204.203 230.772 205.121 229.206 206.975 229.206C208.955 229.206 209.819 230.808 209.837 232.086ZM217.154 237.216C219.8 237.216 221.456 235.164 221.456 232.644C221.456 230.124 219.8 228.09 217.154 228.09C214.508 228.09 212.852 230.124 212.852 232.644C212.852 235.164 214.508 237.216 217.154 237.216ZM217.154 236.01C215.3 236.01 214.274 234.426 214.274 232.644C214.274 230.88 215.3 229.296 217.154 229.296C219.008 229.296 220.034 230.88 220.034 232.644C220.034 234.426 219.008 236.01 217.154 236.01ZM224.254 237.18C224.794 237.18 225.244 236.73 225.244 236.19C225.244 235.65 224.794 235.2 224.254 235.2C223.714 235.2 223.264 235.65 223.264 236.19C223.264 236.73 223.714 237.18 224.254 237.18ZM229.492 237.216C230.266 237.216 230.752 236.982 231.094 236.658L230.698 235.632C230.518 235.83 230.176 236.01 229.78 236.01C229.204 236.01 228.916 235.542 228.916 234.894V229.494H230.68V228.306H228.916V225.93H227.548V228.306H226.108V229.494H227.548V235.182C227.548 236.478 228.196 237.216 229.492 237.216ZM233.253 227.064C233.757 227.064 234.153 226.668 234.153 226.164C234.153 225.66 233.757 225.246 233.253 225.246C232.749 225.246 232.335 225.66 232.335 226.164C232.335 226.668 232.749 227.064 233.253 227.064ZM233.919 237V228.306H232.569V237H233.919ZM238.826 237.216C239.6 237.216 240.086 236.982 240.428 236.658L240.032 235.632C239.852 235.83 239.51 236.01 239.114 236.01C238.538 236.01 238.25 235.542 238.25 234.894V229.494H240.014V228.306H238.25V225.93H236.882V228.306H235.442V229.494H236.882V235.182C236.882 236.478 237.53 237.216 238.826 237.216ZM243.253 237V224.994H241.903V237H243.253ZM249.888 237.216C251.292 237.216 252.462 236.73 253.344 235.866L252.696 234.984C251.994 235.704 251.004 236.1 249.996 236.1C248.124 236.1 246.99 234.732 246.882 233.094H253.902V232.752C253.902 230.142 252.354 228.09 249.726 228.09C247.242 228.09 245.442 230.124 245.442 232.644C245.442 235.362 247.296 237.216 249.888 237.216ZM252.57 232.086H246.864C246.936 230.772 247.854 229.206 249.708 229.206C251.688 229.206 252.552 230.808 252.57 232.086ZM255.044 240.42H256.142C257.294 240.42 258.392 239.484 258.392 238.008V234.3C258.392 233.634 258.698 233.058 259.328 233.058V232.158C258.698 232.158 258.392 231.582 258.392 230.916V227.226C258.392 225.732 257.294 224.796 256.142 224.796H255.044V225.786H256.142C256.79 225.786 257.348 226.362 257.348 227.208V231.024C257.348 231.78 257.564 232.356 258.158 232.608C257.564 232.86 257.348 233.436 257.348 234.192V237.99C257.348 238.818 256.79 239.43 256.142 239.43H255.044V240.42ZM259.738 240.42H260.836C261.988 240.42 263.086 239.484 263.086 238.008V234.3C263.086 233.634 263.392 233.058 264.022 233.058V232.158C263.392 232.158 263.086 231.582 263.086 230.916V227.226C263.086 225.732 261.988 224.796 260.836 224.796H259.738V225.786H260.836C261.484 225.786 262.042 226.362 262.042 227.208V231.024C262.042 231.78 262.258 232.356 262.852 232.608C262.258 232.86 262.042 233.436 262.042 234.192V237.99C262.042 238.818 261.484 239.43 260.836 239.43H259.738V240.42ZM188.501 290.42V289.43H187.385C186.755 289.43 186.197 288.818 186.197 287.99V284.192C186.197 283.436 185.981 282.86 185.387 282.608C185.981 282.356 186.197 281.78 186.197 281.024V277.208C186.197 276.362 186.755 275.786 187.385 275.786H188.501V274.796H187.385C186.251 274.796 185.153 275.732 185.153 277.226V280.916C185.153 281.582 184.847 282.158 184.199 282.158V283.058C184.847 283.058 185.153 283.634 185.153 284.3V288.008C185.153 289.484 186.251 290.42 187.385 290.42H188.501ZM193.195 290.42V289.43H192.079C191.449 289.43 190.891 288.818 190.891 287.99V284.192C190.891 283.436 190.675 282.86 190.081 282.608C190.675 282.356 190.891 281.78 190.891 281.024V277.208C190.891 276.362 191.449 275.786 192.079 275.786H193.195V274.796H192.079C190.945 274.796 189.847 275.732 189.847 277.226V280.916C189.847 281.582 189.541 282.158 188.893 282.158V283.058C189.541 283.058 189.847 283.634 189.847 284.3V288.008C189.847 289.484 190.945 290.42 192.079 290.42H193.195ZM197.618 287.216C199.85 287.216 201.02 286.046 201.02 284.588C201.02 281.204 195.638 282.446 195.638 280.556C195.638 279.782 196.376 279.188 197.564 279.188C198.698 279.188 199.634 279.656 200.156 280.286L200.786 279.35C200.102 278.648 199.058 278.09 197.564 278.09C195.494 278.09 194.342 279.224 194.342 280.592C194.342 283.814 199.724 282.518 199.724 284.624C199.724 285.488 198.986 286.118 197.654 286.118C196.466 286.118 195.368 285.542 194.792 284.876L194.108 285.848C194.99 286.766 196.178 287.216 197.618 287.216ZM207.155 287.216C208.559 287.216 209.729 286.73 210.611 285.866L209.963 284.984C209.261 285.704 208.271 286.1 207.263 286.1C205.391 286.1 204.257 284.732 204.149 283.094H211.169V282.752C211.169 280.142 209.621 278.09 206.993 278.09C204.509 278.09 202.709 280.124 202.709 282.644C202.709 285.362 204.563 287.216 207.155 287.216ZM209.837 282.086H204.131C204.203 280.772 205.121 279.206 206.975 279.206C208.955 279.206 209.819 280.808 209.837 282.086ZM217.154 287.216C219.8 287.216 221.456 285.164 221.456 282.644C221.456 280.124 219.8 278.09 217.154 278.09C214.508 278.09 212.852 280.124 212.852 282.644C212.852 285.164 214.508 287.216 217.154 287.216ZM217.154 286.01C215.3 286.01 214.274 284.426 214.274 282.644C214.274 280.88 215.3 279.296 217.154 279.296C219.008 279.296 220.034 280.88 220.034 282.644C220.034 284.426 219.008 286.01 217.154 286.01ZM224.254 287.18C224.794 287.18 225.244 286.73 225.244 286.19C225.244 285.65 224.794 285.2 224.254 285.2C223.714 285.2 223.264 285.65 223.264 286.19C223.264 286.73 223.714 287.18 224.254 287.18ZM229.492 287.216C230.266 287.216 230.752 286.982 231.094 286.658L230.698 285.632C230.518 285.83 230.176 286.01 229.78 286.01C229.204 286.01 228.916 285.542 228.916 284.894V279.494H230.68V278.306H228.916V275.93H227.548V278.306H226.108V279.494H227.548V285.182C227.548 286.478 228.196 287.216 229.492 287.216ZM233.253 277.064C233.757 277.064 234.153 276.668 234.153 276.164C234.153 275.66 233.757 275.246 233.253 275.246C232.749 275.246 232.335 275.66 232.335 276.164C232.335 276.668 232.749 277.064 233.253 277.064ZM233.919 287V278.306H232.569V287H233.919ZM238.826 287.216C239.6 287.216 240.086 286.982 240.428 286.658L240.032 285.632C239.852 285.83 239.51 286.01 239.114 286.01C238.538 286.01 238.25 285.542 238.25 284.894V279.494H240.014V278.306H238.25V275.93H236.882V278.306H235.442V279.494H236.882V285.182C236.882 286.478 237.53 287.216 238.826 287.216ZM243.253 287V274.994H241.903V287H243.253ZM249.888 287.216C251.292 287.216 252.462 286.73 253.344 285.866L252.696 284.984C251.994 285.704 251.004 286.1 249.996 286.1C248.124 286.1 246.99 284.732 246.882 283.094H253.902V282.752C253.902 280.142 252.354 278.09 249.726 278.09C247.242 278.09 245.442 280.124 245.442 282.644C245.442 285.362 247.296 287.216 249.888 287.216ZM252.57 282.086H246.864C246.936 280.772 247.854 279.206 249.708 279.206C251.688 279.206 252.552 280.808 252.57 282.086ZM255.044 290.42H256.142C257.294 290.42 258.392 289.484 258.392 288.008V284.3C258.392 283.634 258.698 283.058 259.328 283.058V282.158C258.698 282.158 258.392 281.582 258.392 280.916V277.226C258.392 275.732 257.294 274.796 256.142 274.796H255.044V275.786H256.142C256.79 275.786 257.348 276.362 257.348 277.208V281.024C257.348 281.78 257.564 282.356 258.158 282.608C257.564 282.86 257.348 283.436 257.348 284.192V287.99C257.348 288.818 256.79 289.43 256.142 289.43H255.044V290.42ZM259.738 290.42H260.836C261.988 290.42 263.086 289.484 263.086 288.008V284.3C263.086 283.634 263.392 283.058 264.022 283.058V282.158C263.392 282.158 263.086 281.582 263.086 280.916V277.226C263.086 275.732 261.988 274.796 260.836 274.796H259.738V275.786H260.836C261.484 275.786 262.042 276.362 262.042 277.208V281.024C262.042 281.78 262.258 282.356 262.852 282.608C262.258 282.86 262.042 283.436 262.042 284.192V287.99C262.042 288.818 261.484 289.43 260.836 289.43H259.738V290.42ZM188.501 315.42V314.43H187.385C186.755 314.43 186.197 313.818 186.197 312.99V309.192C186.197 308.436 185.981 307.86 185.387 307.608C185.981 307.356 186.197 306.78 186.197 306.024V302.208C186.197 301.362 186.755 300.786 187.385 300.786H188.501V299.796H187.385C186.251 299.796 185.153 300.732 185.153 302.226V305.916C185.153 306.582 184.847 307.158 184.199 307.158V308.058C184.847 308.058 185.153 308.634 185.153 309.3V313.008C185.153 314.484 186.251 315.42 187.385 315.42H188.501ZM193.195 315.42V314.43H192.079C191.449 314.43 190.891 313.818 190.891 312.99V309.192C190.891 308.436 190.675 307.86 190.081 307.608C190.675 307.356 190.891 306.78 190.891 306.024V302.208C190.891 301.362 191.449 300.786 192.079 300.786H193.195V299.796H192.079C190.945 299.796 189.847 300.732 189.847 302.226V305.916C189.847 306.582 189.541 307.158 188.893 307.158V308.058C189.541 308.058 189.847 308.634 189.847 309.3V313.008C189.847 314.484 190.945 315.42 192.079 315.42H193.195ZM197.618 312.216C199.85 312.216 201.02 311.046 201.02 309.588C201.02 306.204 195.638 307.446 195.638 305.556C195.638 304.782 196.376 304.188 197.564 304.188C198.698 304.188 199.634 304.656 200.156 305.286L200.786 304.35C200.102 303.648 199.058 303.09 197.564 303.09C195.494 303.09 194.342 304.224 194.342 305.592C194.342 308.814 199.724 307.518 199.724 309.624C199.724 310.488 198.986 311.118 197.654 311.118C196.466 311.118 195.368 310.542 194.792 309.876L194.108 310.848C194.99 311.766 196.178 312.216 197.618 312.216ZM207.155 312.216C208.559 312.216 209.729 311.73 210.611 310.866L209.963 309.984C209.261 310.704 208.271 311.1 207.263 311.1C205.391 311.1 204.257 309.732 204.149 308.094H211.169V307.752C211.169 305.142 209.621 303.09 206.993 303.09C204.509 303.09 202.709 305.124 202.709 307.644C202.709 310.362 204.563 312.216 207.155 312.216ZM209.837 307.086H204.131C204.203 305.772 205.121 304.206 206.975 304.206C208.955 304.206 209.819 305.808 209.837 307.086ZM217.154 312.216C219.8 312.216 221.456 310.164 221.456 307.644C221.456 305.124 219.8 303.09 217.154 303.09C214.508 303.09 212.852 305.124 212.852 307.644C212.852 310.164 214.508 312.216 217.154 312.216ZM217.154 311.01C215.3 311.01 214.274 309.426 214.274 307.644C214.274 305.88 215.3 304.296 217.154 304.296C219.008 304.296 220.034 305.88 220.034 307.644C220.034 309.426 219.008 311.01 217.154 311.01ZM224.254 312.18C224.794 312.18 225.244 311.73 225.244 311.19C225.244 310.65 224.794 310.2 224.254 310.2C223.714 310.2 223.264 310.65 223.264 311.19C223.264 311.73 223.714 312.18 224.254 312.18ZM229.492 312.216C230.266 312.216 230.752 311.982 231.094 311.658L230.698 310.632C230.518 310.83 230.176 311.01 229.78 311.01C229.204 311.01 228.916 310.542 228.916 309.894V304.494H230.68V303.306H228.916V300.93H227.548V303.306H226.108V304.494H227.548V310.182C227.548 311.478 228.196 312.216 229.492 312.216ZM233.253 302.064C233.757 302.064 234.153 301.668 234.153 301.164C234.153 300.66 233.757 300.246 233.253 300.246C232.749 300.246 232.335 300.66 232.335 301.164C232.335 301.668 232.749 302.064 233.253 302.064ZM233.919 312V303.306H232.569V312H233.919ZM238.826 312.216C239.6 312.216 240.086 311.982 240.428 311.658L240.032 310.632C239.852 310.83 239.51 311.01 239.114 311.01C238.538 311.01 238.25 310.542 238.25 309.894V304.494H240.014V303.306H238.25V300.93H236.882V303.306H235.442V304.494H236.882V310.182C236.882 311.478 237.53 312.216 238.826 312.216ZM243.253 312V299.994H241.903V312H243.253ZM249.888 312.216C251.292 312.216 252.462 311.73 253.344 310.866L252.696 309.984C251.994 310.704 251.004 311.1 249.996 311.1C248.124 311.1 246.99 309.732 246.882 308.094H253.902V307.752C253.902 305.142 252.354 303.09 249.726 303.09C247.242 303.09 245.442 305.124 245.442 307.644C245.442 310.362 247.296 312.216 249.888 312.216ZM252.57 307.086H246.864C246.936 305.772 247.854 304.206 249.708 304.206C251.688 304.206 252.552 305.808 252.57 307.086ZM255.044 315.42H256.142C257.294 315.42 258.392 314.484 258.392 313.008V309.3C258.392 308.634 258.698 308.058 259.328 308.058V307.158C258.698 307.158 258.392 306.582 258.392 305.916V302.226C258.392 300.732 257.294 299.796 256.142 299.796H255.044V300.786H256.142C256.79 300.786 257.348 301.362 257.348 302.208V306.024C257.348 306.78 257.564 307.356 258.158 307.608C257.564 307.86 257.348 308.436 257.348 309.192V312.99C257.348 313.818 256.79 314.43 256.142 314.43H255.044V315.42ZM259.738 315.42H260.836C261.988 315.42 263.086 314.484 263.086 313.008V309.3C263.086 308.634 263.392 308.058 264.022 308.058V307.158C263.392 307.158 263.086 306.582 263.086 305.916V302.226C263.086 300.732 261.988 299.796 260.836 299.796H259.738V300.786H260.836C261.484 300.786 262.042 301.362 262.042 302.208V306.024C262.042 306.78 262.258 307.356 262.852 307.608C262.258 307.86 262.042 308.436 262.042 309.192V312.99C262.042 313.818 261.484 314.43 260.836 314.43H259.738V315.42Z" fill="#F44599"/>
<path d="M161.702 104.728V103.774H153.764V104.728H161.702ZM161.702 108.202V107.248H153.764V108.202H161.702ZM164.349 104.584C164.349 104.584 164.835 100.894 164.835 100.642C164.835 100.192 164.475 99.814 164.007 99.814C163.557 99.814 163.197 100.192 163.197 100.642C163.197 100.894 163.683 104.584 163.683 104.584H164.349ZM166.959 104.584C166.959 104.584 167.445 100.894 167.445 100.642C167.445 100.192 167.085 99.814 166.635 99.814C166.167 99.814 165.807 100.192 165.807 100.642C165.807 100.894 166.293 104.584 166.293 104.584H166.959ZM176.548 112V106.024C176.548 103.918 175.036 103.09 173.182 103.09C171.76 103.09 170.644 103.558 169.708 104.53L170.338 105.466C171.112 104.62 171.958 104.26 173.002 104.26C174.262 104.26 175.198 104.926 175.198 106.078V107.644C174.496 106.852 173.506 106.474 172.318 106.474C170.842 106.474 169.294 107.374 169.294 109.336C169.294 111.226 170.86 112.216 172.318 112.216C173.488 112.216 174.496 111.802 175.198 111.01V112H176.548ZM172.822 111.244C171.544 111.244 170.662 110.452 170.662 109.336C170.662 108.238 171.544 107.446 172.822 107.446C173.758 107.446 174.676 107.806 175.198 108.508V110.164C174.676 110.884 173.758 111.244 172.822 111.244ZM186.49 112V103.306H185.14V109.696C184.636 110.398 183.628 111.01 182.584 111.01C181.396 111.01 180.622 110.56 180.622 109.03V103.306H179.272V109.444C179.272 111.316 180.226 112.216 182.044 112.216C183.34 112.216 184.474 111.532 185.14 110.776V112H186.49ZM191.4 112.216C192.174 112.216 192.66 111.982 193.002 111.658L192.606 110.632C192.426 110.83 192.084 111.01 191.688 111.01C191.112 111.01 190.824 110.542 190.824 109.894V104.494H192.588V103.306H190.824V100.93H189.456V103.306H188.016V104.494H189.456V110.182C189.456 111.478 190.104 112.216 191.4 112.216ZM201.713 112V105.862C201.713 103.972 200.759 103.09 198.941 103.09C197.627 103.09 196.439 103.828 195.845 104.566V99.994H194.495V112H195.845V105.646C196.349 104.944 197.357 104.296 198.401 104.296C199.589 104.296 200.363 104.728 200.363 106.276V112H201.713ZM208.207 112.216C210.853 112.216 212.509 110.164 212.509 107.644C212.509 105.124 210.853 103.09 208.207 103.09C205.561 103.09 203.905 105.124 203.905 107.644C203.905 110.164 205.561 112.216 208.207 112.216ZM208.207 111.01C206.353 111.01 205.327 109.426 205.327 107.644C205.327 105.88 206.353 104.296 208.207 104.296C210.061 104.296 211.087 105.88 211.087 107.644C211.087 109.426 210.061 111.01 208.207 111.01ZM216.059 112V105.844C216.455 105.142 217.589 104.458 218.435 104.458C218.633 104.458 218.795 104.476 218.957 104.494V103.108C217.769 103.108 216.761 103.792 216.059 104.692V103.306H214.709V112H216.059ZM221.425 104.584C221.425 104.584 221.911 100.894 221.911 100.642C221.911 100.192 221.551 99.814 221.083 99.814C220.633 99.814 220.273 100.192 220.273 100.642C220.273 100.894 220.759 104.584 220.759 104.584H221.425ZM224.035 104.584C224.035 104.584 224.521 100.894 224.521 100.642C224.521 100.192 224.161 99.814 223.711 99.814C223.243 99.814 222.883 100.192 222.883 100.642C222.883 100.894 223.369 104.584 223.369 104.584H224.035ZM298.425 104.728V103.774H290.487V104.728H298.425ZM298.425 108.202V107.248H290.487V108.202H298.425ZM301.071 104.584C301.071 104.584 301.557 100.894 301.557 100.642C301.557 100.192 301.197 99.814 300.729 99.814C300.279 99.814 299.919 100.192 299.919 100.642C299.919 100.894 300.405 104.584 300.405 104.584H301.071ZM303.681 104.584C303.681 104.584 304.167 100.894 304.167 100.642C304.167 100.192 303.807 99.814 303.357 99.814C302.889 99.814 302.529 100.192 302.529 100.642C302.529 100.894 303.015 104.584 303.015 104.584H303.681ZM311.958 112.216C313.2 112.216 314.316 111.892 315.216 111.316L316.386 112.558L317.412 111.658L316.278 110.452C317.322 109.336 317.934 107.788 317.934 106.006C317.934 102.46 315.504 99.796 311.958 99.796C308.412 99.796 306 102.46 306 106.006C306 109.552 308.412 112.216 311.958 112.216ZM311.958 110.884C309.258 110.884 307.548 108.796 307.548 106.006C307.548 103.198 309.258 101.128 311.958 101.128C314.64 101.128 316.386 103.198 316.386 106.006C316.386 107.338 315.972 108.508 315.27 109.372L313.578 107.536L312.534 108.418L314.244 110.272C313.596 110.668 312.822 110.884 311.958 110.884ZM327.414 112V103.306H326.064V109.696C325.56 110.398 324.552 111.01 323.508 111.01C322.32 111.01 321.546 110.56 321.546 109.03V103.306H320.196V109.444C320.196 111.316 321.15 112.216 322.968 112.216C324.264 112.216 325.398 111.532 326.064 110.776V112H327.414ZM330.794 102.064C331.298 102.064 331.694 101.668 331.694 101.164C331.694 100.66 331.298 100.246 330.794 100.246C330.29 100.246 329.876 100.66 329.876 101.164C329.876 101.668 330.29 102.064 330.794 102.064ZM331.46 112V103.306H330.11V112H331.46ZM337.987 112.216C339.571 112.216 340.507 111.568 341.173 110.704L340.273 109.876C339.697 110.65 338.959 111.01 338.059 111.01C336.223 111.01 335.053 109.57 335.053 107.644C335.053 105.718 336.223 104.296 338.059 104.296C338.959 104.296 339.697 104.62 340.273 105.412L341.173 104.602C340.507 103.738 339.571 103.09 337.987 103.09C335.395 103.09 333.649 105.07 333.649 107.644C333.649 110.218 335.395 112.216 337.987 112.216ZM350.732 112L346.862 107.248L350.714 103.306H349.004L344.432 107.932V99.994H343.082V112H344.432V109.516L345.89 108.094L349.004 112H350.732ZM353.679 109.642V105.7C354.147 104.944 355.209 104.296 356.289 104.296C358.035 104.296 359.079 105.736 359.079 107.662C359.079 109.588 358.035 111.01 356.289 111.01C355.209 111.01 354.147 110.398 353.679 109.642ZM353.679 112V110.704C354.327 111.586 355.389 112.216 356.613 112.216C358.881 112.216 360.483 110.488 360.483 107.662C360.483 104.872 358.899 103.09 356.613 103.09C355.443 103.09 354.381 103.666 353.679 104.62V99.994H352.329V112H353.679ZM369.9 112V103.306H368.55V109.696C368.046 110.398 367.038 111.01 365.994 111.01C364.806 111.01 364.032 110.56 364.032 109.03V103.306H362.682V109.444C362.682 111.316 363.636 112.216 365.454 112.216C366.75 112.216 367.884 111.532 368.55 110.776V112H369.9ZM374.81 112.216C375.584 112.216 376.07 111.982 376.412 111.658L376.016 110.632C375.836 110.83 375.494 111.01 375.098 111.01C374.522 111.01 374.234 110.542 374.234 109.894V104.494H375.998V103.306H374.234V100.93H372.866V103.306H371.426V104.494H372.866V110.182C372.866 111.478 373.514 112.216 374.81 112.216ZM378.571 102.064C379.075 102.064 379.471 101.668 379.471 101.164C379.471 100.66 379.075 100.246 378.571 100.246C378.067 100.246 377.653 100.66 377.653 101.164C377.653 101.668 378.067 102.064 378.571 102.064ZM379.237 112V103.306H377.887V112H379.237ZM389.58 112L385.71 107.248L389.562 103.306H387.852L383.28 107.932V99.994H381.93V112H383.28V109.516L384.738 108.094L387.852 112H389.58ZM391.95 104.584C391.95 104.584 392.436 100.894 392.436 100.642C392.436 100.192 392.076 99.814 391.608 99.814C391.158 99.814 390.798 100.192 390.798 100.642C390.798 100.894 391.284 104.584 391.284 104.584H391.95ZM394.56 104.584C394.56 104.584 395.046 100.894 395.046 100.642C395.046 100.192 394.686 99.814 394.236 99.814C393.768 99.814 393.408 100.192 393.408 100.642C393.408 100.894 393.894 104.584 393.894 104.584H394.56ZM184.624 154.728V153.774H176.686V154.728H184.624ZM184.624 158.202V157.248H176.686V158.202H184.624ZM187.27 154.584C187.27 154.584 187.756 150.894 187.756 150.642C187.756 150.192 187.396 149.814 186.928 149.814C186.478 149.814 186.118 150.192 186.118 150.642C186.118 150.894 186.604 154.584 186.604 154.584H187.27ZM189.88 154.584C189.88 154.584 190.366 150.894 190.366 150.642C190.366 150.192 190.006 149.814 189.556 149.814C189.088 149.814 188.728 150.192 188.728 150.642C188.728 150.894 189.214 154.584 189.214 154.584H189.88ZM196.482 162.216C199.128 162.216 200.784 160.164 200.784 157.644C200.784 155.124 199.128 153.09 196.482 153.09C193.836 153.09 192.18 155.124 192.18 157.644C192.18 160.164 193.836 162.216 196.482 162.216ZM196.482 161.01C194.628 161.01 193.602 159.426 193.602 157.644C193.602 155.88 194.628 154.296 196.482 154.296C198.336 154.296 199.362 155.88 199.362 157.644C199.362 159.426 198.336 161.01 196.482 161.01ZM206.477 165.528C208.601 165.528 210.635 164.628 210.635 161.874V153.306H209.285V154.62C208.583 153.666 207.521 153.09 206.351 153.09C204.065 153.09 202.481 154.818 202.481 157.608C202.481 160.416 204.083 162.108 206.351 162.108C207.575 162.108 208.637 161.442 209.285 160.56V161.874C209.285 163.71 207.917 164.412 206.477 164.412C205.235 164.412 204.371 164.088 203.651 163.242L202.967 164.214C204.011 165.24 205.019 165.528 206.477 165.528ZM206.693 160.902C204.929 160.902 203.885 159.516 203.885 157.608C203.885 155.682 204.929 154.296 206.693 154.296C207.755 154.296 208.799 154.944 209.285 155.682V159.498C208.799 160.254 207.755 160.902 206.693 160.902ZM214.058 155.16C214.598 155.16 215.048 154.692 215.048 154.17C215.048 153.63 214.598 153.18 214.058 153.18C213.518 153.18 213.068 153.63 213.068 154.17C213.068 154.692 213.518 155.16 214.058 155.16ZM214.058 162.18C214.598 162.18 215.048 161.73 215.048 161.19C215.048 160.65 214.598 160.2 214.058 160.2C213.518 160.2 213.068 160.65 213.068 161.19C213.068 161.73 213.518 162.18 214.058 162.18ZM225.031 162V149.994H223.681V154.62C222.979 153.666 221.917 153.09 220.747 153.09C218.479 153.09 216.877 154.872 216.877 157.662C216.877 160.488 218.479 162.216 220.747 162.216C221.971 162.216 223.033 161.586 223.681 160.704V162H225.031ZM221.089 161.01C219.325 161.01 218.281 159.588 218.281 157.662C218.281 155.736 219.325 154.296 221.089 154.296C222.151 154.296 223.213 154.944 223.681 155.7V159.624C223.213 160.38 222.151 161.01 221.089 161.01ZM231.677 162.216C233.081 162.216 234.251 161.73 235.133 160.866L234.485 159.984C233.783 160.704 232.793 161.1 231.785 161.1C229.913 161.1 228.779 159.732 228.671 158.094H235.691V157.752C235.691 155.142 234.143 153.09 231.515 153.09C229.031 153.09 227.231 155.124 227.231 157.644C227.231 160.362 229.085 162.216 231.677 162.216ZM234.359 157.086H228.653C228.725 155.772 229.643 154.206 231.497 154.206C233.477 154.206 234.341 155.808 234.359 157.086ZM240.649 162.216C242.881 162.216 244.051 161.046 244.051 159.588C244.051 156.204 238.669 157.446 238.669 155.556C238.669 154.782 239.407 154.188 240.595 154.188C241.729 154.188 242.665 154.656 243.187 155.286L243.817 154.35C243.133 153.648 242.089 153.09 240.595 153.09C238.525 153.09 237.373 154.224 237.373 155.592C237.373 158.814 242.755 157.518 242.755 159.624C242.755 160.488 242.017 161.118 240.685 161.118C239.497 161.118 238.399 160.542 237.823 159.876L237.139 160.848C238.021 161.766 239.209 162.216 240.649 162.216ZM250.079 162.216C251.663 162.216 252.599 161.568 253.265 160.704L252.365 159.876C251.789 160.65 251.051 161.01 250.151 161.01C248.315 161.01 247.145 159.57 247.145 157.644C247.145 155.718 248.315 154.296 250.151 154.296C251.051 154.296 251.789 154.62 252.365 155.412L253.265 154.602C252.599 153.738 251.663 153.09 250.079 153.09C247.487 153.09 245.741 155.07 245.741 157.644C245.741 160.218 247.487 162.216 250.079 162.216ZM256.524 162V155.844C256.92 155.142 258.054 154.458 258.9 154.458C259.098 154.458 259.26 154.476 259.422 154.494V153.108C258.234 153.108 257.226 153.792 256.524 154.692V153.306H255.174V162H256.524ZM261.8 152.064C262.304 152.064 262.7 151.668 262.7 151.164C262.7 150.66 262.304 150.246 261.8 150.246C261.296 150.246 260.882 150.66 260.882 151.164C260.882 151.668 261.296 152.064 261.8 152.064ZM262.466 162V153.306H261.116V162H262.466ZM269.443 162.216C271.729 162.216 273.313 160.452 273.313 157.644C273.313 154.818 271.729 153.09 269.443 153.09C268.219 153.09 267.139 153.72 266.509 154.602V153.306H265.159V165.312H266.509V160.686C267.229 161.64 268.255 162.216 269.443 162.216ZM269.101 161.01C268.039 161.01 266.977 160.362 266.509 159.606V155.682C266.977 154.926 268.039 154.296 269.101 154.296C270.847 154.296 271.891 155.718 271.891 157.644C271.891 159.57 270.847 161.01 269.101 161.01ZM277.673 162.216C278.447 162.216 278.933 161.982 279.275 161.658L278.879 160.632C278.699 160.83 278.357 161.01 277.961 161.01C277.385 161.01 277.097 160.542 277.097 159.894V154.494H278.861V153.306H277.097V150.93H275.729V153.306H274.289V154.494H275.729V160.182C275.729 161.478 276.377 162.216 277.673 162.216ZM281.434 152.064C281.938 152.064 282.334 151.668 282.334 151.164C282.334 150.66 281.938 150.246 281.434 150.246C280.93 150.246 280.516 150.66 280.516 151.164C280.516 151.668 280.93 152.064 281.434 152.064ZM282.1 162V153.306H280.75V162H282.1ZM288.591 162.216C291.237 162.216 292.893 160.164 292.893 157.644C292.893 155.124 291.237 153.09 288.591 153.09C285.945 153.09 284.289 155.124 284.289 157.644C284.289 160.164 285.945 162.216 288.591 162.216ZM288.591 161.01C286.737 161.01 285.711 159.426 285.711 157.644C285.711 155.88 286.737 154.296 288.591 154.296C290.445 154.296 291.471 155.88 291.471 157.644C291.471 159.426 290.445 161.01 288.591 161.01ZM302.312 162V155.898C302.312 154.008 301.358 153.09 299.558 153.09C298.244 153.09 297.056 153.828 296.444 154.566V153.306H295.094V162H296.444V155.646C296.966 154.944 297.956 154.296 299.018 154.296C300.188 154.296 300.98 154.764 300.98 156.312V162H302.312ZM305.694 154.584C305.694 154.584 306.18 150.894 306.18 150.642C306.18 150.192 305.82 149.814 305.352 149.814C304.902 149.814 304.542 150.192 304.542 150.642C304.542 150.894 305.028 154.584 305.028 154.584H305.694ZM308.304 154.584C308.304 154.584 308.79 150.894 308.79 150.642C308.79 150.192 308.43 149.814 307.98 149.814C307.512 149.814 307.152 150.192 307.152 150.642C307.152 150.894 307.638 154.584 307.638 154.584H308.304ZM177.399 204.728V203.774H169.461V204.728H177.399ZM177.399 208.202V207.248H169.461V208.202H177.399ZM180.046 204.584C180.046 204.584 180.532 200.894 180.532 200.642C180.532 200.192 180.172 199.814 179.704 199.814C179.254 199.814 178.894 200.192 178.894 200.642C178.894 200.894 179.38 204.584 179.38 204.584H180.046ZM182.656 204.584C182.656 204.584 183.142 200.894 183.142 200.642C183.142 200.192 182.782 199.814 182.332 199.814C181.864 199.814 181.504 200.192 181.504 200.642C181.504 200.894 181.99 204.584 181.99 204.584H182.656ZM266.249 204.584C266.249 204.584 266.735 200.894 266.735 200.642C266.735 200.192 266.375 199.814 265.907 199.814C265.457 199.814 265.097 200.192 265.097 200.642C265.097 200.894 265.583 204.584 265.583 204.584H266.249ZM268.859 204.584C268.859 204.584 269.345 200.894 269.345 200.642C269.345 200.192 268.985 199.814 268.535 199.814C268.067 199.814 267.707 200.192 267.707 200.642C267.707 200.894 268.193 204.584 268.193 204.584H268.859ZM177.399 229.728V228.774H169.461V229.728H177.399ZM177.399 233.202V232.248H169.461V233.202H177.399ZM180.046 229.584C180.046 229.584 180.532 225.894 180.532 225.642C180.532 225.192 180.172 224.814 179.704 224.814C179.254 224.814 178.894 225.192 178.894 225.642C178.894 225.894 179.38 229.584 179.38 229.584H180.046ZM182.656 229.584C182.656 229.584 183.142 225.894 183.142 225.642C183.142 225.192 182.782 224.814 182.332 224.814C181.864 224.814 181.504 225.192 181.504 225.642C181.504 225.894 181.99 229.584 181.99 229.584H182.656ZM266.249 229.584C266.249 229.584 266.735 225.894 266.735 225.642C266.735 225.192 266.375 224.814 265.907 224.814C265.457 224.814 265.097 225.192 265.097 225.642C265.097 225.894 265.583 229.584 265.583 229.584H266.249ZM268.859 229.584C268.859 229.584 269.345 225.894 269.345 225.642C269.345 225.192 268.985 224.814 268.535 224.814C268.067 224.814 267.707 225.192 267.707 225.642C267.707 225.894 268.193 229.584 268.193 229.584H268.859ZM177.399 279.728V278.774H169.461V279.728H177.399ZM177.399 283.202V282.248H169.461V283.202H177.399ZM180.046 279.584C180.046 279.584 180.532 275.894 180.532 275.642C180.532 275.192 180.172 274.814 179.704 274.814C179.254 274.814 178.894 275.192 178.894 275.642C178.894 275.894 179.38 279.584 179.38 279.584H180.046ZM182.656 279.584C182.656 279.584 183.142 275.894 183.142 275.642C183.142 275.192 182.782 274.814 182.332 274.814C181.864 274.814 181.504 275.192 181.504 275.642C181.504 275.894 181.99 279.584 181.99 279.584H182.656ZM266.249 279.584C266.249 279.584 266.735 275.894 266.735 275.642C266.735 275.192 266.375 274.814 265.907 274.814C265.457 274.814 265.097 275.192 265.097 275.642C265.097 275.894 265.583 279.584 265.583 279.584H266.249ZM268.859 279.584C268.859 279.584 269.345 275.894 269.345 275.642C269.345 275.192 268.985 274.814 268.535 274.814C268.067 274.814 267.707 275.192 267.707 275.642C267.707 275.894 268.193 279.584 268.193 279.584H268.859ZM177.399 304.728V303.774H169.461V304.728H177.399ZM177.399 308.202V307.248H169.461V308.202H177.399ZM180.046 304.584C180.046 304.584 180.532 300.894 180.532 300.642C180.532 300.192 180.172 299.814 179.704 299.814C179.254 299.814 178.894 300.192 178.894 300.642C178.894 300.894 179.38 304.584 179.38 304.584H180.046ZM182.656 304.584C182.656 304.584 183.142 300.894 183.142 300.642C183.142 300.192 182.782 299.814 182.332 299.814C181.864 299.814 181.504 300.192 181.504 300.642C181.504 300.894 181.99 304.584 181.99 304.584H182.656ZM266.249 304.584C266.249 304.584 266.735 300.894 266.735 300.642C266.735 300.192 266.375 299.814 265.907 299.814C265.457 299.814 265.097 300.192 265.097 300.642C265.097 300.894 265.583 304.584 265.583 304.584H266.249ZM268.859 304.584C268.859 304.584 269.345 300.894 269.345 300.642C269.345 300.192 268.985 299.814 268.535 299.814C268.067 299.814 267.707 300.192 267.707 300.642C267.707 300.894 268.193 304.584 268.193 304.584H268.859Z" fill="white"/>
<path d="M117.689 112V105.898C117.689 104.008 116.735 103.09 114.935 103.09C113.621 103.09 112.433 103.828 111.821 104.566V103.306H110.471V112H111.821V105.646C112.343 104.944 113.333 104.296 114.395 104.296C115.565 104.296 116.357 104.764 116.357 106.312V112H117.689ZM127.189 112V106.024C127.189 103.918 125.677 103.09 123.823 103.09C122.401 103.09 121.285 103.558 120.349 104.53L120.979 105.466C121.753 104.62 122.599 104.26 123.643 104.26C124.903 104.26 125.839 104.926 125.839 106.078V107.644C125.137 106.852 124.147 106.474 122.959 106.474C121.483 106.474 119.935 107.374 119.935 109.336C119.935 111.226 121.501 112.216 122.959 112.216C124.129 112.216 125.137 111.802 125.839 111.01V112H127.189ZM123.463 111.244C122.185 111.244 121.303 110.452 121.303 109.336C121.303 108.238 122.185 107.446 123.463 107.446C124.399 107.446 125.317 107.806 125.839 108.508V110.164C125.317 110.884 124.399 111.244 123.463 111.244ZM141.757 112V105.718C141.757 103.972 140.911 103.09 139.327 103.09C138.066 103.09 136.897 103.918 136.411 104.71C136.159 103.81 135.403 103.09 134.089 103.09C132.793 103.09 131.641 104.008 131.263 104.566V103.306H129.913V112H131.263V105.646C131.731 104.944 132.667 104.296 133.549 104.296C134.701 104.296 135.151 104.998 135.151 106.096V112H136.501V105.628C136.951 104.926 137.905 104.296 138.805 104.296C139.939 104.296 140.407 104.998 140.407 106.096V112H141.757ZM148.392 112.216C149.796 112.216 150.966 111.73 151.848 110.866L151.2 109.984C150.498 110.704 149.508 111.1 148.5 111.1C146.628 111.1 145.494 109.732 145.386 108.094H152.406V107.752C152.406 105.142 150.858 103.09 148.23 103.09C145.746 103.09 143.946 105.124 143.946 107.644C143.946 110.362 145.8 112.216 148.392 112.216ZM151.074 107.086H145.368C145.44 105.772 146.358 104.206 148.212 104.206C150.192 104.206 151.056 105.808 151.074 107.086ZM235.33 112.216C236.914 112.216 237.85 111.568 238.516 110.704L237.616 109.876C237.04 110.65 236.302 111.01 235.402 111.01C233.566 111.01 232.396 109.57 232.396 107.644C232.396 105.718 233.566 104.296 235.402 104.296C236.302 104.296 237.04 104.62 237.616 105.412L238.516 104.602C237.85 103.738 236.914 103.09 235.33 103.09C232.738 103.09 230.992 105.07 230.992 107.644C230.992 110.218 232.738 112.216 235.33 112.216ZM244.224 112.216C246.87 112.216 248.526 110.164 248.526 107.644C248.526 105.124 246.87 103.09 244.224 103.09C241.578 103.09 239.922 105.124 239.922 107.644C239.922 110.164 241.578 112.216 244.224 112.216ZM244.224 111.01C242.37 111.01 241.344 109.426 241.344 107.644C241.344 105.88 242.37 104.296 244.224 104.296C246.078 104.296 247.104 105.88 247.104 107.644C247.104 109.426 246.078 111.01 244.224 111.01ZM257.945 112V105.898C257.945 104.008 256.991 103.09 255.191 103.09C253.877 103.09 252.689 103.828 252.077 104.566V103.306H250.727V112H252.077V105.646C252.599 104.944 253.589 104.296 254.651 104.296C255.821 104.296 256.613 104.764 256.613 106.312V112H257.945ZM262.873 112.216C263.647 112.216 264.133 111.982 264.475 111.658L264.079 110.632C263.899 110.83 263.557 111.01 263.161 111.01C262.585 111.01 262.297 110.542 262.297 109.894V104.494H264.061V103.306H262.297V100.93H260.929V103.306H259.489V104.494H260.929V110.182C260.929 111.478 261.577 112.216 262.873 112.216ZM269.892 112.216C271.296 112.216 272.466 111.73 273.348 110.866L272.7 109.984C271.998 110.704 271.008 111.1 270 111.1C268.128 111.1 266.994 109.732 266.886 108.094H273.906V107.752C273.906 105.142 272.358 103.09 269.73 103.09C267.246 103.09 265.446 105.124 265.446 107.644C265.446 110.362 267.3 112.216 269.892 112.216ZM272.574 107.086H266.868C266.94 105.772 267.858 104.206 269.712 104.206C271.692 104.206 272.556 105.808 272.574 107.086ZM283.31 112V105.898C283.31 104.008 282.356 103.09 280.556 103.09C279.242 103.09 278.054 103.828 277.442 104.566V103.306H276.092V112H277.442V105.646C277.964 104.944 278.954 104.296 280.016 104.296C281.186 104.296 281.978 104.764 281.978 106.312V112H283.31ZM288.238 112.216C289.012 112.216 289.498 111.982 289.84 111.658L289.444 110.632C289.264 110.83 288.922 111.01 288.526 111.01C287.95 111.01 287.662 110.542 287.662 109.894V104.494H289.426V103.306H287.662V100.93H286.294V103.306H284.854V104.494H286.294V110.182C286.294 111.478 286.942 112.216 288.238 112.216ZM114.755 162.216C117.041 162.216 118.625 160.452 118.625 157.644C118.625 154.818 117.041 153.09 114.755 153.09C113.531 153.09 112.451 153.72 111.821 154.602V153.306H110.471V165.312H111.821V160.686C112.541 161.64 113.567 162.216 114.755 162.216ZM114.413 161.01C113.351 161.01 112.289 160.362 111.821 159.606V155.682C112.289 154.926 113.351 154.296 114.413 154.296C116.159 154.296 117.203 155.718 117.203 157.644C117.203 159.57 116.159 161.01 114.413 161.01ZM122.122 162V155.844C122.518 155.142 123.652 154.458 124.498 154.458C124.696 154.458 124.858 154.476 125.02 154.494V153.108C123.832 153.108 122.824 153.792 122.122 154.692V153.306H120.772V162H122.122ZM130.511 162.216C133.157 162.216 134.813 160.164 134.813 157.644C134.813 155.124 133.157 153.09 130.511 153.09C127.865 153.09 126.209 155.124 126.209 157.644C126.209 160.164 127.865 162.216 130.511 162.216ZM130.511 161.01C128.657 161.01 127.631 159.426 127.631 157.644C127.631 155.88 128.657 154.296 130.511 154.296C132.365 154.296 133.391 155.88 133.391 157.644C133.391 159.426 132.365 161.01 130.511 161.01ZM141.298 162.216C143.584 162.216 145.168 160.452 145.168 157.644C145.168 154.818 143.584 153.09 141.298 153.09C140.074 153.09 138.994 153.72 138.364 154.602V153.306H137.014V165.312H138.364V160.686C139.084 161.64 140.11 162.216 141.298 162.216ZM140.956 161.01C139.894 161.01 138.832 160.362 138.364 159.606V155.682C138.832 154.926 139.894 154.296 140.956 154.296C142.702 154.296 143.746 155.718 143.746 157.644C143.746 159.57 142.702 161.01 140.956 161.01ZM151.257 162.216C152.661 162.216 153.831 161.73 154.713 160.866L154.065 159.984C153.363 160.704 152.373 161.1 151.365 161.1C149.493 161.1 148.359 159.732 148.251 158.094H155.271V157.752C155.271 155.142 153.723 153.09 151.095 153.09C148.611 153.09 146.811 155.124 146.811 157.644C146.811 160.362 148.665 162.216 151.257 162.216ZM153.939 157.086H148.233C148.305 155.772 149.223 154.206 151.077 154.206C153.057 154.206 153.921 155.808 153.939 157.086ZM158.807 162V155.844C159.203 155.142 160.337 154.458 161.183 154.458C161.381 154.458 161.543 154.476 161.705 154.494V153.108C160.517 153.108 159.509 153.792 158.807 154.692V153.306H157.457V162H158.807ZM165.613 162.216C166.387 162.216 166.873 161.982 167.215 161.658L166.819 160.632C166.639 160.83 166.297 161.01 165.901 161.01C165.325 161.01 165.037 160.542 165.037 159.894V154.494H166.801V153.306H165.037V150.93H163.669V153.306H162.229V154.494H163.669V160.182C163.669 161.478 164.317 162.216 165.613 162.216ZM168.222 165.402C168.456 165.474 168.906 165.528 169.194 165.528C170.346 165.51 171.228 165.024 171.75 163.764L176.106 153.306H174.648L171.75 160.434L168.87 153.306H167.394L171.03 162.09L170.454 163.404C170.148 164.124 169.752 164.322 169.158 164.322C168.942 164.322 168.618 164.268 168.42 164.178L168.222 165.402ZM114.305 212.216C115.889 212.216 116.825 211.568 117.491 210.704L116.591 209.876C116.015 210.65 115.277 211.01 114.377 211.01C112.541 211.01 111.371 209.57 111.371 207.644C111.371 205.718 112.541 204.296 114.377 204.296C115.277 204.296 116.015 204.62 116.591 205.412L117.491 204.602C116.825 203.738 115.889 203.09 114.305 203.09C111.713 203.09 109.967 205.07 109.967 207.644C109.967 210.218 111.713 212.216 114.305 212.216ZM123.199 212.216C125.845 212.216 127.501 210.164 127.501 207.644C127.501 205.124 125.845 203.09 123.199 203.09C120.553 203.09 118.897 205.124 118.897 207.644C118.897 210.164 120.553 212.216 123.199 212.216ZM123.199 211.01C121.345 211.01 120.319 209.426 120.319 207.644C120.319 205.88 121.345 204.296 123.199 204.296C125.053 204.296 126.079 205.88 126.079 207.644C126.079 209.426 125.053 211.01 123.199 211.01ZM136.92 212V205.898C136.92 204.008 135.966 203.09 134.166 203.09C132.852 203.09 131.664 203.828 131.052 204.566V203.306H129.702V212H131.052V205.646C131.574 204.944 132.564 204.296 133.626 204.296C134.796 204.296 135.588 204.764 135.588 206.312V212H136.92ZM141.847 212.216C142.621 212.216 143.107 211.982 143.449 211.658L143.053 210.632C142.873 210.83 142.531 211.01 142.135 211.01C141.559 211.01 141.271 210.542 141.271 209.894V204.494H143.035V203.306H141.271V200.93H139.903V203.306H138.463V204.494H139.903V210.182C139.903 211.478 140.551 212.216 141.847 212.216ZM148.866 212.216C150.27 212.216 151.44 211.73 152.322 210.866L151.674 209.984C150.972 210.704 149.982 211.1 148.974 211.1C147.102 211.1 145.968 209.732 145.86 208.094H152.88V207.752C152.88 205.142 151.332 203.09 148.704 203.09C146.22 203.09 144.42 205.124 144.42 207.644C144.42 210.362 146.274 212.216 148.866 212.216ZM151.548 207.086H145.842C145.914 205.772 146.832 204.206 148.686 204.206C150.666 204.206 151.53 205.808 151.548 207.086ZM162.285 212V205.898C162.285 204.008 161.331 203.09 159.531 203.09C158.217 203.09 157.029 203.828 156.417 204.566V203.306H155.067V212H156.417V205.646C156.939 204.944 157.929 204.296 158.991 204.296C160.161 204.296 160.953 204.764 160.953 206.312V212H162.285ZM167.212 212.216C167.986 212.216 168.472 211.982 168.814 211.658L168.418 210.632C168.238 210.83 167.896 211.01 167.5 211.01C166.924 211.01 166.636 210.542 166.636 209.894V204.494H168.4V203.306H166.636V200.93H165.268V203.306H163.828V204.494H165.268V210.182C165.268 211.478 165.916 212.216 167.212 212.216ZM114.305 237.216C115.889 237.216 116.825 236.568 117.491 235.704L116.591 234.876C116.015 235.65 115.277 236.01 114.377 236.01C112.541 236.01 111.371 234.57 111.371 232.644C111.371 230.718 112.541 229.296 114.377 229.296C115.277 229.296 116.015 229.62 116.591 230.412L117.491 229.602C116.825 228.738 115.889 228.09 114.305 228.09C111.713 228.09 109.967 230.07 109.967 232.644C109.967 235.218 111.713 237.216 114.305 237.216ZM123.199 237.216C125.845 237.216 127.501 235.164 127.501 232.644C127.501 230.124 125.845 228.09 123.199 228.09C120.553 228.09 118.897 230.124 118.897 232.644C118.897 235.164 120.553 237.216 123.199 237.216ZM123.199 236.01C121.345 236.01 120.319 234.426 120.319 232.644C120.319 230.88 121.345 229.296 123.199 229.296C125.053 229.296 126.079 230.88 126.079 232.644C126.079 234.426 125.053 236.01 123.199 236.01ZM136.92 237V230.898C136.92 229.008 135.966 228.09 134.166 228.09C132.852 228.09 131.664 228.828 131.052 229.566V228.306H129.702V237H131.052V230.646C131.574 229.944 132.564 229.296 133.626 229.296C134.796 229.296 135.588 229.764 135.588 231.312V237H136.92ZM141.847 237.216C142.621 237.216 143.107 236.982 143.449 236.658L143.053 235.632C142.873 235.83 142.531 236.01 142.135 236.01C141.559 236.01 141.271 235.542 141.271 234.894V229.494H143.035V228.306H141.271V225.93H139.903V228.306H138.463V229.494H139.903V235.182C139.903 236.478 140.551 237.216 141.847 237.216ZM148.866 237.216C150.27 237.216 151.44 236.73 152.322 235.866L151.674 234.984C150.972 235.704 149.982 236.1 148.974 236.1C147.102 236.1 145.968 234.732 145.86 233.094H152.88V232.752C152.88 230.142 151.332 228.09 148.704 228.09C146.22 228.09 144.42 230.124 144.42 232.644C144.42 235.362 146.274 237.216 148.866 237.216ZM151.548 232.086H145.842C145.914 230.772 146.832 229.206 148.686 229.206C150.666 229.206 151.53 230.808 151.548 232.086ZM162.285 237V230.898C162.285 229.008 161.331 228.09 159.531 228.09C158.217 228.09 157.029 228.828 156.417 229.566V228.306H155.067V237H156.417V230.646C156.939 229.944 157.929 229.296 158.991 229.296C160.161 229.296 160.953 229.764 160.953 231.312V237H162.285ZM167.212 237.216C167.986 237.216 168.472 236.982 168.814 236.658L168.418 235.632C168.238 235.83 167.896 236.01 167.5 236.01C166.924 236.01 166.636 235.542 166.636 234.894V229.494H168.4V228.306H166.636V225.93H165.268V228.306H163.828V229.494H165.268V235.182C165.268 236.478 165.916 237.216 167.212 237.216ZM114.305 287.216C115.889 287.216 116.825 286.568 117.491 285.704L116.591 284.876C116.015 285.65 115.277 286.01 114.377 286.01C112.541 286.01 111.371 284.57 111.371 282.644C111.371 280.718 112.541 279.296 114.377 279.296C115.277 279.296 116.015 279.62 116.591 280.412L117.491 279.602C116.825 278.738 115.889 278.09 114.305 278.09C111.713 278.09 109.967 280.07 109.967 282.644C109.967 285.218 111.713 287.216 114.305 287.216ZM123.199 287.216C125.845 287.216 127.501 285.164 127.501 282.644C127.501 280.124 125.845 278.09 123.199 278.09C120.553 278.09 118.897 280.124 118.897 282.644C118.897 285.164 120.553 287.216 123.199 287.216ZM123.199 286.01C121.345 286.01 120.319 284.426 120.319 282.644C120.319 280.88 121.345 279.296 123.199 279.296C125.053 279.296 126.079 280.88 126.079 282.644C126.079 284.426 125.053 286.01 123.199 286.01ZM136.92 287V280.898C136.92 279.008 135.966 278.09 134.166 278.09C132.852 278.09 131.664 278.828 131.052 279.566V278.306H129.702V287H131.052V280.646C131.574 279.944 132.564 279.296 133.626 279.296C134.796 279.296 135.588 279.764 135.588 281.312V287H136.92ZM141.847 287.216C142.621 287.216 143.107 286.982 143.449 286.658L143.053 285.632C142.873 285.83 142.531 286.01 142.135 286.01C141.559 286.01 141.271 285.542 141.271 284.894V279.494H143.035V278.306H141.271V275.93H139.903V278.306H138.463V279.494H139.903V285.182C139.903 286.478 140.551 287.216 141.847 287.216ZM148.866 287.216C150.27 287.216 151.44 286.73 152.322 285.866L151.674 284.984C150.972 285.704 149.982 286.1 148.974 286.1C147.102 286.1 145.968 284.732 145.86 283.094H152.88V282.752C152.88 280.142 151.332 278.09 148.704 278.09C146.22 278.09 144.42 280.124 144.42 282.644C144.42 285.362 146.274 287.216 148.866 287.216ZM151.548 282.086H145.842C145.914 280.772 146.832 279.206 148.686 279.206C150.666 279.206 151.53 280.808 151.548 282.086ZM162.285 287V280.898C162.285 279.008 161.331 278.09 159.531 278.09C158.217 278.09 157.029 278.828 156.417 279.566V278.306H155.067V287H156.417V280.646C156.939 279.944 157.929 279.296 158.991 279.296C160.161 279.296 160.953 279.764 160.953 281.312V287H162.285ZM167.212 287.216C167.986 287.216 168.472 286.982 168.814 286.658L168.418 285.632C168.238 285.83 167.896 286.01 167.5 286.01C166.924 286.01 166.636 285.542 166.636 284.894V279.494H168.4V278.306H166.636V275.93H165.268V278.306H163.828V279.494H165.268V285.182C165.268 286.478 165.916 287.216 167.212 287.216ZM114.305 312.216C115.889 312.216 116.825 311.568 117.491 310.704L116.591 309.876C116.015 310.65 115.277 311.01 114.377 311.01C112.541 311.01 111.371 309.57 111.371 307.644C111.371 305.718 112.541 304.296 114.377 304.296C115.277 304.296 116.015 304.62 116.591 305.412L117.491 304.602C116.825 303.738 115.889 303.09 114.305 303.09C111.713 303.09 109.967 305.07 109.967 307.644C109.967 310.218 111.713 312.216 114.305 312.216ZM123.199 312.216C125.845 312.216 127.501 310.164 127.501 307.644C127.501 305.124 125.845 303.09 123.199 303.09C120.553 303.09 118.897 305.124 118.897 307.644C118.897 310.164 120.553 312.216 123.199 312.216ZM123.199 311.01C121.345 311.01 120.319 309.426 120.319 307.644C120.319 305.88 121.345 304.296 123.199 304.296C125.053 304.296 126.079 305.88 126.079 307.644C126.079 309.426 125.053 311.01 123.199 311.01ZM136.92 312V305.898C136.92 304.008 135.966 303.09 134.166 303.09C132.852 303.09 131.664 303.828 131.052 304.566V303.306H129.702V312H131.052V305.646C131.574 304.944 132.564 304.296 133.626 304.296C134.796 304.296 135.588 304.764 135.588 306.312V312H136.92ZM141.847 312.216C142.621 312.216 143.107 311.982 143.449 311.658L143.053 310.632C142.873 310.83 142.531 311.01 142.135 311.01C141.559 311.01 141.271 310.542 141.271 309.894V304.494H143.035V303.306H141.271V300.93H139.903V303.306H138.463V304.494H139.903V310.182C139.903 311.478 140.551 312.216 141.847 312.216ZM148.866 312.216C150.27 312.216 151.44 311.73 152.322 310.866L151.674 309.984C150.972 310.704 149.982 311.1 148.974 311.1C147.102 311.1 145.968 309.732 145.86 308.094H152.88V307.752C152.88 305.142 151.332 303.09 148.704 303.09C146.22 303.09 144.42 305.124 144.42 307.644C144.42 310.362 146.274 312.216 148.866 312.216ZM151.548 307.086H145.842C145.914 305.772 146.832 304.206 148.686 304.206C150.666 304.206 151.53 305.808 151.548 307.086ZM162.285 312V305.898C162.285 304.008 161.331 303.09 159.531 303.09C158.217 303.09 157.029 303.828 156.417 304.566V303.306H155.067V312H156.417V305.646C156.939 304.944 157.929 304.296 158.991 304.296C160.161 304.296 160.953 304.764 160.953 306.312V312H162.285ZM167.212 312.216C167.986 312.216 168.472 311.982 168.814 311.658L168.418 310.632C168.238 310.83 167.896 311.01 167.5 311.01C166.924 311.01 166.636 310.542 166.636 309.894V304.494H168.4V303.306H166.636V300.93H165.268V303.306H163.828V304.494H165.268V310.182C165.268 311.478 165.916 312.216 167.212 312.216Z" fill="#20D287"/>
</svg>
