<svg width="489" height="544" viewBox="0 0 489 544" fill="none" xmlns="http://www.w3.org/2000/svg">
<rect width="489" height="466" fill="#362F4A"/>
<path d="M57.062 62.36L61.328 49.634H60.266L56 62.36H57.062ZM62.3882 62.36L66.6542 49.634H65.5922L61.3262 62.36H62.3882ZM77.1785 62V51.326H80.9945V49.994H71.8865V51.326H75.6845V62H77.1785ZM87.96 62.216C91.506 62.216 93.936 59.552 93.936 56.006C93.936 52.46 91.506 49.796 87.96 49.796C84.414 49.796 82.002 52.46 82.002 56.006C82.002 59.552 84.414 62.216 87.96 62.216ZM87.96 60.884C85.26 60.884 83.55 58.796 83.55 56.006C83.55 53.198 85.26 51.128 87.96 51.128C90.642 51.128 92.388 53.198 92.388 56.006C92.388 58.796 90.642 60.884 87.96 60.884ZM100.356 62C104.1 62 106.512 59.426 106.512 56.006C106.512 52.604 104.1 49.994 100.356 49.994H96.2517V62H100.356ZM100.356 60.668H97.7457V51.326H100.356C103.326 51.326 104.964 53.414 104.964 56.006C104.964 58.58 103.272 60.668 100.356 60.668ZM114.327 62.216C117.873 62.216 120.303 59.552 120.303 56.006C120.303 52.46 117.873 49.796 114.327 49.796C110.781 49.796 108.369 52.46 108.369 56.006C108.369 59.552 110.781 62.216 114.327 62.216ZM114.327 60.884C111.627 60.884 109.917 58.796 109.917 56.006C109.917 53.198 111.627 51.128 114.327 51.128C117.009 51.128 118.755 53.198 118.755 56.006C118.755 58.796 117.009 60.884 114.327 60.884ZM123.285 55.16C123.825 55.16 124.275 54.692 124.275 54.17C124.275 53.63 123.825 53.18 123.285 53.18C122.745 53.18 122.295 53.63 122.295 54.17C122.295 54.692 122.745 55.16 123.285 55.16ZM123.285 62.18C123.825 62.18 124.275 61.73 124.275 61.19C124.275 60.65 123.825 60.2 123.285 60.2C122.745 60.2 122.295 60.65 122.295 61.19C122.295 61.73 122.745 62.18 123.285 62.18ZM137.008 62.216C139.132 62.216 140.572 61.208 141.58 59.822L140.32 59.138C139.636 60.146 138.376 60.884 137.008 60.884C134.38 60.884 132.382 58.85 132.382 56.006C132.382 53.126 134.38 51.128 137.008 51.128C138.376 51.128 139.636 51.848 140.32 52.874L141.562 52.172C140.608 50.804 139.132 49.796 137.008 49.796C133.552 49.796 130.834 52.316 130.834 56.006C130.834 59.696 133.552 62.216 137.008 62.216ZM150.666 62V55.862C150.666 53.972 149.712 53.09 147.894 53.09C146.58 53.09 145.392 53.828 144.798 54.566V49.994H143.448V62H144.798V55.646C145.302 54.944 146.31 54.296 147.354 54.296C148.542 54.296 149.316 54.728 149.316 56.276V62H150.666ZM160.148 62V56.024C160.148 53.918 158.636 53.09 156.782 53.09C155.36 53.09 154.244 53.558 153.308 54.53L153.938 55.466C154.712 54.62 155.558 54.26 156.602 54.26C157.862 54.26 158.798 54.926 158.798 56.078V57.644C158.096 56.852 157.106 56.474 155.918 56.474C154.442 56.474 152.894 57.374 152.894 59.336C152.894 61.226 154.46 62.216 155.918 62.216C157.088 62.216 158.096 61.802 158.798 61.01V62H160.148ZM156.422 61.244C155.144 61.244 154.262 60.452 154.262 59.336C154.262 58.238 155.144 57.446 156.422 57.446C157.358 57.446 158.276 57.806 158.798 58.508V60.164C158.276 60.884 157.358 61.244 156.422 61.244ZM170.089 62V55.898C170.089 54.008 169.135 53.09 167.335 53.09C166.021 53.09 164.833 53.828 164.221 54.566V53.306H162.871V62H164.221V55.646C164.743 54.944 165.733 54.296 166.795 54.296C167.965 54.296 168.757 54.764 168.757 56.312V62H170.089ZM176.295 65.528C178.419 65.528 180.453 64.628 180.453 61.874V53.306H179.103V54.62C178.401 53.666 177.339 53.09 176.169 53.09C173.883 53.09 172.299 54.818 172.299 57.608C172.299 60.416 173.901 62.108 176.169 62.108C177.393 62.108 178.455 61.442 179.103 60.56V61.874C179.103 63.71 177.735 64.412 176.295 64.412C175.053 64.412 174.189 64.088 173.469 63.242L172.785 64.214C173.829 65.24 174.837 65.528 176.295 65.528ZM176.511 60.902C174.747 60.902 173.703 59.516 173.703 57.608C173.703 55.682 174.747 54.296 176.511 54.296C177.573 54.296 178.617 54.944 179.103 55.682V59.498C178.617 60.254 177.573 60.902 176.511 60.902ZM187.099 62.216C188.503 62.216 189.673 61.73 190.555 60.866L189.907 59.984C189.205 60.704 188.215 61.1 187.207 61.1C185.335 61.1 184.201 59.732 184.093 58.094H191.113V57.752C191.113 55.142 189.565 53.09 186.937 53.09C184.453 53.09 182.653 55.124 182.653 57.644C182.653 60.362 184.507 62.216 187.099 62.216ZM189.781 57.086H184.075C184.147 55.772 185.065 54.206 186.919 54.206C188.899 54.206 189.763 55.808 189.781 57.086ZM201.791 62.216C203.375 62.216 204.311 61.568 204.977 60.704L204.077 59.876C203.501 60.65 202.763 61.01 201.863 61.01C200.027 61.01 198.857 59.57 198.857 57.644C198.857 55.718 200.027 54.296 201.863 54.296C202.763 54.296 203.501 54.62 204.077 55.412L204.977 54.602C204.311 53.738 203.375 53.09 201.791 53.09C199.199 53.09 197.453 55.07 197.453 57.644C197.453 60.218 199.199 62.216 201.791 62.216ZM210.685 62.216C213.331 62.216 214.987 60.164 214.987 57.644C214.987 55.124 213.331 53.09 210.685 53.09C208.039 53.09 206.383 55.124 206.383 57.644C206.383 60.164 208.039 62.216 210.685 62.216ZM210.685 61.01C208.831 61.01 207.805 59.426 207.805 57.644C207.805 55.88 208.831 54.296 210.685 54.296C212.539 54.296 213.565 55.88 213.565 57.644C213.565 59.426 212.539 61.01 210.685 61.01ZM224.838 62V49.994H223.488V54.62C222.786 53.666 221.724 53.09 220.554 53.09C218.286 53.09 216.684 54.872 216.684 57.662C216.684 60.488 218.286 62.216 220.554 62.216C221.778 62.216 222.84 61.586 223.488 60.704V62H224.838ZM220.896 61.01C219.132 61.01 218.088 59.588 218.088 57.662C218.088 55.736 219.132 54.296 220.896 54.296C221.958 54.296 223.02 54.944 223.488 55.7V59.624C223.02 60.38 221.958 61.01 220.896 61.01ZM231.483 62.216C232.887 62.216 234.057 61.73 234.939 60.866L234.291 59.984C233.589 60.704 232.599 61.1 231.591 61.1C229.719 61.1 228.585 59.732 228.477 58.094H235.497V57.752C235.497 55.142 233.949 53.09 231.321 53.09C228.837 53.09 227.037 55.124 227.037 57.644C227.037 60.362 228.891 62.216 231.483 62.216ZM234.165 57.086H228.459C228.531 55.772 229.449 54.206 231.303 54.206C233.283 54.206 234.147 55.808 234.165 57.086ZM243.692 59.642V55.7C244.16 54.944 245.222 54.296 246.302 54.296C248.048 54.296 249.092 55.736 249.092 57.662C249.092 59.588 248.048 61.01 246.302 61.01C245.222 61.01 244.16 60.398 243.692 59.642ZM243.692 62V60.704C244.34 61.586 245.402 62.216 246.626 62.216C248.894 62.216 250.496 60.488 250.496 57.662C250.496 54.872 248.912 53.09 246.626 53.09C245.456 53.09 244.394 53.666 243.692 54.62V49.994H242.342V62H243.692ZM256.638 62.216C258.042 62.216 259.212 61.73 260.094 60.866L259.446 59.984C258.744 60.704 257.754 61.1 256.746 61.1C254.874 61.1 253.74 59.732 253.632 58.094H260.652V57.752C260.652 55.142 259.104 53.09 256.476 53.09C253.992 53.09 252.192 55.124 252.192 57.644C252.192 60.362 254.046 62.216 256.638 62.216ZM259.32 57.086H253.614C253.686 55.772 254.604 54.206 256.458 54.206C258.438 54.206 259.302 55.808 259.32 57.086ZM264.188 62V49.994H262.838V62H264.188ZM270.679 62.216C273.325 62.216 274.981 60.164 274.981 57.644C274.981 55.124 273.325 53.09 270.679 53.09C268.033 53.09 266.377 55.124 266.377 57.644C266.377 60.164 268.033 62.216 270.679 62.216ZM270.679 61.01C268.825 61.01 267.799 59.426 267.799 57.644C267.799 55.88 268.825 54.296 270.679 54.296C272.533 54.296 273.559 55.88 273.559 57.644C273.559 59.426 272.533 61.01 270.679 61.01ZM286.074 62L288.846 53.306H287.424L285.3 60.236L283.032 53.306H281.862L279.576 60.236L277.452 53.306H276.048L278.82 62H280.17L282.438 55.016L284.706 62H286.074ZM161.702 129.728V128.774H153.764V129.728H161.702ZM161.702 133.202V132.248H153.764V133.202H161.702ZM164.349 129.584C164.349 129.584 164.835 125.894 164.835 125.642C164.835 125.192 164.475 124.814 164.007 124.814C163.557 124.814 163.197 125.192 163.197 125.642C163.197 125.894 163.683 129.584 163.683 129.584H164.349ZM166.959 129.584C166.959 129.584 167.445 125.894 167.445 125.642C167.445 125.192 167.085 124.814 166.635 124.814C166.167 124.814 165.807 125.192 165.807 125.642C165.807 125.894 166.293 129.584 166.293 129.584H166.959ZM176.548 137V131.024C176.548 128.918 175.036 128.09 173.182 128.09C171.76 128.09 170.644 128.558 169.708 129.53L170.338 130.466C171.112 129.62 171.958 129.26 173.002 129.26C174.262 129.26 175.198 129.926 175.198 131.078V132.644C174.496 131.852 173.506 131.474 172.318 131.474C170.842 131.474 169.294 132.374 169.294 134.336C169.294 136.226 170.86 137.216 172.318 137.216C173.488 137.216 174.496 136.802 175.198 136.01V137H176.548ZM172.822 136.244C171.544 136.244 170.662 135.452 170.662 134.336C170.662 133.238 171.544 132.446 172.822 132.446C173.758 132.446 174.676 132.806 175.198 133.508V135.164C174.676 135.884 173.758 136.244 172.822 136.244ZM186.49 137V128.306H185.14V134.696C184.636 135.398 183.628 136.01 182.584 136.01C181.396 136.01 180.622 135.56 180.622 134.03V128.306H179.272V134.444C179.272 136.316 180.226 137.216 182.044 137.216C183.34 137.216 184.474 136.532 185.14 135.776V137H186.49ZM191.4 137.216C192.174 137.216 192.66 136.982 193.002 136.658L192.606 135.632C192.426 135.83 192.084 136.01 191.688 136.01C191.112 136.01 190.824 135.542 190.824 134.894V129.494H192.588V128.306H190.824V125.93H189.456V128.306H188.016V129.494H189.456V135.182C189.456 136.478 190.104 137.216 191.4 137.216ZM201.713 137V130.862C201.713 128.972 200.759 128.09 198.941 128.09C197.627 128.09 196.439 128.828 195.845 129.566V124.994H194.495V137H195.845V130.646C196.349 129.944 197.357 129.296 198.401 129.296C199.589 129.296 200.363 129.728 200.363 131.276V137H201.713ZM208.207 137.216C210.853 137.216 212.509 135.164 212.509 132.644C212.509 130.124 210.853 128.09 208.207 128.09C205.561 128.09 203.905 130.124 203.905 132.644C203.905 135.164 205.561 137.216 208.207 137.216ZM208.207 136.01C206.353 136.01 205.327 134.426 205.327 132.644C205.327 130.88 206.353 129.296 208.207 129.296C210.061 129.296 211.087 130.88 211.087 132.644C211.087 134.426 210.061 136.01 208.207 136.01ZM216.059 137V130.844C216.455 130.142 217.589 129.458 218.435 129.458C218.633 129.458 218.795 129.476 218.957 129.494V128.108C217.769 128.108 216.761 128.792 216.059 129.692V128.306H214.709V137H216.059ZM221.425 129.584C221.425 129.584 221.911 125.894 221.911 125.642C221.911 125.192 221.551 124.814 221.083 124.814C220.633 124.814 220.273 125.192 220.273 125.642C220.273 125.894 220.759 129.584 220.759 129.584H221.425ZM224.035 129.584C224.035 129.584 224.521 125.894 224.521 125.642C224.521 125.192 224.161 124.814 223.711 124.814C223.243 124.814 222.883 125.192 222.883 125.642C222.883 125.894 223.369 129.584 223.369 129.584H224.035ZM298.425 129.728V128.774H290.487V129.728H298.425ZM298.425 133.202V132.248H290.487V133.202H298.425ZM301.071 129.584C301.071 129.584 301.557 125.894 301.557 125.642C301.557 125.192 301.197 124.814 300.729 124.814C300.279 124.814 299.919 125.192 299.919 125.642C299.919 125.894 300.405 129.584 300.405 129.584H301.071ZM303.681 129.584C303.681 129.584 304.167 125.894 304.167 125.642C304.167 125.192 303.807 124.814 303.357 124.814C302.889 124.814 302.529 125.192 302.529 125.642C302.529 125.894 303.015 129.584 303.015 129.584H303.681ZM311.958 137.216C313.2 137.216 314.316 136.892 315.216 136.316L316.386 137.558L317.412 136.658L316.278 135.452C317.322 134.336 317.934 132.788 317.934 131.006C317.934 127.46 315.504 124.796 311.958 124.796C308.412 124.796 306 127.46 306 131.006C306 134.552 308.412 137.216 311.958 137.216ZM311.958 135.884C309.258 135.884 307.548 133.796 307.548 131.006C307.548 128.198 309.258 126.128 311.958 126.128C314.64 126.128 316.386 128.198 316.386 131.006C316.386 132.338 315.972 133.508 315.27 134.372L313.578 132.536L312.534 133.418L314.244 135.272C313.596 135.668 312.822 135.884 311.958 135.884ZM327.414 137V128.306H326.064V134.696C325.56 135.398 324.552 136.01 323.508 136.01C322.32 136.01 321.546 135.56 321.546 134.03V128.306H320.196V134.444C320.196 136.316 321.15 137.216 322.968 137.216C324.264 137.216 325.398 136.532 326.064 135.776V137H327.414ZM330.794 127.064C331.298 127.064 331.694 126.668 331.694 126.164C331.694 125.66 331.298 125.246 330.794 125.246C330.29 125.246 329.876 125.66 329.876 126.164C329.876 126.668 330.29 127.064 330.794 127.064ZM331.46 137V128.306H330.11V137H331.46ZM337.987 137.216C339.571 137.216 340.507 136.568 341.173 135.704L340.273 134.876C339.697 135.65 338.959 136.01 338.059 136.01C336.223 136.01 335.053 134.57 335.053 132.644C335.053 130.718 336.223 129.296 338.059 129.296C338.959 129.296 339.697 129.62 340.273 130.412L341.173 129.602C340.507 128.738 339.571 128.09 337.987 128.09C335.395 128.09 333.649 130.07 333.649 132.644C333.649 135.218 335.395 137.216 337.987 137.216ZM350.732 137L346.862 132.248L350.714 128.306H349.004L344.432 132.932V124.994H343.082V137H344.432V134.516L345.89 133.094L349.004 137H350.732ZM353.679 134.642V130.7C354.147 129.944 355.209 129.296 356.289 129.296C358.035 129.296 359.079 130.736 359.079 132.662C359.079 134.588 358.035 136.01 356.289 136.01C355.209 136.01 354.147 135.398 353.679 134.642ZM353.679 137V135.704C354.327 136.586 355.389 137.216 356.613 137.216C358.881 137.216 360.483 135.488 360.483 132.662C360.483 129.872 358.899 128.09 356.613 128.09C355.443 128.09 354.381 128.666 353.679 129.62V124.994H352.329V137H353.679ZM369.9 137V128.306H368.55V134.696C368.046 135.398 367.038 136.01 365.994 136.01C364.806 136.01 364.032 135.56 364.032 134.03V128.306H362.682V134.444C362.682 136.316 363.636 137.216 365.454 137.216C366.75 137.216 367.884 136.532 368.55 135.776V137H369.9ZM374.81 137.216C375.584 137.216 376.07 136.982 376.412 136.658L376.016 135.632C375.836 135.83 375.494 136.01 375.098 136.01C374.522 136.01 374.234 135.542 374.234 134.894V129.494H375.998V128.306H374.234V125.93H372.866V128.306H371.426V129.494H372.866V135.182C372.866 136.478 373.514 137.216 374.81 137.216ZM378.571 127.064C379.075 127.064 379.471 126.668 379.471 126.164C379.471 125.66 379.075 125.246 378.571 125.246C378.067 125.246 377.653 125.66 377.653 126.164C377.653 126.668 378.067 127.064 378.571 127.064ZM379.237 137V128.306H377.887V137H379.237ZM389.58 137L385.71 132.248L389.562 128.306H387.852L383.28 132.932V124.994H381.93V137H383.28V134.516L384.738 133.094L387.852 137H389.58ZM391.95 129.584C391.95 129.584 392.436 125.894 392.436 125.642C392.436 125.192 392.076 124.814 391.608 124.814C391.158 124.814 390.798 125.192 390.798 125.642C390.798 125.894 391.284 129.584 391.284 129.584H391.95ZM394.56 129.584C394.56 129.584 395.046 125.894 395.046 125.642C395.046 125.192 394.686 124.814 394.236 124.814C393.768 124.814 393.408 125.192 393.408 125.642C393.408 125.894 393.894 129.584 393.894 129.584H394.56ZM184.624 179.728V178.774H176.686V179.728H184.624ZM184.624 183.202V182.248H176.686V183.202H184.624ZM187.27 179.584C187.27 179.584 187.756 175.894 187.756 175.642C187.756 175.192 187.396 174.814 186.928 174.814C186.478 174.814 186.118 175.192 186.118 175.642C186.118 175.894 186.604 179.584 186.604 179.584H187.27ZM189.88 179.584C189.88 179.584 190.366 175.894 190.366 175.642C190.366 175.192 190.006 174.814 189.556 174.814C189.088 174.814 188.728 175.192 188.728 175.642C188.728 175.894 189.214 179.584 189.214 179.584H189.88ZM196.482 187.216C199.128 187.216 200.784 185.164 200.784 182.644C200.784 180.124 199.128 178.09 196.482 178.09C193.836 178.09 192.18 180.124 192.18 182.644C192.18 185.164 193.836 187.216 196.482 187.216ZM196.482 186.01C194.628 186.01 193.602 184.426 193.602 182.644C193.602 180.88 194.628 179.296 196.482 179.296C198.336 179.296 199.362 180.88 199.362 182.644C199.362 184.426 198.336 186.01 196.482 186.01ZM206.477 190.528C208.601 190.528 210.635 189.628 210.635 186.874V178.306H209.285V179.62C208.583 178.666 207.521 178.09 206.351 178.09C204.065 178.09 202.481 179.818 202.481 182.608C202.481 185.416 204.083 187.108 206.351 187.108C207.575 187.108 208.637 186.442 209.285 185.56V186.874C209.285 188.71 207.917 189.412 206.477 189.412C205.235 189.412 204.371 189.088 203.651 188.242L202.967 189.214C204.011 190.24 205.019 190.528 206.477 190.528ZM206.693 185.902C204.929 185.902 203.885 184.516 203.885 182.608C203.885 180.682 204.929 179.296 206.693 179.296C207.755 179.296 208.799 179.944 209.285 180.682V184.498C208.799 185.254 207.755 185.902 206.693 185.902ZM214.058 180.16C214.598 180.16 215.048 179.692 215.048 179.17C215.048 178.63 214.598 178.18 214.058 178.18C213.518 178.18 213.068 178.63 213.068 179.17C213.068 179.692 213.518 180.16 214.058 180.16ZM214.058 187.18C214.598 187.18 215.048 186.73 215.048 186.19C215.048 185.65 214.598 185.2 214.058 185.2C213.518 185.2 213.068 185.65 213.068 186.19C213.068 186.73 213.518 187.18 214.058 187.18ZM225.031 187V174.994H223.681V179.62C222.979 178.666 221.917 178.09 220.747 178.09C218.479 178.09 216.877 179.872 216.877 182.662C216.877 185.488 218.479 187.216 220.747 187.216C221.971 187.216 223.033 186.586 223.681 185.704V187H225.031ZM221.089 186.01C219.325 186.01 218.281 184.588 218.281 182.662C218.281 180.736 219.325 179.296 221.089 179.296C222.151 179.296 223.213 179.944 223.681 180.7V184.624C223.213 185.38 222.151 186.01 221.089 186.01ZM231.677 187.216C233.081 187.216 234.251 186.73 235.133 185.866L234.485 184.984C233.783 185.704 232.793 186.1 231.785 186.1C229.913 186.1 228.779 184.732 228.671 183.094H235.691V182.752C235.691 180.142 234.143 178.09 231.515 178.09C229.031 178.09 227.231 180.124 227.231 182.644C227.231 185.362 229.085 187.216 231.677 187.216ZM234.359 182.086H228.653C228.725 180.772 229.643 179.206 231.497 179.206C233.477 179.206 234.341 180.808 234.359 182.086ZM240.649 187.216C242.881 187.216 244.051 186.046 244.051 184.588C244.051 181.204 238.669 182.446 238.669 180.556C238.669 179.782 239.407 179.188 240.595 179.188C241.729 179.188 242.665 179.656 243.187 180.286L243.817 179.35C243.133 178.648 242.089 178.09 240.595 178.09C238.525 178.09 237.373 179.224 237.373 180.592C237.373 183.814 242.755 182.518 242.755 184.624C242.755 185.488 242.017 186.118 240.685 186.118C239.497 186.118 238.399 185.542 237.823 184.876L237.139 185.848C238.021 186.766 239.209 187.216 240.649 187.216ZM250.079 187.216C251.663 187.216 252.599 186.568 253.265 185.704L252.365 184.876C251.789 185.65 251.051 186.01 250.151 186.01C248.315 186.01 247.145 184.57 247.145 182.644C247.145 180.718 248.315 179.296 250.151 179.296C251.051 179.296 251.789 179.62 252.365 180.412L253.265 179.602C252.599 178.738 251.663 178.09 250.079 178.09C247.487 178.09 245.741 180.07 245.741 182.644C245.741 185.218 247.487 187.216 250.079 187.216ZM256.524 187V180.844C256.92 180.142 258.054 179.458 258.9 179.458C259.098 179.458 259.26 179.476 259.422 179.494V178.108C258.234 178.108 257.226 178.792 256.524 179.692V178.306H255.174V187H256.524ZM261.8 177.064C262.304 177.064 262.7 176.668 262.7 176.164C262.7 175.66 262.304 175.246 261.8 175.246C261.296 175.246 260.882 175.66 260.882 176.164C260.882 176.668 261.296 177.064 261.8 177.064ZM262.466 187V178.306H261.116V187H262.466ZM269.443 187.216C271.729 187.216 273.313 185.452 273.313 182.644C273.313 179.818 271.729 178.09 269.443 178.09C268.219 178.09 267.139 178.72 266.509 179.602V178.306H265.159V190.312H266.509V185.686C267.229 186.64 268.255 187.216 269.443 187.216ZM269.101 186.01C268.039 186.01 266.977 185.362 266.509 184.606V180.682C266.977 179.926 268.039 179.296 269.101 179.296C270.847 179.296 271.891 180.718 271.891 182.644C271.891 184.57 270.847 186.01 269.101 186.01ZM277.673 187.216C278.447 187.216 278.933 186.982 279.275 186.658L278.879 185.632C278.699 185.83 278.357 186.01 277.961 186.01C277.385 186.01 277.097 185.542 277.097 184.894V179.494H278.861V178.306H277.097V175.93H275.729V178.306H274.289V179.494H275.729V185.182C275.729 186.478 276.377 187.216 277.673 187.216ZM281.434 177.064C281.938 177.064 282.334 176.668 282.334 176.164C282.334 175.66 281.938 175.246 281.434 175.246C280.93 175.246 280.516 175.66 280.516 176.164C280.516 176.668 280.93 177.064 281.434 177.064ZM282.1 187V178.306H280.75V187H282.1ZM288.591 187.216C291.237 187.216 292.893 185.164 292.893 182.644C292.893 180.124 291.237 178.09 288.591 178.09C285.945 178.09 284.289 180.124 284.289 182.644C284.289 185.164 285.945 187.216 288.591 187.216ZM288.591 186.01C286.737 186.01 285.711 184.426 285.711 182.644C285.711 180.88 286.737 179.296 288.591 179.296C290.445 179.296 291.471 180.88 291.471 182.644C291.471 184.426 290.445 186.01 288.591 186.01ZM302.312 187V180.898C302.312 179.008 301.358 178.09 299.558 178.09C298.244 178.09 297.056 178.828 296.444 179.566V178.306H295.094V187H296.444V180.646C296.966 179.944 297.956 179.296 299.018 179.296C300.188 179.296 300.98 179.764 300.98 181.312V187H302.312ZM305.694 179.584C305.694 179.584 306.18 175.894 306.18 175.642C306.18 175.192 305.82 174.814 305.352 174.814C304.902 174.814 304.542 175.192 304.542 175.642C304.542 175.894 305.028 179.584 305.028 179.584H305.694ZM308.304 179.584C308.304 179.584 308.79 175.894 308.79 175.642C308.79 175.192 308.43 174.814 307.98 174.814C307.512 174.814 307.152 175.192 307.152 175.642C307.152 175.894 307.638 179.584 307.638 179.584H308.304ZM177.399 229.728V228.774H169.461V229.728H177.399ZM177.399 233.202V232.248H169.461V233.202H177.399ZM180.046 229.584C180.046 229.584 180.532 225.894 180.532 225.642C180.532 225.192 180.172 224.814 179.704 224.814C179.254 224.814 178.894 225.192 178.894 225.642C178.894 225.894 179.38 229.584 179.38 229.584H180.046ZM182.656 229.584C182.656 229.584 183.142 225.894 183.142 225.642C183.142 225.192 182.782 224.814 182.332 224.814C181.864 224.814 181.504 225.192 181.504 225.642C181.504 225.894 181.99 229.584 181.99 229.584H182.656ZM266.249 229.584C266.249 229.584 266.735 225.894 266.735 225.642C266.735 225.192 266.375 224.814 265.907 224.814C265.457 224.814 265.097 225.192 265.097 225.642C265.097 225.894 265.583 229.584 265.583 229.584H266.249ZM268.859 229.584C268.859 229.584 269.345 225.894 269.345 225.642C269.345 225.192 268.985 224.814 268.535 224.814C268.067 224.814 267.707 225.192 267.707 225.642C267.707 225.894 268.193 229.584 268.193 229.584H268.859ZM177.399 254.728V253.774H169.461V254.728H177.399ZM177.399 258.202V257.248H169.461V258.202H177.399ZM180.046 254.584C180.046 254.584 180.532 250.894 180.532 250.642C180.532 250.192 180.172 249.814 179.704 249.814C179.254 249.814 178.894 250.192 178.894 250.642C178.894 250.894 179.38 254.584 179.38 254.584H180.046ZM182.656 254.584C182.656 254.584 183.142 250.894 183.142 250.642C183.142 250.192 182.782 249.814 182.332 249.814C181.864 249.814 181.504 250.192 181.504 250.642C181.504 250.894 181.99 254.584 181.99 254.584H182.656ZM266.249 254.584C266.249 254.584 266.735 250.894 266.735 250.642C266.735 250.192 266.375 249.814 265.907 249.814C265.457 249.814 265.097 250.192 265.097 250.642C265.097 250.894 265.583 254.584 265.583 254.584H266.249ZM268.859 254.584C268.859 254.584 269.345 250.894 269.345 250.642C269.345 250.192 268.985 249.814 268.535 249.814C268.067 249.814 267.707 250.192 267.707 250.642C267.707 250.894 268.193 254.584 268.193 254.584H268.859ZM177.399 304.728V303.774H169.461V304.728H177.399ZM177.399 308.202V307.248H169.461V308.202H177.399ZM180.046 304.584C180.046 304.584 180.532 300.894 180.532 300.642C180.532 300.192 180.172 299.814 179.704 299.814C179.254 299.814 178.894 300.192 178.894 300.642C178.894 300.894 179.38 304.584 179.38 304.584H180.046ZM182.656 304.584C182.656 304.584 183.142 300.894 183.142 300.642C183.142 300.192 182.782 299.814 182.332 299.814C181.864 299.814 181.504 300.192 181.504 300.642C181.504 300.894 181.99 304.584 181.99 304.584H182.656ZM266.249 304.584C266.249 304.584 266.735 300.894 266.735 300.642C266.735 300.192 266.375 299.814 265.907 299.814C265.457 299.814 265.097 300.192 265.097 300.642C265.097 300.894 265.583 304.584 265.583 304.584H266.249ZM268.859 304.584C268.859 304.584 269.345 300.894 269.345 300.642C269.345 300.192 268.985 299.814 268.535 299.814C268.067 299.814 267.707 300.192 267.707 300.642C267.707 300.894 268.193 304.584 268.193 304.584H268.859ZM177.399 329.728V328.774H169.461V329.728H177.399ZM177.399 333.202V332.248H169.461V333.202H177.399ZM180.046 329.584C180.046 329.584 180.532 325.894 180.532 325.642C180.532 325.192 180.172 324.814 179.704 324.814C179.254 324.814 178.894 325.192 178.894 325.642C178.894 325.894 179.38 329.584 179.38 329.584H180.046ZM182.656 329.584C182.656 329.584 183.142 325.894 183.142 325.642C183.142 325.192 182.782 324.814 182.332 324.814C181.864 324.814 181.504 325.192 181.504 325.642C181.504 325.894 181.99 329.584 181.99 329.584H182.656ZM266.249 329.584C266.249 329.584 266.735 325.894 266.735 325.642C266.735 325.192 266.375 324.814 265.907 324.814C265.457 324.814 265.097 325.192 265.097 325.642C265.097 325.894 265.583 329.584 265.583 329.584H266.249ZM268.859 329.584C268.859 329.584 269.345 325.894 269.345 325.642C269.345 325.192 268.985 324.814 268.535 324.814C268.067 324.814 267.707 325.192 267.707 325.642C267.707 325.894 268.193 329.584 268.193 329.584H268.859Z" fill="white"/>
<path d="M64.46 85.38V84.246L57.674 80.988L64.46 77.694V76.56L56.522 80.502V81.456L64.46 85.38ZM68.5464 87.216C69.3204 87.216 69.8064 86.982 70.1484 86.658L69.7524 85.632C69.5724 85.83 69.2304 86.01 68.8344 86.01C68.2584 86.01 67.9704 85.542 67.9704 84.894V79.494H69.7344V78.306H67.9704V75.93H66.6024V78.306H65.1624V79.494H66.6024V85.182C66.6024 86.478 67.2504 87.216 68.5464 87.216ZM72.3074 77.064C72.8114 77.064 73.2074 76.668 73.2074 76.164C73.2074 75.66 72.8114 75.246 72.3074 75.246C71.8034 75.246 71.3894 75.66 71.3894 76.164C71.3894 76.668 71.8034 77.064 72.3074 77.064ZM72.9734 87V78.306H71.6234V87H72.9734ZM77.8804 87.216C78.6544 87.216 79.1404 86.982 79.4824 86.658L79.0864 85.632C78.9064 85.83 78.5644 86.01 78.1684 86.01C77.5924 86.01 77.3044 85.542 77.3044 84.894V79.494H79.0684V78.306H77.3044V75.93H75.9364V78.306H74.4964V79.494H75.9364V85.182C75.9364 86.478 76.5844 87.216 77.8804 87.216ZM82.3074 87V74.994H80.9574V87H82.3074ZM88.9424 87.216C90.3464 87.216 91.5164 86.73 92.3984 85.866L91.7504 84.984C91.0484 85.704 90.0584 86.1 89.0504 86.1C87.1784 86.1 86.0444 84.732 85.9364 83.094H92.9564V82.752C92.9564 80.142 91.4084 78.09 88.7804 78.09C86.2964 78.09 84.4964 80.124 84.4964 82.644C84.4964 85.362 86.3504 87.216 88.9424 87.216ZM91.6244 82.086H85.9184C85.9904 80.772 86.9084 79.206 88.7624 79.206C90.7424 79.206 91.6064 80.808 91.6244 82.086ZM102.253 81.456V80.502L94.315 76.56V77.694L101.101 80.988L94.315 84.246V85.38L102.253 81.456ZM191.251 85.38V84.246L184.465 80.988L191.251 77.694V76.56L183.313 80.502V81.456L191.251 85.38ZM192.835 87.36L197.101 74.634H196.039L191.773 87.36H192.835ZM200.664 87.216C201.438 87.216 201.924 86.982 202.266 86.658L201.87 85.632C201.69 85.83 201.348 86.01 200.952 86.01C200.376 86.01 200.088 85.542 200.088 84.894V79.494H201.852V78.306H200.088V75.93H198.72V78.306H197.28V79.494H198.72V85.182C198.72 86.478 199.368 87.216 200.664 87.216ZM204.425 77.064C204.929 77.064 205.325 76.668 205.325 76.164C205.325 75.66 204.929 75.246 204.425 75.246C203.921 75.246 203.507 75.66 203.507 76.164C203.507 76.668 203.921 77.064 204.425 77.064ZM205.091 87V78.306H203.741V87H205.091ZM209.998 87.216C210.772 87.216 211.258 86.982 211.6 86.658L211.204 85.632C211.024 85.83 210.682 86.01 210.286 86.01C209.71 86.01 209.422 85.542 209.422 84.894V79.494H211.186V78.306H209.422V75.93H208.054V78.306H206.614V79.494H208.054V85.182C208.054 86.478 208.702 87.216 209.998 87.216ZM214.425 87V74.994H213.075V87H214.425ZM221.06 87.216C222.464 87.216 223.634 86.73 224.516 85.866L223.868 84.984C223.166 85.704 222.176 86.1 221.168 86.1C219.296 86.1 218.162 84.732 218.054 83.094H225.074V82.752C225.074 80.142 223.526 78.09 220.898 78.09C218.414 78.09 216.614 80.124 216.614 82.644C216.614 85.362 218.468 87.216 221.06 87.216ZM223.742 82.086H218.036C218.108 80.772 219.026 79.206 220.88 79.206C222.86 79.206 223.724 80.808 223.742 82.086ZM234.37 81.456V80.502L226.432 76.56V77.694L233.218 80.988L226.432 84.246V85.38L234.37 81.456ZM64.46 135.38V134.246L57.674 130.988L64.46 127.694V126.56L56.522 130.502V131.456L64.46 135.38ZM78.1764 137V130.718C78.1764 128.972 77.3304 128.09 75.7464 128.09C74.4864 128.09 73.3164 128.918 72.8304 129.71C72.5784 128.81 71.8224 128.09 70.5084 128.09C69.2124 128.09 68.0604 129.008 67.6824 129.566V128.306H66.3324V137H67.6824V130.646C68.1504 129.944 69.0864 129.296 69.9684 129.296C71.1204 129.296 71.5704 129.998 71.5704 131.096V137H72.9204V130.628C73.3704 129.926 74.3244 129.296 75.2244 129.296C76.3584 129.296 76.8264 129.998 76.8264 131.096V137H78.1764ZM84.8115 137.216C86.2155 137.216 87.3855 136.73 88.2675 135.866L87.6195 134.984C86.9175 135.704 85.9275 136.1 84.9195 136.1C83.0475 136.1 81.9135 134.732 81.8055 133.094H88.8255V132.752C88.8255 130.142 87.2775 128.09 84.6495 128.09C82.1655 128.09 80.3655 130.124 80.3655 132.644C80.3655 135.362 82.2195 137.216 84.8115 137.216ZM87.4935 132.086H81.7875C81.8595 130.772 82.7775 129.206 84.6315 129.206C86.6115 129.206 87.4755 130.808 87.4935 132.086ZM93.2261 137.216C94.0001 137.216 94.4861 136.982 94.8281 136.658L94.4321 135.632C94.2521 135.83 93.9101 136.01 93.5141 136.01C92.9381 136.01 92.6501 135.542 92.6501 134.894V129.494H94.4141V128.306H92.6501V125.93H91.2821V128.306H89.8421V129.494H91.2821V135.182C91.2821 136.478 91.9301 137.216 93.2261 137.216ZM103.089 137V131.024C103.089 128.918 101.577 128.09 99.7231 128.09C98.3011 128.09 97.1851 128.558 96.2491 129.53L96.8791 130.466C97.6531 129.62 98.4991 129.26 99.5431 129.26C100.803 129.26 101.739 129.926 101.739 131.078V132.644C101.037 131.852 100.047 131.474 98.8591 131.474C97.3831 131.474 95.8351 132.374 95.8351 134.336C95.8351 136.226 97.4011 137.216 98.8591 137.216C100.029 137.216 101.037 136.802 101.739 136.01V137H103.089ZM99.3631 136.244C98.0851 136.244 97.2031 135.452 97.2031 134.336C97.2031 133.238 98.0851 132.446 99.3631 132.446C100.299 132.446 101.217 132.806 101.739 133.508V135.164C101.217 135.884 100.299 136.244 99.3631 136.244ZM401.734 137.36L406 124.634H404.938L400.672 137.36H401.734ZM414.458 131.456V130.502L406.52 126.56V127.694L413.306 130.988L406.52 134.246V135.38L414.458 131.456ZM64.46 185.38V184.246L57.674 180.988L64.46 177.694V176.56L56.522 180.502V181.456L64.46 185.38ZM78.1764 187V180.718C78.1764 178.972 77.3304 178.09 75.7464 178.09C74.4864 178.09 73.3164 178.918 72.8304 179.71C72.5784 178.81 71.8224 178.09 70.5084 178.09C69.2124 178.09 68.0604 179.008 67.6824 179.566V178.306H66.3324V187H67.6824V180.646C68.1504 179.944 69.0864 179.296 69.9684 179.296C71.1204 179.296 71.5704 179.998 71.5704 181.096V187H72.9204V180.628C73.3704 179.926 74.3244 179.296 75.2244 179.296C76.3584 179.296 76.8264 179.998 76.8264 181.096V187H78.1764ZM84.8115 187.216C86.2155 187.216 87.3855 186.73 88.2675 185.866L87.6195 184.984C86.9175 185.704 85.9275 186.1 84.9195 186.1C83.0475 186.1 81.9135 184.732 81.8055 183.094H88.8255V182.752C88.8255 180.142 87.2775 178.09 84.6495 178.09C82.1655 178.09 80.3655 180.124 80.3655 182.644C80.3655 185.362 82.2195 187.216 84.8115 187.216ZM87.4935 182.086H81.7875C81.8595 180.772 82.7775 179.206 84.6315 179.206C86.6115 179.206 87.4755 180.808 87.4935 182.086ZM93.2261 187.216C94.0001 187.216 94.4861 186.982 94.8281 186.658L94.4321 185.632C94.2521 185.83 93.9101 186.01 93.5141 186.01C92.9381 186.01 92.6501 185.542 92.6501 184.894V179.494H94.4141V178.306H92.6501V175.93H91.2821V178.306H89.8421V179.494H91.2821V185.182C91.2821 186.478 91.9301 187.216 93.2261 187.216ZM103.089 187V181.024C103.089 178.918 101.577 178.09 99.7231 178.09C98.3011 178.09 97.1851 178.558 96.2491 179.53L96.8791 180.466C97.6531 179.62 98.4991 179.26 99.5431 179.26C100.803 179.26 101.739 179.926 101.739 181.078V182.644C101.037 181.852 100.047 181.474 98.8591 181.474C97.3831 181.474 95.8351 182.374 95.8351 184.336C95.8351 186.226 97.4011 187.216 98.8591 187.216C100.029 187.216 101.037 186.802 101.739 186.01V187H103.089ZM99.3631 186.244C98.0851 186.244 97.2031 185.452 97.2031 184.336C97.2031 183.238 98.0851 182.446 99.3631 182.446C100.299 182.446 101.217 182.806 101.739 183.508V185.164C101.217 185.884 100.299 186.244 99.3631 186.244ZM315.478 187.36L319.744 174.634H318.682L314.416 187.36H315.478ZM328.202 181.456V180.502L320.264 176.56V177.694L327.05 180.988L320.264 184.246V185.38L328.202 181.456ZM64.46 235.38V234.246L57.674 230.988L64.46 227.694V226.56L56.522 230.502V231.456L64.46 235.38ZM78.1764 237V230.718C78.1764 228.972 77.3304 228.09 75.7464 228.09C74.4864 228.09 73.3164 228.918 72.8304 229.71C72.5784 228.81 71.8224 228.09 70.5084 228.09C69.2124 228.09 68.0604 229.008 67.6824 229.566V228.306H66.3324V237H67.6824V230.646C68.1504 229.944 69.0864 229.296 69.9684 229.296C71.1204 229.296 71.5704 229.998 71.5704 231.096V237H72.9204V230.628C73.3704 229.926 74.3244 229.296 75.2244 229.296C76.3584 229.296 76.8264 229.998 76.8264 231.096V237H78.1764ZM84.8115 237.216C86.2155 237.216 87.3855 236.73 88.2675 235.866L87.6195 234.984C86.9175 235.704 85.9275 236.1 84.9195 236.1C83.0475 236.1 81.9135 234.732 81.8055 233.094H88.8255V232.752C88.8255 230.142 87.2775 228.09 84.6495 228.09C82.1655 228.09 80.3655 230.124 80.3655 232.644C80.3655 235.362 82.2195 237.216 84.8115 237.216ZM87.4935 232.086H81.7875C81.8595 230.772 82.7775 229.206 84.6315 229.206C86.6115 229.206 87.4755 230.808 87.4935 232.086ZM93.2261 237.216C94.0001 237.216 94.4861 236.982 94.8281 236.658L94.4321 235.632C94.2521 235.83 93.9101 236.01 93.5141 236.01C92.9381 236.01 92.6501 235.542 92.6501 234.894V229.494H94.4141V228.306H92.6501V225.93H91.2821V228.306H89.8421V229.494H91.2821V235.182C91.2821 236.478 91.9301 237.216 93.2261 237.216ZM103.089 237V231.024C103.089 228.918 101.577 228.09 99.7231 228.09C98.3011 228.09 97.1851 228.558 96.2491 229.53L96.8791 230.466C97.6531 229.62 98.4991 229.26 99.5431 229.26C100.803 229.26 101.739 229.926 101.739 231.078V232.644C101.037 231.852 100.047 231.474 98.8591 231.474C97.3831 231.474 95.8351 232.374 95.8351 234.336C95.8351 236.226 97.4011 237.216 98.8591 237.216C100.029 237.216 101.037 236.802 101.739 236.01V237H103.089ZM99.3631 236.244C98.0851 236.244 97.2031 235.452 97.2031 234.336C97.2031 233.238 98.0851 232.446 99.3631 232.446C100.299 232.446 101.217 232.806 101.739 233.508V235.164C101.217 235.884 100.299 236.244 99.3631 236.244ZM276.033 237.36L280.299 224.634H279.237L274.971 237.36H276.033ZM288.757 231.456V230.502L280.819 226.56V227.694L287.605 230.988L280.819 234.246V235.38L288.757 231.456ZM64.46 260.38V259.246L57.674 255.988L64.46 252.694V251.56L56.522 255.502V256.456L64.46 260.38ZM78.1764 262V255.718C78.1764 253.972 77.3304 253.09 75.7464 253.09C74.4864 253.09 73.3164 253.918 72.8304 254.71C72.5784 253.81 71.8224 253.09 70.5084 253.09C69.2124 253.09 68.0604 254.008 67.6824 254.566V253.306H66.3324V262H67.6824V255.646C68.1504 254.944 69.0864 254.296 69.9684 254.296C71.1204 254.296 71.5704 254.998 71.5704 256.096V262H72.9204V255.628C73.3704 254.926 74.3244 254.296 75.2244 254.296C76.3584 254.296 76.8264 254.998 76.8264 256.096V262H78.1764ZM84.8115 262.216C86.2155 262.216 87.3855 261.73 88.2675 260.866L87.6195 259.984C86.9175 260.704 85.9275 261.1 84.9195 261.1C83.0475 261.1 81.9135 259.732 81.8055 258.094H88.8255V257.752C88.8255 255.142 87.2775 253.09 84.6495 253.09C82.1655 253.09 80.3655 255.124 80.3655 257.644C80.3655 260.362 82.2195 262.216 84.8115 262.216ZM87.4935 257.086H81.7875C81.8595 255.772 82.7775 254.206 84.6315 254.206C86.6115 254.206 87.4755 255.808 87.4935 257.086ZM93.2261 262.216C94.0001 262.216 94.4861 261.982 94.8281 261.658L94.4321 260.632C94.2521 260.83 93.9101 261.01 93.5141 261.01C92.9381 261.01 92.6501 260.542 92.6501 259.894V254.494H94.4141V253.306H92.6501V250.93H91.2821V253.306H89.8421V254.494H91.2821V260.182C91.2821 261.478 91.9301 262.216 93.2261 262.216ZM103.089 262V256.024C103.089 253.918 101.577 253.09 99.7231 253.09C98.3011 253.09 97.1851 253.558 96.2491 254.53L96.8791 255.466C97.6531 254.62 98.4991 254.26 99.5431 254.26C100.803 254.26 101.739 254.926 101.739 256.078V257.644C101.037 256.852 100.047 256.474 98.8591 256.474C97.3831 256.474 95.8351 257.374 95.8351 259.336C95.8351 261.226 97.4011 262.216 98.8591 262.216C100.029 262.216 101.037 261.802 101.739 261.01V262H103.089ZM99.3631 261.244C98.0851 261.244 97.2031 260.452 97.2031 259.336C97.2031 258.238 98.0851 257.446 99.3631 257.446C100.299 257.446 101.217 257.806 101.739 258.508V260.164C101.217 260.884 100.299 261.244 99.3631 261.244ZM276.033 262.36L280.299 249.634H279.237L274.971 262.36H276.033ZM288.757 256.456V255.502L280.819 251.56V252.694L287.605 255.988L280.819 259.246V260.38L288.757 256.456ZM64.46 310.38V309.246L57.674 305.988L64.46 302.694V301.56L56.522 305.502V306.456L64.46 310.38ZM78.1764 312V305.718C78.1764 303.972 77.3304 303.09 75.7464 303.09C74.4864 303.09 73.3164 303.918 72.8304 304.71C72.5784 303.81 71.8224 303.09 70.5084 303.09C69.2124 303.09 68.0604 304.008 67.6824 304.566V303.306H66.3324V312H67.6824V305.646C68.1504 304.944 69.0864 304.296 69.9684 304.296C71.1204 304.296 71.5704 304.998 71.5704 306.096V312H72.9204V305.628C73.3704 304.926 74.3244 304.296 75.2244 304.296C76.3584 304.296 76.8264 304.998 76.8264 306.096V312H78.1764ZM84.8115 312.216C86.2155 312.216 87.3855 311.73 88.2675 310.866L87.6195 309.984C86.9175 310.704 85.9275 311.1 84.9195 311.1C83.0475 311.1 81.9135 309.732 81.8055 308.094H88.8255V307.752C88.8255 305.142 87.2775 303.09 84.6495 303.09C82.1655 303.09 80.3655 305.124 80.3655 307.644C80.3655 310.362 82.2195 312.216 84.8115 312.216ZM87.4935 307.086H81.7875C81.8595 305.772 82.7775 304.206 84.6315 304.206C86.6115 304.206 87.4755 305.808 87.4935 307.086ZM93.2261 312.216C94.0001 312.216 94.4861 311.982 94.8281 311.658L94.4321 310.632C94.2521 310.83 93.9101 311.01 93.5141 311.01C92.9381 311.01 92.6501 310.542 92.6501 309.894V304.494H94.4141V303.306H92.6501V300.93H91.2821V303.306H89.8421V304.494H91.2821V310.182C91.2821 311.478 91.9301 312.216 93.2261 312.216ZM103.089 312V306.024C103.089 303.918 101.577 303.09 99.7231 303.09C98.3011 303.09 97.1851 303.558 96.2491 304.53L96.8791 305.466C97.6531 304.62 98.4991 304.26 99.5431 304.26C100.803 304.26 101.739 304.926 101.739 306.078V307.644C101.037 306.852 100.047 306.474 98.8591 306.474C97.3831 306.474 95.8351 307.374 95.8351 309.336C95.8351 311.226 97.4011 312.216 98.8591 312.216C100.029 312.216 101.037 311.802 101.739 311.01V312H103.089ZM99.3631 311.244C98.0851 311.244 97.2031 310.452 97.2031 309.336C97.2031 308.238 98.0851 307.446 99.3631 307.446C100.299 307.446 101.217 307.806 101.739 308.508V310.164C101.217 310.884 100.299 311.244 99.3631 311.244ZM276.033 312.36L280.299 299.634H279.237L274.971 312.36H276.033ZM288.757 306.456V305.502L280.819 301.56V302.694L287.605 305.988L280.819 309.246V310.38L288.757 306.456ZM64.46 335.38V334.246L57.674 330.988L64.46 327.694V326.56L56.522 330.502V331.456L64.46 335.38ZM78.1764 337V330.718C78.1764 328.972 77.3304 328.09 75.7464 328.09C74.4864 328.09 73.3164 328.918 72.8304 329.71C72.5784 328.81 71.8224 328.09 70.5084 328.09C69.2124 328.09 68.0604 329.008 67.6824 329.566V328.306H66.3324V337H67.6824V330.646C68.1504 329.944 69.0864 329.296 69.9684 329.296C71.1204 329.296 71.5704 329.998 71.5704 331.096V337H72.9204V330.628C73.3704 329.926 74.3244 329.296 75.2244 329.296C76.3584 329.296 76.8264 329.998 76.8264 331.096V337H78.1764ZM84.8115 337.216C86.2155 337.216 87.3855 336.73 88.2675 335.866L87.6195 334.984C86.9175 335.704 85.9275 336.1 84.9195 336.1C83.0475 336.1 81.9135 334.732 81.8055 333.094H88.8255V332.752C88.8255 330.142 87.2775 328.09 84.6495 328.09C82.1655 328.09 80.3655 330.124 80.3655 332.644C80.3655 335.362 82.2195 337.216 84.8115 337.216ZM87.4935 332.086H81.7875C81.8595 330.772 82.7775 329.206 84.6315 329.206C86.6115 329.206 87.4755 330.808 87.4935 332.086ZM93.2261 337.216C94.0001 337.216 94.4861 336.982 94.8281 336.658L94.4321 335.632C94.2521 335.83 93.9101 336.01 93.5141 336.01C92.9381 336.01 92.6501 335.542 92.6501 334.894V329.494H94.4141V328.306H92.6501V325.93H91.2821V328.306H89.8421V329.494H91.2821V335.182C91.2821 336.478 91.9301 337.216 93.2261 337.216ZM103.089 337V331.024C103.089 328.918 101.577 328.09 99.7231 328.09C98.3011 328.09 97.1851 328.558 96.2491 329.53L96.8791 330.466C97.6531 329.62 98.4991 329.26 99.5431 329.26C100.803 329.26 101.739 329.926 101.739 331.078V332.644C101.037 331.852 100.047 331.474 98.8591 331.474C97.3831 331.474 95.8351 332.374 95.8351 334.336C95.8351 336.226 97.4011 337.216 98.8591 337.216C100.029 337.216 101.037 336.802 101.739 336.01V337H103.089ZM99.3631 336.244C98.0851 336.244 97.2031 335.452 97.2031 334.336C97.2031 333.238 98.0851 332.446 99.3631 332.446C100.299 332.446 101.217 332.806 101.739 333.508V335.164C101.217 335.884 100.299 336.244 99.3631 336.244ZM276.033 337.36L280.299 324.634H279.237L274.971 337.36H276.033ZM288.757 331.456V330.502L280.819 326.56V327.694L287.605 330.988L280.819 334.246V335.38L288.757 331.456Z" fill="#6154F9"/>
<path d="M107.167 90.42V89.43H106.051C105.421 89.43 104.863 88.818 104.863 87.99V84.192C104.863 83.436 104.647 82.86 104.053 82.608C104.647 82.356 104.863 81.78 104.863 81.024V77.208C104.863 76.362 105.421 75.786 106.051 75.786H107.167V74.796H106.051C104.917 74.796 103.819 75.732 103.819 77.226V80.916C103.819 81.582 103.513 82.158 102.865 82.158V83.058C103.513 83.058 103.819 83.634 103.819 84.3V88.008C103.819 89.484 104.917 90.42 106.051 90.42H107.167ZM111.861 90.42V89.43H110.745C110.115 89.43 109.557 88.818 109.557 87.99V84.192C109.557 83.436 109.341 82.86 108.747 82.608C109.341 82.356 109.557 81.78 109.557 81.024V77.208C109.557 76.362 110.115 75.786 110.745 75.786H111.861V74.796H110.745C109.611 74.796 108.513 75.732 108.513 77.226V80.916C108.513 81.582 108.207 82.158 107.559 82.158V83.058C108.207 83.058 108.513 83.634 108.513 84.3V88.008C108.513 89.484 109.611 90.42 110.745 90.42H111.861ZM116.284 87.216C118.516 87.216 119.686 86.046 119.686 84.588C119.686 81.204 114.304 82.446 114.304 80.556C114.304 79.782 115.042 79.188 116.23 79.188C117.364 79.188 118.3 79.656 118.822 80.286L119.452 79.35C118.768 78.648 117.724 78.09 116.23 78.09C114.16 78.09 113.008 79.224 113.008 80.592C113.008 83.814 118.39 82.518 118.39 84.624C118.39 85.488 117.652 86.118 116.32 86.118C115.132 86.118 114.034 85.542 113.458 84.876L112.774 85.848C113.656 86.766 114.844 87.216 116.284 87.216ZM125.821 87.216C127.225 87.216 128.395 86.73 129.277 85.866L128.629 84.984C127.927 85.704 126.937 86.1 125.929 86.1C124.057 86.1 122.923 84.732 122.815 83.094H129.835V82.752C129.835 80.142 128.287 78.09 125.659 78.09C123.175 78.09 121.375 80.124 121.375 82.644C121.375 85.362 123.229 87.216 125.821 87.216ZM128.503 82.086H122.797C122.869 80.772 123.787 79.206 125.641 79.206C127.621 79.206 128.485 80.808 128.503 82.086ZM135.82 87.216C138.466 87.216 140.122 85.164 140.122 82.644C140.122 80.124 138.466 78.09 135.82 78.09C133.174 78.09 131.518 80.124 131.518 82.644C131.518 85.164 133.174 87.216 135.82 87.216ZM135.82 86.01C133.966 86.01 132.94 84.426 132.94 82.644C132.94 80.88 133.966 79.296 135.82 79.296C137.674 79.296 138.7 80.88 138.7 82.644C138.7 84.426 137.674 86.01 135.82 86.01ZM142.92 87.18C143.46 87.18 143.91 86.73 143.91 86.19C143.91 85.65 143.46 85.2 142.92 85.2C142.38 85.2 141.93 85.65 141.93 86.19C141.93 86.73 142.38 87.18 142.92 87.18ZM148.158 87.216C148.932 87.216 149.418 86.982 149.76 86.658L149.364 85.632C149.184 85.83 148.842 86.01 148.446 86.01C147.87 86.01 147.582 85.542 147.582 84.894V79.494H149.346V78.306H147.582V75.93H146.214V78.306H144.774V79.494H146.214V85.182C146.214 86.478 146.862 87.216 148.158 87.216ZM151.919 77.064C152.423 77.064 152.819 76.668 152.819 76.164C152.819 75.66 152.423 75.246 151.919 75.246C151.415 75.246 151.001 75.66 151.001 76.164C151.001 76.668 151.415 77.064 151.919 77.064ZM152.585 87V78.306H151.235V87H152.585ZM157.492 87.216C158.266 87.216 158.752 86.982 159.094 86.658L158.698 85.632C158.518 85.83 158.176 86.01 157.78 86.01C157.204 86.01 156.916 85.542 156.916 84.894V79.494H158.68V78.306H156.916V75.93H155.548V78.306H154.108V79.494H155.548V85.182C155.548 86.478 156.196 87.216 157.492 87.216ZM161.919 87V74.994H160.569V87H161.919ZM168.554 87.216C169.958 87.216 171.128 86.73 172.01 85.866L171.362 84.984C170.66 85.704 169.67 86.1 168.662 86.1C166.79 86.1 165.656 84.732 165.548 83.094H172.568V82.752C172.568 80.142 171.02 78.09 168.392 78.09C165.908 78.09 164.108 80.124 164.108 82.644C164.108 85.362 165.962 87.216 168.554 87.216ZM171.236 82.086H165.53C165.602 80.772 166.52 79.206 168.374 79.206C170.354 79.206 171.218 80.808 171.236 82.086ZM173.71 90.42H174.808C175.96 90.42 177.058 89.484 177.058 88.008V84.3C177.058 83.634 177.364 83.058 177.994 83.058V82.158C177.364 82.158 177.058 81.582 177.058 80.916V77.226C177.058 75.732 175.96 74.796 174.808 74.796H173.71V75.786H174.808C175.456 75.786 176.014 76.362 176.014 77.208V81.024C176.014 81.78 176.23 82.356 176.824 82.608C176.23 82.86 176.014 83.436 176.014 84.192V87.99C176.014 88.818 175.456 89.43 174.808 89.43H173.71V90.42ZM178.404 90.42H179.502C180.654 90.42 181.752 89.484 181.752 88.008V84.3C181.752 83.634 182.058 83.058 182.688 83.058V82.158C182.058 82.158 181.752 81.582 181.752 80.916V77.226C181.752 75.732 180.654 74.796 179.502 74.796H178.404V75.786H179.502C180.15 75.786 180.708 76.362 180.708 77.208V81.024C180.708 81.78 180.924 82.356 181.518 82.608C180.924 82.86 180.708 83.436 180.708 84.192V87.99C180.708 88.818 180.15 89.43 179.502 89.43H178.404V90.42ZM188.501 240.42V239.43H187.385C186.755 239.43 186.197 238.818 186.197 237.99V234.192C186.197 233.436 185.981 232.86 185.387 232.608C185.981 232.356 186.197 231.78 186.197 231.024V227.208C186.197 226.362 186.755 225.786 187.385 225.786H188.501V224.796H187.385C186.251 224.796 185.153 225.732 185.153 227.226V230.916C185.153 231.582 184.847 232.158 184.199 232.158V233.058C184.847 233.058 185.153 233.634 185.153 234.3V238.008C185.153 239.484 186.251 240.42 187.385 240.42H188.501ZM193.195 240.42V239.43H192.079C191.449 239.43 190.891 238.818 190.891 237.99V234.192C190.891 233.436 190.675 232.86 190.081 232.608C190.675 232.356 190.891 231.78 190.891 231.024V227.208C190.891 226.362 191.449 225.786 192.079 225.786H193.195V224.796H192.079C190.945 224.796 189.847 225.732 189.847 227.226V230.916C189.847 231.582 189.541 232.158 188.893 232.158V233.058C189.541 233.058 189.847 233.634 189.847 234.3V238.008C189.847 239.484 190.945 240.42 192.079 240.42H193.195ZM197.618 237.216C199.85 237.216 201.02 236.046 201.02 234.588C201.02 231.204 195.638 232.446 195.638 230.556C195.638 229.782 196.376 229.188 197.564 229.188C198.698 229.188 199.634 229.656 200.156 230.286L200.786 229.35C200.102 228.648 199.058 228.09 197.564 228.09C195.494 228.09 194.342 229.224 194.342 230.592C194.342 233.814 199.724 232.518 199.724 234.624C199.724 235.488 198.986 236.118 197.654 236.118C196.466 236.118 195.368 235.542 194.792 234.876L194.108 235.848C194.99 236.766 196.178 237.216 197.618 237.216ZM207.155 237.216C208.559 237.216 209.729 236.73 210.611 235.866L209.963 234.984C209.261 235.704 208.271 236.1 207.263 236.1C205.391 236.1 204.257 234.732 204.149 233.094H211.169V232.752C211.169 230.142 209.621 228.09 206.993 228.09C204.509 228.09 202.709 230.124 202.709 232.644C202.709 235.362 204.563 237.216 207.155 237.216ZM209.837 232.086H204.131C204.203 230.772 205.121 229.206 206.975 229.206C208.955 229.206 209.819 230.808 209.837 232.086ZM217.154 237.216C219.8 237.216 221.456 235.164 221.456 232.644C221.456 230.124 219.8 228.09 217.154 228.09C214.508 228.09 212.852 230.124 212.852 232.644C212.852 235.164 214.508 237.216 217.154 237.216ZM217.154 236.01C215.3 236.01 214.274 234.426 214.274 232.644C214.274 230.88 215.3 229.296 217.154 229.296C219.008 229.296 220.034 230.88 220.034 232.644C220.034 234.426 219.008 236.01 217.154 236.01ZM224.254 237.18C224.794 237.18 225.244 236.73 225.244 236.19C225.244 235.65 224.794 235.2 224.254 235.2C223.714 235.2 223.264 235.65 223.264 236.19C223.264 236.73 223.714 237.18 224.254 237.18ZM229.492 237.216C230.266 237.216 230.752 236.982 231.094 236.658L230.698 235.632C230.518 235.83 230.176 236.01 229.78 236.01C229.204 236.01 228.916 235.542 228.916 234.894V229.494H230.68V228.306H228.916V225.93H227.548V228.306H226.108V229.494H227.548V235.182C227.548 236.478 228.196 237.216 229.492 237.216ZM233.253 227.064C233.757 227.064 234.153 226.668 234.153 226.164C234.153 225.66 233.757 225.246 233.253 225.246C232.749 225.246 232.335 225.66 232.335 226.164C232.335 226.668 232.749 227.064 233.253 227.064ZM233.919 237V228.306H232.569V237H233.919ZM238.826 237.216C239.6 237.216 240.086 236.982 240.428 236.658L240.032 235.632C239.852 235.83 239.51 236.01 239.114 236.01C238.538 236.01 238.25 235.542 238.25 234.894V229.494H240.014V228.306H238.25V225.93H236.882V228.306H235.442V229.494H236.882V235.182C236.882 236.478 237.53 237.216 238.826 237.216ZM243.253 237V224.994H241.903V237H243.253ZM249.888 237.216C251.292 237.216 252.462 236.73 253.344 235.866L252.696 234.984C251.994 235.704 251.004 236.1 249.996 236.1C248.124 236.1 246.99 234.732 246.882 233.094H253.902V232.752C253.902 230.142 252.354 228.09 249.726 228.09C247.242 228.09 245.442 230.124 245.442 232.644C245.442 235.362 247.296 237.216 249.888 237.216ZM252.57 232.086H246.864C246.936 230.772 247.854 229.206 249.708 229.206C251.688 229.206 252.552 230.808 252.57 232.086ZM255.044 240.42H256.142C257.294 240.42 258.392 239.484 258.392 238.008V234.3C258.392 233.634 258.698 233.058 259.328 233.058V232.158C258.698 232.158 258.392 231.582 258.392 230.916V227.226C258.392 225.732 257.294 224.796 256.142 224.796H255.044V225.786H256.142C256.79 225.786 257.348 226.362 257.348 227.208V231.024C257.348 231.78 257.564 232.356 258.158 232.608C257.564 232.86 257.348 233.436 257.348 234.192V237.99C257.348 238.818 256.79 239.43 256.142 239.43H255.044V240.42ZM259.738 240.42H260.836C261.988 240.42 263.086 239.484 263.086 238.008V234.3C263.086 233.634 263.392 233.058 264.022 233.058V232.158C263.392 232.158 263.086 231.582 263.086 230.916V227.226C263.086 225.732 261.988 224.796 260.836 224.796H259.738V225.786H260.836C261.484 225.786 262.042 226.362 262.042 227.208V231.024C262.042 231.78 262.258 232.356 262.852 232.608C262.258 232.86 262.042 233.436 262.042 234.192V237.99C262.042 238.818 261.484 239.43 260.836 239.43H259.738V240.42ZM188.501 265.42V264.43H187.385C186.755 264.43 186.197 263.818 186.197 262.99V259.192C186.197 258.436 185.981 257.86 185.387 257.608C185.981 257.356 186.197 256.78 186.197 256.024V252.208C186.197 251.362 186.755 250.786 187.385 250.786H188.501V249.796H187.385C186.251 249.796 185.153 250.732 185.153 252.226V255.916C185.153 256.582 184.847 257.158 184.199 257.158V258.058C184.847 258.058 185.153 258.634 185.153 259.3V263.008C185.153 264.484 186.251 265.42 187.385 265.42H188.501ZM193.195 265.42V264.43H192.079C191.449 264.43 190.891 263.818 190.891 262.99V259.192C190.891 258.436 190.675 257.86 190.081 257.608C190.675 257.356 190.891 256.78 190.891 256.024V252.208C190.891 251.362 191.449 250.786 192.079 250.786H193.195V249.796H192.079C190.945 249.796 189.847 250.732 189.847 252.226V255.916C189.847 256.582 189.541 257.158 188.893 257.158V258.058C189.541 258.058 189.847 258.634 189.847 259.3V263.008C189.847 264.484 190.945 265.42 192.079 265.42H193.195ZM197.618 262.216C199.85 262.216 201.02 261.046 201.02 259.588C201.02 256.204 195.638 257.446 195.638 255.556C195.638 254.782 196.376 254.188 197.564 254.188C198.698 254.188 199.634 254.656 200.156 255.286L200.786 254.35C200.102 253.648 199.058 253.09 197.564 253.09C195.494 253.09 194.342 254.224 194.342 255.592C194.342 258.814 199.724 257.518 199.724 259.624C199.724 260.488 198.986 261.118 197.654 261.118C196.466 261.118 195.368 260.542 194.792 259.876L194.108 260.848C194.99 261.766 196.178 262.216 197.618 262.216ZM207.155 262.216C208.559 262.216 209.729 261.73 210.611 260.866L209.963 259.984C209.261 260.704 208.271 261.1 207.263 261.1C205.391 261.1 204.257 259.732 204.149 258.094H211.169V257.752C211.169 255.142 209.621 253.09 206.993 253.09C204.509 253.09 202.709 255.124 202.709 257.644C202.709 260.362 204.563 262.216 207.155 262.216ZM209.837 257.086H204.131C204.203 255.772 205.121 254.206 206.975 254.206C208.955 254.206 209.819 255.808 209.837 257.086ZM217.154 262.216C219.8 262.216 221.456 260.164 221.456 257.644C221.456 255.124 219.8 253.09 217.154 253.09C214.508 253.09 212.852 255.124 212.852 257.644C212.852 260.164 214.508 262.216 217.154 262.216ZM217.154 261.01C215.3 261.01 214.274 259.426 214.274 257.644C214.274 255.88 215.3 254.296 217.154 254.296C219.008 254.296 220.034 255.88 220.034 257.644C220.034 259.426 219.008 261.01 217.154 261.01ZM224.254 262.18C224.794 262.18 225.244 261.73 225.244 261.19C225.244 260.65 224.794 260.2 224.254 260.2C223.714 260.2 223.264 260.65 223.264 261.19C223.264 261.73 223.714 262.18 224.254 262.18ZM229.492 262.216C230.266 262.216 230.752 261.982 231.094 261.658L230.698 260.632C230.518 260.83 230.176 261.01 229.78 261.01C229.204 261.01 228.916 260.542 228.916 259.894V254.494H230.68V253.306H228.916V250.93H227.548V253.306H226.108V254.494H227.548V260.182C227.548 261.478 228.196 262.216 229.492 262.216ZM233.253 252.064C233.757 252.064 234.153 251.668 234.153 251.164C234.153 250.66 233.757 250.246 233.253 250.246C232.749 250.246 232.335 250.66 232.335 251.164C232.335 251.668 232.749 252.064 233.253 252.064ZM233.919 262V253.306H232.569V262H233.919ZM238.826 262.216C239.6 262.216 240.086 261.982 240.428 261.658L240.032 260.632C239.852 260.83 239.51 261.01 239.114 261.01C238.538 261.01 238.25 260.542 238.25 259.894V254.494H240.014V253.306H238.25V250.93H236.882V253.306H235.442V254.494H236.882V260.182C236.882 261.478 237.53 262.216 238.826 262.216ZM243.253 262V249.994H241.903V262H243.253ZM249.888 262.216C251.292 262.216 252.462 261.73 253.344 260.866L252.696 259.984C251.994 260.704 251.004 261.1 249.996 261.1C248.124 261.1 246.99 259.732 246.882 258.094H253.902V257.752C253.902 255.142 252.354 253.09 249.726 253.09C247.242 253.09 245.442 255.124 245.442 257.644C245.442 260.362 247.296 262.216 249.888 262.216ZM252.57 257.086H246.864C246.936 255.772 247.854 254.206 249.708 254.206C251.688 254.206 252.552 255.808 252.57 257.086ZM255.044 265.42H256.142C257.294 265.42 258.392 264.484 258.392 263.008V259.3C258.392 258.634 258.698 258.058 259.328 258.058V257.158C258.698 257.158 258.392 256.582 258.392 255.916V252.226C258.392 250.732 257.294 249.796 256.142 249.796H255.044V250.786H256.142C256.79 250.786 257.348 251.362 257.348 252.208V256.024C257.348 256.78 257.564 257.356 258.158 257.608C257.564 257.86 257.348 258.436 257.348 259.192V262.99C257.348 263.818 256.79 264.43 256.142 264.43H255.044V265.42ZM259.738 265.42H260.836C261.988 265.42 263.086 264.484 263.086 263.008V259.3C263.086 258.634 263.392 258.058 264.022 258.058V257.158C263.392 257.158 263.086 256.582 263.086 255.916V252.226C263.086 250.732 261.988 249.796 260.836 249.796H259.738V250.786H260.836C261.484 250.786 262.042 251.362 262.042 252.208V256.024C262.042 256.78 262.258 257.356 262.852 257.608C262.258 257.86 262.042 258.436 262.042 259.192V262.99C262.042 263.818 261.484 264.43 260.836 264.43H259.738V265.42ZM188.501 315.42V314.43H187.385C186.755 314.43 186.197 313.818 186.197 312.99V309.192C186.197 308.436 185.981 307.86 185.387 307.608C185.981 307.356 186.197 306.78 186.197 306.024V302.208C186.197 301.362 186.755 300.786 187.385 300.786H188.501V299.796H187.385C186.251 299.796 185.153 300.732 185.153 302.226V305.916C185.153 306.582 184.847 307.158 184.199 307.158V308.058C184.847 308.058 185.153 308.634 185.153 309.3V313.008C185.153 314.484 186.251 315.42 187.385 315.42H188.501ZM193.195 315.42V314.43H192.079C191.449 314.43 190.891 313.818 190.891 312.99V309.192C190.891 308.436 190.675 307.86 190.081 307.608C190.675 307.356 190.891 306.78 190.891 306.024V302.208C190.891 301.362 191.449 300.786 192.079 300.786H193.195V299.796H192.079C190.945 299.796 189.847 300.732 189.847 302.226V305.916C189.847 306.582 189.541 307.158 188.893 307.158V308.058C189.541 308.058 189.847 308.634 189.847 309.3V313.008C189.847 314.484 190.945 315.42 192.079 315.42H193.195ZM197.618 312.216C199.85 312.216 201.02 311.046 201.02 309.588C201.02 306.204 195.638 307.446 195.638 305.556C195.638 304.782 196.376 304.188 197.564 304.188C198.698 304.188 199.634 304.656 200.156 305.286L200.786 304.35C200.102 303.648 199.058 303.09 197.564 303.09C195.494 303.09 194.342 304.224 194.342 305.592C194.342 308.814 199.724 307.518 199.724 309.624C199.724 310.488 198.986 311.118 197.654 311.118C196.466 311.118 195.368 310.542 194.792 309.876L194.108 310.848C194.99 311.766 196.178 312.216 197.618 312.216ZM207.155 312.216C208.559 312.216 209.729 311.73 210.611 310.866L209.963 309.984C209.261 310.704 208.271 311.1 207.263 311.1C205.391 311.1 204.257 309.732 204.149 308.094H211.169V307.752C211.169 305.142 209.621 303.09 206.993 303.09C204.509 303.09 202.709 305.124 202.709 307.644C202.709 310.362 204.563 312.216 207.155 312.216ZM209.837 307.086H204.131C204.203 305.772 205.121 304.206 206.975 304.206C208.955 304.206 209.819 305.808 209.837 307.086ZM217.154 312.216C219.8 312.216 221.456 310.164 221.456 307.644C221.456 305.124 219.8 303.09 217.154 303.09C214.508 303.09 212.852 305.124 212.852 307.644C212.852 310.164 214.508 312.216 217.154 312.216ZM217.154 311.01C215.3 311.01 214.274 309.426 214.274 307.644C214.274 305.88 215.3 304.296 217.154 304.296C219.008 304.296 220.034 305.88 220.034 307.644C220.034 309.426 219.008 311.01 217.154 311.01ZM224.254 312.18C224.794 312.18 225.244 311.73 225.244 311.19C225.244 310.65 224.794 310.2 224.254 310.2C223.714 310.2 223.264 310.65 223.264 311.19C223.264 311.73 223.714 312.18 224.254 312.18ZM229.492 312.216C230.266 312.216 230.752 311.982 231.094 311.658L230.698 310.632C230.518 310.83 230.176 311.01 229.78 311.01C229.204 311.01 228.916 310.542 228.916 309.894V304.494H230.68V303.306H228.916V300.93H227.548V303.306H226.108V304.494H227.548V310.182C227.548 311.478 228.196 312.216 229.492 312.216ZM233.253 302.064C233.757 302.064 234.153 301.668 234.153 301.164C234.153 300.66 233.757 300.246 233.253 300.246C232.749 300.246 232.335 300.66 232.335 301.164C232.335 301.668 232.749 302.064 233.253 302.064ZM233.919 312V303.306H232.569V312H233.919ZM238.826 312.216C239.6 312.216 240.086 311.982 240.428 311.658L240.032 310.632C239.852 310.83 239.51 311.01 239.114 311.01C238.538 311.01 238.25 310.542 238.25 309.894V304.494H240.014V303.306H238.25V300.93H236.882V303.306H235.442V304.494H236.882V310.182C236.882 311.478 237.53 312.216 238.826 312.216ZM243.253 312V299.994H241.903V312H243.253ZM249.888 312.216C251.292 312.216 252.462 311.73 253.344 310.866L252.696 309.984C251.994 310.704 251.004 311.1 249.996 311.1C248.124 311.1 246.99 309.732 246.882 308.094H253.902V307.752C253.902 305.142 252.354 303.09 249.726 303.09C247.242 303.09 245.442 305.124 245.442 307.644C245.442 310.362 247.296 312.216 249.888 312.216ZM252.57 307.086H246.864C246.936 305.772 247.854 304.206 249.708 304.206C251.688 304.206 252.552 305.808 252.57 307.086ZM255.044 315.42H256.142C257.294 315.42 258.392 314.484 258.392 313.008V309.3C258.392 308.634 258.698 308.058 259.328 308.058V307.158C258.698 307.158 258.392 306.582 258.392 305.916V302.226C258.392 300.732 257.294 299.796 256.142 299.796H255.044V300.786H256.142C256.79 300.786 257.348 301.362 257.348 302.208V306.024C257.348 306.78 257.564 307.356 258.158 307.608C257.564 307.86 257.348 308.436 257.348 309.192V312.99C257.348 313.818 256.79 314.43 256.142 314.43H255.044V315.42ZM259.738 315.42H260.836C261.988 315.42 263.086 314.484 263.086 313.008V309.3C263.086 308.634 263.392 308.058 264.022 308.058V307.158C263.392 307.158 263.086 306.582 263.086 305.916V302.226C263.086 300.732 261.988 299.796 260.836 299.796H259.738V300.786H260.836C261.484 300.786 262.042 301.362 262.042 302.208V306.024C262.042 306.78 262.258 307.356 262.852 307.608C262.258 307.86 262.042 308.436 262.042 309.192V312.99C262.042 313.818 261.484 314.43 260.836 314.43H259.738V315.42ZM188.501 340.42V339.43H187.385C186.755 339.43 186.197 338.818 186.197 337.99V334.192C186.197 333.436 185.981 332.86 185.387 332.608C185.981 332.356 186.197 331.78 186.197 331.024V327.208C186.197 326.362 186.755 325.786 187.385 325.786H188.501V324.796H187.385C186.251 324.796 185.153 325.732 185.153 327.226V330.916C185.153 331.582 184.847 332.158 184.199 332.158V333.058C184.847 333.058 185.153 333.634 185.153 334.3V338.008C185.153 339.484 186.251 340.42 187.385 340.42H188.501ZM193.195 340.42V339.43H192.079C191.449 339.43 190.891 338.818 190.891 337.99V334.192C190.891 333.436 190.675 332.86 190.081 332.608C190.675 332.356 190.891 331.78 190.891 331.024V327.208C190.891 326.362 191.449 325.786 192.079 325.786H193.195V324.796H192.079C190.945 324.796 189.847 325.732 189.847 327.226V330.916C189.847 331.582 189.541 332.158 188.893 332.158V333.058C189.541 333.058 189.847 333.634 189.847 334.3V338.008C189.847 339.484 190.945 340.42 192.079 340.42H193.195ZM197.618 337.216C199.85 337.216 201.02 336.046 201.02 334.588C201.02 331.204 195.638 332.446 195.638 330.556C195.638 329.782 196.376 329.188 197.564 329.188C198.698 329.188 199.634 329.656 200.156 330.286L200.786 329.35C200.102 328.648 199.058 328.09 197.564 328.09C195.494 328.09 194.342 329.224 194.342 330.592C194.342 333.814 199.724 332.518 199.724 334.624C199.724 335.488 198.986 336.118 197.654 336.118C196.466 336.118 195.368 335.542 194.792 334.876L194.108 335.848C194.99 336.766 196.178 337.216 197.618 337.216ZM207.155 337.216C208.559 337.216 209.729 336.73 210.611 335.866L209.963 334.984C209.261 335.704 208.271 336.1 207.263 336.1C205.391 336.1 204.257 334.732 204.149 333.094H211.169V332.752C211.169 330.142 209.621 328.09 206.993 328.09C204.509 328.09 202.709 330.124 202.709 332.644C202.709 335.362 204.563 337.216 207.155 337.216ZM209.837 332.086H204.131C204.203 330.772 205.121 329.206 206.975 329.206C208.955 329.206 209.819 330.808 209.837 332.086ZM217.154 337.216C219.8 337.216 221.456 335.164 221.456 332.644C221.456 330.124 219.8 328.09 217.154 328.09C214.508 328.09 212.852 330.124 212.852 332.644C212.852 335.164 214.508 337.216 217.154 337.216ZM217.154 336.01C215.3 336.01 214.274 334.426 214.274 332.644C214.274 330.88 215.3 329.296 217.154 329.296C219.008 329.296 220.034 330.88 220.034 332.644C220.034 334.426 219.008 336.01 217.154 336.01ZM224.254 337.18C224.794 337.18 225.244 336.73 225.244 336.19C225.244 335.65 224.794 335.2 224.254 335.2C223.714 335.2 223.264 335.65 223.264 336.19C223.264 336.73 223.714 337.18 224.254 337.18ZM229.492 337.216C230.266 337.216 230.752 336.982 231.094 336.658L230.698 335.632C230.518 335.83 230.176 336.01 229.78 336.01C229.204 336.01 228.916 335.542 228.916 334.894V329.494H230.68V328.306H228.916V325.93H227.548V328.306H226.108V329.494H227.548V335.182C227.548 336.478 228.196 337.216 229.492 337.216ZM233.253 327.064C233.757 327.064 234.153 326.668 234.153 326.164C234.153 325.66 233.757 325.246 233.253 325.246C232.749 325.246 232.335 325.66 232.335 326.164C232.335 326.668 232.749 327.064 233.253 327.064ZM233.919 337V328.306H232.569V337H233.919ZM238.826 337.216C239.6 337.216 240.086 336.982 240.428 336.658L240.032 335.632C239.852 335.83 239.51 336.01 239.114 336.01C238.538 336.01 238.25 335.542 238.25 334.894V329.494H240.014V328.306H238.25V325.93H236.882V328.306H235.442V329.494H236.882V335.182C236.882 336.478 237.53 337.216 238.826 337.216ZM243.253 337V324.994H241.903V337H243.253ZM249.888 337.216C251.292 337.216 252.462 336.73 253.344 335.866L252.696 334.984C251.994 335.704 251.004 336.1 249.996 336.1C248.124 336.1 246.99 334.732 246.882 333.094H253.902V332.752C253.902 330.142 252.354 328.09 249.726 328.09C247.242 328.09 245.442 330.124 245.442 332.644C245.442 335.362 247.296 337.216 249.888 337.216ZM252.57 332.086H246.864C246.936 330.772 247.854 329.206 249.708 329.206C251.688 329.206 252.552 330.808 252.57 332.086ZM255.044 340.42H256.142C257.294 340.42 258.392 339.484 258.392 338.008V334.3C258.392 333.634 258.698 333.058 259.328 333.058V332.158C258.698 332.158 258.392 331.582 258.392 330.916V327.226C258.392 325.732 257.294 324.796 256.142 324.796H255.044V325.786H256.142C256.79 325.786 257.348 326.362 257.348 327.208V331.024C257.348 331.78 257.564 332.356 258.158 332.608C257.564 332.86 257.348 333.436 257.348 334.192V337.99C257.348 338.818 256.79 339.43 256.142 339.43H255.044V340.42ZM259.738 340.42H260.836C261.988 340.42 263.086 339.484 263.086 338.008V334.3C263.086 333.634 263.392 333.058 264.022 333.058V332.158C263.392 332.158 263.086 331.582 263.086 330.916V327.226C263.086 325.732 261.988 324.796 260.836 324.796H259.738V325.786H260.836C261.484 325.786 262.042 326.362 262.042 327.208V331.024C262.042 331.78 262.258 332.356 262.852 332.608C262.258 332.86 262.042 333.436 262.042 334.192V337.99C262.042 338.818 261.484 339.43 260.836 339.43H259.738V340.42Z" fill="#F44599"/>
<path d="M117.689 137V130.898C117.689 129.008 116.735 128.09 114.935 128.09C113.621 128.09 112.433 128.828 111.821 129.566V128.306H110.471V137H111.821V130.646C112.343 129.944 113.333 129.296 114.395 129.296C115.565 129.296 116.357 129.764 116.357 131.312V137H117.689ZM127.189 137V131.024C127.189 128.918 125.677 128.09 123.823 128.09C122.401 128.09 121.285 128.558 120.349 129.53L120.979 130.466C121.753 129.62 122.599 129.26 123.643 129.26C124.903 129.26 125.839 129.926 125.839 131.078V132.644C125.137 131.852 124.147 131.474 122.959 131.474C121.483 131.474 119.935 132.374 119.935 134.336C119.935 136.226 121.501 137.216 122.959 137.216C124.129 137.216 125.137 136.802 125.839 136.01V137H127.189ZM123.463 136.244C122.185 136.244 121.303 135.452 121.303 134.336C121.303 133.238 122.185 132.446 123.463 132.446C124.399 132.446 125.317 132.806 125.839 133.508V135.164C125.317 135.884 124.399 136.244 123.463 136.244ZM141.757 137V130.718C141.757 128.972 140.911 128.09 139.327 128.09C138.066 128.09 136.897 128.918 136.411 129.71C136.159 128.81 135.403 128.09 134.089 128.09C132.793 128.09 131.641 129.008 131.263 129.566V128.306H129.913V137H131.263V130.646C131.731 129.944 132.667 129.296 133.549 129.296C134.701 129.296 135.151 129.998 135.151 131.096V137H136.501V130.628C136.951 129.926 137.905 129.296 138.805 129.296C139.939 129.296 140.407 129.998 140.407 131.096V137H141.757ZM148.392 137.216C149.796 137.216 150.966 136.73 151.848 135.866L151.2 134.984C150.498 135.704 149.508 136.1 148.5 136.1C146.628 136.1 145.494 134.732 145.386 133.094H152.406V132.752C152.406 130.142 150.858 128.09 148.23 128.09C145.746 128.09 143.946 130.124 143.946 132.644C143.946 135.362 145.8 137.216 148.392 137.216ZM151.074 132.086H145.368C145.44 130.772 146.358 129.206 148.212 129.206C150.192 129.206 151.056 130.808 151.074 132.086ZM235.33 137.216C236.914 137.216 237.85 136.568 238.516 135.704L237.616 134.876C237.04 135.65 236.302 136.01 235.402 136.01C233.566 136.01 232.396 134.57 232.396 132.644C232.396 130.718 233.566 129.296 235.402 129.296C236.302 129.296 237.04 129.62 237.616 130.412L238.516 129.602C237.85 128.738 236.914 128.09 235.33 128.09C232.738 128.09 230.992 130.07 230.992 132.644C230.992 135.218 232.738 137.216 235.33 137.216ZM244.224 137.216C246.87 137.216 248.526 135.164 248.526 132.644C248.526 130.124 246.87 128.09 244.224 128.09C241.578 128.09 239.922 130.124 239.922 132.644C239.922 135.164 241.578 137.216 244.224 137.216ZM244.224 136.01C242.37 136.01 241.344 134.426 241.344 132.644C241.344 130.88 242.37 129.296 244.224 129.296C246.078 129.296 247.104 130.88 247.104 132.644C247.104 134.426 246.078 136.01 244.224 136.01ZM257.945 137V130.898C257.945 129.008 256.991 128.09 255.191 128.09C253.877 128.09 252.689 128.828 252.077 129.566V128.306H250.727V137H252.077V130.646C252.599 129.944 253.589 129.296 254.651 129.296C255.821 129.296 256.613 129.764 256.613 131.312V137H257.945ZM262.873 137.216C263.647 137.216 264.133 136.982 264.475 136.658L264.079 135.632C263.899 135.83 263.557 136.01 263.161 136.01C262.585 136.01 262.297 135.542 262.297 134.894V129.494H264.061V128.306H262.297V125.93H260.929V128.306H259.489V129.494H260.929V135.182C260.929 136.478 261.577 137.216 262.873 137.216ZM269.892 137.216C271.296 137.216 272.466 136.73 273.348 135.866L272.7 134.984C271.998 135.704 271.008 136.1 270 136.1C268.128 136.1 266.994 134.732 266.886 133.094H273.906V132.752C273.906 130.142 272.358 128.09 269.73 128.09C267.246 128.09 265.446 130.124 265.446 132.644C265.446 135.362 267.3 137.216 269.892 137.216ZM272.574 132.086H266.868C266.94 130.772 267.858 129.206 269.712 129.206C271.692 129.206 272.556 130.808 272.574 132.086ZM283.31 137V130.898C283.31 129.008 282.356 128.09 280.556 128.09C279.242 128.09 278.054 128.828 277.442 129.566V128.306H276.092V137H277.442V130.646C277.964 129.944 278.954 129.296 280.016 129.296C281.186 129.296 281.978 129.764 281.978 131.312V137H283.31ZM288.238 137.216C289.012 137.216 289.498 136.982 289.84 136.658L289.444 135.632C289.264 135.83 288.922 136.01 288.526 136.01C287.95 136.01 287.662 135.542 287.662 134.894V129.494H289.426V128.306H287.662V125.93H286.294V128.306H284.854V129.494H286.294V135.182C286.294 136.478 286.942 137.216 288.238 137.216ZM114.755 187.216C117.041 187.216 118.625 185.452 118.625 182.644C118.625 179.818 117.041 178.09 114.755 178.09C113.531 178.09 112.451 178.72 111.821 179.602V178.306H110.471V190.312H111.821V185.686C112.541 186.64 113.567 187.216 114.755 187.216ZM114.413 186.01C113.351 186.01 112.289 185.362 111.821 184.606V180.682C112.289 179.926 113.351 179.296 114.413 179.296C116.159 179.296 117.203 180.718 117.203 182.644C117.203 184.57 116.159 186.01 114.413 186.01ZM122.122 187V180.844C122.518 180.142 123.652 179.458 124.498 179.458C124.696 179.458 124.858 179.476 125.02 179.494V178.108C123.832 178.108 122.824 178.792 122.122 179.692V178.306H120.772V187H122.122ZM130.511 187.216C133.157 187.216 134.813 185.164 134.813 182.644C134.813 180.124 133.157 178.09 130.511 178.09C127.865 178.09 126.209 180.124 126.209 182.644C126.209 185.164 127.865 187.216 130.511 187.216ZM130.511 186.01C128.657 186.01 127.631 184.426 127.631 182.644C127.631 180.88 128.657 179.296 130.511 179.296C132.365 179.296 133.391 180.88 133.391 182.644C133.391 184.426 132.365 186.01 130.511 186.01ZM141.298 187.216C143.584 187.216 145.168 185.452 145.168 182.644C145.168 179.818 143.584 178.09 141.298 178.09C140.074 178.09 138.994 178.72 138.364 179.602V178.306H137.014V190.312H138.364V185.686C139.084 186.64 140.11 187.216 141.298 187.216ZM140.956 186.01C139.894 186.01 138.832 185.362 138.364 184.606V180.682C138.832 179.926 139.894 179.296 140.956 179.296C142.702 179.296 143.746 180.718 143.746 182.644C143.746 184.57 142.702 186.01 140.956 186.01ZM151.257 187.216C152.661 187.216 153.831 186.73 154.713 185.866L154.065 184.984C153.363 185.704 152.373 186.1 151.365 186.1C149.493 186.1 148.359 184.732 148.251 183.094H155.271V182.752C155.271 180.142 153.723 178.09 151.095 178.09C148.611 178.09 146.811 180.124 146.811 182.644C146.811 185.362 148.665 187.216 151.257 187.216ZM153.939 182.086H148.233C148.305 180.772 149.223 179.206 151.077 179.206C153.057 179.206 153.921 180.808 153.939 182.086ZM158.807 187V180.844C159.203 180.142 160.337 179.458 161.183 179.458C161.381 179.458 161.543 179.476 161.705 179.494V178.108C160.517 178.108 159.509 178.792 158.807 179.692V178.306H157.457V187H158.807ZM165.613 187.216C166.387 187.216 166.873 186.982 167.215 186.658L166.819 185.632C166.639 185.83 166.297 186.01 165.901 186.01C165.325 186.01 165.037 185.542 165.037 184.894V179.494H166.801V178.306H165.037V175.93H163.669V178.306H162.229V179.494H163.669V185.182C163.669 186.478 164.317 187.216 165.613 187.216ZM168.222 190.402C168.456 190.474 168.906 190.528 169.194 190.528C170.346 190.51 171.228 190.024 171.75 188.764L176.106 178.306H174.648L171.75 185.434L168.87 178.306H167.394L171.03 187.09L170.454 188.404C170.148 189.124 169.752 189.322 169.158 189.322C168.942 189.322 168.618 189.268 168.42 189.178L168.222 190.402ZM114.305 237.216C115.889 237.216 116.825 236.568 117.491 235.704L116.591 234.876C116.015 235.65 115.277 236.01 114.377 236.01C112.541 236.01 111.371 234.57 111.371 232.644C111.371 230.718 112.541 229.296 114.377 229.296C115.277 229.296 116.015 229.62 116.591 230.412L117.491 229.602C116.825 228.738 115.889 228.09 114.305 228.09C111.713 228.09 109.967 230.07 109.967 232.644C109.967 235.218 111.713 237.216 114.305 237.216ZM123.199 237.216C125.845 237.216 127.501 235.164 127.501 232.644C127.501 230.124 125.845 228.09 123.199 228.09C120.553 228.09 118.897 230.124 118.897 232.644C118.897 235.164 120.553 237.216 123.199 237.216ZM123.199 236.01C121.345 236.01 120.319 234.426 120.319 232.644C120.319 230.88 121.345 229.296 123.199 229.296C125.053 229.296 126.079 230.88 126.079 232.644C126.079 234.426 125.053 236.01 123.199 236.01ZM136.92 237V230.898C136.92 229.008 135.966 228.09 134.166 228.09C132.852 228.09 131.664 228.828 131.052 229.566V228.306H129.702V237H131.052V230.646C131.574 229.944 132.564 229.296 133.626 229.296C134.796 229.296 135.588 229.764 135.588 231.312V237H136.92ZM141.847 237.216C142.621 237.216 143.107 236.982 143.449 236.658L143.053 235.632C142.873 235.83 142.531 236.01 142.135 236.01C141.559 236.01 141.271 235.542 141.271 234.894V229.494H143.035V228.306H141.271V225.93H139.903V228.306H138.463V229.494H139.903V235.182C139.903 236.478 140.551 237.216 141.847 237.216ZM148.866 237.216C150.27 237.216 151.44 236.73 152.322 235.866L151.674 234.984C150.972 235.704 149.982 236.1 148.974 236.1C147.102 236.1 145.968 234.732 145.86 233.094H152.88V232.752C152.88 230.142 151.332 228.09 148.704 228.09C146.22 228.09 144.42 230.124 144.42 232.644C144.42 235.362 146.274 237.216 148.866 237.216ZM151.548 232.086H145.842C145.914 230.772 146.832 229.206 148.686 229.206C150.666 229.206 151.53 230.808 151.548 232.086ZM162.285 237V230.898C162.285 229.008 161.331 228.09 159.531 228.09C158.217 228.09 157.029 228.828 156.417 229.566V228.306H155.067V237H156.417V230.646C156.939 229.944 157.929 229.296 158.991 229.296C160.161 229.296 160.953 229.764 160.953 231.312V237H162.285ZM167.212 237.216C167.986 237.216 168.472 236.982 168.814 236.658L168.418 235.632C168.238 235.83 167.896 236.01 167.5 236.01C166.924 236.01 166.636 235.542 166.636 234.894V229.494H168.4V228.306H166.636V225.93H165.268V228.306H163.828V229.494H165.268V235.182C165.268 236.478 165.916 237.216 167.212 237.216ZM114.305 262.216C115.889 262.216 116.825 261.568 117.491 260.704L116.591 259.876C116.015 260.65 115.277 261.01 114.377 261.01C112.541 261.01 111.371 259.57 111.371 257.644C111.371 255.718 112.541 254.296 114.377 254.296C115.277 254.296 116.015 254.62 116.591 255.412L117.491 254.602C116.825 253.738 115.889 253.09 114.305 253.09C111.713 253.09 109.967 255.07 109.967 257.644C109.967 260.218 111.713 262.216 114.305 262.216ZM123.199 262.216C125.845 262.216 127.501 260.164 127.501 257.644C127.501 255.124 125.845 253.09 123.199 253.09C120.553 253.09 118.897 255.124 118.897 257.644C118.897 260.164 120.553 262.216 123.199 262.216ZM123.199 261.01C121.345 261.01 120.319 259.426 120.319 257.644C120.319 255.88 121.345 254.296 123.199 254.296C125.053 254.296 126.079 255.88 126.079 257.644C126.079 259.426 125.053 261.01 123.199 261.01ZM136.92 262V255.898C136.92 254.008 135.966 253.09 134.166 253.09C132.852 253.09 131.664 253.828 131.052 254.566V253.306H129.702V262H131.052V255.646C131.574 254.944 132.564 254.296 133.626 254.296C134.796 254.296 135.588 254.764 135.588 256.312V262H136.92ZM141.847 262.216C142.621 262.216 143.107 261.982 143.449 261.658L143.053 260.632C142.873 260.83 142.531 261.01 142.135 261.01C141.559 261.01 141.271 260.542 141.271 259.894V254.494H143.035V253.306H141.271V250.93H139.903V253.306H138.463V254.494H139.903V260.182C139.903 261.478 140.551 262.216 141.847 262.216ZM148.866 262.216C150.27 262.216 151.44 261.73 152.322 260.866L151.674 259.984C150.972 260.704 149.982 261.1 148.974 261.1C147.102 261.1 145.968 259.732 145.86 258.094H152.88V257.752C152.88 255.142 151.332 253.09 148.704 253.09C146.22 253.09 144.42 255.124 144.42 257.644C144.42 260.362 146.274 262.216 148.866 262.216ZM151.548 257.086H145.842C145.914 255.772 146.832 254.206 148.686 254.206C150.666 254.206 151.53 255.808 151.548 257.086ZM162.285 262V255.898C162.285 254.008 161.331 253.09 159.531 253.09C158.217 253.09 157.029 253.828 156.417 254.566V253.306H155.067V262H156.417V255.646C156.939 254.944 157.929 254.296 158.991 254.296C160.161 254.296 160.953 254.764 160.953 256.312V262H162.285ZM167.212 262.216C167.986 262.216 168.472 261.982 168.814 261.658L168.418 260.632C168.238 260.83 167.896 261.01 167.5 261.01C166.924 261.01 166.636 260.542 166.636 259.894V254.494H168.4V253.306H166.636V250.93H165.268V253.306H163.828V254.494H165.268V260.182C165.268 261.478 165.916 262.216 167.212 262.216ZM114.305 312.216C115.889 312.216 116.825 311.568 117.491 310.704L116.591 309.876C116.015 310.65 115.277 311.01 114.377 311.01C112.541 311.01 111.371 309.57 111.371 307.644C111.371 305.718 112.541 304.296 114.377 304.296C115.277 304.296 116.015 304.62 116.591 305.412L117.491 304.602C116.825 303.738 115.889 303.09 114.305 303.09C111.713 303.09 109.967 305.07 109.967 307.644C109.967 310.218 111.713 312.216 114.305 312.216ZM123.199 312.216C125.845 312.216 127.501 310.164 127.501 307.644C127.501 305.124 125.845 303.09 123.199 303.09C120.553 303.09 118.897 305.124 118.897 307.644C118.897 310.164 120.553 312.216 123.199 312.216ZM123.199 311.01C121.345 311.01 120.319 309.426 120.319 307.644C120.319 305.88 121.345 304.296 123.199 304.296C125.053 304.296 126.079 305.88 126.079 307.644C126.079 309.426 125.053 311.01 123.199 311.01ZM136.92 312V305.898C136.92 304.008 135.966 303.09 134.166 303.09C132.852 303.09 131.664 303.828 131.052 304.566V303.306H129.702V312H131.052V305.646C131.574 304.944 132.564 304.296 133.626 304.296C134.796 304.296 135.588 304.764 135.588 306.312V312H136.92ZM141.847 312.216C142.621 312.216 143.107 311.982 143.449 311.658L143.053 310.632C142.873 310.83 142.531 311.01 142.135 311.01C141.559 311.01 141.271 310.542 141.271 309.894V304.494H143.035V303.306H141.271V300.93H139.903V303.306H138.463V304.494H139.903V310.182C139.903 311.478 140.551 312.216 141.847 312.216ZM148.866 312.216C150.27 312.216 151.44 311.73 152.322 310.866L151.674 309.984C150.972 310.704 149.982 311.1 148.974 311.1C147.102 311.1 145.968 309.732 145.86 308.094H152.88V307.752C152.88 305.142 151.332 303.09 148.704 303.09C146.22 303.09 144.42 305.124 144.42 307.644C144.42 310.362 146.274 312.216 148.866 312.216ZM151.548 307.086H145.842C145.914 305.772 146.832 304.206 148.686 304.206C150.666 304.206 151.53 305.808 151.548 307.086ZM162.285 312V305.898C162.285 304.008 161.331 303.09 159.531 303.09C158.217 303.09 157.029 303.828 156.417 304.566V303.306H155.067V312H156.417V305.646C156.939 304.944 157.929 304.296 158.991 304.296C160.161 304.296 160.953 304.764 160.953 306.312V312H162.285ZM167.212 312.216C167.986 312.216 168.472 311.982 168.814 311.658L168.418 310.632C168.238 310.83 167.896 311.01 167.5 311.01C166.924 311.01 166.636 310.542 166.636 309.894V304.494H168.4V303.306H166.636V300.93H165.268V303.306H163.828V304.494H165.268V310.182C165.268 311.478 165.916 312.216 167.212 312.216ZM114.305 337.216C115.889 337.216 116.825 336.568 117.491 335.704L116.591 334.876C116.015 335.65 115.277 336.01 114.377 336.01C112.541 336.01 111.371 334.57 111.371 332.644C111.371 330.718 112.541 329.296 114.377 329.296C115.277 329.296 116.015 329.62 116.591 330.412L117.491 329.602C116.825 328.738 115.889 328.09 114.305 328.09C111.713 328.09 109.967 330.07 109.967 332.644C109.967 335.218 111.713 337.216 114.305 337.216ZM123.199 337.216C125.845 337.216 127.501 335.164 127.501 332.644C127.501 330.124 125.845 328.09 123.199 328.09C120.553 328.09 118.897 330.124 118.897 332.644C118.897 335.164 120.553 337.216 123.199 337.216ZM123.199 336.01C121.345 336.01 120.319 334.426 120.319 332.644C120.319 330.88 121.345 329.296 123.199 329.296C125.053 329.296 126.079 330.88 126.079 332.644C126.079 334.426 125.053 336.01 123.199 336.01ZM136.92 337V330.898C136.92 329.008 135.966 328.09 134.166 328.09C132.852 328.09 131.664 328.828 131.052 329.566V328.306H129.702V337H131.052V330.646C131.574 329.944 132.564 329.296 133.626 329.296C134.796 329.296 135.588 329.764 135.588 331.312V337H136.92ZM141.847 337.216C142.621 337.216 143.107 336.982 143.449 336.658L143.053 335.632C142.873 335.83 142.531 336.01 142.135 336.01C141.559 336.01 141.271 335.542 141.271 334.894V329.494H143.035V328.306H141.271V325.93H139.903V328.306H138.463V329.494H139.903V335.182C139.903 336.478 140.551 337.216 141.847 337.216ZM148.866 337.216C150.27 337.216 151.44 336.73 152.322 335.866L151.674 334.984C150.972 335.704 149.982 336.1 148.974 336.1C147.102 336.1 145.968 334.732 145.86 333.094H152.88V332.752C152.88 330.142 151.332 328.09 148.704 328.09C146.22 328.09 144.42 330.124 144.42 332.644C144.42 335.362 146.274 337.216 148.866 337.216ZM151.548 332.086H145.842C145.914 330.772 146.832 329.206 148.686 329.206C150.666 329.206 151.53 330.808 151.548 332.086ZM162.285 337V330.898C162.285 329.008 161.331 328.09 159.531 328.09C158.217 328.09 157.029 328.828 156.417 329.566V328.306H155.067V337H156.417V330.646C156.939 329.944 157.929 329.296 158.991 329.296C160.161 329.296 160.953 329.764 160.953 331.312V337H162.285ZM167.212 337.216C167.986 337.216 168.472 336.982 168.814 336.658L168.418 335.632C168.238 335.83 167.896 336.01 167.5 336.01C166.924 336.01 166.636 335.542 166.636 334.894V329.494H168.4V328.306H166.636V325.93H165.268V328.306H163.828V329.494H165.268V335.182C165.268 336.478 165.916 337.216 167.212 337.216Z" fill="#20D287"/>
</svg>
