<svg id="Layer_1" data-name="Layer 1" xmlns="http://www.w3.org/2000/svg" viewBox="0 0 339.88 235.61"><path d="M1009.3,424.39c-2.6,1.7-4.8,3.4-4.8,3.9s2.3,5.7,5,11.7c5.3,11.5,5.6,12.5,4,11.5-.6-.4-1,1.1-1,3.7,0,3,1.5,7.4,4.9,14.8,2.8,5.8,4.6,10.6,4.1,10.8s-5.2-.8-10.6-2.2c-53.4-13.5-106.1-15.8-162.9-7.1-19.5,3-48.6,9.3-50.1,10.9-.9.8-8.5,85.3-8.4,93.3,0,.7,1,1.3,2.3,1.3,2,0,2.3.4,1.9,2.9a17.66,17.66,0,0,0,1.6,7.4c3.3,7.4,5.6,7.7,30.9,3.8,49.8-7.5,72.3-9.4,109.3-9.4,30.3,0,45.4,1.2,62.2,5,4,.9,8.3,1.6,9.5,1.7,1.8.1,1.9.4,1,2.1-1.7,3.2-17.3,18.1-32,30.5l-13.6,11.4,2,3.6c1.1,1.9,2.6,4.3,3.3,5.3,1.5,1.9,1.2,2,12.1-2.7,3.3-1.4,5.1-2,4-1.3-3.9,2.4-10.2,9.5-10.9,12.2a6.17,6.17,0,0,0,1,5.2c2.9,4.5,7.6,3.1,44.9-13.4,35.4-15.7,59.2-25.7,82.6-34.8,23.9-9.3,26.9-11.7,26.9-21.1,0-3.1-.4-6.4-1-7.4-.7-1.3-.6-1.9.5-2.4,2.3-.8,1.9-3.4-2.5-16.8-8.8-26.8-21.9-48.1-45.9-74.3-7.6-8.3-24.9-25-54.1-52.4l-11.5-10.8Z" transform="translate(-789.5 -421.29)"/></svg>