<?xml version="1.0" encoding="utf-8"?>
<!-- Generator: Adobe Illustrator 25.1.0, SVG Export Plug-In . SVG Version: 6.00 Build 0)  -->
<svg version="1.1" id="Layer_1" xmlns="http://www.w3.org/2000/svg" xmlns:xlink="http://www.w3.org/1999/xlink" x="0px" y="0px"
	 viewBox="0 0 339.9 235.6" style="enable-background:new 0 0 339.9 235.6;" xml:space="preserve">
<style type="text/css">
	.st0{fill:#FFFFFF;}
</style>
<path class="st0" d="M219.8,3.1C217.2,4.8,215,6.5,215,7s2.3,5.7,5,11.7c5.3,11.5,5.6,12.5,4,11.5c-0.6-0.4-1,1.1-1,3.7
	c0,3,1.5,7.4,4.9,14.8c2.8,5.8,4.6,10.6,4.1,10.8s-5.2-0.8-10.6-2.2C168,43.8,115.3,41.5,58.5,50.2C39,53.2,9.9,59.5,8.4,61.1
	c-0.9,0.8-8.5,85.3-8.4,93.3c0,0.7,1,1.3,2.3,1.3c2,0,2.3,0.4,1.9,2.9c0,2.6,0.5,5.1,1.6,7.4c3.3,7.4,5.6,7.7,30.9,3.8
	c49.8-7.5,72.3-9.4,109.3-9.4c30.3,0,45.4,1.2,62.2,5c4,0.9,8.3,1.6,9.5,1.7c1.8,0.1,1.9,0.4,1,2.1c-1.7,3.2-17.3,18.1-32,30.5
	l-13.6,11.4l2,3.6c1.1,1.9,2.6,4.3,3.3,5.3c1.5,1.9,1.2,2,12.1-2.7c3.3-1.4,5.1-2,4-1.3c-3.9,2.4-10.2,9.5-10.9,12.2
	c-0.5,1.8-0.1,3.7,1,5.2c2.9,4.5,7.6,3.1,44.9-13.4c35.4-15.7,59.2-25.7,82.6-34.8c23.9-9.3,26.9-11.7,26.9-21.1
	c0-3.1-0.4-6.4-1-7.4c-0.7-1.3-0.6-1.9,0.5-2.4c2.3-0.8,1.9-3.4-2.5-16.8c-8.8-26.8-21.9-48.1-45.9-74.3c-7.6-8.3-24.9-25-54.1-52.4
	L224.5,0L219.8,3.1z"/>
</svg>
