<svg width="1008" height="772" viewBox="0 0 1008 772" fill="none" xmlns="http://www.w3.org/2000/svg">
<g opacity="0.2">
<circle cx="29.6645" cy="622.953" r="29.1645" fill="white" stroke="#D8DBDE"/>
<circle cx="330.663" cy="731.646" r="29.1645" fill="white" stroke="#D8DBDE"/>
<circle cx="449.762" cy="731.646" r="29.1645" fill="white" stroke="#D8DBDE"/>
<circle cx="810.309" cy="741.39" r="29.1645" fill="white" stroke="#D8DBDE"/>
<circle cx="29.6645" cy="504.296" r="29.1645" fill="white" stroke="#D8DBDE"/>
<circle cx="266.981" cy="29.6645" r="29.1645" fill="white" stroke="#D8DBDE"/>
<circle cx="266.981" cy="266.98" r="29.1645" fill="white" stroke="#D8DBDE"/>
<circle cx="266.981" cy="385.638" r="29.1645" fill="white" stroke="#D8DBDE"/>
<circle cx="266.981" cy="622.953" r="29.1645" fill="white" stroke="#D8DBDE"/>
<circle cx="266.981" cy="504.296" r="29.1645" fill="white" stroke="#D8DBDE"/>
<circle cx="148.323" cy="29.6645" r="29.1645" fill="white" stroke="#D8DBDE"/>
<circle cx="148.323" cy="266.98" r="29.1645" fill="white" stroke="#D8DBDE"/>
<circle cx="148.323" cy="385.638" r="29.1645" fill="white" stroke="#D8DBDE"/>
<circle cx="148.323" cy="622.953" r="29.1645" fill="white" stroke="#D8DBDE"/>
<circle cx="148.323" cy="504.296" r="29.1645" fill="white" stroke="#D8DBDE"/>
<circle cx="385.637" cy="29.6645" r="29.1645" fill="white" stroke="#D8DBDE"/>
<circle cx="385.637" cy="266.98" r="29.1645" fill="white" stroke="#D8DBDE"/>
<circle cx="385.637" cy="385.638" r="29.1645" fill="white" stroke="#D8DBDE"/>
<circle cx="385.637" cy="622.953" r="29.1645" fill="white" stroke="#D8DBDE"/>
<circle cx="385.637" cy="504.296" r="29.1645" fill="white" stroke="#D8DBDE"/>
<circle cx="504.295" cy="29.6645" r="29.1645" fill="white" stroke="#D8DBDE"/>
<circle cx="741.612" cy="29.6645" r="29.1645" fill="white" stroke="#D8DBDE"/>
<circle cx="504.295" cy="266.98" r="29.1645" fill="white" stroke="#D8DBDE"/>
<circle cx="741.612" cy="266.98" r="29.1645" fill="white" stroke="#D8DBDE"/>
<circle cx="504.295" cy="148.322" r="29.1645" fill="white" stroke="#D8DBDE"/>
<circle cx="741.612" cy="148.322" r="29.1645" fill="white" stroke="#D8DBDE"/>
<circle cx="860.114" cy="148.322" r="29.1645" fill="white" stroke="#D8DBDE"/>
<circle cx="978.131" cy="148.322" r="29.1645" fill="white" stroke="#D8DBDE"/>
<circle cx="504.295" cy="385.638" r="29.1645" fill="white" stroke="#D8DBDE"/>
<circle cx="741.612" cy="385.638" r="29.1645" fill="white" stroke="#D8DBDE"/>
<circle cx="504.295" cy="622.953" r="29.1645" fill="white" stroke="#D8DBDE"/>
<circle cx="741.612" cy="622.953" r="29.1645" fill="white" stroke="#D8DBDE"/>
<circle cx="504.295" cy="504.296" r="29.1645" fill="white" stroke="#D8DBDE"/>
<circle cx="741.612" cy="504.296" r="29.1645" fill="white" stroke="#D8DBDE"/>
<circle cx="622.953" cy="29.6645" r="29.1645" fill="white" stroke="#D8DBDE"/>
<circle cx="860.27" cy="29.6645" r="29.1645" fill="white" stroke="#D8DBDE"/>
<circle cx="622.953" cy="266.98" r="29.1645" fill="white" stroke="#D8DBDE"/>
<circle cx="860.27" cy="266.98" r="29.1645" fill="white" stroke="#D8DBDE"/>
<circle cx="978.131" cy="266.98" r="29.1645" fill="white" stroke="#D8DBDE"/>
<circle cx="622.953" cy="148.322" r="29.1645" fill="white" stroke="#D8DBDE"/>
<circle cx="622.953" cy="385.638" r="29.1645" fill="white" stroke="#D8DBDE"/>
<circle cx="860.27" cy="385.638" r="29.1645" fill="white" stroke="#D8DBDE"/>
<circle cx="978.131" cy="385.638" r="29.1645" fill="white" stroke="#D8DBDE"/>
<circle cx="622.953" cy="622.953" r="29.1645" fill="white" stroke="#D8DBDE"/>
<circle cx="860.27" cy="622.953" r="29.1645" fill="white" stroke="#D8DBDE"/>
<circle cx="978.131" cy="622.953" r="29.1645" fill="white" stroke="#D8DBDE"/>
<circle cx="622.953" cy="504.296" r="29.1645" fill="white" stroke="#D8DBDE"/>
<circle cx="860.27" cy="504.296" r="29.1645" fill="white" stroke="#D8DBDE"/>
<circle cx="978.131" cy="504.296" r="29.1645" fill="white" stroke="#D8DBDE"/>
</g>
</svg>
