<?xml version="1.0" encoding="utf-8"?>
<!-- Generator: Adobe Illustrator 25.0.1, SVG Export Plug-In . SVG Version: 6.00 Build 0)  -->
<svg version="1.1" id="Layer_1" xmlns="http://www.w3.org/2000/svg" xmlns:xlink="http://www.w3.org/1999/xlink" x="0px" y="0px"
	 viewBox="0 0 1440 970.1" style="enable-background:new 0 0 1440 970.1;" xml:space="preserve">
<style type="text/css">
	.st0{fill:#FFFFFF;}
	.st1{fill:#362F4A;}
	.st2{fill:#436672;}
	.st3{fill:#3B8596;}
	.st4{fill:#49B74E;}
	.st5{fill:#5BA4E5;}
	.st6{fill:#347282;}
	.st7{opacity:0.24;fill:#6AD8B9;enable-background:new    ;}
	.st8{fill:#6AD8B9;}
	.st9{opacity:0.24;fill:#69A1DA;enable-background:new    ;}
	.st10{fill:#EAEAEA;}
	.st11{fill:#626D7B;}
	.st12{fill:#6154F9;}
</style>
<rect x="0" class="st0" width="1440" height="970.1"/>
<rect class="st1" width="273.6" height="970.1"/>
<rect y="173.7" class="st2" width="274.1" height="210.7"/>
<path class="st3" d="M107.2,370.9h-88c-6.1,0-11.1-5-11.1-11.1V193.7c0-6.1,5-11.1,11.1-11.1h88c6.1,0,11.1,5,11.1,11.1v166.1
	C118.3,366,113.4,370.9,107.2,370.9z"/>
<path class="st3" d="M260.3,370.9H133c-4,0-7.2-3.2-7.2-7.2v-48c0-4,3.2-7.2,7.2-7.2h127.3c4,0,7.2,3.2,7.2,7.2v48
	C267.6,367.7,264.3,370.9,260.3,370.9z"/>
<path class="st4" d="M128.8,428H13.1c-2.8,0-5-2.2-5-5v-23.6c0-2.8,2.2-5,5-5h115.6c2.8,0,5,2.2,5,5V423
	C133.8,425.8,131.5,428,128.8,428z"/>
<path class="st5" d="M262.6,428H146.9c-2.8,0-5-2.2-5-5v-23.6c0-2.8,2.2-5,5-5h115.6c2.8,0,5,2.2,5,5V423
	C267.6,425.8,265.3,428,262.6,428z"/>
<path class="st6" d="M257.6,300.8H135.7c-5.5,0-9.9-4.5-9.9-10v-98.2c0-5.5,4.5-9.9,9.9-9.9h121.9c5.5,0,10,4.5,10,9.9v98.2
	C267.6,296.3,263.1,300.8,257.6,300.8z"/>
<rect y="454.8" class="st7" width="274.1" height="210.6"/>
<path class="st8" d="M107.2,652h-88c-6.1,0-11.1-5-11.1-11.1V474.8c0-6.1,5-11.1,11.1-11.1h88c6.1,0,11.1,5,11.1,11.1v166.1
	C118.3,647,113.4,652,107.2,652z"/>
<path class="st8" d="M260.3,652H133c-4,0-7.2-3.2-7.2-7.2v-48c0-4,3.2-7.2,7.2-7.2h127.3c4,0,7.2,3.2,7.2,7.2v48
	C267.6,648.8,264.3,652,260.3,652z"/>
<path class="st4" d="M128.8,709.1H13.1c-2.8,0-5-2.2-5-5v-23.6c0-2.8,2.2-5,5-5h115.6c2.8,0,5,2.2,5,5v23.6
	C133.8,706.9,131.5,709.1,128.8,709.1z"/>
<path class="st5" d="M262.6,709.1H146.9c-2.8,0-5-2.2-5-5v-23.6c0-2.8,2.2-5,5-5h115.6c2.8,0,5,2.2,5,5v23.6
	C267.6,706.9,265.3,709.1,262.6,709.1z"/>
<path class="st7" d="M257.6,581.9H135.7c-5.5,0-9.9-4.5-9.9-10v-98.2c0-5.5,4.5-10,9.9-10h121.9c5.5,0,10,4.5,10,10v98.2
	C267.6,577.4,263.1,581.9,257.6,581.9z"/>
<rect y="744.8" class="st2" width="274.1" height="210.7"/>
<path class="st3" d="M107.2,942h-88c-6.1,0-11.1-5-11.1-11.1V764.8c0-6.1,5-11.1,11.1-11.1h88c6.1,0,11.1,5,11.1,11.1v166.1
	C118.3,937.1,113.4,942,107.2,942z"/>
<path class="st3" d="M260.3,942H133c-4,0-7.2-3.2-7.2-7.2v-48c0-4,3.2-7.2,7.2-7.2h127.3c4,0,7.2,3.2,7.2,7.2v48
	C267.6,938.8,264.3,942,260.3,942z"/>
<path class="st6" d="M257.6,871.9H135.7c-5.5,0-9.9-4.5-9.9-10v-98.2c0-5.5,4.5-10,9.9-10h121.9c5.5,0,10,4.5,10,10v98.2
	C267.6,867.4,263.1,871.9,257.6,871.9z"/>
<path class="st8" d="M1084.3,670.4H599c-22.1,0-40-17.9-40-40V338.1c0-22.1,17.9-40,40-40h485.2c22.1,0,40,17.9,40,40v292.3
	C1124.2,652.5,1106.3,670.4,1084.3,670.4z"/>
<path class="st1" d="M1269.9,805.7H476.3c-27.7,0-50.1-22.5-50.1-50.1V213c0-27.7,22.5-50.1,50.1-50.1h793.6
	c27.7,0,50.1,22.4,50.1,50.1v542.5C1320,783.2,1297.6,805.7,1269.9,805.7z"/>
<rect x="435.7" y="212" class="st0" width="874.2" height="545.4"/>
<path class="st9" d="M932.1,357.8H804.8c-4,0-7.2-3.2-7.2-7.2v-48c0-4,3.2-7.2,7.2-7.2h127.3c4,0,7.2,3.2,7.2,7.2v48
	C939.3,354.5,936.1,357.8,932.1,357.8z"/>
<rect x="435.7" y="212" class="st10" width="873.7" height="53.9"/>
<path class="st10" d="M827.6,431.9h-50.3c-5.3,0-9.6-4.3-9.6-9.6l0,0c0-5.3,4.3-9.6,9.6-9.6h50.3c5.3,0,9.6,4.3,9.6,9.6l0,0
	C837.2,427.6,832.9,431.9,827.6,431.9z"/>
<path class="st9" d="M890.4,431.9h-38.2c-4.8,0-8.6-3.9-8.6-8.6v-2.1c0-4.8,3.8-8.6,8.6-8.6h38.2c4.8,0,8.6,3.9,8.6,8.6v2.1
	C899,428,895.1,431.9,890.4,431.9z"/>
<path class="st10" d="M954.5,431.9h-38.2c-4.8,0-8.6-3.9-8.6-8.6v-2.1c0-4.8,3.8-8.6,8.6-8.6h38.2c4.8,0,8.6,3.9,8.6,8.6v2.1
	C963.1,428,959.2,431.9,954.5,431.9z"/>
<path class="st10" d="M1290.1,308h-38.2c-4.8,0-8.6-3.9-8.6-8.6v-2.1c0-4.8,3.8-8.6,8.6-8.6h38.2c4.8,0,8.6,3.9,8.6,8.6v2.1
	C1298.7,304.1,1294.8,308,1290.1,308z"/>
<path class="st10" d="M509.7,248.6h-38.2c-4.8,0-8.6-3.9-8.6-8.6V238c0-4.8,3.9-8.6,8.6-8.6h38.2c4.8,0,8.6,3.9,8.6,8.6v2.1
	C518.3,244.8,514.5,248.6,509.7,248.6z"/>
<path class="st10" d="M1290.1,248.6h-38.2c-4.8,0-8.6-3.9-8.6-8.6V238c0-4.8,3.8-8.6,8.6-8.6h38.2c4.8,0,8.6,3.9,8.6,8.6v2.1
	C1298.7,244.8,1294.8,248.6,1290.1,248.6z"/>
<path class="st10" d="M1225.6,248.6h-38.2c-4.8,0-8.6-3.9-8.6-8.6V238c0-4.8,3.8-8.6,8.6-8.6h38.2c4.8,0,8.6,3.9,8.6,8.6v2.1
	C1234.2,244.8,1230.3,248.6,1225.6,248.6z"/>
<path class="st10" d="M1162.8,248.6h-38.2c-4.8,0-8.6-3.9-8.6-8.6V238c0-4.8,3.8-8.6,8.6-8.6h38.2c4.8,0,8.6,3.9,8.6,8.6v2.1
	C1171.4,244.8,1167.6,248.6,1162.8,248.6z"/>
<rect x="462.9" y="452.9" class="st9" width="817.5" height="304.5"/>
<path class="st9" d="M813.1,605.2H532.3c-13.3,0-24.1-10.8-24.1-24.1v-50.4c0-13.3,10.8-24.1,24.1-24.1h280.8
	c13.3,0,24.1,10.8,24.1,24.1v50.4C837.2,594.4,826.4,605.2,813.1,605.2z"/>
<path class="st9" d="M946.5,654.7H524.7c-9.1,0-16.5-7.4-16.5-16.5v-0.5c0-9.1,7.4-16.5,16.5-16.5h421.8c9.1,0,16.5,7.4,16.5,16.5
	v0.5C963.1,647.2,955.7,654.7,946.5,654.7z"/>
<path class="st9" d="M909.2,704.1H524c-8.8,0-15.8-7.1-15.8-15.8v-1.9c0-8.8,7.1-15.8,15.8-15.8h385.2c8.8,0,15.8,7.1,15.8,15.8v1.9
	C925.1,697,918,704.1,909.2,704.1z"/>
<path class="st11" d="M196.7,135.5H78.9c-5.6,0-10.1-4.5-10.1-10.1l0,0c0-5.6,4.5-10.1,10.1-10.1h117.9c5.6,0,10.1,4.5,10.1,10.1
	l0,0C206.8,131,202.3,135.5,196.7,135.5z"/>
<g>
	<path class="st12" d="M51.1,79.1c-1.3,0.9-2.8,1.7-4.2,2.2c-1.6,0.5-3.2,0.8-4.9,0.8c-2.3,0.1-4.5-0.5-6.6-1.5
		c-1.9-0.9-3.7-2.2-5.1-3.8c-1.5-1.6-2.6-3.4-3.3-5.4c-0.8-2-1.2-4.1-1.2-6.3c0-2.2,0.4-4.4,1.2-6.4c0.8-2,1.9-3.8,3.4-5.4
		c1.5-1.5,3.2-2.8,5.1-3.7c2-0.9,4.2-1.4,6.4-1.4c2.3,0,4.5,0.5,6.6,1.5c1.9,0.9,3.7,2.3,5.1,3.9c1.4,1.6,2.5,3.4,3.3,5.5
		c0.8,2,1.2,4.1,1.2,6.2c0,2.2-0.4,4.4-1.3,6.4c-0.8,2-1.9,3.8-3.4,5.4l4.3,4.7h-4.2L51.1,79.1z M42,78.3c1.2,0,2.4-0.2,3.5-0.6
		c1.1-0.4,2.1-0.9,3-1.6l-4.6-5.2h4.2l2.6,3c1.9-2.5,3-5.6,3-8.8c0-1.7-0.3-3.3-0.9-4.9c-0.5-1.5-1.3-3-2.4-4.2
		c-1-1.2-2.3-2.2-3.7-2.9C45.3,52.3,43.6,52,42,52c-1.7,0-3.4,0.4-4.9,1.2c-1.5,0.8-2.7,1.7-3.7,3c-1,1.3-1.8,2.7-2.4,4.2
		c-1.1,3.2-1.1,6.6,0,9.7c0.5,1.6,1.3,3,2.4,4.2c1,1.2,2.3,2.2,3.7,2.9C38.7,77.9,40.3,78.3,42,78.3z"/>
	<path class="st12" d="M69.3,82.3c-2.7,0-4.6-0.8-6-2.6s-2-4.3-2-7.7V57.3h4.2v13.9c0,5,1.8,7.5,5.4,7.5c1.8,0,3.5-0.6,4.9-1.6
		c1.6-1.1,2.8-2.7,3.4-4.5V57.3h4.2v19.5c0,1,0.4,1.5,1.3,1.5v3.6c-0.5,0.1-0.9,0.1-1.1,0.1s-0.5,0-0.8,0c-0.8,0.1-1.5-0.2-2.1-0.8
		c-0.5-0.5-0.9-1.1-0.9-1.8l-0.1-2.9c-1.1,1.8-2.6,3.2-4.4,4.2C73.5,81.8,71.4,82.3,69.3,82.3z"/>
	<path class="st12" d="M88.6,52.7v-5.2h4.2v5.2H88.6z M88.6,81.9V57.3h4.2v24.6H88.6z"/>
	<path class="st12" d="M96.1,69.5c0-1.7,0.3-3.3,0.9-4.9c0.6-1.5,1.4-2.9,2.6-4c1.2-1.2,2.5-2.1,4.1-2.7c1.6-0.7,3.4-1,5.3-1
		c2.3,0,4.5,0.5,6.5,1.7c1.8,1,3.2,2.5,4.2,4.3l-4.2,1.3c-0.6-1.1-1.6-2.1-2.7-2.7c-1.2-0.7-2.5-1-3.9-0.9c-2.3,0-4.4,0.9-5.9,2.6
		c-0.8,0.8-1.3,1.8-1.7,2.9c-0.4,1.2-0.7,2.4-0.7,3.6c0,1.2,0.2,2.4,0.7,3.6c0.4,1.1,1,2.1,1.8,3c0.7,0.8,1.6,1.5,2.7,2
		s2.1,0.7,3.3,0.7c0.7,0,1.5-0.1,2.2-0.3c0.7-0.2,1.3-0.5,2-0.8c0.6-0.3,1.1-0.8,1.6-1.2c0.4-0.4,0.8-0.9,1-1.5l4.2,1.2
		c-0.4,0.9-0.9,1.7-1.6,2.5c-0.7,0.8-1.5,1.4-2.4,1.9c-1,0.6-2,1-3.1,1.3c-1.2,0.3-2.4,0.5-3.7,0.5c-3.5,0.1-6.9-1.3-9.3-3.8
		c-1.2-1.2-2-2.5-2.6-4.1C96.4,72.9,96.1,71.2,96.1,69.5z"/>
	<path class="st12" d="M140.4,81.9l-8.7-12l-4.8,4.4v7.6h-4.2V47.5h4.2v22.6l12.9-12.8h4.7l-10.1,10.2L145,81.9H140.4z"/>
	<path class="st0" d="M159.7,82.3c-1.9,0-3.7-0.5-5.4-1.4c-1.6-0.9-2.9-2.2-3.8-3.7v4.6h-3.8V47.5h4.3v14.7c1-1.5,2.3-2.9,3.9-3.9
		c3.1-1.8,6.9-1.9,10.1-0.4c1.4,0.7,2.6,1.7,3.6,2.8c1,1.2,1.8,2.6,2.3,4.1c0.5,1.6,0.8,3.2,0.8,4.8c0,1.7-0.3,3.3-0.9,4.9
		c-0.6,1.5-1.4,2.8-2.5,4.1c-1.1,1.1-2.4,2.1-3.8,2.7C162.9,82,161.3,82.3,159.7,82.3z M158.6,78.8c1.2,0,2.4-0.2,3.5-0.8
		c1.1-0.5,2-1.2,2.8-2c0.8-0.8,1.4-1.8,1.8-2.9c0.4-1.1,0.6-2.3,0.6-3.4s-0.2-2.3-0.6-3.4c-0.4-1.1-1-2.1-1.7-3
		c-0.7-0.8-1.6-1.5-2.6-2.1s-2.2-0.8-3.4-0.8c-0.9,0-1.7,0.1-2.6,0.5c-0.8,0.3-1.6,0.8-2.2,1.2c-0.7,0.5-1.3,1.1-1.8,1.8
		c-0.5,0.7-1,1.4-1.4,2.2v7.1c0.1,0.8,0.5,1.6,1,2.2c0.5,0.7,1.2,1.2,1.9,1.7c0.7,0.5,1.5,0.8,2.3,1.2
		C157,78.6,157.8,78.8,158.6,78.8z"/>
	<path class="st0" d="M182.7,82.3c-2.7,0-4.6-0.8-6-2.6s-2-4.3-2-7.7V57.3h4.2v13.9c0,5,1.8,7.5,5.4,7.5c1.7,0,3.5-0.6,4.9-1.6
		c1.6-1.1,2.8-2.7,3.4-4.5V57.3h4.2v19.5c0,1,0.4,1.5,1.4,1.5v3.6c-0.5,0.1-0.9,0.1-1.2,0.1c-0.3,0.1-0.5,0-0.8,0
		c-0.8,0-1.5-0.2-2.1-0.8c-0.5-0.5-0.9-1.1-0.9-1.8l-0.1-2.9c-1.1,1.8-2.6,3.2-4.4,4.2C186.9,81.8,184.8,82.3,182.7,82.3z"/>
	<path class="st0" d="M215.1,80.6c-0.2,0.1-0.6,0.3-1,0.4c-0.4,0.1-0.9,0.3-1.4,0.5c-0.6,0.2-1.2,0.3-1.7,0.4
		c-0.6,0.1-1.3,0.2-1.9,0.1c-1.4,0.1-2.9-0.4-4-1.3c-1.1-0.8-1.7-2.1-1.7-3.9V60.5h-3.4v-3.2h3.4v-8.2h4.2v8.2h5.6v3.2h-5.6v15.3
		c0,0.8,0.3,1.5,0.9,2c0.5,0.4,1.3,0.6,1.9,0.6c0.8,0,1.6-0.1,2.3-0.4c0.5-0.2,1-0.4,1.4-0.6L215.1,80.6z"/>
	<path class="st0" d="M217.1,52.7v-5.2h4.2v5.2H217.1z M217.1,81.9V57.3h4.2v24.6H217.1z"/>
	<path class="st0" d="M244.1,81.9l-8.7-12l-4.8,4.4v7.6h-4.2V47.5h4.2v22.6l12.9-12.8h4.7l-10.1,10.2l10.5,14.4L244.1,81.9
		L244.1,81.9z"/>
</g>
</svg>
