<?xml version="1.0" encoding="utf-8"?>
<!-- Generator: Adobe Illustrator 25.2.0, SVG Export Plug-In . SVG Version: 6.00 Build 0)  -->
<svg version="1.1" id="Layer_1" xmlns="http://www.w3.org/2000/svg" xmlns:xlink="http://www.w3.org/1999/xlink" x="0px" y="0px"
	 viewBox="0 0 1440.4 970.1" style="enable-background:new 0 0 1440.4 970.1;" xml:space="preserve">
<style type="text/css">
	.st0{opacity:0.24;fill:#69A1DA;enable-background:new    ;}
	.st1{opacity:0.24;fill:#20D287;enable-background:new    ;}
	.st2{fill:#362F4A;}
	.st3{fill:#302b40;}
	.st4{fill:#69A1DA;}
	.st5{fill:#626D7B;}
	.st6{fill:#FFFFFF;}
	.st7{fill:#EAEAEA;}
	.st8{fill:none;stroke:#302b40;stroke-miterlimit:10;}
	.st9{fill:none;stroke:#EAEAEA;stroke-miterlimit:10;}
	.st10{fill:none;stroke:#6154F9;stroke-width:4;stroke-linecap:round;stroke-linejoin:round;stroke-miterlimit:10;}
	.st11{fill:none;stroke:#20D287;stroke-width:4;stroke-linecap:round;stroke-linejoin:round;stroke-miterlimit:10;}
	.st12{fill-rule:evenodd;clip-rule:evenodd;fill:#69A1DA;}
	.st13{fill-rule:evenodd;clip-rule:evenodd;fill:#20D287;}
	.st14{fill:none;stroke:#EFEFEF;stroke-miterlimit:10;}
	.st15{fill:#6154F9;}
	.st16{fill:none;stroke:#6154F9;stroke-linecap:round;stroke-linejoin:round;stroke-miterlimit:10;}
	.st17{fill:none;stroke:#20D287;stroke-linecap:round;stroke-linejoin:round;stroke-miterlimit:10;}
	
		.st18{fill-rule:evenodd;clip-rule:evenodd;fill:#FFFFFF;stroke:#69A1DA;stroke-width:2;stroke-linecap:round;stroke-linejoin:round;stroke-miterlimit:10;}
	
		.st19{fill-rule:evenodd;clip-rule:evenodd;fill:#FFFFFF;stroke:#6AD8B9;stroke-width:2;stroke-linecap:round;stroke-linejoin:round;stroke-miterlimit:10;}
	.st20{clip-path:url(#SVGID_1_);}
</style>
<path class="st0" d="M388.9,702.3c22.3-71.9,57.7-155.7,107.7-159c47-3.2,69.8,67.2,114.5,60.2c58.8-9.3,59.9-137.5,146.3-166.3
	c21.1-7,40.5-5.9,52.7-4.2v269.4L388.9,702.3L388.9,702.3z"/>
<path class="st1" d="M926.1,637.1c16.7-22.5,44.4-51.8,82.3-56c45.6-5.1,64.1,30.9,96.1,22c56-15.5,46.3-138.8,99.1-150.1
	c29.3-6.3,47.4,28.5,87.1,21c25.6-4.8,43.9-24.1,55.9-41v269.4H926.1V637.1z"/>
<rect class="st2" width="274.3" height="970.1"/>
<rect y="226.9" class="st3" width="274.3" height="64"/>
<g>
	<path class="st4" d="M245.6,249.2c7.5,0,13.5,6,13.5,13.5c0,2.5-0.7,4.8-1.8,6.8c-0.3,0.5-0.8,0.7-1.3,0.7h-20.8
		c-0.5,0-1-0.3-1.3-0.7c-1.2-2-1.8-4.3-1.8-6.8C232.1,255.2,238.2,249.2,245.6,249.2z M235.7,267.9h19.9c0.9-1.6,1.3-3.4,1.3-5.2
		c0-6.2-5.1-11.2-11.2-11.2s-11.2,5-11.2,11.2C234.4,264.5,234.8,266.3,235.7,267.9z M239.6,262.7c0,0.8-0.7,1.5-1.5,1.5
		s-1.5-0.7-1.5-1.5s0.7-1.5,1.5-1.5S239.6,261.9,239.6,262.7z M238.9,257.4c0-0.8,0.7-1.5,1.5-1.5s1.5,0.7,1.5,1.5s-0.7,1.5-1.5,1.5
		S238.9,258.3,238.9,257.4z M245.6,261.2c0.3,0,0.6,0,0.8,0.1l3.6-4.6c0.4-0.5,1.1-0.6,1.6-0.2s0.6,1.1,0.2,1.6l-3.6,4.6
		c0.3,0.4,0.4,1,0.4,1.5s-0.2,1.1-0.4,1.5H243c-0.3-0.4-0.4-1-0.4-1.5C242.6,262.5,244,261.2,245.6,261.2z M245.6,256.7
		c-0.8,0-1.5-0.7-1.5-1.5s0.7-1.5,1.5-1.5s1.5,0.7,1.5,1.5C247.1,256,246.5,256.7,245.6,256.7z M253.1,261.2c0.8,0,1.5,0.7,1.5,1.5
		s-0.7,1.5-1.5,1.5s-1.5-0.7-1.5-1.5S252.3,261.2,253.1,261.2z"/>
</g>
<g>
	<path class="st5" d="M257.7,315.9l-2.1,9.8c-0.1,0.5-0.6,0.9-1.1,0.9h-14.6l0.4,2.2h13.2c0.7,0,1.2,0.7,1.1,1.4l-0.1,0.2
		c0.6,0.5,0.9,1.3,0.9,2.2c0,1.7-1.3,3-3,3s-3-1.3-3-3l0,0c0-0.4,0.2-1.1,0.4-1.5H243c0.2,0.4,0.4,1,0.4,1.5l0,0c0,1.7-1.3,3-3,3
		s-3-1.3-3-3c0-0.8,0.3-1.5,0.8-2.1l-3.3-16.7h-3.8c-0.3,0-0.6-0.2-0.6-0.6v-1.1c0-0.3,0.2-0.6,0.6-0.6h4.7c0.5,0,1,0.4,1.1,0.9
		l0.4,2.1h19.1C257.3,314.5,257.9,315.2,257.7,315.9z M255.2,316.8h-17.3l1.5,7.5h14.2L255.2,316.8z M241.6,332.5
		c0-0.6-0.5-1.1-1.1-1.1s-1.1,0.5-1.1,1.1s0.5,1.1,1.1,1.1S241.6,333.2,241.6,332.5z M253.6,332.5c0-0.6-0.5-1.1-1.1-1.1
		s-1.1,0.5-1.1,1.1s0.5,1.1,1.1,1.1S253.6,333.2,253.6,332.5z"/>
</g>
<g>
	<g>
		<path class="st5" d="M236.3,389.4c-0.2-0.1-0.4-0.1-0.6-0.1h-1.1c-0.9,0-1.7,0.8-1.7,1.7c0,0.6-0.5,1.1-1.1,1.1s-1.1-0.5-1.1-1.1
			c0-2.2,1.8-3.9,3.9-3.9h1.1c0.8,0,1.6,0.2,2.2,0.7C237.3,388.2,236.7,388.7,236.3,389.4z M231.4,381.8c0-2.1,1.7-3.8,3.8-3.8
			s3.8,1.7,3.8,3.8s-1.7,3.8-3.8,3.8S231.4,383.9,231.4,381.8z M233.6,381.8c0,0.8,0.7,1.5,1.5,1.5s1.5-0.7,1.5-1.5
			s-0.7-1.5-1.5-1.5S233.6,381,233.6,381.8z M254.6,393.2v2.1c0,1.2-1,2.2-2.2,2.2h-13.5c-1.2,0-2.2-1-2.2-2.2v-2.1
			c0-1.1,0.3-2.1,0.9-3c1.3-1.9,3.8-2.6,6-2c0.7,0.2,1.4,0.3,2.1,0.3c0.7,0,1.4-0.1,2.1-0.3c2.2-0.7,4.7,0,6,2
			C254.3,391,254.6,392.1,254.6,393.2z M252.4,393.2c0-1.7-1.4-3.1-3.1-3.1c-1.2,0.5-2.4,0.8-3.7,0.8s-2.5-0.2-3.7-0.8
			c-1.7,0-3.1,1.4-3.1,3.1v2.1h13.5v-2.1H252.4z M240.4,381.8c0-2.9,2.4-5.2,5.2-5.2s5.2,2.4,5.2,5.2s-2.4,5.2-5.2,5.2
			S240.4,384.7,240.4,381.8z M242.6,381.8c0,1.6,1.4,3,3,3s3-1.4,3-3s-1.4-3-3-3S242.6,380.1,242.6,381.8z M252.4,381.8
			c0-2.1,1.7-3.8,3.8-3.8c2.1,0,3.8,1.7,3.8,3.8s-1.7,3.8-3.8,3.8S252.4,383.9,252.4,381.8z M260.6,391c0,0.6-0.5,1.1-1.1,1.1
			s-1.1-0.5-1.1-1.1c0-0.9-0.8-1.7-1.7-1.7h-1.1c-0.2,0-0.4,0-0.6,0.1c-0.4-0.7-1-1.2-1.6-1.7c0.6-0.4,1.4-0.7,2.2-0.7h1.1
			C258.9,387,260.6,388.8,260.6,391z M254.6,381.8c0,0.8,0.7,1.5,1.5,1.5c0.8,0,1.5-0.7,1.5-1.5s-0.7-1.5-1.5-1.5
			S254.6,381,254.6,381.8z"/>
	</g>
</g>
<g>
	<path class="st5" d="M244.9,441.2l9.8,3.7c0.9,0.3,1.5,1.2,1.5,2.1v10.5c0,0.9-0.5,1.6-1.2,2l-9.8,4.9c-0.6,0.3-1.4,0.3-2,0
		l-9.8-4.9c-0.8-0.4-1.2-1.2-1.2-2V447c0-0.9,0.6-1.8,1.5-2.1l9.8-3.7C243.9,441,244.4,441,244.9,441.2z M234.4,447L234.4,447l9.8,4
		l9.8-4l0,0l-9.8-3.7L234.4,447z M234.4,457.5l8.6,4.3v-8.9l-8.6-3.5V457.5z M253.9,457.5v-8.1l-8.6,3.5v8.9L253.9,457.5z"/>
</g>
<g>
	<path class="st5" d="M256.9,516H252v3.4h2.6c0.8,0,1.5,0.7,1.5,1.5v4.5c0,0.8-0.7,1.5-1.5,1.5h-7.5c-0.8,0-1.5-0.7-1.5-1.5v-4.5
		c0-0.8,0.7-1.5,1.5-1.5h2.6V516h-14.2v3.4h2.6c0.8,0,1.5,0.7,1.5,1.5v4.5c0,0.8-0.7,1.5-1.5,1.5h-7.5c-0.8,0-1.5-0.7-1.5-1.5v-4.5
		c0-0.8,0.7-1.5,1.5-1.5h2.6V516h-4.9c-0.4,0-0.8-0.3-0.8-0.8v-0.8c0-0.4,0.3-0.8,0.8-0.8h13.1v-3.4H238c-0.8,0-1.5-0.7-1.5-1.5
		v-4.5c0-0.8,0.7-1.5,1.5-1.5h9c0.8,0,1.5,0.7,1.5,1.5v4.5c0,0.8-0.7,1.5-1.5,1.5h-3.4v3.4h13.1c0.4,0,0.8,0.3,0.8,0.8v0.8
		C257.6,515.6,257.3,516,256.9,516z M231.4,521.6v3h6v-3H231.4z M238.9,508.1h7.5v-3h-7.5V508.1z M247.9,521.6v3h6v-3H247.9z"/>
</g>
<g>
	<path class="st5" d="M257.3,569.1v15c0,1.2-1,2.2-2.2,2.2h-2.2v2.2c0,1.2-1,2.2-2.2,2.2h-15c-1.2,0-2.2-1-2.2-2.2v-15
		c0-1.2,1-2.2,2.2-2.2h2.2v-2.2c0-1.2,1-2.2,2.2-2.2h15C256.2,566.8,257.3,567.8,257.3,569.1z M250.5,578.8h-15v9.8h15V578.8z
		 M255,569.1h-15v2.2h10.5c1.2,0,2.2,1,2.2,2.2V584h2.2v-14.9H255z"/>
</g>
<g>
	<path class="st5" d="M253.2,652.6c0,1.2-1,2.2-2.2,2.2h-13.5c-1.2,0-2.2-1-2.2-2.2v-19.5c0-1.2,1-2.2,2.2-2.2h9.6
		c0.6,0,1.2,0.2,1.6,0.7l3.9,3.9c0.4,0.4,0.7,1,0.7,1.6L253.2,652.6L253.2,652.6z M251,639.1h-4.9c-0.6,0-1.1-0.5-1.1-1.1v-4.9h-7.5
		v19.5H251V639.1L251,639.1z M248.7,643.8c0,0.3-0.2,0.6-0.6,0.6h-7.9c-0.3,0-0.6-0.2-0.6-0.6v-1.3c0-0.3,0.2-0.6,0.6-0.6h7.9
		c0.3,0,0.6,0.2,0.6,0.6V643.8z M248.7,646.4v1.3c0,0.3-0.2,0.6-0.6,0.6h-7.9c-0.3,0-0.6-0.2-0.6-0.6v-1.3c0-0.3,0.2-0.6,0.6-0.6
		h7.9C248.5,645.8,248.7,646.1,248.7,646.4z M247.2,636.8h3.6l-3.6-3.6V636.8z"/>
</g>
<g>
	<path class="st5" d="M256.5,703.8c0,0.2-0.1,0.5-0.2,0.7c-2.5,5-7.6,8.3-13.3,8.3s-10.8-3.4-13.3-8.3c-0.1-0.2-0.2-0.5-0.2-0.7
		s0.1-0.5,0.2-0.7c2.5-5,7.6-8.3,13.3-8.3s10.8,3.4,13.3,8.3C256.4,703.3,256.5,703.7,256.5,703.8z M254.2,703.8
		c-2.3-4.2-6.5-6.8-11.1-6.8s-8.9,2.6-11.1,6.8c2.3,4.2,6.5,6.8,11.1,6.8S251.9,708,254.2,703.8z M243,698.6c2.9,0,5.2,2.3,5.2,5.2
		s-2.4,5.2-5.2,5.2s-5.2-2.3-5.2-5.2c0-0.4,0.1-1.1,0.2-1.5c0.3,0.2,0.9,0.3,1.3,0.3c1.4,0,2.6-1.2,2.6-2.6c0-0.4-0.1-0.9-0.3-1.3
		C242,698.7,242.6,698.6,243,698.6L243,698.6z"/>
</g>
<g>
	<path class="st5" d="M255.1,768.4v1.1c0,0.3-0.2,0.6-0.6,0.6h-0.9l-1.3,9.3c-0.1,1.1-1.1,1.9-2.2,1.9H233c-1.1,0-2.1-0.8-2.2-1.9
		l-1.3-9.3h-0.9c-0.3,0-0.6-0.2-0.6-0.6v-1.1c0-0.3,0.2-0.6,0.6-0.6h3.4l6-7.1c0.4-0.5,1.1-0.5,1.6-0.1s0.5,1.1,0.1,1.6l-4.8,5.7
		H248l-4.8-5.7c-0.4-0.5-0.4-1.2,0.1-1.6c0.5-0.4,1.2-0.3,1.6,0.1l6,7.1h3.4C254.9,767.8,255.1,768.1,255.1,768.4z M251.4,770.1
		h-19.6l1.2,9h17.1L251.4,770.1z M237.5,776.5c0,0.6-0.5,1.1-1.1,1.1s-1.1-0.5-1.1-1.1v-3.8c0-0.6,0.5-1.1,1.1-1.1s1.1,0.5,1.1,1.1
		V776.5z M242.7,776.5c0,0.6-0.5,1.1-1.1,1.1s-1.1-0.5-1.1-1.1v-3.8c0-0.6,0.5-1.1,1.1-1.1s1.1,0.5,1.1,1.1V776.5z M248,776.5
		c0,0.6-0.5,1.1-1.1,1.1s-1.1-0.5-1.1-1.1v-3.8c0-0.6,0.5-1.1,1.1-1.1s1.1,0.5,1.1,1.1V776.5z"/>
</g>
<g>
	<path class="st5" d="M252.1,845.7v1.6c0,0.6-0.5,1.1-1.1,1.1s-1.1-0.5-1.1-1.1v-1.6c0-2.2-1.8-4-4.1-4h-0.6
		c-1.1,0.5-2.3,0.8-3.6,0.8s-2.5-0.3-3.6-0.8h-0.6c-2.2,0-4.1,1.8-4.1,4v1.6c0,0.6-0.5,1.1-1.1,1.1s-1.1-0.5-1.1-1.1v-1.6
		c0-2.7,1.8-5,4.2-5.9c-1-1-1.7-2.1-2.2-3.4h-0.5c-0.4,0-0.8-0.3-0.8-0.8v-4.5c0-0.4,0.3-0.8,0.8-0.8h0.5c1.2-3.5,4.6-6,8.5-6
		s7.2,2.5,8.5,6h0.5c0.4,0,0.8,0.3,0.8,0.8v4.5c0,0.4-0.3,0.8-0.8,0.8H250c-0.5,1.3-1.2,2.5-2.2,3.4
		C250.3,840.7,252.1,843,252.1,845.7z M248.3,833.4c0-3.7-3-6.8-6.8-6.8s-6.8,3-6.8,6.8s3,6.8,6.8,6.8S248.3,837.1,248.3,833.4z
		 M246.8,832.6v0.8c0,2.5-2,4.5-4.5,4.5h-1.5c-2.5,0-4.5-2-4.5-4.5v-0.8c0-1.2,1-2.2,2.2-2.2h6C245.8,830.4,246.8,831.4,246.8,832.6
		z M246.8,845.4v3H240v-2.2c0-0.4-0.3-0.8-0.8-0.8s-0.8,0.3-0.8,0.8v2.2h-2.2v-3c0-0.8,0.7-1.5,1.5-1.5h7.5
		C246.1,843.9,246.8,844.6,246.8,845.4z M242.3,834.1l-1.7-0.6l-0.6-1.7l-0.6,1.7l-1.7,0.6l1.7,0.6l0.6,1.7l0.6-1.7L242.3,834.1z
		 M244.6,846.1c0-0.4-0.3-0.8-0.8-0.8s-0.8,0.3-0.8,0.8s0.3,0.8,0.8,0.8S244.6,846.5,244.6,846.1z"/>
</g>
<g>
	<path class="st6" d="M31.1,182.9c0.3,0,0.6,0.2,0.6,0.6v1.1c0,0.3-0.2,0.6-0.6,0.6h-3.9c-1.2,0-2.2,1-2.2,2.2v9
		c0,1.2,1,2.2,2.2,2.2h3.9c0.3,0,0.6,0.2,0.6,0.6v1.1c0,0.3-0.2,0.6-0.6,0.6h-3.9c-2.5,0-4.5-2-4.5-4.5v-9c0-2.5,2-4.5,4.5-4.5
		L31.1,182.9L31.1,182.9z M38.8,183.8l7.7,7.7c0.2,0.2,0.2,0.6,0,0.8l-7.7,7.7c-0.2,0.2-0.6,0.2-0.8,0l-0.9-0.9
		c-0.2-0.2-0.2-0.6,0-0.8l5.3-5.1H30.7c-0.3,0-0.6-0.2-0.6-0.6v-1.3c0-0.3,0.2-0.6,0.6-0.6h11.7l-5.3-5.1c-0.2-0.2-0.2-0.6,0-0.8
		l0.9-0.9C38.2,183.6,38.6,183.6,38.8,183.8z"/>
</g>
<g>
	<path class="st6" d="M98.7,191.9c0,6.4-5.2,11.6-11.6,11.6s-11.6-5.2-11.6-11.6c0-6.4,5.2-11.6,11.6-11.6S98.7,185.4,98.7,191.9z
		 M96.4,191.9c0-5.2-4.2-9.4-9.4-9.4s-9.4,4.2-9.4,9.4s4.2,9.4,9.4,9.4C92.2,201.2,96.4,197,96.4,191.9z M88.7,193.6v0.3
		c0,0.3-0.2,0.6-0.6,0.6H86c-0.3,0-0.6-0.2-0.6-0.6v-0.4c0-1.7,1.3-2.3,2.2-2.9c0.8-0.5,1.3-0.8,1.3-1.4c0-0.8-1-1.3-1.9-1.3
		c-1.1,0-1.6,0.5-2.3,1.4c-0.2,0.2-0.5,0.3-0.8,0.1l-1.3-1c-0.2-0.2-0.3-0.5-0.1-0.8c1.1-1.6,2.5-2.5,4.7-2.5c2.3,0,4.8,1.8,4.8,4.2
		C92.1,192.4,88.7,192.5,88.7,193.6z M87,199.1c-1.1,0-2-0.9-2-2s0.9-2,2-2s2,0.9,2,2S88.1,199.1,87,199.1z"/>
</g>
<g>
	<path class="st6" d="M142.7,203.9h-16c-1.2,0-2.2-1-2.2-2.2v-1.2c0-3.5,2.8-6.3,6.3-6.3c1.4,0,2,0.8,4.2,0.8c2.1,0,2.7-0.7,4-0.7
		c-0.3,1.1-0.3,2-0.3,2.3c-0.5,0.1-1.8,0.7-3.8,0.7c-2.4,0-3.5-0.8-4.2-0.8c-2.2,0-4.1,1.8-4.1,4.1v1.2h13.7
		C141,202.5,141.8,203.2,142.7,203.9z M128.2,186.6c0-3.7,3-6.8,6.8-6.8s6.8,3,6.8,6.8s-3,6.8-6.8,6.8S128.2,190.3,128.2,186.6z
		 M130.4,186.6c0,2.5,2,4.5,4.5,4.5s4.5-2,4.5-4.5s-2-4.5-4.5-4.5S130.4,184.1,130.4,186.6z M154.3,198.1c0.1,0.1,0.2,0.2,0.1,0.4
		c-0.3,1-0.9,1.9-1.6,2.7c-0.1,0.1-0.3,0.1-0.4,0.1l-1.2-0.7c-0.5,0.4-1.1,0.8-1.7,1v1.4c0,0.2-0.1,0.3-0.3,0.3
		c-1,0.2-2.1,0.2-3.1,0c-0.1,0-0.3-0.2-0.3-0.3v-1.4c-0.6-0.2-1.2-0.6-1.7-1l-1.2,0.7c-0.1,0.1-0.3,0.1-0.4-0.1
		c-0.7-0.8-1.2-1.7-1.6-2.7c-0.1-0.2,0-0.3,0.1-0.4l1.2-0.7c-0.1-0.7-0.1-1.3,0-2l-1.2-0.7c-0.1-0.1-0.2-0.2-0.1-0.4
		c0.3-1,0.9-1.9,1.6-2.7c0.1-0.1,0.3-0.1,0.4-0.1l1.2,0.7c0.5-0.4,1.1-0.8,1.7-1v-1.4c0-0.2,0.1-0.3,0.3-0.3c1-0.2,2.1-0.2,3.1,0
		c0.1,0,0.3,0.2,0.3,0.3v1.4c0.6,0.2,1.2,0.6,1.7,1l1.2-0.7c0.1-0.1,0.3-0.1,0.4,0.1c0.7,0.8,1.2,1.7,1.6,2.7c0.1,0.2,0,0.3-0.1,0.4
		l-1.2,0.7c0.1,0.7,0.1,1.3,0,2L154.3,198.1z M150,196.4c0-1.2-1-2.3-2.3-2.3s-2.3,1-2.3,2.3s1,2.3,2.3,2.3S150,197.6,150,196.4z"/>
</g>
<g>
	<path class="st6" d="M205.3,191.1c0,1.1-0.6,2.1-1.5,2.6v7.2c0,0.4-0.3,1.5-1.5,1.5c-0.3,0-0.7-0.1-0.9-0.3l-4-3.2
		c-2-1.6-4.5-2.5-7.1-2.5H189c-0.1,0.5-0.2,1-0.2,1.5c0,1.4,0.5,2.6,1.2,3.6s0,2.4-1.2,2.4h-5c-0.6,0-1.1-0.3-1.3-0.8
		c-0.8-1.6-1.2-3.3-1.2-5.2v-1.5c-1.7,0-3-1.3-3-3v-4.5c0-1.7,1.3-3,3-3h9c2.6,0,5.1-0.9,7.1-2.5l4-3.2c0.3-0.2,0.6-0.3,0.9-0.3l0,0
		c1.2,0,1.5,1.1,1.5,1.5v7.2C204.7,189,205.3,190,205.3,191.1z M189.6,188.1h-8.2c-0.4,0-0.8,0.3-0.8,0.8v4.5c0,0.4,0.3,0.8,0.8,0.8
		h8.2V188.1z M187.5,201.6c-0.6-1.1-0.9-2.4-0.9-3.8c0-0.5,0.1-1,0.2-1.5h-3c0,0.3-0.1,0.8-0.1,1.5c0,1.3,0.3,2.6,0.8,3.8H187.5z
		 M201.6,182.9l-2.8,2.2c-2,1.6-4.4,2.6-7,2.9v6.2c2.5,0.3,5,1.3,7,2.9l2.8,2.2V182.9z"/>
</g>
<g>
	<path class="st6" d="M256.2,191.6v10.7c0,0.9-0.7,1.6-1.5,1.6h-21c-0.8,0-1.5-0.7-1.5-1.6v-10.7c-2.2-0.9-3.2-3.9-1.8-6.1l3-4.9
		c0.3-0.4,0.8-0.7,1.3-0.7h18.9c0.5,0,1,0.3,1.3,0.7l3,4.9C259.4,187.6,258.5,190.6,256.2,191.6z M256.1,186.6l-2.8-4.5h-18.1
		l-2.8,4.5c-0.4,0.7-0.3,1.5-0.1,2c0.1,0.3,0.5,0.9,1.3,1c0.1,0,0.2,0,0.3,0c0.7,0,1.3-0.3,1.8-0.8l1.7-1.9l1.7,1.9
		c0.5,0.5,1.1,0.8,1.8,0.8s1.3-0.3,1.8-0.8l1.7-1.9l1.7,1.9c0.5,0.5,1.1,0.8,1.8,0.8s1.3-0.3,1.8-0.8l1.7-1.9l1.7,1.9
		c0.5,0.5,1.1,0.8,1.8,0.8c0.1,0,0.2,0,0.3,0c0.8-0.1,1.1-0.7,1.3-1C256.5,188.1,256.5,187.3,256.1,186.6z M254,191.8
		c-1.1-0.2-2.1-0.7-2.8-1.5c-0.8,0.9-2.1,1.6-3.5,1.6s-2.6-0.6-3.5-1.6c-0.8,0.9-2.1,1.6-3.5,1.6s-2.6-0.6-3.5-1.6
		c-0.7,0.8-1.7,1.4-2.8,1.5v3H254V191.8L254,191.8z M254,197.1h-19.5v4.5H254V197.1z"/>
</g>
<g>
	<g>
		<path class="st7" d="M390.8,805.5l-3.9,3.9c-0.4,0.4-1.1,0.7-1.6,0.7h-12.6c-1.2,0-2.2-1-2.2-2.2v-16.5c0-1.2,1-2.2,2.2-2.2h16.5
			c1.2,0,2.2,1,2.2,2.2V804C391.5,804.5,391.2,805.2,390.8,805.5z M372.7,791.4v16.5h10.5V803c0-0.6,0.5-1.1,1.1-1.1h4.9v-10.5
			H372.7L372.7,791.4z M389,804.1h-3.6v3.6L389,804.1z"/>
	</g>
</g>
<g>
	<g>
		<path class="st7" d="M1250,317.3v0.8c0,0.4-0.3,0.8-0.8,0.8h-21.8c-0.8,0-1.5-0.7-1.5-1.5v-15.8c0-0.4,0.3-0.8,0.8-0.8h0.8
			c0.4,0,0.8,0.3,0.8,0.8v15h21C1249.7,316.5,1250,316.9,1250,317.3z M1230.5,313.7v-3.3c0-0.3,0.3-0.6,0.6-0.6h1.1
			c0.3,0,0.6,0.3,0.6,0.6v3.3c0,0.3-0.3,0.6-0.6,0.6h-1.1C1230.8,314.3,1230.5,314,1230.5,313.7z M1235,313.7v-9.3
			c0-0.3,0.3-0.6,0.6-0.6h1.1c0.3,0,0.6,0.3,0.6,0.6v9.3c0,0.3-0.3,0.6-0.6,0.6h-1.1C1235.3,314.3,1235,314,1235,313.7z
			 M1239.5,313.7v-6.3c0-0.3,0.3-0.6,0.6-0.6h1.1c0.3,0,0.6,0.3,0.6,0.6v6.3c0,0.3-0.3,0.6-0.6,0.6h-1.1
			C1239.8,314.3,1239.5,314,1239.5,313.7z M1244,313.7v-10.8c0-0.3,0.3-0.6,0.6-0.6h1.1c0.3,0,0.6,0.3,0.6,0.6v10.8
			c0,0.3-0.3,0.6-0.6,0.6h-1.1C1244.3,314.3,1244,314,1244,313.7z"/>
	</g>
</g>
<line class="st8" x1="0" y1="162.9" x2="274.3" y2="162.9"/>
<line class="st8" x1="0" y1="226.9" x2="274.3" y2="226.9"/>
<line class="st8" x1="0" y1="290.9" x2="274.3" y2="290.9"/>
<line class="st8" x1="0" y1="354.9" x2="274.3" y2="354.9"/>
<line class="st8" x1="0" y1="418.9" x2="274.3" y2="418.9"/>
<line class="st8" x1="0" y1="482.9" x2="274.3" y2="482.9"/>
<line class="st8" x1="0" y1="546.8" x2="274.3" y2="546.8"/>
<line class="st8" x1="0" y1="610.8" x2="274.3" y2="610.8"/>
<line class="st8" x1="0" y1="674.8" x2="274.3" y2="674.8"/>
<line class="st8" x1="0" y1="738.8" x2="274.3" y2="738.8"/>
<line class="st8" x1="0" y1="802.8" x2="274.3" y2="802.8"/>
<line class="st8" x1="0" y1="867" x2="274.3" y2="867"/>
<line class="st8" x1="0" y1="931.1" x2="274.3" y2="931.1"/>
<path class="st5" d="M150.2,271.6H32.3c-5.6,0-10.1-4.5-10.1-10.1l0,0c0-5.6,4.5-10.1,10.1-10.1h117.9c5.6,0,10.1,4.5,10.1,10.1l0,0
	C160.2,267.1,155.7,271.6,150.2,271.6z"/>
<path class="st5" d="M195.4,135.4H77.5c-5.6,0-10.1-4.5-10.1-10.1l0,0c0-5.6,4.5-10.1,10.1-10.1h117.9c5.6,0,10.1,4.5,10.1,10.1l0,0
	C205.5,130.9,200.9,135.4,195.4,135.4z"/>
<path class="st5" d="M135.3,334.4h-103c-5.6,0-10.1-4.5-10.1-10.1l0,0c0-5.6,4.5-10.1,10.1-10.1h103.1c5.6,0,10.1,4.5,10.1,10.1l0,0
	C145.4,329.9,140.9,334.4,135.3,334.4z"/>
<path class="st5" d="M144.4,398H32.3c-5.6,0-10.1-4.5-10.1-10.1l0,0c0-5.6,4.5-10.1,10.1-10.1h112.2c5.6,0,10.1,4.5,10.1,10.1l0,0
	C154.5,393.5,150,398,144.4,398z"/>
<path class="st5" d="M132.2,462.9h-100c-5.6,0-10.1-4.5-10.1-10.1l0,0c0-5.6,4.5-10.1,10.1-10.1h100c5.6,0,10.1,4.5,10.1,10.1l0,0
	C142.3,458.4,137.8,462.9,132.2,462.9z"/>
<path class="st5" d="M132.2,652.9h-100c-5.6,0-10.1-4.5-10.1-10.1l0,0c0-5.6,4.5-10.1,10.1-10.1h100c5.6,0,10.1,4.5,10.1,10.1l0,0
	C142.3,648.4,137.8,652.9,132.2,652.9z"/>
<path class="st5" d="M144.4,526.8H32.3c-5.6,0-10.1-4.5-10.1-10.1l0,0c0-5.6,4.5-10.1,10.1-10.1h112.2c5.6,0,10.1,4.5,10.1,10.1l0,0
	C154.5,522.2,150,526.8,144.4,526.8z"/>
<path class="st5" d="M158.6,588.9H32.3c-5.6,0-10.1-4.5-10.1-10.1l0,0c0-5.6,4.5-10.1,10.1-10.1h126.4c5.6,0,10.1,4.5,10.1,10.1l0,0
	C168.7,584.4,164.2,588.9,158.6,588.9z"/>
<path class="st7" d="M414.7,734.3h-50.5c-3.8,0-6.9-3.1-6.9-6.9l0,0c0-3.8,3.1-6.9,6.9-6.9h50.5c3.8,0,6.9,3.1,6.9,6.9l0,0
	C421.6,731.2,418.5,734.3,414.7,734.3z"/>
<path class="st7" d="M553.8,847.5H374.4c-3.8,0-6.9-3.1-6.9-6.9l0,0c0-3.8,3.1-6.9,6.9-6.9h179.5c3.8,0,6.9,3.1,6.9,6.9l0,0
	C560.7,844.4,557.6,847.5,553.8,847.5z"/>
<path class="st7" d="M486.5,880.7H373c-3,0-5.5-2.5-5.5-5.5v-2.7c0-3,2.5-5.5,5.5-5.5h113.4c3,0,5.5,2.5,5.5,5.5v2.7
	C492,878.2,489.5,880.7,486.5,880.7z"/>
<path class="st7" d="M549.5,948.5H374.3c-3.8,0-6.8-3-6.8-6.8v-0.2c0-3.8,3-6.8,6.8-6.8h175.2c3.8,0,6.8,3,6.8,6.8v0.2
	C556.3,945.4,553.2,948.5,549.5,948.5z"/>
<path class="st7" d="M662.7,948.5h-96.9c-2.8,0-5.1-2.3-5.1-5.1v-3.5c0-2.8,2.3-5.1,5.1-5.1h96.9c2.8,0,5.1,2.3,5.1,5.1v3.5
	C667.8,946.2,665.6,948.5,662.7,948.5z"/>
<path class="st7" d="M750.1,912.8H636.7c-3,0-5.5-2.5-5.5-5.5v-2.7c0-3,2.5-5.5,5.5-5.5h113.4c3,0,5.5,2.5,5.5,5.5v2.7
	C755.6,910.4,753.2,912.8,750.1,912.8z"/>
<path class="st7" d="M615.6,912.8H374.4c-3.8,0-6.9-3.1-6.9-6.9l0,0c0-3.8,3.1-6.9,6.9-6.9h241.2c3.8,0,6.9,3.1,6.9,6.9l0,0
	C622.5,909.8,619.4,912.8,615.6,912.8z"/>
<path class="st7" d="M645.1,847.5h-65.7c-2.3,0-4.2-1.9-4.2-4.2V838c0-2.3,1.9-4.2,4.2-4.2h65.7c2.3,0,4.2,1.9,4.2,4.2v5.2
	C649.4,845.6,647.5,847.5,645.1,847.5z"/>
<path class="st7" d="M369.2,702.8h-5c-3.8,0-6.9-3.1-6.9-6.9l0,0c0-3.8,3.1-6.9,6.9-6.9h5c3.8,0,6.9,3.1,6.9,6.9l0,0
	C376.1,699.8,373,702.8,369.2,702.8z"/>
<path class="st7" d="M369.2,602.3h-5c-3.8,0-6.9-3.1-6.9-6.9l0,0c0-3.8,3.1-6.9,6.9-6.9h5c3.8,0,6.9,3.1,6.9,6.9l0,0
	C376.1,599.2,373,602.3,369.2,602.3z"/>
<path class="st7" d="M369.2,501.8h-5c-3.8,0-6.9-3.1-6.9-6.9l0,0c0-3.8,3.1-6.9,6.9-6.9h5c3.8,0,6.9,3.1,6.9,6.9l0,0
	C376.1,498.7,373,501.8,369.2,501.8z"/>
<path class="st7" d="M369.2,401.2h-5c-3.8,0-6.9-3.1-6.9-6.9l0,0c0-3.8,3.1-6.9,6.9-6.9h5c3.8,0,6.9,3.1,6.9,6.9l0,0
	C376.1,398.1,373,401.2,369.2,401.2z"/>
<path class="st7" d="M1273.9,124.2h-35.8c-3.8,0-6.9-3.1-6.9-6.9l0,0c0-3.8,3.1-6.9,6.9-6.9h35.8c3.8,0,6.9,3.1,6.9,6.9l0,0
	C1280.8,121.2,1277.7,124.2,1273.9,124.2z"/>
<path class="st0" d="M1318.6,124.2h-27.2c-3.4,0-6.1-2.7-6.1-6.1v-1.5c0-3.4,2.7-6.1,6.1-6.1h27.2c3.4,0,6.1,2.7,6.1,6.1v1.5
	C1324.8,121.5,1322,124.2,1318.6,124.2z"/>
<path class="st7" d="M1364.2,124.2H1337c-3.4,0-6.1-2.7-6.1-6.1v-1.5c0-3.4,2.7-6.1,6.1-6.1h27.2c3.4,0,6.1,2.7,6.1,6.1v1.5
	C1370.4,121.5,1367.6,124.2,1364.2,124.2z"/>
<path class="st7" d="M513.1,734.3h-50.5c-3.8,0-6.9-3.1-6.9-6.9l0,0c0-3.8,3.1-6.9,6.9-6.9h50.5c3.8,0,6.9,3.1,6.9,6.9l0,0
	C520,731.2,516.9,734.3,513.1,734.3z"/>
<path class="st7" d="M611.5,734.3H561c-3.8,0-6.9-3.1-6.9-6.9l0,0c0-3.8,3.1-6.9,6.9-6.9h50.5c3.8,0,6.9,3.1,6.9,6.9l0,0
	C618.3,731.2,615.2,734.3,611.5,734.3z"/>
<path class="st7" d="M709.8,734.3h-50.5c-3.8,0-6.9-3.1-6.9-6.9l0,0c0-3.8,3.1-6.9,6.9-6.9h50.5c3.8,0,6.9,3.1,6.9,6.9l0,0
	C716.7,731.2,713.6,734.3,709.8,734.3z"/>
<path class="st7" d="M808.2,734.3h-50.5c-3.8,0-6.9-3.1-6.9-6.9l0,0c0-3.8,3.1-6.9,6.9-6.9h50.5c3.8,0,6.9,3.1,6.9,6.9l0,0
	C815,731.2,811.9,734.3,808.2,734.3z"/>
<path class="st5" d="M132.2,716.9h-100c-5.6,0-10.1-4.5-10.1-10.1l0,0c0-5.6,4.5-10.1,10.1-10.1h100c5.6,0,10.1,4.5,10.1,10.1l0,0
	C142.3,712.4,137.8,716.9,132.2,716.9z"/>
<path class="st5" d="M132.2,844.9h-100c-5.6,0-10.1-4.5-10.1-10.1l0,0c0-5.6,4.5-10.1,10.1-10.1h100c5.6,0,10.1,4.5,10.1,10.1l0,0
	C142.3,840.4,137.8,844.9,132.2,844.9z"/>
<path class="st5" d="M104.1,910.6H31c-4.8,0-8.8-3.9-8.8-8.8v-2.6c0-4.8,3.9-8.8,8.8-8.8h73.2c4.8,0,8.8,3.9,8.8,8.8v2.6
	C112.9,906.7,109,910.6,104.1,910.6z"/>
<path class="st5" d="M149.1,780.9H32.3c-5.6,0-10.1-4.5-10.1-10.1l0,0c0-5.6,4.5-10.1,10.1-10.1h116.8c5.6,0,10.1,4.5,10.1,10.1l0,0
	C159.2,776.4,154.6,780.9,149.1,780.9z"/>
<path class="st9" d="M1369.9,265H354.5c-6.6,0-12-5.4-12-12V144.4c0-6.6,5.4-12,12-12H1370c6.6,0,12,5.4,12,12V253
	C1381.9,259.6,1376.6,265,1369.9,265z"/>
<path class="st9" d="M829.5,744h-475c-6.6,0-12-5.4-12-12V349.3c0-6.6,5.4-12,12-12h475c6.6,0,12,5.4,12,12V732
	C841.5,738.6,836.2,744,829.5,744z"/>
<path class="st9" d="M1368.7,956H355.9c-7.3,0-13.3-5.9-13.3-13.3V788.5c0-7.3,5.9-13.3,13.3-13.3h1012.8c7.3,0,13.3,5.9,13.3,13.3
	v154.2C1381.9,950,1376,956,1368.7,956z"/>
<path class="st9" d="M1369.9,744H884.8c-6.6,0-12-5.4-12-12V349.3c0-6.6,5.4-12,12-12h485.1c6.6,0,12,5.4,12,12V732
	C1381.9,738.6,1376.6,744,1369.9,744z"/>
<path class="st9" d="M1374.4,332.2h-167.9c-4.1,0-7.5-3.4-7.5-7.5v-31.3c0-4.1,3.3-7.5,7.5-7.5h167.9c4.1,0,7.5,3.4,7.5,7.5v31.3
	C1381.9,328.9,1378.6,332.2,1374.4,332.2z"/>
<line class="st9" x1="689" y1="132.5" x2="689" y2="265"/>
<line class="st9" x1="1035.5" y1="132.5" x2="1035.5" y2="265"/>
<line class="st9" x1="389.5" y1="394.4" x2="389.5" y2="702.3"/>
<line class="st9" x1="389.5" y1="702.3" x2="809.5" y2="702.3"/>
<path class="st10" d="M389.5,702.3c22.3-71.9,57.7-155.7,107.7-159c47-3.2,69.8,67.2,114.5,60.2c58.8-9.3,59.9-137.5,146.3-166.3
	c21.1-7,40.5-5.9,52.7-4.2"/>
<path class="st11" d="M926.1,637.1c16.7-22.5,44.4-51.8,82.3-56c45.6-5.1,64.1,30.9,96.1,22c56-15.5,46.3-138.8,99.1-150.1
	c29.3-6.3,47.4,28.5,87.1,21c25.6-4.8,43.9-24.1,55.9-41"/>
<path class="st7" d="M951.4,734.3h-50.5c-3.8,0-6.9-3.1-6.9-6.9l0,0c0-3.8,3.1-6.9,6.9-6.9h50.5c3.8,0,6.9,3.1,6.9,6.9l0,0
	C958.2,731.2,955.2,734.3,951.4,734.3z"/>
<path class="st7" d="M905.9,702.8h-5c-3.8,0-6.9-3.1-6.9-6.9l0,0c0-3.8,3.1-6.9,6.9-6.9h5c3.8,0,6.9,3.1,6.9,6.9l0,0
	C912.7,699.8,909.7,702.8,905.9,702.8z"/>
<path class="st7" d="M905.9,602.3h-5c-3.8,0-6.9-3.1-6.9-6.9l0,0c0-3.8,3.1-6.9,6.9-6.9h5c3.8,0,6.9,3.1,6.9,6.9l0,0
	C912.7,599.2,909.7,602.3,905.9,602.3z"/>
<path class="st7" d="M905.9,501.8h-5c-3.8,0-6.9-3.1-6.9-6.9l0,0c0-3.8,3.1-6.9,6.9-6.9h5c3.8,0,6.9,3.1,6.9,6.9l0,0
	C912.7,498.7,909.7,501.8,905.9,501.8z"/>
<path class="st7" d="M905.9,401.2h-5c-3.8,0-6.9-3.1-6.9-6.9l0,0c0-3.8,3.1-6.9,6.9-6.9h5c3.8,0,6.9,3.1,6.9,6.9l0,0
	C912.7,398.1,909.7,401.2,905.9,401.2z"/>
<path class="st7" d="M1049.7,734.3h-50.5c-3.8,0-6.9-3.1-6.9-6.9l0,0c0-3.8,3.1-6.9,6.9-6.9h50.5c3.8,0,6.9,3.1,6.9,6.9l0,0
	C1056.6,731.2,1053.5,734.3,1049.7,734.3z"/>
<path class="st7" d="M1148.1,734.3h-50.5c-3.8,0-6.9-3.1-6.9-6.9l0,0c0-3.8,3.1-6.9,6.9-6.9h50.5c3.8,0,6.9,3.1,6.9,6.9l0,0
	C1154.9,731.2,1151.9,734.3,1148.1,734.3z"/>
<path class="st7" d="M1246.4,734.3h-50.5c-3.8,0-6.9-3.1-6.9-6.9l0,0c0-3.8,3.1-6.9,6.9-6.9h50.5c3.8,0,6.9,3.1,6.9,6.9l0,0
	C1253.3,731.2,1250.2,734.3,1246.4,734.3z"/>
<path class="st7" d="M1344.8,734.3h-50.5c-3.8,0-6.9-3.1-6.9-6.9l0,0c0-3.8,3.1-6.9,6.9-6.9h50.5c3.8,0,6.9,3.1,6.9,6.9l0,0
	C1351.6,731.2,1348.6,734.3,1344.8,734.3z"/>
<line class="st9" x1="926.1" y1="394.4" x2="926.1" y2="702.3"/>
<line class="st9" x1="926.1" y1="702.3" x2="1346.1" y2="702.3"/>
<circle class="st12" cx="389.6" cy="701.7" r="5"/>
<circle class="st12" cx="809.5" cy="432.5" r="5"/>
<circle class="st13" cx="926.1" cy="637.1" r="5"/>
<circle class="st13" cx="1346.7" cy="431.6" r="5"/>
<line class="st14" x1="342.6" y1="821.8" x2="1381.9" y2="821.8"/>
<line class="st14" x1="342.6" y1="855.3" x2="1381.9" y2="855.3"/>
<line class="st14" x1="342.6" y1="888.7" x2="1381.9" y2="888.7"/>
<line class="st14" x1="342.6" y1="923.2" x2="1381.9" y2="923.2"/>
<g>
	<path class="st15" d="M49.8,79.1c-1.3,0.9-2.8,1.7-4.2,2.2c-1.6,0.5-3.2,0.8-4.9,0.8c-2.3,0.1-4.5-0.5-6.6-1.5
		c-1.9-0.9-3.7-2.2-5.1-3.8c-1.5-1.6-2.6-3.4-3.3-5.4c-0.8-2-1.2-4.1-1.2-6.3c0-2.2,0.4-4.4,1.2-6.4c0.8-2,1.9-3.8,3.4-5.4
		c1.5-1.5,3.2-2.8,5.1-3.7c2-0.9,4.2-1.4,6.4-1.4c2.3,0,4.5,0.5,6.6,1.5c1.9,0.9,3.7,2.3,5.1,3.9c1.4,1.6,2.5,3.4,3.3,5.5
		c0.8,2,1.2,4.1,1.2,6.2c0,2.2-0.4,4.4-1.3,6.4c-0.8,2-1.9,3.8-3.4,5.4l4.3,4.7h-4.2L49.8,79.1z M40.6,78.2c1.2,0,2.4-0.2,3.5-0.6
		s2.1-0.9,3-1.6l-4.6-5.2h4.2l2.6,3c1.9-2.5,3-5.6,3-8.8c0-1.7-0.3-3.3-0.9-4.9c-0.5-1.5-1.3-3-2.4-4.2c-1-1.2-2.3-2.2-3.7-2.9
		c-1.5-0.8-3.1-1.1-4.7-1.1c-1.7,0-3.4,0.4-4.9,1.2s-2.7,1.7-3.7,3s-1.8,2.7-2.4,4.2c-1.1,3.2-1.1,6.6,0,9.7c0.5,1.6,1.4,3,2.4,4.2
		s2.3,2.2,3.7,2.9C37.3,77.9,38.9,78.3,40.6,78.2z"/>
	<path class="st15" d="M67.9,82.3c-2.7,0-4.6-0.8-6-2.6s-2-4.3-2-7.7V57.2h4.2v13.9c0,5,1.8,7.5,5.4,7.5c1.8,0,3.5-0.6,4.9-1.6
		c1.6-1.1,2.8-2.7,3.4-4.5V57.2H82v19.5c0,1,0.4,1.5,1.3,1.5v3.6c-0.5,0.1-0.9,0.1-1.1,0.1s-0.5,0-0.8,0c-0.8,0.1-1.5-0.2-2.1-0.8
		c-0.5-0.5-0.9-1.1-0.9-1.8l-0.1-2.9c-1.1,1.8-2.6,3.2-4.4,4.2C72.1,81.8,70,82.3,67.9,82.3z"/>
	<path class="st15" d="M87.2,52.6v-5.2h4.2v5.2H87.2z M87.2,81.8V57.2h4.2v24.6H87.2z"/>
	<path class="st15" d="M94.7,69.5c0-1.7,0.3-3.3,0.9-4.9c0.6-1.5,1.4-2.9,2.6-4c1.2-1.2,2.5-2.1,4.1-2.7c1.6-0.7,3.4-1,5.3-1
		c2.3,0,4.5,0.5,6.5,1.7c1.8,1,3.2,2.5,4.2,4.3l-4.2,1.3c-0.6-1.1-1.6-2.1-2.7-2.7c-1.2-0.7-2.5-1-3.9-0.9c-2.3,0-4.4,0.9-5.9,2.6
		c-0.8,0.8-1.3,1.8-1.7,2.9c-0.4,1.2-0.7,2.4-0.7,3.6s0.2,2.4,0.7,3.6c0.4,1.1,1,2.1,1.8,3c0.7,0.8,1.6,1.5,2.7,2s2.1,0.7,3.3,0.7
		c0.7,0,1.5-0.1,2.2-0.3c0.7-0.2,1.3-0.5,2-0.8c0.6-0.3,1.1-0.8,1.6-1.2c0.4-0.4,0.8-0.9,1-1.5l4.2,1.2c-0.4,0.9-0.9,1.7-1.6,2.5
		s-1.5,1.4-2.4,1.9c-1,0.6-2,1-3.1,1.3c-1.2,0.3-2.4,0.5-3.7,0.5c-3.5,0.1-6.9-1.3-9.3-3.8c-1.2-1.2-2-2.5-2.6-4.1
		C95,72.8,94.7,71.2,94.7,69.5z"/>
	<path class="st15" d="M139.1,81.8l-8.7-12l-4.8,4.4v7.6h-4.2V47.4h4.2V70l12.9-12.8h4.7l-10.1,10.2l10.5,14.4H139.1z"/>
	<path class="st6" d="M158.3,82.3c-1.9,0-3.7-0.5-5.4-1.4c-1.6-0.9-2.9-2.2-3.8-3.7v4.6h-3.8V47.4h4.2v14.7c1-1.5,2.3-2.9,3.9-3.9
		c3.1-1.8,6.9-1.9,10.1-0.4c1.4,0.7,2.6,1.7,3.6,2.8c1,1.2,1.8,2.6,2.3,4.1c0.5,1.6,0.8,3.2,0.8,4.8c0,1.7-0.3,3.3-0.9,4.9
		c-0.6,1.5-1.4,2.8-2.5,4.1c-1.1,1.1-2.4,2.1-3.8,2.7C161.6,81.9,160,82.3,158.3,82.3z M157.3,78.7c1.2,0,2.4-0.2,3.5-0.8
		c1.1-0.5,2-1.2,2.8-2s1.4-1.8,1.8-2.9c0.4-1.1,0.6-2.3,0.6-3.4s-0.2-2.3-0.6-3.4c-0.4-1.1-1-2.1-1.7-3c-0.7-0.8-1.6-1.5-2.6-2.1
		s-2.2-0.8-3.4-0.8c-0.9,0-1.7,0.1-2.6,0.5c-0.8,0.3-1.6,0.8-2.2,1.2c-0.7,0.5-1.3,1.1-1.8,1.8s-1,1.4-1.4,2.2v7.1
		c0.1,0.8,0.5,1.6,1,2.2c0.5,0.7,1.2,1.2,1.9,1.7s1.5,0.8,2.3,1.2C155.6,78.6,156.4,78.7,157.3,78.7z"/>
	<path class="st6" d="M181.3,82.3c-2.7,0-4.6-0.8-6-2.6s-2-4.3-2-7.7V57.2h4.2v13.9c0,5,1.8,7.5,5.4,7.5c1.7,0,3.5-0.6,4.9-1.6
		c1.6-1.1,2.8-2.7,3.4-4.5V57.2h4.2v19.5c0,1,0.4,1.5,1.4,1.5v3.6c-0.5,0.1-0.9,0.1-1.2,0.1c-0.3,0.1-0.5,0-0.8,0
		c-0.8,0-1.5-0.2-2.1-0.8c-0.5-0.5-0.9-1.1-0.9-1.8l-0.1-2.9c-1.1,1.8-2.6,3.2-4.4,4.2C185.5,81.8,183.4,82.3,181.3,82.3z"/>
	<path class="st6" d="M213.7,80.6c-0.2,0.1-0.6,0.3-1,0.4s-0.9,0.3-1.4,0.5c-0.6,0.2-1.2,0.3-1.7,0.4c-0.6,0.1-1.3,0.2-1.9,0.1
		c-1.4,0.1-2.9-0.4-4-1.3c-1.1-0.8-1.7-2.1-1.7-3.9V60.5h-3.4v-3.2h3.4V49h4.2v8.2h5.6v3.2h-5.6v15.3c0,0.8,0.3,1.5,0.9,2
		c0.5,0.4,1.3,0.6,1.9,0.6c0.8,0,1.6-0.1,2.3-0.4c0.5-0.2,1-0.4,1.4-0.6L213.7,80.6z"/>
	<path class="st6" d="M215.8,52.6v-5.2h4.2v5.2H215.8z M215.8,81.8V57.2h4.2v24.6H215.8z"/>
	<path class="st6" d="M242.7,81.8l-8.7-12l-4.8,4.4v7.6H225V47.4h4.2V70l12.9-12.8h4.7l-10.1,10.2l10.5,14.4
		C247.3,81.8,242.7,81.8,242.7,81.8z"/>
</g>
<line class="st16" x1="625" y1="598.6" x2="625" y2="702.8"/>
<line class="st17" x1="1029.6" y1="581.9" x2="1029.6" y2="702.3"/>
<circle class="st18" cx="625" cy="598.6" r="5.4"/>
<circle class="st19" cx="1029.8" cy="581.9" r="5.4"/>
<g>
	<path class="st5" d="M253.5,905.1c-0.5,1.7-1.4,3.2-2.6,4.5c-0.2,0.2-0.5,0.2-0.7,0.1l-2-1.2c-0.9,0.7-1.8,1.3-2.9,1.7v2.3
		c0,0.3-0.2,0.5-0.4,0.5c-1.6,0.4-3.4,0.4-5.1,0c-0.3-0.1-0.4-0.3-0.4-0.5v-2.3c-1.1-0.4-2-0.9-2.9-1.7l-2,1.2
		c-0.2,0.1-0.5,0.1-0.7-0.1c-1.2-1.3-2.1-2.8-2.6-4.5c-0.1-0.2,0-0.5,0.3-0.7l2-1.2c-0.2-1.1-0.2-2.2,0-3.3l-2-1.2
		c-0.2-0.1-0.3-0.4-0.3-0.7c0.5-1.7,1.4-3.2,2.6-4.5c0.2-0.2,0.5-0.2,0.7-0.1l2,1.2c0.9-0.7,1.8-1.3,2.9-1.7v-2.3
		c0-0.3,0.2-0.5,0.4-0.5c1.6-0.4,3.4-0.4,5.1,0c0.3,0.1,0.4,0.3,0.4,0.5v2.3c1.1,0.4,2,0.9,2.9,1.7l2-1.2c0.2-0.1,0.5-0.1,0.7,0.1
		c1.2,1.3,2.1,2.8,2.6,4.5c0.1,0.2,0,0.5-0.3,0.7l-2,1.2c0.2,1.1,0.2,2.2,0,3.3l2,1.2C253.4,904.6,253.5,904.9,253.5,905.1z
		 M246.1,901.7c0-2.1-1.7-3.8-3.8-3.8s-3.8,1.7-3.8,3.8s1.7,3.8,3.8,3.8S246.1,903.7,246.1,901.7z"/>
</g>
<path class="st7" d="M628,361.7h-67.1c-3.8,0-6.9-3.1-6.9-6.9l0,0c0-3.8,3.1-6.9,6.9-6.9H628c3.8,0,6.9,3.1,6.9,6.9l0,0
	C634.9,358.6,631.8,361.7,628,361.7z"/>
<path class="st7" d="M1182.2,361.7h-67.1c-3.8,0-6.9-3.1-6.9-6.9l0,0c0-3.8,3.1-6.9,6.9-6.9h67.1c3.8,0,6.9,3.1,6.9,6.9l0,0
	C1189.1,358.6,1186,361.7,1182.2,361.7z"/>
<path class="st7" d="M462.7,327.4h-95.5c-5.4,0-9.8-4.4-9.8-9.8v-0.1c0-5.4,4.4-9.8,9.8-9.8h95.5c5.4,0,9.8,4.4,9.8,9.8v0.1
	C472.5,323,468.1,327.4,462.7,327.4z"/>
<path class="st7" d="M441.9,806.5h-30.7c-3.8,0-6.9-3.1-6.9-6.9l0,0c0-3.8,3.1-6.9,6.9-6.9h30.7c3.8,0,6.9,3.1,6.9,6.9l0,0
	C448.7,803.4,445.6,806.5,441.9,806.5z"/>
<path class="st7" d="M551.3,201.6h-35.6c-6,0-10.9-4.9-10.9-10.9l0,0c0-6,4.9-10.9,10.9-10.9h35.6c6,0,10.9,4.9,10.9,10.9l0,0
	C562.2,196.7,557.3,201.6,551.3,201.6z"/>
<path class="st7" d="M543.4,219.1h-30c-3.8,0-6.9-3.1-6.9-6.9l0,0c0-3.8,3.1-6.9,6.9-6.9h30c3.8,0,6.9,3.1,6.9,6.9l0,0
	C550.2,216,547.2,219.1,543.4,219.1z"/>
<path class="st1" d="M582.5,179.9h-10.7c-3.8,0-6.9-3.1-6.9-6.9l0,0c0-3.8,3.1-6.9,6.9-6.9h10.7c3.8,0,6.9,3.1,6.9,6.9l0,0
	C589.4,176.8,586.3,179.9,582.5,179.9z"/>
<path class="st1" d="M931.4,179.9h-10.7c-3.8,0-6.9-3.1-6.9-6.9l0,0c0-3.8,3.1-6.9,6.9-6.9h10.7c3.8,0,6.9,3.1,6.9,6.9l0,0
	C938.3,176.8,935.2,179.9,931.4,179.9z"/>
<path class="st1" d="M1295.8,179.9h-10.7c-3.8,0-6.9-3.1-6.9-6.9l0,0c0-3.8,3.1-6.9,6.9-6.9h10.7c3.8,0,6.9,3.1,6.9,6.9l0,0
	C1302.7,176.8,1299.6,179.9,1295.8,179.9z"/>
<path class="st7" d="M892,219.1h-30c-3.8,0-6.9-3.1-6.9-6.9l0,0c0-3.8,3.1-6.9,6.9-6.9h30c3.8,0,6.9,3.1,6.9,6.9l0,0
	C898.9,216,895.8,219.1,892,219.1z"/>
<path class="st7" d="M899.8,201.6h-35.6c-6,0-10.9-4.9-10.9-10.9l0,0c0-6,4.9-10.9,10.9-10.9h35.6c6,0,10.9,4.9,10.9,10.9l0,0
	C910.6,196.7,905.8,201.6,899.8,201.6z"/>
<path class="st7" d="M1265.9,201.6h-118.7c-6,0-10.9-4.9-10.9-10.9l0,0c0-6,4.9-10.9,10.9-10.9h118.7c6,0,10.9,4.9,10.9,10.9l0,0
	C1276.8,196.7,1271.9,201.6,1265.9,201.6z"/>
<path class="st7" d="M1233.8,219.1h-42.2c-3.8,0-6.9-3.1-6.9-6.9l0,0c0-3.8,3.1-6.9,6.9-6.9h42.2c3.8,0,6.9,3.1,6.9,6.9l0,0
	C1240.7,216,1237.6,219.1,1233.8,219.1z"/>
<path class="st7" d="M1352.4,317.1H1265c-3.8,0-6.9-3.1-6.9-6.9l0,0c0-3.8,3.1-6.9,6.9-6.9h87.4c3.8,0,6.9,3.1,6.9,6.9l0,0
	C1359.3,314.1,1356.2,317.1,1352.4,317.1z"/>
<path class="st7" d="M483.4,219.1h-28.2c-8.1,0-14.6-6.5-14.6-14.6v-10c0-8.1,6.5-14.6,14.6-14.6h28.2c8.1,0,14.6,6.5,14.6,14.6v10
	C498,212.6,491.5,219.1,483.4,219.1z"/>
<path class="st7" d="M831.3,219.1h-28.2c-8.1,0-14.6-6.5-14.6-14.6v-10c0-8.1,6.5-14.6,14.6-14.6h28.2c8.1,0,14.6,6.5,14.6,14.6v10
	C845.9,212.6,839.4,219.1,831.3,219.1z"/>
<g>
	<defs>
		<rect id="SVGID_3_" x="769.6" y="57" width="192.8" height="26"/>
	</defs>
	<clipPath id="SVGID_1_">
		<use xlink:href="#SVGID_3_"  style="overflow:visible;"/>
	</clipPath>
	<g class="st20">
		<path class="st2" d="M833.7,76.5l-3.3-5.5c1.6-0.4,3.2-1.8,3.2-4.3c0-2.7-1.9-4.7-4.9-4.7h-6.8v14.5h3.1v-5.1h2.3l2.8,5.1H833.7z
			 M828.3,68.7H825v-3.9h3.2c1.2,0,2.1,0.7,2.1,1.9C830.4,67.9,829.5,68.7,828.3,68.7z M844.4,76.5v-6.8c0-3-2.2-4-4.6-4
			c-1.6,0-3.3,0.5-4.6,1.6l1.1,1.9c0.9-0.8,1.9-1.2,3-1.2c1.4,0,2.3,0.7,2.3,1.8v1.3c-0.7-0.8-1.9-1.3-3.3-1.3
			c-1.7,0-3.6,0.9-3.6,3.4c0,2.3,2,3.5,3.6,3.5c1.4,0,2.6-0.5,3.3-1.4v1.1H844.4z M839.4,74.9c-1.1,0-2-0.6-2-1.6c0-1,0.9-1.6,2-1.6
			c0.9,0,1.8,0.3,2.2,0.9V74C841.2,74.6,840.3,74.9,839.4,74.9z M857.4,76.5l-4.3-5.7l4.1-4.7h-3.4l-4,4.7V62h-2.8v14.5h2.8v-2.7
			l1.3-1.3l2.8,4H857.4z M863.5,76.8c1.6,0,3.3-0.5,4.3-1.5l-1.2-1.8c-0.7,0.7-1.9,1-2.8,1c-1.8,0-2.8-1.1-3-2.3h7.8v-0.7
			c0-3.4-2.1-5.7-5.2-5.7c-3.2,0-5.4,2.4-5.4,5.5C857.9,74.6,860.3,76.8,863.5,76.8z M865.9,70.3h-5.2c0.1-1,0.8-2.2,2.6-2.2
			C865.2,68,865.9,69.3,865.9,70.3z M874.1,76.8c1.1,0,1.9-0.3,2.3-0.7l-0.6-2.1c-0.2,0.2-0.5,0.3-1,0.3c-0.6,0-1-0.5-1-1.2v-4.7
			h2.1V66h-2.1v-2.9h-2.8V66h-1.7v2.4h1.7v5.4C871.1,75.8,872.2,76.8,874.1,76.8z M881.7,76.8c2.9,0,4.5-1.4,4.5-3.3
			c0-4.2-6.2-2.9-6.2-4.5c0-0.6,0.6-1,1.6-1c1.3,0,2.5,0.6,3.1,1.2l1.1-1.9c-1-0.8-2.4-1.4-4.2-1.4c-2.8,0-4.3,1.5-4.3,3.3
			c0,4.1,6.2,2.7,6.2,4.4c0,0.7-0.6,1.1-1.8,1.1c-1.3,0-2.8-0.7-3.6-1.5l-1.2,2C878.1,76.2,879.8,76.8,881.7,76.8z M898.1,76.5v-7.4
			c0-2-1.1-3.3-3.4-3.3c-1.7,0-3,0.8-3.7,1.6V62h-2.8v14.5h2.8v-7.1c0.5-0.6,1.3-1.2,2.4-1.2c1.2,0,1.9,0.5,1.9,1.9v6.4H898.1z
			 M905.6,76.8c3.5,0,5.5-2.5,5.5-5.5c0-3-2.1-5.5-5.5-5.5c-3.4,0-5.5,2.5-5.5,5.5C900.1,74.2,902.2,76.8,905.6,76.8z M905.6,74.3
			c-1.7,0-2.7-1.4-2.7-3.1c0-1.6,1-3,2.7-3c1.7,0,2.7,1.4,2.7,3C908.3,72.9,907.4,74.3,905.6,74.3z M919.2,76.8c2.7,0,4.6-2,4.6-5.5
			s-2-5.5-4.6-5.5c-1.3,0-2.4,0.6-3.2,1.6V66h-2.8v14.5h2.8v-5.3C916.9,76.2,918,76.8,919.2,76.8z M918.4,74.3
			c-0.9,0-1.9-0.5-2.4-1.2v-3.7c0.5-0.7,1.5-1.2,2.4-1.2c1.6,0,2.7,1.2,2.7,3C921,73.1,919.9,74.3,918.4,74.3z M931.9,76.8
			c2.7,0,4.6-2,4.6-5.5s-2-5.5-4.6-5.5c-1.3,0-2.4,0.6-3.2,1.6V66h-2.8v14.5h2.8v-5.3C929.5,76.2,930.6,76.8,931.9,76.8z M931,74.3
			c-0.9,0-1.9-0.5-2.4-1.2v-3.7c0.5-0.7,1.5-1.2,2.4-1.2c1.6,0,2.7,1.2,2.7,3C933.7,73.1,932.6,74.3,931,74.3z M943.4,76.8
			c1.6,0,3.3-0.5,4.3-1.5l-1.2-1.8c-0.7,0.7-1.9,1-2.8,1c-1.8,0-2.8-1.1-3-2.3h7.8v-0.7c0-3.4-2.1-5.7-5.2-5.7
			c-3.2,0-5.4,2.4-5.4,5.5C937.8,74.6,940.2,76.8,943.4,76.8z M945.9,70.3h-5.2c0.1-1,0.8-2.2,2.6-2.2
			C945.1,68,945.8,69.3,945.9,70.3z M960.3,76.5v-7.4c0-2-1.1-3.3-3.4-3.3c-1.7,0-3,0.8-3.7,1.6V66h-2.8v10.5h2.8v-7.1
			c0.5-0.6,1.3-1.2,2.4-1.2c1.2,0,1.9,0.5,1.9,1.9v6.3H960.3z"/>
		<path class="st15" d="M813.3,71.6c0.6-0.9,0.6-2.3,0-3.2l-6.8-9.8c-0.6-0.9-2-1.6-3.1-1.6H782c-1.1,0-1.5,0.7-0.9,1.6l6.5,9.7
			c0.6,0.9,0.6,2.4,0,3.3l-6.5,9.7c-0.6,0.9-0.2,1.6,0.9,1.6h21.4c1.1,0,2.5-0.7,3.1-1.6L813.3,71.6z M793.8,76.7
			c-1.1,0-1.5-0.7-0.9-1.6l2.3-3.5c0.6-0.9,0.6-2.4,0-3.3l-2.3-3.5c-0.6-0.9-0.2-1.6,0.9-1.6h6.2c1.1,0,2.5,0.7,3.1,1.6l2.5,3.5
			c0.6,0.9,0.6,2.3,0,3.2l-2.5,3.5c-0.6,0.9-2,1.6-3.1,1.6L793.8,76.7L793.8,76.7z"/>
		<path class="st2" d="M772.7,62.9c-1.1,0-2-0.6-2-1.4c0-0.9,0.9-1.4,2-1.4h5.6c1.1,0,2,0.6,2,1.4c0,0.9-0.9,1.4-2,1.4H772.7z"/>
		<path class="st2" d="M772.7,79.9c-1.1,0-2-0.6-2-1.4c0-0.9,0.9-1.4,2-1.4h5.6c1.1,0,2,0.6,2,1.4c0,0.9-0.9,1.4-2,1.4H772.7z"/>
		<path class="st2" d="M772.7,71.4c-1.1,0-2-0.6-2-1.4c0-0.9,0.9-1.4,2-1.4h10.4c1.1,0,2,0.6,2,1.4c0,0.9-0.9,1.4-2,1.4H772.7z"/>
	</g>
</g>
</svg>
