<?xml version="1.0" encoding="utf-8"?>
<!-- Generator: Adobe Illustrator 25.2.0, SVG Export Plug-In . SVG Version: 6.00 Build 0)  -->
<svg version="1.1" id="Layer_1" xmlns="http://www.w3.org/2000/svg" xmlns:xlink="http://www.w3.org/1999/xlink" x="0px" y="0px"
	 viewBox="0 0 1440.4 970.1" style="enable-background:new 0 0 1440.4 970.1;" xml:space="preserve">
<style type="text/css">
	.st0{opacity:0.24;fill:#6154F9;enable-background:new    ;}
	.st1{opacity:0.24;fill:#20D287;enable-background:new    ;}
	.st2{fill:#362F4A;}
	.st3{fill:#EAEAEA;}
	.st4{fill:#302b40;}
	.st5{font-family:'ProximaNova-Medium';}
	.st6{font-size:14px;}
	.st7{font-family:'ProximaNova-Regular';}
	.st8{font-size:20px;}
	.st9{font-size:26px;}
	.st10{fill:#9DA4AD;}
	.st11{fill:#20D287;}
	.st12{font-size:12px;}
	.st13{fill:#69A1DA;}
	.st14{fill:none;stroke:#EAEAEA;stroke-miterlimit:10;}
	.st15{fill:none;stroke:#6154F9;stroke-width:4;stroke-linecap:round;stroke-linejoin:round;stroke-miterlimit:10;}
	.st16{fill:none;stroke:#20D287;stroke-width:4;stroke-linecap:round;stroke-linejoin:round;stroke-miterlimit:10;}
	.st17{fill-rule:evenodd;clip-rule:evenodd;fill:#6154F9;}
	.st18{fill-rule:evenodd;clip-rule:evenodd;fill:#20D287;}
	.st19{fill:none;stroke:#6154F9;stroke-linecap:round;stroke-linejoin:round;stroke-miterlimit:10;}
	.st20{fill:none;stroke:#6AD8B9;stroke-linecap:round;stroke-linejoin:round;stroke-miterlimit:10;}
	
		.st21{fill-rule:evenodd;clip-rule:evenodd;fill:#FFFFFF;stroke:#69A1DA;stroke-width:2;stroke-linecap:round;stroke-linejoin:round;stroke-miterlimit:10;}
	
		.st22{fill-rule:evenodd;clip-rule:evenodd;fill:#FFFFFF;stroke:#6AD8B9;stroke-width:2;stroke-linecap:round;stroke-linejoin:round;stroke-miterlimit:10;}
	.st23{fill:none;stroke:#EFEFEF;stroke-miterlimit:10;}
	.st24{fill:#6154F9;}
	.st25{fill:#626D7B;}
	.st26{fill:#FFFFFF;}
	.st27{fill:none;stroke:#302b40;stroke-miterlimit:10;}
	.st28{font-size:16px;}
	.st29{display:none;}
	.st30{display:inline;}
	.st31{fill:#371A45;}
	.st32{opacity:0.35;}
	.st33{opacity:0.7;}
	.st34{fill:#111A28;}
	.st35{fill:#FD6462;}
	.st36{opacity:0.5;}
	.st37{fill:#C5D3E2;}
	.st38{opacity:0.6;}
	.st39{fill:#F7F8FC;}
	.st40{fill:#22A7F0;}
	.st41{opacity:0.15;}
	.st42{opacity:0.2;}
	.st43{fill:#102770;}
	.st44{fill:#FFF2BD;}
	.st45{clip-path:url(#SVGID_1_);}
</style>
<path class="st0" d="M388.9,699.8c22.3-71.9,57.7-155.7,107.7-159c47-3.2,69.8,67.2,114.5,60.2c58.8-9.3,59.9-137.5,146.3-166.3
	c21.1-7,40.5-5.9,52.7-4.2v269.4L388.9,699.8L388.9,699.8z"/>
<path class="st1" d="M926.1,634.6c16.7-22.5,44.4-51.8,82.3-56c45.6-5.1,64.1,30.9,96.1,22c56-15.5,46.3-138.8,99.1-150.1
	c29.3-6.3,47.4,28.5,87.1,21c25.6-4.8,43.9-24.1,55.9-41v269.4H926.1V634.6z"/>
<g>
	<path class="st2" d="M491.6,200.4c0,3.7-1,7.2-2.8,10.2c-0.4,0.7-1.1,1.1-1.9,1.1h-31.1c-0.8,0-1.5-0.4-1.9-1.1
		c-1.7-3-2.8-6.5-2.8-10.2c0-11.2,9.1-20.2,20.2-20.2C482.5,180.1,491.6,189.2,491.6,200.4z M460.1,202.6c0-1.2-1-2.2-2.2-2.2
		s-2.2,1-2.2,2.2s1,2.2,2.2,2.2S460.1,203.9,460.1,202.6z M463.5,191.4c0-1.2-1-2.2-2.2-2.2s-2.2,1-2.2,2.2s1,2.2,2.2,2.2
		S463.5,192.6,463.5,191.4z M475.9,204.9c0-0.9-0.2-1.6-0.7-2.3l7.6-10.2c0.6-0.8,0.4-1.8-0.3-2.4s-1.8-0.4-2.4,0.3l-7.6,10.2
		c-0.4-0.1-0.8-0.2-1.1-0.2c-2.5,0-4.5,2-4.5,4.5c0,0.8,0.2,1.6,0.6,2.2h7.8C475.6,206.4,475.9,205.7,475.9,204.9z M469.1,186.9
		c0,1.2,1,2.2,2.2,2.2s2.2-1,2.2-2.2s-1-2.2-2.2-2.2S469.1,185.6,469.1,186.9z M487.1,202.6c0-1.2-1-2.2-2.2-2.2s-2.2,1-2.2,2.2
		s1,2.2,2.2,2.2S487.1,203.9,487.1,202.6z"/>
</g>
<g>
	<g>
		<path class="st2" d="M831.5,200.8h-20.6l0.5,2.2h18.9c1.1,0,1.9,1,1.7,2.1l-0.4,1.7c1.3,0.6,2.2,2,2.2,3.5c0,2.2-1.8,3.9-3.9,3.9
			s-3.9-1.8-3.9-3.9c0-1.1,0.5-2.1,1.2-2.8h-14.7c0.7,0.7,1.2,1.7,1.2,2.8c0,2.2-1.8,3.9-3.9,3.9s-3.9-1.8-3.9-3.9
			c0-1.5,0.8-2.7,2-3.4l-4.9-24.1h-4.9c-0.9,0-1.7-0.8-1.7-1.7V180c0-0.9,0.8-1.7,1.7-1.7h7.2c0.8,0,1.5,0.6,1.7,1.4l0.6,3.1h27.6
			c1.1,0,1.9,1,1.7,2.1l-3.3,14.6C833,200.2,832.3,200.8,831.5,200.8z"/>
	</g>
</g>
<g>
	<g>
		<path class="st3" d="M1250,314.8v0.8c0,0.4-0.3,0.8-0.8,0.8h-21.8c-0.8,0-1.5-0.7-1.5-1.5v-15.8c0-0.4,0.3-0.8,0.8-0.8h0.8
			c0.4,0,0.8,0.3,0.8,0.8v15h21C1249.7,314.1,1250,314.4,1250,314.8z M1230.5,311.2v-3.3c0-0.3,0.3-0.6,0.6-0.6h1.1
			c0.3,0,0.6,0.3,0.6,0.6v3.3c0,0.3-0.3,0.6-0.6,0.6h-1.1C1230.8,311.8,1230.5,311.5,1230.5,311.2z M1235,311.2v-9.3
			c0-0.3,0.3-0.6,0.6-0.6h1.1c0.3,0,0.6,0.3,0.6,0.6v9.3c0,0.3-0.3,0.6-0.6,0.6h-1.1C1235.3,311.8,1235,311.5,1235,311.2z
			 M1239.5,311.2v-6.3c0-0.3,0.3-0.6,0.6-0.6h1.1c0.3,0,0.6,0.3,0.6,0.6v6.3c0,0.3-0.3,0.6-0.6,0.6h-1.1
			C1239.8,311.8,1239.5,311.5,1239.5,311.2z M1244,311.2v-10.8c0-0.3,0.3-0.6,0.6-0.6h1.1c0.3,0,0.6,0.3,0.6,0.6v10.8
			c0,0.3-0.3,0.6-0.6,0.6h-1.1C1244.3,311.8,1244,311.5,1244,311.2z"/>
	</g>
</g>
<text transform="matrix(1 0 0 1 575.2168 355.8872)" class="st4 st5 st6">Visitors</text>
<g>
	<text transform="matrix(1 0 0 1 359.6909 322.455)" class="st4 st7 st8">Last 7 days</text>
</g>
<text transform="matrix(1 0 0 1 505.7447 197.9449)" class="st4 st7 st9">1206</text>
<g>
	<text transform="matrix(1 0 0 1 510.3438 213.958)" class="st10 st5 st6">views</text>
</g>
<g>
	<text transform="matrix(1 0 0 1 564.1167 182.2769)" class="st11 st5 st6">+12%</text>
</g>
<g>
	<text transform="matrix(1 0 0 1 915.9121 182.2769)" class="st11 st5 st6">+20%</text>
</g>
<g>
	<text transform="matrix(1 0 0 1 1276.4087 182.2769)" class="st11 st5 st6">+21%</text>
</g>
<text transform="matrix(1 0 0 1 852.7168 197.9449)" class="st4 st7 st9">1206</text>
<text transform="matrix(1 0 0 1 1143.8057 197.9449)" class="st4 st7 st9">23.410 SEK</text>
<g>
	<text transform="matrix(1 0 0 1 857.3159 213.958)" class="st10 st5 st6">orders</text>
</g>
<g>
	<text transform="matrix(1 0 0 1 1186.4893 213.958)" class="st10 st5 st6">revenue</text>
</g>
<g>
	<text transform="matrix(1 0 0 1 1220.0493 118.3521)" class="st10 st5 st12">Year / Month / </text>
	<text transform="matrix(1 0 0 1 1298.3494 118.3521)" class="st13 st5 st12">Week </text>
	<text transform="matrix(1 0 0 1 1331.8394 118.3521)" class="st10 st5 st12">/ Today</text>
</g>
<g>
	<text transform="matrix(1 0 0 1 1103.6914 355.8872)" class="st4 st5 st6">Revenue</text>
</g>
<g>
	<text transform="matrix(1 0 0 1 1262.5273 312.6496)" class="st4 st5 st6">Sales Statistics</text>
</g>
<path class="st14" d="M1369.9,262.5H354.5c-6.6,0-12-5.4-12-12V142c0-6.6,5.4-12,12-12H1370c6.6,0,12,5.4,12,12v108.6
	C1381.9,257.2,1376.6,262.5,1369.9,262.5z"/>
<path class="st14" d="M829.5,741.5h-475c-6.6,0-12-5.4-12-12V346.8c0-6.6,5.4-12,12-12h475c6.6,0,12,5.4,12,12v382.7
	C841.5,736.2,836.2,741.5,829.5,741.5z"/>
<path class="st14" d="M1369.9,741.5H884.8c-6.6,0-12-5.4-12-12V346.8c0-6.6,5.4-12,12-12h485.1c6.6,0,12,5.4,12,12v382.7
	C1381.9,736.2,1376.6,741.5,1369.9,741.5z"/>
<path class="st14" d="M1374.4,329.8h-167.9c-4.1,0-7.5-3.4-7.5-7.5V291c0-4.1,3.3-7.5,7.5-7.5h167.9c4.1,0,7.5,3.4,7.5,7.5v31.3
	C1381.9,326.4,1378.6,329.8,1374.4,329.8z"/>
<line class="st14" x1="689" y1="130" x2="689" y2="262.5"/>
<line class="st14" x1="1035.5" y1="130" x2="1035.5" y2="262.5"/>
<line class="st14" x1="389.5" y1="391.9" x2="389.5" y2="699.8"/>
<line class="st14" x1="389.5" y1="699.8" x2="809.5" y2="699.8"/>
<path class="st15" d="M389.5,699.8c22.3-71.9,57.7-155.7,107.7-159c47-3.2,69.8,67.2,114.5,60.2c58.8-9.3,59.9-137.5,146.3-166.3
	c21.1-7,40.5-5.9,52.7-4.2"/>
<path class="st16" d="M926.1,634.6c16.7-22.5,44.4-51.8,82.3-56c45.6-5.1,64.1,30.9,96.1,22c56-15.5,46.3-138.8,99.1-150.1
	c29.3-6.3,47.4,28.5,87.1,21c25.6-4.8,43.9-24.1,55.9-41"/>
<line class="st14" x1="926.1" y1="391.9" x2="926.1" y2="699.8"/>
<line class="st14" x1="926.1" y1="699.8" x2="1346.1" y2="699.8"/>
<circle class="st17" cx="389.6" cy="699.2" r="5"/>
<circle class="st17" cx="809.5" cy="430" r="5"/>
<circle class="st18" cx="926.1" cy="634.6" r="5"/>
<circle class="st18" cx="1346.7" cy="429.2" r="5"/>
<line class="st19" x1="625" y1="596.2" x2="625" y2="700.4"/>
<line class="st20" x1="1029.6" y1="579.4" x2="1029.6" y2="699.8"/>
<circle class="st21" cx="625" cy="596.2" r="5.4"/>
<circle class="st22" cx="1029.8" cy="579.4" r="5.4"/>
<g>
	<text transform="matrix(1 0 0 1 365.0025 729.2645)" class="st10 st5 st12">Thursday</text>
</g>
<g>
	<text transform="matrix(1 0 0 1 363.793 696.9151)" class="st10 st5 st12">0</text>
</g>
<g>
	<text transform="matrix(1 0 0 1 361.0132 596.9822)" class="st10 st5 st12">10</text>
</g>
<g>
	<text transform="matrix(1 0 0 1 359.6909 496.291)" class="st10 st5 st12">20</text>
</g>
<g>
	<text transform="matrix(1 0 0 1 440.0259 729.2645)" class="st10 st5 st12">Friday</text>
</g>
<g>
	<text transform="matrix(1 0 0 1 499.6358 729.2645)" class="st10 st5 st12">Saturday</text>
</g>
<g>
	<text transform="matrix(1 0 0 1 570.1353 729.2645)" class="st10 st5 st12">Sunday</text>
</g>
<g>
	<text transform="matrix(1 0 0 1 635.4629 729.2645)" class="st10 st5 st12">Monday</text>
</g>
<g>
	<text transform="matrix(1 0 0 1 697.5503 729.2645)" class="st10 st5 st12">Yesterday</text>
</g>
<g>
	<text transform="matrix(1 0 0 1 774.5654 729.2645)" class="st10 st5 st12">Today</text>
</g>
<g>
	<text transform="matrix(1 0 0 1 922.6216 729.2645)" class="st10 st5 st12">Thursday</text>
</g>
<g>
	<text transform="matrix(1 0 0 1 996.5854 729.2645)" class="st10 st5 st12">Friday</text>
</g>
<g>
	<text transform="matrix(1 0 0 1 1055.1353 729.2645)" class="st10 st5 st12">Saturday</text>
</g>
<g>
	<text transform="matrix(1 0 0 1 1124.5762 729.2645)" class="st10 st5 st12">Sunday</text>
</g>
<g>
	<text transform="matrix(1 0 0 1 1188.8438 729.2645)" class="st10 st5 st12">Monday</text>
</g>
<g>
	<text transform="matrix(1 0 0 1 1249.8716 729.2645)" class="st10 st5 st12">Yesterday</text>
</g>
<g>
	<text transform="matrix(1 0 0 1 1325.8276 729.2645)" class="st10 st5 st12">Today</text>
</g>
<g>
	<text transform="matrix(1 0 0 1 359.6909 394.9994)" class="st10 st5 st12">30</text>
</g>
<g>
	<text transform="matrix(1 0 0 1 904.4736 696.9151)" class="st10 st5 st12">0</text>
</g>
<g>
	<text transform="matrix(1 0 0 1 901.6938 596.9822)" class="st10 st5 st12">10</text>
</g>
<g>
	<text transform="matrix(1 0 0 1 900.3716 496.291)" class="st10 st5 st12">20</text>
</g>
<g>
	<text transform="matrix(1 0 0 1 900.3716 394.9994)" class="st10 st5 st12">30</text>
</g>
<g>
	<g>
		<path class="st3" d="M390.8,803.1l-3.9,3.9c-0.4,0.4-1.1,0.7-1.6,0.7h-12.6c-1.2,0-2.2-1-2.2-2.2V789c0-1.2,1-2.2,2.2-2.2h16.5
			c1.2,0,2.2,1,2.2,2.2v12.6C391.5,802,391.2,802.7,390.8,803.1z M372.7,788.9v16.5h10.5v-4.9c0-0.6,0.5-1.1,1.1-1.1h4.9v-10.5
			H372.7L372.7,788.9z M389,801.7h-3.6v3.6L389,801.7z"/>
	</g>
</g>
<path class="st3" d="M553.8,845H374.4c-3.8,0-6.9-3.1-6.9-6.9l0,0c0-3.8,3.1-6.9,6.9-6.9h179.5c3.8,0,6.9,3.1,6.9,6.9l0,0
	C560.7,842,557.6,845,553.8,845z"/>
<path class="st3" d="M486.5,878.2H373c-3,0-5.5-2.5-5.5-5.5V870c0-3,2.5-5.5,5.5-5.5h113.4c3,0,5.5,2.5,5.5,5.5v2.7
	C492,875.7,489.5,878.2,486.5,878.2z"/>
<path class="st3" d="M549.5,946H374.3c-3.8,0-6.8-3-6.8-6.8V939c0-3.8,3-6.8,6.8-6.8h175.2c3.8,0,6.8,3,6.8,6.8v0.2
	C556.3,943,553.2,946,549.5,946z"/>
<path class="st3" d="M662.7,946h-96.9c-2.8,0-5.1-2.3-5.1-5.1v-3.5c0-2.8,2.3-5.1,5.1-5.1h96.9c2.8,0,5.1,2.3,5.1,5.1v3.5
	C667.8,943.7,665.6,946,662.7,946z"/>
<path class="st3" d="M750.1,910.3H636.7c-3,0-5.5-2.5-5.5-5.5v-2.7c0-3,2.5-5.5,5.5-5.5h113.4c3,0,5.5,2.5,5.5,5.5v2.7
	C755.6,907.9,753.2,910.3,750.1,910.3z"/>
<path class="st3" d="M615.6,910.3H374.4c-3.8,0-6.9-3.1-6.9-6.9l0,0c0-3.8,3.1-6.9,6.9-6.9h241.2c3.8,0,6.9,3.1,6.9,6.9l0,0
	C622.5,907.3,619.4,910.3,615.6,910.3z"/>
<path class="st3" d="M645.1,845h-65.7c-2.3,0-4.2-1.9-4.2-4.2v-5.2c0-2.3,1.9-4.2,4.2-4.2h65.7c2.3,0,4.2,1.9,4.2,4.2v5.2
	C649.4,843.1,647.5,845,645.1,845z"/>
<path class="st14" d="M1368.7,953.5H355.9c-7.3,0-13.3-5.9-13.3-13.3V786c0-7.3,5.9-13.3,13.3-13.3h1012.8c7.3,0,13.3,5.9,13.3,13.3
	v154.2C1381.9,947.5,1376,953.5,1368.7,953.5z"/>
<line class="st23" x1="342.6" y1="819.3" x2="1381.9" y2="819.3"/>
<line class="st23" x1="342.6" y1="852.8" x2="1381.9" y2="852.8"/>
<line class="st23" x1="342.6" y1="886.3" x2="1381.9" y2="886.3"/>
<line class="st23" x1="342.6" y1="920.7" x2="1381.9" y2="920.7"/>
<path class="st3" d="M441.9,804h-30.7c-3.8,0-6.9-3.1-6.9-6.9l0,0c0-3.8,3.1-6.9,6.9-6.9h30.7c3.8,0,6.9,3.1,6.9,6.9l0,0
	C448.7,800.9,445.6,804,441.9,804z"/>
<rect class="st2" width="274.3" height="970.1"/>
<rect y="224.3" class="st4" width="274.3" height="64"/>
<g>
	<path class="st24" d="M245.6,246.7c7.5,0,13.5,6,13.5,13.5c0,2.5-0.7,4.8-1.8,6.8c-0.3,0.5-0.8,0.7-1.3,0.7h-20.8
		c-0.5,0-1-0.3-1.3-0.7c-1.2-2-1.8-4.3-1.8-6.8C232.1,252.7,238.2,246.7,245.6,246.7z M235.7,265.4h19.9c0.9-1.6,1.3-3.4,1.3-5.2
		c0-6.2-5.1-11.2-11.2-11.2s-11.2,5.1-11.2,11.2C234.4,262,234.8,263.8,235.7,265.4z M239.6,260.2c0,0.8-0.7,1.5-1.5,1.5
		s-1.5-0.7-1.5-1.5s0.7-1.5,1.5-1.5S239.6,259.3,239.6,260.2z M238.9,254.9c0-0.8,0.7-1.5,1.5-1.5s1.5,0.7,1.5,1.5s-0.7,1.5-1.5,1.5
		S238.9,255.7,238.9,254.9z M245.6,258.7c0.3,0,0.6,0,0.8,0.1l3.6-4.6c0.4-0.5,1.1-0.6,1.6-0.2c0.5,0.4,0.6,1.1,0.2,1.6l-3.6,4.6
		c0.3,0.4,0.4,1,0.4,1.5s-0.2,1.1-0.4,1.5H243c-0.3-0.4-0.4-1-0.4-1.5C242.6,260,244,258.7,245.6,258.7z M245.6,254.2
		c-0.8,0-1.5-0.7-1.5-1.5s0.7-1.5,1.5-1.5s1.5,0.7,1.5,1.5S246.5,254.2,245.6,254.2z M253.1,258.7c0.8,0,1.5,0.7,1.5,1.5
		s-0.7,1.5-1.5,1.5s-1.5-0.7-1.5-1.5S252.3,258.7,253.1,258.7z"/>
</g>
<g>
	<path class="st25" d="M257.7,313.4l-2.1,9.8c-0.1,0.5-0.6,0.9-1.1,0.9h-14.6l0.4,2.2h13.2c0.7,0,1.2,0.7,1.1,1.4l-0.1,0.2
		c0.6,0.5,0.9,1.3,0.9,2.2c0,1.7-1.3,3-3,3s-3-1.3-3-3l0,0c0-0.4,0.2-1.1,0.4-1.5H243c0.2,0.4,0.4,1,0.4,1.5l0,0c0,1.7-1.3,3-3,3
		s-3-1.3-3-3c0-0.8,0.3-1.5,0.8-2.1l-3.3-16.7h-3.8c-0.3,0-0.6-0.2-0.6-0.6v-1.1c0-0.3,0.2-0.6,0.6-0.6h4.7c0.5,0,1,0.4,1.1,0.9
		l0.4,2.1h19.1C257.3,312,257.9,312.7,257.7,313.4z M255.2,314.3h-17.3l1.5,7.5h14.2L255.2,314.3z M241.6,330c0-0.6-0.5-1.1-1.1-1.1
		s-1.1,0.5-1.1,1.1s0.5,1.1,1.1,1.1S241.6,330.6,241.6,330z M253.6,330c0-0.6-0.5-1.1-1.1-1.1s-1.1,0.5-1.1,1.1s0.5,1.1,1.1,1.1
		S253.6,330.6,253.6,330z"/>
</g>
<g>
	<path class="st25" d="M236.3,386.9c-0.2-0.1-0.4-0.1-0.6-0.1h-1.1c-0.9,0-1.7,0.8-1.7,1.7c0,0.6-0.5,1.1-1.1,1.1s-1.1-0.5-1.1-1.1
		c0-2.2,1.8-3.9,3.9-3.9h1.1c0.8,0,1.6,0.2,2.2,0.7C237.3,385.6,236.7,386.2,236.3,386.9z M231.4,379.2c0-2.1,1.7-3.8,3.8-3.8
		s3.8,1.7,3.8,3.8s-1.7,3.8-3.8,3.8S231.4,381.3,231.4,379.2z M233.6,379.2c0,0.8,0.7,1.5,1.5,1.5s1.5-0.7,1.5-1.5s-0.7-1.5-1.5-1.5
		S233.6,378.4,233.6,379.2z M254.6,390.6v2.1c0,1.2-1,2.2-2.2,2.2h-13.5c-1.2,0-2.2-1-2.2-2.2v-2.1c0-1.1,0.3-2.1,0.9-3
		c1.3-1.9,3.8-2.6,6-2c0.7,0.2,1.4,0.3,2.1,0.3c0.7,0,1.4-0.1,2.1-0.3c2.2-0.7,4.7,0,6,2C254.3,388.5,254.6,389.5,254.6,390.6z
		 M252.4,390.6c0-1.7-1.4-3.1-3.1-3.1c-1.2,0.5-2.4,0.8-3.7,0.8s-2.5-0.2-3.7-0.8c-1.7,0-3.1,1.4-3.1,3.1v2.1h13.5v-2.1H252.4z
		 M240.4,379.2c0-2.9,2.4-5.2,5.2-5.2s5.2,2.4,5.2,5.2s-2.4,5.2-5.2,5.2S240.4,382.1,240.4,379.2z M242.6,379.2c0,1.6,1.4,3,3,3
		s3-1.4,3-3s-1.4-3-3-3S242.6,377.6,242.6,379.2z M252.4,379.2c0-2.1,1.7-3.8,3.8-3.8c2.1,0,3.8,1.7,3.8,3.8s-1.7,3.8-3.8,3.8
		S252.4,381.3,252.4,379.2z M260.6,388.4c0,0.6-0.5,1.1-1.1,1.1s-1.1-0.5-1.1-1.1c0-0.9-0.8-1.7-1.7-1.7h-1.1c-0.2,0-0.4,0-0.6,0.1
		c-0.4-0.7-1-1.2-1.6-1.7c0.6-0.4,1.4-0.7,2.2-0.7h1.1C258.9,384.5,260.6,386.3,260.6,388.4z M254.6,379.2c0,0.8,0.7,1.5,1.5,1.5
		c0.8,0,1.5-0.7,1.5-1.5s-0.7-1.5-1.5-1.5S254.6,378.4,254.6,379.2z"/>
</g>
<g>
	<path class="st25" d="M244.9,438.7l9.8,3.7c0.9,0.3,1.5,1.2,1.5,2.1V455c0,0.9-0.5,1.6-1.2,2l-9.8,4.9c-0.6,0.3-1.4,0.3-2,0
		l-9.8-4.9c-0.8-0.4-1.2-1.2-1.2-2v-10.5c0-0.9,0.6-1.8,1.5-2.1l9.8-3.7C243.9,438.5,244.4,438.5,244.9,438.7z M234.4,444.4
		L234.4,444.4l9.8,4l9.8-4l0,0l-9.8-3.7L234.4,444.4z M234.4,455l8.6,4.3v-8.9l-8.6-3.5V455z M253.9,455v-8.1l-8.6,3.5v8.9
		L253.9,455z"/>
</g>
<g>
	<path class="st25" d="M256.9,513.5H252v3.4h2.6c0.8,0,1.5,0.7,1.5,1.5v4.5c0,0.8-0.7,1.5-1.5,1.5h-7.5c-0.8,0-1.5-0.7-1.5-1.5v-4.5
		c0-0.8,0.7-1.5,1.5-1.5h2.6v-3.4h-14.2v3.4h2.6c0.8,0,1.5,0.7,1.5,1.5v4.5c0,0.8-0.7,1.5-1.5,1.5h-7.5c-0.8,0-1.5-0.7-1.5-1.5v-4.5
		c0-0.8,0.7-1.5,1.5-1.5h2.6v-3.4h-4.9c-0.4,0-0.8-0.3-0.8-0.8V512c0-0.4,0.3-0.8,0.8-0.8h13.1v-3.4H238c-0.8,0-1.5-0.7-1.5-1.5
		v-4.5c0-0.8,0.7-1.5,1.5-1.5h9c0.8,0,1.5,0.7,1.5,1.5v4.5c0,0.8-0.7,1.5-1.5,1.5h-3.4v3.4h13.1c0.4,0,0.8,0.3,0.8,0.8v0.8
		C257.6,513.1,257.3,513.5,256.9,513.5z M231.4,519.1v3h6v-3H231.4z M238.9,505.6h7.5v-3h-7.5V505.6z M247.9,519.1v3h6v-3H247.9z"/>
</g>
<g>
	<path class="st25" d="M257.3,566.6v15c0,1.2-1,2.2-2.2,2.2h-2.2v2.2c0,1.2-1,2.2-2.2,2.2h-15c-1.2,0-2.2-1-2.2-2.2v-15
		c0-1.2,1-2.2,2.2-2.2h2.2v-2.2c0-1.2,1-2.2,2.2-2.2h15C256.2,564.3,257.3,565.3,257.3,566.6z M250.5,576.3h-15v9.8h15V576.3z
		 M255,566.6h-15v2.2h10.5c1.2,0,2.2,1,2.2,2.2v10.5h2.2v-14.9H255z"/>
</g>
<g>
	<path class="st25" d="M253.2,650.1c0,1.2-1,2.2-2.2,2.2h-13.5c-1.2,0-2.2-1-2.2-2.2v-19.5c0-1.2,1-2.2,2.2-2.2h9.6
		c0.6,0,1.2,0.2,1.6,0.7l3.9,3.9c0.4,0.4,0.7,1,0.7,1.6L253.2,650.1L253.2,650.1z M251,636.6h-4.9c-0.6,0-1.1-0.5-1.1-1.1v-4.9h-7.5
		v19.5H251V636.6L251,636.6z M248.7,641.3c0,0.3-0.2,0.6-0.6,0.6h-7.9c-0.3,0-0.6-0.2-0.6-0.6V640c0-0.3,0.2-0.6,0.6-0.6h7.9
		c0.3,0,0.6,0.2,0.6,0.6V641.3z M248.7,643.9v1.3c0,0.3-0.2,0.6-0.6,0.6h-7.9c-0.3,0-0.6-0.2-0.6-0.6v-1.3c0-0.3,0.2-0.6,0.6-0.6
		h7.9C248.5,643.3,248.7,643.6,248.7,643.9z M247.2,634.3h3.6l-3.6-3.6V634.3z"/>
</g>
<g>
	<path class="st25" d="M256.5,701.3c0,0.2-0.1,0.5-0.2,0.7c-2.5,5-7.6,8.3-13.3,8.3s-10.8-3.4-13.3-8.3c-0.1-0.2-0.2-0.5-0.2-0.7
		s0.1-0.5,0.2-0.7c2.5-5,7.6-8.3,13.3-8.3s10.8,3.4,13.3,8.3C256.4,700.8,256.5,701.1,256.5,701.3z M254.2,701.3
		c-2.3-4.2-6.5-6.8-11.1-6.8s-8.9,2.6-11.1,6.8c2.3,4.2,6.5,6.8,11.1,6.8S251.9,705.5,254.2,701.3z M243,696.1
		c2.9,0,5.2,2.3,5.2,5.2s-2.4,5.2-5.2,5.2s-5.2-2.3-5.2-5.2c0-0.4,0.1-1.1,0.2-1.5c0.3,0.2,0.9,0.3,1.3,0.3c1.4,0,2.6-1.2,2.6-2.6
		c0-0.4-0.1-0.9-0.3-1.3C242,696.2,242.6,696.1,243,696.1L243,696.1z"/>
</g>
<g>
	<path class="st25" d="M255.1,765.9v1.1c0,0.3-0.2,0.6-0.6,0.6h-0.9l-1.3,9.3c-0.1,1.1-1.1,1.9-2.2,1.9H233c-1.1,0-2.1-0.8-2.2-1.9
		l-1.3-9.3h-0.9c-0.3,0-0.6-0.2-0.6-0.6v-1.1c0-0.3,0.2-0.6,0.6-0.6h3.4l6-7.1c0.4-0.5,1.1-0.5,1.6-0.1s0.5,1.1,0.1,1.6l-4.8,5.7
		H248l-4.8-5.7c-0.4-0.5-0.4-1.2,0.1-1.6c0.5-0.4,1.2-0.3,1.6,0.1l6,7.1h3.4C254.9,765.3,255.1,765.6,255.1,765.9z M251.4,767.6
		h-19.6l1.2,9h17.1L251.4,767.6z M237.5,774c0,0.6-0.5,1.1-1.1,1.1s-1.1-0.5-1.1-1.1v-3.8c0-0.6,0.5-1.1,1.1-1.1s1.1,0.5,1.1,1.1
		V774z M242.7,774c0,0.6-0.5,1.1-1.1,1.1s-1.1-0.5-1.1-1.1v-3.8c0-0.6,0.5-1.1,1.1-1.1s1.1,0.5,1.1,1.1V774z M248,774
		c0,0.6-0.5,1.1-1.1,1.1s-1.1-0.5-1.1-1.1v-3.8c0-0.6,0.5-1.1,1.1-1.1s1.1,0.5,1.1,1.1V774z"/>
</g>
<g>
	<path class="st25" d="M252.1,843.2v1.6c0,0.6-0.5,1.1-1.1,1.1s-1.1-0.5-1.1-1.1v-1.6c0-2.2-1.8-4-4.1-4h-0.6
		c-1.1,0.5-2.3,0.8-3.6,0.8s-2.5-0.3-3.6-0.8h-0.6c-2.2,0-4.1,1.8-4.1,4v1.6c0,0.6-0.5,1.1-1.1,1.1s-1.1-0.5-1.1-1.1v-1.6
		c0-2.7,1.8-5,4.2-5.9c-1-1-1.7-2.1-2.2-3.4h-0.5c-0.4,0-0.8-0.3-0.8-0.8v-4.5c0-0.4,0.3-0.8,0.8-0.8h0.5c1.2-3.5,4.6-6,8.5-6
		s7.2,2.5,8.5,6h0.5c0.4,0,0.8,0.3,0.8,0.8v4.5c0,0.4-0.3,0.8-0.8,0.8H250c-0.5,1.3-1.2,2.5-2.2,3.4
		C250.3,838.2,252.1,840.4,252.1,843.2z M248.3,830.9c0-3.7-3-6.8-6.8-6.8s-6.8,3-6.8,6.8s3,6.8,6.8,6.8S248.3,834.6,248.3,830.9z
		 M246.8,830.1v0.8c0,2.5-2,4.5-4.5,4.5h-1.5c-2.5,0-4.5-2-4.5-4.5v-0.8c0-1.2,1-2.2,2.2-2.2h6C245.8,827.9,246.8,828.9,246.8,830.1
		z M246.8,842.9v3H240v-2.2c0-0.4-0.3-0.8-0.8-0.8s-0.8,0.3-0.8,0.8v2.2h-2.2v-3c0-0.8,0.7-1.5,1.5-1.5h7.5
		C246.1,841.4,246.8,842,246.8,842.9z M242.3,831.6l-1.7-0.6l-0.6-1.7l-0.6,1.7l-1.7,0.6l1.7,0.6l0.6,1.7l0.6-1.7L242.3,831.6z
		 M244.6,843.6c0-0.4-0.3-0.8-0.8-0.8s-0.8,0.3-0.8,0.8s0.3,0.8,0.8,0.8S244.6,844,244.6,843.6z"/>
</g>
<g>
	<path class="st26" d="M31.1,180.3c0.3,0,0.6,0.2,0.6,0.6v1.1c0,0.3-0.2,0.6-0.6,0.6h-3.9c-1.2,0-2.2,1-2.2,2.2v9
		c0,1.2,1,2.2,2.2,2.2h3.9c0.3,0,0.6,0.2,0.6,0.6v1.1c0,0.3-0.2,0.6-0.6,0.6h-3.9c-2.5,0-4.5-2-4.5-4.5v-9c0-2.5,2-4.5,4.5-4.5
		L31.1,180.3L31.1,180.3z M38.8,181.2l7.7,7.7c0.2,0.2,0.2,0.6,0,0.8l-7.7,7.7c-0.2,0.2-0.6,0.2-0.8,0l-0.9-0.9
		c-0.2-0.2-0.2-0.6,0-0.8l5.3-5.1H30.7c-0.3,0-0.6-0.2-0.6-0.6v-1.3c0-0.3,0.2-0.6,0.6-0.6h11.7l-5.3-5.1c-0.2-0.2-0.2-0.6,0-0.8
		l0.9-0.9C38.2,181,38.6,181,38.8,181.2z"/>
</g>
<g>
	<path class="st26" d="M98.7,189.3c0,6.4-5.2,11.6-11.6,11.6s-11.6-5.2-11.6-11.6c0-6.4,5.2-11.6,11.6-11.6S98.7,182.9,98.7,189.3z
		 M96.4,189.3c0-5.2-4.2-9.4-9.4-9.4s-9.4,4.2-9.4,9.4s4.2,9.4,9.4,9.4C92.2,198.7,96.4,194.5,96.4,189.3z M88.7,191.1v0.3
		c0,0.3-0.2,0.6-0.6,0.6H86c-0.3,0-0.6-0.2-0.6-0.6V191c0-1.7,1.3-2.3,2.2-2.9c0.8-0.5,1.3-0.8,1.3-1.4c0-0.8-1-1.3-1.9-1.3
		c-1.1,0-1.6,0.5-2.3,1.4c-0.2,0.2-0.5,0.3-0.8,0.1l-1.3-1c-0.2-0.2-0.3-0.5-0.1-0.8c1.1-1.6,2.5-2.5,4.7-2.5c2.3,0,4.8,1.8,4.8,4.2
		C92.1,189.9,88.7,189.9,88.7,191.1z M87,196.6c-1.1,0-2-0.9-2-2s0.9-2,2-2s2,0.9,2,2S88.1,196.6,87,196.6z"/>
</g>
<g>
	<path class="st26" d="M142.7,201.3h-16c-1.2,0-2.2-1-2.2-2.2v-1.2c0-3.5,2.8-6.3,6.3-6.3c1.4,0,2,0.8,4.2,0.8c2.1,0,2.7-0.7,4-0.7
		c-0.3,1.1-0.3,2-0.3,2.3c-0.5,0.1-1.8,0.7-3.8,0.7c-2.4,0-3.5-0.8-4.2-0.8c-2.2,0-4.1,1.8-4.1,4.1v1.2h13.7
		C141,200,141.8,200.7,142.7,201.3z M128.2,184.1c0-3.7,3-6.8,6.8-6.8s6.8,3,6.8,6.8s-3,6.8-6.8,6.8S128.2,187.8,128.2,184.1z
		 M130.4,184.1c0,2.5,2,4.5,4.5,4.5s4.5-2,4.5-4.5s-2-4.5-4.5-4.5S130.4,181.6,130.4,184.1z M154.3,195.5c0.1,0.1,0.2,0.2,0.1,0.4
		c-0.3,1-0.9,1.9-1.6,2.7c-0.1,0.1-0.3,0.1-0.4,0.1l-1.2-0.7c-0.5,0.4-1.1,0.8-1.7,1v1.4c0,0.2-0.1,0.3-0.3,0.3
		c-1,0.2-2.1,0.2-3.1,0c-0.1,0-0.3-0.2-0.3-0.3V199c-0.6-0.2-1.2-0.6-1.7-1l-1.2,0.7c-0.1,0.1-0.3,0.1-0.4-0.1
		c-0.7-0.8-1.2-1.7-1.6-2.7c-0.1-0.2,0-0.3,0.1-0.4l1.2-0.7c-0.1-0.7-0.1-1.3,0-2l-1.2-0.7c-0.1-0.1-0.2-0.2-0.1-0.4
		c0.3-1,0.9-1.9,1.6-2.7c0.1-0.1,0.3-0.1,0.4-0.1l1.2,0.7c0.5-0.4,1.1-0.8,1.7-1v-1.4c0-0.2,0.1-0.3,0.3-0.3c1-0.2,2.1-0.2,3.1,0
		c0.1,0,0.3,0.2,0.3,0.3v1.4c0.6,0.2,1.2,0.6,1.7,1l1.2-0.7c0.1-0.1,0.3-0.1,0.4,0.1c0.7,0.8,1.2,1.7,1.6,2.7c0.1,0.2,0,0.3-0.1,0.4
		l-1.2,0.7c0.1,0.7,0.1,1.3,0,2L154.3,195.5z M150,193.8c0-1.2-1-2.3-2.3-2.3s-2.3,1-2.3,2.3s1,2.3,2.3,2.3S150,195.1,150,193.8z"/>
</g>
<g>
	<path class="st26" d="M205.3,188.6c0,1.1-0.6,2.1-1.5,2.6v7.2c0,0.4-0.3,1.5-1.5,1.5c-0.3,0-0.7-0.1-0.9-0.3l-4-3.2
		c-2-1.6-4.5-2.5-7.1-2.5H189c-0.1,0.5-0.2,1-0.2,1.5c0,1.4,0.5,2.6,1.2,3.6s0,2.4-1.2,2.4h-5c-0.6,0-1.1-0.3-1.3-0.8
		c-0.8-1.6-1.2-3.3-1.2-5.2v-1.5c-1.7,0-3-1.3-3-3v-4.5c0-1.7,1.3-3,3-3h9c2.6,0,5.1-0.9,7.1-2.5l4-3.2c0.3-0.2,0.6-0.3,0.9-0.3l0,0
		c1.2,0,1.5,1.1,1.5,1.5v7.2C204.7,186.5,205.3,187.5,205.3,188.6z M189.6,185.6h-8.2c-0.4,0-0.8,0.3-0.8,0.8v4.5
		c0,0.4,0.3,0.8,0.8,0.8h8.2V185.6z M187.5,199.1c-0.6-1.1-0.9-2.4-0.9-3.8c0-0.5,0.1-1,0.2-1.5h-3c0,0.3-0.1,0.8-0.1,1.5
		c0,1.3,0.3,2.6,0.8,3.8H187.5z M201.6,180.4l-2.8,2.2c-2,1.6-4.4,2.6-7,2.9v6.2c2.5,0.3,5,1.3,7,2.9l2.8,2.2V180.4z"/>
</g>
<g>
	<path class="st26" d="M256.2,189v10.7c0,0.9-0.7,1.6-1.5,1.6h-21c-0.8,0-1.5-0.7-1.5-1.6V189c-2.2-0.9-3.2-3.9-1.8-6.1l3-4.9
		c0.3-0.4,0.8-0.7,1.3-0.7h18.9c0.5,0,1,0.3,1.3,0.7l3,4.9C259.4,185.1,258.5,188.1,256.2,189z M256.1,184.1l-2.8-4.5h-18.1
		l-2.8,4.5c-0.4,0.7-0.3,1.5-0.1,2c0.1,0.3,0.5,0.9,1.3,1c0.1,0,0.2,0,0.3,0c0.7,0,1.3-0.3,1.8-0.8l1.7-1.9l1.7,1.9
		c0.5,0.5,1.1,0.8,1.8,0.8s1.3-0.3,1.8-0.8l1.7-1.9l1.7,1.9c0.5,0.5,1.1,0.8,1.8,0.8s1.3-0.3,1.8-0.8l1.7-1.9l1.7,1.9
		c0.5,0.5,1.1,0.8,1.8,0.8c0.1,0,0.2,0,0.3,0c0.8-0.1,1.1-0.7,1.3-1C256.5,185.6,256.5,184.8,256.1,184.1z M254,189.3
		c-1.1-0.2-2.1-0.7-2.8-1.5c-0.8,0.9-2.1,1.6-3.5,1.6s-2.6-0.6-3.5-1.6c-0.8,0.9-2.1,1.6-3.5,1.6s-2.6-0.6-3.5-1.6
		c-0.7,0.8-1.7,1.4-2.8,1.5v3H254V189.3L254,189.3z M254,194.6h-19.5v4.5H254V194.6z"/>
</g>
<line class="st27" x1="0" y1="160.3" x2="274.3" y2="160.3"/>
<line class="st27" x1="0" y1="224.3" x2="274.3" y2="224.3"/>
<line class="st27" x1="0" y1="288.3" x2="274.3" y2="288.3"/>
<line class="st27" x1="0" y1="352.3" x2="274.3" y2="352.3"/>
<line class="st27" x1="0" y1="416.3" x2="274.3" y2="416.3"/>
<line class="st27" x1="0" y1="480.3" x2="274.3" y2="480.3"/>
<line class="st27" x1="0" y1="544.3" x2="274.3" y2="544.3"/>
<line class="st27" x1="0" y1="608.3" x2="274.3" y2="608.3"/>
<line class="st27" x1="0" y1="672.3" x2="274.3" y2="672.3"/>
<line class="st27" x1="0" y1="736.3" x2="274.3" y2="736.3"/>
<line class="st27" x1="0" y1="800.3" x2="274.3" y2="800.3"/>
<line class="st27" x1="0" y1="864.4" x2="274.3" y2="864.4"/>
<line class="st27" x1="0" y1="928.5" x2="274.3" y2="928.5"/>
<g>
	<text transform="matrix(1 0 0 1 30.1503 263.1656)" class="st26 st5 st28">Dashboard</text>
</g>
<g>
	<text transform="matrix(1 0 0 1 31.6098 323.1609)" class="st25 st5 st28">Orders</text>
</g>
<g>
	<text transform="matrix(1 0 0 1 32.3466 389.5623)" class="st25 st5 st28">Customers</text>
</g>
<g>
	<text transform="matrix(1 0 0 1 33.0126 455.5443)" class="st25 st5 st28">Products</text>
</g>
<g>
	<text transform="matrix(1 0 0 1 31.6098 517.3214)" class="st25 st5 st28">Categories</text>
</g>
<g>
	<text transform="matrix(1 0 0 1 31.6098 581.1966)" class="st25 st5 st28">Pages</text>
</g>
<g>
	<text transform="matrix(1 0 0 1 31.6098 645.7591)" class="st25 st5 st28">Blog</text>
</g>
<g>
	<text transform="matrix(1 0 0 1 31.6098 708.0712)" class="st25 st5 st28">Appearance</text>
</g>
<g>
	<text transform="matrix(1 0 0 1 31.6098 775.0717)" class="st25 st5 st28">Checkout</text>
</g>
<g>
	<text transform="matrix(1 0 0 1 31.6098 838.1203)" class="st25 st5 st28">Autopilot</text>
</g>
<g>
	<text transform="matrix(1 0 0 1 31.6903 903.4362)" class="st25 st5 st28">Settings</text>
</g>
<g>
	<path class="st25" d="M253.5,902.6c-0.5,1.7-1.4,3.2-2.6,4.5c-0.2,0.2-0.5,0.2-0.7,0.1l-2-1.2c-0.9,0.7-1.8,1.3-2.9,1.7v2.3
		c0,0.3-0.2,0.5-0.4,0.5c-1.6,0.4-3.4,0.4-5.1,0c-0.3-0.1-0.4-0.3-0.4-0.5v-2.3c-1.1-0.4-2-0.9-2.9-1.7l-2,1.2
		c-0.2,0.1-0.5,0.1-0.7-0.1c-1.2-1.3-2.1-2.8-2.6-4.5c-0.1-0.2,0-0.5,0.3-0.7l2-1.2c-0.2-1.1-0.2-2.2,0-3.3l-2-1.2
		c-0.2-0.1-0.3-0.4-0.3-0.7c0.5-1.7,1.4-3.2,2.6-4.5c0.2-0.2,0.5-0.2,0.7-0.1l2,1.2c0.9-0.7,1.8-1.3,2.9-1.7v-2.3
		c0-0.3,0.2-0.5,0.4-0.5c1.6-0.4,3.4-0.4,5.1,0c0.3,0.1,0.4,0.3,0.4,0.5v2.3c1.1,0.4,2,0.9,2.9,1.7l2-1.2c0.2-0.1,0.5-0.1,0.7,0.1
		c1.2,1.3,2.1,2.8,2.6,4.5c0.1,0.2,0,0.5-0.3,0.7l-2,1.2c0.2,1.1,0.2,2.2,0,3.3l2,1.2C253.4,902.1,253.5,902.4,253.5,902.6z
		 M246.1,899.1c0-2.1-1.7-3.8-3.8-3.8s-3.8,1.7-3.8,3.8s1.7,3.8,3.8,3.8S246.1,901.2,246.1,899.1z"/>
</g>
<g>
	<path class="st24" d="M49.8,79.1c-1.3,0.9-2.8,1.7-4.2,2.2c-1.6,0.5-3.2,0.8-4.9,0.8c-2.3,0.1-4.5-0.5-6.6-1.5
		c-1.9-0.9-3.7-2.2-5.1-3.8c-1.5-1.6-2.6-3.4-3.3-5.4c-0.8-2-1.2-4.1-1.2-6.3c0-2.2,0.4-4.4,1.2-6.4c0.8-2,1.9-3.8,3.4-5.4
		c1.5-1.5,3.2-2.8,5.1-3.7c2-0.9,4.2-1.4,6.4-1.4c2.3,0,4.5,0.5,6.6,1.5c1.9,0.9,3.7,2.3,5.1,3.9c1.4,1.6,2.5,3.4,3.3,5.5
		c0.8,2,1.2,4.1,1.2,6.2c0,2.2-0.4,4.4-1.3,6.4c-0.8,2-1.9,3.8-3.4,5.4l4.3,4.7h-4.2L49.8,79.1z M40.6,78.2c1.2,0,2.4-0.2,3.5-0.6
		s2.1-0.9,3-1.6l-4.6-5.2h4.2l2.6,3c1.9-2.5,3-5.6,3-8.8c0-1.7-0.3-3.3-0.9-4.9c-0.5-1.5-1.3-3-2.4-4.2c-1-1.2-2.3-2.2-3.7-2.9
		c-1.5-0.8-3.1-1.1-4.7-1.1c-1.7,0-3.4,0.4-4.9,1.2s-2.7,1.7-3.7,3s-1.8,2.7-2.4,4.2c-1.1,3.2-1.1,6.6,0,9.7c0.5,1.6,1.4,3,2.4,4.2
		s2.3,2.2,3.7,2.9C37.3,77.9,38.9,78.3,40.6,78.2z"/>
	<path class="st24" d="M67.9,82.3c-2.7,0-4.6-0.8-6-2.6s-2-4.3-2-7.7V57.2h4.2v13.9c0,5,1.8,7.5,5.4,7.5c1.8,0,3.5-0.6,4.9-1.6
		c1.6-1.1,2.8-2.7,3.4-4.5V57.2H82v19.5c0,1,0.4,1.5,1.3,1.5v3.6c-0.5,0.1-0.9,0.1-1.1,0.1s-0.5,0-0.8,0c-0.8,0.1-1.5-0.2-2.1-0.8
		c-0.5-0.5-0.9-1.1-0.9-1.8l-0.1-2.9c-1.1,1.8-2.6,3.2-4.4,4.2C72.1,81.8,70,82.3,67.9,82.3z"/>
	<path class="st24" d="M87.2,52.6v-5.2h4.2v5.2H87.2z M87.2,81.8V57.2h4.2v24.6H87.2z"/>
	<path class="st24" d="M94.7,69.5c0-1.7,0.3-3.3,0.9-4.9c0.6-1.5,1.4-2.9,2.6-4c1.2-1.2,2.5-2.1,4.1-2.7c1.6-0.7,3.4-1,5.3-1
		c2.3,0,4.5,0.5,6.5,1.7c1.8,1,3.2,2.5,4.2,4.3l-4.2,1.3c-0.6-1.1-1.6-2.1-2.7-2.7c-1.2-0.7-2.5-1-3.9-0.9c-2.3,0-4.4,0.9-5.9,2.6
		c-0.8,0.8-1.3,1.8-1.7,2.9c-0.4,1.2-0.7,2.4-0.7,3.6s0.2,2.4,0.7,3.6c0.4,1.1,1,2.1,1.8,3c0.7,0.8,1.6,1.5,2.7,2s2.1,0.7,3.3,0.7
		c0.7,0,1.5-0.1,2.2-0.3c0.7-0.2,1.3-0.5,2-0.8c0.6-0.3,1.1-0.8,1.6-1.2c0.4-0.4,0.8-0.9,1-1.5l4.2,1.2c-0.4,0.9-0.9,1.7-1.6,2.5
		s-1.5,1.4-2.4,1.9c-1,0.6-2,1-3.1,1.3c-1.2,0.3-2.4,0.5-3.7,0.5c-3.5,0.1-6.9-1.3-9.3-3.8c-1.2-1.2-2-2.5-2.6-4.1
		C95,72.8,94.7,71.2,94.7,69.5z"/>
	<path class="st24" d="M139.1,81.8l-8.7-12l-4.8,4.4v7.6h-4.2V47.4h4.2V70l12.9-12.8h4.7l-10.1,10.2l10.5,14.4H139.1z"/>
	<path class="st26" d="M158.3,82.3c-1.9,0-3.7-0.5-5.4-1.4c-1.6-0.9-2.9-2.2-3.8-3.7v4.6h-3.8V47.4h4.2v14.7c1-1.5,2.3-2.9,3.9-3.9
		c3.1-1.8,6.9-1.9,10.1-0.4c1.4,0.7,2.6,1.7,3.6,2.8c1,1.2,1.8,2.6,2.3,4.1c0.5,1.6,0.8,3.2,0.8,4.8c0,1.7-0.3,3.3-0.9,4.9
		c-0.6,1.5-1.4,2.8-2.5,4.1c-1.1,1.1-2.4,2.1-3.8,2.7C161.6,81.9,160,82.3,158.3,82.3z M157.3,78.7c1.2,0,2.4-0.2,3.5-0.8
		c1.1-0.5,2-1.2,2.8-2s1.4-1.8,1.8-2.9c0.4-1.1,0.6-2.3,0.6-3.4s-0.2-2.3-0.6-3.4c-0.4-1.1-1-2.1-1.7-3c-0.7-0.8-1.6-1.5-2.6-2.1
		s-2.2-0.8-3.4-0.8c-0.9,0-1.7,0.1-2.6,0.5c-0.8,0.3-1.6,0.8-2.2,1.2c-0.7,0.5-1.3,1.1-1.8,1.8s-1,1.4-1.4,2.2v7.1
		c0.1,0.8,0.5,1.6,1,2.2c0.5,0.7,1.2,1.2,1.9,1.7s1.5,0.8,2.3,1.2C155.6,78.6,156.4,78.7,157.3,78.7z"/>
	<path class="st26" d="M181.3,82.3c-2.7,0-4.6-0.8-6-2.6s-2-4.3-2-7.7V57.2h4.2v13.9c0,5,1.8,7.5,5.4,7.5c1.7,0,3.5-0.6,4.9-1.6
		c1.6-1.1,2.8-2.7,3.4-4.5V57.2h4.2v19.5c0,1,0.4,1.5,1.4,1.5v3.6c-0.5,0.1-0.9,0.1-1.2,0.1c-0.3,0.1-0.5,0-0.8,0
		c-0.8,0-1.5-0.2-2.1-0.8c-0.5-0.5-0.9-1.1-0.9-1.8l-0.1-2.9c-1.1,1.8-2.6,3.2-4.4,4.2C185.5,81.8,183.4,82.3,181.3,82.3z"/>
	<path class="st26" d="M213.7,80.6c-0.2,0.1-0.6,0.3-1,0.4s-0.9,0.3-1.4,0.5c-0.6,0.2-1.2,0.3-1.7,0.4c-0.6,0.1-1.3,0.2-1.9,0.1
		c-1.4,0.1-2.9-0.4-4-1.3c-1.1-0.8-1.7-2.1-1.7-3.9V60.5h-3.4v-3.2h3.4V49h4.2v8.2h5.6v3.2h-5.6v15.3c0,0.8,0.3,1.5,0.9,2
		c0.5,0.4,1.3,0.6,1.9,0.6c0.8,0,1.6-0.1,2.3-0.4c0.5-0.2,1-0.4,1.4-0.6L213.7,80.6z"/>
	<path class="st26" d="M215.8,52.6v-5.2h4.2v5.2H215.8z M215.8,81.8V57.2h4.2v24.6H215.8z"/>
	<path class="st26" d="M242.7,81.8l-8.7-12l-4.8,4.4v7.6H225V47.4h4.2V70l12.9-12.8h4.7l-10.1,10.2l10.5,14.4
		C247.3,81.8,242.7,81.8,242.7,81.8z"/>
</g>
<path class="st25" d="M195.4,135.4H77.5c-5.6,0-10.1-4.5-10.1-10.1l0,0c0-5.6,4.5-10.1,10.1-10.1h117.9c5.6,0,10.1,4.5,10.1,10.1
	l0,0C205.5,130.9,200.9,135.4,195.4,135.4z"/>
<g class="st29">
	<g class="st30">
		<g>
			<path class="st26" d="M747.7,100.1c-1.4-3.7-3.4-7.2-6-10.5v-4.1c0-2.1-0.9-4-2.4-5.6l0.1-0.4c0.2-1.6-0.3-3.2-1.4-4.5
				c-1.2-1.3-2.9-2.1-4.7-2.1h-0.2c0.2-0.2,0.3-0.4,0.4-0.6c0.2-0.2,0.3-0.4,0.5-0.6c1.9-2.6,3.4-5.5,4.3-8.5
				c1.8-0.3,3.5-1.2,4.8-2.6c1.5-1.6,2.2-3.7,2.1-5.8l-0.3-5.9c-0.1-2.2-1-4.1-2.6-5.6c-1.4-1.3-3.2-2-5.1-2.1
				c-1.5-3.4-3.5-6.6-6.2-9.3c-5.8-6.1-13.6-9.5-22-9.7c-0.3,0-0.5,0-0.8,0c-8.1,0-15.8,3.1-21.6,8.7c-3.8,3.6-6.7,8.2-8.2,13.1
				c-1.9,0.2-3.6,1.1-4.9,2.6c-1.5,1.6-2.2,3.7-2.1,5.8l0.3,5.9c0.2,4.2,3.6,7.5,7.8,7.7c1.1,2.5,2.4,4.8,4.1,6.9h-0.1
				c-1.8,0-3.5,0.8-4.7,2.1c-1.1,1.2-1.6,2.7-1.5,4.3c-0.6,0.5-1.1,1-1.6,1.6c-1,1.4-1.6,3-1.6,4.7v5.3c-2.1,2.9-3.9,6.1-5.1,9.4
				c-1.9,5.1-2,9.2-0.3,12h-0.6c2.4,2,5,3.9,7.7,5.5c9.8-0.2,20.8-0.3,32.5-0.3s22.7,0.1,32.5,0.3c2.7-1.6,5.3-3.5,7.7-5.5H748
				C749.8,109.2,749.7,105.2,747.7,100.1z"/>
		</g>
		<g>
			<g>
				<path class="st26" d="M740.1,85.4v21.5c0,1-0.3,2-0.7,2.8c-1.3,2.4-4.1,4-7.4,4h-48.2c-2.7,0-5.2-1.2-6.6-2.9
					c-0.9-1.1-1.4-2.4-1.4-3.9V85.4c0-1.3,0.5-2.6,1.3-3.6c1.4-1.9,4-3.2,6.8-3.2H732c0.4,0,0.8,0,1.1,0.1
					C737,79.1,740.1,82,740.1,85.4z"/>
				<path class="st31" d="M732,114.5h-48.2c-2.9,0-5.5-1.2-7.2-3.2c-1.1-1.3-1.6-2.8-1.6-4.3V85.4c0-1.4,0.5-2.9,1.4-4.1
					c1.6-2.2,4.4-3.5,7.4-3.5H732c0.4,0,0.8,0,1.2,0.1c4.3,0.5,7.6,3.7,7.6,7.5v21.5c0,1.1-0.3,2.2-0.8,3.2
					C738.5,112.7,735.4,114.5,732,114.5z M683.8,79.3c-2.6,0-4.9,1.1-6.2,2.9c-0.7,1-1.1,2.1-1.1,3.2v21.5c0,1.2,0.4,2.4,1.3,3.4
					c1.4,1.7,3.7,2.7,6.1,2.7H732c2.9,0,5.5-1.4,6.7-3.6c0.4-0.8,0.6-1.6,0.6-2.5V85.4c0-3-2.7-5.6-6.3-6c-0.3,0-0.7-0.1-1.1-0.1
					H683.8z"/>
			</g>
			<g>
				<path class="st26" d="M708.5,72.6c16.5,2.7,31.8,12.7,37.6,28.1c4.7,12.4-3.8,13.1-3.8,13.1h-34.1h0.3h-34.1
					c0,0-8.5-0.7-3.8-13.1c5.8-15.4,21.2-25.4,37.6-28.1"/>
			</g>
			<g class="st32">
				<path class="st31" d="M742.3,113.7h-67.9c0,0-6-0.5-5.2-7.9c0,0.1,0,0.2,0,0.3c0.6,3.6,5.5,4.3,7.2,1.1l0.7-1.5h62.3l0.8,1.6
					c1.7,3.3,6.6,2.5,7.2-1.1c0-0.1,0-0.2,0-0.3C748.3,113.3,742.3,113.7,742.3,113.7z"/>
			</g>
			<g>
				<path class="st26" d="M671.6,106.3c0,0,3.2-9.8,12-9.8c8.1,0,11.2,4,9.3,9.5c-0.9,2.8-11,5.4-15.7-0.3"/>
			</g>
			<g class="st32">
				<path class="st31" d="M692.9,106c-0.9,2.8-11,5.4-15.7-0.3l0,0c0-1,1.1-1.6,1.9-1c5.1,3.3,12.9,1,13.8-1.4
					c0.2-0.5,0.3-1,0.4-1.5C693.5,103,693.4,104.5,692.9,106z"/>
			</g>
			<g>
				<path class="st31" d="M671.4,106.2c0-1.2,0.4-2.2,0.9-3.1c0.5-1,1.2-1.9,1.9-2.7c0.7-0.8,1.5-1.6,2.4-2.3
					c0.9-0.7,1.9-1.2,2.9-1.6s2.2-0.6,3.3-0.7h0.8c0.3,0,0.5,0,0.8,0c0.5,0,1.1,0.1,1.6,0.1c1.1,0.1,2.2,0.3,3.2,0.7
					c1.1,0.4,2.1,1,2.9,1.8c0.9,0.8,1.5,1.9,1.7,3.1c0.3,1.2,0.2,2.3,0,3.4c-0.1,0.3-0.1,0.5-0.2,0.8l-0.1,0.4v0.1
					c0,0,0,0.1-0.1,0.1l-0.1,0.3c-0.4,0.6-0.9,1-1.3,1.4c-1,0.7-2,1-3.1,1.3c-2.1,0.5-4.4,0.7-6.6,0.2c-0.3-0.1-0.5-0.1-0.8-0.2
					s-0.5-0.2-0.8-0.3c-0.3-0.1-0.5-0.2-0.8-0.3c-0.3-0.1-0.5-0.2-0.8-0.4c-0.2-0.1-0.5-0.3-0.7-0.5s-0.4-0.4-0.6-0.6
					c-0.4-0.4-0.7-0.9-0.9-1.5c0-0.1,0.1-0.3,0.2-0.3c0.1,0,0.1,0,0.2,0l0,0c0.3,0.1,0.5,0.2,0.7,0.3c0.2,0.1,0.4,0.3,0.6,0.4
					c0.1,0.1,0.2,0.1,0.3,0.2s0.2,0.1,0.3,0.2s0.2,0.1,0.3,0.2s0.2,0.1,0.3,0.2c0.8,0.5,1.8,0.9,2.7,1.1c1.9,0.4,4,0.3,5.9-0.2
					c1-0.3,1.9-0.6,2.7-1.1c0.4-0.3,0.7-0.6,0.9-0.9v-0.1c0,0,0,0,0-0.1v-0.1l0.1-0.4c0.1-0.2,0.1-0.5,0.2-0.7
					c0.2-0.9,0.2-1.9,0-2.8s-0.7-1.7-1.3-2.4c-0.7-0.6-1.5-1.1-2.4-1.5c-0.9-0.3-1.9-0.5-2.9-0.7c-0.5-0.1-1-0.1-1.5-0.1h-0.8h-0.7
					c-1,0.1-1.9,0.3-2.9,0.6c-1.8,0.7-3.5,1.9-4.7,3.5c-0.3,0.4-0.6,0.8-0.9,1.2c-0.3,0.4-0.6,0.8-0.8,1.3c-0.5,0.9-1.1,1.7-1.8,2.5
					l0,0c-0.1,0.1-0.2,0.1-0.4,0C671.4,106.4,671.4,106.3,671.4,106.2z"/>
			</g>
			<g>
				<path class="st26" d="M745,106.3c0,0-3.2-9.8-12-9.8c-8.1,0-11.2,4-9.3,9.5c0.9,2.8,11,5.4,15.7-0.3"/>
			</g>
			<g>
				<path class="st26" d="M745,106.3c0,0-3.2-9.8-12-9.8c-8.1,0-11.2,4-9.3,9.5c0.9,2.8,11,5.4,15.7-0.3L745,106.3z"/>
			</g>
			<g class="st32">
				<path class="st31" d="M739.5,105.7c-4.7,5.7-14.8,3.1-15.7,0.3c-0.5-1.6-0.7-3-0.4-4.3c0.1,0.5,0.2,1,0.4,1.5
					c0.8,2.4,8.7,4.7,13.8,1.4C738.4,104.1,739.5,104.7,739.5,105.7L739.5,105.7z"/>
			</g>
			<g>
				<path class="st31" d="M744.8,106.4c-0.7-0.8-1.2-1.7-1.8-2.5c-0.3-0.4-0.5-0.8-0.8-1.3c-0.3-0.4-0.6-0.8-0.9-1.2
					c-1.3-1.6-2.9-2.8-4.7-3.5c-0.9-0.4-1.9-0.6-2.9-0.6H733h-0.8c-0.5,0-1,0-1.5,0.1c-1,0.1-2,0.3-2.9,0.7
					c-0.9,0.3-1.8,0.8-2.4,1.5c-0.7,0.6-1.1,1.5-1.3,2.4s-0.2,1.9,0,2.8c0,0.2,0.1,0.5,0.2,0.7l0.1,0.4v0.1c0,0,0,0,0,0.1v0.1
					c0.2,0.3,0.5,0.6,0.9,0.9c0.8,0.5,1.7,0.9,2.7,1.1c1.9,0.5,4,0.6,5.9,0.2c1-0.2,1.9-0.5,2.7-1.1c0.1-0.1,0.2-0.1,0.3-0.2
					s0.2-0.1,0.3-0.2s0.2-0.1,0.3-0.2s0.2-0.1,0.3-0.2c0.2-0.1,0.4-0.3,0.6-0.4c0.2-0.1,0.5-0.3,0.7-0.3l0,0c0.1,0,0.3,0,0.3,0.2
					c0,0.1,0,0.1,0,0.2c-0.1,0.6-0.5,1.1-0.9,1.5c-0.2,0.2-0.4,0.4-0.6,0.6c-0.2,0.2-0.5,0.3-0.7,0.5c-0.2,0.1-0.5,0.2-0.8,0.4
					c-0.3,0.1-0.5,0.2-0.8,0.3c-0.3,0.1-0.5,0.2-0.8,0.3c-0.3,0.1-0.5,0.1-0.8,0.2c-2.2,0.5-4.4,0.4-6.6-0.2
					c-1.1-0.3-2.1-0.7-3.1-1.3c-0.5-0.3-1-0.7-1.3-1.4l-0.1-0.3c0,0,0-0.1-0.1-0.1v-0.1l-0.1-0.4c-0.1-0.3-0.2-0.5-0.2-0.8
					c-0.2-1.1-0.3-2.3,0-3.4c0.3-1.2,0.9-2.3,1.7-3.1c0.8-0.8,1.9-1.4,2.9-1.8c1.1-0.4,2.1-0.6,3.2-0.7c0.5-0.1,1.1-0.1,1.6-0.1
					c0.3,0,0.5,0,0.8,0h0.8c1.1,0.1,2.2,0.3,3.3,0.7c1,0.4,2,1,2.9,1.6c0.9,0.7,1.7,1.4,2.4,2.3c0.7,0.8,1.4,1.7,1.9,2.7
					s0.9,2,0.9,3.1c0,0.1-0.1,0.3-0.2,0.3C744.9,106.5,744.9,106.5,744.8,106.4L744.8,106.4z"/>
			</g>
			<g>
				<path class="st31" d="M742.3,114.5h-68c-0.1,0-3.1-0.3-4.8-2.9c-1.6-2.5-1.5-6.3,0.3-11.1C675.3,85.9,690,74.9,708,72
					c0.1,0,0.2,0,0.3,0s0.2,0,0.3,0c18,3,32.6,13.9,38.2,28.5c1.8,4.8,1.9,8.6,0.3,11.1C745.4,114.2,742.5,114.5,742.3,114.5
					L742.3,114.5z M708.5,113h33.8c0.3,0,2.4-0.3,3.7-2.3c1.3-2.1,1.2-5.5-0.5-9.8c-5.4-14.1-19.6-24.7-37.1-27.6c0,0,0,0-0.1,0
					c0,0,0,0-0.1,0c-17.5,2.9-31.7,13.5-37.1,27.6c-1.6,4.3-1.8,7.7-0.5,9.8c1.2,2,3.4,2.3,3.7,2.3H708.5z"/>
			</g>
			<g>
				<g>
					<path class="st26" d="M737.5,61.4L737.5,61.4c-0.3,0-0.6-0.2-0.6-0.6L736,43.5c0-0.3,0.2-0.6,0.6-0.6l0,0
						c3.5-0.2,6.5,2.5,6.6,6l0.3,5.9C743.7,58.3,741,61.3,737.5,61.4z"/>
					<path class="st31" d="M737.4,61.6c-0.4,0-0.7-0.3-0.7-0.7l-0.8-17.4c0-0.4,0.3-0.7,0.7-0.8c3.6-0.2,6.6,2.6,6.8,6.2l0.3,5.9
						c0.1,1.7-0.5,3.4-1.7,4.7C740.8,60.7,739.2,61.5,737.4,61.6L737.4,61.6C737.5,61.6,737.5,61.6,737.4,61.6z M736.9,42.9
						c-0.1,0-0.2,0-0.3,0c-0.3,0-0.5,0.2-0.5,0.5l0.8,17.4c0,0.3,0.2,0.5,0.5,0.5l0,0c3.4-0.2,6.1-3.1,5.9-6.5l-0.3-5.9
						C743,45.5,740.2,42.9,736.9,42.9z"/>
				</g>
				<g class="st32">
					<path class="st31" d="M743.4,52l0.1,2.8c0.2,3.5-2.5,6.5-6,6.6c-0.3,0-0.6-0.2-0.6-0.6l-0.2-4.6c0.1,0.2,0.3,0.3,0.6,0.3h0.4
						C740.4,56.4,742.6,54.5,743.4,52z"/>
				</g>
				<g>
					<path class="st31" d="M737.4,62.2c-0.7,0-1.3-0.6-1.3-1.3l-0.8-17.4c0-0.7,0.5-1.4,1.3-1.4c3.9-0.2,7.2,2.8,7.4,6.7l0.3,5.9
						C744.4,58.7,741.4,62,737.4,62.2L737.4,62.2C737.5,62.2,737.5,62.2,737.4,62.2z M736.8,43.5l0.8,17.2c3-0.2,5.4-2.8,5.2-5.9
						l-0.3-5.9C742.4,45.8,739.8,43.5,736.8,43.5z"/>
				</g>
				<g>
					<path class="st26" d="M679.1,45.5L679.1,45.5c0.3,0,0.6,0.2,0.6,0.6l0.8,17.4c0,0.3-0.2,0.6-0.6,0.6l0,0
						c-3.5,0.2-6.5-2.5-6.6-6l-0.3-5.9C672.9,48.7,675.6,45.7,679.1,45.5z"/>
					<path class="st31" d="M679.7,64.3c-3.4,0-6.3-2.7-6.5-6.2l-0.3-5.9c-0.1-1.7,0.5-3.4,1.7-4.7s2.8-2,4.5-2.1l0,0
						c0.4,0,0.7,0.3,0.8,0.7l0.8,17.4c0,0.4-0.3,0.7-0.7,0.8C679.9,64.3,679.8,64.3,679.7,64.3z M679.1,45.7
						c-3.4,0.2-6.1,3.1-5.9,6.5l0.3,5.9c0.2,3.4,3.1,6.1,6.5,5.9c0.3,0,0.5-0.2,0.5-0.5l-0.8-17.4C679.6,45.8,679.4,45.6,679.1,45.7
						L679.1,45.7z"/>
				</g>
				<g class="st32">
					<path class="st31" d="M680.4,58.7l0.2,4.8c0,0.3-0.2,0.6-0.6,0.6c-1.8,0.1-3.5-0.6-4.8-1.8c-1.1-1.1-1.8-2.6-1.9-4.2l-0.1-2.5
						c1.1,2.1,3.4,3.6,6,3.5h0.6C680.1,59,680.3,58.9,680.4,58.7z"/>
				</g>
				<g>
					<path class="st31" d="M679.7,64.9c-3.7,0-6.9-3-7.1-6.7l-0.3-5.9c-0.2-3.9,2.8-7.2,6.7-7.4l0,0c0.7,0,1.4,0.5,1.4,1.3l0.8,17.4
						c0,0.7-0.5,1.4-1.3,1.4C679.9,64.9,679.8,64.9,679.7,64.9z M679,46.3c-3,0.2-5.4,2.8-5.2,5.9l0.3,5.9c0.1,3.1,2.7,5.4,5.8,5.4
						L679,46.3z"/>
				</g>
				<g>
					<circle class="st26" cx="708.3" cy="53.5" r="29.7"/>
					<path class="st31" d="M708.3,83.3c-0.2,0-0.5,0-0.7,0c-16.4-0.4-29.5-14.1-29.1-30.5c0.2-8,3.5-15.4,9.2-20.9
						c5.8-5.5,13.3-8.4,21.3-8.2s15.4,3.5,20.9,9.2c5.5,5.8,8.4,13.3,8.2,21.3l0,0C737.7,70.4,724.4,83.3,708.3,83.3z M708.3,23.9
						c-7.6,0-14.8,2.9-20.4,8.2c-5.7,5.5-9,12.8-9.2,20.7c-0.4,16.3,12.6,29.9,28.9,30.3c16.3,0.4,29.9-12.6,30.3-28.9h0.1h-0.1
						c0.2-7.9-2.7-15.4-8.2-21.1s-12.8-9-20.7-9.2C708.8,23.9,708.5,23.9,708.3,23.9z"/>
				</g>
				<g class="st32">
					<path class="st31" d="M737.8,50.1c0.2,1.3,0.2,2.7,0.2,4.1c-0.4,16.4-14,29.4-30.4,29s-29.4-14-29-30.4c0-0.5,0-0.9,0.1-1.4
						c1.7,14.5,13.8,25.9,28.8,26.3C723.4,78,736.7,65.8,737.8,50.1z"/>
				</g>
				<g>
					<path class="st31" d="M708.3,83.9c-0.2,0-0.5,0-0.7,0c-16.8-0.4-30.1-14.4-29.7-31.1c0.4-16.8,14.4-30.1,31.1-29.7
						c8.1,0.2,15.7,3.5,21.3,9.4s8.6,13.6,8.4,21.7l0,0C738.3,70.7,724.8,83.9,708.3,83.9z M708.3,24.5c-7.5,0-14.5,2.8-20,8
						c-5.6,5.3-8.8,12.5-9,20.3c-0.4,16,12.3,29.3,28.3,29.7s29.3-12.3,29.7-28.3S725,24.9,709,24.5
						C708.8,24.5,708.5,24.5,708.3,24.5z M738,54.2L738,54.2L738,54.2z"/>
				</g>
				<g>
					<path class="st24" d="M737.9,55c-0.1,5.8-2,11.2-5.3,15.6c-2.4,3.3-12.4,9.1-24.7,9.1c-11.4,0-21.7-6.2-24.1-9.5
						c-3.2-4.5-5-9.9-5-15.7c0.1-15.4,13.4-21.6,29.7-21.5C724.9,33.1,738,39.6,737.9,55z"/>
				</g>
				<g>
					<path class="st31" d="M707.9,80.4c-11.8,0-22.2-6.3-24.7-9.8c-3.4-4.8-5.2-10.4-5.1-16.1c0.1-7.5,3.1-13.3,9.1-17.2
						c5.2-3.4,12.6-5.1,21.3-5s16.1,2,21.2,5.4c5.9,4,8.9,9.8,8.8,17.3l0,0c-0.1,5.8-1.9,11.3-5.4,16.1
						C730.8,74.3,720.9,80.4,707.9,80.4L707.9,80.4z M708,33.7c-8.2,0-15.1,1.7-20,4.8c-5.6,3.6-8.4,9-8.5,16
						c0,5.5,1.6,10.8,4.8,15.3c2.3,3.2,12.4,9.2,23.5,9.2l0,0c12.3,0,22-5.8,24.1-8.8c3.3-4.5,5.1-9.7,5.1-15.2
						c0.2-19-20-21.2-28.6-21.3C708.4,33.7,708.2,33.7,708,33.7z M737.9,55L737.9,55L737.9,55z"/>
				</g>
				<g class="st33">
					
						<ellipse transform="matrix(0.187 -0.9824 0.9824 0.187 540.3679 758.4199)" class="st26" cx="728.4" cy="52.7" rx="5.3" ry="3.8"/>
				</g>
				<g class="st33">
					
						<ellipse transform="matrix(0.3209 -0.9471 0.9471 0.3209 431.5961 728.1282)" class="st26" cx="723.5" cy="63.1" rx="2.4" ry="2.1"/>
				</g>
				<g class="st32">
					<path class="st34" d="M732.3,40.6c3.6,3.5,5.7,8.2,5.6,14.4c-0.1,5.8-2,11.2-5.3,15.6c-2.4,3.3-12.4,9.1-24.7,9.1
						c-4.3,0-8.5-0.9-12.2-2.2C710.8,77.2,723,70.1,726,66c4.1-5.6,6.6-12.5,6.7-19.8C732.7,44.2,732.6,42.3,732.3,40.6z"/>
				</g>
				<g>
					<path class="st31" d="M735.5,42.2c-0.2,0-0.3-0.1-0.5-0.2l-0.1-0.1l-0.1-0.1c-4.9-7.1-14.6-11.2-26.5-11.3
						c-11.9-0.1-21.6,4-26.6,11.2l0,0c-0.3,0.3-0.7,0.4-1,0.1c-0.3-0.2-0.4-0.7-0.1-1c5.3-7.6,15.4-11.9,27.8-11.8
						c12.3,0.1,22.4,4.4,27.6,11.9c0.2,0.3,0.2,0.6,0,0.9C735.9,42.1,735.7,42.2,735.5,42.2z"/>
				</g>
				<g class="st33">
					<path class="st26" d="M685.4,63.6c0,0-4.6-15.2,3.6-21.2c8.2-6,20-5.8,19.7-5.1c0,0-13.1,3-18.2,13.3
						C686.5,58.6,685.4,63.6,685.4,63.6z"/>
				</g>
			</g>
			<g>
				<path class="st35" d="M755.1,119.3h-93.7c-1.5,0-2.8-1.2-2.8-2.8l0,0c0-1.5,1.2-2.8,2.8-2.8h93.7c1.5,0,2.8,1.2,2.8,2.8l0,0
					C757.9,118.1,756.7,119.3,755.1,119.3z"/>
				<path class="st31" d="M755.2,119.4h-93.7c-1.6,0-2.8-1.3-2.8-2.8v-0.1c0-1.6,1.3-2.8,2.8-2.8h93.7c1.6,0,2.8,1.3,2.8,2.8v0.1
					C758,118.2,756.8,119.4,755.2,119.4z M661.4,113.9c-1.5,0-2.6,1.2-2.6,2.6v0.1c0,1.5,1.2,2.6,2.6,2.6h93.7
					c1.5,0,2.6-1.2,2.6-2.6v-0.1c0-1.5-1.2-2.6-2.6-2.6H661.4z"/>
			</g>
			<g>
				<path class="st31" d="M755.2,120.1h-93.7c-1.9,0-3.5-1.6-3.5-3.5v-0.1c0-1.9,1.6-3.5,3.5-3.5h93.7c1.9,0,3.5,1.6,3.5,3.5v0.1
					C758.7,118.5,757.1,120.1,755.2,120.1z M661.4,114.5c-1.1,0-2,0.9-2,2v0.1c0,1.1,0.9,2,2,2h93.7c1.1,0,2-0.9,2-2v-0.1
					c0-1.1-0.9-2-2-2H661.4z"/>
			</g>
			<g class="st36">
				<path class="st26" d="M755.2,114.6h-78.4h-6.6h-8.9c-1,0-1.9,0.9-1.9,2c0,0.8,0.5,1.5,1.1,1.8c-0.2-0.3-0.3-0.7-0.3-1.1
					c0-1.1,0.9-2,1.9-2h8c0.4,0.5,1.8,0.8,3.4,0.8c1.6,0,3-0.3,3.4-0.8H756c0.3,0,0.5,0.1,0.8,0.2
					C756.5,114.9,755.9,114.6,755.2,114.6z"/>
			</g>
			<g>
				<path class="st37" d="M734.6,113.5H682c-2.5,0-4.6-2.1-4.6-4.6l0,0h61.8l0,0C739.2,111.5,737.2,113.5,734.6,113.5z"/>
			</g>
			<g class="st32">
				<path class="st31" d="M739.2,108.9v0.2c0,2.4-2,4.4-4.4,4.4h-53.1c-2.4,0-4.4-2-4.4-4.4v-0.2h0.2c0.5,1.8,2.2,3.1,4.2,3.1h53.1
					c2,0,3.6-1.3,4.2-3.1H739.2z"/>
			</g>
			<g>
				<path class="st31" d="M734.8,114.2h-53.1c-2.8,0-5.1-2.3-5.1-5.1v-0.9h63.3v0.9C739.9,112,737.6,114.2,734.8,114.2z
					 M678.2,109.7c0.2,1.8,1.8,3.1,3.6,3.1h53.1c1.8,0,3.4-1.4,3.6-3.1H678.2z"/>
			</g>
			<g class="st38">
				<path class="st26" d="M680.2,110.4h58c0.1-0.2,0.1-0.4,0.2-0.6h-60.1c0.2,1.4,1.2,2.4,2.5,2.8c-0.5-0.4-0.8-0.9-1.1-1.4
					C679.5,110.8,679.8,110.4,680.2,110.4z"/>
			</g>
			<g>
				<path class="st39" d="M729.7,113.5H687c-2.3,0-4.2-1.6-4.4-3.7L679,79.2c-0.3-2.5,1.8-4.7,4.4-4.7h49.9c2.7,0,4.7,2.2,4.4,4.7
					l-3.6,30.6C733.9,111.9,731.9,113.5,729.7,113.5z"/>
			</g>
			<g class="st38">
				<path class="st26" d="M711.3,97.3L711.3,97.3c0.3-0.1,0.5,0.2,0.4,0.4c-0.4,0.7-1.1,1.3-1.9,1.6c-1.9,0.7-4-0.1-4.9-1.8
					c-1.1-2-0.2-4.5,1.9-5.4c0.8-0.3,1.6-0.4,2.4-0.2c0.3,0.1,0.3,0.4,0.1,0.5l0,0c-1.4,0.6-2.1,2.4-1.3,3.8
					C708.5,97.3,710,97.8,711.3,97.3z"/>
			</g>
			<g>
				<g>
					<path class="st31" d="M730.4,82.4c0-0.4,0-0.8-0.2-1.2l-0.1-0.1c-0.1,0-0.2-0.1-0.4-0.1c-0.9-0.1-1.7,0-2.6,0.2
						c-1.1,0.3-2.1,0.8-2.9,1.6c-0.3,0.3-0.5,0.6-0.8,1c-0.1,0.1-0.1,0.1-0.2,0.1c-0.3-0.1-0.6-0.1-0.9-0.1c-0.8,0.1-1.4,0.4-2,0.9
						s-1.1,1.2-1.5,1.9c-0.2,0.3-0.1,0.6,0.3,0.6c0.2,0,0.4,0.1,0.7,0.1c0.5,0.1,1.1,0.2,1.6,0.3l0,0l0,0c-0.2,0.3-0.1,0.5,0.2,0.7
						l0.1,0.1c0.1,0.1,0.3,0.3,0.4,0.4c-0.1,0.2-0.3,0.3-0.4,0.4c-0.1,0.1-0.1,0.2-0.1,0.3c0,0.2,0.1,0.3,0.2,0.4
						c0.2,0.1,0.3,0,0.4-0.1c0.2-0.1,0.3-0.3,0.5-0.5c0.2,0.2,0.4,0.4,0.6,0.6c0.2,0.2,0.3,0.2,0.6,0.1c0,0,0.1,0,0.2-0.1
						c0,0.1,0,0.1,0,0.2c0.1,0.7,0.3,1.4,0.4,2.2c0.1,0.3,0.4,0.5,0.7,0.3s0.5-0.4,0.8-0.5c0.6-0.4,1.1-0.9,1.5-1.6
						c0.5-0.8,0.7-1.6,0.4-2.5v-0.1c0.3-0.2,0.5-0.4,0.8-0.7c0.6-0.5,1-1.1,1.3-1.8C730.2,84.5,730.4,83.5,730.4,82.4z M721.7,86.9
						c-0.6-0.1-1.2-0.2-1.9-0.3c0.5-0.8,1.1-1.5,2-1.9c0.4-0.2,0.8-0.2,1.1-0.2C722.5,85.4,722.1,86.2,721.7,86.9z M727,89.2
						c-0.1,0.5-0.3,0.9-0.6,1.3c-0.4,0.5-0.8,0.9-1.3,1.2c-0.1-0.7-0.3-1.3-0.4-1.9c0.8-0.4,1.5-0.9,2.3-1.3
						C727.1,88.7,727.1,89,727,89.2z M729.4,84.3c-0.2,0.7-0.4,1.3-0.9,1.8c-0.3,0.4-0.7,0.8-1.1,1.1c-1.1,0.9-2.4,1.6-3.7,2.2
						c-0.1,0-0.1,0-0.2,0c-0.1-0.1-0.2-0.2-0.4-0.4l0,0l0.1-0.1c0.7-0.7,1.4-1.4,2.1-2.1c0.2-0.2,0.2-0.5-0.1-0.6
						c-0.2-0.1-0.4-0.1-0.5,0.1c-0.4,0.4-0.8,0.8-1.2,1.3c-0.3,0.3-0.6,0.6-0.9,1c-0.1-0.1-0.3-0.3-0.4-0.4v-0.1
						c0.3-0.7,0.6-1.4,1-2c0.3-0.7,0.7-1.3,1.2-1.9c0.4-0.6,0.9-1.1,1.5-1.4c0.4-0.2,0.8-0.4,1.2-0.5c0,0,0.1,0,0.1,0.1
						c0.5,0.5,1.1,1,1.6,1.6c0.2,0.2,0.3,0.3,0.5,0.5C729.4,84.2,729.4,84.2,729.4,84.3z M729.5,83.4c-0.5-0.5-1.1-1-1.6-1.5l0,0
						c0.5,0,1,0,1.6,0C729.6,82.3,729.6,82.9,729.5,83.4z"/>
				</g>
				<g>
					<path class="st26" d="M729.3,84.1c-0.2-0.2-0.3-0.3-0.5-0.5c-0.5-0.5-1.1-1-1.6-1.6l-0.1-0.1c-0.4,0.1-0.9,0.3-1.2,0.5
						c-0.6,0.4-1.1,0.9-1.5,1.4c-0.5,0.6-0.9,1.2-1.2,1.9c-0.3,0.7-0.7,1.3-1,2v0.1c0.1,0.1,0.3,0.3,0.4,0.4c0.3-0.3,0.6-0.6,0.9-1
						c0.4-0.4,0.8-0.9,1.2-1.3c0.1-0.2,0.3-0.2,0.5-0.1s0.3,0.4,0.1,0.6c-0.7,0.7-1.4,1.4-2.1,2.1l-0.1,0.1l0,0
						c0.1,0.1,0.2,0.2,0.4,0.4c0.1,0.1,0.1,0.1,0.2,0c1.3-0.6,2.5-1.3,3.7-2.2c0.4-0.3,0.8-0.7,1.1-1.1c0.4-0.5,0.7-1.2,0.9-1.8
						C729.4,84.2,729.4,84.2,729.3,84.1z M728.1,85.2c-0.5,0.5-1.4,0.6-1.9,0c-0.5-0.5-0.5-1.4,0-1.9s1.4-0.5,1.9,0
						C728.6,83.8,728.6,84.7,728.1,85.2z"/>
				</g>
				<g>
					<path class="st35" d="M729.5,83.4c-0.5-0.5-1.1-1-1.6-1.5l0,0c0.5,0,1,0,1.6,0C729.6,82.3,729.6,82.9,729.5,83.4z"/>
				</g>
				<g>
					<path class="st35" d="M722.9,84.6c-0.4,0.8-0.8,1.5-1.2,2.3c-0.6-0.1-1.2-0.2-1.9-0.3c0.5-0.8,1.1-1.5,2-1.9
						C722.2,84.6,722.6,84.5,722.9,84.6z"/>
				</g>
				<g>
					<path class="st35" d="M726.4,90.5c-0.4,0.5-0.8,0.9-1.3,1.2c-0.1-0.7-0.3-1.3-0.4-1.9c0.8-0.4,1.5-0.9,2.3-1.3
						c0.1,0.2,0.1,0.5,0,0.7C727,89.7,726.7,90.1,726.4,90.5z"/>
				</g>
				<g>
					<path class="st31" d="M728.1,83.3c-0.5-0.5-1.4-0.5-1.9,0s-0.5,1.4,0,1.9s1.4,0.5,1.9,0C728.6,84.7,728.6,83.8,728.1,83.3z
						 M727.7,84.8c-0.3,0.3-0.7,0.3-1,0s-0.3-0.7,0-1s0.7-0.3,1,0C727.9,84,727.9,84.5,727.7,84.8z"/>
				</g>
				<g>
					<path class="st40" d="M727.7,84.8c-0.3,0.3-0.7,0.3-1,0s-0.3-0.7,0-1s0.7-0.3,1,0C727.9,84,727.9,84.5,727.7,84.8z"/>
				</g>
			</g>
			<g class="st32">
				<path class="st31" d="M732,109.8l3.6-30.6c0.1-0.8-0.2-1.7-0.7-2.3c-0.6-0.7-1.6-1.2-2.6-1.2l0,0c-1.5,5.1-9.7,33.4-48.8,34.5
					c0.3,1.5,1.8,2.5,3.4,2.5h41.6C730.4,112.7,731.9,111.5,732,109.8z"/>
			</g>
			<g class="st38">
				<path class="st26" d="M684.6,110.3L681,79.8c-0.1-0.9,0.2-1.8,0.8-2.5c0.7-0.8,1.8-1.3,2.9-1.3h49.9c0.4,0,0.8,0.1,1.1,0.2
					c-0.1-0.1-0.2-0.2-0.2-0.3c-0.7-0.8-1.8-1.3-2.9-1.3h-49.9c-1.1,0-2.2,0.5-2.9,1.3c-0.6,0.7-0.9,1.6-0.8,2.5l3.6,30.6
					c0.2,1.4,1.2,2.5,2.5,2.9C684.8,111.3,684.6,110.8,684.6,110.3z"/>
			</g>
			<g>
				<path class="st31" d="M729.7,114.2H687c-2.6,0-4.9-1.9-5.2-4.4l-3.6-30.6c-0.2-1.4,0.3-2.7,1.2-3.7c1-1.1,2.4-1.8,4-1.8h49.9
					c1.5,0,3,0.6,4,1.8c0.9,1,1.4,2.4,1.2,3.7l-3.6,30.6C734.5,112.3,732.3,114.2,729.7,114.2z M683.4,75.2c-1.1,0-2.2,0.5-2.9,1.3
					c-0.7,0.7-0.9,1.7-0.8,2.6l3.6,30.6c0.2,1.8,1.8,3.1,3.7,3.1h42.7c1.9,0,3.5-1.3,3.7-3.1l3.6-30.6c0.1-0.9-0.2-1.9-0.8-2.6
					c-0.7-0.8-1.8-1.3-2.9-1.3H683.4z"/>
			</g>
			<g class="st32">
				<path class="st31" d="M662.9,119.3h92.3c1.5,0,2.7-1.2,2.7-2.8l0,0c0-1.5-1.2-2.8-2.7-2.8H718c-1.5,0.8-12.5,6-58,4.6
					L662.9,119.3z"/>
			</g>
			<g class="st41">
				<path class="st26" d="M690.3,94.2L690.3,94.2c-1.8,0-3.2-1.4-3.2-3.2v-6.4c0-1.8,1.4-3.2,3.2-3.2l0,0c1.8,0,3.2,1.4,3.2,3.2V91
					C693.5,92.8,692,94.2,690.3,94.2z"/>
			</g>
			<g>
				<path class="st31" d="M711.8,96.8L711.8,96.8c0.3-0.1,0.5,0.2,0.4,0.4c-0.4,0.7-1.1,1.3-1.9,1.6c-1.9,0.7-4-0.1-4.9-1.8
					c-1.1-2-0.2-4.5,1.9-5.4c0.8-0.3,1.6-0.4,2.4-0.2c0.3,0.1,0.3,0.4,0.1,0.5l0,0c-1.4,0.6-2.1,2.4-1.3,3.8
					C709,96.8,710.5,97.3,711.8,96.8z"/>
			</g>
			<g>
				<g>
					<g>
						<path class="st35" d="M751.1,39.1c-0.2,0-0.4-0.1-0.5-0.2c-0.2-0.2-0.3-0.6-0.1-0.9l2.1-3.6c0.5-0.8,0.4-1.9-0.3-2.6
							c-2.1-2.3-3.3-5.4-3.3-8.5c-0.1-7,5.6-12.8,12.6-13c0.1,0,0.2,0,0.3,0c3.5,0,6.7,1.4,9.2,3.8c2.4,2.5,3.8,5.8,3.7,9.2
							c-0.1,7-5.9,12.7-12.9,12.7h-0.1c-1.1,0-2.2-0.2-3.2-0.4c-0.2,0-0.4-0.1-0.5-0.1c-0.4,0-0.7,0.1-1.1,0.3l-5.4,3.2
							C751.4,39.1,751.2,39.1,751.1,39.1z"/>
					</g>
					<g>
						<g>
							<path class="st31" d="M761.9,11.1c6.8,0,12.2,5.5,12.1,12.3c-0.1,6.6-5.5,11.9-12.1,11.9h-0.1c-1.1,0-2.1-0.2-3-0.4
								c-0.2-0.1-0.5-0.1-0.7-0.1c-0.5,0-1,0.1-1.4,0.4l-5.4,3.2l2.1-3.6c0.6-1.1,0.5-2.5-0.3-3.4c-1.9-2.1-3.1-4.9-3.1-8
								c-0.1-6.6,5.3-12.1,11.9-12.2C761.7,11.1,761.8,11.1,761.9,11.1 M761.9,9.6c-0.1,0-0.2,0-0.3,0c-7.4,0.1-13.4,6.3-13.4,13.7
								c0,3.3,1.3,6.5,3.5,9c0.4,0.5,0.5,1.1,0.2,1.7l-2.1,3.6c-0.3,0.6-0.2,1.3,0.2,1.8c0.3,0.3,0.7,0.4,1.1,0.4
								c0.3,0,0.5-0.1,0.8-0.2l5.4-3.2c0.2-0.1,0.5-0.2,0.7-0.2c0.1,0,0.2,0,0.3,0c1.1,0.3,2.3,0.5,3.4,0.5h0.1
								c7.4,0,13.5-6,13.6-13.4c0.1-3.7-1.3-7.2-3.9-9.8C769,11,765.6,9.6,761.9,9.6L761.9,9.6z"/>
						</g>
					</g>
				</g>
				<g class="st42">
					<path class="st43" d="M774,22.6c0-0.1,0-0.3,0-0.4s0-0.1,0-0.2s0-0.3,0-0.4s0-0.1,0-0.2c0-0.2-0.1-0.4-0.1-0.5s0-0.2,0-0.2
						c0-0.1,0-0.2-0.1-0.3c0-0.1,0-0.2-0.1-0.3c0-0.1,0-0.2-0.1-0.2c0-0.1-0.1-0.2-0.1-0.3c0-0.1,0-0.1-0.1-0.2
						c-0.1-0.2-0.2-0.4-0.2-0.7v-0.1c0-0.1-0.1-0.2-0.2-0.4v-0.1c-0.1-0.1-0.1-0.2-0.2-0.4l0,0c-0.3-0.5-0.6-1.1-0.9-1.6
						c0.6,1.5,0.9,3.1,0.9,4.8c-0.1,5.7-4.1,10.4-9.4,11.6c-5.6,1.2-8.9,0.2-10.9-1.8l-0.8-1.9c-0.3-0.4-0.6-0.8-0.9-1.2l0,0
						c0,0.1,0.1,0.2,0.1,0.3l0,0c0.5,1.2,1.2,2.3,2.1,3.2c0.9,0.9,1,2.3,0.3,3.4l-2.1,3.6l5.4-3.2c0.7-0.4,1.4-0.5,2.2-0.3
						c1,0.3,2,0.4,3,0.4c0.2,0,0.4,0,0.6,0c0.2,0,0.3,0,0.5,0h0.1c0.2,0,0.3,0,0.5-0.1h0.1c0.1,0,0.3,0,0.4-0.1h0.1
						c0.1,0,0.3-0.1,0.4-0.1c0.1,0,0.1,0,0.2,0c0.1,0,0.3-0.1,0.4-0.1c0.1,0,0.1,0,0.2,0c0.1,0,0.3-0.1,0.4-0.1c0.1,0,0.1,0,0.2-0.1
						c0.1,0,0.2-0.1,0.4-0.1c0.1,0,0.1,0,0.2-0.1c0.1,0,0.2-0.1,0.3-0.1s0.1-0.1,0.2-0.1c0.1-0.1,0.2-0.1,0.3-0.2
						c0.1,0,0.1-0.1,0.2-0.1c0.1-0.1,0.2-0.1,0.3-0.2c0.1,0,0.1-0.1,0.2-0.1c0.1-0.1,0.2-0.1,0.3-0.2c0.1,0,0.1-0.1,0.2-0.1
						c0.1-0.1,0.2-0.1,0.3-0.2c0.1,0,0.1-0.1,0.2-0.1c0.1-0.1,0.2-0.1,0.3-0.2c0.1,0,0.1-0.1,0.2-0.1c0.1-0.1,0.2-0.1,0.3-0.2
						c0.1-0.1,0.1-0.1,0.2-0.2c0.1-0.1,0.2-0.1,0.2-0.2c0.1-0.1,0.1-0.1,0.2-0.2c0.1-0.1,0.2-0.1,0.2-0.2c0.1-0.1,0.1-0.1,0.2-0.2
						c0.1-0.1,0.1-0.2,0.2-0.2c0.1-0.1,0.1-0.1,0.2-0.2c0.1-0.1,0.1-0.2,0.2-0.2c0.1-0.1,0.1-0.1,0.2-0.2c0.1-0.1,0.1-0.2,0.2-0.2
						c0.1-0.1,0.1-0.1,0.2-0.2c0.1-0.1,0.1-0.2,0.2-0.2c0.1-0.1,0.1-0.2,0.2-0.2c0.1-0.1,0.1-0.2,0.2-0.2c0-0.1,0.1-0.2,0.1-0.2
						c0-0.1,0.1-0.2,0.1-0.3c0-0.1,0.1-0.2,0.1-0.3c0-0.1,0.1-0.2,0.1-0.3c0-0.1,0.1-0.2,0.1-0.3c0-0.1,0.1-0.2,0.1-0.3
						c0-0.1,0.1-0.2,0.1-0.3c0-0.1,0.1-0.2,0.1-0.3c0-0.1,0.1-0.2,0.1-0.3c0-0.1,0.1-0.2,0.1-0.3c0-0.1,0.1-0.2,0.1-0.3
						c0-0.1,0.1-0.2,0.1-0.3c0-0.1,0.1-0.2,0.1-0.3c0-0.1,0-0.2,0.1-0.3c0-0.1,0-0.2,0.1-0.3c0-0.1,0-0.2,0-0.3c0-0.1,0-0.2,0.1-0.4
						c0-0.1,0-0.2,0-0.2c0-0.1,0-0.3,0-0.4s0-0.1,0-0.2c0-0.2,0-0.4,0-0.6s0-0.4,0-0.6C774,22.7,774,22.7,774,22.6z"/>
				</g>
				<g class="st36">
					<g>
						<path class="st26" d="M767.6,19.7c-1.3-1.3-3.6-1.3-5.1,0c-0.7-0.6-1.5-1-2.4-1c-1-0.1-2,0.3-2.7,1c-1.4,1.4-1.4,3.8,0,5.3
							l4.1,4.1c0.3,0.3,0.6,0.4,1,0.4s0.7-0.1,1-0.4l4.1-4.1C769,23.5,769,21.1,767.6,19.7z"/>
					</g>
				</g>
				<g class="st36">
					<g>
						<path class="st26" d="M750.4,24.2c-0.1-6.6,5.3-12.1,11.9-12.2c3.9-0.1,7.3,1.7,9.6,4.4c-2.2-3.2-6-5.4-10.2-5.3
							c-6.6,0.1-11.9,5.6-11.9,12.2c0,2.9,1.1,5.5,2.8,7.6C751.2,29,750.4,26.6,750.4,24.2z"/>
					</g>
				</g>
				<g>
					<path class="st26" d="M757.2,19.4L757.2,19.4c1.2-1.2,3.2-1,4.5,0.2l0.2,0.2l0.2-0.2c1.2-1.2,3.2-1.5,4.5-0.2l0,0
						c1.2,1.2,1.2,3.2,0,4.5l-0.2,0.2l-3.9,3.9c-0.3,0.3-0.9,0.3-1.2,0l-3.9-3.9l-0.2-0.2C756,22.6,756,20.6,757.2,19.4z"/>
					<path class="st31" d="M761.9,28.7c-0.3,0-0.7-0.1-0.9-0.4l-4.1-4.1c-0.7-0.7-1.1-1.6-1.1-2.6s0.4-1.9,1.1-2.6l0,0l0,0
						c1.3-1.3,3.5-1.3,5,0.1c1.5-1.3,3.7-1.4,5-0.1c1.4,1.4,1.4,3.8,0,5.2l-4.1,4.1C762.6,28.6,762.2,28.7,761.9,28.7z M759.2,19.1
						c-0.6,0-1.2,0.2-1.7,0.7l0,0c-0.5,0.5-0.8,1.2-0.8,1.9s0.3,1.4,0.8,1.9l4.1,4.1c0.1,0.1,0.3,0.1,0.5,0l4.1-4.1c1-1,1-2.7,0-3.8
						c-1-1-2.7-0.9-3.8,0.2l-0.2,0.2c-0.2,0.2-0.5,0.2-0.7,0l-0.2-0.2C760.7,19.4,760,19.1,759.2,19.1z M757.2,19.4L757.2,19.4
						L757.2,19.4z"/>
				</g>
			</g>
		</g>
		<g>
			<g>
				<path class="st44" d="M670.1,71.9l-1.8,0.3c-0.4,0.1-0.6,0.3-0.7,0.7l-0.3,1.8l-0.3-1.8c-0.1-0.4-0.3-0.6-0.7-0.7l-1.8-0.3
					l1.8-0.3c0.4-0.1,0.6-0.3,0.7-0.7l0.3-1.8l0.3,1.8c0.1,0.4,0.3,0.6,0.7,0.7L670.1,71.9z"/>
			</g>
			<g>
				<path class="st44" d="M663.2,83.4l-1.6,0.3c-0.3,0.1-0.6,0.3-0.6,0.6l-0.3,1.6l-0.3-1.6c-0.1-0.3-0.3-0.6-0.6-0.6l-1.6-0.3
					l1.6-0.3c0.3-0.1,0.6-0.3,0.6-0.6l0.3-1.6l0.3,1.6c0.1,0.3,0.3,0.6,0.6,0.6L663.2,83.4z"/>
			</g>
			<g>
				<path class="st44" d="M657.6,63.4l-1.2,0.2c-0.2,0-0.4,0.2-0.5,0.5l-0.2,1.2l-0.2-1.2c0-0.2-0.2-0.4-0.5-0.5l-1.2-0.2l1.2-0.2
					c0.2,0,0.4-0.2,0.5-0.5l0.2-1.2l0.2,1.2c0,0.2,0.2,0.4,0.5,0.5L657.6,63.4z"/>
			</g>
			<g>
				<path class="st44" d="M761,67.4l1.8,0.3c0.4,0.1,0.6,0.3,0.7,0.7l0.3,1.8l0.3-1.8c0.1-0.4,0.3-0.6,0.7-0.7l1.8-0.3l-1.8-0.3
					c-0.4-0.1-0.6-0.3-0.7-0.7l-0.3-1.8l-0.3,1.8c-0.1,0.4-0.3,0.6-0.7,0.7L761,67.4z"/>
			</g>
			<g>
				<path class="st44" d="M750.2,78.9l1.7,0.3c0.3,0.1,0.6,0.3,0.7,0.7l0.3,1.7l0.3-1.7c0.1-0.3,0.3-0.6,0.7-0.7l1.7-0.3l-1.7-0.3
					c-0.3-0.1-0.6-0.3-0.7-0.7l-0.3-1.7l-0.3,1.7c-0.1,0.3-0.3,0.6-0.7,0.7L750.2,78.9z"/>
			</g>
			<g>
				<path class="st44" d="M754.1,57.6l1.3,0.2c0.3,0,0.4,0.2,0.5,0.5l0.2,1.3l0.2-1.3c0-0.3,0.2-0.4,0.5-0.5l1.3-0.2l-1.3-0.2
					c-0.3,0-0.4-0.2-0.5-0.5l-0.2-1.3l-0.2,1.3c0,0.3-0.2,0.4-0.5,0.5L754.1,57.6z"/>
			</g>
			<g>
				<path class="st44" d="M676.8,23.3l-1.4,0.2c-0.3,0-0.5,0.3-0.5,0.5l-0.2,1.4l-0.2-1.4c0-0.3-0.3-0.5-0.5-0.5l-1.4-0.2l1.4-0.2
					c0.3,0,0.5-0.3,0.5-0.5l0.2-1.4l0.2,1.4c0,0.3,0.3,0.5,0.5,0.5L676.8,23.3z"/>
			</g>
			<g>
				<path class="st44" d="M667,34.3l-1.4,0.2c-0.3,0-0.5,0.3-0.6,0.6l-0.2,1.4l-0.2-1.4c0-0.3-0.3-0.5-0.6-0.6l-1.4-0.2l1.4-0.2
					c0.3,0,0.5-0.3,0.6-0.6l0.2-1.4l0.2,1.4c0,0.3,0.3,0.5,0.6,0.6L667,34.3z"/>
			</g>
			<g>
				<path class="st44" d="M731.3,14.8l1.4,0.2c0.3,0,0.5,0.3,0.5,0.5l0.2,1.4l0.2-1.4c0-0.3,0.3-0.5,0.5-0.5l1.4-0.2l-1.4-0.2
					c-0.3,0-0.5-0.3-0.5-0.5l-0.2-1.4l-0.2,1.4c0,0.3-0.3,0.5-0.5,0.5L731.3,14.8z"/>
			</g>
		</g>
	</g>
</g>
<g>
	<defs>
		<rect id="SVGID_3_" x="769.7" y="57" width="192.8" height="26"/>
	</defs>
	<clipPath id="SVGID_1_">
		<use xlink:href="#SVGID_3_"  style="overflow:visible;"/>
	</clipPath>
	<g class="st45">
		<path class="st2" d="M833.8,76.5l-3.3-5.5c1.6-0.4,3.2-1.8,3.2-4.3c0-2.7-1.9-4.7-4.9-4.7H822v14.5h3.1v-5.1h2.3l2.8,5.1H833.8z
			 M828.4,68.7h-3.2v-3.9h3.2c1.2,0,2.1,0.7,2.1,1.9C830.5,67.9,829.6,68.7,828.4,68.7z M844.5,76.5v-6.8c0-3-2.2-4-4.6-4
			c-1.6,0-3.3,0.5-4.6,1.6l1.1,1.9c0.9-0.8,1.9-1.2,3-1.2c1.4,0,2.3,0.7,2.3,1.8v1.3c-0.7-0.8-1.9-1.3-3.3-1.3
			c-1.7,0-3.6,0.9-3.6,3.4c0,2.3,2,3.5,3.6,3.5c1.4,0,2.6-0.5,3.3-1.4v1.1H844.5z M839.5,74.9c-1.1,0-2-0.6-2-1.6c0-1,0.9-1.6,2-1.6
			c0.9,0,1.8,0.3,2.2,0.9V74C841.3,74.6,840.4,74.9,839.5,74.9z M857.5,76.5l-4.3-5.7l4.1-4.7h-3.4l-4,4.7V62h-2.8v14.5h2.8v-2.7
			l1.3-1.3l2.8,4H857.5z M863.6,76.8c1.6,0,3.3-0.5,4.3-1.5l-1.2-1.8c-0.7,0.7-1.9,1-2.8,1c-1.8,0-2.8-1.1-3-2.3h7.8v-0.7
			c0-3.4-2.1-5.7-5.2-5.7c-3.2,0-5.4,2.4-5.4,5.5C858,74.6,860.4,76.8,863.6,76.8z M866,70.3h-5.2c0.1-1,0.8-2.2,2.6-2.2
			C865.3,68,866,69.3,866,70.3z M874.2,76.8c1.1,0,1.9-0.3,2.3-0.7l-0.6-2.1c-0.2,0.2-0.5,0.3-1,0.3c-0.6,0-1-0.5-1-1.2v-4.7h2.1V66
			H874v-2.9h-2.8V66h-1.7v2.4h1.7v5.4C871.2,75.8,872.3,76.8,874.2,76.8z M881.8,76.8c2.9,0,4.5-1.4,4.5-3.3c0-4.2-6.2-2.9-6.2-4.5
			c0-0.6,0.7-1,1.6-1c1.3,0,2.5,0.6,3.1,1.2l1.1-1.9c-1-0.8-2.4-1.4-4.2-1.4c-2.8,0-4.3,1.5-4.3,3.3c0,4.1,6.2,2.7,6.2,4.4
			c0,0.7-0.6,1.1-1.8,1.1c-1.3,0-2.8-0.7-3.6-1.5l-1.2,2C878.2,76.2,879.9,76.8,881.8,76.8z M898.2,76.5v-7.4c0-2-1.1-3.3-3.4-3.3
			c-1.7,0-3,0.8-3.7,1.6V62h-2.8v14.5h2.8v-7.1c0.5-0.6,1.3-1.2,2.4-1.2c1.2,0,1.9,0.5,1.9,1.9v6.4H898.2z M905.7,76.8
			c3.5,0,5.5-2.5,5.5-5.5c0-3-2.1-5.5-5.5-5.5c-3.4,0-5.5,2.5-5.5,5.5C900.2,74.2,902.3,76.8,905.7,76.8z M905.7,74.3
			c-1.7,0-2.7-1.4-2.7-3.1c0-1.6,1-3,2.7-3c1.7,0,2.7,1.4,2.7,3C908.4,72.9,907.5,74.3,905.7,74.3z M919.3,76.8c2.7,0,4.6-2,4.6-5.5
			s-2-5.5-4.6-5.5c-1.3,0-2.4,0.6-3.2,1.6V66h-2.8v14.5h2.8v-5.3C917,76.2,918.1,76.8,919.3,76.8z M918.5,74.3
			c-0.9,0-1.9-0.5-2.4-1.2v-3.7c0.5-0.7,1.5-1.2,2.4-1.2c1.6,0,2.7,1.2,2.7,3C921.1,73.1,920,74.3,918.5,74.3z M932,76.8
			c2.7,0,4.6-2,4.6-5.5s-2-5.5-4.6-5.5c-1.3,0-2.4,0.6-3.2,1.6V66H926v14.5h2.8v-5.3C929.6,76.2,930.7,76.8,932,76.8z M931.1,74.3
			c-0.9,0-1.9-0.5-2.4-1.2v-3.7c0.5-0.7,1.5-1.2,2.4-1.2c1.6,0,2.7,1.2,2.7,3C933.8,73.1,932.7,74.3,931.1,74.3z M943.5,76.8
			c1.6,0,3.3-0.5,4.3-1.5l-1.2-1.8c-0.7,0.7-1.9,1-2.8,1c-1.8,0-2.8-1.1-3-2.3h7.8v-0.7c0-3.4-2.1-5.7-5.2-5.7
			c-3.2,0-5.4,2.4-5.4,5.5C937.9,74.6,940.3,76.8,943.5,76.8z M946,70.3h-5.2c0.1-1,0.8-2.2,2.6-2.2C945.2,68,945.9,69.3,946,70.3z
			 M960.4,76.5v-7.4c0-2-1.1-3.3-3.4-3.3c-1.7,0-3,0.8-3.7,1.6V66h-2.8v10.5h2.8v-7.1c0.5-0.6,1.3-1.2,2.4-1.2
			c1.2,0,1.9,0.5,1.9,1.9v6.3H960.4z"/>
		<path class="st24" d="M813.4,71.6c0.6-0.9,0.6-2.3,0-3.2l-6.8-9.8c-0.6-0.9-2-1.6-3.1-1.6h-21.4c-1.1,0-1.5,0.7-0.9,1.6l6.5,9.7
			c0.6,0.9,0.6,2.4,0,3.3l-6.5,9.7c-0.6,0.9-0.2,1.6,0.9,1.6h21.4c1.1,0,2.5-0.7,3.1-1.6L813.4,71.6z M793.9,76.7
			c-1.1,0-1.5-0.7-0.9-1.6l2.3-3.5c0.6-0.9,0.6-2.4,0-3.3l-2.3-3.5c-0.6-0.9-0.2-1.6,0.9-1.6h6.2c1.1,0,2.5,0.7,3.1,1.6l2.5,3.5
			c0.6,0.9,0.6,2.3,0,3.2l-2.5,3.5c-0.6,0.9-2,1.6-3.1,1.6L793.9,76.7L793.9,76.7z"/>
		<path class="st2" d="M772.8,62.9c-1.1,0-2-0.6-2-1.4c0-0.9,0.9-1.4,2-1.4h5.6c1.1,0,2,0.6,2,1.4c0,0.9-0.9,1.4-2,1.4H772.8z"/>
		<path class="st2" d="M772.8,79.9c-1.1,0-2-0.6-2-1.4c0-0.9,0.9-1.4,2-1.4h5.6c1.1,0,2,0.6,2,1.4c0,0.9-0.9,1.4-2,1.4H772.8z"/>
		<path class="st2" d="M772.8,71.4c-1.1,0-2-0.6-2-1.4c0-0.9,0.9-1.4,2-1.4h10.4c1.1,0,2,0.6,2,1.4c0,0.9-0.9,1.4-2,1.4H772.8z"/>
	</g>
</g>
</svg>
