<?xml version="1.0" encoding="utf-8"?>
<!-- Generator: Adobe Illustrator 25.0.1, SVG Export Plug-In . SVG Version: 6.00 Build 0)  -->
<svg version="1.1" id="Layer_1" xmlns="http://www.w3.org/2000/svg" xmlns:xlink="http://www.w3.org/1999/xlink" x="0px" y="0px"
	 viewBox="0 0 1920 320" style="enable-background:new 0 0 1920 320;" xml:space="preserve">
<style type="text/css">
	.st0{fill:#F7F8FC;}
	.st1{fill:#DFF6FD;}
	.st2{fill:#E7FCE6;}
	.st3{opacity:0.9;fill:#FFFFFF;enable-background:new    ;}
	.st4{fill:#FFFFFF;}
</style>
<path class="st0" d="M1680,320H240v-66L1680,0V320z"/>
<path class="st1" d="M325.6,174.4l260.2-45.9c17.4-3.1,34,8.6,37.1,26l0,0c3.1,17.4-8.6,34-26,37.1l-260.2,45.9
	c-17.4,3.1-34-8.6-37.1-26l0,0C296.6,194.1,308.2,177.5,325.6,174.4z"/>
<circle class="st1" cx="665" cy="144" r="28"/>
<g>
	<path class="st2" d="M240,287.6l215.8-38c17.4-3.1,29-19.7,26-37.1c-3.1-17.4-19.7-29-37.1-26L240,222.6V287.6z"/>
</g>
<circle class="st3" cx="450" cy="218" r="28"/>
<path class="st4" d="M1680,320H240v-32L1680,34V320z"/>
</svg>
