<svg width="418" height="309" viewBox="0 0 418 309" fill="none" xmlns="http://www.w3.org/2000/svg">
<g filter="url(#filter0_bd)">
<rect x="23" y="22" width="371.069" height="262.592" rx="18" fill="#362F4A"/>
<path d="M150.04 198.432C154.36 198.432 157.78 196.668 160.228 193.932V184.716H148.78V189.18H155.116V192.06C154.144 192.96 152.164 193.896 150.04 193.896C145.648 193.896 142.48 190.548 142.48 186.012C142.48 181.476 145.648 178.128 150.04 178.128C152.56 178.128 154.612 179.568 155.728 181.26L159.94 178.956C158.14 176.112 155.008 173.592 150.04 173.592C142.984 173.592 137.224 178.416 137.224 186.012C137.224 193.572 142.984 198.432 150.04 198.432ZM166.446 178.74C167.958 178.74 169.182 177.516 169.182 176.004C169.182 174.492 167.958 173.304 166.446 173.304C164.97 173.304 163.746 174.492 163.746 176.004C163.746 177.516 164.97 178.74 166.446 178.74ZM168.75 198V180.612H164.178V198H168.75ZM178.9 198V184.608H182.428V180.612H178.9V179.892C178.9 178.2 179.764 177.372 181.06 177.372C181.888 177.372 182.5 177.624 182.968 178.056L184.696 175.284C183.652 174.096 181.852 173.628 180.16 173.628C176.668 173.628 174.328 175.968 174.328 179.892V180.612H171.448V184.608H174.328V198H178.9ZM190.893 198.432C192.801 198.432 194.025 197.928 194.709 197.316L193.737 193.824C193.485 194.112 192.837 194.364 192.153 194.364C191.145 194.364 190.569 193.536 190.569 192.42V184.608H194.097V180.612H190.569V175.86H185.997V180.612H183.117V184.608H185.997V193.644C185.997 196.776 187.689 198.432 190.893 198.432ZM218.243 198.432C223.499 198.432 226.559 195.516 228.251 192.528L223.859 190.404C222.851 192.348 220.691 193.896 218.243 193.896C213.851 193.896 210.683 190.548 210.683 186.012C210.683 181.476 213.851 178.128 218.243 178.128C220.691 178.128 222.851 179.676 223.859 181.62L228.251 179.46C226.559 176.436 223.499 173.592 218.243 173.592C211.007 173.592 205.427 178.596 205.427 186.012C205.427 193.392 211.007 198.432 218.243 198.432ZM246.234 198V186.768C246.234 181.764 242.598 180.18 238.602 180.18C235.866 180.18 233.13 181.008 231.006 182.916L232.806 186.12C234.246 184.788 235.974 184.068 237.81 184.068C240.114 184.068 241.626 185.22 241.626 186.984V189.18C240.474 187.812 238.458 187.056 236.118 187.056C233.346 187.056 230.106 188.568 230.106 192.672C230.106 196.56 233.346 198.432 236.118 198.432C238.386 198.432 240.438 197.604 241.626 196.164V198H246.234ZM237.954 195.336C236.154 195.336 234.678 194.4 234.678 192.744C234.678 191.088 236.154 190.116 237.954 190.116C239.43 190.116 240.87 190.656 241.626 191.664V193.824C240.87 194.832 239.43 195.336 237.954 195.336ZM255.305 198V186.516C256.061 185.4 258.077 184.536 259.589 184.536C260.129 184.536 260.525 184.572 260.849 184.644V180.18C258.689 180.18 256.565 181.44 255.305 182.952V180.612H250.733V198H255.305ZM280.266 198V173.988H275.658V182.844C274.29 181.044 272.346 180.18 270.294 180.18C265.866 180.18 262.59 183.636 262.59 189.288C262.59 195.12 265.938 198.432 270.294 198.432C272.418 198.432 274.29 197.496 275.658 195.768V198H280.266ZM271.734 194.364C269.106 194.364 267.306 192.312 267.306 189.288C267.306 186.3 269.106 184.248 271.734 184.248C273.246 184.248 274.902 185.076 275.658 186.228V192.384C274.902 193.536 273.246 194.364 271.734 194.364Z" fill="white"/>
<path d="M145.415 260V256.025H148.19C150.185 256.025 151.325 254.645 151.325 253.01C151.325 251.375 150.2 249.995 148.19 249.995H144.17V260H145.415ZM148.04 254.915H145.415V251.105H148.04C149.225 251.105 150.035 251.885 150.035 253.01C150.035 254.135 149.225 254.915 148.04 254.915ZM155.903 260.18C158.108 260.18 159.488 258.47 159.488 256.37C159.488 254.27 158.108 252.575 155.903 252.575C153.698 252.575 152.318 254.27 152.318 256.37C152.318 258.47 153.698 260.18 155.903 260.18ZM155.903 259.175C154.358 259.175 153.503 257.855 153.503 256.37C153.503 254.9 154.358 253.58 155.903 253.58C157.448 253.58 158.303 254.9 158.303 256.37C158.303 257.855 157.448 259.175 155.903 259.175ZM168.732 260L171.042 252.755H169.857L168.087 258.53L166.197 252.755H165.222L163.317 258.53L161.547 252.755H160.377L162.687 260H163.812L165.702 254.18L167.592 260H168.732ZM175.623 260.18C176.793 260.18 177.768 259.775 178.503 259.055L177.963 258.32C177.378 258.92 176.553 259.25 175.713 259.25C174.153 259.25 173.208 258.11 173.118 256.745H178.968V256.46C178.968 254.285 177.678 252.575 175.488 252.575C173.418 252.575 171.918 254.27 171.918 256.37C171.918 258.635 173.463 260.18 175.623 260.18ZM177.858 255.905H173.103C173.163 254.81 173.928 253.505 175.473 253.505C177.123 253.505 177.843 254.84 177.858 255.905ZM181.915 260V254.87C182.245 254.285 183.19 253.715 183.895 253.715C184.06 253.715 184.195 253.73 184.33 253.745V252.59C183.34 252.59 182.5 253.16 181.915 253.91V252.755H180.79V260H181.915ZM189.026 260.18C190.196 260.18 191.171 259.775 191.906 259.055L191.366 258.32C190.781 258.92 189.956 259.25 189.116 259.25C187.556 259.25 186.611 258.11 186.521 256.745H192.371V256.46C192.371 254.285 191.081 252.575 188.891 252.575C186.821 252.575 185.321 254.27 185.321 256.37C185.321 258.635 186.866 260.18 189.026 260.18ZM191.261 255.905H186.506C186.566 254.81 187.331 253.505 188.876 253.505C190.526 253.505 191.246 254.84 191.261 255.905ZM200.568 260V249.995H199.443V253.85C198.858 253.055 197.973 252.575 196.998 252.575C195.108 252.575 193.773 254.06 193.773 256.385C193.773 258.74 195.108 260.18 196.998 260.18C198.018 260.18 198.903 259.655 199.443 258.92V260H200.568ZM197.283 259.175C195.813 259.175 194.943 257.99 194.943 256.385C194.943 254.78 195.813 253.58 197.283 253.58C198.168 253.58 199.053 254.12 199.443 254.75V258.02C199.053 258.65 198.168 259.175 197.283 259.175ZM207.828 258.035V254.75C208.218 254.12 209.103 253.58 210.003 253.58C211.458 253.58 212.328 254.78 212.328 256.385C212.328 257.99 211.458 259.175 210.003 259.175C209.103 259.175 208.218 258.665 207.828 258.035ZM207.828 260V258.92C208.368 259.655 209.253 260.18 210.273 260.18C212.163 260.18 213.498 258.74 213.498 256.385C213.498 254.06 212.178 252.575 210.273 252.575C209.298 252.575 208.413 253.055 207.828 253.85V249.995H206.703V260H207.828ZM214.941 262.835C215.136 262.895 215.511 262.94 215.751 262.94C216.711 262.925 217.446 262.52 217.881 261.47L221.511 252.755H220.296L217.881 258.695L215.481 252.755H214.251L217.281 260.075L216.801 261.17C216.546 261.77 216.216 261.935 215.721 261.935C215.541 261.935 215.271 261.89 215.106 261.815L214.941 262.835Z" fill="white"/>
<g clip-path="url(#clip0)">
<path d="M233.069 259.989C232.653 260.272 232.191 260.509 231.714 260.673C231.205 260.836 230.682 260.926 230.143 260.926C229.419 260.941 228.696 260.777 228.049 260.465C227.433 260.168 226.879 259.766 226.417 259.261C225.955 258.755 225.601 258.176 225.37 257.551C225.123 256.912 225 256.243 225 255.574C225 254.876 225.139 254.192 225.385 253.553C225.631 252.928 226.001 252.349 226.478 251.843C226.94 251.353 227.494 250.951 228.11 250.669C228.757 250.372 229.45 250.223 230.158 250.238C230.882 250.223 231.606 250.386 232.252 250.714C232.868 251.011 233.423 251.427 233.869 251.947C234.316 252.453 234.67 253.032 234.916 253.672C235.163 254.296 235.286 254.965 235.286 255.619C235.286 256.318 235.163 257.001 234.885 257.655C234.639 258.28 234.27 258.859 233.808 259.365L235.193 260.851H233.838L233.069 259.989ZM230.158 259.722C230.543 259.722 230.928 259.662 231.282 259.543C231.621 259.424 231.944 259.261 232.237 259.053L230.774 257.403H232.129L232.961 258.339C233.577 257.536 233.9 256.57 233.9 255.574C233.9 255.039 233.808 254.519 233.623 254.014C233.453 253.523 233.192 253.077 232.853 252.676C232.53 252.289 232.129 251.977 231.667 251.754C231.205 251.516 230.682 251.412 230.158 251.412C229.619 251.412 229.065 251.546 228.588 251.784C228.126 252.022 227.725 252.334 227.417 252.735C227.094 253.136 226.832 253.582 226.663 254.073C226.309 255.069 226.309 256.154 226.663 257.135C226.832 257.626 227.094 258.072 227.433 258.473C227.756 258.859 228.157 259.172 228.619 259.395C229.096 259.618 229.619 259.736 230.158 259.722Z" fill="#6154F9"/>
<path d="M238.843 261C237.996 261 237.365 260.732 236.934 260.182C236.503 259.632 236.287 258.83 236.287 257.745V253.092H237.642V257.492C237.642 259.082 238.212 259.87 239.351 259.87C239.921 259.87 240.46 259.692 240.906 259.365C241.399 259.008 241.784 258.518 242 257.953V253.092H243.355V259.246C243.355 259.558 243.493 259.707 243.786 259.722V260.851C243.632 260.866 243.509 260.881 243.432 260.896C243.355 260.911 243.262 260.896 243.17 260.896C242.924 260.911 242.693 260.822 242.508 260.658C242.339 260.509 242.231 260.301 242.231 260.093L242.2 259.187C241.861 259.751 241.368 260.212 240.783 260.524C240.183 260.837 239.521 261 238.843 261Z" fill="#6154F9"/>
<path d="M245.002 251.635V250H246.357V251.635H245.002ZM245.002 260.851V253.092H246.357V260.851H245.002Z" fill="#6154F9"/>
<path d="M247.389 256.957C247.389 256.422 247.481 255.901 247.681 255.411C247.866 254.935 248.143 254.504 248.513 254.147C248.882 253.776 249.313 253.493 249.806 253.285C250.33 253.062 250.899 252.958 251.485 252.958C252.208 252.943 252.932 253.122 253.548 253.478C254.118 253.805 254.564 254.281 254.872 254.846L253.548 255.247C253.348 254.891 253.055 254.593 252.686 254.385C252.316 254.177 251.885 254.073 251.454 254.088C250.73 254.088 250.037 254.385 249.56 254.905C249.313 255.173 249.129 255.485 249.005 255.812C248.867 256.184 248.79 256.57 248.79 256.957C248.79 257.343 248.867 257.73 249.005 258.101C249.144 258.443 249.329 258.755 249.591 259.038C249.822 259.291 250.114 259.513 250.437 259.662C250.761 259.811 251.115 259.885 251.485 259.885C251.715 259.885 251.962 259.855 252.193 259.781C252.408 259.722 252.624 259.632 252.824 259.513C253.009 259.409 253.178 259.276 253.332 259.142C253.471 259.008 253.579 258.845 253.64 258.666L254.964 259.053C254.841 259.335 254.672 259.603 254.456 259.841C254.241 260.078 253.979 260.286 253.686 260.45C253.378 260.628 253.04 260.762 252.701 260.851C252.316 260.955 251.931 261 251.531 261C250.422 261.015 249.344 260.584 248.574 259.796C248.205 259.424 247.928 258.993 247.743 258.503C247.481 258.012 247.389 257.492 247.389 256.957Z" fill="#6154F9"/>
<path d="M261.508 260.851L258.737 257.061L257.197 258.458V260.851H255.842V250H257.197V257.135L261.323 253.107H262.817L259.614 256.318L262.971 260.851H261.508Z" fill="#6154F9"/>
<path d="M267.652 261C267.052 261 266.466 260.851 265.943 260.554C265.45 260.272 265.019 259.87 264.726 259.395V260.851H263.525V250H264.88V254.638C265.204 254.147 265.62 253.731 266.128 253.419C267.113 252.854 268.33 252.809 269.346 253.3C269.777 253.523 270.162 253.835 270.485 254.192C270.809 254.578 271.055 255.009 271.209 255.485C271.378 255.976 271.455 256.481 271.455 256.986C271.455 257.522 271.363 258.042 271.163 258.532C270.978 258.993 270.701 259.424 270.362 259.811C270.023 260.168 269.608 260.465 269.146 260.673C268.684 260.896 268.176 261 267.652 261ZM267.313 259.87C267.698 259.87 268.083 259.796 268.422 259.632C268.761 259.484 269.053 259.261 269.3 258.993C269.546 258.726 269.746 258.414 269.869 258.072C270.008 257.73 270.07 257.358 270.07 256.986C270.07 256.615 270.008 256.243 269.869 255.901C269.746 255.559 269.561 255.247 269.33 254.965C269.099 254.697 268.822 254.474 268.499 254.311C268.176 254.147 267.806 254.058 267.421 254.073C267.144 254.073 266.867 254.118 266.605 254.222C266.343 254.326 266.112 254.459 265.897 254.608C265.681 254.772 265.481 254.965 265.312 255.188C265.142 255.411 264.988 255.634 264.865 255.886V258.131C264.911 258.384 265.034 258.622 265.188 258.815C265.358 259.023 265.558 259.201 265.789 259.365C266.02 259.514 266.266 259.632 266.528 259.736C266.79 259.826 267.052 259.87 267.313 259.87Z" fill="white"/>
<path d="M274.982 261C274.135 261 273.504 260.732 273.072 260.182C272.641 259.632 272.426 258.83 272.426 257.745V253.092H273.781V257.492C273.781 259.082 274.351 259.87 275.49 259.87C276.044 259.87 276.599 259.692 277.045 259.365C277.538 259.008 277.923 258.518 278.123 257.953V253.092H279.478V259.246C279.478 259.558 279.617 259.707 279.909 259.722V260.851C279.755 260.866 279.632 260.881 279.54 260.896C279.447 260.911 279.37 260.896 279.293 260.896C279.047 260.896 278.816 260.822 278.616 260.658C278.446 260.509 278.339 260.301 278.323 260.093L278.292 259.187C277.954 259.751 277.461 260.212 276.876 260.524C276.306 260.837 275.644 261 274.982 261Z" fill="white"/>
<path d="M285.299 260.465C285.222 260.509 285.115 260.554 284.976 260.599C284.837 260.643 284.683 260.703 284.514 260.762C284.329 260.822 284.145 260.866 283.96 260.896C283.76 260.926 283.544 260.955 283.344 260.941C282.882 260.955 282.435 260.807 282.066 260.539C281.712 260.272 281.527 259.87 281.527 259.305V254.118H280.434V253.092H281.527V250.505H282.882V253.092H284.683V254.118H282.882V258.934C282.882 259.172 282.99 259.395 283.174 259.558C283.344 259.692 283.575 259.751 283.79 259.751C284.037 259.751 284.283 259.707 284.529 259.632C284.683 259.573 284.837 259.514 284.991 259.439L285.299 260.465Z" fill="white"/>
<path d="M285.945 251.635V250H287.3V251.635H285.945ZM285.945 260.851V253.092H287.3V260.851H285.945Z" fill="white"/>
<path d="M294.538 260.851L291.766 257.061L290.226 258.458V260.851H288.871V250H290.226V257.135L294.353 253.107H295.846L292.644 256.318L296 260.851H294.538Z" fill="white"/>
</g>
<path d="M251.073 129.845C252.309 128.031 252.309 125.062 251.073 123.246L237.485 103.3C236.248 101.484 233.44 100 231.244 100L188.542 100C186.347 100 185.531 101.506 186.729 103.344L199.668 123.2C200.866 125.04 200.866 128.05 199.668 129.89L186.729 149.746C185.53 151.585 186.347 153.089 188.542 153.089L231.244 153.089C233.44 153.089 236.248 151.604 237.485 149.79L251.073 129.845ZM212.113 140.318C209.918 140.318 209.103 138.814 210.301 136.974L214.916 129.891C216.116 128.052 216.116 125.041 214.916 123.202L210.301 116.119C209.103 114.279 209.918 112.775 212.113 112.775L224.49 112.775C226.685 112.775 229.493 114.259 230.729 116.075L235.616 123.248C236.853 125.062 236.853 128.031 235.616 129.847L230.729 137.02C229.493 138.834 226.685 140.32 224.49 140.32L212.113 140.32L212.113 140.318Z" fill="#6154F9"/>
<path d="M169.994 112.081C167.799 112.081 166.002 110.944 166.002 109.188C166.002 107.432 167.799 106.295 169.994 106.295L181.172 106.295C183.367 106.295 185.164 107.432 185.164 109.188C185.164 110.944 183.367 112.081 181.172 112.081L169.994 112.081Z" fill="white"/>
<path d="M169.994 146.796C167.799 146.796 166.002 145.66 166.002 143.903C166.002 142.146 167.799 141.01 169.994 141.01L181.172 141.01C183.367 141.01 185.164 142.146 185.164 143.903C185.164 145.66 183.367 146.796 181.172 146.796L169.994 146.796Z" fill="white"/>
<path d="M169.994 129.439C167.798 129.439 166.001 128.302 166.001 126.546C166.001 124.789 167.798 123.653 169.994 123.653L190.752 123.653C192.947 123.653 194.744 124.789 194.744 126.546C194.744 128.302 192.947 129.439 190.752 129.439L169.994 129.439Z" fill="white"/>
</g>
<defs>
<filter id="filter0_bd" x="-31" y="-32" width="479.069" height="370.592" filterUnits="userSpaceOnUse" color-interpolation-filters="sRGB">
<feFlood flood-opacity="0" result="BackgroundImageFix"/>
<feGaussianBlur in="BackgroundImage" stdDeviation="27"/>
<feComposite in2="SourceAlpha" operator="in" result="effect1_backgroundBlur"/>
<feColorMatrix in="SourceAlpha" type="matrix" values="0 0 0 0 0 0 0 0 0 0 0 0 0 0 0 0 0 0 127 0"/>
<feMorphology radius="1" operator="erode" in="SourceAlpha" result="effect2_dropShadow"/>
<feOffset dy="1"/>
<feGaussianBlur stdDeviation="12"/>
<feColorMatrix type="matrix" values="0 0 0 0 0 0 0 0 0 0 0 0 0 0 0 0 0 0 0.1 0"/>
<feBlend mode="normal" in2="effect1_backgroundBlur" result="effect2_dropShadow"/>
<feBlend mode="normal" in="SourceGraphic" in2="effect2_dropShadow" result="shape"/>
</filter>
<clipPath id="clip0">
<rect width="71" height="11" fill="white" transform="translate(225 250)"/>
</clipPath>
</defs>
</svg>
