<svg width="276" height="289" viewBox="0 0 276 289" fill="none" xmlns="http://www.w3.org/2000/svg">
<path d="M12.3434 86.2947C6.38675 99.4628 -2.3828 124.674 1.12502 156.039C5.69181 196.304 28.1286 228.033 50.0029 245.833C122.509 304.99 255.244 266.777 272.816 211.06C275.993 200.936 275.099 191.209 274.007 179.199C270.499 141.051 252.034 129.703 239.591 89.1732C228.273 52.3158 239.425 48.147 228.869 31.7697C205.869 -3.79734 139.651 -5.58396 94.0823 11.4551C76.5763 18.0061 34.0853 38.089 12.3434 86.2947Z" fill="#D9DDE0"/>
<path d="M86.8699 220.622L66.3193 238.885C66.3193 238.885 66.2862 238.919 66.2531 238.919L15.3897 238.753C15.3235 238.753 15.2904 238.654 15.3235 238.621L35.7086 220.49C35.7086 220.49 35.7417 220.457 35.7748 220.457L86.7706 220.49C86.8699 220.49 86.903 220.589 86.8699 220.622Z" fill="white"/>
<path d="M66.251 239.415L15.3876 239.249C15.1559 239.249 14.9243 239.117 14.8581 238.886C14.7588 238.654 14.825 238.422 15.0236 238.257L35.4086 220.126C35.5079 220.027 35.6403 219.994 35.8058 219.994L86.8015 220.027C87.0332 220.027 87.2648 220.159 87.331 220.391C87.4303 220.622 87.3641 220.854 87.1655 221.019L66.615 239.283C66.5488 239.349 66.4165 239.415 66.251 239.415ZM16.5127 238.257L66.1186 238.422L85.7095 221.019L35.9381 220.986L16.5127 238.257Z" fill="#4281C4"/>
<path d="M86.9 220.523V258.009L66.515 276.14C66.4488 276.206 66.3164 276.173 66.3164 276.074V238.919C66.3164 238.919 86.6022 220.523 86.9 220.523Z" fill="#4281C4"/>
<path d="M66.318 276.173L15.3223 276.007L15.3554 238.786L66.318 238.918C66.318 238.918 66.318 276.239 66.318 276.173Z" fill="white"/>
<path d="M66.3183 276.669C66.3183 276.669 66.2853 276.669 66.3183 276.669L15.3226 276.504C15.0578 276.504 14.8262 276.272 14.8262 276.007L14.8593 238.786C14.8593 238.654 14.9254 238.521 14.9916 238.422C15.0909 238.323 15.2233 238.257 15.3557 238.29L66.3183 238.422C66.5831 238.422 66.8147 238.654 66.8147 238.918V276.206C66.8147 276.338 66.7486 276.471 66.6824 276.57C66.55 276.636 66.4176 276.669 66.3183 276.669ZM15.7859 275.511L65.7889 275.677V239.415L15.819 239.282L15.7859 275.511Z" fill="#4281C4"/>
<path d="M162.12 151.01L141.602 169.24L84.7821 169.075C84.7159 169.075 84.6828 169.009 84.749 168.976L105.2 150.812L162.053 150.845C162.153 150.845 162.186 150.944 162.12 151.01Z" fill="white"/>
<path d="M141.603 169.736L84.7831 169.571C84.5515 169.571 84.3529 169.439 84.2536 169.207C84.1874 168.975 84.2205 168.744 84.4191 168.611L104.87 150.448C104.97 150.381 105.069 150.315 105.201 150.315L162.055 150.348C162.319 150.348 162.551 150.514 162.617 150.745C162.716 150.977 162.65 151.242 162.452 151.407L141.934 169.637C141.835 169.703 141.736 169.736 141.603 169.736ZM85.9083 168.578L141.405 168.744L160.996 151.341L105.367 151.308L85.9083 168.578Z" fill="#4281C4"/>
<path d="M162.216 150.844V257.909L141.765 276.107C141.699 276.173 141.6 276.107 141.6 276.04V169.24C141.6 169.24 161.919 150.878 162.216 150.844Z" fill="#4281C4"/>
<path d="M141.601 276.206L84.7148 276.04C84.8472 276.14 84.7479 169.108 84.7479 169.108L141.601 169.24C141.601 169.24 141.601 276.272 141.601 276.206Z" fill="white"/>
<path d="M141.601 276.702L84.7151 276.536C84.4835 276.536 84.2849 276.371 84.2188 276.139C84.2188 276.073 84.2188 276.04 84.2188 275.974C84.318 273.79 84.2518 170.166 84.2518 169.108C84.2518 168.975 84.318 168.843 84.3842 168.744C84.4835 168.644 84.6159 168.611 84.7482 168.611L141.601 168.744C141.866 168.744 142.098 168.975 142.098 169.24V276.206C142.098 276.338 142.032 276.47 141.965 276.57C141.866 276.669 141.734 276.702 141.601 276.702ZM85.2115 275.544L141.105 275.709V169.736L85.2446 169.604C85.2446 173.376 85.2777 197.958 85.2777 222.541C85.2777 235.907 85.2777 249.274 85.2777 259.299C85.2777 264.328 85.2777 268.497 85.2446 271.408C85.2446 272.864 85.2446 274.022 85.2446 274.816C85.2115 275.114 85.2115 275.345 85.2115 275.544Z" fill="#4281C4"/>
<path d="M123.931 266.479C123.799 266.479 123.666 266.413 123.567 266.313C123.368 266.115 123.402 265.784 123.6 265.618L128.796 261.02C128.994 260.821 129.325 260.854 129.491 261.053C129.689 261.251 129.656 261.582 129.457 261.747L124.262 266.346C124.163 266.413 124.03 266.479 123.931 266.479Z" fill="#D9DDE0"/>
<path d="M236.184 107.536L215.468 125.931L159.409 125.766C159.31 125.766 159.277 125.666 159.343 125.633L179.728 107.502L236.184 107.536Z" fill="white"/>
<path d="M215.468 126.461L159.409 126.295C159.144 126.295 158.946 126.13 158.846 125.931C158.747 125.7 158.813 125.468 159.012 125.303L179.397 107.172C179.496 107.105 179.595 107.039 179.728 107.039L236.184 107.072C236.382 107.072 236.581 107.205 236.647 107.403C236.713 107.602 236.68 107.8 236.515 107.966L215.799 126.361C215.733 126.394 215.6 126.461 215.468 126.461ZM160.501 125.303L215.302 125.468L234.893 108.065L179.926 108.032L160.501 125.303Z" fill="#4281C4"/>
<path d="M236.181 107.569V258.009L215.796 276.14C215.73 276.206 215.598 276.173 215.598 276.074V125.964C215.565 125.964 235.883 107.569 236.181 107.569Z" fill="#4281C4"/>
<path d="M215.566 276.173L159.242 276.007C159.375 276.107 159.275 125.832 159.275 125.832L215.533 125.964C215.566 125.964 215.566 276.239 215.566 276.173Z" fill="white"/>
<path d="M215.566 276.669L159.242 276.504C159.011 276.504 158.812 276.338 158.746 276.107C158.746 276.04 158.746 276.007 158.746 275.941C158.845 273.493 158.779 127.288 158.779 125.799C158.779 125.666 158.845 125.534 158.912 125.435C159.011 125.336 159.143 125.269 159.276 125.303L215.533 125.435C215.798 125.435 216.03 125.666 216.03 125.931V276.173C216.03 276.305 215.963 276.437 215.897 276.537C215.831 276.636 215.699 276.669 215.566 276.669ZM159.772 275.511L215.07 275.677V126.461L159.805 126.328C159.805 130.894 159.838 165.899 159.838 200.903C159.838 219.663 159.838 238.455 159.838 252.517C159.838 259.564 159.838 265.42 159.805 269.523C159.805 271.574 159.805 273.195 159.805 274.287C159.772 274.849 159.772 275.213 159.772 275.511Z" fill="#4281C4"/>
<path d="M183.236 258.174C183.103 258.174 182.971 258.108 182.872 258.009C182.673 257.81 182.706 257.48 182.905 257.314L199.219 242.823C199.418 242.624 199.749 242.657 199.914 242.856C200.113 243.054 200.08 243.385 199.881 243.55L183.567 258.042C183.467 258.141 183.335 258.174 183.236 258.174Z" fill="#D9DDE0"/>
<path d="M182.638 247.256C182.506 247.256 182.373 247.19 182.274 247.09C182.075 246.892 182.109 246.561 182.307 246.396L187.503 241.797C187.701 241.598 188.032 241.631 188.198 241.83C188.396 242.028 188.363 242.359 188.165 242.525L182.969 247.124C182.903 247.223 182.77 247.256 182.638 247.256Z" fill="#D9DDE0"/>
<path d="M190.25 38.6183C190.25 38.6183 180.421 42.2908 174.663 48.7094C168.905 55.128 163.279 69.1232 163.279 69.1232L164.338 85.9968C164.338 85.9968 169.037 87.6842 177.939 76.3028C177.939 76.3028 174.266 63.5979 178.469 54.4332C180.719 49.5696 190.25 38.6183 190.25 38.6183Z" fill="white"/>
<path d="M165.067 86.5924C164.504 86.5924 164.206 86.4931 164.173 86.46C163.975 86.3939 163.842 86.2284 163.842 86.0299L162.783 69.1563C162.783 69.0901 162.783 69.0239 162.816 68.9247C163.048 68.3622 168.541 54.764 174.299 48.3454C180.091 41.9268 189.687 38.2874 190.085 38.122C190.283 38.0558 190.548 38.122 190.68 38.3205C190.813 38.519 190.779 38.7506 190.647 38.916C190.548 39.0153 181.116 49.8674 178.932 54.6317C174.862 63.5317 178.403 76.0381 178.436 76.1373C178.469 76.3028 178.436 76.4682 178.337 76.5674C171.42 85.5006 166.887 86.5924 165.067 86.5924ZM164.802 85.5998C165.927 85.6991 170.262 85.302 177.41 76.2366C176.914 74.3507 174.068 62.9031 178.039 54.2678C179.793 50.4629 185.783 43.151 188.529 39.9086C185.419 41.2982 179.164 44.5075 175.061 49.0402C169.666 55.0287 164.339 67.9321 163.809 69.2224L164.802 85.5998Z" fill="#302b40"/>
<path d="M197.598 23.4981C195.844 22.5717 192.733 22.1416 189.291 19.0316C187.604 17.5096 185.188 15.2929 185.022 12.0174C184.824 8.17951 188.034 4.73861 191.84 3.1505C195.149 1.76091 203.256 1.26462 206.93 4.83787C209.478 7.31929 212.125 14.7966 215.931 14.1018C224.072 12.613 230.227 9.46985 235.853 13.01C243.332 17.7082 238.004 26.8067 243.663 30.1814C250.149 34.0194 255.51 27.6338 263.287 30.8101C270.435 33.7216 275.365 43.0186 273.545 49.2387C272.288 53.5399 268.747 53.1097 265.669 58.1718C260.838 66.0793 266.397 72.134 263.253 79.0158C259.018 88.2136 243.034 90.5295 232.941 89.4377C231.087 89.2392 211.563 86.857 203.554 72.0347C193.825 54.0361 206.698 28.2955 197.598 23.4981Z" fill="#302b40"/>
<path d="M179.394 50.1321C176.813 53.6722 175.29 57.8741 175.059 62.2414C174.595 70.7775 176.779 84.3095 193.16 91.1582C218.178 101.646 232.143 84.8388 232.143 84.8388C232.143 84.8388 229.033 44.1436 223.771 43.151C210.038 40.5703 212.917 32.7621 205.239 31.571C199.084 30.6116 192.3 35.0781 189.917 37.5264C185.714 41.7614 181.909 46.6581 179.394 50.1321Z" fill="white"/>
<path d="M209.047 95.0953C204.38 95.0953 198.986 94.1689 192.93 91.6214C185.551 88.5444 180.322 83.7801 177.311 77.56C175.16 73.0603 174.233 67.899 174.531 62.2414C174.763 57.8079 176.318 53.5068 178.965 49.8673C181.447 46.4595 185.319 41.4636 189.489 37.1956C191.838 34.7803 198.788 30.1152 205.241 31.1078C208.782 31.6372 210.238 33.5561 211.793 35.5744C213.845 38.2212 216.161 41.2651 223.806 42.6878C225.361 42.9855 227.744 45.5331 230.358 64.3257C231.781 74.5161 232.575 84.7396 232.575 84.8388C232.575 84.9712 232.542 85.1035 232.476 85.2028C232.344 85.3682 228.836 89.537 222.184 92.4485C218.908 93.8381 214.474 95.0953 209.047 95.0953ZM179.793 50.4298C177.244 53.9369 175.755 58.0064 175.557 62.2744C175.06 71.6377 177.741 84.1771 193.328 90.7281C206.068 96.0548 215.831 94.1028 221.754 91.5221C227.512 89.0076 230.888 85.4674 231.583 84.6734C231.45 83.1845 230.689 73.7882 229.399 64.425C226.85 46.1618 224.534 43.8127 223.64 43.6472C215.665 42.1584 213.084 38.8498 211.032 36.1699C209.477 34.1517 208.219 32.5305 205.109 32.0673C199.053 31.1409 192.467 35.5744 190.217 37.8904C186.08 42.0922 182.275 47.0551 179.793 50.4298Z" fill="#302b40"/>
<path d="M194.321 84.8389C191.906 83.9787 198.094 65.2522 201.536 61.0172C213.284 46.625 212.886 32.7621 205.176 31.5711C199.021 30.6116 191.773 35.5744 190.251 38.6514C176.054 67.105 194.321 84.8389 194.321 84.8389Z" fill="#302b40"/>
<path d="M170.129 68.3953C170.129 68.3953 172.181 80.6701 170.129 84.2102C168.871 86.3608 165.198 87.6512 163.279 87.2541C161.392 86.8571 155.767 84.111 157.256 67.5351C157.256 67.5351 158.447 62.5722 165.661 63.7633C169.632 64.3919 170.129 68.3953 170.129 68.3953Z" fill="white"/>
<path d="M164.041 87.7834C163.743 87.7834 163.445 87.7503 163.18 87.7172C161.294 87.3202 155.238 84.7064 156.76 67.4688C156.76 67.4357 156.76 67.4357 156.76 67.4026C156.76 67.3365 158.15 62.0097 165.729 63.2669C169.865 63.9617 170.56 68.0313 170.593 68.329C170.692 68.8915 172.645 80.8354 170.527 84.4748C169.402 86.4269 166.258 87.7834 164.041 87.7834ZM157.753 67.5681C156.264 84.3756 162.188 86.493 163.379 86.7246C165.001 87.0555 168.541 85.8975 169.7 83.9124C171.652 80.5707 169.667 68.5606 169.633 68.4283C169.633 68.4283 169.633 68.4283 169.633 68.3952C169.6 68.2298 169.137 64.7558 165.596 64.1602C159.176 63.1346 157.853 67.2041 157.753 67.5681Z" fill="#302b40"/>
<path d="M150.939 148.595V159.447H148.324V149.257L150.939 148.595Z" fill="#DFF6FD"/>
<path d="M150.939 159.943H148.325C148.06 159.943 147.828 159.712 147.828 159.447V149.224C147.828 148.992 147.994 148.794 148.192 148.727L150.806 148.066C150.939 148.033 151.104 148.066 151.237 148.165C151.369 148.264 151.435 148.396 151.435 148.562V159.414C151.435 159.745 151.204 159.943 150.939 159.943ZM148.821 158.951H150.442V149.224L148.821 149.621V158.951Z" fill="#302b40"/>
<path d="M140.778 138.371C140.778 138.371 138.031 146.742 138.296 151.606C138.56 156.436 135.284 159.315 133.067 160.506C130.85 161.697 131.148 164.41 136.939 164.377C146.403 164.31 145.245 153.558 146.701 152.797C148.157 152.003 151.235 151.606 152.029 146.643C152.823 141.68 146.403 138.404 146.403 138.404H140.778V138.371Z" fill="white"/>
<path d="M136.807 164.873C132.372 164.873 131.479 163.285 131.313 162.623C131.082 161.664 131.677 160.671 132.802 160.076C134.027 159.414 138.064 156.866 137.766 151.639C137.501 146.742 140.149 138.57 140.281 138.239C140.347 138.041 140.546 137.908 140.745 137.908H146.337C146.403 137.908 146.503 137.941 146.569 137.974C146.834 138.107 153.287 141.481 152.459 146.742C151.764 151.176 149.282 152.201 147.661 152.896C147.363 153.028 147.098 153.128 146.867 153.26C146.668 153.425 146.436 154.484 146.271 155.311C145.543 158.653 144.219 164.873 136.873 164.906C136.873 164.873 136.84 164.873 136.807 164.873ZM141.142 138.868C140.645 140.489 138.56 147.404 138.792 151.573C139.123 157.396 134.656 160.208 133.299 160.936C132.571 161.333 132.174 161.895 132.306 162.358C132.471 163.053 133.762 163.847 136.84 163.847C136.873 163.847 136.906 163.847 136.939 163.847C143.458 163.814 144.616 158.521 145.344 155.013C145.675 153.525 145.874 152.631 146.436 152.3C146.701 152.168 146.999 152.036 147.297 151.903C148.819 151.275 150.871 150.381 151.5 146.51C152.161 142.276 147.032 139.265 146.238 138.835H141.142V138.868Z" fill="#302b40"/>
<path d="M136.774 157.197C138.958 157.859 141.506 159.116 143.127 161.796C142.366 162.689 141.34 163.45 140.05 163.913C137.932 161.796 135.185 160.836 133.299 160.406C134.424 159.745 135.748 158.686 136.774 157.197Z" fill="#DFF6FD"/>
<path d="M140.015 164.377C139.883 164.377 139.751 164.31 139.651 164.244C137.467 162.094 134.654 161.2 133.165 160.87C132.967 160.836 132.801 160.671 132.768 160.473C132.735 160.274 132.834 160.075 133 159.976C133.761 159.546 135.217 158.587 136.309 156.932C136.441 156.767 136.64 156.668 136.872 156.734C139.883 157.627 142.1 159.248 143.49 161.531C143.589 161.73 143.589 161.961 143.457 162.127C142.563 163.186 141.438 163.946 140.148 164.377C140.148 164.377 140.081 164.377 140.015 164.377ZM134.489 160.175C136.077 160.671 138.294 161.564 140.115 163.285C141.008 162.921 141.802 162.391 142.464 161.697C141.24 159.877 139.387 158.554 136.938 157.726C136.177 158.851 135.25 159.645 134.489 160.175Z" fill="#302b40"/>
<path d="M202.297 188.794C202.297 188.794 202.959 191.805 202.297 195.345C201.635 198.885 198.756 206.991 198.624 210.531C198.392 216.354 189.325 218.902 188.034 215.891C186.71 212.88 187.372 204.774 189.987 201.234C192.601 197.694 193.263 187.735 193.263 187.735L202.297 188.794Z" fill="white"/>
<path d="M190.714 217.644C189.192 217.644 188.033 217.082 187.603 216.089C186.18 212.814 186.941 204.576 189.622 200.936C192.137 197.561 192.799 187.801 192.799 187.702C192.799 187.57 192.865 187.437 192.964 187.338C193.063 187.239 193.196 187.206 193.328 187.239L202.362 188.297C202.561 188.331 202.76 188.463 202.793 188.694C202.826 188.827 203.455 191.838 202.793 195.444C202.528 196.834 201.932 198.951 201.304 201.168C200.311 204.576 199.219 208.447 199.152 210.564C199.02 214.303 195.512 216.917 192.104 217.545C191.607 217.611 191.144 217.644 190.714 217.644ZM193.725 188.297C193.56 190.415 192.766 198.355 190.383 201.532C187.967 204.774 187.206 212.748 188.464 215.692C188.828 216.519 190.184 216.883 191.872 216.553C194.784 215.99 197.994 213.707 198.094 210.498C198.193 208.281 199.318 204.344 200.311 200.87C200.939 198.686 201.535 196.602 201.767 195.245C202.263 192.532 201.965 190.117 201.833 189.257L193.725 188.297Z" fill="#302b40"/>
<path d="M187.371 211.59C187.371 210.233 187.503 208.778 187.735 207.355C192.898 205.932 196.538 208.248 198.623 210.432C198.623 210.465 198.623 210.498 198.623 210.531C198.556 212.02 197.928 213.277 197.001 214.303C193.096 211.16 189.555 211.127 187.371 211.59Z" fill="#DFF6FD"/>
<path d="M197.001 214.799C196.902 214.799 196.77 214.766 196.703 214.7C192.964 211.722 189.622 211.656 187.471 212.086C187.338 212.119 187.173 212.086 187.04 211.987C186.908 211.887 186.842 211.755 186.842 211.59C186.842 210.2 186.974 208.711 187.206 207.255C187.239 207.057 187.371 206.925 187.57 206.858C192.964 205.37 196.737 207.785 198.954 210.068C199.053 210.167 199.086 210.299 199.086 210.432V210.531C199.02 212.02 198.424 213.442 197.332 214.634C197.299 214.733 197.167 214.799 197.001 214.799ZM189.423 210.895C191.508 210.895 194.122 211.523 196.935 213.641C197.663 212.715 198.06 211.722 198.126 210.63C196.108 208.645 192.832 206.627 188.166 207.752C188 208.844 187.901 209.935 187.868 210.994C188.364 210.928 188.894 210.895 189.423 210.895Z" fill="#302b40"/>
<path d="M229.927 86.427C229.927 86.427 239.292 92.3162 239.491 105.021C239.623 115.344 237.406 119.943 226.618 129.372C215.829 138.801 207.953 145.683 207.953 145.683C207.953 145.683 212.653 154.12 206.001 171.027C203.883 176.387 203.188 182.905 203.221 189.29C203.221 189.29 201.07 195.378 191.837 192.235C191.837 192.235 193.79 166.527 187.899 157.66C182.009 148.826 186.344 120.935 195.544 119.777C204.776 118.586 192.598 90.0002 192.598 90.0002C192.598 90.0002 222.481 94.93 229.927 86.427Z" fill="#4281C4"/>
<path d="M196.636 193.591C195.247 193.591 193.592 193.326 191.673 192.665C191.474 192.599 191.309 192.367 191.342 192.168C191.375 191.904 193.228 166.527 187.503 157.925C183.068 151.242 184.359 135.195 188.396 126.328C190.349 122.06 192.798 119.612 195.511 119.248C196.504 119.115 197.232 118.619 197.728 117.759C201.236 111.638 192.268 90.3641 192.169 90.1325C192.103 89.967 192.136 89.7685 192.235 89.6362C192.334 89.5038 192.533 89.4377 192.698 89.4377C192.996 89.4708 222.383 94.2682 229.564 86.0629C229.729 85.8644 229.994 85.8313 230.192 85.9637C230.292 86.0299 239.789 92.1507 239.988 104.955C240.12 115.675 237.704 120.307 226.916 129.67C217.319 138.04 210.039 144.393 208.55 145.716C209.377 147.536 212.422 155.94 206.432 171.093C204.579 175.791 203.652 181.879 203.685 189.158C203.685 189.224 203.685 189.257 203.652 189.323C203.652 189.455 202.13 193.591 196.636 193.591ZM192.367 191.838C200.21 194.352 202.461 189.786 202.725 189.158C202.692 181.78 203.619 175.626 205.538 170.795C212.058 154.319 207.59 145.981 207.524 145.882C207.425 145.683 207.458 145.418 207.623 145.253C207.623 145.253 215.466 138.371 226.287 128.942C236.778 119.81 239.16 115.311 238.995 104.988C238.83 94.0697 231.682 88.2466 230.027 87.0555C222.713 94.5329 198.457 91.3236 193.426 90.5626C195.114 94.6652 201.997 112.333 198.589 118.222C197.927 119.38 196.934 120.042 195.644 120.207C192.698 120.571 190.547 123.946 189.323 126.692C185.418 135.261 184.194 151.076 188.363 157.329C193.923 165.733 192.599 188.463 192.367 191.838Z" fill="#302b40"/>
<path d="M199.02 116.965C199.02 116.965 185.485 121.101 176.782 116.965C168.079 112.829 161.89 110.778 161.89 110.778C161.89 110.778 163.479 120.141 159.772 124.012C153.749 130.298 149.249 142.573 149.249 142.573C149.249 142.573 145.112 147.271 139.52 142.573C139.52 142.573 143.358 113.954 143.358 105.583C143.358 97.2127 144.881 79.0488 178.304 84.8056C211.728 90.5625 199.02 116.965 199.02 116.965Z" fill="#4281C4"/>
<path d="M144.484 145.187C142.962 145.187 141.142 144.624 139.19 142.97C139.057 142.871 138.991 142.705 139.024 142.54C139.057 142.242 142.863 113.855 142.863 105.617C142.863 100.521 143.525 93.1432 149.316 88.2797C155.14 83.383 164.936 82.0596 178.404 84.3756C184.328 85.4012 189.226 87.1217 192.932 89.57C193.164 89.7354 193.23 90.0332 193.064 90.2648C192.899 90.4964 192.601 90.5626 192.369 90.3971C188.762 88.0481 183.997 86.3607 178.206 85.3681C165.035 83.1183 155.537 84.3425 149.945 89.0737C144.451 93.7057 143.822 100.753 143.822 105.683C143.822 113.557 140.414 139.496 140.017 142.474C144.782 146.312 148.257 142.97 148.786 142.408C149.25 141.183 153.585 129.835 159.409 123.78C162.917 120.108 161.428 111.043 161.428 110.943C161.395 110.778 161.461 110.612 161.593 110.48C161.726 110.381 161.924 110.348 162.057 110.381C162.123 110.414 168.377 112.498 177.014 116.568C185.453 120.571 198.756 116.568 198.889 116.535C199.153 116.469 199.418 116.601 199.517 116.866C199.617 117.13 199.451 117.395 199.186 117.494C198.624 117.66 185.387 121.63 176.617 117.461C169.767 114.219 164.439 112.234 162.553 111.572C162.851 113.987 163.413 121.067 160.17 124.442C154.28 130.563 149.779 142.705 149.746 142.838C149.713 142.904 149.68 142.937 149.647 143.003C149.548 142.97 147.562 145.187 144.484 145.187Z" fill="#302b40"/>
<path d="M193.759 25.3179L196.638 37.758L190.02 41.0997C190.02 41.0997 199.352 44.7391 214.012 39.28L204.944 33.7216L200.742 21.8439L193.759 25.3179Z" fill="white"/>
<path d="M198.425 42.8201C193.131 42.8201 190.086 41.6621 189.854 41.596C189.656 41.5298 189.557 41.3644 189.523 41.1659C189.523 40.9673 189.623 40.8019 189.788 40.7027L196.043 37.5264L193.263 25.4171C193.197 25.1855 193.329 24.9539 193.528 24.8547L200.51 21.4138C200.643 21.3476 200.775 21.3476 200.907 21.4138C201.04 21.4799 201.139 21.5792 201.205 21.7115L205.375 33.4238L214.31 38.916C214.475 39.0153 214.575 39.2138 214.541 39.3792C214.508 39.5778 214.409 39.7432 214.211 39.8094C207.824 42.1253 202.463 42.8201 198.425 42.8201ZM191.377 41.0004C194.189 41.7283 202.032 42.9856 212.887 39.1807L204.68 34.1517C204.581 34.0855 204.514 33.9863 204.481 33.887L200.444 22.5387L194.322 25.5825L197.102 37.6257C197.168 37.8573 197.035 38.0889 196.837 38.1882L191.377 41.0004Z" fill="#302b40"/>
<path d="M205.936 21.2814C206.433 18.8 203.686 19.2963 203.686 19.2963C203.686 19.2963 204.778 16.0208 200.774 15.8885C196.77 15.7561 193.758 14.5651 193.758 14.5651C193.758 14.5651 191.376 19.8588 190.846 24.1599C190.515 26.7406 190.879 28.9904 192.865 29.4867C198.292 30.8101 202.362 24.193 202.362 24.193C202.362 24.193 205.44 23.7298 205.936 21.2814Z" fill="white"/>
<path d="M194.322 30.1483C193.793 30.1483 193.263 30.0822 192.734 29.9498C190.715 29.4535 189.921 27.4684 190.318 24.0937C190.847 19.7595 193.197 14.565 193.296 14.3334C193.395 14.1018 193.693 13.9695 193.925 14.0687C193.958 14.0687 196.936 15.2267 200.775 15.3591C202.231 15.4253 203.257 15.8554 203.82 16.6825C204.316 17.3773 204.349 18.1714 204.283 18.7338C204.812 18.7338 205.507 18.8662 205.971 19.3624C206.434 19.8256 206.566 20.5204 206.401 21.3476C205.904 23.7297 203.423 24.4576 202.628 24.623C202 25.6487 198.79 30.1483 194.322 30.1483ZM194.024 15.1606C193.462 16.484 191.741 20.7189 191.311 24.1929C190.98 27.0052 191.509 28.6264 192.965 28.9573C197.962 30.1814 201.867 23.9613 201.933 23.8952C202 23.7628 202.132 23.6966 202.297 23.6636C202.33 23.6636 205.044 23.2335 205.474 21.1491C205.574 20.6197 205.54 20.2557 205.309 20.0241C204.945 19.6271 204.084 19.6933 203.82 19.7264C203.654 19.7595 203.456 19.6933 203.356 19.561C203.257 19.4286 203.191 19.2301 203.257 19.0647C203.257 19.0647 203.588 17.9728 203.059 17.2119C202.661 16.6494 201.9 16.3516 200.775 16.3186C197.565 16.2524 195.017 15.5245 194.024 15.1606Z" fill="#302b40"/>
<path d="M212.853 98.5694C212.853 98.5694 209.379 104.955 205.341 110.48C205.341 110.48 200.609 109.752 198.756 111.34C196.803 113.028 193.66 117.527 193.66 117.527C193.66 117.527 187.504 122.424 189.391 124.211C191.277 125.964 202.231 120.836 202.231 120.836C202.231 120.836 199.914 123.781 198.789 124.972C197.564 126.295 200.576 128.28 205.904 122.59C205.904 122.59 211.463 118.553 211.662 114.715C211.662 114.715 219.472 109.885 223.476 103.499C227.348 97.2791 212.853 98.5694 212.853 98.5694Z" fill="white"/>
<path d="M199.75 126.891C199.485 126.891 199.32 126.858 199.187 126.825C198.625 126.692 198.195 126.361 198.062 125.898C197.93 125.468 198.062 125.005 198.426 124.608C198.989 124.012 199.849 122.987 200.577 122.093C197.136 123.582 190.683 126.064 189.061 124.542C188.697 124.211 188.532 123.748 188.565 123.251C188.664 121.035 192.635 117.726 193.33 117.164C193.727 116.601 196.606 112.565 198.459 110.943C200.213 109.421 204.052 109.785 205.144 109.918C209.016 104.558 212.391 98.3709 212.424 98.3047C212.491 98.1724 212.656 98.0731 212.822 98.0401C213.814 97.9408 222.418 97.2791 224.272 100.29C224.867 101.249 224.735 102.407 223.875 103.731C220.168 109.62 213.417 114.12 212.127 114.947C211.73 118.752 206.766 122.49 206.236 122.887C203.026 126.361 200.809 126.891 199.75 126.891ZM202.232 120.34C202.364 120.34 202.53 120.406 202.629 120.538C202.761 120.704 202.761 120.968 202.629 121.167C202.53 121.299 200.279 124.145 199.154 125.336C199.055 125.468 198.989 125.567 199.022 125.667C199.055 125.733 199.154 125.865 199.419 125.898C200.445 126.13 202.695 125.336 205.541 122.259C205.574 122.226 205.574 122.226 205.607 122.193C205.674 122.159 210.968 118.255 211.167 114.682C211.167 114.517 211.266 114.384 211.399 114.285C211.465 114.252 219.175 109.455 223.047 103.234C223.676 102.242 223.808 101.448 223.444 100.852C222.187 98.801 215.866 98.8341 213.186 99.0326C212.524 100.224 209.347 105.881 205.773 110.745C205.674 110.91 205.475 110.977 205.31 110.943C204.052 110.745 200.478 110.513 199.121 111.704C197.235 113.326 194.124 117.759 194.091 117.825C194.058 117.858 194.025 117.891 193.992 117.924C192.767 118.884 189.624 121.762 189.557 123.317C189.557 123.549 189.624 123.714 189.756 123.847C190.881 124.906 197.632 122.457 202.066 120.373C202.1 120.34 202.166 120.34 202.232 120.34Z" fill="#302b40"/>
<path d="M222.584 105.617C228.772 97.3452 233.471 89.0407 234.067 82.2251C236.019 60.0246 230.791 48.2131 227.051 42.9194C223.312 37.6257 212.424 36.1368 212.424 36.1368C212.424 36.1368 209.909 51.1908 214.211 63.5648C218.546 75.9388 218.348 85.1697 217.156 88.5113C215.965 91.853 211.994 99.2973 211.994 99.2973C211.994 99.2973 216.23 99.3634 220.499 102.837C222.319 104.326 222.584 105.617 222.584 105.617Z" fill="white"/>
<path d="M222.581 106.113C222.548 106.113 222.515 106.113 222.481 106.113C222.283 106.08 222.151 105.914 222.117 105.716C222.117 105.716 221.853 104.558 220.231 103.234C216.161 99.9259 212.09 99.8266 212.024 99.8266C211.859 99.8266 211.693 99.7274 211.594 99.595C211.495 99.4296 211.495 99.2642 211.594 99.0987C211.627 99.0326 215.565 91.6214 216.723 88.379C217.849 85.1366 218.014 75.9388 213.778 63.7633C213.447 62.8369 213.149 61.8444 212.885 60.8187C212.818 60.554 212.984 60.2893 213.249 60.2232C213.513 60.157 213.778 60.3224 213.844 60.5871C214.109 61.5797 214.407 62.5392 214.705 63.4656C219.371 76.8321 218.676 85.8314 217.65 88.743C216.657 91.5221 213.811 97.0474 212.818 98.9333C214.274 99.1318 217.518 99.8266 220.827 102.507C221.82 103.334 222.382 104.095 222.713 104.657C229.398 95.6247 233.071 88.0482 233.568 82.2251C235.553 59.7269 230.093 48.1469 226.651 43.2503C223.077 38.1882 212.487 36.6662 212.388 36.6662C212.123 36.6331 211.925 36.3684 211.958 36.1038C211.991 35.8391 212.256 35.6406 212.521 35.6737C212.984 35.7398 223.673 37.2618 227.478 42.6547C230.986 47.6506 236.612 59.4622 234.593 82.2913C234.031 88.4783 230.159 96.4188 223.011 105.947C222.879 106.047 222.746 106.113 222.581 106.113Z" fill="#302b40"/>
<path d="M205.207 31.5712C205.207 31.5712 208.483 33.1262 207.292 39.8095C206.101 46.4928 197.199 58.6683 194.32 68.3624C191.44 78.0564 192.764 81.3319 194.32 84.8721C194.32 84.8721 196.404 72.8289 208.847 65.3516L205.174 58.2051C205.174 58.2051 210.634 54.0032 213.149 46.8898C215.565 40.008 213.646 35.74 211.66 34.1518C209.741 32.5637 205.207 31.5712 205.207 31.5712Z" fill="white"/>
<path d="M194.321 85.3352C194.123 85.3352 193.957 85.236 193.858 85.0374C192.303 81.5635 190.847 78.2549 193.825 68.1969C195.281 63.3333 198.127 58.0065 200.907 52.8452C203.62 47.7831 206.202 43.0188 206.764 39.7102C207.856 33.4901 204.977 32.0013 204.944 32.0013C204.712 31.902 204.613 31.6373 204.679 31.4057C204.746 31.1741 205.01 31.0418 205.242 31.0749C205.44 31.1079 209.908 32.1336 211.96 33.7548C214.243 35.5745 216.03 40.1403 213.614 47.0221C211.397 53.2753 207.029 57.2786 205.771 58.3043L209.246 65.0868C209.379 65.3184 209.279 65.6162 209.048 65.7486C196.936 72.9943 194.752 84.8059 194.752 84.9051C194.718 85.1367 194.553 85.3021 194.321 85.3021C194.354 85.3352 194.354 85.3352 194.321 85.3352ZM206.863 32.5306C207.691 33.7879 208.452 36.0377 207.757 39.9087C207.161 43.3496 204.547 48.2132 201.8 53.3415C199.054 58.4697 196.208 63.7634 194.785 68.4947C192.27 76.8984 192.998 80.3724 194.189 83.317C195.182 79.8761 198.557 71.1084 208.187 65.1861L204.746 58.4697C204.646 58.2712 204.679 58.0065 204.878 57.8411C204.944 57.808 210.272 53.6392 212.688 46.7574C215.104 39.9087 212.986 35.8723 211.364 34.5819C210.305 33.6555 208.32 32.9607 206.863 32.5306Z" fill="#302b40"/>
<path d="M190.547 75.1448C192.632 83.2177 201.567 91.0259 201.567 91.0259C201.567 91.0259 181.248 83.9786 178.303 66.9395L183.167 58.1718L179.494 49.2056L183.763 42.9525C186.808 38.9491 191.077 35.5082 195.676 33.5231L196.669 37.7911C196.669 37.7911 191.474 40.835 189.951 48.2462C188.032 57.3778 189.488 71.0421 190.547 75.1448Z" fill="white"/>
<path d="M201.57 91.489C201.504 91.489 201.471 91.489 201.405 91.4559C201.206 91.3898 196.209 89.6362 190.749 85.7321C185.719 82.1258 179.365 75.9388 177.81 66.9726C177.777 66.8733 177.81 66.741 177.876 66.6418L182.608 58.0726L181.946 56.3191C181.847 56.0544 181.98 55.7897 182.244 55.6904C182.509 55.5912 182.774 55.7235 182.873 55.9882L183.634 57.9402C183.7 58.0726 183.667 58.238 183.601 58.3704L178.836 66.9726C181.185 79.9091 193.893 87.0225 199.287 89.5039C196.507 86.6916 191.576 81.1001 190.087 75.244C188.929 70.6782 187.638 56.9808 189.458 48.0807C190.815 41.5298 194.919 38.3205 196.11 37.4934L195.316 34.1517C191.543 35.9053 187.804 39.1146 184.461 43.5149L183.369 45.1361C183.204 45.3677 182.906 45.4339 182.674 45.2685C182.443 45.103 182.377 44.8053 182.542 44.5737L183.667 42.9194C187.274 38.1551 191.378 34.7473 195.481 32.9937C195.614 32.9275 195.779 32.9275 195.912 32.9937C196.044 33.0599 196.143 33.1922 196.176 33.3246L197.169 37.5926C197.235 37.7911 197.136 38.0227 196.937 38.122C196.904 38.1551 191.907 41.1659 190.451 48.2462C188.532 57.6094 190.12 71.3399 191.08 74.9462C193.099 82.7875 201.868 90.4965 201.934 90.5626C202.1 90.7281 202.166 90.9927 202.034 91.1912C201.901 91.4228 201.736 91.489 201.57 91.489Z" fill="#302b40"/>
<path d="M185.553 49.7018C185.553 49.7018 179.695 43.5479 176.717 42.6215C173.738 41.6951 165.3 45.8308 163.91 47.7498C162.52 49.6688 158.88 64.1603 159.376 66.8071C159.939 69.851 167.186 71.3067 168.344 67.7666C169.503 64.2264 168.344 51.3892 168.344 51.3892C168.344 51.3892 173.904 51.1907 175.029 50.0989C176.154 49.0401 180.721 53.1097 182.343 53.4736C183.997 53.8375 182.21 49.3048 182.21 49.3048C182.21 49.3048 184.328 51.0584 185.553 49.7018Z" fill="white"/>
<path d="M164.737 70.3473C164.571 70.3473 164.373 70.3473 164.207 70.3142C161.924 70.1488 159.276 68.8916 158.912 66.9064C158.383 64.1272 162.122 49.4041 163.512 47.4521C164.968 45.4339 173.572 41.1327 176.849 42.1253C179.893 43.0517 185.651 49.0733 185.883 49.338C186.048 49.5365 186.081 49.8343 185.883 49.9997C185.089 50.8599 183.997 50.7606 183.103 50.3967C183.467 51.5878 183.765 53.0436 183.235 53.6722C183.103 53.8376 182.772 54.0692 182.243 53.97C181.515 53.8045 180.489 53.1428 179.264 52.3488C178.139 51.6209 175.756 50.0659 175.359 50.4629C174.3 51.4554 170.462 51.7863 168.873 51.8525C169.072 54.3339 169.866 64.7228 168.807 67.9321C168.344 69.4871 166.821 70.3473 164.737 70.3473ZM175.723 42.9855C172.513 42.9855 165.564 46.3603 164.306 48.0476C162.983 49.8673 159.376 64.1603 159.872 66.741C160.104 68.0313 162.089 69.1893 164.273 69.3548C164.968 69.3878 167.318 69.4209 167.88 67.6674C169.006 64.2927 167.847 51.5878 167.847 51.4885C167.847 51.3562 167.88 51.2238 167.98 51.1246C168.079 51.0253 168.211 50.9592 168.344 50.9592C170.429 50.893 173.969 50.496 174.698 49.8012C175.657 48.8748 177.676 50.1651 179.827 51.5547C180.853 52.2164 181.945 52.9112 182.474 53.0436C182.507 53.0436 182.507 53.0436 182.507 53.0436C182.673 52.6796 182.342 51.0584 181.746 49.5365C181.68 49.338 181.746 49.0733 181.912 48.9409C182.077 48.8086 182.342 48.8086 182.507 48.9409C182.507 48.9409 183.831 49.9997 184.758 49.6357C183.401 48.2792 178.933 43.8127 176.551 43.0848C176.352 43.0186 176.054 42.9855 175.723 42.9855Z" fill="#302b40"/>
<path d="M190.548 46.3934C190.515 46.3934 190.482 46.3934 190.449 46.3934C190.184 46.3272 189.986 46.0956 190.052 45.7979C191.309 39.1477 193.328 36.6001 193.427 36.4677C193.593 36.2692 193.924 36.2361 194.122 36.4016C194.321 36.567 194.354 36.8979 194.188 37.0964C194.155 37.1295 192.203 39.6109 191.012 45.9633C190.978 46.228 190.78 46.3934 190.548 46.3934Z" fill="#302b40"/>
<path d="M99.3746 35.4011C102.554 32.2227 102.554 27.0693 99.3746 23.8909C96.1954 20.7124 91.041 20.7124 87.8618 23.8909C84.6827 27.0693 84.6827 32.2227 87.8618 35.4011C91.041 38.5796 96.1954 38.5796 99.3746 35.4011Z" fill="white"/>
<path d="M125.948 35.8723C125.683 35.8723 125.451 35.6407 125.451 35.376V32.7954C125.451 32.5307 125.683 32.2991 125.948 32.2991C126.212 32.2991 126.444 32.5307 126.444 32.7954V35.376C126.444 35.6407 126.245 35.8723 125.948 35.8723Z" fill="#302b40"/>
<path d="M125.948 41.8278C125.683 41.8278 125.451 41.5962 125.451 41.3315V38.7508C125.451 38.4861 125.683 38.2545 125.948 38.2545C126.212 38.2545 126.444 38.4861 126.444 38.7508V41.3315C126.444 41.6293 126.245 41.8278 125.948 41.8278Z" fill="#302b40"/>
<path d="M124.261 37.5597H121.68C121.415 37.5597 121.184 37.3281 121.184 37.0634C121.184 36.7987 121.415 36.5671 121.68 36.5671H124.261C124.526 36.5671 124.758 36.7987 124.758 37.0634C124.758 37.3281 124.526 37.5597 124.261 37.5597Z" fill="#302b40"/>
<path d="M130.216 37.5597H127.635C127.37 37.5597 127.139 37.3281 127.139 37.0634C127.139 36.7987 127.37 36.5671 127.635 36.5671H130.216C130.481 36.5671 130.713 36.7987 130.713 37.0634C130.713 37.3281 130.514 37.5597 130.216 37.5597Z" fill="#302b40"/>
<path d="M138.987 14.8298C138.722 14.8298 138.49 14.5982 138.49 14.3335V11.7529C138.49 11.4882 138.722 11.2566 138.987 11.2566C139.251 11.2566 139.483 11.4882 139.483 11.7529V14.3335C139.483 14.5982 139.284 14.8298 138.987 14.8298Z" fill="#302b40"/>
<path d="M138.987 20.7852C138.722 20.7852 138.49 20.5536 138.49 20.2889V17.7082C138.49 17.4435 138.722 17.2119 138.987 17.2119C139.251 17.2119 139.483 17.4435 139.483 17.7082V20.2889C139.483 20.5866 139.284 20.7852 138.987 20.7852Z" fill="#302b40"/>
<path d="M137.3 16.5172H134.719C134.454 16.5172 134.223 16.2856 134.223 16.0209C134.223 15.7563 134.454 15.5247 134.719 15.5247H137.3C137.565 15.5247 137.797 15.7563 137.797 16.0209C137.797 16.3187 137.565 16.5172 137.3 16.5172Z" fill="#302b40"/>
<path d="M143.29 16.5172H140.709C140.445 16.5172 140.213 16.2856 140.213 16.0209C140.213 15.7563 140.445 15.5247 140.709 15.5247H143.29C143.555 15.5247 143.787 15.7563 143.787 16.0209C143.787 16.3187 143.555 16.5172 143.29 16.5172Z" fill="#302b40"/>
<path d="M143.256 37.6919C144.499 37.6919 145.506 36.655 145.506 35.3759C145.506 34.0968 144.499 33.0599 143.256 33.0599C142.013 33.0599 141.006 34.0968 141.006 35.3759C141.006 36.655 142.013 37.6919 143.256 37.6919Z" fill="#DFF6FD"/>
<path d="M23.6517 160.314L18.1729 176.888L14.6582 178.163L21.6531 158.315L23.6517 160.314Z" fill="#302b40"/>
<path d="M30.9924 217.858C30.9924 217.858 33.1977 219.168 35.403 217.858C37.6083 216.549 48.2214 199.837 49.7031 197.011C51.1847 194.186 47.5322 174.338 43.8797 172.202C40.2272 170.065 28.3392 168.894 24.5144 169.549C20.724 170.203 7.97461 182.78 7.97461 182.78L11.4549 209.244L30.9924 217.858Z" fill="#4281C4"/>
<path d="M33.3003 218.995C31.9909 218.995 30.9916 218.444 30.7849 218.341L11.2817 209.761C11.1095 209.692 11.0061 209.519 10.9716 209.347L7.49139 182.884C7.45693 182.711 7.52584 182.573 7.62921 182.436C8.14608 181.919 20.5164 169.755 24.4446 169.066C28.4073 168.377 40.4675 169.583 44.1545 171.788C46.67 173.27 48.5307 181.023 49.2198 184.296C50.288 189.362 51.0461 195.599 50.1502 197.287C48.8753 199.733 38.0899 216.859 35.6434 218.341C34.8509 218.823 34.0239 218.995 33.3003 218.995ZM31.2673 217.445C31.3362 217.479 33.2314 218.582 35.161 217.445C37.1941 216.204 47.6348 199.871 49.2888 196.805C49.8401 195.771 49.5989 190.878 48.255 184.503C46.9112 178.163 45.1193 173.546 43.6721 172.684C40.1919 170.651 28.4073 169.445 24.6858 170.1C21.7569 170.617 12.2466 179.403 8.59403 182.987L12.0054 208.934L31.2673 217.41C31.2328 217.41 31.2673 217.41 31.2673 217.445Z" fill="#302b40"/>
<path d="M29.8539 161.727C30.5431 164.07 32.7828 172.615 33.7476 174.717C36.8833 181.471 39.5021 185.261 39.5021 185.261L41.2594 183.022C41.2594 183.022 32.0592 160.59 31.6113 159.315C29.6816 153.664 25.6845 155.111 24.0306 157.971C23.238 159.349 23.8927 162.623 23.8927 162.623C23.8927 162.623 27.8554 176.199 30.4397 181.195C32.5761 185.33 35.4016 190.637 35.4016 190.637L37.2968 188.673L33.4375 180.885C32.1626 178.301 31.0255 175.613 30.0607 172.891L27.3385 163.002C26.546 158.488 29.3026 159.866 29.8539 161.727Z" fill="#302b40"/>
<path d="M6.35401 186.364C6.5263 184.124 8.00799 182.16 10.1788 181.505C12.3841 180.816 15.8988 180.541 21.4121 181.505C34.6439 183.814 32.8176 189.293 33.4723 191.774C34.127 194.255 37.2627 214.447 36.608 216.239C35.9533 218.065 35.781 220.201 10.9714 218.375C10.9714 218.375 3.35618 218.858 4.70004 205.316C5.6304 196.012 6.14727 189.534 6.35401 186.364Z" fill="#4281C4"/>
<path d="M26.0985 219.581C22.2392 219.581 17.2428 219.34 10.9715 218.892C10.6269 218.892 8.525 218.892 6.66428 216.997C4.45898 214.723 3.63198 210.76 4.14885 205.247C5.07921 195.874 5.59609 189.362 5.80283 186.295C5.97512 183.814 7.66355 181.678 9.97222 180.989C12.7633 180.127 16.6226 180.127 21.4467 180.954C33.059 182.987 33.4725 187.604 33.7481 190.361C33.7826 190.844 33.8515 191.257 33.9204 191.602C34.5407 193.979 37.7797 214.344 37.0561 216.377L37.0216 216.515C36.6081 217.721 35.9879 218.685 32.6799 219.202C31.1293 219.444 28.924 219.581 26.0985 219.581ZM11.006 217.858H11.0404C34.8852 219.616 35.6088 217.617 36.0913 216.17L36.1257 216.032C36.7115 214.447 33.7481 194.806 32.9556 191.877C32.8522 191.464 32.7833 190.981 32.7489 190.464C32.5077 187.846 32.1286 183.883 21.3089 181.988C16.657 181.161 12.9701 181.161 10.3168 181.988C8.42162 182.574 7.00885 184.331 6.87102 186.398C6.62981 189.465 6.11295 195.978 5.21705 205.35C4.70018 210.484 5.49271 214.275 7.42235 216.273C9.04186 217.962 10.937 217.858 11.006 217.858C10.9715 217.858 10.9715 217.858 11.006 217.858Z" fill="#302b40"/>
<path d="M14.7976 192.739L20.6554 193.91L16.107 223.165H8.66406L14.7976 192.739Z" fill="#302b40"/>
<path d="M62.2461 200.078C62.2461 200.078 62.2461 215.722 72.1699 224.474C73.2726 225.439 73.7895 226.921 73.9962 228.403C74.4097 231.125 76.2704 235.708 79.3716 242.013C82.4384 248.354 82.8174 272.44 82.8174 272.44L90.2948 271.096C90.2948 271.096 91.1562 261.896 91.6042 251.076C92.0866 238.774 90.4326 223.682 84.0579 218.72C80.6466 216.067 81.129 198.769 81.129 198.769L62.2461 200.078Z" fill="white"/>
<path d="M82.8167 272.957C82.7134 272.957 82.5755 272.922 82.4722 272.853C82.3688 272.75 82.2999 272.612 82.2999 272.474C82.2999 272.233 81.8864 248.423 78.8885 242.255C75.5461 235.363 73.8577 231.125 73.4786 228.471C73.2374 226.817 72.6861 225.611 71.8247 224.853C61.8319 216.032 61.7285 200.251 61.7285 200.078C61.7285 199.803 61.9353 199.596 62.2109 199.561L81.0249 198.252C81.1627 198.252 81.3006 198.286 81.4039 198.39C81.5073 198.493 81.5762 198.631 81.5762 198.769C81.4384 203.49 81.6796 216.239 84.3329 218.306C92.4994 224.612 92.3271 244.977 92.0859 251.076C91.6724 261.792 90.8109 271.027 90.7765 271.13C90.742 271.371 90.5697 271.544 90.363 271.578L82.8856 272.922C82.8512 272.957 82.8167 272.957 82.8167 272.957ZM62.7623 200.561C62.8656 203.248 63.8304 216.446 72.4794 224.061C73.5131 224.991 74.2023 226.404 74.4779 228.299C74.857 230.78 76.5454 235.053 79.7844 241.772C82.6444 247.63 83.1958 267.926 83.2647 271.819L89.7428 270.648C89.915 268.787 90.6387 260.483 91.0177 251.041C91.5001 238.74 89.8461 223.923 83.6437 219.133C80.3702 216.584 80.4391 202.697 80.4736 199.32L62.7623 200.561Z" fill="#302b40"/>
<path d="M75.9934 226.507C75.7178 226.507 75.4766 226.266 75.4766 225.991C75.4766 225.715 75.7178 225.474 75.9934 225.474C80.2662 225.474 80.404 222.614 80.404 222.51C80.404 222.235 80.6452 221.993 80.9209 221.993C81.1966 221.993 81.4378 222.235 81.4378 222.51C81.4033 222.579 81.2655 226.507 75.9934 226.507Z" fill="#302b40"/>
<path d="M82.3693 287.808C85.0225 288.187 89.3987 288.532 94.5673 287.808C96.2558 287.567 97.3584 285.947 96.9449 284.259C95.8078 279.642 93.8782 270.855 90.5358 266.789L89.7088 268.994L88.5717 266.927C88.3994 266.651 88.1237 266.444 87.8136 266.41L85.2982 266.1C84.7813 266.031 84.2989 266.375 84.1611 266.892L83.7476 268.822L82.2314 266.306L81.5423 275.679C81.4044 277.677 81.0943 279.676 80.6464 281.64L79.9572 284.603C79.7505 286.154 80.8187 287.601 82.3693 287.808Z" fill="#4281C4"/>
<path d="M88.4329 288.738C85.9864 288.738 83.8845 288.532 82.2994 288.325C80.4732 288.084 79.1982 286.361 79.4394 284.534V284.5L80.1286 281.537C80.5766 279.607 80.8867 277.643 81.0245 275.644L81.7137 266.272C81.7137 266.031 81.8859 265.858 82.0927 265.824C82.2994 265.755 82.5406 265.858 82.644 266.065L83.5055 267.443L83.6433 266.823C83.8156 266.031 84.5392 265.514 85.3317 265.617L87.8472 265.927C88.3296 265.996 88.7431 266.272 88.9843 266.72L89.6045 267.822L90.0525 266.651C90.1214 266.479 90.2592 266.341 90.466 266.306C90.6383 266.272 90.845 266.341 90.9484 266.479C94.153 270.372 96.0826 278.367 97.2197 283.156L97.4609 284.155C97.7021 285.086 97.4954 286.085 96.9785 286.878C96.4272 287.67 95.6002 288.187 94.6354 288.325C92.3956 288.635 90.2937 288.738 88.4329 288.738ZM80.4387 284.672C80.3009 285.947 81.1623 287.119 82.4373 287.291C85.1594 287.67 89.4322 287.98 94.4631 287.291C95.1178 287.188 95.7036 286.843 96.0826 286.292C96.4616 285.741 96.5995 285.051 96.4272 284.397L96.186 283.397C95.1178 278.987 93.3949 271.785 90.6727 267.857L90.1558 269.201C90.0869 269.373 89.9146 269.511 89.7079 269.545C89.5011 269.58 89.3288 269.442 89.2255 269.27L88.0884 267.202C88.0195 267.064 87.8816 266.961 87.7093 266.961L85.1939 266.651C84.9182 266.616 84.7115 266.789 84.6426 267.064L84.2291 268.994C84.1946 269.201 84.0223 269.373 83.8156 269.407C83.6088 269.442 83.4021 269.339 83.2987 269.166L82.6096 268.029L82.0582 275.782C81.9204 277.815 81.6103 279.848 81.1279 281.812L80.4387 284.672Z" fill="#302b40"/>
<path d="M96.5314 282.571C96.6692 283.191 96.8071 283.742 96.9449 284.259C97.3584 285.913 96.2213 287.567 94.5673 287.808C89.4331 288.532 85.057 288.187 82.3693 287.808C80.8187 287.601 79.7505 286.154 79.9572 284.569L80.3363 282.984C84.3334 284.052 90.6391 284.948 96.5314 282.571Z" fill="white"/>
<path d="M88.4329 288.738C85.9864 288.738 83.8845 288.532 82.2994 288.325C80.4732 288.084 79.1982 286.361 79.4394 284.535V284.5L79.8185 282.915C79.8529 282.777 79.9218 282.674 80.0597 282.605C80.1631 282.536 80.3353 282.502 80.4732 282.536C84.5737 283.604 90.6727 284.397 96.3583 282.123C96.4961 282.054 96.6684 282.088 96.7718 282.157C96.9096 282.226 97.013 282.364 97.0474 282.502L97.4609 284.19C97.7021 285.12 97.4954 286.12 96.9785 286.912C96.4272 287.705 95.6002 288.222 94.6354 288.359C92.3956 288.635 90.2937 288.738 88.4329 288.738ZM80.4387 284.672C80.3009 285.947 81.1623 287.119 82.4373 287.291C85.1594 287.67 89.4322 287.98 94.4631 287.291C95.1178 287.188 95.7036 286.843 96.0826 286.292C96.4616 285.741 96.565 285.051 96.4272 284.397L96.1515 283.26C90.6038 285.293 84.7804 284.638 80.6799 283.639L80.4387 284.672Z" fill="#302b40"/>
<path d="M90.8791 279.469L84.849 279.262C84.5733 279.262 84.3321 279.021 84.3666 278.745C84.3666 278.47 84.6078 278.229 84.8834 278.263L90.8791 278.47C91.1548 278.47 91.396 278.711 91.3615 278.987C91.396 279.228 91.1548 279.469 90.8791 279.469Z" fill="#302b40"/>
<path d="M90.2593 275.954L84.6771 275.748C84.4014 275.748 84.1602 275.507 84.1947 275.196C84.1947 274.921 84.4359 274.68 84.746 274.714L90.3282 274.921C90.6039 274.921 90.8451 275.162 90.8106 275.472C90.7762 275.748 90.5349 275.954 90.2593 275.954Z" fill="#302b40"/>
<path d="M89.6388 272.715L84.4701 272.509C84.1944 272.509 83.9532 272.268 83.9877 271.957C83.9877 271.682 84.2289 271.441 84.539 271.475L89.6732 271.682C89.9489 271.682 90.1901 271.923 90.1556 272.233C90.1556 272.474 89.9144 272.715 89.6388 272.715Z" fill="#302b40"/>
<path d="M30.957 187.811C30.957 187.811 31.9218 211.484 32.7833 215.86C34.6096 225.129 29.6476 221.821 36.4358 242.978C43.224 264.135 39.7438 272.578 39.7438 272.578L51.3216 269.27C51.3216 269.27 46.3597 247.596 48.0136 238.671C49.323 231.642 48.4616 225.06 46.8421 219.892C45.8772 216.859 45.7394 213.655 46.2907 210.519C47.669 202.904 50.3912 189.81 53.3201 187.811C57.4206 184.951 30.957 187.811 30.957 187.811Z" fill="white"/>
<path d="M39.7086 273.129C39.5708 273.129 39.4329 273.06 39.3296 272.957C39.1917 272.819 39.1573 272.612 39.2262 272.405C39.2607 272.336 42.5341 263.825 35.9182 243.151C31.5421 229.505 32.0245 225.853 32.438 222.648C32.6792 220.891 32.886 219.202 32.2657 215.963C31.4043 211.587 30.4739 188.776 30.4395 187.811C30.4395 187.536 30.6462 187.294 30.8874 187.26C30.9563 187.26 36.4696 186.64 42.0517 186.295C53.664 185.503 53.9741 186.433 54.1809 186.984C54.3532 187.398 54.1464 187.811 53.5606 188.225C51.5621 189.603 49.0811 197.77 46.7724 210.622C46.2211 213.724 46.3934 216.859 47.3238 219.754C48.6676 224.061 49.977 230.849 48.4953 238.774C46.8758 247.492 51.7344 268.96 51.8033 269.166C51.8722 269.442 51.6999 269.718 51.4587 269.787L39.8809 273.094C39.812 273.129 39.7775 273.129 39.7086 273.129ZM31.5076 188.294C31.6455 191.671 32.5069 211.828 33.2994 215.791C33.9886 219.202 33.7474 220.96 33.5062 222.821C33.0927 225.922 32.6447 229.436 36.9175 242.875C42.4997 260.276 41.2248 269.132 40.5011 271.888L50.7006 268.96C49.977 265.652 45.9455 246.941 47.4961 238.637C48.9433 230.884 47.6684 224.268 46.3245 220.098C45.3597 217.066 45.1529 213.724 45.7732 210.485C47.4616 201.078 50.1149 189.431 53.0093 187.432C53.0438 187.398 53.0438 187.398 53.0782 187.398C51.252 186.674 41.0525 187.26 31.5076 188.294Z" fill="#302b40"/>
<path d="M38.6056 223.131C37.5029 223.131 36.3658 222.752 35.401 221.615C35.2287 221.408 35.2287 221.063 35.4699 220.891C35.6766 220.719 36.0212 220.719 36.1935 220.96C38.0887 223.165 40.7764 221.511 40.8798 221.442C41.121 221.304 41.4311 221.373 41.6034 221.615C41.7412 221.856 41.6723 222.166 41.4311 222.338C40.7764 222.717 39.7427 223.131 38.6056 223.131Z" fill="#302b40"/>
<path d="M51.3905 263.102C51.3905 263.102 51.5283 267.96 53.4924 271.268C55.4565 274.61 56.5247 276.85 53.9748 278.711C52.5276 279.779 49.0818 280.951 46.3596 281.743C44.3266 282.363 42.4659 283.432 40.8464 284.81C38.4688 286.877 33.6791 289.462 26.0295 287.429C16.3469 284.879 26.9254 278.16 30.9914 275.851C31.9562 275.3 32.8177 274.542 33.4724 273.646L40.2606 264.273C40.2606 264.273 43.8442 269.373 46.7731 268.856C50.529 268.236 51.3905 263.102 51.3905 263.102Z" fill="#4281C4"/>
<path d="M31.302 288.669C29.6825 288.669 27.8907 288.463 25.9266 287.946C23.2389 287.257 21.7916 286.119 21.5849 284.638C21.1714 281.399 27.1326 277.471 30.7507 275.438C31.681 274.921 32.4391 274.232 33.0593 273.37L39.8475 263.998C39.9509 263.86 40.0887 263.791 40.261 263.791C40.4333 263.791 40.5712 263.86 40.6745 263.998C41.6394 265.341 44.5683 268.753 46.6702 268.374C50.0126 267.788 50.8396 263.033 50.874 262.964C50.9085 262.688 51.1497 262.516 51.4254 262.516C51.701 262.55 51.9078 262.757 51.9078 263.033C51.9078 263.067 52.0801 267.788 53.9408 270.958C55.6292 273.818 57.3866 276.781 54.2854 279.09C53.0794 279.986 50.4606 281.02 46.5324 282.191C44.6027 282.777 42.8109 283.742 41.1914 285.155C39.4685 286.671 36.2295 288.669 31.302 288.669ZM40.261 265.169L33.8863 273.956C33.1972 274.921 32.3013 275.713 31.2675 276.299C25.6164 279.504 22.3774 282.57 22.6186 284.466C22.7564 285.499 23.9625 286.326 26.2022 286.912C33.4039 288.807 37.9868 286.602 40.5367 284.397C42.2596 282.915 44.1892 281.847 46.2567 281.226C50.0126 280.124 52.5969 279.09 53.6996 278.263C55.836 276.678 55.1124 274.921 53.0794 271.509C51.9767 269.649 51.4254 267.34 51.1497 265.617C50.4605 267.202 49.1512 268.994 46.8769 269.407C44.2237 269.89 41.3292 266.547 40.261 265.169Z" fill="#302b40"/>
<path d="M53.976 278.711C56.2158 277.057 55.6645 275.128 54.1828 272.44C52.7356 273.784 50.6336 275.507 47.0156 277.23C45.0859 278.16 43.2941 279.297 41.6401 280.675C38.8835 282.984 34.2662 284.845 30.2691 284.638C25.3761 284.431 24.4457 283.087 23.1363 281.812C21.1033 284.052 21.9303 286.326 26.0307 287.429C33.6804 289.428 38.4356 286.843 40.8476 284.81C42.4671 283.432 44.3279 282.364 46.3609 281.744C49.0486 280.951 52.4944 279.779 53.976 278.711Z" fill="white"/>
<path d="M31.3028 288.669C29.6833 288.669 27.8915 288.463 25.9274 287.946C22.9295 287.153 21.9647 285.878 21.689 284.914C21.4478 284.155 21.4823 282.949 22.7572 281.502L23.1018 281.089L23.4808 281.468C23.5842 281.571 23.6876 281.674 23.791 281.778C24.9281 282.881 25.9618 283.949 30.269 284.121C33.8182 284.293 38.3666 282.708 41.2611 280.262C42.9495 278.849 44.7758 277.677 46.7399 276.747C50.3924 274.99 52.4254 273.301 53.7693 272.026L54.2517 271.578L54.5618 272.164C55.9057 274.576 56.9739 277.092 54.2172 279.125C53.0112 280.021 50.3924 281.054 46.4642 282.226C44.5346 282.812 42.7428 283.776 41.1233 285.189C39.4693 286.671 36.2303 288.669 31.3028 288.669ZM23.1707 282.605C22.7572 283.191 22.4471 283.88 22.6539 284.603C22.964 285.568 24.2045 286.395 26.1686 286.912C33.3702 288.807 37.9531 286.602 40.503 284.397C42.2259 282.915 44.1556 281.847 46.223 281.227C49.9789 280.124 52.5633 279.09 53.6659 278.263C55.251 277.092 55.3888 275.817 54.045 273.232C52.7011 274.438 50.6336 276.058 47.2223 277.677C45.3616 278.573 43.5698 279.71 41.9847 281.054C38.8835 283.639 34.0594 285.327 30.269 285.155C25.6517 284.982 24.3423 283.776 23.1707 282.605Z" fill="#302b40"/>
<path d="M37.1937 278.16C37.0904 278.16 37.0215 278.125 36.9181 278.091L33.9203 276.264C33.6791 276.127 33.6102 275.817 33.748 275.541C33.8858 275.3 34.1959 275.231 34.4716 275.369L37.4694 277.195C37.7106 277.333 37.7795 277.643 37.6417 277.918C37.5383 278.091 37.366 278.16 37.1937 278.16Z" fill="#302b40"/>
<path d="M39.434 275.644C39.3306 275.644 39.2617 275.61 39.1583 275.575L36.1605 273.749C35.9193 273.611 35.8504 273.301 35.9882 273.025C36.126 272.784 36.4362 272.715 36.7118 272.853L39.7097 274.679C39.9509 274.817 40.0198 275.127 39.8819 275.403C39.7786 275.541 39.6063 275.644 39.434 275.644Z" fill="#302b40"/>
<path d="M41.1918 272.509C41.0885 272.509 41.0195 272.474 40.9161 272.44L37.9183 270.614C37.6771 270.476 37.6082 270.166 37.746 269.89C37.8839 269.649 38.194 269.58 38.4696 269.718L41.4675 271.544C41.7087 271.682 41.7776 271.992 41.6398 272.268C41.5364 272.405 41.3641 272.509 41.1918 272.509Z" fill="#302b40"/>
<path d="M82.8855 179.231C82.8855 168.067 77.6823 156.661 77.6823 156.661L37.8491 153.181C37.8491 153.181 33.5418 162.347 30.7852 171.547C28.063 180.713 29.3035 198.252 29.3035 198.252C29.3035 198.252 53.2173 204.661 54.1132 198.528C54.1476 198.39 55.3537 182.953 55.3537 182.953C56.3529 188.914 57.6968 201.388 57.6968 201.388C78.8884 206.177 84.4016 199.079 84.4016 199.079C84.4016 199.079 82.8855 190.396 82.8855 179.231Z" fill="#302b40"/>
<path d="M80.371 196.701C80.1298 196.701 79.8886 196.529 79.8541 196.253C79.4751 193.566 78.5792 186.399 78.5792 177.853C78.5792 174.683 78.1657 171.203 77.3043 167.447C77.2353 167.171 77.4076 166.895 77.6833 166.826C77.959 166.758 78.2346 166.93 78.3035 167.206C79.165 171.03 79.613 174.579 79.613 177.819C79.613 186.295 80.4744 193.428 80.8534 196.081C80.8879 196.357 80.6811 196.632 80.4055 196.667C80.4055 196.701 80.371 196.701 80.371 196.701Z" fill="white"/>
<path d="M21.4816 154.491C22.1707 153.56 23.0666 152.492 23.8247 151.631C24.824 150.528 27.9941 143.464 27.9941 143.464L34.2654 144.877C34.2654 144.877 30.0616 150.114 31.371 152.389C33.9898 156.972 32.198 161.348 32.198 161.348L30.2339 160.314C29.3724 159.866 28.3732 159.832 27.5117 160.211C27.4428 160.245 27.3394 160.28 27.2705 160.348C26.0989 161.038 25.3753 162.313 25.3064 163.656L25.1341 166.62C25.0996 166.62 17.6912 159.487 21.4816 154.491Z" fill="white"/>
<path d="M25.099 167.137C24.9612 167.137 24.8234 167.102 24.7544 166.999C24.4443 166.689 17.0703 159.487 21.0674 154.181C21.7566 153.25 22.6525 152.182 23.445 151.286C24.1342 150.528 26.2706 146.049 27.5111 143.257C27.6144 143.016 27.8556 142.913 28.0968 142.947L34.3682 144.36C34.5405 144.395 34.6783 144.532 34.7472 144.705C34.8161 144.877 34.7817 145.049 34.6783 145.187C33.1277 147.117 30.9913 150.7 31.8183 152.113C34.506 156.834 32.7487 161.348 32.6798 161.52C32.6108 161.658 32.5075 161.761 32.3696 161.796C32.2318 161.83 32.094 161.83 31.9561 161.761L29.992 160.728C29.2684 160.349 28.4414 160.314 27.7178 160.624C27.6489 160.659 27.58 160.693 27.5111 160.728C26.5118 161.313 25.8571 162.416 25.7882 163.622L25.6159 166.585C25.6159 166.792 25.4781 166.964 25.2713 167.033C25.2369 167.137 25.1679 167.137 25.099 167.137ZM21.8944 154.801C19.1723 158.419 22.9282 163.415 24.6511 165.379L24.7544 163.622C24.8578 162.071 25.6848 160.659 26.9942 159.901C27.0976 159.832 27.2009 159.797 27.3043 159.728C28.3036 159.28 29.4752 159.315 30.4744 159.866L31.8872 160.59C32.2318 159.315 32.852 156.007 30.9224 152.63C29.7508 150.563 32.2318 146.772 33.3689 145.187L28.3036 144.05C27.58 145.635 25.1679 150.942 24.2376 151.975C23.445 152.837 22.5491 153.905 21.8944 154.801Z" fill="#302b40"/>
<path d="M47.8762 79.9928C47.8417 80.1651 34.3342 87.3668 32.439 91.3983C30.2337 96.0846 30.3026 98.7034 30.6472 101.736C30.8884 103.7 32.3012 105.664 32.0945 107.662C31.7499 111.246 31.4398 117.104 32.439 120.515C33.9207 125.649 26.4434 145.325 26.4434 145.325L34.8855 148.323C34.8855 148.323 49.8747 123.892 43.3622 102.666C39.5718 90.2612 47.8762 79.9928 47.8762 79.9928Z" fill="#4281C4"/>
<path d="M59.4181 74.7897C59.4181 74.7897 63.0362 78.9935 67.2056 81.1644C71.4439 83.3697 76.9572 84.5757 76.9572 84.5757C76.9572 84.5757 81.5401 117.621 77.3362 139.122C76.716 142.224 76.9572 145.463 77.922 148.46C79.0591 151.975 80.3685 156.799 80.3685 160.831C80.403 168.033 35.022 158.591 35.022 158.591C35.022 158.591 39.2948 143.051 39.2603 131.059C39.2259 119.481 35.4355 111.487 35.022 107.249C33.8849 95.2921 40.8798 85.9195 44.3601 82.9217C47.8403 79.9239 59.4181 74.7897 59.4181 74.7897Z" fill="#4281C4"/>
<path d="M38.5361 141.535C38.5016 141.535 38.5016 141.535 38.4672 141.535C38.1915 141.5 37.9848 141.224 38.0192 140.949C38.5016 137.262 38.7428 133.954 38.7428 131.059C38.7084 123.134 37.4335 116.932 36.4686 112.418C36.0207 110.316 35.6761 108.662 35.5383 107.318C34.9525 101.15 36.193 94.9476 39.053 89.8478C39.1908 89.6066 39.5009 89.5032 39.7421 89.6411C39.9833 89.7789 40.0867 90.089 39.9489 90.3302C37.1922 95.2577 35.9862 101.253 36.5376 107.215C36.6754 108.524 37.02 110.143 37.4334 112.211C38.3983 116.794 39.7077 123.065 39.7421 131.059C39.7421 133.954 39.5009 137.331 39.0185 141.087C38.984 141.362 38.7773 141.535 38.5361 141.535Z" fill="#302b40"/>
<path d="M49.0813 109.627C47.5651 108.558 47.0827 108.145 45.9456 106.698C45.2565 105.802 42.741 102.287 38.1581 103.597C34.7124 104.596 34.6434 106.388 35.6083 107.077C36.4008 107.663 38.3649 106.698 36.8143 107.421C34.7468 108.421 32.7138 110.695 33.334 113.486C34.161 117.207 40.6391 112.624 42.9822 113.934C43.2923 114.106 45.0497 115.002 46.6348 115.795C48.1165 116.553 49.9427 116.036 50.8386 114.623C51.769 113.141 51.3555 111.212 49.9427 110.212L49.0813 109.627Z" fill="white"/>
<path d="M48.1169 116.656C47.5311 116.656 46.9797 116.518 46.4284 116.243C44.2576 115.14 43.0171 114.52 42.7414 114.382C41.9834 113.968 40.3638 114.382 38.8477 114.83C37.0214 115.347 35.1263 115.863 33.9202 115.14C33.4034 114.83 33.0588 114.313 32.8865 113.589C32.3352 111.074 33.7479 108.869 35.5398 107.594C35.4708 107.559 35.4019 107.525 35.3675 107.49C34.7817 107.077 34.506 106.422 34.6439 105.767C34.7472 105.113 35.3675 103.907 38.0552 103.114C41.1908 102.184 43.9819 103.252 46.2906 106.284L46.3595 106.388C47.4622 107.8 47.8757 108.179 49.3918 109.213L50.2532 109.799C51.9072 110.936 52.3896 113.176 51.287 114.899C50.5978 116.001 49.3573 116.656 48.1169 116.656ZM41.9144 113.176C42.4313 113.176 42.8793 113.279 43.2583 113.486C43.4306 113.589 44.1887 113.968 46.8764 115.312C48.1513 115.932 49.6675 115.519 50.3911 114.347C51.1836 113.107 50.839 111.487 49.633 110.66L48.7716 110.075C47.1865 108.972 46.6696 108.489 45.5325 107.042L45.4636 106.939C44.7055 105.94 42.3624 102.942 38.3308 104.148C36.0222 104.837 35.6776 105.733 35.6431 106.009C35.5742 106.388 35.8499 106.629 35.9533 106.732C36.1255 106.87 36.539 106.87 37.1593 106.732C37.2971 106.698 37.7795 106.629 37.9174 107.042C38.0552 107.49 37.7451 107.628 37.1593 107.938L37.0904 107.973C35.1607 108.869 33.3689 110.97 33.9202 113.451C34.0236 113.865 34.1959 114.175 34.4716 114.347C35.2986 114.83 36.987 114.382 38.6065 113.934C39.7781 113.486 40.9152 113.176 41.9144 113.176Z" fill="#302b40"/>
<path d="M76.1642 84.3C76.1642 84.3 85.33 85.0581 87.3286 98.9446C89.3271 112.831 93.2898 131.197 86.0881 136.159C78.8864 141.121 44.5664 117.345 44.5664 117.345C44.5664 117.345 48.2189 116.139 49.5628 111.97C50.3898 109.454 50.3553 107.456 50.3553 107.456C50.3553 107.456 65.4823 119.034 75.165 119.275C75.165 119.275 69.1693 114.106 73.6833 102.666C77.7148 92.4321 76.1642 84.3 76.1642 84.3Z" fill="#4281C4"/>
<path d="M71.8225 164.07C58.8319 164.07 36.1587 159.384 34.9182 159.142C34.7804 159.108 34.6426 159.039 34.5736 158.901C34.5047 158.763 34.4703 158.626 34.5047 158.488C34.5392 158.419 36.1587 152.458 37.3647 145.187C36.331 147.358 35.3317 148.564 35.2628 148.633C35.125 148.805 34.8838 148.874 34.677 148.805L26.2349 145.807C26.097 145.773 25.9936 145.669 25.9247 145.532C25.8558 145.394 25.8558 145.256 25.9247 145.118C25.9936 144.911 33.3332 125.546 31.9204 120.619C30.9556 117.242 31.1968 111.66 31.5758 107.559C31.6792 106.56 31.2657 105.492 30.8522 104.389C30.5421 103.528 30.1975 102.666 30.0941 101.736C29.5773 97.3596 30.2319 93.7759 31.9548 91.0538C33.9534 87.9526 42.4989 82.6461 46.1515 80.3718C46.7717 79.9928 47.323 79.6482 47.4609 79.5449C47.5987 79.407 47.8399 79.3381 48.0466 79.4415C48.15 79.5104 48.2534 79.5793 48.2879 79.6827C52.9397 77.0639 59.0731 74.3073 59.1421 74.2728C59.3488 74.1694 59.59 74.2384 59.7278 74.4106C59.7623 74.4451 63.3459 78.5456 67.343 80.682C71.6158 82.9562 76.8189 83.7487 76.8534 83.7487C76.9223 83.7487 86.4326 84.7135 88.4656 98.8412C88.7069 100.564 88.9825 102.321 89.2582 104.217C91.2567 117.242 93.5654 132.024 86.984 136.573C85.33 137.71 82.47 137.606 78.2317 136.228C78.0594 137.296 77.8871 138.295 77.7148 139.26C77.129 142.224 77.3358 145.359 78.3006 148.357C79.4032 151.803 80.7471 156.765 80.7816 160.865C80.7816 161.52 80.5059 162.106 79.9201 162.588C78.7141 163.656 75.6818 164.07 71.8225 164.07ZM35.6418 158.247C46.8406 160.555 74.9927 165.345 79.3688 161.796C79.6789 161.52 79.8512 161.244 79.8512 160.9C79.8167 156.903 78.5074 152.079 77.4047 148.702C76.371 145.566 76.1642 142.258 76.7845 139.088C76.9912 137.985 77.198 136.779 77.4047 135.504C77.4392 135.367 77.5081 135.229 77.6459 135.125C77.7837 135.056 77.9216 135.022 78.0939 135.091C82.1943 136.504 85.1233 136.745 86.5016 135.78C92.5317 131.611 90.2919 117.173 88.3278 104.423C88.0522 102.563 87.7765 100.771 87.5008 99.048C85.6057 85.7473 77.1635 84.8858 76.8189 84.8514C76.5777 84.8169 71.3746 84.0244 66.9295 81.6812C63.3459 79.7861 60.1758 76.4781 59.2799 75.4788C57.7638 76.168 51.5269 79.0624 47.4264 81.5434C47.2197 81.6812 46.944 81.6468 46.8062 81.4745C46.7717 81.44 46.7717 81.44 46.7373 81.4056C43.4293 83.4731 34.7459 88.8485 32.8852 91.7429C31.2657 94.2584 30.6799 97.6008 31.1623 101.736C31.2657 102.494 31.5414 103.286 31.8515 104.148C32.2994 105.319 32.7474 106.525 32.6095 107.766C32.2994 111.039 31.9549 117.069 32.9197 120.446C34.3324 125.27 28.2679 141.914 27.0963 145.084L34.7115 147.771C35.3317 146.944 37.0891 144.257 38.1228 140.26C38.1917 139.984 38.4674 139.846 38.7086 139.881C38.9842 139.915 39.1565 140.191 39.1221 140.466C38.1228 148.461 36.1932 156.179 35.6418 158.247Z" fill="#302b40"/>
<path d="M76.7172 136.09C76.6483 136.09 76.6138 136.09 76.5449 136.056C63.9333 131.611 44.6025 118.034 44.4302 117.897C44.2579 117.793 44.189 117.586 44.2235 117.414C44.2579 117.207 44.3957 117.07 44.568 117.001C44.6025 117.001 47.9794 115.795 49.2198 111.935C49.9779 109.558 49.9779 107.628 49.9779 107.594C49.9779 107.387 50.0813 107.215 50.2536 107.111C50.4259 107.008 50.6326 107.042 50.8049 107.18C50.9427 107.284 64.3813 117.724 73.7538 118.792C72.2721 116.759 69.6189 111.487 72.9613 102.597C74.0984 99.5995 74.4085 96.7395 74.6842 94.1896C74.7531 93.6383 74.7875 93.0869 74.8564 92.6045C74.8909 92.3289 75.1666 92.1221 75.4422 92.1566C75.7179 92.191 75.9246 92.4667 75.8902 92.7424C75.8213 93.2592 75.7523 93.7761 75.7179 94.3274C75.4422 96.9462 75.0977 99.8751 73.9261 103.011C69.8256 113.865 75.2355 119.034 75.2699 119.068C75.4422 119.206 75.4767 119.447 75.4078 119.654C75.3389 119.861 75.1321 119.998 74.9254 119.964C66.3454 119.757 54.1473 111.039 50.9427 108.627C50.8738 109.489 50.6671 110.798 50.1847 112.28C49.1854 115.416 46.9801 116.966 45.7396 117.586C49.4266 120.102 65.7941 131.197 76.855 135.091C77.1307 135.194 77.2685 135.47 77.1651 135.746C77.1307 135.987 76.9239 136.09 76.7172 136.09Z" fill="#302b40"/>
<path d="M27.5113 163.174C28.4072 163.243 30.0611 163.45 30.4746 164.69C31.0259 166.241 28.166 166.792 28.166 166.792C28.166 166.792 27.1322 163.14 27.5113 163.174Z" fill="white"/>
<path d="M28.2001 167.274C27.9589 167.274 27.7521 167.137 27.7177 166.895C26.6839 163.346 26.9251 163.071 27.0974 162.864C27.2008 162.726 27.4075 162.623 27.5798 162.657C29.4406 162.76 30.6121 163.415 31.0256 164.483C31.1979 164.931 31.1634 165.379 30.9222 165.793C30.3365 166.861 28.5447 167.206 28.3379 167.24C28.2345 167.274 28.2001 167.274 28.2001 167.274ZM27.9933 163.725C28.0967 164.277 28.3035 165.207 28.5447 166.137C29.096 165.965 29.7507 165.655 29.9574 165.31C30.0263 165.173 30.0263 165.035 29.9919 164.862C29.7162 164.104 28.7514 163.829 27.9933 163.725Z" fill="#302b40"/>
<path d="M51.6317 92.6732C49.323 92.4664 42.328 90.8469 45.7393 84.7134C46.7042 82.9561 47.1521 80.9231 46.9798 78.9245L46.2907 70.0344L58.9712 69.0696L59.936 81.5433C62.0035 93.3279 51.9073 92.6732 51.6317 92.6732Z" fill="white"/>
<path d="M52.0445 93.1901C51.7688 93.1901 51.5965 93.1901 51.5621 93.1901C51.0452 93.1556 46.3245 92.6387 44.7739 89.7098C43.9813 88.2281 44.1536 86.4708 45.2563 84.4722C46.1867 82.7838 46.6001 80.8886 46.4278 78.959L45.7387 70.0689C45.7387 69.931 45.7732 69.7932 45.8765 69.6898C45.9799 69.5865 46.0833 69.5176 46.2211 69.5176L58.9016 68.5527C59.1773 68.5183 59.4185 68.7595 59.4529 69.0351L60.4177 81.5089C61.1069 85.5404 60.5211 88.6072 58.6259 90.6402C56.4895 92.9489 53.2505 93.1901 52.0445 93.1901ZM46.8413 70.4824L47.496 78.8556C47.6683 80.992 47.2204 83.0939 46.1867 84.9547C45.2563 86.6431 45.084 88.0559 45.7042 89.2274C46.7724 91.226 49.977 92.0185 51.6654 92.1563C51.6999 92.1563 55.5592 92.4665 57.9023 89.9166C59.5563 88.1248 60.0732 85.3337 59.4185 81.6122V81.5778L58.4881 69.6209L46.8413 70.4824Z" fill="#302b40"/>
<path d="M60.2816 73.7559L46.6708 74.8241L45.7404 62.9706C45.3614 58.181 48.945 53.9771 53.7691 53.5981L59.558 53.1501C61.1775 53.0123 62.5903 54.2183 62.6937 55.8378L63.7619 69.6554C63.9686 71.7574 62.3835 73.5836 60.2816 73.7559Z" fill="white"/>
<path d="M46.6709 75.3065C46.3953 75.3065 46.1885 75.0997 46.154 74.8241L45.2237 62.9706C45.0169 60.5241 45.8095 58.112 47.429 56.2513C49.0485 54.3906 51.2883 53.2535 53.7348 53.0467L59.5237 52.5988C61.4189 52.4609 63.0729 53.8737 63.2107 55.7689L64.2789 69.5865C64.3823 70.758 64.0032 71.8607 63.2452 72.7566C62.4871 73.6525 61.4534 74.1694 60.2818 74.2728L55.3543 74.6518C53.6659 74.7896 52.0119 74.5484 50.4268 73.9971C50.1512 73.8937 50.0133 73.6181 50.1167 73.3424C50.2201 73.0667 50.4958 72.9289 50.7714 73.0323C52.2186 73.5491 53.7348 73.7559 55.2509 73.6525L60.1784 73.2735C61.0743 73.2046 61.8668 72.7911 62.4182 72.1364C63.004 71.4817 63.2796 70.6202 63.2107 69.7243L62.1425 55.9067C62.0391 54.5973 60.8676 53.598 59.5582 53.7014L53.7693 54.1494C51.5639 54.3217 49.5998 55.3209 48.1526 57.0094C46.7398 58.6633 46.0162 60.7997 46.1885 62.9706L47.1189 74.8241C47.1533 75.0997 46.9121 75.3409 46.6365 75.3754C46.7054 75.3065 46.6709 75.3065 46.6709 75.3065Z" fill="#302b40"/>
<path d="M46.3947 69.8966L43.9826 66.2441C43.1901 65.0381 42.6732 63.6253 42.5009 62.1781C42.5009 62.1436 42.5009 62.1436 42.5009 62.1092C42.2597 59.9383 42.3631 57.7675 42.9833 55.6655C44.913 49.0496 50.1506 47.499 54.7335 48.7051H54.7679C56.4219 49.1186 58.1792 48.7395 59.5231 47.6369L60.9359 46.4653C61.9352 45.6383 63.4168 45.9484 64.0026 47.12C64.7262 48.6017 65.2431 50.7036 64.1749 52.9089L62.9689 54.7696L51.8046 55.4588C50.8742 55.5277 50.0817 56.2513 50.0127 57.1817L49.4959 61.9713C49.4614 62.2125 49.2547 62.4193 49.0135 62.4537L47.8763 62.5571L45.9812 61.8335L46.3947 69.8966Z" fill="#302b40"/>
<path d="M47.8761 62.5572L47.0835 61.7991C46.4289 61.1789 45.3951 61.2133 44.7749 61.9025C44.3614 62.3504 44.258 63.0396 44.4992 63.5909L44.9472 64.5902C45.3262 65.4516 45.912 66.1752 46.7045 66.6577L47.6348 67.2434L47.8761 62.5572Z" fill="white"/>
</svg>
