<svg width="275" height="276" viewBox="0 0 275 276" fill="none" xmlns="http://www.w3.org/2000/svg">
<g clip-path="url(#clip0)">
<path d="M12.3415 85.2947C6.3848 98.4628 -2.38476 123.674 1.12307 155.039C5.68986 195.304 28.1267 227.033 50.0009 244.833C122.507 303.99 255.242 265.777 272.814 210.06C275.991 199.936 275.097 190.209 274.005 178.199C270.497 140.051 252.032 128.703 239.589 88.1732C228.271 51.3158 239.423 47.147 228.867 30.7697C205.867 -4.79734 139.649 -6.58396 94.0804 10.4551C76.5744 17.0061 34.0834 37.089 12.3415 85.2947Z" fill="#D9DDE0"/>
<path d="M86.8679 219.622L66.3174 237.885C66.3174 237.885 66.2843 237.919 66.2512 237.919L15.3878 237.753C15.3216 237.753 15.2885 237.654 15.3216 237.621L35.7067 219.49C35.7067 219.49 35.7397 219.457 35.7728 219.457L86.7686 219.49C86.8679 219.49 86.901 219.589 86.8679 219.622Z" fill="white"/>
<path d="M66.249 238.415L15.3856 238.249C15.154 238.249 14.9223 238.117 14.8562 237.886C14.7569 237.654 14.8231 237.422 15.0216 237.257L35.4067 219.126C35.506 219.027 35.6383 218.994 35.8038 218.994L86.7996 219.027C87.0312 219.027 87.2629 219.159 87.3291 219.391C87.4283 219.622 87.3621 219.854 87.1636 220.019L66.6131 238.283C66.5469 238.349 66.4145 238.415 66.249 238.415ZM16.5108 237.257L66.1167 237.422L85.7075 220.019L35.9362 219.986L16.5108 237.257Z" fill="#4281C4"/>
<path d="M86.8981 219.523V257.009L66.513 275.14C66.4468 275.206 66.3145 275.173 66.3145 275.074V237.919C66.3145 237.919 86.6003 219.523 86.8981 219.523Z" fill="#4281C4"/>
<path d="M66.3161 275.173L15.3203 275.007L15.3534 237.786L66.3161 237.918C66.3161 237.918 66.3161 275.239 66.3161 275.173Z" fill="white"/>
<path d="M66.3164 275.669C66.3164 275.669 66.2833 275.669 66.3164 275.669L15.3206 275.504C15.0559 275.504 14.8242 275.272 14.8242 275.007L14.8573 237.786C14.8573 237.654 14.9235 237.521 14.9897 237.422C15.089 237.323 15.2213 237.257 15.3537 237.29L66.3164 237.422C66.5811 237.422 66.8128 237.654 66.8128 237.918V275.206C66.8128 275.338 66.7466 275.471 66.6804 275.57C66.548 275.636 66.4157 275.669 66.3164 275.669ZM15.7839 274.511L65.7869 274.677V238.415L15.817 238.282L15.7839 274.511Z" fill="#4281C4"/>
<path d="M162.118 150.01L141.6 168.24L84.7801 168.075C84.7139 168.075 84.6808 168.009 84.747 167.976L105.198 149.812L162.051 149.845C162.151 149.845 162.184 149.944 162.118 150.01Z" fill="white"/>
<path d="M141.601 168.736L84.7812 168.571C84.5495 168.571 84.351 168.439 84.2517 168.207C84.1855 167.975 84.2186 167.744 84.4171 167.611L104.868 149.448C104.968 149.381 105.067 149.315 105.199 149.315L162.053 149.348C162.317 149.348 162.549 149.514 162.615 149.745C162.714 149.977 162.648 150.242 162.45 150.407L141.932 168.637C141.833 168.703 141.734 168.736 141.601 168.736ZM85.9063 167.578L141.403 167.744L160.994 150.341L105.365 150.308L85.9063 167.578Z" fill="#4281C4"/>
<path d="M162.214 149.844V256.909L141.763 275.107C141.697 275.173 141.598 275.107 141.598 275.04V168.24C141.598 168.24 161.917 149.878 162.214 149.844Z" fill="#4281C4"/>
<path d="M141.599 275.206L84.7129 275.04C84.8453 275.14 84.746 168.108 84.746 168.108L141.599 168.24C141.599 168.24 141.599 275.272 141.599 275.206Z" fill="white"/>
<path d="M141.599 275.702L84.7132 275.536C84.4815 275.536 84.283 275.371 84.2168 275.139C84.2168 275.073 84.2168 275.04 84.2168 274.974C84.3161 272.79 84.2499 169.166 84.2499 168.108C84.2499 167.975 84.3161 167.843 84.3823 167.744C84.4815 167.644 84.6139 167.611 84.7463 167.611L141.599 167.744C141.864 167.744 142.096 167.975 142.096 168.24V275.206C142.096 275.338 142.03 275.47 141.963 275.57C141.864 275.669 141.732 275.702 141.599 275.702ZM85.2096 274.544L141.103 274.709V168.736L85.2427 168.604C85.2427 172.376 85.2758 196.958 85.2758 221.541C85.2758 234.907 85.2758 248.274 85.2758 258.299C85.2758 263.328 85.2758 267.497 85.2427 270.408C85.2427 271.864 85.2427 273.022 85.2427 273.816C85.2096 274.114 85.2096 274.345 85.2096 274.544Z" fill="#4281C4"/>
<path d="M123.929 265.479C123.797 265.479 123.664 265.413 123.565 265.313C123.366 265.115 123.4 264.784 123.598 264.618L128.794 260.02C128.992 259.821 129.323 259.854 129.489 260.053C129.687 260.251 129.654 260.582 129.456 260.747L124.26 265.346C124.161 265.413 124.028 265.479 123.929 265.479Z" fill="#D9DDE0"/>
<path d="M236.182 106.536L215.466 124.931L159.407 124.766C159.308 124.766 159.275 124.666 159.341 124.633L179.726 106.502L236.182 106.536Z" fill="white"/>
<path d="M215.466 125.461L159.407 125.295C159.142 125.295 158.944 125.13 158.844 124.931C158.745 124.7 158.811 124.468 159.01 124.303L179.395 106.172C179.494 106.105 179.593 106.039 179.726 106.039L236.182 106.072C236.38 106.072 236.579 106.205 236.645 106.403C236.711 106.602 236.678 106.8 236.513 106.966L215.797 125.361C215.731 125.394 215.598 125.461 215.466 125.461ZM160.499 124.303L215.3 124.468L234.891 107.065L179.924 107.032L160.499 124.303Z" fill="#4281C4"/>
<path d="M236.179 106.569V257.009L215.794 275.14C215.728 275.206 215.596 275.173 215.596 275.074V124.964C215.563 124.964 235.882 106.569 236.179 106.569Z" fill="#4281C4"/>
<path d="M215.564 275.173L159.24 275.007C159.373 275.107 159.273 124.832 159.273 124.832L215.531 124.964C215.564 124.964 215.564 275.239 215.564 275.173Z" fill="white"/>
<path d="M215.564 275.669L159.241 275.504C159.009 275.504 158.81 275.338 158.744 275.107C158.744 275.04 158.744 275.007 158.744 274.941C158.843 272.493 158.777 126.288 158.777 124.799C158.777 124.666 158.843 124.534 158.91 124.435C159.009 124.336 159.141 124.269 159.274 124.303L215.531 124.435C215.796 124.435 216.028 124.666 216.028 124.931V275.173C216.028 275.305 215.961 275.437 215.895 275.537C215.829 275.636 215.697 275.669 215.564 275.669ZM159.77 274.511L215.068 274.677V125.461L159.803 125.328C159.803 129.894 159.836 164.899 159.836 199.903C159.836 218.663 159.836 237.455 159.836 251.517C159.836 258.564 159.836 264.42 159.803 268.523C159.803 270.574 159.803 272.195 159.803 273.287C159.77 273.849 159.77 274.213 159.77 274.511Z" fill="#4281C4"/>
<path d="M183.234 257.174C183.101 257.174 182.969 257.108 182.87 257.009C182.671 256.81 182.704 256.48 182.903 256.314L199.218 241.823C199.416 241.624 199.747 241.657 199.912 241.856C200.111 242.054 200.078 242.385 199.879 242.55L183.565 257.042C183.465 257.141 183.333 257.174 183.234 257.174Z" fill="#D9DDE0"/>
<path d="M182.636 246.256C182.504 246.256 182.371 246.19 182.272 246.09C182.074 245.892 182.107 245.561 182.305 245.396L187.501 240.797C187.699 240.598 188.03 240.631 188.196 240.83C188.394 241.028 188.361 241.359 188.163 241.525L182.967 246.124C182.901 246.223 182.768 246.256 182.636 246.256Z" fill="#D9DDE0"/>
<path d="M63.1727 51.8121C64.7281 51.0511 66.6806 50.0255 70.5855 50.8195C74.0933 51.5474 77.3033 56.3117 76.1782 61.2415C75.2516 65.2779 71.4128 65.6419 69.3611 67.4285C62.7756 73.1854 66.8129 82.1516 61.3857 88.1732C56.2564 93.93 50.7961 87.8092 41.2985 93.5661C33.8196 98.0988 37.9892 101.54 28.6902 105.973C21.2774 109.513 8.93387 106.106 3.4074 95.0219C-1.85433 84.4676 -1.22557 70.6709 6.61739 65.8404C13.6661 61.4731 16.9423 69.3144 24.3551 65.4103C31.6685 61.5723 28.4255 53.8634 37.559 51.8452C44.5747 50.2901 51.2594 57.0727 53.4766 57.3705C58.0765 58.0322 59.1024 53.7972 63.1727 51.8121Z" fill="#302b40"/>
<path d="M85.6445 102.069C85.6445 102.069 90.8731 108.885 95.837 121.424C99.9405 131.747 110.563 137.768 114.998 142.003C116.156 143.128 116.421 146.205 115.593 147.628C114.7 149.183 113.376 149.845 110.993 149.679C105.434 149.249 97.6571 143.724 89.8804 132.607C84.3539 124.7 85.6445 102.069 85.6445 102.069Z" fill="#4281C4"/>
<path d="M111.721 150.176C111.489 150.176 111.224 150.176 110.959 150.142C104.738 149.646 96.6964 143.194 89.4822 132.872C83.9227 124.898 85.0809 102.962 85.114 102.036C85.114 101.838 85.2795 101.639 85.478 101.606C85.6766 101.54 85.8751 101.606 86.0075 101.771C86.0737 101.838 91.3354 108.785 96.2662 121.259C99.3108 128.935 106.095 134.261 111.092 138.165C112.779 139.489 114.202 140.614 115.328 141.673C116.751 143.029 116.916 146.371 116.023 147.893C115.096 149.448 113.772 150.176 111.721 150.176ZM86.0737 103.558C85.9082 108.653 85.7428 125.791 90.3096 132.342C97.3583 142.434 105.102 148.72 111.059 149.183C113.144 149.348 114.368 148.819 115.195 147.396C115.923 146.172 115.625 143.294 114.666 142.4C113.607 141.375 112.151 140.25 110.496 138.96C105.433 134.989 98.5165 129.563 95.3727 121.623C91.6664 112.193 87.7283 106.006 86.0737 103.558Z" fill="#302b40"/>
<path d="M61.882 68.6527C62.2129 68.752 62.577 68.5865 62.6432 68.2226C62.941 66.5683 63.7352 64.5501 65.3237 63.0943C67.0776 61.4731 71.9753 60.3482 72.9019 62.7635C73.5968 64.517 73.6961 66.6676 76.0788 68.5534C76.3104 68.7189 76.2111 69.1159 76.0126 69.3475L75.0198 70.6047C74.7882 70.8363 74.722 71.5311 74.7551 71.862C74.8543 72.8877 75.1522 75.0051 74.8874 75.336C74.3249 75.9977 70.9494 76.4609 70.9494 76.4609L71.3134 83.3427C71.4127 85.2947 72.2731 87.1475 73.7292 88.4379C77.0716 91.4487 83.5577 97.2717 83.5577 97.2717C84.0541 97.4702 81.7045 110.01 75.7148 110.572C64.0661 111.664 54.3369 89.5297 53.5096 87.8754C53.2117 87.2799 52.9139 86.552 53.5758 86.4527C56.6203 86.1219 63.9669 85.9234 63.1726 74.9059C63.1395 74.6412 62.9741 74.4096 62.7424 74.3103C61.8158 73.8802 59.3339 72.5568 59.367 70.704C59.4001 68.8512 60.7238 68.2557 61.882 68.6527Z" fill="white"/>
<path d="M74.888 111.168C65.3573 111.168 57.3157 97.1064 53.2784 88.5703C53.1792 88.4048 53.1461 88.2725 53.0799 88.1732C52.782 87.5777 52.5504 86.9822 52.8151 86.4859C52.9144 86.3204 53.113 86.0889 53.5432 86.0227C53.6756 86.0227 53.841 85.9896 54.0065 85.9896C57.2827 85.6587 63.4379 85.0632 62.7099 75.0383C62.7099 74.9721 62.6437 74.8728 62.5775 74.8397C61.1876 74.178 58.9042 72.7884 58.9042 70.8033C58.9042 69.4468 59.4668 68.7851 59.9301 68.4542C60.5257 68.0241 61.2869 67.9249 62.048 68.1895C62.0811 68.1895 62.1142 68.1895 62.1473 68.1895C62.1804 68.1895 62.1804 68.1565 62.1804 68.1565C62.412 66.8992 63.107 64.517 64.9932 62.7635C66.2839 61.5393 69.2291 60.5468 71.347 61.01C72.3398 61.2416 73.0348 61.804 73.3657 62.5981C73.5312 63.0282 73.6635 63.4252 73.7959 63.8884C74.2261 65.3442 74.6894 66.833 76.4102 68.1895C76.6088 68.3219 76.7081 68.5535 76.7411 68.7851C76.7742 69.0828 76.6419 69.4468 76.4433 69.6784L75.4505 70.9356C75.3513 71.068 75.252 71.5643 75.2851 71.829C75.2851 71.9944 75.3182 72.1598 75.3513 72.3583C75.5829 74.3765 75.616 75.3029 75.3182 75.6669C74.7887 76.3286 72.6377 76.7256 71.5125 76.9241L71.8434 83.3427C71.9427 85.1625 72.7369 86.8829 74.0937 88.1071C77.2706 90.9524 83.3266 96.4116 83.8892 96.9078C84.2201 97.1064 84.2201 97.6026 84.0877 98.4629C83.7237 101.01 81.3079 110.605 75.8146 111.102C75.4836 111.168 75.1858 111.168 74.888 111.168ZM53.7086 87.0152C53.7417 87.1145 53.8079 87.313 53.9734 87.71C54.0065 87.8093 54.0727 87.9416 54.1719 88.1071C57.415 95.022 66.0191 111.002 75.6822 110.109C77.039 109.977 78.3296 109.116 79.4878 107.594C82.036 104.187 83.1611 98.6283 83.128 97.6026C82.3007 96.8748 76.4764 91.6141 73.3988 88.835C71.8434 87.4454 70.9168 85.4602 70.8176 83.3758L70.4535 76.494C70.4535 76.2293 70.619 75.9977 70.8837 75.9647C72.5384 75.7331 74.1599 75.3029 74.4908 75.0383C74.5901 74.6743 74.4247 73.1193 74.3254 72.4576C74.2923 72.2591 74.2923 72.0606 74.2592 71.9282C74.2261 71.5643 74.2923 70.671 74.6563 70.2739L75.6491 69.0167C75.6822 68.9836 75.7153 68.9174 75.7153 68.8843C73.7959 67.3293 73.2664 65.6419 72.8362 64.1531C72.7038 63.723 72.6046 63.326 72.4391 62.962C72.2405 62.4657 71.8103 62.1349 71.1485 61.9694C69.3946 61.5724 66.7803 62.4326 65.6882 63.4583C64.0005 65.0464 63.3717 67.1639 63.1731 68.3219C63.107 68.6197 62.9415 68.8843 62.6768 69.0498C62.412 69.2152 62.0811 69.2483 61.7502 69.149C61.2869 68.9836 60.8567 69.0498 60.5257 69.2814C60.1286 69.5791 59.9301 70.1085 59.9301 70.8364C59.9301 72.3583 62.1142 73.5494 63.0408 73.9795C63.4379 74.178 63.7026 74.5751 63.7357 75.0052C64.53 85.9896 57.5143 86.6844 54.1388 87.0152C53.9734 86.9822 53.841 87.0152 53.7086 87.0152Z" fill="#302b40"/>
<path d="M73.6581 246.719C73.6581 246.719 73.9559 250.888 72.6984 253.105C71.4408 255.322 73.6911 261.807 73.6911 261.807C73.6911 261.807 80.2435 265.347 82.0636 262.965C83.8837 260.582 80.1442 253.701 82.4607 246.719C84.7441 239.871 73.6581 246.719 73.6581 246.719Z" fill="white"/>
<path d="M79.9471 264.288C77.3328 264.288 73.9574 262.534 73.461 262.27C73.3617 262.204 73.2624 262.104 73.2293 262.005C72.9977 261.31 70.979 255.223 72.2697 252.907C73.4279 250.855 73.1632 246.852 73.1632 246.786C73.1632 246.587 73.2293 246.422 73.3948 246.322C74.5861 245.595 80.5759 242.021 82.5946 243.643C83.3226 244.238 83.455 245.33 82.9255 246.918C81.668 250.69 82.2305 254.428 82.6938 257.439C83.0909 260.02 83.3888 262.038 82.4622 263.295C81.8996 263.99 81.0061 264.288 79.9471 264.288ZM74.1228 261.443C75.8768 262.336 80.4766 264.255 81.7011 262.634C82.396 261.74 82.0982 259.788 81.7341 257.538C81.2709 254.428 80.6752 250.524 81.9989 246.554C82.3629 245.429 82.3629 244.668 81.9989 244.37C80.9399 243.543 76.8695 245.363 74.189 246.984C74.2221 248.01 74.2552 251.351 73.1632 253.337C72.2366 254.925 73.4941 259.557 74.1228 261.443Z" fill="#302b40"/>
<path d="M83.4881 259.954C83.455 259.524 82.9586 259.259 82.5946 259.491C82.0652 259.821 81.4364 260.384 81.0062 261.178C81.0062 261.178 77.2667 257.671 73.4611 258.134L72.3359 256.149V269.052L74.4539 269.416C74.4539 269.813 74.4539 270.144 74.4208 270.409C74.1229 273.155 76.5387 276.596 83.5212 275.835C90.1066 275.107 83.7198 265.678 83.4881 259.954Z" fill="#302b40"/>
<path d="M74.3879 268.887C74.1232 268.887 73.8916 268.655 73.8916 268.391C73.9247 264.321 73.3952 262.634 72.8326 260.847C72.7664 260.649 72.7002 260.45 72.6341 260.218C72.5679 259.954 72.7002 259.689 72.965 259.59C73.2297 259.524 73.4945 259.656 73.5937 259.921C73.6599 260.119 73.7261 260.318 73.7923 260.516C74.3879 262.369 74.9505 264.123 74.9174 268.357C74.8843 268.655 74.6527 268.887 74.3879 268.887Z" fill="white"/>
<path d="M81.8665 274.015C80.5759 274.015 78.9544 273.75 77.0681 273.254C76.8033 273.188 76.6379 272.923 76.704 272.659C76.7702 272.394 77.035 272.229 77.2997 272.295C81.8665 273.519 83.6205 272.923 84.2492 272.46C84.7787 272.096 84.7787 271.633 84.7787 271.633C84.7787 271.368 85.0104 271.17 85.2751 271.137C85.5398 271.137 85.7715 271.368 85.7715 271.633C85.7715 271.732 85.7384 272.559 84.878 273.221C84.2161 273.75 83.1902 274.015 81.8665 274.015Z" fill="white"/>
<path d="M29.5483 247.514C29.5483 247.514 28.1915 250.326 27.0664 251.947C25.2132 254.627 25.6765 265.148 25.6765 265.148L33.6518 265.413C33.6518 265.413 33.6518 255.189 35.3726 250.987C37.0934 246.786 29.5483 247.514 29.5483 247.514Z" fill="white"/>
<path d="M33.6525 265.909L25.6441 265.678C25.3793 265.678 25.1808 265.446 25.1477 265.214C25.1146 264.784 24.7175 254.495 26.6368 251.682C27.7289 250.094 29.0526 247.315 29.0857 247.315C29.1519 247.15 29.3173 247.05 29.4828 247.05C29.9792 247.017 34.2813 246.653 35.6711 248.539C36.2006 249.267 36.2337 250.16 35.8035 251.219C34.1489 255.289 34.1158 265.347 34.1158 265.446C34.1158 265.578 34.0496 265.711 33.9503 265.81C33.9172 265.876 33.7849 265.909 33.6525 265.909ZM26.1404 264.685L33.1561 264.917C33.1892 262.766 33.3877 254.561 34.91 250.822C35.2078 250.094 35.2078 249.532 34.8769 249.102C34.0165 247.977 31.1705 247.911 29.8468 247.977C29.4828 248.705 28.3908 250.855 27.4642 252.245C26.1074 254.23 26.0412 261.509 26.1404 264.685Z" fill="#302b40"/>
<path d="M33.7519 258.333C32.362 259.16 30.3102 260.483 29.6815 261.244C29.6815 261.244 25.6111 259.094 24.4528 258.829C24.4528 258.829 23.1953 265.843 23.1953 268.457C23.1953 271.071 23.7579 274.644 26.9679 275.636C30.1448 276.662 34.3475 275.636 34.8108 271.368C35.241 267.1 34.3806 264.057 34.3144 262.965C34.2813 262.303 34.6123 260.417 34.8439 259.061C34.9101 258.465 34.2813 258.035 33.7519 258.333Z" fill="#302b40"/>
<path d="M28.7569 274.115C28.7238 274.115 28.7238 274.115 28.6907 274.115C28.6576 274.115 27.5987 274.115 26.5397 273.486C25.5469 272.89 24.3887 271.666 24.3887 269.052C24.3887 268.788 24.6203 268.556 24.8851 268.556C25.1498 268.556 25.3815 268.788 25.3815 269.052C25.3815 273.056 28.5583 273.122 28.6907 273.155C31.9007 273.188 33.1251 269.88 33.1913 269.747C33.2906 269.483 33.5553 269.35 33.8201 269.449C34.0848 269.549 34.2172 269.813 34.1179 270.078C34.1179 270.111 32.6618 274.115 28.7569 274.115Z" fill="white"/>
<path d="M90.1748 124.468C90.7704 124.038 91.5316 127.744 92.392 128.769C94.6754 131.449 106.324 140.051 103.081 159.34C99.8378 178.629 96.3962 181.309 95.6351 183.989C94.8739 186.669 94.3114 193.716 91.8294 199.837C89.3475 205.958 93.9143 215.487 87.4281 233.816C85.5087 239.209 84.1519 243.676 83.1922 247.282C82.8613 248.539 81.7362 249.399 80.4455 249.432C78.1621 249.499 74.7205 249.333 73.4961 248.109C71.5767 246.19 74.8198 229.217 72.735 220.218C71.9076 216.645 72.1062 212.542 72.6357 208.903C72.768 208.009 72.7019 207.083 72.404 206.223C71.5105 203.576 69.7235 197.19 70.4516 190.606C71.4112 182.004 78.6585 162.55 76.3751 127.975C76.3421 128.008 86.9648 126.817 90.1748 124.468Z" fill="#302b40"/>
<path d="M53.242 128.207C53.242 128.207 41.3948 142.334 42.917 168.108C43.248 173.534 43.976 178.298 44.9357 182.5C46.3256 188.456 46.3256 194.676 44.8033 200.631C44.7371 200.863 44.671 201.094 44.6048 201.359C42.5199 209.002 35.041 204.998 27.4297 250.425C27.4297 250.425 30.8713 257.307 36.3978 253.469C41.9243 249.664 45.2004 231.699 58.9339 215.851C72.7004 200.003 74.4212 183.956 75.3478 175.188C76.3075 166.388 80.3117 166.487 82.5951 164.039C84.8785 161.623 83.3232 126.85 83.3232 126.85C83.3232 126.85 67.4056 130.821 53.242 128.207Z" fill="#302b40"/>
<path d="M69.6222 200.4C69.556 200.4 69.4898 200.4 69.4236 200.367C69.1589 200.267 69.0596 199.97 69.1589 199.705C73.2292 190.375 74.2551 181.144 74.8508 175.619L74.917 175.122C75.645 168.307 78.1931 166.619 80.4103 165.164C80.7082 164.965 80.9729 164.8 81.2377 164.601C81.4693 164.436 81.7671 164.502 81.9326 164.7C82.0981 164.932 82.0319 165.23 81.8333 165.395C81.5686 165.594 81.2708 165.792 80.9729 165.991C78.9212 167.347 76.6047 168.869 75.9097 175.222L75.8436 175.718C75.2479 181.309 74.222 190.639 70.0855 200.102C69.9862 200.3 69.8207 200.4 69.6222 200.4Z" fill="#D9DDE0"/>
<path d="M35.0768 125.659C40.9673 127.347 43.9788 129.431 46.196 131.747L53.2447 128.207C53.2447 128.207 58.8043 131.747 71.8759 130.291C88.2237 128.472 90.7718 124.998 90.7718 124.998C89.4481 123.112 88.3891 119.77 88.5877 119.009C92.5588 116.064 94.5113 112.988 93.2206 107.793C91.7315 101.639 83.0281 96.1469 83.0281 96.1469C81.8699 103.062 79.8181 106.536 77.7333 108.19C75.4168 110.043 72.0413 109.844 69.8903 107.793C58.2748 96.8087 54.1051 85.2949 54.1051 85.2949C54.1051 85.2949 48.3139 84.7655 45.1701 84.9971C40.7026 85.361 25.7447 93.0038 16.0485 104.65C3.24168 120.101 25.844 123.012 35.0768 125.659ZM30.2122 111.3C30.2122 111.3 37.3602 109.48 39.4782 111.002C41.563 112.524 44.5413 115.667 46.3614 120.266L46.8247 121.788C41.0004 116.098 37.9559 113.881 30.2122 111.3Z" fill="#4281C4"/>
<path d="M46.1967 132.243C46.0643 132.243 45.932 132.177 45.8327 132.078C43.9795 130.159 41.2328 127.942 34.9452 126.122C33.82 125.792 32.4302 125.461 30.9741 125.097C23.793 123.343 13.9645 120.928 12.0451 115.039C11.0523 112.028 12.2767 108.455 15.6522 104.385C25.1829 92.9707 40.3724 84.931 45.1377 84.567C48.2815 84.3023 53.9404 84.8317 54.172 84.8648C54.3706 84.8979 54.536 84.9971 54.6022 85.1956C54.6353 85.2949 58.8712 96.7094 70.255 107.495C72.2406 109.381 75.3513 109.547 77.4361 107.859C79.8519 105.94 81.5727 101.97 82.5324 96.1139C82.5655 95.9484 82.6648 95.8161 82.8303 95.7499C82.9957 95.6838 83.1612 95.6838 83.2935 95.783C83.6576 96.0146 92.1624 101.474 93.6846 107.727C94.876 112.557 93.5192 115.932 89.0186 119.34C89.0186 120.134 89.879 123.012 91.1365 124.766C91.2689 124.931 91.2689 125.163 91.1365 125.362C91.0372 125.527 88.2574 129.034 71.9097 130.854C60.1949 132.144 54.4368 129.497 53.2123 128.836L46.3952 132.243C46.3622 132.21 46.2629 132.243 46.1967 132.243ZM35.243 125.196C41.4975 126.983 44.3766 129.199 46.3291 131.151L53.0469 127.777C53.2123 127.711 53.3778 127.711 53.5433 127.81C53.6094 127.843 59.169 131.251 71.8435 129.828C85.1467 128.339 89.184 125.759 90.1437 124.964C88.9524 123.112 87.8603 119.869 88.1251 118.91C88.1582 118.811 88.2244 118.711 88.3236 118.645C91.9307 115.998 94.0487 113.153 92.7911 107.959C91.5667 103.029 85.4446 98.4299 83.459 97.0403C82.4331 102.731 80.6461 106.635 78.1311 108.653C75.6491 110.638 71.9759 110.473 69.6263 108.256C59.1028 98.2975 54.6022 87.7763 53.8411 85.8573C52.6167 85.7581 47.9506 85.3942 45.3032 85.5927C40.6702 85.9566 25.8778 93.831 16.5126 105.047C13.3688 108.852 12.2105 112.094 13.071 114.774C14.8249 120.134 24.3555 122.483 31.305 124.17C32.6949 124.534 34.0848 124.865 35.243 125.196ZM46.8255 122.318C46.6931 122.318 46.5607 122.285 46.4614 122.185C40.6702 116.495 37.6588 114.344 30.0475 111.796C29.8489 111.73 29.7166 111.532 29.7166 111.3C29.7166 111.069 29.882 110.903 30.0806 110.837C30.8417 110.638 37.5264 109.017 39.7436 110.638C40.8357 111.432 44.5421 114.443 46.7924 120.134V120.167L47.2557 121.689C47.3218 121.921 47.2226 122.152 47.024 122.251C46.9909 122.285 46.9247 122.318 46.8255 122.318ZM32.0661 111.399C38.0559 113.55 41.1335 115.667 45.7665 120.035C43.6155 114.873 40.24 112.127 39.2141 111.399C37.9897 110.539 34.4488 110.936 32.0661 111.399Z" fill="#302b40"/>
<path d="M52.551 135.585C52.5179 135.585 52.4848 135.585 52.4517 135.585C52.187 135.519 52.0215 135.254 52.0877 134.989C52.7165 132.342 50.4331 130.688 50.4 130.655C50.1683 130.49 50.1352 130.192 50.3007 129.96C50.4661 129.729 50.764 129.696 50.9956 129.861C51.0949 129.96 53.8085 131.945 53.0474 135.221C52.9812 135.419 52.7495 135.585 52.551 135.585Z" fill="#302b40"/>
<path d="M110.596 143.492C111.125 142.731 112.184 142.533 112.945 143.062C113.872 143.724 115.03 144.452 115.626 144.65C116.188 144.816 117.015 145.246 118.207 144.948C119.961 144.518 123.369 144.452 125.156 145.808C126.48 146.801 127.837 149.812 127.903 152.69C127.903 153.12 127.671 153.517 127.274 153.616C126.976 153.716 126.546 153.649 126.116 153.153C125.322 152.227 125.653 151.565 125.024 150.936C124.263 150.142 120.987 148.984 120.556 150.341C120.159 151.565 122.939 151.4 123.7 152.161C124.296 152.756 124.296 153.616 123.7 154.179C122.807 155.006 117.843 152.69 116.519 151.532C115.46 150.639 113.805 149.15 113.111 148.62C112.78 148.356 111.555 147.496 110.562 146.801C109.768 146.238 109.537 145.147 110.099 144.319L110.596 143.492Z" fill="white"/>
<path d="M123.071 154.774C121.019 154.774 117.115 152.657 116.188 151.863L115.328 151.135C114.368 150.308 113.309 149.381 112.779 148.984C112.515 148.786 111.621 148.157 110.264 147.198C109.238 146.503 108.974 145.08 109.669 144.022L110.198 143.228C110.529 142.731 111.025 142.4 111.588 142.301C112.151 142.202 112.746 142.301 113.243 142.665C114.897 143.823 115.526 144.088 115.791 144.154C115.89 144.187 116.022 144.22 116.122 144.253C116.618 144.419 117.247 144.65 118.107 144.452C119.994 143.988 123.535 143.955 125.454 145.411C127.009 146.569 128.333 149.845 128.399 152.657C128.399 153.319 128.002 153.881 127.406 154.08C127.075 154.179 126.414 154.245 125.719 153.451C125.222 152.855 125.09 152.359 124.991 151.962C124.924 151.664 124.858 151.466 124.66 151.234C124.163 150.705 122.277 149.977 121.383 150.209C121.086 150.275 121.053 150.407 121.053 150.44C121.053 150.44 121.019 150.506 121.053 150.539C121.152 150.738 121.88 150.903 122.31 151.036C122.972 151.201 123.667 151.367 124.064 151.764C124.461 152.161 124.66 152.69 124.66 153.186C124.66 153.683 124.428 154.146 124.031 154.51C123.799 154.708 123.468 154.774 123.071 154.774ZM111.025 143.757L110.496 144.551C110.099 145.146 110.264 145.941 110.827 146.338C111.82 147.032 113.044 147.893 113.408 148.157C113.938 148.554 115.03 149.514 115.989 150.341L116.85 151.069C118.306 152.326 122.773 154.146 123.402 153.716C123.601 153.55 123.7 153.352 123.7 153.12C123.7 152.855 123.601 152.624 123.402 152.425C123.204 152.227 122.608 152.061 122.112 151.962C121.284 151.764 120.523 151.565 120.225 151.003C120.126 150.837 120.027 150.506 120.159 150.109C120.325 149.646 120.689 149.315 121.218 149.216C122.542 148.918 124.759 149.812 125.454 150.539C125.818 150.936 125.917 151.333 126.016 151.697C126.116 152.061 126.182 152.392 126.546 152.789C126.91 153.186 127.109 153.12 127.175 153.12C127.34 153.054 127.473 152.888 127.439 152.657C127.373 149.878 126.083 147.065 124.891 146.172C123.237 144.948 120.027 144.981 118.372 145.411C117.214 145.709 116.386 145.411 115.791 145.213C115.692 145.18 115.592 145.146 115.493 145.113C114.964 144.948 114.004 144.419 112.68 143.459C112.415 143.294 112.118 143.194 111.787 143.261C111.456 143.327 111.191 143.492 111.025 143.757Z" fill="#302b40"/>
<path d="M50.8629 124.964C50.6974 124.964 50.565 124.898 50.4657 124.766C50.3334 124.666 49.837 124.369 49.473 124.17C48.5133 123.608 47.1896 122.847 46.4946 122.185C46.2961 121.986 46.2961 121.689 46.4946 121.49C46.6932 121.292 46.991 121.292 47.1896 121.49C47.7852 122.086 49.0428 122.814 49.9694 123.343C51.0283 123.972 51.26 124.104 51.3592 124.369C51.4585 124.633 51.2931 124.898 51.0614 124.997C50.9621 124.964 50.8959 124.964 50.8629 124.964Z" fill="#302b40"/>
<path d="M51.8874 125.924C50.8616 125.13 49.4386 125.196 48.512 126.089L47.1883 127.347C46.7912 127.744 46.725 128.372 47.1221 128.802C47.9825 129.795 49.4055 132.012 47.089 136.313C42.1582 145.61 51.1925 139.952 52.0529 134.692C52.3176 133.037 52.8471 133.401 52.8471 133.6C52.8471 134.923 53.4097 137.008 54.7003 134.692C55.66 132.938 54.932 128.339 51.8874 125.924Z" fill="white"/>
<path d="M46.3611 141.739C45.8316 141.739 45.5668 141.474 45.4014 141.309C44.7726 140.515 45.1697 138.794 46.6258 136.048C48.9423 131.681 47.2546 129.762 46.692 129.1C46.1625 128.471 46.1956 127.512 46.7913 126.949L48.115 125.692C49.207 124.633 50.9609 124.567 52.1523 125.494C55.3953 128.041 56.1565 132.938 55.0975 134.89C54.8989 135.254 54.2702 136.346 53.4098 136.147C52.9134 136.015 52.6156 135.486 52.4832 134.923C51.8544 138.033 48.6444 141.209 46.8243 141.673C46.6589 141.739 46.4934 141.739 46.3611 141.739ZM50.266 125.858C49.7365 125.858 49.207 126.056 48.8099 126.42L47.4862 127.677C47.2545 127.876 47.2545 128.24 47.4531 128.471C49.2401 130.523 49.2401 133.236 47.4862 136.511C45.633 139.985 46.1294 140.68 46.1625 140.68C46.2287 140.746 46.4272 140.746 46.5927 140.68C48.1811 140.283 51.0933 137.305 51.5566 134.526C51.6228 134.096 51.8544 132.773 52.7148 132.839C53.0458 132.872 53.3436 133.17 53.3436 133.5C53.3436 134.294 53.5421 134.956 53.6745 135.122C53.7407 135.055 53.9393 134.89 54.2371 134.361C55.0644 132.905 54.5018 128.571 51.5566 126.255C51.1926 125.99 50.7293 125.858 50.266 125.858Z" fill="#302b40"/>
<path d="M30.8078 111.995C30.7747 111.995 30.7085 111.995 30.6754 111.962C30.6423 111.962 26.8035 110.804 24.6525 110.903C24.3878 110.936 24.1561 110.704 24.123 110.44C24.123 110.175 24.3216 109.943 24.5863 109.91C26.9359 109.811 30.8078 110.969 30.9732 111.035C31.238 111.101 31.3703 111.399 31.3041 111.664C31.2049 111.862 31.0063 111.995 30.8078 111.995Z" fill="#302b40"/>
<path d="M63.735 121.491C60.0286 121.491 55.4287 120.498 52.2519 116.395C52.0864 116.164 52.1195 115.866 52.3511 115.701C52.5828 115.535 52.8806 115.568 53.0461 115.8C58.6718 123.112 69.3608 119.737 69.46 119.704C69.7248 119.605 69.9895 119.77 70.0888 120.035C70.1881 120.299 70.0226 120.564 69.7579 120.663C69.7248 120.663 67.1105 121.491 63.735 121.491Z" fill="#302b40"/>
<path d="M190.248 37.6183C190.248 37.6183 180.419 41.2908 174.661 47.7094C168.903 54.128 163.277 68.1232 163.277 68.1232L164.336 84.9968C164.336 84.9968 169.035 86.6842 177.937 75.3028C177.937 75.3028 174.264 62.5979 178.467 53.4332C180.717 48.5696 190.248 37.6183 190.248 37.6183Z" fill="white"/>
<path d="M165.065 85.5924C164.502 85.5924 164.204 85.4931 164.171 85.46C163.973 85.3939 163.84 85.2284 163.84 85.0299L162.781 68.1563C162.781 68.0901 162.781 68.0239 162.814 67.9247C163.046 67.3622 168.539 53.764 174.297 47.3454C180.089 40.9268 189.686 37.2874 190.083 37.122C190.281 37.0558 190.546 37.122 190.678 37.3205C190.811 37.519 190.778 37.7506 190.645 37.916C190.546 38.0153 181.115 48.8674 178.93 53.6317C174.86 62.5317 178.401 75.0381 178.434 75.1373C178.467 75.3028 178.434 75.4682 178.335 75.5674C171.418 84.5006 166.885 85.5924 165.065 85.5924ZM164.8 84.5998C165.925 84.6991 170.26 84.302 177.408 75.2366C176.912 73.3507 174.066 61.9031 178.037 53.2678C179.791 49.4629 185.781 42.151 188.527 38.9086C185.417 40.2982 179.162 43.5075 175.059 48.0402C169.665 54.0287 164.337 66.9321 163.807 68.2224L164.8 84.5998Z" fill="#302b40"/>
<path d="M197.596 22.4981C195.842 21.5717 192.731 21.1416 189.289 18.0316C187.602 16.5096 185.186 14.2929 185.02 11.0174C184.822 7.17951 188.032 3.73861 191.838 2.1505C195.147 0.760906 203.255 0.264622 206.928 3.83787C209.476 6.31929 212.123 13.7966 215.929 13.1018C224.07 11.613 230.225 8.46985 235.851 12.01C243.33 16.7082 238.002 25.8067 243.661 29.1814C250.147 33.0194 255.508 26.6338 263.285 29.8101C270.433 32.7216 275.363 42.0186 273.543 48.2387C272.286 52.5399 268.745 52.1097 265.667 57.1718C260.836 65.0793 266.395 71.134 263.252 78.0158C259.016 87.2136 243.032 89.5295 232.939 88.4377C231.085 88.2392 211.561 85.857 203.552 71.0347C193.823 53.0361 206.696 27.2955 197.596 22.4981Z" fill="#302b40"/>
<path d="M179.392 49.1321C176.811 52.6722 175.288 56.8741 175.057 61.2414C174.593 69.7775 176.777 83.3095 193.158 90.1582C218.176 100.646 232.141 83.8388 232.141 83.8388C232.141 83.8388 229.031 43.1436 223.769 42.151C210.036 39.5703 212.915 31.7621 205.237 30.571C199.082 29.6116 192.298 34.0781 189.915 36.5264C185.712 40.7614 181.907 45.6581 179.392 49.1321Z" fill="white"/>
<path d="M209.045 94.0953C204.379 94.0953 198.984 93.1689 192.928 90.6214C185.549 87.5444 180.32 82.7801 177.309 76.56C175.158 72.0603 174.231 66.899 174.529 61.2414C174.761 56.8079 176.316 52.5068 178.963 48.8673C181.445 45.4595 185.317 40.4636 189.487 36.1956C191.836 33.7803 198.786 29.1152 205.239 30.1078C208.78 30.6372 210.236 32.5561 211.791 34.5744C213.843 37.2212 216.159 40.2651 223.804 41.6878C225.359 41.9855 227.742 44.5331 230.356 63.3257C231.779 73.5161 232.573 83.7396 232.573 83.8388C232.573 83.9712 232.54 84.1035 232.474 84.2028C232.342 84.3682 228.834 88.537 222.182 91.4485C218.906 92.8381 214.472 94.0953 209.045 94.0953ZM179.791 49.4298C177.243 52.9369 175.753 57.0064 175.555 61.2744C175.058 70.6377 177.739 83.1771 193.326 89.7281C206.066 95.0548 215.829 93.1028 221.752 90.5221C227.51 88.0076 230.886 84.4674 231.581 83.6734C231.448 82.1845 230.687 72.7882 229.397 63.425C226.848 45.1618 224.532 42.8127 223.638 42.6472C215.663 41.1584 213.082 37.8498 211.03 35.1699C209.475 33.1517 208.217 31.5305 205.107 31.0673C199.051 30.1409 192.465 34.5744 190.215 36.8904C186.078 41.0922 182.273 46.0551 179.791 49.4298Z" fill="#302b40"/>
<path d="M194.319 83.8389C191.904 82.9787 198.092 64.2522 201.534 60.0172C213.282 45.625 212.884 31.7621 205.174 30.5711C199.019 29.6116 191.771 34.5744 190.249 37.6514C176.052 66.105 194.319 83.8389 194.319 83.8389Z" fill="#302b40"/>
<path d="M170.127 67.3953C170.127 67.3953 172.179 79.6701 170.127 83.2102C168.869 85.3608 165.196 86.6512 163.277 86.2541C161.39 85.8571 155.765 83.111 157.254 66.5351C157.254 66.5351 158.445 61.5722 165.659 62.7633C169.63 63.3919 170.127 67.3953 170.127 67.3953Z" fill="white"/>
<path d="M164.039 86.7834C163.741 86.7834 163.443 86.7503 163.178 86.7172C161.292 86.3202 155.236 83.7064 156.759 66.4688C156.759 66.4357 156.759 66.4357 156.759 66.4026C156.759 66.3365 158.148 61.0097 165.727 62.2669C169.863 62.9617 170.558 67.0313 170.591 67.329C170.691 67.8915 172.643 79.8354 170.525 83.4748C169.4 85.4269 166.256 86.7834 164.039 86.7834ZM157.751 66.5681C156.262 83.3756 162.186 85.493 163.377 85.7246C164.999 86.0555 168.539 84.8975 169.698 82.9124C171.65 79.5707 169.665 67.5606 169.632 67.4283C169.632 67.4283 169.632 67.4283 169.632 67.3952C169.598 67.2298 169.135 63.7558 165.594 63.1602C159.174 62.1346 157.851 66.2041 157.751 66.5681Z" fill="#302b40"/>
<path d="M150.937 147.595V158.447H148.322V148.257L150.937 147.595Z" fill="#DFF6FD"/>
<path d="M150.937 158.943H148.323C148.058 158.943 147.826 158.712 147.826 158.447V148.224C147.826 147.992 147.992 147.794 148.19 147.727L150.805 147.066C150.937 147.033 151.102 147.066 151.235 147.165C151.367 147.264 151.433 147.396 151.433 147.562V158.414C151.433 158.745 151.202 158.943 150.937 158.943ZM148.819 157.951H150.44V148.224L148.819 148.621V157.951Z" fill="#302b40"/>
<path d="M140.776 137.371C140.776 137.371 138.029 145.742 138.294 150.606C138.558 155.436 135.282 158.315 133.065 159.506C130.848 160.697 131.146 163.41 136.937 163.377C146.401 163.31 145.243 152.558 146.699 151.797C148.155 151.003 151.233 150.606 152.027 145.643C152.821 140.68 146.401 137.404 146.401 137.404H140.776V137.371Z" fill="white"/>
<path d="M136.805 163.873C132.37 163.873 131.477 162.285 131.311 161.623C131.08 160.664 131.675 159.671 132.8 159.076C134.025 158.414 138.062 155.866 137.764 150.639C137.5 145.742 140.147 137.57 140.279 137.239C140.345 137.041 140.544 136.908 140.743 136.908H146.335C146.401 136.908 146.501 136.941 146.567 136.974C146.832 137.107 153.285 140.481 152.457 145.742C151.762 150.176 149.28 151.201 147.659 151.896C147.361 152.028 147.096 152.128 146.865 152.26C146.666 152.425 146.435 153.484 146.269 154.311C145.541 157.653 144.217 163.873 136.871 163.906C136.871 163.873 136.838 163.873 136.805 163.873ZM141.14 137.868C140.643 139.489 138.558 146.404 138.79 150.573C139.121 156.396 134.654 159.208 133.297 159.936C132.569 160.333 132.172 160.895 132.304 161.358C132.469 162.053 133.76 162.847 136.838 162.847C136.871 162.847 136.904 162.847 136.937 162.847C143.456 162.814 144.614 157.521 145.342 154.013C145.673 152.525 145.872 151.631 146.435 151.3C146.699 151.168 146.997 151.036 147.295 150.903C148.817 150.275 150.869 149.381 151.498 145.51C152.16 141.276 147.03 138.265 146.236 137.835H141.14V137.868Z" fill="#302b40"/>
<path d="M136.772 156.197C138.956 156.859 141.504 158.116 143.125 160.796C142.364 161.689 141.338 162.45 140.048 162.913C137.93 160.796 135.183 159.836 133.297 159.406C134.422 158.745 135.746 157.686 136.772 156.197Z" fill="#DFF6FD"/>
<path d="M140.013 163.377C139.881 163.377 139.749 163.31 139.649 163.244C137.465 161.094 134.652 160.2 133.163 159.87C132.965 159.836 132.799 159.671 132.766 159.473C132.733 159.274 132.832 159.075 132.998 158.976C133.759 158.546 135.215 157.587 136.307 155.932C136.439 155.767 136.638 155.668 136.87 155.734C139.881 156.627 142.098 158.248 143.488 160.531C143.587 160.73 143.587 160.961 143.455 161.127C142.561 162.186 141.436 162.946 140.146 163.377C140.146 163.377 140.08 163.377 140.013 163.377ZM134.487 159.175C136.075 159.671 138.293 160.564 140.113 162.285C141.006 161.921 141.8 161.391 142.462 160.697C141.238 158.877 139.385 157.554 136.936 156.726C136.175 157.851 135.248 158.645 134.487 159.175Z" fill="#302b40"/>
<path d="M202.295 187.794C202.295 187.794 202.957 190.805 202.295 194.345C201.633 197.885 198.754 205.991 198.622 209.531C198.39 215.354 189.323 217.902 188.032 214.891C186.709 211.88 187.37 203.774 189.985 200.234C192.599 196.694 193.261 186.735 193.261 186.735L202.295 187.794Z" fill="white"/>
<path d="M190.712 216.644C189.19 216.644 188.031 216.082 187.601 215.089C186.178 211.814 186.939 203.576 189.62 199.936C192.135 196.561 192.797 186.801 192.797 186.702C192.797 186.57 192.863 186.437 192.962 186.338C193.062 186.239 193.194 186.206 193.326 186.239L202.361 187.297C202.559 187.331 202.758 187.463 202.791 187.694C202.824 187.827 203.453 190.838 202.791 194.444C202.526 195.834 201.93 197.951 201.302 200.168C200.309 203.576 199.217 207.447 199.151 209.564C199.018 213.303 195.51 215.917 192.102 216.545C191.605 216.611 191.142 216.644 190.712 216.644ZM193.723 187.297C193.558 189.415 192.764 197.355 190.381 200.532C187.965 203.774 187.204 211.748 188.462 214.692C188.826 215.519 190.182 215.883 191.87 215.553C194.782 214.99 197.992 212.707 198.092 209.498C198.191 207.281 199.316 203.344 200.309 199.87C200.938 197.686 201.533 195.602 201.765 194.245C202.261 191.532 201.963 189.117 201.831 188.257L193.723 187.297Z" fill="#302b40"/>
<path d="M187.369 210.59C187.369 209.233 187.502 207.778 187.733 206.355C192.896 204.932 196.536 207.248 198.621 209.432C198.621 209.465 198.621 209.498 198.621 209.531C198.554 211.02 197.926 212.277 196.999 213.303C193.094 210.16 189.553 210.127 187.369 210.59Z" fill="#DFF6FD"/>
<path d="M196.999 213.799C196.9 213.799 196.768 213.766 196.701 213.7C192.962 210.722 189.62 210.656 187.469 211.086C187.336 211.119 187.171 211.086 187.038 210.987C186.906 210.887 186.84 210.755 186.84 210.59C186.84 209.2 186.972 207.711 187.204 206.255C187.237 206.057 187.369 205.925 187.568 205.858C192.962 204.37 196.735 206.785 198.952 209.068C199.051 209.167 199.084 209.299 199.084 209.432V209.531C199.018 211.02 198.422 212.442 197.33 213.634C197.297 213.733 197.165 213.799 196.999 213.799ZM189.421 209.895C191.506 209.895 194.12 210.523 196.933 212.641C197.661 211.715 198.058 210.722 198.124 209.63C196.106 207.645 192.83 205.627 188.164 206.752C187.998 207.844 187.899 208.935 187.866 209.994C188.362 209.928 188.892 209.895 189.421 209.895Z" fill="#302b40"/>
<path d="M229.925 85.427C229.925 85.427 239.29 91.3162 239.489 104.021C239.621 114.344 237.404 118.943 226.616 128.372C215.827 137.801 207.951 144.683 207.951 144.683C207.951 144.683 212.651 153.12 205.999 170.027C203.881 175.387 203.186 181.905 203.219 188.29C203.219 188.29 201.068 194.378 191.835 191.235C191.835 191.235 193.788 165.527 187.897 156.66C182.007 147.826 186.342 119.935 195.542 118.777C204.775 117.586 192.596 89.0002 192.596 89.0002C192.596 89.0002 222.479 93.93 229.925 85.427Z" fill="#4281C4"/>
<path d="M196.634 192.591C195.245 192.591 193.59 192.326 191.671 191.665C191.472 191.599 191.307 191.367 191.34 191.168C191.373 190.904 193.226 165.527 187.501 156.925C183.066 150.242 184.357 134.195 188.394 125.328C190.347 121.06 192.796 118.612 195.509 118.248C196.502 118.115 197.23 117.619 197.727 116.759C201.234 110.638 192.266 89.3641 192.167 89.1325C192.101 88.967 192.134 88.7685 192.233 88.6362C192.332 88.5038 192.531 88.4377 192.696 88.4377C192.994 88.4708 222.381 93.2682 229.562 85.0629C229.727 84.8644 229.992 84.8313 230.19 84.9637C230.29 85.0299 239.787 91.1507 239.986 103.955C240.118 114.675 237.702 119.307 226.914 128.67C217.317 137.04 210.037 143.393 208.548 144.716C209.375 146.536 212.42 154.94 206.43 170.093C204.577 174.791 203.65 180.879 203.683 188.158C203.683 188.224 203.683 188.257 203.65 188.323C203.65 188.455 202.128 192.591 196.634 192.591ZM192.366 190.838C200.208 193.352 202.459 188.786 202.724 188.158C202.69 180.78 203.617 174.626 205.536 169.795C212.056 153.319 207.588 144.981 207.522 144.882C207.423 144.683 207.456 144.418 207.621 144.253C207.621 144.253 215.464 137.371 226.285 127.942C236.776 118.81 239.159 114.311 238.993 103.988C238.828 93.0697 231.68 87.2466 230.025 86.0555C222.711 93.5329 198.455 90.3236 193.424 89.5626C195.112 93.6652 201.995 111.333 198.587 117.222C197.925 118.38 196.932 119.042 195.642 119.207C192.696 119.571 190.545 122.946 189.321 125.692C185.416 134.261 184.192 150.076 188.361 156.329C193.921 164.733 192.597 187.463 192.366 190.838Z" fill="#302b40"/>
<path d="M199.018 115.965C199.018 115.965 185.483 120.101 176.78 115.965C168.077 111.829 161.888 109.778 161.888 109.778C161.888 109.778 163.477 119.141 159.77 123.012C153.747 129.298 149.247 141.573 149.247 141.573C149.247 141.573 145.11 146.271 139.518 141.573C139.518 141.573 143.356 112.954 143.356 104.583C143.356 96.2127 144.879 78.0488 178.302 83.8056C211.726 89.5625 199.018 115.965 199.018 115.965Z" fill="#4281C4"/>
<path d="M144.482 144.187C142.96 144.187 141.14 143.624 139.188 141.97C139.055 141.871 138.989 141.705 139.022 141.54C139.055 141.242 142.861 112.855 142.861 104.617C142.861 99.5213 143.523 92.1432 149.314 87.2797C155.138 82.383 164.934 81.0596 178.402 83.3756C184.326 84.4012 189.224 86.1217 192.93 88.57C193.162 88.7354 193.228 89.0332 193.062 89.2648C192.897 89.4964 192.599 89.5626 192.367 89.3971C188.76 87.0481 183.995 85.3607 178.204 84.3681C165.033 82.1183 155.535 83.3425 149.943 88.0737C144.449 92.7057 143.821 99.7529 143.821 104.683C143.821 112.557 140.412 138.496 140.015 141.474C144.78 145.312 148.255 141.97 148.784 141.408C149.248 140.183 153.583 128.835 159.407 122.78C162.915 119.108 161.426 110.043 161.426 109.943C161.393 109.778 161.459 109.612 161.591 109.48C161.724 109.381 161.922 109.348 162.055 109.381C162.121 109.414 168.375 111.498 177.012 115.568C185.451 119.571 198.754 115.568 198.887 115.535C199.151 115.469 199.416 115.601 199.515 115.866C199.615 116.13 199.449 116.395 199.185 116.494C198.622 116.66 185.385 120.63 176.615 116.461C169.765 113.219 164.437 111.234 162.551 110.572C162.849 112.987 163.411 120.067 160.168 123.442C154.278 129.563 149.777 141.705 149.744 141.838C149.711 141.904 149.678 141.937 149.645 142.003C149.546 141.97 147.56 144.187 144.482 144.187Z" fill="#302b40"/>
<path d="M193.757 24.3179L196.636 36.758L190.018 40.0997C190.018 40.0997 199.35 43.7391 214.01 38.28L204.942 32.7216L200.74 20.8439L193.757 24.3179Z" fill="white"/>
<path d="M198.423 41.8201C193.129 41.8201 190.084 40.6621 189.852 40.596C189.654 40.5298 189.555 40.3644 189.521 40.1659C189.521 39.9673 189.621 39.8019 189.786 39.7027L196.041 36.5264L193.261 24.4171C193.195 24.1855 193.327 23.9539 193.526 23.8547L200.508 20.4138C200.641 20.3476 200.773 20.3476 200.905 20.4138C201.038 20.4799 201.137 20.5792 201.203 20.7115L205.373 32.4238L214.308 37.916C214.473 38.0153 214.573 38.2138 214.54 38.3792C214.506 38.5778 214.407 38.7432 214.209 38.8094C207.822 41.1253 202.461 41.8201 198.423 41.8201ZM191.375 40.0004C194.188 40.7283 202.03 41.9856 212.885 38.1807L204.678 33.1517C204.579 33.0855 204.512 32.9863 204.479 32.887L200.442 21.5387L194.32 24.5825L197.1 36.6257C197.166 36.8573 197.034 37.0889 196.835 37.1882L191.375 40.0004Z" fill="#302b40"/>
<path d="M205.935 20.2814C206.431 17.8 203.684 18.2963 203.684 18.2963C203.684 18.2963 204.776 15.0208 200.772 14.8885C196.768 14.7561 193.756 13.5651 193.756 13.5651C193.756 13.5651 191.374 18.8588 190.844 23.1599C190.513 25.7406 190.877 27.9904 192.863 28.4867C198.29 29.8101 202.361 23.193 202.361 23.193C202.361 23.193 205.438 22.7298 205.935 20.2814Z" fill="white"/>
<path d="M194.32 29.1483C193.791 29.1483 193.261 29.0822 192.732 28.9498C190.713 28.4535 189.919 26.4684 190.316 23.0937C190.845 18.7595 193.195 13.565 193.294 13.3334C193.394 13.1018 193.691 12.9695 193.923 13.0687C193.956 13.0687 196.934 14.2267 200.773 14.3591C202.229 14.4253 203.255 14.8554 203.818 15.6825C204.314 16.3773 204.347 17.1714 204.281 17.7338C204.81 17.7338 205.505 17.8662 205.969 18.3624C206.432 18.8256 206.564 19.5204 206.399 20.3476C205.903 22.7297 203.421 23.4576 202.626 23.623C201.998 24.6487 198.788 29.1483 194.32 29.1483ZM194.022 14.1606C193.46 15.484 191.739 19.7189 191.309 23.1929C190.978 26.0052 191.507 27.6264 192.963 27.9573C197.96 29.1814 201.865 22.9613 201.931 22.8952C201.998 22.7628 202.13 22.6966 202.295 22.6636C202.329 22.6636 205.042 22.2335 205.472 20.1491C205.572 19.6197 205.539 19.2557 205.307 19.0241C204.943 18.6271 204.082 18.6933 203.818 18.7264C203.652 18.7595 203.454 18.6933 203.354 18.561C203.255 18.4286 203.189 18.2301 203.255 18.0647C203.255 18.0647 203.586 16.9728 203.057 16.2119C202.659 15.6494 201.898 15.3516 200.773 15.3186C197.563 15.2524 195.015 14.5245 194.022 14.1606Z" fill="#302b40"/>
<path d="M212.851 97.5694C212.851 97.5694 209.377 103.955 205.339 109.48C205.339 109.48 200.607 108.752 198.754 110.34C196.801 112.028 193.658 116.527 193.658 116.527C193.658 116.527 187.502 121.424 189.389 123.211C191.275 124.964 202.229 119.836 202.229 119.836C202.229 119.836 199.912 122.781 198.787 123.972C197.563 125.295 200.574 127.28 205.902 121.59C205.902 121.59 211.461 117.553 211.66 113.715C211.66 113.715 219.47 108.885 223.474 102.499C227.346 96.2791 212.851 97.5694 212.851 97.5694Z" fill="white"/>
<path d="M199.748 125.891C199.483 125.891 199.318 125.858 199.185 125.825C198.623 125.692 198.193 125.361 198.06 124.898C197.928 124.468 198.06 124.005 198.424 123.608C198.987 123.012 199.847 121.987 200.575 121.093C197.134 122.582 190.681 125.064 189.059 123.542C188.695 123.211 188.53 122.748 188.563 122.251C188.662 120.035 192.633 116.726 193.328 116.164C193.725 115.601 196.604 111.565 198.457 109.943C200.211 108.421 204.05 108.785 205.142 108.918C209.014 103.558 212.389 97.3709 212.423 97.3047C212.489 97.1724 212.654 97.0731 212.82 97.0401C213.812 96.9408 222.416 96.2791 224.27 99.2899C224.865 100.249 224.733 101.407 223.873 102.731C220.166 108.62 213.415 113.12 212.125 113.947C211.728 117.752 206.764 121.49 206.234 121.887C203.024 125.361 200.807 125.891 199.748 125.891ZM202.23 119.34C202.362 119.34 202.528 119.406 202.627 119.538C202.759 119.704 202.759 119.968 202.627 120.167C202.528 120.299 200.278 123.145 199.152 124.336C199.053 124.468 198.987 124.567 199.02 124.667C199.053 124.733 199.152 124.865 199.417 124.898C200.443 125.13 202.693 124.336 205.539 121.259C205.572 121.226 205.572 121.226 205.605 121.193C205.672 121.159 210.966 117.255 211.165 113.682C211.165 113.517 211.264 113.384 211.397 113.285C211.463 113.252 219.173 108.455 223.045 102.234C223.674 101.242 223.806 100.448 223.442 99.8523C222.185 97.801 215.864 97.8341 213.184 98.0326C212.522 99.2237 209.345 104.881 205.771 109.745C205.672 109.91 205.473 109.977 205.308 109.943C204.05 109.745 200.476 109.513 199.119 110.704C197.233 112.326 194.122 116.759 194.089 116.825C194.056 116.858 194.023 116.891 193.99 116.924C192.766 117.884 189.622 120.762 189.556 122.317C189.556 122.549 189.622 122.714 189.754 122.847C190.879 123.906 197.63 121.457 202.065 119.373C202.098 119.34 202.164 119.34 202.23 119.34Z" fill="#302b40"/>
<path d="M222.582 104.617C228.77 96.3452 233.469 88.0407 234.065 81.2251C236.017 59.0246 230.789 47.2131 227.049 41.9194C223.31 36.6257 212.422 35.1368 212.422 35.1368C212.422 35.1368 209.907 50.1908 214.209 62.5648C218.544 74.9388 218.346 84.1697 217.154 87.5113C215.963 90.853 211.992 98.2973 211.992 98.2973C211.992 98.2973 216.228 98.3634 220.497 101.837C222.317 103.326 222.582 104.617 222.582 104.617Z" fill="white"/>
<path d="M222.579 105.113C222.546 105.113 222.513 105.113 222.48 105.113C222.281 105.08 222.149 104.914 222.116 104.716C222.116 104.716 221.851 103.558 220.229 102.234C216.159 98.9259 212.088 98.8266 212.022 98.8266C211.857 98.8266 211.691 98.7274 211.592 98.595C211.493 98.4296 211.493 98.2642 211.592 98.0987C211.625 98.0326 215.563 90.6214 216.721 87.379C217.847 84.1366 218.012 74.9388 213.776 62.7633C213.445 61.8369 213.147 60.8444 212.883 59.8187C212.816 59.554 212.982 59.2893 213.247 59.2232C213.511 59.157 213.776 59.3224 213.842 59.5871C214.107 60.5797 214.405 61.5392 214.703 62.4656C219.369 75.8321 218.674 84.8314 217.648 87.743C216.655 90.5221 213.809 96.0474 212.816 97.9333C214.273 98.1318 217.516 98.8266 220.825 101.507C221.818 102.334 222.38 103.095 222.711 103.657C229.396 94.6247 233.069 87.0482 233.566 81.2251C235.551 58.7269 230.091 47.1469 226.649 42.2503C223.075 37.1882 212.486 35.6662 212.386 35.6662C212.122 35.6331 211.923 35.3684 211.956 35.1038C211.989 34.8391 212.254 34.6406 212.519 34.6737C212.982 34.7398 223.671 36.2618 227.477 41.6547C230.984 46.6506 236.61 58.4622 234.591 81.2913C234.029 87.4783 230.157 95.4188 223.009 104.947C222.877 105.047 222.744 105.113 222.579 105.113Z" fill="#302b40"/>
<path d="M205.205 30.5712C205.205 30.5712 208.481 32.1262 207.29 38.8095C206.099 45.4928 197.197 57.6683 194.318 67.3624C191.439 77.0564 192.762 80.3319 194.318 83.8721C194.318 83.8721 196.402 71.8289 208.845 64.3516L205.172 57.2051C205.172 57.2051 210.632 53.0032 213.147 45.8898C215.563 39.008 213.644 34.74 211.658 33.1518C209.739 31.5637 205.205 30.5712 205.205 30.5712Z" fill="white"/>
<path d="M194.319 84.3352C194.121 84.3352 193.955 84.236 193.856 84.0374C192.301 80.5635 190.845 77.2549 193.823 67.1969C195.279 62.3333 198.125 57.0065 200.905 51.8452C203.618 46.7831 206.2 42.0188 206.762 38.7102C207.854 32.4901 204.975 31.0013 204.942 31.0013C204.71 30.902 204.611 30.6373 204.677 30.4057C204.744 30.1741 205.008 30.0418 205.24 30.0749C205.439 30.1079 209.906 31.1336 211.958 32.7548C214.241 34.5745 216.028 39.1403 213.612 46.0221C211.395 52.2753 207.027 56.2786 205.769 57.3043L209.244 64.0868C209.377 64.3184 209.277 64.6162 209.046 64.7486C196.934 71.9943 194.75 83.8059 194.75 83.9051C194.716 84.1367 194.551 84.3021 194.319 84.3021C194.352 84.3352 194.352 84.3352 194.319 84.3352ZM206.862 31.5306C207.689 32.7879 208.45 35.0377 207.755 38.9087C207.159 42.3496 204.545 47.2132 201.798 52.3415C199.052 57.4697 196.206 62.7634 194.783 67.4947C192.268 75.8984 192.996 79.3724 194.187 82.317C195.18 78.8761 198.555 70.1084 208.185 64.1861L204.744 57.4697C204.644 57.2712 204.677 57.0065 204.876 56.8411C204.942 56.808 210.27 52.6392 212.686 45.7574C215.102 38.9087 212.984 34.8723 211.362 33.5819C210.303 32.6555 208.318 31.9607 206.862 31.5306Z" fill="#302b40"/>
<path d="M190.545 74.1448C192.63 82.2177 201.565 90.0259 201.565 90.0259C201.565 90.0259 181.246 82.9786 178.301 65.9395L183.165 57.1718L179.492 48.2056L183.761 41.9525C186.806 37.9491 191.075 34.5082 195.674 32.5231L196.667 36.7911C196.667 36.7911 191.472 39.835 189.949 47.2462C188.03 56.3778 189.486 70.0421 190.545 74.1448Z" fill="white"/>
<path d="M201.568 90.489C201.502 90.489 201.469 90.489 201.403 90.4559C201.204 90.3898 196.207 88.6362 190.747 84.7321C185.717 81.1258 179.363 74.9388 177.808 65.9726C177.775 65.8733 177.808 65.741 177.874 65.6418L182.606 57.0726L181.944 55.3191C181.845 55.0544 181.978 54.7897 182.242 54.6904C182.507 54.5912 182.772 54.7235 182.871 54.9882L183.632 56.9402C183.698 57.0726 183.665 57.238 183.599 57.3704L178.834 65.9726C181.183 78.9091 193.891 86.0225 199.285 88.5039C196.505 85.6916 191.574 80.1001 190.085 74.244C188.927 69.6782 187.636 55.9808 189.457 47.0807C190.813 40.5298 194.917 37.3205 196.108 36.4934L195.314 33.1517C191.541 34.9053 187.802 38.1146 184.46 42.5149L183.367 44.1361C183.202 44.3677 182.904 44.4339 182.673 44.2685C182.441 44.103 182.375 43.8053 182.54 43.5737L183.665 41.9194C187.272 37.1551 191.376 33.7473 195.479 31.9937C195.612 31.9275 195.777 31.9275 195.91 31.9937C196.042 32.0599 196.141 32.1922 196.174 32.3246L197.167 36.5926C197.233 36.7911 197.134 37.0227 196.935 37.122C196.902 37.1551 191.905 40.1659 190.449 47.2462C188.53 56.6094 190.118 70.3399 191.078 73.9462C193.097 81.7875 201.866 89.4965 201.932 89.5626C202.098 89.7281 202.164 89.9927 202.032 90.1912C201.899 90.4228 201.734 90.489 201.568 90.489Z" fill="#302b40"/>
<path d="M185.551 48.7018C185.551 48.7018 179.693 42.5479 176.715 41.6215C173.736 40.6951 165.298 44.8308 163.908 46.7498C162.518 48.6688 158.878 63.1603 159.374 65.8071C159.937 68.851 167.184 70.3067 168.342 66.7666C169.501 63.2264 168.342 50.3892 168.342 50.3892C168.342 50.3892 173.902 50.1907 175.027 49.0989C176.152 48.0401 180.719 52.1097 182.341 52.4736C183.995 52.8375 182.208 48.3048 182.208 48.3048C182.208 48.3048 184.326 50.0584 185.551 48.7018Z" fill="white"/>
<path d="M164.735 69.3473C164.569 69.3473 164.371 69.3473 164.205 69.3142C161.922 69.1488 159.274 67.8916 158.91 65.9064C158.381 63.1272 162.12 48.4041 163.51 46.4521C164.966 44.4339 173.57 40.1327 176.847 41.1253C179.891 42.0517 185.649 48.0733 185.881 48.338C186.046 48.5365 186.079 48.8343 185.881 48.9997C185.087 49.8599 183.995 49.7606 183.101 49.3967C183.465 50.5878 183.763 52.0436 183.233 52.6722C183.101 52.8376 182.77 53.0692 182.241 52.97C181.513 52.8045 180.487 52.1428 179.262 51.3488C178.137 50.6209 175.755 49.0659 175.357 49.4629C174.298 50.4554 170.46 50.7863 168.871 50.8525C169.07 53.3339 169.864 63.7228 168.805 66.9321C168.342 68.4871 166.819 69.3473 164.735 69.3473ZM175.721 41.9855C172.511 41.9855 165.562 45.3603 164.304 47.0476C162.981 48.8673 159.374 63.1603 159.87 65.741C160.102 67.0313 162.087 68.1893 164.271 68.3548C164.966 68.3878 167.316 68.4209 167.878 66.6674C169.004 63.2927 167.845 50.5878 167.845 50.4885C167.845 50.3562 167.878 50.2238 167.978 50.1246C168.077 50.0253 168.209 49.9592 168.342 49.9592C170.427 49.893 173.968 49.496 174.696 48.8012C175.655 47.8748 177.674 49.1651 179.825 50.5547C180.851 51.2164 181.943 51.9112 182.472 52.0436C182.505 52.0436 182.505 52.0436 182.505 52.0436C182.671 51.6796 182.34 50.0584 181.744 48.5365C181.678 48.338 181.744 48.0733 181.91 47.9409C182.075 47.8086 182.34 47.8086 182.505 47.9409C182.505 47.9409 183.829 48.9997 184.756 48.6357C183.399 47.2792 178.931 42.8127 176.549 42.0848C176.35 42.0186 176.052 41.9855 175.721 41.9855Z" fill="#302b40"/>
<path d="M190.546 45.3934C190.513 45.3934 190.48 45.3934 190.447 45.3934C190.182 45.3272 189.984 45.0956 190.05 44.7979C191.307 38.1477 193.326 35.6001 193.425 35.4677C193.591 35.2692 193.922 35.2361 194.12 35.4016C194.319 35.567 194.352 35.8979 194.187 36.0964C194.153 36.1295 192.201 38.6109 191.01 44.9633C190.977 45.228 190.778 45.3934 190.546 45.3934Z" fill="#302b40"/>
<path d="M99.3746 34.4011C102.554 31.2227 102.554 26.0693 99.3746 22.8909C96.1954 19.7124 91.041 19.7124 87.8618 22.8909C84.6827 26.0693 84.6827 31.2227 87.8618 34.4011C91.041 37.5796 96.1954 37.5796 99.3746 34.4011Z" fill="white"/>
<path d="M125.948 34.8723C125.683 34.8723 125.451 34.6407 125.451 34.376V31.7954C125.451 31.5307 125.683 31.2991 125.948 31.2991C126.212 31.2991 126.444 31.5307 126.444 31.7954V34.376C126.444 34.6407 126.245 34.8723 125.948 34.8723Z" fill="#302b40"/>
<path d="M125.948 40.8278C125.683 40.8278 125.451 40.5962 125.451 40.3315V37.7508C125.451 37.4861 125.683 37.2545 125.948 37.2545C126.212 37.2545 126.444 37.4861 126.444 37.7508V40.3315C126.444 40.6293 126.245 40.8278 125.948 40.8278Z" fill="#302b40"/>
<path d="M124.261 36.5597H121.68C121.415 36.5597 121.184 36.3281 121.184 36.0634C121.184 35.7987 121.415 35.5671 121.68 35.5671H124.261C124.526 35.5671 124.758 35.7987 124.758 36.0634C124.758 36.3281 124.526 36.5597 124.261 36.5597Z" fill="#302b40"/>
<path d="M130.216 36.5597H127.635C127.37 36.5597 127.139 36.3281 127.139 36.0634C127.139 35.7987 127.37 35.5671 127.635 35.5671H130.216C130.481 35.5671 130.713 35.7987 130.713 36.0634C130.713 36.3281 130.514 36.5597 130.216 36.5597Z" fill="#302b40"/>
<path d="M138.987 13.8298C138.722 13.8298 138.49 13.5982 138.49 13.3335V10.7529C138.49 10.4882 138.722 10.2566 138.987 10.2566C139.251 10.2566 139.483 10.4882 139.483 10.7529V13.3335C139.483 13.5982 139.284 13.8298 138.987 13.8298Z" fill="#302b40"/>
<path d="M138.987 19.7852C138.722 19.7852 138.49 19.5536 138.49 19.2889V16.7082C138.49 16.4435 138.722 16.2119 138.987 16.2119C139.251 16.2119 139.483 16.4435 139.483 16.7082V19.2889C139.483 19.5866 139.284 19.7852 138.987 19.7852Z" fill="#302b40"/>
<path d="M137.3 15.5172H134.719C134.454 15.5172 134.223 15.2856 134.223 15.0209C134.223 14.7563 134.454 14.5247 134.719 14.5247H137.3C137.565 14.5247 137.797 14.7563 137.797 15.0209C137.797 15.3187 137.565 15.5172 137.3 15.5172Z" fill="#302b40"/>
<path d="M143.29 15.5172H140.709C140.445 15.5172 140.213 15.2856 140.213 15.0209C140.213 14.7563 140.445 14.5247 140.709 14.5247H143.29C143.555 14.5247 143.787 14.7563 143.787 15.0209C143.787 15.3187 143.555 15.5172 143.29 15.5172Z" fill="#302b40"/>
<path d="M143.256 36.6919C144.499 36.6919 145.506 35.655 145.506 34.3759C145.506 33.0968 144.499 32.0599 143.256 32.0599C142.013 32.0599 141.006 33.0968 141.006 34.3759C141.006 35.655 142.013 36.6919 143.256 36.6919Z" fill="#DFF6FD"/>
</g>
<defs>
<clipPath id="clip0">
<rect width="275" height="276" fill="white"/>
</clipPath>
</defs>
</svg>
