<svg width="697" height="435" viewBox="0 0 697 435" fill="none" xmlns="http://www.w3.org/2000/svg">
<path d="M0.0250356 266.711C0.0754741 269.854 0.176363 272.971 0.352898 276.089C0.403336 277.246 0.478969 278.402 0.579846 279.559C0.756381 281.998 0.95811 284.437 1.18508 286.851C1.36162 288.661 1.56338 290.446 1.76514 292.256C3.27829 304.828 5.6489 317.048 8.57433 328.639C13.139 346.717 20.8813 363.161 31.0699 377.442C32.3308 379.202 33.6422 380.962 34.9788 382.647C37.7025 386.117 40.5776 389.436 43.6039 392.604C47.3615 396.551 51.3462 400.272 55.5073 403.717C78.6081 422.826 107.585 433.965 138.479 433.965L224.4 433.99L348.025 434.04H355.213L630.329 434.141C657.541 434.141 679.128 417.42 689.443 394.841C693.68 385.488 696 375.129 696 364.569C696 364.317 696 364.066 696 363.789C696 363.563 696 363.337 696 363.11C696 362.557 695.975 362.029 695.95 361.476C695.95 361.225 695.924 360.948 695.924 360.697C695.899 360.42 695.899 360.144 695.874 359.867C695.849 359.615 695.849 359.389 695.823 359.138C695.798 358.861 695.773 358.585 695.748 358.308C695.672 357.554 695.596 356.799 695.521 356.045C695.496 355.794 695.47 355.542 695.42 355.291C695.344 354.738 695.269 354.159 695.168 353.606C695.143 353.38 695.092 353.154 695.067 352.927C694.991 352.399 694.89 351.896 694.789 351.368C694.689 350.891 694.613 350.438 694.512 349.96C694.436 349.634 694.386 349.307 694.31 348.98C694.184 348.477 694.083 347.999 693.957 347.496V347.471C693.882 347.22 693.831 346.968 693.755 346.692C693.68 346.44 693.629 346.189 693.554 345.912C693.201 344.63 692.822 343.348 692.394 342.065C692.141 341.311 691.864 340.532 691.587 339.752C691.208 338.696 690.78 337.665 690.326 336.609C690.225 336.358 690.099 336.081 689.998 335.83C689.872 335.578 689.771 335.302 689.645 335.05C689.519 334.799 689.418 334.522 689.292 334.271C689.166 334.02 689.039 333.768 688.913 333.492C688.787 333.24 688.661 332.989 688.535 332.712C688.308 332.234 688.056 331.757 687.804 331.279C687.728 331.153 687.652 331.002 687.577 330.851C687.249 330.248 686.921 329.619 686.568 329.016C686.518 328.915 686.442 328.79 686.391 328.689C686.265 328.488 686.165 328.287 686.038 328.086C685.887 327.834 685.736 327.583 685.584 327.331C685.307 326.854 685.004 326.401 684.727 325.923C684.45 325.471 684.172 324.993 683.895 324.54C682.911 322.931 681.928 321.322 680.969 319.688C680.641 319.135 680.288 318.556 679.961 318.003C679.002 316.419 678.069 314.81 677.136 313.201C676.959 312.899 676.783 312.597 676.632 312.296C676.606 312.271 676.606 312.245 676.581 312.195C676.102 311.34 675.623 310.485 675.144 309.63C674.992 309.354 674.841 309.102 674.69 308.826C674.412 308.323 674.16 307.845 673.883 307.342C673.757 307.091 673.631 306.84 673.504 306.613C673.404 306.437 673.303 306.261 673.227 306.06C673.101 305.834 672.975 305.582 672.849 305.356C672.672 305.029 672.496 304.677 672.344 304.35C672.042 303.722 671.714 303.118 671.411 302.49C671.21 302.087 671.033 301.685 670.831 301.283C670.68 300.956 670.503 300.629 670.352 300.277C670.024 299.573 669.696 298.869 669.394 298.14C669.242 297.838 669.116 297.511 668.99 297.21C668.637 296.405 668.284 295.6 667.956 294.771C667.855 294.544 667.78 294.318 667.679 294.092C667.401 293.388 667.124 292.709 666.847 291.98C666.771 291.779 666.695 291.552 666.594 291.326C666.14 290.119 665.712 288.912 665.308 287.68C665.233 287.404 665.132 287.152 665.056 286.876C664.879 286.373 664.728 285.845 664.577 285.342C664.552 285.267 664.526 285.166 664.501 285.091C664.426 284.814 664.35 284.537 664.249 284.261C664.173 283.959 664.072 283.682 663.997 283.381C663.921 283.079 663.82 282.777 663.745 282.476C663.593 281.872 663.417 281.269 663.265 280.665C663.19 280.364 663.114 280.062 663.038 279.76C662.963 279.458 662.887 279.157 662.811 278.83C662.736 278.528 662.66 278.226 662.61 277.899C662.559 277.648 662.509 277.397 662.458 277.17C662.433 277.095 662.433 277.045 662.408 276.969C662.408 276.944 662.383 276.919 662.383 276.869C662.332 276.617 662.282 276.366 662.231 276.114C662.181 275.888 662.131 275.662 662.105 275.435C662.08 275.285 662.055 275.134 662.03 274.983C661.979 274.681 661.929 274.405 661.878 274.103C661.853 274.002 661.853 273.927 661.828 273.826C661.778 273.525 661.727 273.223 661.677 272.921C661.651 272.745 661.626 272.569 661.601 272.418C661.551 272.142 661.5 271.89 661.475 271.614C661.45 271.513 661.45 271.412 661.424 271.312C661.374 270.985 661.324 270.633 661.273 270.281C661.273 270.18 661.248 270.08 661.223 269.979C661.172 269.602 661.122 269.2 661.071 268.798C661.021 268.37 660.97 267.943 660.92 267.49V267.465C660.819 266.585 660.744 265.705 660.668 264.8C660.592 263.895 660.542 262.989 660.491 262.059C660.466 261.607 660.441 261.129 660.416 260.676C660.315 258.137 660.29 255.497 660.39 252.806C660.416 252.379 660.416 251.926 660.441 251.474C660.466 251.147 660.466 250.82 660.491 250.493C660.895 242.699 662.156 234.276 664.451 225.023C671.916 194.826 672.597 167.394 667.981 142.905C667.553 140.692 667.099 138.479 666.594 136.317C665.258 130.559 663.619 125.003 661.702 119.572C660.315 115.649 658.776 111.802 657.112 108.081C652.799 98.426 647.554 89.3995 641.526 80.9764C620.014 50.9301 588.49 28.8291 553.007 15.3773C476.24 -13.7136 381.012 -2.34875 328.808 56.4868C283.262 107.83 171.97 61.3897 89.3263 100.136C73.3625 107.603 58.4832 118.264 45.3187 133.4C43.2003 135.839 41.1323 138.404 39.0896 141.094C33.1126 149.014 27.5392 157.991 22.4701 168.174C22.2432 168.601 22.0414 169.029 21.8144 169.481C17.5019 178.307 13.5677 188.012 10.0371 198.723C8.5239 203.324 7.18727 207.925 6.05241 212.527C5.82543 213.432 5.5985 214.337 5.39674 215.267C2.57219 227.386 0.983342 239.506 0.37808 251.474C0.37808 251.574 0.378117 251.675 0.352898 251.776C0.27724 253.586 0.20157 255.396 0.151132 257.181C0.151132 257.232 0.151132 257.257 0.151132 257.307C-0.000183624 260.576 -0.000183619 263.643 0.0250356 266.711Z" fill="white"/>
<path opacity="0.6" d="M0.000144089 264.444C0.000144089 265.199 0.0253879 265.953 0.0253879 266.707C0.0758264 269.85 0.176716 272.968 0.35325 276.086C0.403689 277.242 0.479322 278.399 0.580198 279.555C0.756733 281.994 0.958462 284.433 1.18543 286.847C1.36197 288.657 1.56374 290.443 1.76549 292.253C3.27864 304.825 5.64925 317.044 8.57468 328.635C13.1394 346.713 20.8816 363.157 31.0702 377.439C32.3312 379.199 33.6426 380.959 34.9792 382.643C37.7029 386.113 40.5779 389.432 43.6042 392.6C47.3619 396.548 51.3465 400.269 55.5077 403.714C78.6085 422.823 107.585 433.961 138.479 433.961L224.401 433.986L348.025 434.037H355.188L557.572 433.961C600.697 433.936 640.114 412.388 664.98 377.816L648.739 339.749L627.379 289.638L622.007 277.066L615.904 262.735L611.289 251.923H0.302762C0.201886 253.733 0.151496 255.544 0.101058 257.329C0.101058 257.379 0.101058 257.404 0.101058 257.454C0.0758387 258.259 0.0757894 259.089 0.0505702 259.893C0.0505702 260.321 0.0505702 260.773 0.0505702 261.201C0.0505702 261.553 0.0505702 261.88 0.0505702 262.232C0.0505702 262.383 0.0505702 262.533 0.0505702 262.709C0.0505702 263.237 0.0505702 263.765 0.0505702 264.293C0.000131774 264.369 0.000144089 264.394 0.000144089 264.444Z" fill="#6154F9"/>
<path opacity="0.9" d="M196.408 149.816C196.408 149.816 189.826 142.122 174.089 142.977C174.089 142.977 151.241 130.129 126.879 141.267C126.879 141.267 100.979 138.501 81.7868 143.656C69.0007 147.075 64.7639 150.696 64.7639 150.696L196.408 149.816Z" fill="#F8FCFF"/>
<path opacity="0.9" d="M366.158 185.595C366.158 185.595 355.844 166.637 331.179 168.749C331.179 168.749 295.368 137.143 257.186 164.524C257.186 164.524 216.608 157.736 186.547 170.408C166.497 178.856 159.89 187.707 159.89 187.707L366.158 185.595Z" fill="#F0F8FF"/>
<path opacity="0.9" d="M427.037 79.9672C427.037 79.9672 422.977 71.343 413.293 72.2985C413.293 72.2985 399.22 57.9164 384.215 70.3876C384.215 70.3876 368.251 67.2949 356.449 73.0528C348.58 76.8997 345.957 80.9226 345.957 80.9226L427.037 79.9672Z" fill="#F0F8FF"/>
<path opacity="0.9" d="M255.977 124.345C255.977 118.713 251.387 114.137 245.738 114.137C240.088 114.137 235.499 118.713 235.499 124.345C235.499 129.978 240.088 134.554 245.738 134.554C251.412 134.554 255.977 129.978 255.977 124.345Z" fill="#F0F8FF"/>
<path d="M43.6041 392.6C47.3618 396.547 51.3464 400.269 55.5076 403.713C78.6084 422.822 107.585 433.961 138.479 433.961L224.401 433.986L348.025 434.036H355.187L630.304 434.137C657.515 434.137 679.103 417.416 689.418 394.838C693.68 385.484 696 375.125 696 364.565C696 364.314 696 364.062 696 363.786C696 363.559 696 363.333 696 363.107C696 362.554 695.975 362.026 695.95 361.472C695.95 361.221 695.924 360.944 695.924 360.693C695.899 360.416 695.899 360.14 695.874 359.863C695.849 359.612 695.849 359.386 695.823 359.134C695.798 358.858 695.773 358.581 695.748 358.304C695.672 357.55 695.596 356.796 695.521 356.041C695.496 355.79 695.47 355.539 695.42 355.287C695.344 354.734 695.269 354.156 695.168 353.603C695.143 353.376 695.092 353.15 695.067 352.924C694.991 352.396 694.89 351.893 694.789 351.365C694.689 350.887 694.613 350.434 694.512 349.957C694.436 349.63 694.386 349.303 694.31 348.976C694.184 348.473 694.083 347.996 693.957 347.493V347.468C693.882 347.216 693.831 346.965 693.755 346.688C693.68 346.437 693.629 346.185 693.554 345.909C693.201 344.626 692.822 343.344 692.394 342.062C692.268 341.685 692.141 341.282 691.99 340.905C691.889 340.578 691.763 340.277 691.637 339.95C691.612 339.899 691.587 339.824 691.561 339.774C691.561 339.749 691.536 339.749 691.536 339.723C691.36 339.221 691.158 338.743 690.981 338.24C690.981 338.215 690.956 338.19 690.956 338.165C690.754 337.637 690.527 337.134 690.326 336.606C690.225 336.354 690.099 336.078 689.998 335.826C689.872 335.575 689.771 335.298 689.645 335.047C689.519 334.795 689.418 334.519 689.292 334.267C689.166 334.016 689.039 333.764 688.913 333.488C688.787 333.236 688.661 332.985 688.535 332.708C688.308 332.231 688.056 331.753 687.804 331.275C687.728 331.15 687.652 330.999 687.577 330.848C687.249 330.244 686.921 329.616 686.568 329.012C686.518 328.912 686.442 328.786 686.391 328.685C686.265 328.484 686.165 328.283 686.038 328.082C685.887 327.831 685.736 327.579 685.584 327.328C685.307 326.85 685.004 326.397 684.727 325.92C684.45 325.467 684.172 324.989 683.895 324.537C682.911 322.928 681.928 321.318 680.969 319.684C680.641 319.131 680.288 318.553 679.961 318C679.002 316.415 678.069 314.806 677.136 313.197C676.959 312.895 676.783 312.594 676.632 312.292C676.606 312.267 676.606 312.242 676.581 312.191C676.102 311.337 675.623 310.482 675.144 309.627C674.992 309.35 674.841 309.099 674.69 308.822C674.412 308.319 674.16 307.842 673.883 307.339C673.757 307.087 673.631 306.836 673.504 306.61C673.404 306.434 673.303 306.258 673.227 306.056C673.101 305.83 672.975 305.579 672.849 305.352C672.672 305.026 672.496 304.674 672.344 304.347C672.042 303.718 671.714 303.115 671.411 302.486C671.21 302.084 671.033 301.681 670.831 301.279C670.68 300.952 670.529 300.625 670.352 300.273C670.024 299.569 669.696 298.865 669.394 298.136C669.242 297.835 669.116 297.508 668.99 297.206C668.637 296.401 668.284 295.597 667.956 294.767C667.855 294.541 667.78 294.314 667.679 294.088C667.401 293.384 667.124 292.705 666.847 291.976C666.771 291.775 666.695 291.549 666.594 291.322C666.14 290.116 665.712 288.909 665.308 287.677C665.233 287.4 665.132 287.149 665.056 286.872C664.879 286.369 664.728 285.841 664.577 285.338C664.552 285.263 664.526 285.162 664.501 285.087C664.426 284.81 664.35 284.534 664.249 284.257C664.173 283.955 664.072 283.679 663.997 283.377C663.921 283.075 663.82 282.774 663.745 282.472C663.593 281.869 663.417 281.265 663.265 280.662C663.19 280.36 663.114 280.058 663.038 279.756C662.963 279.455 662.887 279.153 662.812 278.826C662.736 278.524 662.66 278.223 662.61 277.896C662.559 277.644 662.509 277.393 662.458 277.167C662.433 277.091 662.433 277.041 662.408 276.966C662.408 276.94 662.383 276.915 662.383 276.865C662.332 276.614 662.282 276.362 662.231 276.111C662.181 275.884 662.131 275.658 662.105 275.432C662.08 275.281 662.055 275.13 662.03 274.979C661.979 274.678 661.929 274.401 661.878 274.099C661.853 273.999 661.853 273.923 661.828 273.823C661.778 273.521 661.727 273.219 661.677 272.918C661.651 272.742 661.626 272.566 661.601 272.415C661.551 272.138 661.525 271.887 661.475 271.61C661.45 271.509 661.45 271.409 661.424 271.308C661.374 270.981 661.324 270.629 661.273 270.277C661.273 270.177 661.248 270.076 661.223 269.976C661.172 269.599 661.122 269.196 661.071 268.794C661.021 268.367 660.971 267.939 660.92 267.487V267.461C660.819 266.581 660.744 265.701 660.668 264.796C660.592 263.891 660.542 262.986 660.491 262.056C660.466 261.603 660.441 261.125 660.416 260.673C660.315 258.133 660.29 255.493 660.39 252.803C660.416 252.375 660.416 251.923 660.441 251.47H445.8C445.8 251.47 445.321 251.47 444.438 251.47C443.606 251.47 442.446 251.495 441.009 251.521C440.302 251.546 439.521 251.546 438.663 251.571C436.62 251.621 434.225 251.697 431.627 251.797C429.004 251.898 426.18 252.023 423.254 252.199C419.95 252.401 416.521 252.652 413.166 252.979C412.511 253.054 411.855 253.105 411.199 253.18C410.695 253.23 410.216 253.281 409.711 253.331C409.031 253.406 408.35 253.482 407.694 253.582C391.074 255.669 379.095 259.868 397.354 268.241C399.321 269.146 403.306 270.252 408.299 271.585C408.501 271.635 408.728 271.685 408.93 271.761C412.233 272.641 415.941 273.596 419.774 274.678C420.43 274.854 421.085 275.055 421.741 275.231C423.279 275.683 424.818 276.136 426.381 276.614C429.055 277.418 431.728 278.298 434.275 279.228C438.865 280.888 443.127 282.698 446.532 284.685C453.265 288.632 456.67 293.258 452.735 298.689C452.685 298.74 452.66 298.79 452.609 298.84C450.819 300.902 443.581 302.813 432.434 304.548C432.232 304.573 432.03 304.623 431.829 304.648C431.35 304.724 430.845 304.799 430.366 304.875C424.212 305.78 417 306.66 408.93 307.515C408.299 307.59 407.643 307.64 406.988 307.716C386.686 309.803 361.316 311.689 334.331 313.499C330.7 313.75 327.018 313.977 323.31 314.228C323.083 314.253 322.831 314.253 322.579 314.278C322.428 314.278 322.276 314.303 322.125 314.303C313.273 314.882 304.32 315.46 295.342 316.013C287.197 316.541 279.051 317.044 270.981 317.547C267.425 317.773 263.894 318 260.388 318.226C256.278 318.502 252.192 318.754 248.182 319.03C236.632 319.785 225.435 320.564 214.868 321.344C209.95 321.721 205.184 322.073 200.568 322.45C197.996 322.651 195.474 322.877 193.003 323.079C188.161 323.506 183.52 323.908 179.157 324.336C148.138 327.353 130.207 330.722 138.781 334.82C138.907 334.871 139.008 334.921 139.134 334.996C140.673 335.7 142.993 336.404 146.095 337.134C226.368 356.243 184.403 382.316 43.6041 392.6Z" fill="#FFE0B3"/>
<path d="M224.401 433.986L348.001 434.036H355.188L630.305 434.137C657.516 434.137 679.104 417.417 689.418 394.838C697.009 378.193 698.472 358.405 691.562 339.774C689.998 335.575 688.006 331.426 685.585 327.403C676.456 312.342 666.595 297.055 662.383 277.091H565.315C565.315 277.091 559.287 277.091 551.141 277.393C528.671 278.248 490.01 281.517 516.869 293.837C526.452 298.237 584.431 307.49 572.3 324.26C560.145 341.031 193.306 345.582 265.66 362.705C329.238 377.74 306.565 414.324 224.401 433.986Z" fill="#FFE6C5"/>
<path d="M327.875 425.388C339.527 428.153 348.606 431.045 355.163 434.037L630.279 434.138C657.491 434.138 679.078 417.417 689.393 394.838C696.984 378.194 698.447 358.406 691.537 339.774H627.53C627.53 339.774 621.503 339.774 613.357 340.076C590.887 340.931 552.226 344.2 579.084 356.52C588.667 360.92 646.646 370.173 634.516 386.943C622.386 403.714 255.521 408.265 327.875 425.388Z" fill="#FFF0E2"/>
<path d="M603.849 117.557C604.329 113.811 605.791 110.643 608.944 109.033C608.944 109.033 615.829 105.413 621.427 107.55C621.427 107.55 620.721 108.581 619.586 110.19C626.824 105.564 635.752 102.094 646.218 102.144C646.218 102.144 643.671 105.212 639.888 109.31C645.234 108.229 651.009 107.751 657.037 108.229C658.701 111.975 660.24 115.797 661.627 119.719C659.937 120.524 658.172 121.328 656.331 122.183C653.657 120.247 650.202 118.286 647.1 117.834C647.1 117.834 649.622 120.65 651.211 124.471C649.168 125.351 647.075 126.231 644.957 127.086C652.144 128.645 659.508 131.562 666.519 136.49C667.024 138.652 667.478 140.865 667.906 143.078C667.351 143.128 666.797 143.203 666.166 143.254C662.963 143.555 658.953 143.932 654.54 144.209C653.254 144.31 651.917 144.36 650.555 144.435C649.421 144.511 648.286 144.561 647.126 144.611C646.974 144.385 646.823 144.159 646.672 143.907C645.285 141.82 643.242 139.08 641.199 137.697C641.199 137.697 641.855 141.795 642.208 144.662C642.233 144.687 642.208 144.737 642.233 144.787C642.082 144.787 641.93 144.787 641.779 144.787C641.754 144.787 641.754 144.787 641.754 144.787C637.088 144.913 632.372 144.888 627.984 144.687C627.732 142.801 627.354 139.13 627.959 137.898C627.959 137.898 624.756 139.809 624.504 144.46C623.546 144.385 622.613 144.284 621.705 144.184C621.528 144.159 621.326 144.134 621.15 144.108C618.552 143.782 616.232 143.354 614.164 142.801C611.995 142.248 610.129 141.594 608.515 140.89C608.212 140.764 607.91 140.613 607.607 140.488C607.229 138.879 602.689 126.558 603.849 117.557ZM607.632 140.488C607.708 140.739 607.658 140.739 607.481 140.412C607.531 140.463 607.582 140.488 607.632 140.488ZM547.686 166.737C547.888 166.159 548.115 165.606 548.342 165.053C549.88 161.231 551.772 157.736 553.865 154.593C554.697 153.336 555.58 152.129 556.488 150.973C556.639 150.771 556.816 150.545 556.992 150.344C557.017 150.294 557.068 150.243 557.118 150.193C557.244 150.042 557.37 149.891 557.496 149.741C560.018 146.673 562.767 143.983 565.617 141.594C560.044 141.996 556.059 142.072 556.059 142.072C562.54 133.875 570.837 129.073 578.958 126.307C576.991 126.206 575.755 126.106 575.755 126.106C576.26 124.497 577.193 123.089 578.277 121.907C581.001 118.915 584.658 117.306 584.658 117.306C586.423 116.501 588.062 115.923 589.575 115.52C596.536 113.685 601.176 115.596 603.849 117.557C604.656 118.135 605.287 118.739 605.741 119.216C609.095 112.227 643.116 132.643 634.793 132.392C631.893 132.291 623.369 131.059 621.074 130.858C621.2 132.844 620.015 133.95 617.796 134.453C617.19 134.579 616.61 134.654 616.03 134.68C616.837 135.861 618.905 139.055 621.705 144.184C627.429 154.618 636.307 172.973 644.175 198.192C650.53 218.608 654.288 242.444 655.574 251.622C655.877 253.859 656.053 255.217 656.053 255.443C656.053 255.443 654.389 256.952 649.849 257.329C645.587 257.681 642.157 256.524 642.157 256.524C642.107 255.77 641.93 254.06 641.628 251.596C640.367 240.709 636.912 215.013 631.767 191.127C626.572 166.989 618.855 151.274 614.164 142.776C611.995 142.223 610.129 141.569 608.515 140.865C607.582 143.228 606.27 145.818 604.53 148.634C604.253 149.112 603.95 149.565 603.648 150.042C603.345 150.495 603.042 150.973 602.715 151.45C598.906 148.76 595.401 150.067 595.401 150.067C596.738 150.344 599.411 152.959 600.722 154.317C598.15 157.887 595.25 161.558 592.223 165.128C592.223 165.128 592.223 165.128 592.223 165.153C592.122 165.254 592.022 165.38 591.946 165.505C591.921 165.48 591.896 165.455 591.87 165.405C591.416 164.952 590.937 164.449 590.458 163.947C588.743 162.161 587.028 160.301 587.028 160.301C586.826 162.765 587.684 166.059 588.491 168.447C588.592 168.724 588.693 168.975 588.768 169.227C588.012 170.082 587.255 170.936 586.499 171.766C585.591 172.772 584.708 173.778 583.851 174.733C582.842 175.839 581.858 176.895 580.925 177.876C580.345 178.505 579.79 179.108 579.235 179.661C578.025 180.943 576.89 182.125 575.856 183.181C574.923 184.137 574.091 184.992 573.359 185.721C572.351 186.726 571.594 187.506 571.09 188.009C570.711 188.386 570.51 188.612 570.51 188.612C570.484 188.411 570.459 188.235 570.459 188.059C570.409 187.531 570.384 187.028 570.333 186.5C570.283 185.721 570.257 184.966 570.232 184.187C570.03 175.512 571.695 167.768 574.444 160.954C574.545 160.703 574.646 160.452 574.746 160.2C575.251 158.968 575.806 157.761 576.386 156.58C575.453 157.108 574.519 157.61 573.612 158.113C573.46 158.189 573.309 158.289 573.158 158.365C572.25 158.868 571.342 159.345 570.459 159.823C569.274 157.661 568.568 155.473 568.189 154.04C568.164 153.939 568.139 153.839 568.114 153.738C567.912 152.959 567.836 152.481 567.836 152.481C567.685 152.758 567.509 153.059 567.382 153.386C567.357 153.437 567.332 153.512 567.307 153.562C566.147 156.177 565.642 159.521 565.516 162.413C564.987 162.689 564.457 162.966 563.927 163.217C562.994 163.695 562.086 164.148 561.204 164.575C560.069 165.128 558.984 165.656 557.925 166.159C557.875 166.059 557.824 165.983 557.774 165.883C556.034 162.84 556.236 159.722 556.236 159.722C554.621 162.363 553.588 166.084 552.982 168.497C552.352 168.774 551.772 169.051 551.217 169.327C550.586 169.604 550.032 169.855 549.502 170.107C547.434 171.037 546.198 171.565 546.198 171.565C546.577 169.88 547.106 168.296 547.686 166.737Z" fill="#83C2EF"/>
<path d="M549.35 17.0584C549.35 17.0584 550.712 16.3293 552.906 15.5247C557.395 13.8401 565.39 11.6778 572.3 14.343C572.3 14.343 571.014 16.2287 568.895 19.1705C582.186 10.672 598.629 4.26046 617.896 4.36103C617.896 4.36103 613.205 10.0183 606.245 17.5362C623.369 14.0412 642.687 13.9658 663.089 20.6288C666.014 21.6094 668.915 22.6906 671.865 23.9226C671.865 23.9226 668.486 25.7329 662.912 28.549C661.904 29.0267 660.819 29.5799 659.684 30.1582C655.523 28.2473 648.941 25.4815 643.267 24.7523C643.267 24.7523 648.285 28.2473 650.631 34.5834C646.318 36.6703 641.552 38.908 636.483 41.1961C631.54 37.6257 625.21 34.0302 619.51 33.1754C619.51 33.1754 624.125 38.38 627.076 45.3699C623.293 47.0042 619.46 48.6134 615.551 50.1723C631.287 53.6169 647.478 60.5314 662.484 72.9773C664.299 74.4608 666.065 76.0448 667.83 77.7043C668.082 77.9055 668.335 78.1569 668.587 78.3832C668.587 78.3832 668.057 78.4335 667.048 78.5592C664.854 78.8358 660.466 79.3135 654.615 79.8918C650.782 80.2689 646.318 80.6712 641.426 81.0484C638.803 81.2495 636.079 81.4507 633.255 81.6518C630.859 81.8278 628.438 81.9535 625.941 82.0793C623.848 82.205 621.755 82.3055 619.636 82.4061C619.359 82.0038 619.081 81.5764 618.804 81.1238C616.257 77.2769 612.499 72.223 608.716 69.7087C608.716 69.7087 609.902 77.2266 610.557 82.5067C610.583 82.5821 610.583 82.6576 610.608 82.733C610.33 82.733 610.053 82.7581 609.775 82.7581C609.75 82.733 609.75 82.733 609.75 82.733C601.151 82.9844 592.5 82.9341 584.405 82.557C583.926 79.0872 583.245 72.2985 584.355 70.0607C584.355 70.0607 578.478 73.6059 577.999 82.1295C576.209 81.9787 574.494 81.8278 572.855 81.6267C572.501 81.5764 572.174 81.5512 571.846 81.501C564.053 80.5455 544.811 53.8935 542.314 34.5834C541.305 26.8644 543.02 20.2517 549.35 17.0584ZM435.132 127.488C435.561 126.181 435.99 124.898 436.444 123.641C436.494 123.49 436.545 123.365 436.595 123.214C437.125 121.781 437.705 120.347 438.285 118.965C439.117 116.953 440 115.017 440.933 113.131C441.891 111.195 442.875 109.31 443.909 107.474C450.97 95.0281 459.923 84.9959 469.557 76.95C459.318 77.6792 451.979 77.83 451.979 77.83C463.907 62.744 479.165 53.9187 494.12 48.8145C490.489 48.6385 488.219 48.4625 488.219 48.4625C491.523 37.9777 504.662 32.2702 504.662 32.2702C525.342 22.8414 537.245 29.9319 542.339 34.684C542.768 35.0863 543.146 35.4634 543.474 35.8154C549.653 22.9169 612.272 60.4811 596.964 60.0034C591.618 59.8274 575.957 57.5644 571.72 57.1622C571.972 60.8079 569.778 62.8446 565.718 63.8C564.633 64.0514 563.523 64.1772 562.439 64.2274C563.927 66.3898 567.71 72.2985 572.905 81.7272C577.571 90.2006 583.371 101.54 589.625 115.545C594.165 125.678 598.931 137.219 603.698 150.117C607.254 159.722 610.809 170.056 614.265 181.144C621.679 204.93 627.177 231.255 630.808 251.646C632.649 262.056 634.011 270.906 634.894 277.091C635.676 282.598 636.104 286.017 636.13 286.495C636.13 286.495 633.734 288.682 627.379 289.663C626.546 289.789 625.664 289.889 624.68 289.965C616.837 290.619 610.507 288.481 610.507 288.481C610.381 286.847 609.977 282.849 609.271 277.066C608.515 270.655 607.405 262.005 605.967 251.923C605.967 251.822 605.942 251.722 605.917 251.621C602.638 228.389 597.721 197.513 591.391 168.17C591.088 166.762 590.785 165.354 590.458 163.971C586.801 147.88 582.564 133.9 578.251 121.906C566.171 88.3651 553.511 70.6139 551.645 66.0881C550.132 72.6505 547.03 80.6209 541.28 89.9743C540.246 91.6589 539.136 93.3686 537.951 95.1538C530.94 90.2006 524.509 92.5892 524.509 92.5892C526.981 93.1172 531.873 97.8944 534.294 100.409C533.563 101.415 532.806 102.445 532.05 103.451C528.595 108.103 524.862 112.804 521.004 117.456C520.222 118.411 519.415 119.342 518.633 120.297C518.633 120.297 518.633 120.297 518.633 120.322C518.457 120.523 518.28 120.75 518.104 120.951C518.078 120.876 518.003 120.85 517.977 120.775C514.245 116.978 509.075 111.371 509.075 111.371C508.697 115.897 510.311 121.957 511.748 126.357C511.925 126.834 512.101 127.337 512.228 127.79C510.815 129.374 509.453 130.933 508.041 132.492C506.377 134.352 504.763 136.163 503.149 137.923C497.651 143.932 492.557 149.262 488.446 153.486C484.335 157.685 481.233 160.828 479.644 162.362C478.938 163.066 478.56 163.443 478.56 163.443C478.535 163.091 478.484 162.739 478.484 162.438C478.282 160.024 478.131 157.66 478.106 155.322C478.03 151.928 478.106 148.634 478.333 145.39C478.535 142.524 478.837 139.708 479.241 136.967C481.006 124.999 484.663 114.187 489.429 104.482C485.773 106.544 482.116 108.555 478.484 110.491C474.827 103.828 473.642 96.9893 473.642 96.9893C470.767 101.968 469.632 109.159 469.355 115.218C464.387 117.733 459.671 120.046 455.358 122.133C454.829 121.278 454.4 120.398 454.022 119.543C452.508 116.023 452.256 112.729 452.206 111.195C452.206 110.617 452.206 110.265 452.206 110.265C452.105 110.416 452.029 110.567 451.928 110.743C450.365 113.458 449.104 116.677 448.095 119.769C447.792 120.725 447.49 121.68 447.238 122.585C446.834 123.968 446.506 125.276 446.229 126.432C445.069 126.96 443.984 127.438 442.95 127.941C442.648 128.092 442.32 128.217 442.042 128.368C441.538 128.595 441.034 128.821 440.554 129.047C436.267 130.983 433.72 132.064 433.72 132.064C434.174 130.531 434.628 128.997 435.132 127.488Z" fill="#6154F9"/>
<path d="M419.699 274.804C419.699 274.804 469.507 280.813 464.842 285.766C460.176 290.745 471.953 286.671 475.383 291.65C478.813 296.628 461.714 296.025 461.714 300.048C461.714 304.071 481.007 306.56 473.845 311.538C466.683 316.516 408.149 309.376 407.846 313.399C407.543 317.422 422.801 326.121 400.684 325.191C378.567 324.261 344.016 312.142 346.21 316.818C348.379 321.47 322.227 314.329 322.227 314.329C322.227 314.329 337.283 314.958 340.183 311.01C342.705 307.591 330.625 300.249 354.079 305.227C358.114 306.082 381.215 309.778 393.093 308.546C404.643 307.339 377.406 300.877 387.898 299.017C394.682 297.81 425.247 299.821 430.392 298.489C439.597 296.125 416.698 288.859 432.107 287.325C445.171 285.992 419.699 274.804 419.699 274.804Z" fill="white"/>
<path d="M34.9802 382.643C37.7039 386.113 40.5789 389.432 43.6052 392.6C47.3629 396.548 51.3475 400.269 55.5087 403.714C71.4472 399.489 65.7728 389.608 109.125 392.273C154.898 395.064 143.675 390.865 135.731 384.353C127.787 377.841 212.322 380.632 216.054 374.12C219.787 367.608 200.645 362.956 203.924 355.036C204.781 352.974 200.796 350.611 194.466 348.222C191.44 347.091 187.834 345.934 183.975 344.828C164.859 339.321 139.009 334.544 139.009 334.544C138.909 334.695 138.833 334.821 138.757 334.972C138.328 335.927 138.682 336.857 139.589 337.788C144.835 343.194 168.188 348.499 162.337 353.15C155.326 358.732 95.5567 344.3 114.244 357.349C132.932 370.399 92.3034 371.782 63.3518 365.722C34.4002 359.662 46.5306 375.955 36.2664 382.015C35.8629 382.241 35.4341 382.442 34.9802 382.643Z" fill="white"/>
<path d="M313.223 314.63C313.223 314.63 272.569 316.818 276.302 321.947C280.034 327.076 271.636 328.006 245.484 325.668C219.331 323.33 179.561 322.601 183.091 325.894C186.622 329.213 177.493 331.476 164.202 330.646C150.912 329.817 135.831 331.099 139.008 334.493L139.689 338.29C139.689 338.29 127.433 329.817 137.621 327.73C147.81 325.643 178.098 323.179 174.971 320.69C171.869 318.201 177.871 313.851 193.86 316.34C209.849 318.829 265.054 320.489 260.691 317.572C256.328 314.655 293.703 311.839 313.223 314.63Z" fill="white"/>
<path d="M451.625 165.913L477.633 222.677L475.981 223.429L449.973 166.665L451.625 165.913Z" fill="#6154F9"/>
<path d="M467.365 375.905L472.334 374.296C472.334 374.296 473.368 360.869 471.148 344.803C469.761 334.62 467.189 323.582 462.549 314.706C460.455 310.683 457.933 307.138 454.882 304.297C454.882 304.297 451.074 295.497 446.03 283.704C440.431 270.605 405.351 266.783 425.375 294.189C429.486 299.821 433.899 309.728 439.17 315.737C448.199 326.021 454.579 338.014 458.942 348.599C465.197 363.736 467.365 375.905 467.365 375.905Z" fill="#FFB27D"/>
<path d="M478.663 376.66C480.176 379.098 476.923 381.462 472.913 383.7C468.903 385.937 470.567 386.164 465.423 389.986C460.278 393.807 457.252 393.38 456.47 392.827C455.764 392.324 457.857 389.985 460.076 387.396C460.354 387.069 460.631 386.742 460.908 386.415C463.38 383.473 463.733 379.802 464.893 375.981C465.978 372.36 464.263 363.359 464.263 363.359L471.122 357.928C471.122 357.928 472.509 366.124 473.291 369.519C473.745 371.53 475.384 373.19 476.721 374.447C477.377 375.126 478.133 375.805 478.663 376.66Z" fill="#FFB27D"/>
<path d="M406.307 258.863C406.56 260.699 406.736 264.621 407.921 264.42C408.88 264.244 409.889 259.039 410.923 257.782C412.436 255.946 413.318 252.552 413.419 251.748C413.621 250.088 413.999 249.686 413.999 249.686C413.999 249.686 423.532 221.047 423.431 214.183C423.406 211.946 423.532 207.42 423.759 202.341C423.986 196.809 424.289 190.649 424.516 186.023C419.8 185.972 414.68 186.576 410.569 187.23C410.721 192.786 410.973 198.418 411.2 203.347C411.528 210.638 411.83 216.321 411.578 217.578C410.923 221.047 410.696 239.201 409.132 248.881C408.93 249.837 408.829 251.773 408.073 252.98C407.19 254.413 405.98 256.374 406.307 258.863Z" fill="#FFB27D"/>
<path d="M420.456 228.616C428.476 203.045 412.335 203.372 413.167 190.599C414 177.801 423.936 164.047 423.936 164.047C423.936 164.047 424.289 164.022 424.92 163.947C425.247 163.922 425.55 163.695 425.676 163.368C426.054 162.363 426.155 160.15 426.155 157.837C426.155 154.317 425.878 150.57 425.878 150.57L437.781 148.207L438.488 148.056C438.462 154.04 439.597 158.516 440.833 161.03C441.413 162.212 442.548 163.042 443.884 163.218C446.457 163.57 450.946 164.349 453.972 165.606C455.435 166.21 456.57 166.964 456.973 167.819C460.252 174.985 463.505 193.088 465.8 206.012C467.086 213.203 468.297 217.728 468.574 219.991C469.003 223.562 457.679 226.001 456.267 219.287C455.813 217.1 454.678 212.725 453.342 207.797C453.14 207.043 452.938 206.288 452.736 205.534C450.391 211.87 449.206 214.787 449.256 217.527C449.357 221.425 452.005 224.92 457.528 237.29C460.58 244.154 412.285 254.74 420.456 228.616Z" fill="#FFB27D"/>
<path d="M425.878 150.595C425.878 150.595 426.155 154.341 426.155 157.861C432.813 157.685 436.344 151.601 437.781 148.257L425.878 150.595Z" fill="#E8945B"/>
<path d="M401.617 382.267L406.686 383.499C406.686 383.499 414.656 372.637 421.263 357.802C425.45 348.399 429.106 337.687 429.838 327.706C430.166 323.205 429.913 318.83 428.829 314.832C428.829 314.832 430.241 305.353 432.183 292.681C434.327 278.601 437.126 260.623 439.295 247.398L437.984 246.995L416.446 234.449C416.446 234.449 406.56 256.952 409.082 290.745C409.612 297.684 408.124 308.421 409.435 316.316C411.68 329.792 410.747 343.345 408.906 354.634C406.232 370.776 401.617 382.267 401.617 382.267Z" fill="#FFB27D"/>
<path d="M461.764 248.805C458.284 230.048 449.029 223.033 450.517 221.852C450.542 221.826 450.542 221.827 450.542 221.827C456.241 217.778 453.795 210.839 453.417 208.375C455.182 208.853 460.831 209.909 467.312 206.338C464.639 193.339 460.831 175.11 457.023 167.869C456.847 167.517 456.519 167.19 456.09 166.888C456.115 166.863 456.115 166.838 456.115 166.838C452.559 164.248 445.271 163.444 445.271 163.444C445.271 163.444 441.337 173.023 440.151 174.532C432.384 184.212 418.412 179.837 420.304 173.803C420.985 171.615 424.515 164.701 424.944 163.921C424.969 163.896 423.961 164.022 423.961 164.022C421.615 164.324 419.951 164.575 418.766 164.776C416.42 165.178 415.84 165.455 415.26 165.908C413.192 167.969 410.519 173.048 410.317 182.125C410.241 185.494 406.711 222.832 418.135 222.179C418.387 222.153 418.16 222.782 417.681 223.939C416.042 227.635 467.439 279.329 461.764 248.805Z" fill="#F9DDBF"/>
<path d="M410.822 388.829C410.822 391.696 406.812 391.997 402.197 391.796C397.607 391.595 398.894 392.651 392.513 393.204C386.133 393.757 383.787 391.796 383.409 390.916C383.081 390.137 386.107 389.232 389.335 388.201C389.739 388.075 390.142 387.949 390.546 387.798C394.178 386.592 396.447 383.65 399.448 381.01C402.298 378.495 405.577 369.947 405.577 369.947L414.277 368.941C414.277 368.941 411.15 376.635 409.99 379.929C409.309 381.865 409.814 384.153 410.318 385.913C410.57 386.843 410.822 387.824 410.822 388.829Z" fill="#FFB27D"/>
<path d="M406.837 344.3C425.877 355.162 472.558 317.598 472.508 316.592C472.23 311.287 467.413 279.304 461.764 248.806C458.284 230.049 449.029 223.034 450.517 221.852C450.163 222.128 444.792 226.453 434.931 225.875C426.104 225.347 419.32 224.24 417.656 223.939C416.042 227.635 411.477 236.913 410.14 248.806C405.803 287.501 406.837 344.3 406.837 344.3Z" fill="#A0312B"/>
<path d="M420.683 224.064C420.683 224.064 424.39 283.001 433.192 306.912C441.968 330.823 452.787 340.931 464.943 344.979C477.098 349.027 513.238 353.729 498.383 328.133C483.529 302.537 475.081 298.162 475.762 279.304C476.443 260.447 451.224 223.989 451.224 223.989L436.672 225.9L420.683 224.064Z" fill="#B5453C"/>
<path d="M450.542 221.826C450.542 221.826 434.956 228.313 418.11 222.203L417.252 224.843C417.252 224.843 434.553 230.828 451.197 224.014L450.542 221.826Z" fill="#ED7D2B"/>
<path d="M420.481 122.057C420.481 122.057 436.823 104.306 444.414 116.526C444.414 116.526 450.391 119.342 452.081 129.801C453.821 140.462 447.314 149.313 443.759 147.15C441.489 145.767 438.715 147.754 438.715 147.754L420.481 122.057Z" fill="#112F6D"/>
<path d="M423.987 151.802C423.987 151.802 441.262 152.908 441.791 142.197C442.321 131.461 444.919 124.371 433.898 123.214C422.902 122.057 420.557 126.03 419.498 129.575C418.464 133.095 419.523 151.224 423.987 151.802Z" fill="#F4A36C"/>
<path d="M427.67 145.592C427.67 145.592 427.317 146.849 424.165 146.497C424.165 146.497 421.517 146.195 421.668 144.812C421.668 144.812 424.291 143.957 427.67 145.592Z" fill="white"/>
<path d="M470.037 132.513C470.037 132.513 417.153 108.853 403.559 106.791C389.966 104.729 385.427 104.252 387.57 109.029C389.714 113.806 402.878 133.468 425.576 136.108C448.273 138.748 456.949 147.498 469.684 146.669C482.42 145.864 486.304 142.369 481.285 138.447C476.241 134.575 470.037 132.513 470.037 132.513Z" fill="#EB5757"/>
<path d="M453.972 130.782C453.972 130.782 455.133 115.294 451.829 110.693C448.525 106.066 441.262 108.732 436.597 105.387C431.931 102.043 418.086 118.336 418.086 118.336C418.086 118.336 432.536 130.606 453.972 130.782Z" fill="#F99746"/>
<path d="M442.423 232.186L443.33 232.035L466.381 264.143C466.381 264.143 452.384 265.048 445.751 261.453C439.119 257.857 439.421 233.871 439.421 233.871L442.423 232.186Z" fill="#6154F9"/>
<path d="M477.678 221.675C477.678 221.675 455.99 231.28 442.447 232.185C442.447 232.185 448.474 261.301 462.017 263.715C475.56 266.129 489.733 256.499 489.128 249.006C488.497 241.488 477.678 221.675 477.678 221.675Z" fill="#6154F9"/>
<path d="M442.422 232.186C442.422 232.186 439.85 230.903 439.421 233.87C439.421 233.87 442.22 233.292 442.422 232.186Z" fill="#6154F9"/>
<path d="M441.11 233.066C441.59 233.066 441.993 232.689 442.018 232.211C442.018 232.06 442.548 216.019 443.733 199.751C445.852 170.358 448.222 165.682 449.13 165.028C449.534 164.751 449.634 164.173 449.332 163.796C449.029 163.394 448.474 163.318 448.071 163.595C446.482 164.726 444.086 169.705 441.917 199.625C440.732 215.943 440.203 231.985 440.203 232.161C440.177 232.664 440.581 233.066 441.085 233.066C441.085 233.066 441.11 233.066 441.11 233.066Z" fill="#6154F9"/>
<path d="M468.6 220.268C468.6 220.268 465.851 238.924 459.067 251.747L454.099 250.616L456.267 219.287C456.267 219.312 462.068 215.616 468.6 220.268Z" fill="#FFB27D"/>
<path d="M454.779 249.283C454.779 249.283 450.492 250.414 449.029 251.42C447.567 252.426 446.659 256.65 448.096 258.36C449.004 259.441 451.753 255.921 453.443 255.921C455.132 255.921 458.638 254.915 459.092 251.747C459.52 248.604 454.779 249.283 454.779 249.283Z" fill="#FFB27D"/>
<path d="M454.401 249.384C454.401 249.384 452.106 249.711 449.358 249.635C449.358 249.635 449.08 250.113 449.786 250.339C450.518 250.565 452.283 250.741 452.283 250.741L454.553 249.283L454.401 249.384Z" fill="#FFB27D"/>
<path d="M528.09 148.005C528.09 148.005 511.42 151.45 507.133 156.629C502.845 161.809 505.014 193.338 502.064 202.415C498.583 213.202 499.592 223.913 499.592 223.913L523.046 205.332L528.09 148.005Z" fill="#FFB27D"/>
<path opacity="0.5" d="M510.991 177.121C510.991 177.121 504.61 194.118 507.939 200.857C511.268 207.595 514.521 203.673 514.521 203.673L510.991 177.121Z" fill="#ED985F"/>
<path d="M561.152 393.731C561.152 393.731 562.892 404.342 560.723 405.624L531.721 407.761C531.721 407.761 531.469 404.417 536.059 403.336C540.649 402.23 548.643 398.911 549.551 392.751C550.484 386.591 561.152 393.731 561.152 393.731Z" fill="#FFB27D"/>
<path d="M495.381 387.496C495.381 387.496 497.121 398.106 494.952 399.389L465.95 401.526C465.95 401.526 465.698 398.182 470.288 397.101C474.877 395.994 483.931 394.159 484.864 387.999C485.772 381.864 495.381 387.496 495.381 387.496Z" fill="#FFB27D"/>
<path d="M525.139 244.656C525.139 244.656 528.09 263.262 531.62 285.64C536.412 316.038 542.717 341.609 544.23 348.599C549.4 372.309 549.475 393.228 549.475 393.228C549.475 393.228 551.745 396.421 561.152 393.706C561.152 393.706 565.111 378.192 567.633 338.34C568.012 332.205 565.616 322.701 565.616 322.198C565.565 291.624 564.91 237.867 564.91 237.867L525.139 244.656Z" fill="#FFB27D"/>
<path d="M550.41 152.028C550.41 152.028 531.143 159.722 520.601 155.674C520.601 155.674 523.476 152.531 528.293 150.368C528.066 148.181 527.915 146.295 527.839 144.711C527.637 141.015 527.789 138.953 527.789 138.953L535.38 133.799L542.567 128.871C540.978 144.007 550.41 152.028 550.41 152.028Z" fill="#FFB27D"/>
<path d="M563.876 159.697C563.876 159.747 563.876 185.293 562.086 201.008C561.884 202.692 561.758 204.553 561.682 206.489C561.304 216.345 562.338 228.69 563.296 237.566C563.977 244.003 564.633 248.604 564.683 249.082C564.809 250.213 513.892 256.197 513.539 255.946C513.387 255.845 520.575 231.683 514.901 209.129C507.965 181.521 509.983 160.929 515.935 155.146C518.305 152.833 528.09 148.031 528.09 148.031C531.873 148.483 531.444 152.858 535.227 150.645C539.363 148.257 545.012 145.491 545.819 145.994C551.771 149.665 560.951 148.081 563.876 159.697Z" fill="#FFB27D"/>
<path opacity="0.5" d="M542.289 134.679C542.289 134.679 536.993 142.926 527.838 144.711C527.637 141.015 527.788 138.953 527.788 138.953L535.379 133.799L542.289 134.679Z" fill="#ED985F"/>
<path d="M524.509 138.476C524.509 138.476 542.112 142.599 544.533 131.787C546.954 121.001 550.863 114.263 539.717 111.17C528.57 108.077 525.468 111.723 523.778 115.143C522.063 118.537 519.995 137.118 524.509 138.476Z" fill="#FFB27D"/>
<path d="M552.478 110.718C552.655 110.542 553.033 110.416 553.865 110.441C553.865 110.441 553.235 109.988 552.352 109.888C552.251 108.731 551.772 106.644 549.83 106.016C549.83 106.016 550.864 106.644 550.915 107.876C548.771 105.362 543.979 103.325 530.26 103.451C512.178 103.652 517.323 115.52 519.567 117.054C521.812 118.587 527.915 115.218 532.227 115.872C536.54 116.501 536.943 122.812 538.355 123.767C539.768 124.722 539.289 123.164 541.356 122.409C543.399 121.655 543.374 124.949 542.643 127.061C541.911 129.148 544.458 132.165 544.458 132.165C544.458 132.165 544.458 132.165 547.434 129.374C550.41 126.583 553.865 114.212 552.806 111.447C552.68 111.22 552.579 110.969 552.478 110.718Z" fill="#1D4484"/>
<path d="M515.355 237.893C515.355 237.893 491.019 292.051 486.152 315.862C481.284 339.673 484.916 389.658 484.916 389.658L495.407 387.496C495.407 387.496 512.253 346.437 506.907 324.185C504.36 313.599 555.858 285.338 549.351 255.04C545.165 235.605 515.355 237.893 515.355 237.893Z" fill="#FFB27D"/>
<path d="M528.999 217.602C529.049 218.356 529.402 218.935 529.755 218.909C530.108 218.884 530.36 218.256 530.31 217.501C530.26 216.747 529.906 216.169 529.553 216.194C529.175 216.219 528.948 216.848 528.999 217.602Z" fill="#ED985F"/>
<path d="M492.002 290.795C492.002 290.795 502.544 296.628 517.802 299.193C520.399 299.62 523.249 299.997 526.376 300.274L533.538 293.259L555 272.239L562.465 228.54C562.465 228.54 537.775 235.353 514.019 231.33C514.019 231.305 500.3 256.977 492.002 290.795Z" fill="white"/>
<path d="M517.8 299.192C520.398 299.619 523.248 299.997 526.375 300.273L533.537 293.258L526.753 253.632C526.022 270.604 517.8 299.192 517.8 299.192Z" fill="#9DD7F7"/>
<path d="M562.438 228.54C562.438 228.54 566.271 237.239 567.179 249.057C568.087 260.849 567.709 297.131 567.709 297.131C567.709 297.131 559.664 304.045 534.142 300.978L524.887 240.986L562.438 228.54Z" fill="white"/>
<path d="M548.518 147.25C548.518 147.25 530.007 155.246 528.09 148.03C528.09 148.03 510.512 150.997 507.133 156.654C503.753 162.311 502.518 183.532 502.518 183.532C502.518 183.532 506.25 186.022 511.244 187.455L507.713 241.06C507.713 241.06 522.037 252.45 569.777 242.292L562.716 166.762L548.518 147.25Z" fill="#EB5757"/>
<path d="M518.81 197.06C521.837 197.512 524.586 198.594 527.007 200.153C533.715 204.477 537.649 212.473 536.363 220.871C534.623 232.286 523.93 240.105 512.506 238.37C502.746 236.887 495.583 228.917 494.802 219.538C494.65 217.929 494.701 216.269 494.953 214.585C496.668 203.17 507.361 195.325 518.81 197.06Z" fill="#83C2EF"/>
<path d="M518.81 197.06C521.836 197.512 524.585 198.594 527.006 200.153C528.191 203.17 528.62 206.539 528.09 209.959C526.502 220.343 516.767 227.484 506.352 225.899C501.661 225.195 497.651 222.832 494.776 219.513C494.625 217.904 494.675 216.244 494.927 214.56C496.667 203.17 507.36 195.325 518.81 197.06Z" fill="#F8FBFF"/>
<path d="M512.48 238.371C504.31 230.375 503.124 222.028 503.654 216.32C504.234 210.16 506.781 205.81 506.806 205.76L507.084 205.936C507.058 205.986 504.537 210.26 503.982 216.37C503.452 221.977 504.41 230.451 512.48 238.371Z" fill="#1D4484"/>
<path d="M536.59 217.577C533.463 209.104 526.149 206.087 520.45 205.005C514.271 203.849 508.773 204.704 508.723 204.729L508.672 204.402C508.723 204.402 514.296 203.522 520.525 204.704C526.3 205.76 533.412 208.953 536.59 217.577Z" fill="#1D4484"/>
<path d="M506.227 204.176L506.151 204.477C506.1 204.452 501.158 203.094 498.661 205.508C501.258 202.969 506 204.125 506.227 204.176Z" fill="#1D4484"/>
<path d="M517.271 196.884C512.001 197.462 507.36 204.326 507.31 204.402L507.033 204.226C507.033 204.201 508.218 202.466 510.034 200.68C511.748 198.996 514.447 197.186 517.271 196.884Z" fill="#1D4484"/>
<path d="M507.638 202.893C507.865 202.893 508.067 202.943 508.269 203.019C508.773 203.245 509.076 203.773 508.975 204.402C508.849 205.231 508.042 205.935 507.184 205.935C506.453 205.935 505.898 205.458 505.848 204.779C505.848 204.653 505.848 204.553 505.848 204.427C505.974 203.572 506.781 202.893 507.638 202.893Z" fill="#1D4484"/>
<path d="M556.436 150.067C556.436 150.067 570.534 152.229 573.913 159.797C578.402 169.855 584.783 205.282 579.714 212.372C574.569 219.588 541.355 224.014 541.355 224.014L538.253 217.376C538.253 217.376 566.474 204.804 566.574 203.547C566.675 202.29 564.027 185.293 560.219 176.719C556.89 169.251 556.436 150.067 556.436 150.067Z" fill="#FFB27D"/>
<path d="M538.279 217.401C538.279 217.401 534.294 216.546 531.57 217.828C528.847 219.086 524.383 218.884 524.585 220.242C524.812 221.575 531.949 221.575 530.839 222.581C529.729 223.586 520.096 227.333 522.744 230.199C525.392 233.065 531.52 232.562 533.361 231.481C535.202 230.4 542.213 223.385 542.213 223.385L538.279 217.401Z" fill="#FFB27D"/>
<path d="M548.518 147.25C548.518 147.25 568.744 152.053 572.804 157.031C576.839 162.01 581.908 181.621 581.908 181.621C581.908 181.621 572.88 188.46 561.506 186.751C550.132 185.041 547.812 161.758 547.812 161.306C547.812 160.828 548.518 147.25 548.518 147.25Z" fill="#EB5757"/>
<path d="M523.4 131.235C523.4 131.235 523.703 133.12 525.62 133.498C529.15 134.151 530.285 131.939 530.285 131.939C530.285 131.939 526.275 130.254 523.4 131.235Z" fill="white"/>
<path d="M279.581 400.67C279.38 401.022 279.733 401.601 280.363 401.953C280.994 402.305 281.674 402.33 281.851 401.978C282.027 401.626 281.7 401.048 281.069 400.696C280.464 400.318 279.783 400.318 279.581 400.67Z" fill="#E8C7A0"/>
<path d="M260.39 402.179C260.138 402.607 260.567 403.311 261.348 403.763C262.13 404.216 262.963 404.241 263.215 403.814C263.467 403.386 263.038 402.682 262.256 402.23C261.475 401.777 260.642 401.752 260.39 402.179Z" fill="#F4D9B3"/>
<path d="M273.982 396.346C274.184 396.874 275.117 397.025 276.075 396.673C277.034 396.321 277.664 395.617 277.462 395.089C277.261 394.561 276.328 394.41 275.369 394.762C274.411 395.114 273.806 395.818 273.982 396.346Z" fill="#FFF0E2"/>
<path d="M265.736 393.882C265.534 394.234 265.887 394.812 266.518 395.164C267.148 395.516 267.829 395.541 268.006 395.189C268.207 394.837 267.854 394.259 267.224 393.907C266.593 393.555 265.938 393.53 265.736 393.882Z" fill="#E8C7A0"/>
<path d="M246.519 395.416C246.267 395.843 246.696 396.547 247.478 397C248.259 397.452 249.092 397.477 249.344 397.05C249.596 396.622 249.167 395.918 248.385 395.466C247.604 394.988 246.771 394.963 246.519 395.416Z" fill="#F4D9B3"/>
<path d="M260.111 389.558C260.313 390.086 261.246 390.236 262.204 389.884C263.163 389.532 263.793 388.828 263.591 388.3C263.39 387.772 262.456 387.622 261.498 387.974C260.54 388.326 259.935 389.055 260.111 389.558Z" fill="#FFF0E2"/>
<path d="M260.565 398.735C260.439 398.936 260.641 399.263 261.019 399.464C261.372 399.665 261.776 399.69 261.877 399.489C262.003 399.288 261.801 398.961 261.423 398.76C261.044 398.559 260.691 398.533 260.565 398.735Z" fill="#E8C7A0"/>
<path d="M249.568 399.614C249.417 399.866 249.669 400.268 250.123 400.52C250.577 400.771 251.056 400.796 251.183 400.545C251.334 400.293 251.082 399.891 250.628 399.64C250.174 399.363 249.695 399.363 249.568 399.614Z" fill="#F4D9B3"/>
<path d="M257.362 396.271C257.463 396.572 258.017 396.648 258.572 396.447C259.127 396.246 259.48 395.843 259.379 395.542C259.278 395.24 258.724 395.165 258.169 395.366C257.614 395.542 257.236 395.969 257.362 396.271Z" fill="#FFF0E2"/>
<path d="M615.651 386.289C615.399 386.742 615.853 387.471 616.66 387.949C617.467 388.426 618.35 388.426 618.602 387.999C618.854 387.546 618.4 386.817 617.593 386.339C616.786 385.862 615.929 385.837 615.651 386.289Z" fill="#E8C7A0"/>
<path d="M590.736 388.25C590.408 388.803 590.963 389.734 591.997 390.312C593.005 390.89 594.09 390.916 594.418 390.362C594.745 389.809 594.191 388.879 593.157 388.301C592.148 387.722 591.063 387.697 590.736 388.25Z" fill="#F4D9B3"/>
<path d="M608.389 380.682C608.641 381.361 609.852 381.537 611.112 381.085C612.348 380.632 613.155 379.702 612.903 379.023C612.651 378.344 611.44 378.168 610.179 378.621C608.944 379.073 608.137 380.004 608.389 380.682Z" fill="#FFF0E2"/>
<path d="M597.671 377.489C597.419 377.941 597.873 378.671 598.68 379.148C599.487 379.626 600.37 379.626 600.622 379.199C600.874 378.746 600.42 378.017 599.613 377.539C598.806 377.061 597.923 377.036 597.671 377.489Z" fill="#E8C7A0"/>
<path d="M572.755 379.475C572.427 380.028 572.982 380.959 574.016 381.537C575.025 382.115 576.109 382.14 576.437 381.587C576.765 381.034 576.21 380.104 575.176 379.525C574.142 378.922 573.058 378.897 572.755 379.475Z" fill="#F4D9B3"/>
<path d="M590.408 371.882C590.661 372.561 591.871 372.737 593.132 372.284C594.368 371.832 595.175 370.902 594.923 370.223C594.67 369.544 593.46 369.368 592.199 369.82C590.963 370.273 590.156 371.203 590.408 371.882Z" fill="#FFF0E2"/>
<path d="M590.987 383.775C590.836 384.026 591.088 384.453 591.567 384.73C592.046 385.007 592.526 385.007 592.677 384.755C592.828 384.504 592.576 384.076 592.097 383.8C591.618 383.523 591.138 383.523 590.987 383.775Z" fill="#E8C7A0"/>
<path d="M576.687 384.906C576.511 385.233 576.813 385.761 577.418 386.088C577.998 386.415 578.629 386.44 578.806 386.113C578.982 385.786 578.679 385.258 578.074 384.931C577.494 384.604 576.889 384.604 576.687 384.906Z" fill="#F4D9B3"/>
<path d="M586.8 380.582C586.952 380.984 587.632 381.084 588.364 380.808C589.07 380.556 589.549 380.003 589.398 379.626C589.246 379.224 588.566 379.123 587.834 379.4C587.128 379.651 586.674 380.179 586.8 380.582Z" fill="#FFF0E2"/>
<path d="M379.979 371.354C379.726 371.781 380.155 372.51 380.962 372.963C381.744 373.415 382.601 373.44 382.854 373.013C383.106 372.586 382.677 371.856 381.87 371.404C381.088 370.926 380.231 370.901 379.979 371.354Z" fill="#E8C7A0"/>
<path d="M355.767 373.265C355.465 373.818 355.994 374.698 356.978 375.276C357.961 375.855 359.021 375.855 359.323 375.327C359.626 374.773 359.096 373.893 358.113 373.315C357.129 372.737 356.095 372.737 355.767 373.265Z" fill="#F4D9B3"/>
<path d="M372.918 365.923C373.17 366.577 374.356 366.753 375.566 366.325C376.777 365.898 377.558 364.992 377.306 364.314C377.054 363.66 375.869 363.484 374.658 363.911C373.448 364.339 372.691 365.244 372.918 365.923Z" fill="#FFF0E2"/>
<path d="M362.502 362.805C362.25 363.233 362.679 363.962 363.486 364.414C364.267 364.867 365.125 364.892 365.377 364.465C365.629 364.037 365.201 363.308 364.394 362.855C363.586 362.403 362.754 362.353 362.502 362.805Z" fill="#E8C7A0"/>
<path d="M338.291 364.716C337.988 365.269 338.518 366.149 339.501 366.728C340.485 367.306 341.544 367.306 341.847 366.778C342.149 366.225 341.62 365.345 340.636 364.767C339.653 364.213 338.619 364.188 338.291 364.716Z" fill="#F4D9B3"/>
<path d="M355.442 357.374C355.694 358.028 356.879 358.204 358.09 357.776C359.3 357.349 360.082 356.444 359.83 355.765C359.577 355.111 358.392 354.935 357.182 355.363C355.996 355.815 355.215 356.695 355.442 357.374Z" fill="#FFF0E2"/>
<path d="M356.02 368.915C355.869 369.166 356.121 369.569 356.575 369.845C357.029 370.097 357.508 370.122 357.659 369.871C357.81 369.619 357.558 369.217 357.104 368.94C356.65 368.664 356.146 368.664 356.02 368.915Z" fill="#E8C7A0"/>
<path d="M342.124 370.021C341.948 370.323 342.25 370.851 342.83 371.178C343.385 371.505 343.99 371.505 344.167 371.203C344.343 370.901 344.041 370.373 343.461 370.046C342.931 369.719 342.326 369.694 342.124 370.021Z" fill="#F4D9B3"/>
<path d="M351.96 365.797C352.111 366.174 352.767 366.275 353.473 366.023C354.179 365.772 354.608 365.244 354.482 364.867C354.331 364.49 353.675 364.389 352.969 364.641C352.263 364.917 351.834 365.42 351.96 365.797Z" fill="#FFF0E2"/>
<path d="M252.143 411.131C251.865 411.633 252.345 412.463 253.253 412.966C254.161 413.494 255.119 413.519 255.422 413.016C255.699 412.514 255.22 411.684 254.312 411.181C253.404 410.653 252.446 410.628 252.143 411.131Z" fill="#E8C7A0"/>
<path d="M224.428 413.318C224.074 413.946 224.705 414.977 225.815 415.606C226.949 416.26 228.16 416.285 228.513 415.656C228.866 415.028 228.236 413.997 227.126 413.368C225.991 412.74 224.781 412.714 224.428 413.318Z" fill="#F4D9B3"/>
<path d="M244.073 404.895C244.351 405.649 245.713 405.85 247.1 405.348C248.487 404.845 249.395 403.814 249.092 403.06C248.815 402.305 247.453 402.104 246.066 402.607C244.679 403.11 243.796 404.141 244.073 404.895Z" fill="#FFF0E2"/>
<path d="M232.143 401.325C231.866 401.828 232.345 402.657 233.253 403.16C234.161 403.688 235.119 403.713 235.422 403.211C235.724 402.708 235.22 401.878 234.312 401.375C233.404 400.872 232.421 400.847 232.143 401.325Z" fill="#E8C7A0"/>
<path d="M204.402 403.537C204.049 404.166 204.68 405.197 205.789 405.825C206.899 406.454 208.135 406.504 208.488 405.876C208.841 405.247 208.21 404.216 207.101 403.588C205.966 402.934 204.755 402.909 204.402 403.537Z" fill="#F4D9B3"/>
<path d="M224.048 395.114C224.326 395.869 225.687 396.07 227.074 395.567C228.461 395.064 229.369 394.033 229.067 393.279C228.789 392.525 227.428 392.323 226.041 392.826C224.653 393.329 223.771 394.36 224.048 395.114Z" fill="#FFF0E2"/>
<path d="M224.679 408.339C224.502 408.616 224.805 409.093 225.309 409.395C225.839 409.697 226.394 409.697 226.545 409.42C226.722 409.144 226.419 408.666 225.915 408.364C225.41 408.063 224.855 408.063 224.679 408.339Z" fill="#E8C7A0"/>
<path d="M208.791 409.596C208.589 409.948 208.942 410.552 209.598 410.904C210.254 411.281 210.935 411.281 211.137 410.929C211.338 410.577 210.985 409.974 210.33 409.622C209.699 409.27 208.993 409.244 208.791 409.596Z" fill="#F4D9B3"/>
<path d="M220.064 404.769C220.216 405.197 220.998 405.322 221.805 405.021C222.612 404.719 223.116 404.141 222.939 403.713C222.788 403.286 222.006 403.16 221.199 403.462C220.418 403.738 219.888 404.342 220.064 404.769Z" fill="#FFF0E2"/>
<path d="M165.591 424.532C165.313 425.035 165.792 425.865 166.7 426.368C167.608 426.896 168.566 426.921 168.869 426.418C169.172 425.915 168.667 425.085 167.759 424.583C166.851 424.08 165.893 424.055 165.591 424.532Z" fill="#E8C7A0"/>
<path d="M137.85 426.745C137.497 427.373 138.127 428.404 139.237 429.033C140.346 429.662 141.582 429.712 141.935 429.083C142.288 428.455 141.658 427.424 140.548 426.795C139.438 426.167 138.228 426.116 137.85 426.745Z" fill="#F4D9B3"/>
<path d="M157.521 418.322C157.798 419.076 159.16 419.277 160.547 418.774C161.934 418.272 162.842 417.241 162.539 416.486C162.262 415.732 160.9 415.531 159.513 416.034C158.126 416.537 157.218 417.567 157.521 418.322Z" fill="#FFF0E2"/>
<path d="M145.567 414.751C145.289 415.254 145.769 416.084 146.677 416.587C147.584 417.115 148.543 417.14 148.845 416.637C149.123 416.134 148.644 415.305 147.736 414.802C146.828 414.299 145.87 414.249 145.567 414.751Z" fill="#E8C7A0"/>
<path d="M117.852 416.939C117.499 417.567 118.129 418.598 119.239 419.227C120.373 419.88 121.584 419.905 121.937 419.277C122.29 418.648 121.66 417.618 120.55 416.989C119.415 416.36 118.205 416.335 117.852 416.939Z" fill="#F4D9B3"/>
<path d="M137.497 408.516C137.775 409.27 139.136 409.471 140.524 408.969C141.911 408.466 142.819 407.435 142.516 406.68C142.239 405.926 140.877 405.725 139.49 406.228C138.102 406.731 137.22 407.762 137.497 408.516Z" fill="#FFF0E2"/>
<path d="M138.126 421.766C137.95 422.043 138.252 422.521 138.757 422.822C139.286 423.124 139.841 423.124 139.992 422.848C140.169 422.571 139.866 422.093 139.362 421.792C138.858 421.49 138.303 421.465 138.126 421.766Z" fill="#E8C7A0"/>
<path d="M122.239 423.023C122.037 423.375 122.39 423.979 123.046 424.331C123.701 424.708 124.382 424.708 124.584 424.356C124.786 424.004 124.433 423.4 123.777 423.048C123.147 422.671 122.44 422.671 122.239 423.023Z" fill="#F4D9B3"/>
<path d="M133.511 418.196C133.662 418.623 134.444 418.749 135.251 418.447C136.058 418.146 136.562 417.567 136.411 417.14C136.259 416.713 135.478 416.587 134.671 416.889C133.838 417.165 133.334 417.743 133.511 418.196Z" fill="#FFF0E2"/>
<path d="M255.774 269.071H266.82C267.097 269.071 267.324 268.845 267.324 268.568V268.342C267.324 268.065 267.097 267.839 266.82 267.839H255.774C255.496 267.839 255.269 268.065 255.269 268.342V268.568C255.269 268.845 255.496 269.071 255.774 269.071Z" fill="white"/>
<path d="M235.699 269.071H251.839C252.117 269.071 252.344 268.845 252.344 268.568V268.342C252.344 268.065 252.117 267.839 251.839 267.839H235.699C235.422 267.839 235.195 268.065 235.195 268.342V268.568C235.195 268.845 235.422 269.071 235.699 269.071Z" fill="white"/>
<path d="M248.284 266.079H260.843C261.095 266.079 261.297 265.878 261.297 265.626V265.299C261.297 265.048 261.095 264.847 260.843 264.847H248.284C248.031 264.847 247.83 265.048 247.83 265.299V265.626C247.83 265.878 248.031 266.079 248.284 266.079Z" fill="white"/>
<path d="M242.408 266.079H245.586C245.712 266.079 245.812 265.978 245.812 265.852V265.098C245.812 264.972 245.712 264.872 245.586 264.872H242.408C242.282 264.872 242.181 264.972 242.181 265.098V265.852C242.181 265.978 242.282 266.079 242.408 266.079Z" fill="white"/>
<path d="M237.716 266.079H240.894C241.02 266.079 241.121 265.978 241.121 265.852V265.098C241.121 264.972 241.02 264.872 240.894 264.872H237.716C237.59 264.872 237.49 264.972 237.49 265.098V265.852C237.49 265.978 237.59 266.079 237.716 266.079Z" fill="white"/>
<path d="M132.048 307.464H158.125C158.604 307.464 158.982 307.087 158.982 306.61C158.982 306.132 158.604 305.755 158.125 305.755H132.048C131.569 305.755 131.191 306.132 131.191 306.61C131.165 307.087 131.569 307.464 132.048 307.464Z" fill="white"/>
<path d="M115.025 302.989H141.101C141.581 302.989 141.959 302.611 141.959 302.134C141.959 301.656 141.581 301.279 141.101 301.279H115.025C114.546 301.279 114.167 301.656 114.167 302.134C114.167 302.611 114.546 302.989 115.025 302.989Z" fill="white"/>
<path d="M85.7709 307.464H123.6C124.079 307.464 124.457 307.087 124.457 306.61C124.457 306.132 124.079 305.755 123.6 305.755H85.7709C85.2917 305.755 84.9134 306.132 84.9134 306.61C84.9134 307.087 85.2917 307.464 85.7709 307.464Z" fill="white"/>
<path d="M72.5058 262.911H95.0266C95.4301 262.911 95.7832 262.584 95.7832 262.157C95.7832 261.754 95.4554 261.402 95.0266 261.402H72.4806C72.0771 261.402 71.724 261.729 71.724 262.157C71.7492 262.584 72.077 262.911 72.5058 262.911Z" fill="white"/>
<path d="M57.7776 259.064H80.3235C80.727 259.064 81.0801 258.737 81.0801 258.309C81.0801 257.907 80.7522 257.555 80.3235 257.555H57.7776C57.3741 257.555 57.0211 257.882 57.0211 258.309C57.0463 258.737 57.3741 259.064 57.7776 259.064Z" fill="white"/>
<path d="M32.5085 262.911H65.1926C65.5961 262.911 65.9492 262.584 65.9492 262.157C65.9492 261.754 65.6214 261.402 65.1926 261.402H32.5085C32.105 261.402 31.7519 261.729 31.7519 262.157C31.7771 262.584 32.105 262.911 32.5085 262.911Z" fill="white"/>
</svg>
