<?xml version="1.0" encoding="utf-8"?>
<!-- Generator: Adobe Illustrator 25.0.1, SVG Export Plug-In . SVG Version: 6.00 Build 0)  -->
<svg version="1.1" id="Layer_1" xmlns="http://www.w3.org/2000/svg" xmlns:xlink="http://www.w3.org/1999/xlink" x="0px" y="0px"
	 viewBox="0 0 1175.5 1080" style="enable-background:new 0 0 1175.5 1080;" xml:space="preserve">
<style type="text/css">
	.st0{fill:#F2F7FC;}
	.st1{fill:url(#SVGID_1_);}
	.st2{fill:url(#SVGID_2_);}
	.st3{fill:url(#SVGID_3_);}
	.st4{fill:#D2DCE7;}
	.st5{fill:#27C3F3;}
	.st6{fill:#4AC7F4;}
	.st7{fill:#E6EFF9;}
	.st8{fill:#DEE8F4;}
	.st9{fill:url(#SVGID_4_);}
	.st10{fill:#FFFFFF;}
	.st11{fill:#4564AE;}
	.st12{fill:url(#SVGID_5_);}
	.st13{fill:#BDCFE0;}
	.st14{fill:url(#SVGID_6_);}
	.st15{fill:#76B6E3;}
	.st16{fill-rule:evenodd;clip-rule:evenodd;fill:#BDCFE0;}
	.st17{fill-rule:evenodd;clip-rule:evenodd;fill:#F2F7FC;}
	.st18{fill-rule:evenodd;clip-rule:evenodd;fill:url(#SVGID_7_);}
	.st19{fill-rule:evenodd;clip-rule:evenodd;fill:url(#SVGID_8_);}
	.st20{fill-rule:evenodd;clip-rule:evenodd;fill:#302b40;}
	.st21{fill-rule:evenodd;clip-rule:evenodd;fill:#8347E5;}
	.st22{fill-rule:evenodd;clip-rule:evenodd;fill:#4B1AAE;}
	.st23{fill-rule:evenodd;clip-rule:evenodd;fill:url(#SVGID_9_);}
	.st24{fill-rule:evenodd;clip-rule:evenodd;fill:url(#SVGID_10_);}
	.st25{fill-rule:evenodd;clip-rule:evenodd;fill:url(#SVGID_11_);}
	.st26{fill-rule:evenodd;clip-rule:evenodd;fill:url(#SVGID_12_);}
	.st27{fill-rule:evenodd;clip-rule:evenodd;fill:#FFFFFF;}
	.st28{fill-rule:evenodd;clip-rule:evenodd;fill:#E5DEFC;}
	.st29{fill-rule:evenodd;clip-rule:evenodd;fill:#4984B7;}
	.st30{opacity:0.9;fill-rule:evenodd;clip-rule:evenodd;fill:#76B6E3;enable-background:new    ;}
	.st31{fill-rule:evenodd;clip-rule:evenodd;fill:#76B6E3;}
	.st32{opacity:0.9;fill-rule:evenodd;clip-rule:evenodd;fill:#FFFFFF;enable-background:new    ;}
	.st33{fill-rule:evenodd;clip-rule:evenodd;fill:#0D5ED1;}
	.st34{fill-rule:evenodd;clip-rule:evenodd;fill:#FFB5B9;}
	.st35{fill-rule:evenodd;clip-rule:evenodd;fill:#E5E5F7;}
	.st36{fill-rule:evenodd;clip-rule:evenodd;fill:#F4F3FF;}
	.st37{fill-rule:evenodd;clip-rule:evenodd;fill:#C5D2E1;}
	.st38{fill-rule:evenodd;clip-rule:evenodd;fill:#362F4A;}
	.st39{fill-rule:evenodd;clip-rule:evenodd;fill:#626D7B;}
	.st40{fill:#FFB3C7;}
	.st41{fill:#0A0B09;}
	.st42{clip-path:url(#SVGID_14_);}
	.st43{opacity:0.4;fill:url(#SVGID_15_);enable-background:new    ;}
	.st44{clip-path:url(#SVGID_17_);}
	.st45{opacity:0.4;fill:url(#SVGID_18_);enable-background:new    ;}
	.st46{fill:#4D4D4F;}
	.st47{fill-rule:evenodd;clip-rule:evenodd;fill:#009DE2;}
	.st48{fill-rule:evenodd;clip-rule:evenodd;fill:#113984;}
	.st49{fill-rule:evenodd;clip-rule:evenodd;fill:#172C70;}
	.st50{clip-path:url(#SVGID_20_);}
	.st51{fill:#4984B7;}
	.st52{fill:url(#SVGID_21_);}
	.st53{fill:url(#SVGID_22_);}
	.st54{fill:#6154F9;}
	.st55{fill:url(#SVGID_23_);}
	.st56{fill:url(#SVGID_24_);}
	.st57{fill:url(#SVGID_25_);}
	.st58{fill:url(#SVGID_26_);}
	.st59{fill:url(#SVGID_27_);}
	.st60{fill:url(#SVGID_28_);}
	.st61{fill:url(#SVGID_29_);}
	.st62{fill:url(#SVGID_30_);}
	.st63{fill:url(#SVGID_31_);}
	.st64{fill:url(#SVGID_32_);}
</style>
<g>
	<g id="Layer_1_1_">
		<path class="st0" d="M353.6,500.8c6.9,3.9,6.9,10.4,0.1,14.4L161,626.2c-6.8,4-18,4-24.8,0l-129-81.9c-6.8-4-6.9-10.4-0.1-14.3
			l192.6-111c6.8-4,18-4,24.8,0L353.6,500.8z"/>
		<path class="st0" d="M1166.8,796.2c6.8,4,6.9,10.4,0.1,14.4l-168.5,96.7c-6.8,4-18,4-24.8,0l-71.3-43.6c-6.8-4-6.9-10.4-0.1-14.4
			l168.5-96.7c6.8-4,18-4,24.8,0L1166.8,796.2z"/>
		<path class="st0" d="M298.6,614l299.9-182.9c11.8-7.2,26.7-7.4,38.7-0.4l355,208.3c9.8,5.7,13.1,18.2,7.4,28
			c-1.7,2.9-4.1,5.4-7,7.2l-277.7,170c-11.4,7-25.7,7.2-37.4,0.7L298.9,631.7c-4.9-2.8-6.7-9.1-3.9-14
			C295.9,616.2,297.2,614.9,298.6,614z"/>
		<linearGradient id="SVGID_1_" gradientUnits="userSpaceOnUse" x1="649.74" y1="733.35" x2="1857.02" y2="733.35">
			<stop  offset="0" style="stop-color:#E6EFF9"/>
			<stop  offset="1" style="stop-color:#E6EFF9"/>
		</linearGradient>
		<path class="st1" d="M677.6,628.4c0.4,3.2,0.3,6.4-0.3,9.5l343,200.4c0.4-0.7,0.8-1.4,1.2-2.1c1-1.8,2-3.5,3-5.2L677.6,628.4z"/>
		<linearGradient id="SVGID_2_" gradientUnits="userSpaceOnUse" x1="536.75" y1="910.4055" x2="1023.37" y2="910.4055">
			<stop  offset="0" style="stop-color:#E6EFF9"/>
			<stop  offset="1" style="stop-color:#E6EFF9"/>
		</linearGradient>
		<path class="st2" d="M1022.8,818.8c-1.2-2-3.7-2.7-5.7-1.5l0,0L722.7,990c-2.3,4.8-4.8,9.5-7.5,14.1l306.1-179.5
			C1023.3,823.4,1024,820.9,1022.8,818.8L1022.8,818.8z"/>
		<linearGradient id="SVGID_3_" gradientUnits="userSpaceOnUse" x1="-167.86" y1="546.6945" x2="1039.42" y2="546.6945">
			<stop  offset="0" style="stop-color:#E6EFF9"/>
			<stop  offset="1" style="stop-color:#E6EFF9"/>
		</linearGradient>
		<path class="st3" d="M408.8,586.9l-151.2-88.3c-1.4,2.4-2.8,4.8-4.2,7.3l151.1,88.3c2,1.2,4.6,0.5,5.7-1.5
			S410.8,588.1,408.8,586.9L408.8,586.9L408.8,586.9z"/>
		<path class="st0" d="M905.7,966c6.8,4,6.9,10.4,0.1,14.4L737.2,1077c-6.8,4-18,4-24.8,0l-71.4-43.6c-6.8-4-6.9-10.4-0.1-14.4
			l168.5-96.7c6.8-4,18-4,24.8,0L905.7,966z"/>
		<path class="st4" d="M914.4,922.4L914.4,922.4c-0.2,2.1-1.8,4.3-4.8,6.1l-172.3,98.4c-0.9,0.5-1.8,0.9-2.7,1.3v28.9
			c-1,0.4-1.9,0.7-2.9,0.9c2-0.4,3.8-1.2,5.6-2.1l172.3-98.4c3.4-1.9,5-4.4,4.8-6.8L914.4,922.4L914.4,922.4z"/>
		<path class="st5" d="M731.6,1058l-1,0.2L731.6,1058z"/>
		<path class="st5" d="M721.6,1058.2L721.6,1058.2h0.3c0.2,0,0.4,0.1,0.6,0.1L721.6,1058.2z"/>
		<path class="st5" d="M725.5,1058.6L725.5,1058.6z"/>
		<path class="st5" d="M726.6,1058.6h0.2c1.3,0,2.5-0.2,3.8-0.4C729.2,1058.5,727.9,1058.6,726.6,1058.6z"/>
		<path class="st5" d="M722.5,1058.3l0.4,0.1l0,0c0.4,0.1,0.8,0.1,1.2,0.1l0,0c0.4,0,0.8,0,1.2,0.1
			C724.5,1058.6,723.5,1058.5,722.5,1058.3z"/>
		<path class="st6" d="M632.3,975.1L632.3,975.1L632.3,975.1z"/>
		<path class="st7" d="M719.1,1057.4l0.5,0.2l0.5,0.2c-0.4-0.1-0.8-0.3-1.2-0.4L719.1,1057.4z"/>
		<path class="st7" d="M720.2,1057.8L720.2,1057.8L720.2,1057.8z"/>
		<path class="st7" d="M718.9,1057.3L718.9,1057.3z"/>
		<path class="st7" d="M720.2,1057.8l0.2,0.1l0.3,0.1l0.8,0.2C721,1058,720.6,1057.9,720.2,1057.8z"/>
		<path class="st7" d="M717.7,1027.7l-78.2-45.1l-3.8-2.2c-2.1-1.2-3.2-2.8-3.4-4.5v28.3c-0.2,2,1,3.9,3.4,5.2l3.8,2.2l0,0
			l78.2,45.1c0.3,0.2,0.7,0.4,1,0.5l0.3,0.1v-29C718.5,1028.1,718.1,1027.9,717.7,1027.7z"/>
		<path class="st8" d="M734.6,1028.2c-5.1,1.9-11.4,2-15.7,0.2v29c0.8,0.3,1.7,0.6,2.6,0.8h0.1l0.9,0.2h0.1c1,0.2,1.9,0.3,2.9,0.3
			h1.1c1.3,0,2.7-0.2,4-0.4h0.1l1-0.2h0.1c1-0.2,2-0.5,2.9-0.9L734.6,1028.2z"/>
		<linearGradient id="SVGID_4_" gradientUnits="userSpaceOnUse" x1="632.2" y1="948.6897" x2="914.4062" y2="948.6897">
			<stop  offset="0" style="stop-color:#FFFFFF"/>
			<stop  offset="0.5" style="stop-color:#FCFDFF"/>
			<stop  offset="0.8" style="stop-color:#F4F7FF"/>
			<stop  offset="1" style="stop-color:#E9EEFF"/>
		</linearGradient>
		<path class="st9" d="M635.6,980.4l3.8,2.2l78.2,45.1c0.4,0.2,0.8,0.4,1.3,0.6c4.3,1.8,10.6,1.8,15.7-0.2c0.9-0.3,1.8-0.8,2.7-1.3
			l172.3-98.4c3-1.7,4.6-3.9,4.8-6.1c0.1-2-1-3.9-3.4-5.3l-82-47.3c-5-2.9-13.8-2.5-19.6,0.8L637,969.1c-3,1.7-4.6,3.9-4.8,6v0.1
			c0,0.2,0,0.5,0,0.7C632.4,977.6,633.5,979.2,635.6,980.4z"/>
		<path class="st10" d="M909.6,922.9l-172.3,98.4c-5.8,3.3-14.6,3.7-19.7,0.8l-82-47.3c-1-0.5-1.9-1.3-2.5-2.2
			c-1.7,2.8-1,5.8,2.5,7.8l82,47.3c5,2.9,13.8,2.5,19.7-0.8l172.3-98.4c4.5-2.6,5.9-6.2,3.9-9.1
			C912.6,920.9,911.2,922.1,909.6,922.9z"/>
		<path class="st11" d="M884.3,958.1c-0.1,2.3-1.4,4.5-3.3,5.7c-1.8,1.1-3.3,0.2-3.3-1.9c0.1-2.3,1.4-4.5,3.3-5.7
			C882.8,955.2,884.3,956,884.3,958.1z"/>
		<path class="st11" d="M894.9,952c-0.1,2.3-1.4,4.5-3.3,5.7c-1.8,1-3.3,0.2-3.3-1.9c0.1-2.3,1.4-4.5,3.3-5.7
			C893.4,949,894.9,949.9,894.9,952z"/>
		<path class="st11" d="M905.6,945.8c-0.1,2.3-1.4,4.5-3.3,5.7c-1.8,1.1-3.3,0.2-3.3-1.9c0.1-2.3,1.4-4.5,3.3-5.7
			C904.1,942.9,905.6,943.7,905.6,945.8z"/>
		<path class="st4" d="M1175.5,752.6L1175.5,752.6c-0.2,2.1-1.8,4.3-4.8,6.1l-172.3,98.4c-0.9,0.5-1.8,0.9-2.7,1.2v29
			c-1,0.4-1.9,0.7-2.9,0.9c2-0.4,3.8-1.2,5.6-2.1l172.3-98.4c3.4-1.9,5-4.4,4.8-6.8V752.6z"/>
		<path class="st5" d="M992.7,888.2c-0.3,0.1-0.6,0.1-1,0.2C992.1,888.4,992.4,888.3,992.7,888.2z"/>
		<path class="st5" d="M982.7,888.4L982.7,888.4h0.3l0.6,0.1C983.3,888.5,983,888.5,982.7,888.4z"/>
		<path class="st5" d="M986.6,888.9L986.6,888.9z"/>
		<path class="st5" d="M987.7,888.9h0.2c1.3,0,2.6-0.2,3.8-0.4C990.4,888.7,989,888.8,987.7,888.9z"/>
		<path class="st5" d="M983.7,888.6l0.4,0.1h0.1c0.4,0.1,0.8,0.1,1.2,0.1l0,0l1.2,0.1C985.6,888.8,984.6,888.7,983.7,888.6z"/>
		<path class="st6" d="M893.4,805.3L893.4,805.3L893.4,805.3z"/>
		<path class="st7" d="M980.2,887.6l0.5,0.2l0.5,0.2c-0.4-0.1-0.8-0.3-1.2-0.4H980.2z"/>
		<path class="st7" d="M981.3,888L981.3,888L981.3,888z"/>
		<path class="st7" d="M980,887.5L980,887.5z"/>
		<path class="st7" d="M981.3,888l0.2,0.1l0.3,0.1l0.8,0.2C982.2,888.3,981.7,888.1,981.3,888z"/>
		<path class="st7" d="M978.8,858l-78.2-45.1l-3.8-2.2c-2.1-1.2-3.2-2.8-3.4-4.6v28.3c-0.1,2,1,3.9,3.4,5.2l3.8,2.2l0,0l78.2,45.1
			c0.3,0.2,0.6,0.3,1,0.5l0.3,0.1v-29C979.6,858.4,979.2,858.2,978.8,858z"/>
		<path class="st8" d="M995.7,858.4c-5.1,1.9-11.4,2-15.7,0.2v29c0.8,0.3,1.7,0.6,2.6,0.8h0.1c0.3,0.1,0.6,0.1,0.9,0.2h0.1
			c1,0.2,1.9,0.3,2.9,0.3h1.1c1.3,0,2.7-0.2,4-0.4h0.1c0.3-0.1,0.7-0.1,1-0.2h0.1c1-0.2,2-0.5,2.9-0.9L995.7,858.4z"/>
		<linearGradient id="SVGID_5_" gradientUnits="userSpaceOnUse" x1="893.3001" y1="779.0396" x2="1175.5216" y2="779.0396">
			<stop  offset="0" style="stop-color:#FFFFFF"/>
			<stop  offset="0.5" style="stop-color:#FCFDFF"/>
			<stop  offset="0.8" style="stop-color:#F4F7FF"/>
			<stop  offset="1" style="stop-color:#E9EEFF"/>
		</linearGradient>
		<path class="st12" d="M896.7,810.7l3.8,2.2l78.2,45.1c0.4,0.2,0.8,0.4,1.3,0.6c4.3,1.8,10.6,1.8,15.7-0.2c0.9-0.3,1.8-0.8,2.7-1.2
			l172.3-98.4c3-1.7,4.6-4,4.8-6.1s-1-3.9-3.4-5.3l-82-47.3c-5-2.9-13.8-2.5-19.6,0.8l-172.4,98.4c-3,1.7-4.6,3.9-4.8,6v0.1
			c0,0.2,0,0.5,0,0.7C893.5,807.8,894.6,809.5,896.7,810.7z"/>
		<path class="st10" d="M1170.7,753.2l-172.3,98.4c-5.8,3.3-14.6,3.7-19.6,0.8l-82-47.3c-1-0.5-1.9-1.3-2.5-2.2
			c-1.7,2.8-1,5.8,2.5,7.8l82,47.3c5,2.9,13.8,2.5,19.6-0.8l172.3-98.4c4.5-2.6,5.9-6.2,3.9-9.1
			C1173.7,751.1,1172.3,752.3,1170.7,753.2z"/>
		<path class="st11" d="M1145.4,788.3c-0.1,2.3-1.4,4.5-3.3,5.7c-1.8,1.1-3.3,0.2-3.3-1.9c0.1-2.3,1.4-4.5,3.3-5.7
			C1143.9,785.4,1145.4,786.2,1145.4,788.3z"/>
		<path class="st11" d="M1156,782.2c-0.1,2.3-1.4,4.5-3.3,5.7c-1.8,1-3.3,0.2-3.3-1.9c0.1-2.3,1.4-4.5,3.3-5.7
			C1154.5,779.2,1156,780.1,1156,782.2z"/>
		<path class="st11" d="M1166.7,776.1c-0.1,2.3-1.4,4.5-3.3,5.7c-1.8,1.1-3.3,0.2-3.3-1.9c0.1-2.3,1.4-4.5,3.3-5.7
			C1165.2,773.1,1166.7,774,1166.7,776.1z"/>
		<path class="st13" d="M358.7,438.4L358.7,438.4c-0.1,2.1-1.8,4.3-4.8,6.1L160.4,555.7c-0.9,0.5-1.8,0.9-2.7,1.2v29
			c-1,0.4-1.9,0.7-2.9,0.9c2-0.4,3.8-1.2,5.6-2.1L354,473.4c3.4-1.9,5-4.4,4.8-6.8L358.7,438.4z"/>
		<path class="st5" d="M154.8,586.8c-0.3,0.1-0.6,0.1-1,0.2C154.1,586.9,154.5,586.8,154.8,586.8z"/>
		<path class="st5" d="M144.7,586.9L144.7,586.9h0.3l0.6,0.1L144.7,586.9z"/>
		<path class="st5" d="M148.6,587.4L148.6,587.4z"/>
		<path class="st5" d="M149.7,587.4h0.2c1.3,0,2.5-0.2,3.8-0.4C152.4,587.2,151.1,587.4,149.7,587.4z"/>
		<path class="st5" d="M145.7,587.1l0.4,0.1h0.1c0.4,0.1,0.8,0.1,1.2,0.1l0,0l1.2,0.1C147.6,587.3,146.7,587.2,145.7,587.1z"/>
		<path class="st6" d="M0,472L0,472L0,472z"/>
		<path class="st7" d="M142.3,586.1c0.2,0.1,0.3,0.2,0.5,0.2l0.5,0.2c-0.4-0.1-0.8-0.3-1.2-0.4H142.3z"/>
		<path class="st7" d="M143.4,586.5h-0.1H143.4z"/>
		<path class="st7" d="M142.1,586L142.1,586z"/>
		<path class="st7" d="M143.4,586.5l0.2,0.1l0.3,0.1l0.8,0.2C144.2,586.8,143.8,586.7,143.4,586.5z"/>
		<path class="st7" d="M140.8,556.5L7.2,479.6l-3.8-2.2c-2.1-1.2-3.2-2.8-3.4-4.6v28.3c-0.2,2,1,3.9,3.4,5.3l3.8,2.2l0,0l133.6,76.9
			c0.3,0.2,0.6,0.3,1,0.5c0.1,0,0.2,0.1,0.3,0.1v-29C141.6,556.9,141.2,556.7,140.8,556.5z"/>
		<path class="st8" d="M157.8,556.9c-5.1,1.9-11.4,2-15.7,0.2v29c0.8,0.4,1.7,0.6,2.6,0.8h0.1l0.9,0.2h0.1c1,0.2,1.9,0.3,2.9,0.3
			h1.1c1.3,0,2.7-0.2,4-0.4h0.1c0.3-0.1,0.6-0.1,1-0.2h0.1c1-0.2,2-0.5,2.9-0.9L157.8,556.9z"/>
		<linearGradient id="SVGID_6_" gradientUnits="userSpaceOnUse" x1="36.2408" y1="458.6843" x2="360.2008" y2="450.9343">
			<stop  offset="0" style="stop-color:#FFFFFF"/>
			<stop  offset="0.5" style="stop-color:#FCFDFF"/>
			<stop  offset="0.8" style="stop-color:#F4F7FF"/>
			<stop  offset="1" style="stop-color:#E9EEFF"/>
		</linearGradient>
		<path class="st14" d="M3.4,477.4l3.8,2.2l133.6,76.9c0.4,0.2,0.8,0.4,1.3,0.6c4.3,1.9,10.6,1.8,15.7-0.2c0.9-0.3,1.8-0.8,2.7-1.2
			L354,444.4c3-1.7,4.6-3.9,4.8-6.1c0.1-2-1-3.9-3.4-5.2L218,354c-5-2.9-13.8-2.5-19.6,0.8L4.8,466c-3,1.7-4.6,3.9-4.8,6v0.1
			c0,0.2,0,0.5,0,0.7C0.2,474.5,1.3,476.1,3.4,477.4z"/>
		<path class="st10" d="M354,438.9L160.4,550.1c-5.8,3.3-14.6,3.7-19.6,0.8L3.4,471.8c-1-0.5-1.9-1.3-2.5-2.2
			c-1.7,2.8-0.9,5.8,2.5,7.8l137.4,79.1c5,2.9,13.8,2.5,19.6-0.8L354,444.4c4.5-2.6,5.9-6.2,3.9-9.1
			C356.9,436.8,355.6,438,354,438.9z"/>
		<path class="st15" d="M328.6,474.1c-0.1,2.3-1.4,4.5-3.3,5.7c-1.8,1-3.3,0.2-3.3-1.9c0.1-2.3,1.4-4.5,3.3-5.7
			C327.1,471.1,328.6,472,328.6,474.1z"/>
		<path class="st15" d="M339.2,467.9c-0.1,2.3-1.4,4.5-3.3,5.7c-1.8,1.1-3.3,0.2-3.3-1.9c0.1-2.3,1.4-4.5,3.3-5.7
			C337.7,465,339.2,465.8,339.2,467.9z"/>
		<path class="st15" d="M349.9,461.8c-0.1,2.3-1.4,4.5-3.3,5.7c-1.8,1-3.3,0.2-3.3-1.9c0.1-2.3,1.4-4.5,3.3-5.7
			C348.4,458.8,349.9,459.7,349.9,461.8z"/>
		<path class="st16" d="M964.5,251.2c-1.7-3.6-6.1-9.3-8.6-12.1c-1.9-2.2-4.1-4.1-6.6-5.7l-387-223.1c-5.1-2.9-6.9-5.5-12.2-3.8
			L549,4.2c10.1-5.8,8.8-5.6,19.8,0.8l395.5,228.3c8.2,7.1,9,16.9,9,27.1v336.1c0,14-0.1,14.3-10.9,20.5l-1.4-2.2
			c5.3-4.2,4.3-8.4,4.3-15.4V314.5L964.5,251.2z"/>
		<path class="st17" d="M960.1,614.8l0.1,17.5c-0.2,3.5-2.1,6.6-4.9,8.6L707.8,783.1c-9.5,5.3-19.4,5.3-29,0l-376.2-217h-0.1
			c-2.2-1.7-3.6-4.2-4-7V559l-0.1-21.3l2.5-0.2l0.2,1.2c0.3,2.4,1.7,4.6,3.9,5.8l375,216.2c8.7,4.8,17.6,4.8,26.3,0L960.1,614.8z"/>
		<path class="st17" d="M957,234.5c7.1,4.1,11.3,15,11.3,22.9v347.8c0,4.3-1.3,10.1-5.9,11.8c-2.3,0.7-4.8,0.4-6.8-0.9
			c-66.6-38.4-133.2-76.8-199.8-115.2s-133.1-76.8-199.7-115.1c-7.1-4.1-11.3-15.1-11.3-23V15.1c0-4.3,1.3-10,5.8-11.7
			c2.3-0.8,4.9-0.4,6.9,0.9c66.6,38.3,133.2,76.7,199.7,115S890.4,196.1,957,234.5"/>
		<linearGradient id="SVGID_7_" gradientUnits="userSpaceOnUse" x1="546.2" y1="310.1289" x2="966.8" y2="310.1289">
			<stop  offset="0" style="stop-color:#FFFFFF"/>
			<stop  offset="0.5" style="stop-color:#FCFDFF"/>
			<stop  offset="0.8" style="stop-color:#F4F7FF"/>
			<stop  offset="1" style="stop-color:#E9EEFF"/>
		</linearGradient>
		<path class="st18" d="M956.3,235.8c-66.6-38.4-133.2-76.8-199.8-115.2S623.4,43.9,556.8,5.5c-5.9-3.4-10.6,1-10.6,9.5v347.8
			c0,8.6,4.7,18.4,10.6,21.7c66.5,38.4,133.1,76.7,199.7,115.1s133.2,76.8,199.8,115.2c5.8,3.3,10.5-1,10.5-9.6V257.4
			C966.8,248.9,962.1,239.1,956.3,235.8"/>
		<linearGradient id="SVGID_8_" gradientUnits="userSpaceOnUse" x1="615.7585" y1="108.8798" x2="781.7185" y2="372.9799">
			<stop  offset="0" style="stop-color:#FFFFFF"/>
			<stop  offset="0.5" style="stop-color:#FCFDFF"/>
			<stop  offset="0.8" style="stop-color:#F4F7FF"/>
			<stop  offset="1" style="stop-color:#E9EEFF"/>
		</linearGradient>
		<path class="st19" d="M914.8,211.9L556.8,5.5c-5.8-3.4-10.6,1-10.6,9.5v347.8c0,8.6,4.7,18.4,10.6,21.7L653,440L914.8,211.9z"/>
		<polygon class="st16" points="948,577.3 557.5,352.2 557.5,36.8 948,261.9 		"/>
		<polygon class="st20" points="946.9,262.8 756.5,153 561,40.3 561,349.3 946.9,571.7 		"/>
		<path class="st21" d="M331.1,521.1l0.1,20c-0.3-4,0.9-7,4.5-9.2l219.1-126.3l-0.1-20L333.6,513.4
			C331.4,515.6,330.9,518.2,331.1,521.1"/>
		<path class="st22" d="M554.7,385.6l0.1,20L954.5,636c1,0.5,2.2,0.2,2.7-0.8c0.1-0.3,0.2-0.6,0.2-0.9l-0.1-16.6L554.7,385.6z"/>
		<path class="st16" d="M958.8,617l0.1,14.3c0.1,3.5-1.8,6.8-4.9,8.5l-246.8,142c-9.1,5.1-18.5,5.1-27.6,0L303.4,565
			c-1.9-1.5-3.2-3.6-3.5-6l-0.1-20c0.3,2.8,2,5.3,4.5,6.7l375.1,216.2c9.1,5.1,18.5,5.1,27.6,0L958.8,617z"/>
		<path class="st17" d="M303.6,528.6L554.7,384l405.4,233.4L707.7,763.1c-8.9,5.3-20.1,5.3-29,0L303.6,546.9
			c-5.1-2.9-6.8-9.4-3.9-14.4C300.6,530.8,302,529.5,303.6,528.6"/>
		<linearGradient id="SVGID_9_" gradientUnits="userSpaceOnUse" x1="299.6922" y1="575.7125" x2="957.4" y2="575.7125">
			<stop  offset="0" style="stop-color:#FFFFFF"/>
			<stop  offset="0.5" style="stop-color:#FCFDFF"/>
			<stop  offset="0.8" style="stop-color:#F4F7FF"/>
			<stop  offset="1" style="stop-color:#E9EEFF"/>
		</linearGradient>
		<path class="st23" d="M304.3,529.8l250.4-144.1l402.7,232.1L707,761.9c-8.5,5.1-19.1,5.1-27.6,0L304.3,545.7
			c-4.4-2.5-5.9-8.2-3.4-12.6C301.7,531.7,302.9,530.6,304.3,529.8"/>
		<polygon class="st16" points="451.7,609.6 518.9,570.8 620.2,629.3 552.9,668 		"/>
		<linearGradient id="SVGID_10_" gradientUnits="userSpaceOnUse" x1="454.9" y1="621.25" x2="617" y2="621.25">
			<stop  offset="0" style="stop-color:#FFFFFF"/>
			<stop  offset="0.5" style="stop-color:#FCFDFF"/>
			<stop  offset="0.8" style="stop-color:#F4F7FF"/>
			<stop  offset="1" style="stop-color:#E9EEFF"/>
		</linearGradient>
		<polygon class="st24" points="617,631.1 552.9,668 454.9,611.5 518.9,574.5 		"/>
		<linearGradient id="SVGID_11_" gradientUnits="userSpaceOnUse" x1="406.7684" y1="557.9061" x2="916.251" y2="557.9061">
			<stop  offset="0" style="stop-color:#FFFFFF"/>
			<stop  offset="0.5" style="stop-color:#FCFDFF"/>
			<stop  offset="0.8" style="stop-color:#F4F7FF"/>
			<stop  offset="1" style="stop-color:#E9EEFF"/>
		</linearGradient>
		<path class="st25" d="M539,412.9l187,107.8l187,107.8c3.7,2.1,4.3,5.1,1.5,6.8c-19.8,11.4-39.6,22.8-59.4,34.2
			s-39.6,22.8-59.4,34.2c-2.8,1.6-8.1,1.2-11.8-0.9L597,595.1L410,487.4c-3.7-2.1-4.3-5.1-1.4-6.8l59.4-34.2
			c19.8-11.4,39.6-22.8,59.4-34.2C530.2,410.5,535.5,410.9,539,412.9"/>
		<path class="st16" d="M788.1,608.8c0,5.3,0.4,3.7-10.2,9.8c-6.1,3.5-7.7,1.1-16.9-4.2L740.6,602l-0.2-4.2
			c0.3,2.2,10.5,6.3,12.8,7.7c3.8,2.2,16.3,10.5,19.7,10.7c3.1,0.2,10.5-4.4,13.5-6.2L788.1,608.8z M826.1,678.3
			c0,5.3,0.4,3.7-10.2,9.8c-6.2,3.6-7.9,0.9-17.3-4.5c-8-4.6-7.1-3.2-7.1-8.7c0.2,2.5,11.6,7,14.1,8.4c7.8,4.5,6.5,2.8,18.4-4.2
			L826.1,678.3z M773.3,647.8c0,5.3,0.5,3.7-10.1,9.8c-6.2,3.6-8,0.9-17.3-4.5c-8-4.6-7.1-3.2-7.1-8.7c0.4,2.2,10.5,6.6,12.9,8
			c8.7,5,6.9,4.1,19.8-3.4L773.3,647.8z M720.7,617.5c0,5.3,0.4,3.7-10.2,9.8c-6.3,3.6-7.8,1-17.9-4.8l-19.7-11.9l-0.2-4.2
			c0.1,2.3,8.3,5.4,11.8,7.4c4,2.3,17.6,10.9,21,11.1c3.1,0.2,10.2-4.5,13.1-6.2L720.7,617.5z M680.8,594.5c0,5.3,0.4,3.7-10.2,9.8
			c-6.2,3.6-7.8,1-17.3-4.5c-8-4.6-7.1-3.2-7.1-8.7c0.1,2.5,10.9,6.5,13.3,7.9c8.7,5,6.1,4.2,19.1-3.3L680.8,594.5z M654.4,579.2
			c0,5.3,0.4,3.7-10.2,9.8c-6.2,3.6-7.8,1-17.3-4.5c-8-4.6-7.1-3.2-7.1-8.7c0.1,2.5,11,6.5,13.4,7.9c8.7,5,6.1,4.3,19.1-3.2
			L654.4,579.2z M628,564c0,5.3,0.4,3.7-10.2,9.8c-6.2,3.6-7.9,0.9-17.3-4.4c-8-4.6-7.1-3.2-7.1-8.7c0.1,2.5,11.3,6.2,13.7,7.5
			c8.7,5,5.6,4.5,18.6-3L628,564z M601.6,548.8c0,5.3,0.4,3.7-10.2,9.8c-6.2,3.6-7.9,0.9-17.3-4.5c-8-4.6-7.1-3.2-7.1-8.7
			c0.1,2.5,10.6,6.4,13,7.8c8.7,5,6.2,4.1,19.2-3.3L601.6,548.8z M575.2,533.6c0,5.3,0.4,3.7-10.2,9.8c-6.2,3.6-7.9,0.9-17.3-4.5
			c-8-4.6-7.1-3.2-7.1-8.7c0.2,2.5,11.8,6.9,14.3,8.3c7.8,4.5,6.4,3.1,18.3-3.8L575.2,533.6z M548.8,518.3c0,5.3,0.4,3.7-10.2,9.8
			c-6.2,3.6-7.9,0.9-17.3-4.5c-8-4.6-7.1-3.2-7.1-8.7c0.1,2.5,11,6.7,13.3,8.1c8.7,5,6.2,3.9,19.1-3.6L548.8,518.3z M522.4,503.1
			c0,5.3,0.4,3.7-10.2,9.8c-6.2,3.6-7.9,0.9-17.3-4.5c-8-4.6-7.1-3.2-7.1-8.7c0.1,2.5,10.6,6.5,13,7.8c8.7,5,6.5,4.3,19.5-3.2
			L522.4,503.1z M495.9,487.9c0,5.3,0.4,3.7-10.1,9.8c-6.2,3.6-7.8,1-17.1-4.4c-3.9-2.3-32.7-18.2-33.5-19.8l-0.2-3.7
			c0.8,2.4,19.2,11.3,22.5,13.3c4.1,2.4,19.6,12.2,23.1,12.5c3.1,0.2,10.5-4.6,13.5-6.3L495.9,487.9z M867.4,654.5
			c0,5.3,0.4,3.7-10.2,9.8c-6.2,3.6-7.9,0.9-17.3-4.4c-8-4.6-7.1-3.3-7.1-8.7c0.1,2.5,11.2,7,13.6,8.5c7.8,4.5,7,3.1,19-3.8
			L867.4,654.5z M841,639.3c0,5.3,0.4,3.7-10.2,9.8c-6.2,3.6-7.9,0.9-17.3-4.5c-8-4.6-7.1-3.2-7.1-8.7c0.1,2.4,10.7,6.6,13,7.9
			c8.7,5,6.6,4.1,19.6-3.4L841,639.3z M748.5,586c0,5.3,0.4,3.7-10.2,9.8c-6.2,3.6-8,0.9-17.3-4.5c-8-4.6-7.1-3.2-7.1-8.7l13.1,7.9
			c8.6,5.2,6.6,4.2,19.5-3.3L748.5,586z M722.1,570.8c0,5.3,0.4,3.7-10.1,9.8c-6.2,3.6-8,0.9-17.3-4.5c-8-4.6-7.1-3.2-7.1-8.7
			l12.9,7.7c8.6,5.1,6.6,4.2,19.5-3.3L722.1,570.8z M695.7,555.6c0,5.3,0.4,3.7-10.1,9.8c-6.2,3.6-8,0.9-17.3-4.5
			c-8-4.6-7-3.2-7-8.7c0.1,2.4,10.8,6.4,13.1,7.7c8.7,5,6.4,4.3,19.4-3.2L695.7,555.6z M669.2,540.3c0,5.3,0.4,3.7-10.1,9.8
			c-6.2,3.6-8.1,0.9-17.3-4.5c-8-4.6-7.1-3.2-7.1-8.7c0.1,2.4,11,6.4,13.3,7.7c8.8,5,6.1,4.1,19-3.3L669.2,540.3z M642.8,525.1
			c0,5.3,0.4,3.7-10.1,9.8c-6.2,3.6-8.1,0.9-17.3-4.5c-8-4.6-7-3.2-7-8.7l13.3,7.8c8.7,5.1,6.2,4.1,19.2-3.3L642.8,525.1z
			 M616.4,509.9c0,5.3,0.4,3.7-10.1,9.8c-6.2,3.6-8.1,0.9-17.3-4.5c-8-4.6-7.1-3.2-7.1-8.7l13,7.9c8.6,5.2,6.7,4.1,19.6-3.4
			L616.4,509.9z M590,494.6c0,5.3,0.4,3.7-10.2,9.8c-6.2,3.6-8,0.9-17.3-4.5c-8-4.6-7.1-3.2-7.1-8.7l13.1,7.9
			c8.6,5.2,6.5,4,19.4-3.5L590,494.6z M563.6,479.4c0,5.3,0.4,3.7-10.2,9.8c-6.2,3.6-8,0.9-17.3-4.5c-8-4.6-7.1-3.2-7.1-8.7l13,7.7
			c8.7,5,6.7,4.2,19.6-3.2L563.6,479.4z M537.2,464.1c0,5.3,0.4,3.7-10.2,9.8c-6.2,3.6-8,0.9-17.3-4.5c-7.8-4.5-7.1-3.1-7.1-8.2
			l16.4,9.4c4.9,2.8,9-1.4,16.1-5.5L537.2,464.1z M510.7,448.9c0,5.3,0.4,3.7-10.1,9.8c-6.2,3.6-7.9,0.9-17.3-4.5
			c-7.8-4.5-7.1-3.2-7.1-8.2l16.2,9.6c4.9,2.9,9.3-1.4,16.4-5.5L510.7,448.9z M908.6,630.7c0,5.3,0.4,3.7-10.2,9.8
			c-6.2,3.6-7.9,1-17.3-4.4c-8-4.6-7.1-3.3-7.1-8.7c0.2,2.5,11.8,7.2,14.3,8.6c7.8,4.5,6.1,2.7,18.1-4.1L908.6,630.7z M850.2,618.2
			c-2.1-1.4-1.6-1.9-1.6-5.5c0.1,2.5,10.7,6.4,13.1,7.8c8.6,5,6.6,4.5,19.7-3l1.9-1.4c0,5.3,0.4,3.7-10.2,9.8
			c-6.2,3.6-7.8,1-17.3-4.4L850.2,618.2z M824.7,603.5c-2.1-1.4-1.6-1.9-1.6-5.5c0.1,2.5,10.8,6.7,13.2,8c8.6,5,6.2,4,19.2-3.5
			l2.2-1.2c0,5.3,0.5,3.7-10.2,9.8c-6.2,3.6-7.9,1-17.3-4.5L824.7,603.5z M799.3,588.8c-2.1-1.4-1.6-1.9-1.6-5.5
			c0.1,2.5,10.4,6.5,12.8,7.9c8.7,5,6.7,4.2,19.7-3.4l2.1-1.2c0,5.3,0.4,3.7-10.2,9.8c-6.2,3.6-7.9,1-17.3-4.5L799.3,588.8z
			 M773.8,574.2c-2.1-1.4-1.6-2-1.6-5.5c0.1,2.5,10.6,6.3,13,7.7c8.7,5,6.7,4.5,19.7-3l1.9-1.3c0,5.3,0.4,3.7-10.2,9.8
			c-6.2,3.6-7.9,1-17.3-4.5L773.8,574.2z M748.3,559.5c-2.1-1.4-1.6-2-1.6-5.5c0.1,2.5,10.6,6.6,13,8c8.6,5,6.6,4.3,19.7-3.3
			l1.9-1.3c0,5.3,0.4,3.7-10.2,9.8c-6.2,3.6-7.8,1-17.3-4.5L748.3,559.5z M722.9,544.8c-2.1-1.4-1.6-1.9-1.6-5.5
			c0.1,2.5,10.6,6.5,13,7.9c8.6,5,6.5,4.3,19.5-3.2l2-1.3c0,5.3,0.4,3.7-10.2,9.8c-6.2,3.6-7.8,1-17.3-4.5L722.9,544.8z
			 M697.3,530.1c-2.1-1.4-1.6-1.9-1.6-5.5c0.1,2.4,10.7,6.4,13.1,7.8c8.6,5,6.4,4.4,19.5-3.1l2-1.3c0,5.3,0.4,3.7-10.2,9.8
			c-6.2,3.6-7.8,1-17.3-4.5L697.3,530.1z M671.9,515.4c-2.1-1.4-1.6-1.9-1.6-5.5c0.1,2.4,10.3,6.5,12.7,7.9c8.7,5,6.9,4.1,19.9-3.4
			l2-1.1c0,5.3,0.4,3.7-10.2,9.8c-6.1,3.5-7.5,1.1-16.4-4L671.9,515.4z M646.4,500.7c-2.1-1.4-1.6-1.9-1.6-5.5
			c0.1,2.4,10.6,6.5,12.9,7.9c8.7,5,6.6,4.2,19.6-3.3l2-1.2c0,5.3,0.4,3.7-10.2,9.8c-6.1,3.5-7.5,1.1-16.4-4L646.4,500.7z
			 M620.9,486c-2.1-1.4-1.6-1.9-1.6-5.5c0.1,2.5,10.9,6.6,13.2,8c8.7,5,6.1,3.8,19.1-3.7l2.2-1c0,5.3,0.4,3.7-10.2,9.8
			c-6.1,3.5-7.5,1.1-16.4-4L620.9,486z M595.5,471.3c-2.1-1.4-1.6-1.9-1.6-5.5c0.1,2.5,10.8,6.5,13.1,7.8c8.6,5,6.5,4.3,19.5-3.2
			l1.9-1.3c0,5.3,0.4,3.7-10.2,9.8c-6.2,3.6-7.8,1-17.2-4.5L595.5,471.3z M570,456.7c-2.1-1.4-1.6-1.9-1.6-5.5
			c0.1,2.5,10.5,6.5,12.9,7.9c8.6,5,6.5,4.1,19.5-3.4l2.1-1.2c0,5.3,0.3,3.7-10.2,9.8c-6.2,3.6-7.8,1-17.3-4.5L570,456.7z
			 M544.5,442c-2.1-1.4-1.6-1.8-1.6-5.5c0.1,2.4,10.6,6.6,12.9,8c8.6,5,6.8,4.2,19.8-3.3l1.9-1.4c0,5.3,0.4,3.7-10.2,9.8
			c-6.2,3.6-7.8,1-17.3-4.5L544.5,442z M552,425.1c0,5.3,0.4,3.7-10.2,9.8c-6.2,3.6-7.8,0.9-17.2-4.5c-8-4.6-7.1-3.2-7.1-8.7
			c0.1,2.4,10.7,6.5,13,7.8c8.7,5,6.5,4.2,19.6-3.2L552,425.1z M805.6,690.1c0,5.3,0.4,3.7-10.2,9.8c-6.2,3.6-7.8,1-17.2-4.5
			c-8-4.6-7.1-3.2-7.1-8.7c0.2,2.5,11.7,6.9,14.2,8.3c7.7,4.5,6.4,3.3,18.4-3.6L805.6,690.1z M779.2,674.9c0,5.3,0.4,3.7-10.2,9.8
			c-6.2,3.6-7.9,0.9-17.3-4.5c-8-4.6-7.1-3.2-7.1-8.7c0.1,2.5,11.5,7.1,13.9,8.5c7.7,4.5,6.3,3.2,18.4-3.7L779.2,674.9z
			 M752.7,659.7c0,5.3,0.5,3.7-10.2,9.8c-6.2,3.6-8,0.9-17.3-4.5c-8-4.6-7.1-3.2-7.1-8.7c0.1,2.5,11.7,7.1,14.2,8.5
			c7.8,4.5,6.3,3.2,18.3-3.8L752.7,659.7z M726.3,644.5c0,5.3,0.5,3.7-10.2,9.8c-6.2,3.6-8,0.9-17.3-4.5c-8-4.6-7.1-3.2-7.1-8.7
			l12.7,8c8.5,5.3,7,4.2,20-3.3L726.3,644.5z M699.9,629.3c0,5.3,0.4,3.7-10.2,9.8c-6.2,3.6-7.9,0.9-17.3-4.5
			c-8-4.6-7.1-3.2-7.1-8.7l19.7,11.2L699.9,629.3z M673.4,614c0,5.3,0.4,3.7-10.2,9.8c-6.2,3.6-7.4,1.2-17.3-4.5l-138.6-80.1
			l-0.6-4.7l151.8,87.2L673.4,614z M515,522.7c0,5.3,0.4,3.7-10.2,9.8c-6.2,3.6-7.9,1-17.2-4.5c-8-4.6-7.1-3.2-7.1-8.7l13.9,8.5
			c7.3,4.5,6.4,2.3,19-3.6L515,522.7z M488.6,507.4c0,5.3,0.4,3.7-10.2,9.8c-6.2,3.6-7.9,1-17.2-4.5c-8-4.6-7.1-3.2-7.1-8.7l14,8.6
			c7.6,4.7,6.6,3,18.7-3.9L488.6,507.4z M462.1,492.2c0,5.3,0.4,3.7-10.2,9.8c-6.1,3.5-7.5,1.1-16.9-4.2l-20.5-12.4l-0.2-3.7
			l19.4,11.3c8.6,5,11.5,9,17.1,5.8C452.8,497.7,461.7,493.7,462.1,492.2z M846.7,666.4c0,5.3,0.4,3.7-10.2,9.8
			c-6.2,3.6-7.9,0.9-17.2-4.5c-8-4.6-7.1-3.2-7.1-8.7c0.2,2.5,11.3,6.9,13.8,8.3c7.8,4.5,6.7,3.2,18.7-3.6L846.7,666.4z
			 M820.3,651.2c0,5.3,0.4,3.7-10.2,9.8c-6.2,3.6-7.9,0.9-17.3-4.5c-8-4.6-7.1-3.2-7.1-8.7c0.1,2.5,10.7,6.7,13.1,8
			c8.7,5,6.4,4,19.4-3.4L820.3,651.2z M814.5,624c0,5.3,0.6,3.6-9.9,9.7c-3.7,2.1-22.5,13.7-25.1,13.8c-4,0.1-16.5-8.2-20.7-10.6
			L733,621.5l-0.2-4.2c0.1,2.5,11.3,6.9,13.7,8.3l31.1,17.6c3.9,0.7,10.1-3.7,13.5-5.7l23-13.3L814.5,624z M741.1,605.5
			c0,5.3,0.4,3.7-10.2,9.8c-6.2,3.6-8,0.9-17.3-4.5c-8-4.6-7.1-3.2-7.1-8.7c0.1,2.5,10.5,6.5,12.9,7.9c8.8,5,6.7,4.2,19.7-3.2
			L741.1,605.5z M714.6,590.2c0,5.3,0.4,3.7-10.2,9.8c-6.2,3.6-7.8,1-17.3-4.5c-8-4.6-7.1-3.2-7.1-8.7c0.1,2.5,10.6,6.5,13,7.8
			c8.7,5,6.2,4.2,19.3-3.3L714.6,590.2z M688.2,575c0,5.3,0.4,3.7-10.2,9.8c-6.2,3.6-7.8,1-17.3-4.5c-8-4.6-7.1-3.2-7.1-8.7
			c0.1,2.5,10.5,6.1,12.9,7.5c8.7,5,6.6,4.6,19.6-2.9L688.2,575z M661.8,559.8c0,5.3,0.4,3.7-10.2,9.8c-6.2,3.6-7.8,1-17.3-4.5
			c-8-4.6-7.1-3.2-7.1-8.7c0.1,2.5,10.6,6.4,13,7.7c8.7,5,6.4,4.3,19.4-3.2L661.8,559.8z M635.4,544.5c0,5.3,0.4,3.7-10.2,9.8
			c-6.2,3.6-7.9,0.9-17.2-4.5c-8-4.6-7.1-3.2-7.1-8.7c0.1,2.5,10.5,6.6,12.9,8c8.7,5,6.7,4.2,19.7-3.3L635.4,544.5z M609,529.3
			c0,5.3,0.4,3.7-10.2,9.8c-6.2,3.6-7.9,0.9-17.3-4.5c-8-4.6-7.1-3.2-7.1-8.7c0.2,2.5,11.2,7.1,13.7,8.5c7.8,4.5,6.9,3,18.9-3.9
			L609,529.3z M582.6,514.1c0,5.3,0.4,3.7-10.2,9.8c-6.2,3.6-7.9,0.9-17.3-4.5c-8-4.6-7.1-3.2-7.1-8.7c0.2,2.5,11.5,6.8,14,8.3
			c7.8,4.5,6.7,3.4,18.7-3.5L582.6,514.1z M556.2,498.9c0,5.3,0.4,3.7-10.2,9.8c-6.2,3.6-7.9,0.9-17.3-4.5c-8-4.6-7.1-3.2-7.1-8.7
			c0.1,2.5,11,6.1,13.4,7.5c8.7,5,6.1,4.6,19-2.8L556.2,498.9z M529.8,483.6c0,5.3,0.4,3.6-10.2,9.8c-6.2,3.6-7.9,0.9-17.3-4.5
			c-8-4.6-7.1-3.2-7.1-8.7c0.1,2.4,10.8,6.5,13.1,7.9c8.7,5,6.4,4.3,19.4-3.2L529.8,483.6z M470.4,470.6c-2.2-1.3-14.5-7.7-14.8-9.4
			v-3.3c0.8,2.3,19,10.4,22.6,12.5c12.9,7.4,8.2,7.6,23-0.9l2.2-1.1c0,5.3,0.4,3.7-10.2,9.8c-6.2,3.6-8,0.9-17.3-4.5L470.4,470.6z
			 M888,642.6c0,5.3,0.4,3.7-10.2,9.8c-6.2,3.6-7.8,1-17.3-4.4c-8-4.6-7.1-3.3-7.1-8.7c0.2,2.6,12.6,7,15.2,8.5
			c6.8,3.9,6.8,2.2,17.4-3.9L888,642.6z M861.6,627.4c0,5.3,0.4,3.7-10.2,9.8c-6.2,3.6-7.9,1-17.3-4.5c-8-4.6-7.1-3.2-7.1-8.7
			c0.1,2.5,11.6,6.8,14,8.2c7.7,4.4,6.1,3.2,18.1-3.7L861.6,627.4z M803.3,614.9c-2.1-1.4-1.7-1.9-1.7-5.5
			c0.1,2.4,10.8,6.5,13.1,7.8c8.8,5,6.4,4.3,19.4-3.1l2-1.4c0,5.3,0.5,3.7-10.2,9.8c-6.2,3.6-7.9,0.9-17.3-4.5L803.3,614.9z
			 M777.9,600.3c-2.1-1.4-1.6-2-1.6-5.6c0.1,2.5,10.6,6.3,13,7.7c8.7,5,6.4,4.4,19.4-3l2.1-1.3c0,5.3,0.5,3.7-10.2,9.8
			c-6.2,3.6-7.9,0.9-17.3-4.5L777.9,600.3z M752.5,585.6c-2.1-1.5-1.6-1.9-1.6-5.5c0.1,2.5,11.6,7.3,14.1,8.7
			c7.8,4.5,6.4,2.8,18.5-4.1l1.9-1.2c0,5.3,0.4,3.7-10.2,9.8c-6.2,3.6-7.8,1-17.2-4.5L752.5,585.6z M727,571
			c-2.1-1.4-1.6-1.9-1.6-5.5c0.1,2.5,10.8,6.4,13.2,7.8c8.8,5.1,6.2,3.9,19.1-3.5l2.2-1c0,5.3,0.5,3.7-10.2,9.8
			c-6.2,3.6-8,0.9-17.3-4.5L727,571z M701.7,556.4c-2.2-1.5-1.7-2-1.7-5.6c0.2,2.6,12.5,7.5,15.1,9c6.9,4,6.9,1.6,17.5-4.5l2-1.2
			c0,5.3,0.5,3.7-10.2,9.8c-6.2,3.6-7.9,0.9-17.3-4.5L701.7,556.4z M676.3,541.7c-2.1-1.4-1.6-1.9-1.6-5.5
			c0.1,2.4,10.7,6.4,13.1,7.8c8.7,5,6.5,4.3,19.5-3.1l2-1.3c0,5.3,0.4,3.7-10.2,9.8c-6.2,3.6-7.9,0.9-17.3-4.5L676.3,541.7z
			 M650.9,527.1c-2.1-1.4-1.6-2-1.6-5.5c0.1,2.5,11.5,7,14,8.4c7.8,4.5,6.6,3,18.6-3.8l2-1.2c0,5.3,0.5,3.6-10.2,9.8
			c-6.2,3.6-8,0.9-17.3-4.5L650.9,527.1z M625.5,512.4c-2.2-1.4-1.7-1.9-1.7-5.5c0.2,2.5,11.4,6.9,13.8,8.3
			c7.8,4.5,6.6,3.2,18.7-3.7l2-1.2c0,5.3,0.5,3.7-10.2,9.8c-6.2,3.6-7.9,0.9-17.3-4.5L625.5,512.4z M600.1,497.8
			c-2.1-1.5-1.6-1.9-1.6-5.6l12.8,7.8c8.6,5.2,6.8,4.2,19.8-3.3l2-1.1c0,5.3,0.4,3.7-10.2,9.8c-6.2,3.6-7.9,0.9-17.3-4.5
			L600.1,497.8z M574.7,483.1c-2.1-1.5-1.6-1.9-1.6-5.5l14.1,8c7.8,4.5,6.4,3.4,18.4-3.5l2-1.1c0,5.3,0.5,3.7-10.2,9.8
			c-6.2,3.6-7.9,0.9-17.3-4.5L574.7,483.1z M549.2,468.5c-2.1-1.4-1.6-1.9-1.6-5.5l14.1,8.3c7.8,4.6,6.5,3.1,18.5-3.8l2-1.2
			c0,5.3,0.5,3.7-10.2,9.8c-6.2,3.6-8,0.9-17.3-4.5L549.2,468.5z M523.9,453.9c-2.2-1.5-1.7-2-1.7-5.6L537,457
			c6.8,4,7.2,1.8,17.8-4.2l1.9-1.1c0,5.3,0.4,3.6-10.2,9.8c-6.2,3.6-7.9,0.9-17.2-4.4L523.9,453.9z M712.6,629.4
			c0,5.1-0.7,3.9,7.1,8.4c9.3,5.3,11.1,8.1,17.3,4.5c10.6-6.1,10.1-4.5,10.1-9.8c0,0.5-0.7,0.6-1.2,0.9l-0.7,0.4l-10.3,5.9l-0.3,0.2
			c-1.4,0.8-4.2,0.6-6-0.5l-3.1-1.8l-0.5-0.3l-9.8-5.7l-0.7-0.4C713.5,630.5,712.7,630,712.6,629.4z M764.9,660
			c0,5.1-0.7,3.9,7.1,8.4c9.3,5.3,11.1,8.1,17.3,4.5c10.6-6.1,10.1-4.5,10.1-9.8c0,0.5-0.4,0.7-0.9,1l-0.7,0.4
			c-5.3,3-8.4,4.7-10.6,5.7l-0.3,0.2c-1.4,0.8-3.8,0.2-5.6-0.9S765.1,662.2,764.9,660z M531.4,437c0,5.3,0.4,3.7-10.2,9.8
			c-6.2,3.6-7.8,0.9-17.2-4.5c-8-4.6-7.1-3.2-7.1-8.7l13.3,7.6c8.7,5,6.1,4.3,19.2-3.2L531.4,437z"/>
		<linearGradient id="SVGID_12_" gradientUnits="userSpaceOnUse" x1="414.5208" y1="555.9475" x2="908.6216" y2="555.9475">
			<stop  offset="0" style="stop-color:#FFFFFF"/>
			<stop  offset="0.5" style="stop-color:#FCFDFF"/>
			<stop  offset="0.8" style="stop-color:#F4F7FF"/>
			<stop  offset="1" style="stop-color:#E9EEFF"/>
		</linearGradient>
		<path class="st26" d="M540.5,441l14.6,8.4c1.8,1,2.2,2.6,0.7,3.4c-3.8,2.2-7.7,4.4-11.4,6.6c-2,0.8-4.2,0.7-6-0.4l-14.6-8.4
			c-1.8-1.1-2.3-2.7-0.8-3.5c3.8-2.2,7.6-4.4,11.4-6.6C535.9,439.7,538.7,439.9,540.5,441 M565.8,455.6l14.7,8.4
			c1.9,1.1,2.2,2.6,0.8,3.5c-3.8,2.2-7.6,4.4-11.4,6.6c-1.5,0.8-4.1,0.6-6-0.5l-14.6-8.4c-1.8-1.1-2.2-2.6-0.7-3.5
			c3.8-2.2,7.6-4.4,11.4-6.6C561.3,454.3,564.1,454.5,565.8,455.6L565.8,455.6z M591.3,470.3l14.6,8.4c1.8,1.1,2.2,2.6,0.7,3.4
			c-3.8,2.2-7.6,4.4-11.4,6.6c-1.5,0.8-4.1,0.6-6-0.4l-14.6-8.4c-1.8-1.1-2.2-2.6-0.7-3.4c3.8-2.2,7.6-4.4,11.4-6.6
			C586.8,469,589.5,469.2,591.3,470.3L591.3,470.3z M616.7,484.9l14.6,8.4c1.8,1.1,2.2,2.6,0.7,3.5c-3.8,2.2-7.6,4.4-11.4,6.6
			c-1.5,0.8-4.1,0.6-6-0.4l-14.6-8.4c-1.9-1.1-2.2-2.7-0.7-3.5c3.8-2.2,7.6-4.4,11.4-6.6C612.2,483.6,614.8,483.8,616.7,484.9
			L616.7,484.9z M642.1,499.5l14.7,8.5c1.8,1.1,2.2,2.6,0.7,3.5c-3.8,2.2-7.6,4.4-11.4,6.6c-2,0.8-4.2,0.6-6-0.5l-14.6-8.4
			c-1.9-1.1-2.2-2.6-0.8-3.4c3.8-2.2,7.6-4.4,11.4-6.6C637.5,498.3,640.3,498.5,642.1,499.5L642.1,499.5z M667.5,514.2
			c4.9,2.8,9.7,5.6,14.6,8.4c1.8,1.1,2.2,2.6,0.8,3.5c-3.8,2.2-7.7,4.4-11.4,6.6c-1.5,0.8-4.2,0.6-6-0.4l-14.6-8.4
			c-1.8-1-2.2-2.6-0.7-3.4c3.8-2.2,7.6-4.4,11.4-6.6C663,512.9,665.7,513.1,667.5,514.2L667.5,514.2z M692.9,528.8l14.6,8.4
			c1.9,1,2.2,2.6,0.7,3.4c-3.8,2.2-7.6,4.4-11.4,6.6c-1.5,0.8-4.1,0.6-6-0.4l-14.6-8.4c-1.9-1.1-2.2-2.6-0.7-3.4
			c3.8-2.2,7.6-4.4,11.4-6.6C688.4,527.6,691,527.8,692.9,528.8L692.9,528.8z M718.3,543.5l14.7,8.4c1.8,1.1,2.2,2.6,0.7,3.4
			c-3.8,2.2-7.6,4.4-11.4,6.6c-2,0.8-4.2,0.6-6-0.4l-14.6-8.4c-1.8-1.1-2.3-2.7-0.8-3.5c3.8-2.2,7.6-4.4,11.4-6.6
			C713.7,542.2,716.5,542.4,718.3,543.5L718.3,543.5z M743.6,558.1l14.6,8.4c1.9,1,2.2,2.6,0.8,3.5c-3.8,2.2-7.6,4.4-11.4,6.6
			c-1.5,0.8-4.1,0.6-6-0.5l-14.6-8.4c-1.8-1.1-2.2-2.6-0.7-3.5c3.8-2.2,7.6-4.4,11.4-6.6C739.2,556.8,741.9,557,743.6,558.1
			L743.6,558.1z M769.1,572.8c4.9,2.8,9.8,5.6,14.7,8.4c1.8,1.1,2.1,2.6,0.7,3.4c-3.8,2.2-7.6,4.4-11.4,6.6
			c-1.9,0.8-4.1,0.6-5.9-0.4c-4.9-2.8-9.8-5.6-14.7-8.4c-1.8-1.1-2.2-2.6-0.7-3.4c3.8-2.2,7.6-4.4,11.4-6.6
			C764.6,571.5,767.3,571.7,769.1,572.8L769.1,572.8z M794.5,587.4l14.6,8.4c1.8,1.1,2.2,2.6,0.7,3.4c-3.8,2.2-7.6,4.4-11.4,6.6
			c-2,0.8-4.2,0.6-6-0.4l-14.5-8.5c-1.8-1.1-2.2-2.7-0.7-3.5c3.8-2.2,7.6-4.4,11.4-6.6C790,586.1,792.7,586.4,794.5,587.4
			L794.5,587.4z M820,602l14.6,8.4c1.8,1.1,2.2,2.6,0.7,3.5c-3.8,2.2-7.6,4.4-11.4,6.6c-1.5,0.8-4.1,0.6-6-0.5l-14.6-8.4
			c-1.9-1.1-2.2-2.6-0.7-3.4c3.8-2.2,7.6-4.4,11.4-6.6C815.4,600.8,818.1,601,820,602z M845.4,616.7l14.6,8.5
			c1.8,1.1,2.2,2.6,0.7,3.4l-11.4,6.6c-1.5,0.8-4.1,0.7-6-0.4l-14.7-8.5c-1.8-1-2.2-2.6-0.7-3.4l11.4-6.6
			C840.8,615.4,843.5,615.6,845.4,616.7L845.4,616.7z M871.8,631.9c4.9,2.8,9.8,5.6,14.6,8.4c1.8,1.1,2.2,2.6,0.7,3.4l-11.4,6.6
			c-1.5,0.8-4.1,0.7-6-0.4c-4.9-2.8-9.8-5.6-14.6-8.4c-1.8-1.1-2.2-2.6-0.8-3.5l11.4-6.6C867.2,630.7,870,630.9,871.8,631.9
			L871.8,631.9z M487,457.7l1.4,0.8l13.2,7.6c1.9,1.1,2.2,2.6,0.8,3.5c-3.8,2.2-7.6,4.4-11.4,6.6c-1.4,0.8-4.1,0.6-6-0.5l-13.2-7.6
			l-1.4-0.8l-13.2-7.6c-1.8-1.1-2.1-2.6-0.7-3.4c3.8-2.2,7.6-4.4,11.4-6.6c1.9-0.8,4.1-0.7,5.9,0.4L487,457.7z M513.5,473l14.6,8.4
			c1.8,1.1,2.2,2.6,0.7,3.4c-3.8,2.2-7.6,4.4-11.4,6.6c-1.4,0.8-4.1,0.6-6-0.4l-14.6-8.4c-1.9-1.1-2.1-2.6-0.7-3.4
			c3.8-2.2,7.6-4.4,11.4-6.6C509,471.7,511.6,471.9,513.5,473z M539.9,488.2c4.9,2.8,9.8,5.6,14.6,8.4c1.8,1,2.2,2.6,0.7,3.4
			c-3.8,2.2-7.6,4.4-11.4,6.6c-1.4,0.8-4.1,0.6-6-0.4l-14.6-8.4c-1.8-1-2.2-2.6-0.7-3.4c3.8-2.2,7.6-4.4,11.4-6.6
			C535.4,486.9,538.1,487.1,539.9,488.2L539.9,488.2z M566.3,503.5l14.7,8.4c1.8,1.1,2.2,2.6,0.7,3.4c-3.8,2.2-7.6,4.4-11.4,6.6
			c-1.4,0.8-4.2,0.6-6-0.4l-14.7-8.4c-1.8-1.1-2.2-2.7-0.8-3.5c3.8-2.2,7.6-4.4,11.4-6.6C561.8,502.1,564.5,502.4,566.3,503.5
			L566.3,503.5z M592.7,518.7l14.6,8.4c1.8,1,2.2,2.6,0.7,3.4c-3.8,2.2-7.6,4.4-11.4,6.6c-1.4,0.8-4.1,0.6-6-0.4l-14.6-8.4
			c-1.8-1-2.2-2.7-0.8-3.5c3.8-2.2,7.6-4.4,11.4-6.6C588.2,517.3,590.9,517.6,592.7,518.7L592.7,518.7z M619.1,533.9l14.6,8.4
			c1.8,1.1,2.2,2.6,0.7,3.5c-3.8,2.2-7.6,4.4-11.4,6.6c-1.4,0.8-4.1,0.6-6-0.4l-14.6-8.4c-1.8-1.1-2.1-2.6-0.7-3.4
			c3.8-2.2,7.6-4.4,11.4-6.6C614.6,532.6,617.3,532.8,619.1,533.9L619.1,533.9z M645.6,549.1l14.6,8.4c1.9,1.1,2.2,2.6,0.7,3.4
			c-3.8,2.2-7.6,4.4-11.4,6.6c-1.4,0.8-4.1,0.7-6-0.4c-4.9-2.8-9.8-5.6-14.6-8.4c-1.8-1-2.2-2.6-0.7-3.4c3.8-2.2,7.6-4.4,11.4-6.6
			C641,547.8,643.7,548,645.6,549.1L645.6,549.1z M672,564.3l14.6,8.4c1.9,1.1,2.2,2.6,0.7,3.4c-3.8,2.2-7.6,4.4-11.4,6.6
			c-1.4,0.8-4.1,0.7-6-0.4l-14.6-8.4c-1.8-1.1-2.2-2.6-0.7-3.4c3.8-2.2,7.6-4.4,11.4-6.6C667.5,563,670.1,563.2,672,564.3z
			 M698.4,579.5c4.9,2.8,9.7,5.6,14.6,8.4c1.9,1.1,2.2,2.6,0.7,3.5c-3.8,2.2-7.6,4.4-11.4,6.6c-1.4,0.8-4.1,0.7-6-0.4l-14.6-8.4
			c-1.8-1-2.2-2.6-0.7-3.4c3.8-2.2,7.6-4.4,11.4-6.6C693.9,578.3,696.5,578.5,698.4,579.5L698.4,579.5z M724.8,594.7l14.6,8.4
			c1.9,1.1,2.2,2.6,0.8,3.5c-3.8,2.2-7.6,4.4-11.4,6.6c-1.4,0.8-4.1,0.6-6-0.5l-14.6-8.4c-1.8-1.1-2.2-2.6-0.7-3.4
			c3.8-2.2,7.6-4.4,11.4-6.6C720.3,593.5,723,593.7,724.8,594.7L724.8,594.7z M781.6,643.7c-1.4,0.8-4.2,0.6-6-0.5l-41-23.7
			c-1.8-1-2.1-2.6-0.7-3.4c3.8-2.2,7.6-4.4,11.4-6.6c1.5-0.8,4.1-0.7,5.9,0.4l20.7,11.9c1.3,0.7,2.9,0.8,4.2,0.3
			c5.4-3.1,10.8-6.2,16.1-9.3c1.5-0.8,4.1-0.6,6,0.4l14.6,8.4c1.8,1.1,2.2,2.6,0.8,3.4L781.6,643.7z M804,640.4
			c4.9,2.8,9.8,5.6,14.7,8.5c1.8,1,2.2,2.6,0.7,3.4c-3.8,2.2-7.6,4.4-11.4,6.6c-1.4,0.8-4.1,0.6-6-0.4l-14.6-8.5
			c-1.8-1-2.2-2.6-0.7-3.4c3.8-2.2,7.6-4.4,11.4-6.6C799.5,639.2,802.2,639.4,804,640.4z M830.5,655.7l14.6,8.4
			c1.8,1.1,2.2,2.6,0.7,3.5c-3.8,2.2-7.6,4.4-11.4,6.6c-1.4,0.8-4.1,0.6-6-0.4l-14.6-8.4c-1.8-1.1-2.2-2.7-0.8-3.5
			c3.8-2.2,7.6-4.4,11.4-6.6C825.9,654.4,828.7,654.6,830.5,655.7L830.5,655.7z M460.5,489.9c1.9,1.1,2.2,2.7,0.8,3.5l-11.4,6.6
			c-1.5,0.9-4.1,0.6-6-0.5l-27.8-16c-1.8-1.1-2.1-2.6-0.7-3.4l11.4-6.6c1.4-0.8,4.1-0.7,5.9,0.4L460.5,489.9z M472.3,496.7
			c4.9,2.8,9.8,5.6,14.6,8.4c1.8,1.1,2.1,2.6,0.7,3.5l-11.4,6.6c-1.5,0.8-4.1,0.6-6-0.4l-14.6-8.4c-1.9-1.1-2.2-2.6-0.7-3.4
			l11.4-6.6C467.8,495.5,470.4,495.6,472.3,496.7L472.3,496.7z M498.7,512l14.6,8.4c1.8,1.1,2.2,2.6,0.7,3.4l-11.4,6.6
			c-1.5,0.8-4.1,0.6-6-0.4l-14.6-8.4c-1.8-1.1-2.2-2.6-0.7-3.5l11.4-6.6C494.2,510.7,496.9,510.9,498.7,512z M525.1,527.2l73.3,42.3
			l73.4,42.3c1.9,1.1,2.1,2.6,0.7,3.4l-11.4,6.6c-1.5,0.8-4.1,0.7-6-0.4L581.8,579l-73.3-42.3c-1.8-1-2.2-2.6-0.8-3.5l11.4-6.6
			C520.5,525.9,523.3,526.1,525.1,527.2L525.1,527.2z M683.6,618.6c4.9,2.8,9.7,5.6,14.6,8.4c1.9,1.1,2.2,2.7,0.8,3.5l-11.4,6.5
			c-1.5,0.8-4.1,0.6-6-0.5l-14.6-8.4c-1.8-1-2.2-2.6-0.7-3.4l11.4-6.6C679,617.3,681.8,617.5,683.6,618.6L683.6,618.6z M710,633.8
			l14.6,8.4c1.8,1,2.2,2.7,0.8,3.5l-11.4,6.6c-1.5,0.8-4.2,0.6-6-0.5l-14.6-8.4c-1.8-1.1-2.2-2.6-0.7-3.4l11.4-6.6
			C705.5,632.5,708.2,632.7,710,633.8z M736.4,649l14.6,8.4c1.8,1,2.2,2.7,0.8,3.5l-11.4,6.6c-1.5,0.8-4.2,0.6-6-0.5l-14.6-8.4
			c-1.8-1-2.2-2.6-0.7-3.4l11.4-6.6C731.9,647.7,734.6,647.9,736.4,649z M762.8,664.2l14.7,8.5c1.8,1.1,2.2,2.6,0.7,3.5l-11.4,6.6
			c-1.5,0.8-4.2,0.6-6-0.4l-14.7-8.5c-1.8-1.1-2.2-2.6-0.7-3.5l11.4-6.6C758.3,663,761,663.2,762.8,664.2L762.8,664.2z M789.3,679.5
			l14.6,8.4c1.8,1,2.1,2.6,0.7,3.4l-11.4,6.6c-1.5,0.8-4.1,0.6-6-0.4l-14.6-8.4c-1.8-1.1-2.2-2.6-0.8-3.5l11.4-6.6
			C784.7,678.2,787.5,678.4,789.3,679.5L789.3,679.5z M535.7,414.5c4.9,2.8,9.8,5.6,14.6,8.4c1.8,1.1,2.2,2.6,0.7,3.5
			c-3.8,2.2-7.6,4.4-11.4,6.6c-1.4,0.8-4.1,0.6-6-0.5c-4.9-2.8-9.7-5.6-14.6-8.4c-1.9-1.1-2.2-2.6-0.7-3.4c3.8-2.2,7.6-4.4,11.4-6.6
			C531.2,413.2,533.8,413.3,535.7,414.5L535.7,414.5z M561.2,429.2l14.6,8.5c1.9,1,2.2,2.6,0.7,3.4l-11.4,6.6
			c-1.4,0.8-4.1,0.6-6-0.4l-14.6-8.5c-1.9-1.1-2.1-2.6-0.7-3.4l11.4-6.6C557.1,427.9,559.3,428.1,561.2,429.2L561.2,429.2z
			 M586.7,443.9l14.6,8.4c1.9,1.1,2.2,2.6,0.7,3.4l-11.4,6.6c-1.4,0.8-4.1,0.6-6-0.4l-14.6-8.5c-1.8-1.1-2.1-2.6-0.7-3.5l11.4-6.6
			C582.2,442.6,584.8,442.7,586.7,443.9L586.7,443.9z M612.1,458.5l14.6,8.4c1.9,1.1,2.2,2.6,0.7,3.4l-11.4,6.6
			c-1.4,0.8-4.1,0.6-6-0.4l-14.6-8.4c-1.8-1.1-2.2-2.6-0.7-3.5l11.4-6.6C607.6,457.2,610.3,457.4,612.1,458.5L612.1,458.5z
			 M637.6,473.2l14.6,8.4c1.9,1.1,2.2,2.7,0.8,3.5l-11.4,6.6c-1.4,0.9-4.1,0.6-6-0.5l-14.6-8.4c-1.8-1.1-2.2-2.6-0.7-3.4l11.4-6.6
			C633.1,471.9,635.8,472.1,637.6,473.2L637.6,473.2z M663.1,487.9l14.6,8.4c1.9,1.1,2.3,2.7,0.8,3.5l-11.4,6.6
			c-1.4,0.9-4.1,0.6-6-0.5l-14.6-8.4c-1.8-1.1-2.1-2.6-0.7-3.4l11.4-6.6C659.1,486.7,661.3,486.8,663.1,487.9L663.1,487.9z
			 M688.5,502.6c4.9,2.8,9.8,5.6,14.6,8.4c1.9,1.1,2.3,2.7,0.8,3.5c-3.8,2.2-7.6,4.4-11.4,6.6c-1.4,0.8-4.1,0.6-6-0.5l-14.6-8.4
			c-1.8-1.1-2.1-2.6-0.7-3.4l11.4-6.6C684.6,501.4,686.7,501.5,688.5,502.6L688.5,502.6z M714,517.2l14.7,8.5c1.8,1,2.2,2.6,0.7,3.4
			l-11.4,6.6c-1.4,0.8-4.1,0.6-6-0.4l-14.7-8.5c-1.8-1-2.1-2.6-0.7-3.4l11.4-6.6C710,516,712.2,516.2,714,517.2z M739.5,531.9
			l14.6,8.4c1.8,1,2.2,2.6,0.7,3.4l-11.4,6.6c-1.4,0.8-4.1,0.6-6-0.4l-14.6-8.4c-1.8-1.1-2.2-2.6-0.7-3.5l11.4-6.6
			C735,530.7,737.7,530.9,739.5,531.9L739.5,531.9z M765,546.6l14.6,8.4c1.8,1.1,2.2,2.6,0.7,3.4l-11.4,6.6c-1.4,0.8-4.1,0.6-6-0.4
			c-4.9-2.8-9.8-5.6-14.6-8.4c-1.8-1.1-2.2-2.6-0.7-3.5l11.4-6.6C760.5,545.3,763.2,545.5,765,546.6z M790.5,561.3l14.6,8.4
			c1.8,1.1,2.2,2.6,0.8,3.4l-11.4,6.6c-1.4,0.8-4.2,0.6-6-0.4l-14.6-8.4c-1.8-1.1-2.1-2.6-0.7-3.5l11.4-6.6
			C786,560,788.6,560.2,790.5,561.3L790.5,561.3z M815.9,576l14.6,8.4c1.8,1.1,2.2,2.6,0.8,3.5l-11.4,6.6c-1.4,0.8-4.2,0.6-6-0.4
			l-14.6-8.4c-1.8-1.1-2.2-2.6-0.7-3.4l11.4-6.6C811.4,574.7,814.1,574.9,815.9,576z M841.4,590.7l14.6,8.4c1.8,1.1,2.2,2.6,0.8,3.5
			l-11.4,6.6c-1.4,0.8-4.2,0.6-6-0.4l-14.6-8.4c-1.8-1.1-2.2-2.6-0.7-3.4l11.4-6.6C836.9,589.4,839.6,589.6,841.4,590.7L841.4,590.7
			z M866.9,605.4l14.7,8.5c1.8,1.1,2.2,2.6,0.7,3.4l-11.4,6.6c-1.4,0.8-4.1,0.7-6-0.4l-14.7-8.5c-1.8-1-2.2-2.6-0.7-3.4l11.4-6.6
			C862.8,604.1,865,604.3,866.9,605.4L866.9,605.4z M892.4,620c4.9,2.8,9.7,5.6,14.6,8.4c1.8,1,2.2,2.6,0.7,3.4
			c-3.8,2.2-7.6,4.4-11.4,6.6c-1.4,0.8-4.1,0.7-6-0.4c-4.9-2.8-9.8-5.6-14.6-8.4c-1.8-1.1-2.2-2.7-0.8-3.5c3.8-2.2,7.6-4.4,11.4-6.6
			C887.8,618.8,890.5,619,892.4,620z M494.5,438.2c4.9,2.8,9.8,5.6,14.6,8.4c1.8,1.1,2.2,2.6,0.7,3.5c-3.8,2.2-7.6,4.4-11.4,6.6
			c-1.5,0.8-4.2,0.6-6-0.5c-4.9-2.8-9.7-5.6-14.6-8.4c-1.9-1.1-2.1-2.6-0.7-3.4c3.8-2.2,7.6-4.4,11.4-6.6
			C490,437,492.6,437.1,494.5,438.2z M520.9,453.4c4.9,2.8,9.7,5.6,14.6,8.5c1.9,1.1,2.2,2.6,0.7,3.4c-3.8,2.2-7.6,4.4-11.4,6.6
			c-1.5,0.9-4.2,0.7-6-0.4c-4.9-2.8-9.7-5.7-14.6-8.5c-1.9-1.1-2.1-2.6-0.7-3.4c3.8-2.2,7.6-4.4,11.4-6.6
			C516.4,452.2,519,452.3,520.9,453.4z M547.3,468.7c4.9,2.8,9.7,5.6,14.6,8.4c1.9,1.1,2.2,2.6,0.7,3.4c-3.8,2.2-7.6,4.4-11.4,6.6
			c-1.5,0.8-4.1,0.6-6-0.4c-4.9-2.8-9.8-5.6-14.6-8.4c-1.8-1.1-2.2-2.6-0.7-3.5c3.8-2.2,7.6-4.4,11.4-6.6
			C542.8,467.4,545.5,467.6,547.3,468.7z M573.7,483.9c4.9,2.8,9.7,5.6,14.6,8.4c1.9,1.1,2.2,2.6,0.7,3.5c-3.8,2.2-7.6,4.4-11.4,6.6
			c-1.5,0.9-4.2,0.6-6-0.4c-4.9-2.8-9.8-5.6-14.6-8.4c-1.8-1-2.2-2.6-0.7-3.4l11.4-6.6C569.2,482.6,571.9,482.8,573.7,483.9
			L573.7,483.9z M600.1,499.1c4.9,2.8,9.7,5.6,14.6,8.4c1.9,1.1,2.2,2.6,0.8,3.5c-3.8,2.2-7.6,4.4-11.4,6.6
			c-1.5,0.8-4.2,0.6-6.1-0.5c-4.9-2.8-9.8-5.6-14.6-8.4c-1.8-1.1-2.2-2.6-0.7-3.5c3.8-2.2,7.6-4.4,11.4-6.6
			C595.6,497.9,598.3,498.1,600.1,499.1L600.1,499.1z M626.5,514.3c4.9,2.8,9.7,5.6,14.6,8.4c1.9,1.1,2.2,2.6,0.8,3.5
			c-3.8,2.2-7.6,4.4-11.4,6.6c-1.5,0.8-4.2,0.6-6.1-0.5c-4.9-2.8-9.7-5.6-14.6-8.4c-1.8-1-2.1-2.6-0.7-3.4c3.8-2.2,7.6-4.4,11.4-6.6
			C622.1,513.1,624.7,513.3,626.5,514.3L626.5,514.3z M653,529.6c4.9,2.8,9.7,5.6,14.6,8.4c1.9,1.1,2.2,2.6,0.8,3.5
			c-3.8,2.2-7.6,4.4-11.4,6.6c-1.5,0.8-4.2,0.6-6.1-0.5c-4.9-2.8-9.8-5.6-14.6-8.4c-1.8-1.1-2.1-2.6-0.7-3.4
			c3.8-2.2,7.6-4.4,11.4-6.6C648.5,528.3,651.1,528.5,653,529.6z M679.4,544.8l14.6,8.5c1.8,1,2.2,2.6,0.7,3.4
			c-3.8,2.2-7.6,4.4-11.4,6.6c-1.5,0.8-4.2,0.6-6-0.4l-14.7-8.5c-1.8-1-2.1-2.6-0.7-3.4c3.8-2.2,7.6-4.4,11.4-6.6
			C674.9,543.5,677.5,543.7,679.4,544.8L679.4,544.8z M705.8,560l14.6,8.4c1.8,1.1,2.2,2.6,0.7,3.5c-3.8,2.2-7.6,4.4-11.4,6.6
			c-1.5,0.8-4.2,0.6-6-0.4l-14.6-8.4c-1.8-1.1-2.2-2.6-0.7-3.4c3.8-2.2,7.6-4.4,11.4-6.6C701.3,558.8,704,559,705.8,560z
			 M732.2,575.2l14.6,8.4c1.8,1,2.2,2.6,0.8,3.4c-3.8,2.2-7.6,4.4-11.4,6.6c-1.4,0.8-4.2,0.6-6-0.5l-14.6-8.4
			c-1.8-1-2.1-2.6-0.7-3.4c3.8-2.2,7.6-4.4,11.4-6.6C727.7,574,730.4,574.2,732.2,575.2L732.2,575.2z M824.7,628.5l14.7,8.5
			c1.8,1.1,2.2,2.6,0.7,3.4c-3.8,2.2-7.6,4.4-11.4,6.6c-1.4,0.8-4.1,0.6-6-0.4l-14.7-8.5c-1.8-1-2.1-2.6-0.7-3.4l11.4-6.6
			C820.2,627.3,822.8,627.5,824.7,628.5L824.7,628.5z M851.1,643.8c4.9,2.8,9.8,5.6,14.6,8.4c1.8,1.1,2.2,2.6,0.7,3.4l-11.4,6.6
			c-1.4,0.8-4.1,0.6-6-0.4c-4.9-2.8-9.8-5.6-14.6-8.4c-1.8-1.1-2.2-2.6-0.7-3.5c3.8-2.2,7.6-4.4,11.4-6.6
			C846.6,642.5,849.3,642.7,851.1,643.8L851.1,643.8z M494.3,485.6c1.8,1.1,2.1,2.6,0.7,3.4l-11.4,6.6c-1.4,0.8-4.1,0.6-6-0.4
			l-41.1-23.7c-1.8-1.1-2.1-2.6-0.7-3.4l11.4-6.6c1.4-0.8,4.1-0.7,5.9,0.4L494.3,485.6z M506.1,492.4l14.6,8.4
			c1.8,1,2.2,2.6,0.7,3.4c-3.8,2.2-7.6,4.4-11.4,6.6c-1.4,0.8-4.1,0.6-6-0.4l-14.6-8.4c-1.8-1-2.1-2.6-0.7-3.4l11.5-6.6
			C501.5,491.2,504.3,491.4,506.1,492.4L506.1,492.4z M532.5,507.7l14.6,8.4c1.8,1.1,2.1,2.6,0.7,3.4l-11.4,6.6
			c-1.4,0.8-4.1,0.6-6-0.4l-14.6-8.4c-1.8-1.1-2.2-2.6-0.7-3.5c3.8-2.2,7.6-4.4,11.4-6.6C528,506.4,530.7,506.6,532.5,507.7z
			 M558.9,522.9l14.6,8.4c1.8,1,2.2,2.6,0.7,3.4c-3.8,2.2-7.6,4.4-11.4,6.6c-1.4,0.8-4.1,0.6-6-0.4l-14.6-8.4
			c-1.8-1-2.2-2.7-0.8-3.5c3.8-2.2,7.6-4.4,11.4-6.6C554.3,521.6,557.1,521.8,558.9,522.9z M585.3,538.1l14.7,8.4
			c1.8,1.1,2.2,2.6,0.7,3.4l-11.4,6.6c-1.4,0.8-4.1,0.6-6-0.4l-14.6-8.4c-1.8-1.1-2.1-2.6-0.7-3.5c3.8-2.2,7.6-4.4,11.4-6.6
			C580.8,536.9,583.5,537.1,585.3,538.1z M611.8,553.3l14.6,8.4c1.8,1,2.2,2.6,0.7,3.4c-3.8,2.2-7.6,4.4-11.4,6.6
			c-1.4,0.8-4.1,0.6-6-0.4l-14.6-8.4c-1.8-1.1-2.2-2.6-0.7-3.5c3.8-2.2,7.6-4.4,11.4-6.6C607.2,552.1,609.9,552.3,611.8,553.3
			L611.8,553.3z M638.2,568.6l14.6,8.4c1.9,1.1,2.2,2.6,0.7,3.4l-11.4,6.6c-1.4,0.8-4.1,0.7-6-0.4l-14.6-8.4
			c-1.8-1.1-2.2-2.6-0.7-3.4c3.8-2.2,7.6-4.4,11.4-6.6C633.6,567.3,636.3,567.5,638.2,568.6L638.2,568.6z M664.6,583.8l14.6,8.4
			c1.9,1.1,2.2,2.6,0.7,3.5c-3.8,2.2-7.6,4.4-11.4,6.6c-1.4,0.8-4.1,0.7-6-0.4l-14.6-8.4c-1.8-1-2.2-2.6-0.7-3.4l11.4-6.6
			C660,582.5,662.8,582.7,664.6,583.8L664.6,583.8z M719.1,615.2c1.8,1,2.2,2.6,0.7,3.4c-3.8,2.2-7.6,4.4-11.4,6.6
			c-1.4,0.8-4.1,0.6-6-0.4l-28.1-16.2c-1.8-1.1-2.2-2.6-0.7-3.4c3.8-2.2,7.6-4.4,11.4-6.6c1.4-0.8,4.1-0.6,6,0.4L719.1,615.2z
			 M757,637.1c4.9,2.8,9.7,5.6,14.6,8.4c1.8,1.1,2.2,2.7,0.8,3.5c-3.8,2.2-7.6,4.4-11.4,6.6c-1.4,0.8-4.2,0.6-6-0.5l-14.6-8.4
			c-1.8-1.1-2.2-2.6-0.7-3.4l11.4-6.6C752.5,635.8,755.2,636,757,637.1z M809.9,667.6l14.7,8.4c1.8,1.1,2.2,2.6,0.7,3.5
			c-3.8,2.2-7.6,4.4-11.4,6.6c-1.4,0.8-4.1,0.6-6-0.4l-14.6-8.4c-1.8-1-2.2-2.7-0.8-3.5c3.8-2.2,7.6-4.4,11.4-6.6
			C805.3,666.3,808.1,666.5,809.9,667.6L809.9,667.6z M786.5,606.6c1.8,1.1,2.2,2.6,0.8,3.5c-3.8,2.2-7.6,4.4-11.4,6.6
			c-1.4,0.8-4.2,0.6-6-0.5L742,600.1c-1.8-1.1-2.2-2.6-0.7-3.4c3.8-2.2,7.6-4.4,11.4-6.6c1.5-0.8,4.1-0.6,6,0.5L786.5,606.6z
			 M767.1,662.4l10.3,5.9l0.5,0.3c4.8,2.7,6.4,3.4,9.5,2.1c3.5-2,6.9-4,10.4-6l0.7-0.4c0.5-0.2,0.8-0.7,0.9-1.2
			c-0.1-1-0.7-1.9-1.6-2.3l-14.6-8.4c-1.8-1-4.6-1.2-6-0.4l-11.4,6.6c-0.5,0.2-0.8,0.7-0.9,1.2v0.3c0.2,0.9,0.8,1.6,1.6,2
			C766.7,662.1,766.9,662.2,767.1,662.4L767.1,662.4z M714.9,631.8l10.3,5.9l0.5,0.3c4.8,2.7,6.4,3.4,9.5,2.1c3.5-2,6.9-4,10.4-6
			l0.7-0.4c0.5-0.2,0.8-0.7,0.9-1.2c0.1-0.8-0.5-1.6-1.7-2.3l-14.6-8.4c-1.8-1-4.6-1.2-6-0.4c-3.8,2.2-7.6,4.4-11.4,6.6
			c-0.5,0.2-0.8,0.7-0.9,1.2v0.3c0.2,0.9,0.8,1.6,1.6,2L714.9,631.8z M515.1,426.3c4.9,2.8,9.8,5.6,14.6,8.4
			c1.8,1.1,2.2,2.6,0.7,3.5l-11.4,6.6c-1.5,0.8-4.1,0.6-6-0.5c-4.9-2.8-9.7-5.6-14.6-8.4c-1.9-1.1-2.2-2.6-0.7-3.4l11.4-6.6
			C510.6,425.1,513.2,425.2,515.1,426.3z"/>
		<path class="st27" d="M816.8,282l46.1,26.6c15.3,8.9,30.7,17.7,46.1,26.6c3.7,2.5,6,6.6,6.2,11v181.1c0,4.1-2.8,5.8-6.2,3.8
			l-46.1-26.6l-46.1-26.6c-3.7-2.5-6-6.6-6.2-11V285.8C810.6,281.7,813.4,280,816.8,282"/>
		<path class="st28" d="M845.5,475.5c0.8-1.2,2.5-0.7,3.9,1s1.8,4,1,5.2s-2.5,0.7-3.9-1S844.6,476.7,845.5,475.5"/>
		<path class="st28" d="M856.2,481.7c0.8-1.2,2.5-0.7,3.9,1s1.8,4,1,5.2s-2.5,0.7-3.9-1S855.4,482.9,856.2,481.7"/>
		<path class="st29" d="M867,487.9c0.8-1.2,2.5-0.7,3.9,1s1.8,4,1,5.2s-2.5,0.7-3.9-1S866.2,489.1,867,487.9"/>
		<path class="st30" d="M833,422c8.6,4.9,17.1,9.9,25.7,14.8c8.6,4.9,17.1,9.9,25.7,14.8c4.8,2.8,8.8,9.7,8.8,15.5l0,0
			c0,5.7-4,8.1-8.8,5.3l-25.7-14.8L833,442.8c-4.8-2.8-8.8-9.8-8.8-15.5l0,0C824.2,421.6,828.2,419.2,833,422"/>
		<path class="st10" d="M875,459.8l-1-0.5c-0.3-1.5-0.6-2.9-0.9-4.4c0-0.2-0.1-0.5-0.2-0.8s-0.1-0.6-0.1-0.7c0,0.2-0.1,0.4-0.1,0.7
			s-0.1,0.4-0.1,0.6c-0.3,1.1-0.6,2.2-0.9,3.3c-0.3-0.2-0.7-0.4-1-0.6c-0.2-1.2-0.5-2.4-0.7-3.6s-0.5-2.4-0.7-3.6
			c0.3,0.2,0.6,0.3,0.9,0.5c0.2,1.4,0.5,2.8,0.8,4.2c0.1,0.7,0.2,1.3,0.3,1.7c0-0.2,0.1-0.5,0.1-0.8l0.2-0.7
			c0.3-1.1,0.6-2.1,0.9-3.2c0.3,0.2,0.6,0.3,0.9,0.5c0.3,1.4,0.6,2.8,0.9,4.3c0.1,0.4,0.2,1,0.3,1.7c0.1-0.5,0.1-1,0.3-1.4
			c0.3-1.1,0.5-2.2,0.8-3.3c0.3,0.2,0.6,0.4,0.9,0.5C875.9,456,875.3,457.9,875,459.8 M864.6,450.6c0,0.7,0.1,1.4,0.4,2
			c0.2,0.6,0.7,1,1.2,1.3s0.9,0.3,1.2,0.1c0.3-0.4,0.5-1,0.4-1.5c0-0.7-0.1-1.4-0.4-2c-0.3-0.5-0.7-1-1.2-1.3s-1-0.3-1.2-0.1
			C864.7,449.5,864.6,450.1,864.6,450.6L864.6,450.6z M868.8,453c0.1,0.7-0.1,1.5-0.7,2c-0.4,0.3-1.1,0.3-1.9-0.2
			c-0.8-0.5-1.5-1.2-1.9-2c-0.4-0.9-0.7-1.8-0.7-2.8c-0.1-0.7,0.1-1.5,0.7-2c0.5-0.3,1.1-0.2,1.9,0.2c0.8,0.5,1.4,1.1,1.8,2
			C868.6,451,868.8,452,868.8,453L868.8,453z M862.5,452.6l-1.1-0.6c-0.9-2.2-1.8-4.4-2.7-6.6l0,0c0,0.1,0,0.2,0,0.3
			c0,0.6,0.1,1.1,0.1,1.5v3.3c-0.3-0.1-0.5-0.3-0.8-0.5v-6.4l1.1,0.6c0.9,2.2,1.8,4.4,2.7,6.6c1.3,3.3,0,0,0,0s0-0.3,0-0.8
			s0-0.8,0-1v-3.4c0.3,0.1,0.5,0.3,0.8,0.4L862.5,452.6z M853.1,443.7c0.4-0.7,0.8-1.5,1.3-2.2l1,0.6c-0.6,1-1.2,1.9-1.8,2.9v2.5
			c-0.3-0.2-0.6-0.4-0.9-0.5v-2.5c-0.6-1.7-1.2-3.3-1.8-5l1,0.5C852.3,441.3,852.7,442.5,853.1,443.7L853.1,443.7z M850.2,439.1v4.1
			c0,0.4-0.1,0.8-0.3,1.1c-0.2,0.2-0.4,0.4-0.7,0.4c-0.4,0-0.8-0.1-1.2-0.4c-0.6-0.4-1.2-0.9-1.6-1.5c-0.4-0.6-0.6-1.3-0.6-2.1v-4.1
			c0.3,0.2,0.6,0.3,0.9,0.5v4c0,0.5,0.1,0.9,0.3,1.4c0.2,0.4,0.6,0.7,1,0.9c0.8,0.5,1.2,0.2,1.2-0.8v-4
			C849.6,438.8,849.9,439,850.2,439.1L850.2,439.1z M841.8,437.8v2l0.9,0.5c0.2,0.2,0.5,0.3,0.8,0.2c0.2-0.1,0.3-0.3,0.3-0.6
			c0-0.3-0.1-0.6-0.3-0.9s-0.5-0.6-0.9-0.8C842.5,438.1,842.2,438,841.8,437.8L841.8,437.8z M841.8,436.9c0.3,0.2,0.6,0.3,0.8,0.5
			s0.6,0.3,0.8,0.3s0.3-0.2,0.3-0.5s-0.1-0.6-0.3-0.8c-0.2-0.3-0.5-0.6-0.9-0.7c-0.2-0.1-0.5-0.3-0.8-0.4L841.8,436.9z M841,433.8
			c0.5,0.3,1.1,0.6,1.6,0.9c0.6,0.3,1.1,0.8,1.6,1.3c0.3,0.4,0.5,1,0.5,1.5c0,0.3-0.1,0.6-0.2,0.8c-0.2,0.2-0.5,0.2-0.7,0.1l0,0
			c0.4,0.3,0.6,0.6,0.8,1s0.3,0.8,0.3,1.2c0,0.6-0.2,0.9-0.5,1c-0.5,0.1-1,0-1.4-0.3c-0.7-0.4-1.3-0.8-2-1.1L841,433.8z"/>
		<path class="st31" d="M832.2,334.1c1.1-0.7,5.3-3.2,6.2-3.4c2-0.4,4.5,1.5,6.5,2.6l37.5,21.6c3,1.7,5.1,4.4,6.1,7.7
			c0.7,2.4,0.5,6.2,0.5,8.9v40.9c0,1.7-0.1,3.5-1.7,4.5l-5.4,3.1c2.2-1.5,1.7-4,1.7-6.8l0.1-43.9c-0.2-3.4-1.5-6.6-3.7-9.1
			c-2.3-1.8-4.8-3.5-7.4-4.8L837,334.9C835.4,333.9,834,333.2,832.2,334.1"/>
		<path class="st30" d="M836.3,334.5l20.7,11.9l20.7,11.9c3.5,2.3,5.7,6.1,5.9,10.2v47.6c0,3.7-2.7,5.3-5.9,3.4L857,407.7
			l-20.7-11.9c-3.5-2.3-5.7-6.1-5.9-10.2V338C830.4,334.2,833.1,332.6,836.3,334.5"/>
		<path class="st27" d="M867.1,367c3.1,5.2,6.2,10.5,9.3,15.7c-0.7,2.7-2.6,4.8-5.5,4.1c-3.6-2.9-6.4-10.6-6.4-14.5
			S866,368,867.1,367L867.1,367"/>
		<path class="st27" d="M847,355.4l-9.3,4.9c0.8,4,2.7,7.7,5.5,10.5c3.6,1.3,6.4-3.2,6.4-7.1S848,357.6,847,355.4L847,355.4"/>
		<path class="st32" d="M871.1,387c-0.6,2.4-1.1,4.7-1.7,7.1s-1.1,4.7-1.7,7.1l-8-4.6c-0.9-3-1.8-5.9-2.7-8.9
			c-0.9,1.9-1.8,3.9-2.7,5.8l-8-4.6c-0.6-3-1.1-6-1.7-9s-1.1-6-1.7-9c3.8,1.5,5.6-3.3,5.6-7.6c0.1-3.1-0.6-6.3-2.2-9l5.3,1.8
			c0,3.8,2,10,5.3,12c3.3,1.8,5.3-2.1,5.4-5.8l5.3,4.3c-1.3,1.2-2.2,2.1-2.2,6.5S867.3,384.2,871.1,387"/>
		<path class="st33" d="M855.2,376.9c0.6-0.9,2-0.5,3.1,0.8s1.4,3.1,0.8,4s-2,0.5-3.1-0.8S854.6,377.7,855.2,376.9"/>
		<path class="st27" d="M855.1,376.5c0.6-0.9,2-0.5,3.1,0.8s1.5,3.1,0.8,4s-2,0.5-3.1-0.8S854.5,377.3,855.1,376.5"/>
		<path class="st27" d="M704.6,217.3l46.1,26.6c15.3,8.9,30.7,17.7,46.1,26.6c3.7,2.5,6,6.6,6.2,11v181.1c0,4.1-2.8,5.8-6.2,3.8
			l-46.1-26.6c-15.3-8.9-30.7-17.7-46.1-26.6c-3.7-2.5-6-6.5-6.2-11V221.1C698.4,217,701.2,215.3,704.6,217.3"/>
		<path class="st28" d="M733.3,410.8c0.8-1.2,2.5-0.7,3.9,1s1.8,4,1,5.2s-2.5,0.7-3.9-1S732.5,412,733.3,410.8"/>
		<path class="st29" d="M744,417c0.8-1.2,2.5-0.7,3.9,1s1.8,4,1,5.2s-2.5,0.7-3.9-1S743.2,418.2,744,417"/>
		<path class="st28" d="M754.8,423.2c0.8-1.2,2.5-0.7,3.9,1s1.8,4,1,5.2s-2.5,0.7-3.9-1S754,424.4,754.8,423.2"/>
		<path class="st34" d="M720.8,357.2l25.7,14.8l25.7,14.8c4.8,2.8,8.8,9.8,8.8,15.5l0,0c0,5.7-4,8.1-8.8,5.3
			c-8.6-4.9-17.2-9.9-25.7-14.8L720.8,378c-4.8-2.8-8.8-9.7-8.8-15.5l0,0C712,356.9,716,354.5,720.8,357.2"/>
		<path class="st30" d="M720.8,357.2l25.7,14.8l25.7,14.8c4.8,2.8,8.8,9.8,8.8,15.5l0,0c0,5.7-4,8.1-8.8,5.3
			c-8.6-4.9-17.2-9.9-25.7-14.8L720.8,378c-4.8-2.8-8.8-9.7-8.8-15.5l0,0C712,356.9,716,354.5,720.8,357.2"/>
		<path class="st10" d="M762.8,395.1l-1-0.5c-0.3-1.5-0.6-2.9-0.9-4.4c0-0.2-0.1-0.5-0.2-0.8s-0.1-0.6-0.1-0.7
			c0,0.2-0.1,0.4-0.1,0.7s-0.1,0.5-0.1,0.6c-0.3,1.1-0.6,2.2-0.9,3.3c-0.3-0.2-0.6-0.4-1-0.6c-0.2-1.2-0.5-2.4-0.7-3.6
			s-0.5-2.4-0.7-3.6c0.3,0.1,0.6,0.3,0.9,0.5c0.2,1.4,0.5,2.8,0.8,4.2c0.1,0.7,0.2,1.3,0.3,1.7c0-0.3,0.1-0.5,0.1-0.8
			s0.1-0.5,0.1-0.7c0.3-1.1,0.6-2.1,0.9-3.2c0.3,0.1,0.6,0.3,0.9,0.5c0.3,1.5,0.6,2.9,0.9,4.3c0.1,0.4,0.2,1,0.3,1.7
			c0.1-0.5,0.1-1,0.3-1.4c0.3-1.1,0.5-2.2,0.8-3.3c0.3,0.2,0.6,0.4,0.9,0.5C763.6,391.3,763.2,393.2,762.8,395.1 M752.4,385.9
			c0,0.7,0.1,1.4,0.4,2c0.2,0.6,0.7,1,1.2,1.3s0.9,0.3,1.2,0.1c0.3-0.5,0.5-1,0.4-1.6c0-0.7-0.1-1.4-0.4-2c-0.3-0.5-0.7-1-1.2-1.3
			s-0.9-0.3-1.2-0.1C752.5,384.9,752.4,385.4,752.4,385.9L752.4,385.9z M756.5,388.3c0.1,0.7-0.1,1.5-0.7,2
			c-0.5,0.3-1.1,0.3-1.9-0.2c-0.8-0.5-1.5-1.2-1.9-2c-0.4-0.9-0.7-1.8-0.7-2.8c-0.1-0.7,0.1-1.5,0.7-2c0.5-0.3,1.1-0.2,1.9,0.2
			c0.8,0.5,1.5,1.2,2,2C756.4,386.4,756.6,387.4,756.5,388.3L756.5,388.3z M750.3,387.9l-1.1-0.6c-0.9-2.2-1.8-4.4-2.7-6.6l0,0
			c0,0.1,0,0.2,0,0.3c0,0.6,0,1.1,0,1.5v3.3l-0.8-0.5v-6.4l1.1,0.6c0.9,2.2,1.8,4.4,2.7,6.6l0,0c0,0,0-0.3,0-0.8s0-0.8,0-1V381
			c0.3,0.1,0.5,0.3,0.8,0.4V387.9z M741,379c0.4-0.7,0.8-1.5,1.3-2.2c0.3,0.2,0.6,0.4,1,0.6c-0.6,1-1.2,1.9-1.8,2.9v2.5
			c-0.3-0.2-0.6-0.4-0.9-0.5v-2.5c-0.6-1.6-1.2-3.3-1.8-5l1,0.5C740.1,376.6,740.5,377.8,741,379z M738.1,374.4v4.1
			c0,0.4-0.1,0.8-0.3,1.1c-0.2,0.2-0.4,0.4-0.7,0.4c-0.4,0-0.8-0.2-1.2-0.4c-0.6-0.4-1.2-0.9-1.6-1.5c-0.4-0.6-0.6-1.3-0.6-2.1v-4
			c0.3,0.1,0.6,0.3,0.9,0.5v4c0,0.5,0.1,0.9,0.3,1.3s0.6,0.7,1,0.9c0.8,0.5,1.3,0.2,1.3-0.8v-4L738.1,374.4z M729.7,373.1v2
			c0.3,0.2,0.6,0.4,0.9,0.5s0.7,0.3,0.8,0.2s0.3-0.3,0.3-0.6c0-0.3-0.1-0.6-0.3-0.9s-0.5-0.6-0.9-0.8
			C730.3,373.4,730,373.3,729.7,373.1L729.7,373.1z M729.7,372.2c0.3,0.2,0.6,0.3,0.8,0.5s0.5,0.3,0.8,0.3c0.2,0,0.3-0.2,0.3-0.5
			s-0.1-0.6-0.3-0.8c-0.2-0.3-0.5-0.6-0.9-0.7l-0.8-0.4L729.7,372.2z M728.8,369.1l1.6,0.9c0.6,0.3,1.2,0.8,1.6,1.3
			c0.3,0.4,0.5,1,0.5,1.5c0,0.3-0.1,0.6-0.2,0.8c-0.2,0.2-0.5,0.2-0.7,0.1l0,0c0.3,0.3,0.6,0.6,0.8,1s0.3,0.8,0.3,1.2
			c0,0.6-0.2,0.9-0.5,1c-0.5,0.1-1,0-1.4-0.3c-0.7-0.4-1.3-0.8-2-1.1L728.8,369.1z"/>
		<path class="st31" d="M720,269.4c1.1-0.6,5.3-3.2,6.2-3.4c2-0.4,4.5,1.5,6.5,2.6l37.5,21.6c3,1.7,5.1,4.4,6.1,7.7
			c0.7,2.4,0.5,6.2,0.5,8.9v40.9c0,1.7-0.1,3.5-1.7,4.5l-5.4,3.1c2.2-1.5,1.7-4,1.7-6.8l0.1-43.9c-0.2-3.4-1.5-6.5-3.7-9.1
			c-2.3-1.8-4.8-3.5-7.4-4.9l-35.5-20.5C723.2,269.2,721.8,268.5,720,269.4"/>
		<path class="st30" d="M724.2,269.8l20.7,11.9l20.7,11.9c3.5,2.3,5.7,6.1,5.9,10.2v47.6c0,3.7-2.7,5.3-5.9,3.4L744.8,343
			l-20.7-11.9c-3.5-2.3-5.7-6.1-5.9-10.2v-47.7C718.3,269.5,720.9,267.9,724.2,269.8"/>
		<path class="st27" d="M744.7,298.5c-1.5-2.9-3-5.9-4.6-8.8c-1.5-0.3-2.9-0.6-4.4-0.9c1.2,2,1.9,4.3,2,6.6c0.1,1.1-0.2,2.3-0.8,3.2
			l2,8l-3.9,9c-1.3,3-2.6,6-3.9,9l13.6,7.9l13.6,7.9l-3.9-13.5c-1.3-4.5-2.6-9-3.9-13.5c0.7-1.9,1.3-3.8,2-5.7
			c-0.6-1.3-0.8-2.7-0.8-4.1c0-1.7,0.8-3.6,2-4.3l-4.6-4.2C747.7,296.1,746.3,297.3,744.7,298.5"/>
		<path class="st30" d="M738.3,308.2l13.2,7.6c-0.2-0.9-0.5-1.7-0.7-2.5l0.3-0.9l-12.3-7.1l0.3,1.3
			C738.8,307.1,738.5,307.7,738.3,308.2"/>
		<path class="st27" d="M592.5,152.6c15.3,8.9,30.7,17.7,46.1,26.6s30.8,17.7,46.1,26.6c3.7,2.5,6,6.6,6.2,11v181.1
			c0,4.1-2.8,5.8-6.2,3.8l-46.1-26.6l-46.1-26.6c-3.7-2.5-6-6.5-6.2-11V156.4C586.2,152.3,589,150.6,592.5,152.6"/>
		<path class="st29" d="M621.1,346.1c0.8-1.2,2.5-0.7,3.9,1s1.8,4,1,5.2s-2.5,0.7-3.9-1S620.3,347.3,621.1,346.1"/>
		<path class="st28" d="M631.9,352.3c0.8-1.2,2.5-0.7,3.9,1s1.8,4,1,5.2s-2.5,0.7-3.9-1S631,353.5,631.9,352.3"/>
		<path class="st28" d="M642.6,358.5c0.8-1.2,2.5-0.7,3.9,1s1.8,4,1,5.2s-2.5,0.7-3.9-1S641.8,359.7,642.6,358.5"/>
		<path class="st34" d="M608.6,292.6l25.7,14.8c8.6,4.9,17.1,9.9,25.7,14.8c4.8,2.8,8.8,9.8,8.8,15.5l0,0c0,5.7-4,8.1-8.8,5.3
			l-25.7-14.8l-25.7-14.8c-4.8-2.8-8.8-9.7-8.8-15.5l0,0C599.8,292.2,603.8,289.8,608.6,292.6"/>
		<path class="st30" d="M608.6,292.6l25.7,14.8c8.6,4.9,17.1,9.9,25.7,14.8c4.8,2.8,8.8,9.8,8.8,15.5l0,0c0,5.7-4,8.1-8.8,5.3
			l-25.7-14.8l-25.7-14.8c-4.8-2.8-8.8-9.7-8.8-15.5l0,0C599.8,292.2,603.8,289.8,608.6,292.6"/>
		<path class="st10" d="M650.6,330.4l-1-0.5c-0.3-1.5-0.6-2.9-0.9-4.4c0-0.2-0.1-0.5-0.2-0.8s-0.1-0.6-0.1-0.7
			c0,0.2-0.1,0.4-0.1,0.7s-0.1,0.5-0.1,0.6c-0.3,1.1-0.6,2.2-0.9,3.3c-0.3-0.2-0.6-0.4-1-0.6c-0.2-1.2-0.5-2.4-0.7-3.6
			s-0.5-2.4-0.7-3.6c0.3,0.1,0.6,0.3,0.9,0.5c0.2,1.4,0.5,2.8,0.8,4.2c0.1,0.7,0.2,1.3,0.3,1.7c0-0.2,0.1-0.5,0.1-0.8
			s0.1-0.5,0.2-0.7c0.3-1.1,0.6-2.1,0.9-3.2c0.3,0.1,0.6,0.3,0.9,0.5c0.3,1.5,0.6,2.9,0.9,4.3c0.1,0.4,0.2,1,0.3,1.7
			c0.1-0.5,0.1-1,0.3-1.4c0.3-1.1,0.5-2.2,0.8-3.3c0.3,0.2,0.6,0.4,0.9,0.5C651.5,326.6,651,328.5,650.6,330.4 M640.3,321.2
			c0,0.7,0.1,1.4,0.4,2c0.2,0.6,0.7,1,1.2,1.3s0.9,0.3,1.2,0.1c0.3-0.5,0.5-1,0.4-1.6c0-0.7-0.1-1.4-0.4-2c-0.3-0.5-0.7-1-1.2-1.3
			s-0.9-0.3-1.2-0.1C640.4,320.2,640.2,320.7,640.3,321.2L640.3,321.2z M644.4,323.6c0.1,0.7-0.1,1.5-0.7,2
			c-0.5,0.3-1.1,0.3-1.9-0.2c-0.8-0.5-1.5-1.2-1.9-2c-0.4-0.9-0.7-1.8-0.7-2.8c-0.1-0.7,0.1-1.5,0.7-2c0.5-0.3,1.1-0.2,1.9,0.2
			c0.8,0.5,1.4,1.1,1.9,1.9C644.2,321.6,644.5,322.6,644.4,323.6L644.4,323.6z M638.2,323.2l-1.1-0.6c-0.9-2.2-1.8-4.4-2.7-6.6l0,0
			c0,0.1,0,0.2,0,0.3c0,0.6,0,1.1,0,1.5v3.3l-0.8-0.5v-6.4l1.1,0.6c0.9,2.2,1.8,4.4,2.7,6.6l0,0c0,0,0-0.3,0-0.8s0-0.8,0-1v-3.4
			c0.3,0.1,0.5,0.3,0.8,0.4V323.2z M628.7,314.3c0.4-0.7,0.8-1.5,1.3-2.2c0.3,0.2,0.6,0.4,1,0.6c-0.6,1-1.2,1.9-1.8,2.9v2.5
			c-0.3-0.2-0.6-0.4-0.9-0.5v-2.5c-0.6-1.7-1.2-3.3-1.8-5l1,0.5C627.9,311.9,628.4,313.1,628.7,314.3L628.7,314.3z M625.8,309.7v4.1
			c0,0.4-0.1,0.8-0.3,1.1c-0.2,0.2-0.4,0.4-0.7,0.4c-0.4,0-0.8-0.2-1.2-0.4c-0.6-0.4-1.2-0.9-1.6-1.5c-0.4-0.6-0.6-1.3-0.6-2.1v-4.1
			c0.3,0.1,0.6,0.3,0.9,0.5v4c0,0.5,0.1,0.9,0.3,1.3s0.6,0.7,1,0.9c0.8,0.5,1.3,0.2,1.3-0.8v-4L625.8,309.7z M617.5,308.4v2l0.9,0.5
			c0.4,0.2,0.7,0.3,0.8,0.2s0.3-0.3,0.3-0.6c0-0.3-0.1-0.6-0.3-0.9s-0.5-0.6-0.9-0.8C618.1,308.8,617.8,308.6,617.5,308.4
			L617.5,308.4z M617.5,307.5c0.3,0.2,0.6,0.3,0.8,0.5s0.5,0.3,0.8,0.3c0.2,0,0.3-0.2,0.3-0.5s-0.1-0.6-0.3-0.8
			c-0.2-0.3-0.5-0.5-0.9-0.7l-0.8-0.4L617.5,307.5z M616.6,304.4l1.6,0.9c0.6,0.3,1.2,0.8,1.6,1.3c0.3,0.4,0.5,1,0.5,1.5
			c0,0.3-0.1,0.6-0.2,0.8c-0.2,0.2-0.5,0.2-0.7,0.1l0,0c0.3,0.3,0.6,0.6,0.8,1s0.3,0.8,0.3,1.2c0,0.6-0.2,0.9-0.5,1
			c-0.5,0.1-1,0-1.4-0.3c-0.7-0.4-1.3-0.8-2-1.1L616.6,304.4z"/>
		<path class="st31" d="M607.8,204.7c1.1-0.6,5.3-3.2,6.2-3.4c2-0.4,4.5,1.4,6.5,2.6l37.5,21.6c3,1.7,5.1,4.4,6.1,7.7
			c0.7,2.4,0.5,6.2,0.5,8.9v41c0,1.7-0.1,3.5-1.7,4.5l-5.4,3.1c2.2-1.5,1.7-4,1.7-6.8l0.1-43.9c-0.2-3.4-1.5-6.6-3.7-9.1
			c-2.3-1.8-4.8-3.5-7.4-4.9l-35.5-20.5C611,204.6,609.7,203.9,607.8,204.7"/>
		<path class="st30" d="M612,205.1l20.7,11.9l20.7,11.9c3.5,2.3,5.7,6.1,5.9,10.2v47.6c0,3.7-2.7,5.3-5.9,3.4l-20.7-11.9L612,266.4
			c-3.5-2.3-5.7-6.1-5.9-10.2v-47.6C606.1,204.8,608.8,203.2,612,205.1"/>
		<path class="st27" d="M619.6,222.1c4.7,3.4,7,11.7,9.5,19.4s5,14.8,10.1,16c6.2,4.4,11.9,15.5,10.5,18c-2.5-1.5-5.1-2.9-7.6-4.4
			l-7.6-4.4c-2.3-2.5-4.3-9.2-6.4-15.5s-4.3-12.2-6.8-12.9c-0.2,3.3-0.4,6.7-0.6,10.1c-0.2,3.4-0.4,6.7-0.5,10.1l-2.1-1.2
			c-0.2-3.6-0.3-7.1-0.5-10.7s-0.3-7.1-0.5-10.7C613.6,228.1,616.3,222.3,619.6,222.1"/>
		<path class="st35" d="M485.5,87.8v16.1c0.1,4.6,1.3,9.2,3.5,13.3c2.1,4.1,5.1,7.6,8.3,9.5c3.2,1.9,6.2,1.8,8.3,0.1
			s3.5-4.9,3.5-9.3c0-12.8,0-3.3,0-16.1C501.2,96.9,493.3,92.3,485.5,87.8"/>
		<path class="st35" d="M532.7,115v16.1c0.1,4.6,1.3,9.2,3.5,13.3c2.1,4.1,5.1,7.6,8.3,9.5s6.2,1.8,8.3,0.1s3.5-4.9,3.5-9.3v-16.1
			C548.4,124.1,540.5,119.6,532.7,115"/>
		<path class="st35" d="M579.9,142.2v16.1c0.1,4.6,1.3,9.2,3.5,13.3c2.1,4.1,5.1,7.6,8.3,9.5s6.2,1.8,8.3,0.1s3.5-4.9,3.5-9.3
			c0-12.8,0-3.3,0-16.1C595.6,151.3,587.7,146.8,579.9,142.2"/>
		<path class="st35" d="M627.1,169.4v16.1c0.1,4.6,1.3,9.2,3.5,13.3c2.1,4.1,5.1,7.6,8.3,9.5s6.2,1.8,8.3,0.1s3.5-4.9,3.5-9.3
			c0-12.8,0-3.3,0-16.1C642.8,178.5,634.9,174,627.1,169.4"/>
		<path class="st36" d="M594.3,68.9L532.7,115l23.6,13.6l61.6-46.1L594.3,68.9"/>
		<path class="st36" d="M641.5,96.1l-61.6,46.1l23.6,13.6l61.6-46.1L641.5,96.1"/>
		<polygon class="st36" points="688.7,123.3 627.1,169.4 650.7,183 712.2,136.9 		"/>
		<polygon class="st37" points="650.7,189.1 650.7,183 716.5,133.7 716.5,150.2 		"/>
		<polygon class="st38" points="551.4,32.9 716.6,128.1 712.2,131.1 547.1,35.9 		"/>
		<polygon class="st38" points="547.1,35.9 547.1,41.7 948.2,272.9 948.2,267.1 		"/>
		<path class="st35" d="M674.2,196.6v16.1c0.1,4.6,1.3,9.2,3.5,13.3c2.1,4.1,5.1,7.6,8.3,9.5s6.2,1.8,8.3,0.1s3.5-4.9,3.5-9.3v-16.1
			C690,205.7,682.1,201.2,674.2,196.6"/>
		<path class="st35" d="M721.5,223.8v16.1c0.1,4.6,1.3,9.2,3.5,13.3c2.1,4.1,5.1,7.6,8.3,9.5s6.2,1.8,8.3,0.1s3.5-4.9,3.5-9.3
			c0-12.8,0-3.3,0-16.1C737.2,232.9,729.3,228.4,721.5,223.8"/>
		<path class="st35" d="M768.6,251v16.1c0.1,4.6,1.3,9.2,3.5,13.3c2.1,4.1,5.1,7.6,8.3,9.5s6.2,1.8,8.3,0.1s3.5-4.9,3.5-9.3v-16.1
			L768.6,251"/>
		<path class="st36" d="M735.8,150.5l-61.6,46.1c7.9,4.5,15.7,9.1,23.6,13.6l61.6-46.1L735.8,150.5"/>
		<path class="st36" d="M783,177.7l-61.6,46.1l23.6,13.6l61.6-46.1L783,177.7"/>
		<path class="st35" d="M815.8,278.2v16.1c0.1,4.6,1.3,9.2,3.5,13.3c2.1,4.1,5.1,7.6,8.3,9.5s6.2,1.8,8.3,0.1s3.5-4.9,3.5-9.3v-16.1
			L815.8,278.2"/>
		<path class="st39" d="M509.1,101.4v16.1c0.1,4.6,1.3,9.2,3.5,13.3c2.1,4.1,5.1,7.6,8.3,9.5s6.2,1.8,8.3,0.1s3.5-4.9,3.5-9.3V115
			C524.8,110.5,516.9,105.9,509.1,101.4"/>
		<path class="st39" d="M556.3,128.6v16.1c0.1,4.6,1.3,9.2,3.5,13.3c2.1,4.1,5.1,7.6,8.3,9.5s6.2,1.8,8.3,0.1s3.5-4.9,3.5-9.3
			c0-12.8,0-3.3,0-16.1C572,137.7,564.1,133.2,556.3,128.6"/>
		<path class="st39" d="M603.5,155.8v16.1c0.1,4.6,1.3,9.2,3.5,13.3c2.1,4.1,5.1,7.6,8.3,9.5s6.2,1.8,8.3,0.1s3.5-4.9,3.5-9.3v-16.1
			L603.5,155.8"/>
		<path class="st39" d="M650.7,183v16.1c0.1,4.6,1.3,9.2,3.5,13.3c2.1,4.1,5.1,7.6,8.3,9.5s6.2,1.8,8.3,0.1s3.5-4.9,3.5-9.3v-16.1
			L650.7,183"/>
		<path class="st39" d="M697.8,210.2v16.1c0.1,4.6,1.3,9.2,3.5,13.3c2.1,4.1,5.1,7.6,8.3,9.5s6.2,1.8,8.3,0.1s3.5-4.9,3.5-9.3
			c0-12.8,0-3.3,0-16.1C713.6,219.3,705.7,214.8,697.8,210.2"/>
		<path class="st39" d="M745,237.4v16.1c0.1,4.6,1.3,9.2,3.5,13.3c2.1,4.1,5.1,7.6,8.3,9.5s6.2,1.8,8.3,0.1s3.5-4.9,3.5-9.3V251
			L745,237.4"/>
		<path class="st39" d="M792.2,264.6v16.1c0.1,4.6,1.3,9.2,3.5,13.3c2.1,4.1,5.1,7.6,8.3,9.5s6.2,1.8,8.3,0.1s3.5-4.9,3.5-9.3
			c0-12.8,0-3.3,0-16.1C808,273.7,800.1,269.2,792.2,264.6"/>
		<path class="st39" d="M839.4,291.8v16.1c0.1,4.6,1.3,9.2,3.5,13.3c2.1,4.1,5.1,7.6,8.3,9.5s6.2,1.8,8.3,0.1s3.5-4.9,3.5-9.3v-16.1
			L839.4,291.8"/>
		<path class="st35" d="M863,305.4v16.1c0.1,4.6,1.3,9.2,3.5,13.3c2.1,4.1,5.1,7.6,8.3,9.5s6.2,1.8,8.3,0.1s3.5-4.9,3.5-9.3
			c0-12.8,0-3.3,0-16.1C878.7,314.5,870.9,310,863,305.4"/>
		<path class="st36" d="M877.4,232.1l-61.6,46.1l23.6,13.6l61.6-46.1L877.4,232.1"/>
		<path class="st36" d="M830.2,204.9c-20.5,15.3-41.1,30.7-61.6,46.1l23.6,13.6l61.6-46.1L830.2,204.9"/>
		<path class="st20" d="M570.7,55.3l-61.6,46.1l23.6,13.6l61.6-46.1L570.7,55.3"/>
		<path class="st20" d="M617.9,82.5l-61.6,46.1l23.6,13.6l61.6-46.1L617.9,82.5"/>
		<path class="st20" d="M665.1,109.7l-61.6,46.1l23.6,13.6l61.6-46.1C680.8,118.8,672.9,114.2,665.1,109.7"/>
		<polygon class="st20" points="712.2,136.9 650.7,183 674.2,196.6 735.8,150.5 		"/>
		<path class="st20" d="M759.4,164.1l-61.6,46.1l23.6,13.6l61.6-46.1L759.4,164.1"/>
		<path class="st20" d="M806.6,191.3L745,237.4l23.6,13.6l61.6-46.1L806.6,191.3"/>
		<polygon class="st20" points="853.8,218.5 792.2,264.6 815.8,278.2 877.4,232.1 		"/>
		<polygon class="st38" points="715.7,127.6 952.5,264 948.2,267.1 711.4,130.6 		"/>
		<path class="st20" d="M901,245.7l-61.6,46.1l23.6,13.6l61.6-46.1L901,245.7"/>
		<polygon class="st36" points="924.6,259.3 863,305.4 886.6,319 948.2,272.9 		"/>
		<polygon class="st20" points="948.2,267.1 952.5,264 952.5,269.8 948.2,272.9 		"/>
		<path class="st40" d="M61.5,461.3l132.3-73.4c8.7-4.8,23.7-4,33.5,1.7l67.8,39.8c9.9,5.8,10.9,14.5,2.2,19.3l-133.1,74
			c-8.7,4.9-23.8,4-33.7-1.9l-67.1-40.2C53.7,474.7,52.9,466.1,61.5,461.3z"/>
		<path class="st41" d="M254.7,423.1c-2.1,1.2-1.9,3.3,0.6,4.8l0,0c2.4,1.5,6.2,1.7,8.4,0.5l0,0c2.1-1.2,1.9-3.3-0.6-4.8
			S256.8,421.9,254.7,423.1z M238.4,428.2c-3.4-2-8.6-2.2-11.7-0.5s-2.9,4.7,0.5,6.7s8.6,2.2,11.7,0.5S241.8,430.2,238.4,428.2
			L238.4,428.2z M226.6,421.2l6.2-3.4l23.7,13.9l-6.2,3.4l-1.5-0.9c-0.6,2.1-2,3.8-4,4.7c-6,3.4-16.5,2.8-23.4-1.3
			s-7.6-10.1-1.6-13.4c2.6-1.3,5.4-2,8.3-2.1L226.6,421.2z M180.1,450.6l-3.1-1.8l-6.3,3.5l23.6,14l6.4-3.5l-11-6.5
			c-3.7-2.2-2.2-5.4,0.3-6.7h0.1l-6.9-4.1C180.6,446.8,179.5,448.8,180.1,450.6L180.1,450.6z M173.1,464.6c-3.4-2-8.6-2.2-11.7-0.5
			s-2.9,4.7,0.4,6.7s8.6,2.2,11.7,0.5S176.4,466.6,173.1,464.6L173.1,464.6z M161.3,457.6l6.2-3.4l23.6,14l-6.2,3.5l-1.5-0.9
			c-0.6,2.1-2,3.8-4,4.7c-6,3.4-16.5,2.8-23.4-1.3s-7.5-10.1-1.5-13.5c2.6-1.3,5.4-2.1,8.3-2.1L161.3,457.6z M197.9,436.5
			c-2.5,1.4-3.9,3.2-3.1,5.5l-2.7-1.6l-6.2,3.4l23.6,14l6.2-3.5l-12.4-7.4c-3.6-2.1-3.2-4.3-0.7-5.8c2.7-1.5,6.1-1.3,9.6,0.8
			l12.5,7.4l6.2-3.4l-15-8.9C210.5,433.8,202.9,433.7,197.9,436.5L197.9,436.5z M158.8,486.1l6.5-3.6l-34-20.3l-6.5,3.6L158.8,486.1
			z M130.2,502l6.9-3.8l-34-20.3l-6.9,3.8L130.2,502z M120.2,468.3c7.4,4.4,11.7,9.9,12.3,15.4l24.2,3.5l-8.5,4.7l-26.3-3.8l0.4-2.8
			c0.7-4.7-2.6-9.6-8.8-13.3L120.2,468.3L120.2,468.3z"/>
		<g>
			<g>
				<defs>
					<path id="SVGID_13_" d="M747.7,964.1c18.8,10.8,22,26.5,7,35c-3.8,2.1-8,3.6-12.3,4.3c12.1-3,18.5-10.5,15.1-19.2
						c-4.4-11.3-23.5-20.7-43-21l-3.3-8.7C723.6,954.7,737,958,747.7,964.1z M683,974.5c-3.4-9.2,4-16.8,17.1-19.3
						c-4.9,0.7-9.7,2.1-14.1,4.4c-15.5,8.4-12.7,24.3,6.5,35.3c10.9,6.3,24.7,9.6,37.3,9.7l-3.3-8.9
						C706.7,995.4,687.3,986,683,974.5z"/>
				</defs>
				<clipPath id="SVGID_14_">
					<use xlink:href="#SVGID_13_"  style="overflow:visible;"/>
				</clipPath>
				<g class="st42">
					
						<image style="overflow:visible;enable-background:new    ;" width="61" height="53" xlink:href="2D19822DA5500738.png"  transform="matrix(0.9907 0 0 0.9907 709.2538 953.2466)">
					</image>
					
						<image style="overflow:visible;enable-background:new    ;" width="65" height="55" xlink:href="2D19822DA5500739.png"  transform="matrix(0.9911 0 0 0.9911 671.2604 953.2457)">
					</image>
				</g>
			</g>
		</g>
		<linearGradient id="SVGID_15_" gradientUnits="userSpaceOnUse" x1="676.0016" y1="975.5413" x2="741.5016" y2="975.5413">
			<stop  offset="0" style="stop-color:#00ADEE"/>
			<stop  offset="0.18" style="stop-color:#3BC0F2"/>
			<stop  offset="0.4" style="stop-color:#80D6F7"/>
			<stop  offset="0.6" style="stop-color:#B7E8FA"/>
			<stop  offset="0.78" style="stop-color:#DEF4FD"/>
			<stop  offset="0.92" style="stop-color:#F6FCFE"/>
			<stop  offset="1" style="stop-color:#FFFFFF"/>
		</linearGradient>
		<path class="st43" d="M725.9,995.7c-19.5-0.4-38.6-9.8-42.8-21.2c-3.4-9.2,4-16.8,17.1-19.3c-4.9,0.6-9.7,2.1-14.1,4.4
			c-10.7,5.8-12.7,15.1-6.7,23.9c0.5,0.3,1.1,0.7,1.7,1C702.1,997.3,722.3,996,725.9,995.7z"/>
		<g>
			<g>
				<defs>
					<path id="SVGID_16_" d="M747.7,964.1c18.8,10.8,22,26.5,7,35c-3.8,2.1-8,3.6-12.3,4.3c12.1-3,18.5-10.5,15.1-19.2
						c-4.4-11.3-23.5-20.7-43-21l-3.3-8.7C723.6,954.7,737,958,747.7,964.1z"/>
				</defs>
				<clipPath id="SVGID_17_">
					<use xlink:href="#SVGID_16_"  style="overflow:visible;"/>
				</clipPath>
				<g class="st44">
					<g>
						<linearGradient id="SVGID_18_" gradientUnits="userSpaceOnUse" x1="726.8358" y1="993.9019" x2="746.0958" y2="968.0919">
							<stop  offset="0" style="stop-color:#FFFFFF"/>
							<stop  offset="9.000000e-02" style="stop-color:#FFFFF7"/>
							<stop  offset="0.22" style="stop-color:#FFFDE2"/>
							<stop  offset="0.38" style="stop-color:#FFFBBE"/>
							<stop  offset="0.57" style="stop-color:#FFF98D"/>
							<stop  offset="0.77" style="stop-color:#FFF54E"/>
							<stop  offset="0.99" style="stop-color:#FFF103"/>
							<stop  offset="1" style="stop-color:#FFF100"/>
						</linearGradient>
						<path class="st45" d="M714.4,963.1c0,0,21.8-2.8,44.7,11c4.7,2.8,4.8,5.8,5.8,8.3c0.8,1.9-0.1,8.4-3.1,12.1s-7.7,6.2-12.6,7.9
							s-18.2,2.3-18.2,2.3L714.4,963.1z"/>
					</g>
				</g>
			</g>
		</g>
		<path class="st46" d="M772.5,961.7l-0.4-0.8c-0.5-1,0.1-1.4,1.8-1.6c2.2-0.1,4.4-0.6,6.4-1.6c1.8-1,1.8-2.2,0.2-3.2
			c-4.3-2.5-12.9,4.2-22-1c-5.2-3-4.3-6.5,0.1-9c2.4-1.2,5-1.9,7.7-2.1c1.3-0.2,2.6,0.3,3.5,1.3l0.5,0.8c0.8,1,0.1,1.5-1.5,1.7
			c-1.8,0.2-3.6,0.7-5.2,1.4c-1.8,1-1.9,2.1-0.2,3c4.3,2.5,12.9-4.2,21.8,1c4.6,2.7,5,6.4,0.2,9c-3,1.5-6.2,2.3-9.6,2.3
			C774.5,963.4,773.2,962.8,772.5,961.7L772.5,961.7z"/>
		<path class="st46" d="M770.7,941.4c-1.8-0.7-2.2-1.5-1-2.2l1.9-1.1c1.2-0.6,2.6-0.5,3.7,0.1l18.5,7c1.6,0.7,3.2,1.4,3.2,1.4h0.1
			c0,0-1.2-0.9-2.3-1.8L783,934c-1-0.8-1-1.5,0-2.1l1.5-0.8c1.2-0.6,2.5-0.6,3.7,0l18.6,6.9c1.7,0.6,3.2,1.3,3.2,1.3h0.1
			c0,0-1.2-0.9-2.3-1.8l-12-10.5c-1-0.9-1-1.5,0-2.1l1.8-1c1.3-0.6,2.8-0.4,3.8,0.6l16.5,15.4c0.9,0.9,0.9,1.5-0.1,2.1l-2.7,1.5
			c-1.2,0.6-2.5,0.6-3.7,0l-16-5.8c-1.7-0.6-3.3-1.3-3.3-1.3H792c0,0,1.2,0.9,2.3,1.9l9.9,9.2c1,0.8,1,1.5,0,2.1l-2.8,1.5
			c-1.1,0.6-2.5,0.6-3.6,0L770.7,941.4L770.7,941.4z"/>
		<path class="st46" d="M804,922.7c-1.4-0.8-1.6-1.5-0.5-2.1l1.7-1c1.2-0.6,2.6-0.4,3.7,0.3l21.5,12.4c1.4,0.8,1.6,1.5,0.5,2.1
			l-1.7,1c-1.2,0.6-2.6,0.5-3.7-0.3L804,922.7z"/>
		<path class="st46" d="M831,928.9l-0.4-0.8c-0.5-0.9,0.1-1.4,1.7-1.5c2.1-0.1,4.2-0.6,6.2-1.5c1.7-1,1.7-2.1,0.1-3
			c-4.2-2.4-12.4,4-21.3-1.1c-5-2.9-4.3-6.4-0.1-8.7c2.3-1.2,4.8-1.9,7.4-2c1.3-0.2,2.6,0.3,3.4,1.3l0.5,0.7c0.8,1,0.2,1.5-1.4,1.7
			c-1.7,0.2-3.4,0.6-5,1.4c-1.7,1-1.8,2-0.2,2.9c4.2,2.4,12.4-4,21.1,1c4.5,2.6,5,6.2,0.4,8.8c-2.9,1.4-6,2.2-9.2,2.2
			C833,930.5,831.7,930,831,928.9L831,928.9z"/>
		<path class="st46" d="M819.8,902.6c-1.3-0.8-1.5-1.5-0.5-2.1l1.7-0.9c1.2-0.6,2.6-0.5,3.7,0.3l10.3,5.9c0.7,0.4,1.4,0.8,2,1.3h0.1
			c-1.5-1.9-1.7-4.9,1.7-6.7c4.3-2.4,9.8-2.1,16.5,1.8l14.2,8.2c1.4,0.8,1.5,1.5,0.5,2.1l-1.6,0.9c-1.2,0.6-2.6,0.5-3.7-0.3l-13-7.5
			c-3.1-1.8-5.8-2.7-8.2-1.3c-3.4,1.9-2,5.2,2.8,8l9.8,5.6c1.4,0.8,1.6,1.5,0.5,2.1l-1.6,0.9c-1.2,0.6-2.6,0.5-3.7-0.3L819.8,902.6
			L819.8,902.6z"/>
		<path class="st46" d="M847.5,891.9c0.4-0.2,0.3-0.6-0.3-1c-0.5-0.3-1.1-0.4-1.6-0.2l-0.7,0.4l1.9,1.1L847.5,891.9z M843.8,891.5
			c-0.3-0.2-0.4-0.3-0.1-0.5l1.3-0.7c1-0.4,2.2-0.4,3.1,0.2c0.9,0.5,1,1,0.7,1.3l0,0c0.2,0,0.3,0.1,0.5,0.1l2.1,0.5
			c0.5,0.1,0.6,0.3,0.4,0.5l-0.1,0.1c-0.3,0.1-0.6,0.1-0.8,0l-2.5-0.7l-0.7,0.4l1.7,1c0.3,0.2,0.4,0.3,0.1,0.5l-0.1,0.1
			c-0.3,0.1-0.6,0.1-0.8-0.1L843.8,891.5L843.8,891.5z M852,894.6c1.9-1,1.3-3-1.2-4.4s-5.9-1.8-7.8-0.8s-1.3,2.9,1.2,4.4
			S850.2,895.6,852,894.6L852,894.6z M842,888.9c2.3-1.3,6.6-0.9,9.6,0.9s3.7,4.2,1.4,5.5s-6.5,0.8-9.6-0.9S839.8,890.1,842,888.9
			L842,888.9z"/>
		<path class="st47" d="M947.2,805.5l11.4-6.3c5.3-3.1,12-3,17.3,0.2c8.6,4.9,9.2,10,3.1,13.4l-3,1.7c-0.8,0.5-0.7,1.1,0.9,2.2
			l9.3,6.2c0.6,0.4,0.7,0.8,0.3,1.1l-7.2,4.1c-0.7,0.4-1.6,0.2-2.8-0.6l-29.3-19.8C946.1,806.8,946,806.1,947.2,805.5z"/>
		<path class="st48" d="M995.5,778c4.9-2.5,10.8-2.3,15.6,0.5c7,4,8,7.8,2.9,10.7l-4.5,2.5c-0.7,0.4-0.3,0.9,0.9,1.6l6.1,3.9
			c0.9,0.6,1,1.1,0.4,1.5l-4.2,2.4c-0.7,0.4-1.4,0.2-2.5-0.4l-24.1-15.5c-1.2-0.8-1.2-1.2-0.5-1.6L995.5,778z M1003.4,788.9l3.4-1.9
			c2-1.2,1.6-2.9-1.6-4.6c-1.9-1.1-4.3-1.1-6.2-0.2l-3.2,1.8L1003.4,788.9z M1042.5,782c-0.1-0.4,0.1-0.8,0.6-0.5l1.2,0.7
			c0.5,0.4,1.1,0.4,1.7,0.1l3.7-2.1c0.6-0.3,0.6-0.7-0.5-1.3l-15.9-9.8c-0.5-0.5-1.3-0.6-1.9-0.3l-4,2.2c-0.4,0.2-0.3,0.4,0.3,0.8
			l1,0.6c0.5,0.3,0.4,0.5-0.4,0.3c-2.7-0.6-5.4-0.1-7.8,1.3c-5.5,3.2-3.9,8,2.7,11.6c5.1,2.8,12.5,3.1,16.5,0.9
			C1042.6,784.9,1042.8,783.6,1042.5,782L1042.5,782z M1036.7,782.4c-2.4,1.4-6.6,1.1-9.3-0.5s-2.9-4.1-0.4-5.5s6.6-1.1,9.3,0.5
			S1039.1,781,1036.7,782.4z M1038.9,764.5l-3.7,2c-0.8,0.4-0.3,0.9,0.8,1.2l21.9,5.6l3.8,6.5c0.4,0.5,1.2,0.7,1.8,0.4l4.1-2.3
			c0.6-0.3,0.7-0.6,0.4-1.1l-12.3-20c-0.5-0.7-1.4-0.9-2.1-0.5l-3.9,2.2c-0.7,0.4-0.6,0.7-0.3,1.2l5.2,8.4l-13.6-3.7
			C1040.4,764,1039.6,764.1,1038.9,764.5z"/>
		<path class="st47" d="M1058.1,743.2c3.6-2,9.5-2.7,15.5,0.5c7.1,3.8,8.3,7.5,3.4,10.2l-4.3,2.4c-0.6,0.3-0.2,0.8,1,1.5l6.2,3.7
			c0.9,0.6,1.1,1,0.4,1.4l-4,2.3c-0.7,0.4-1.4,0.2-2.5-0.4l-24.6-14.7c-1.2-0.7-1.3-1.2-0.6-1.6L1058.1,743.2L1058.1,743.2z
			 M1066.4,753.6l3.3-1.8c1.9-1.2,1.4-2.8-1.8-4.4c-1.9-1-4.2-1-6.2-0.1l-3,1.7L1066.4,753.6L1066.4,753.6z M1104.9,746.8
			c-0.1-0.4,0-0.7,0.6-0.5l1.2,0.7c0.5,0.3,1.1,0.4,1.7,0.1l3.5-2c0.6-0.3,0.6-0.6-0.6-1.3l-16.2-9.3c-0.5-0.4-1.3-0.5-1.9-0.3
			l-3.8,2.2c-0.3,0.2-0.3,0.4,0.4,0.8l1,0.6c0.5,0.3,0.4,0.5-0.4,0.3c-2.6-0.5-5.3-0.1-7.6,1.3c-5.3,3.1-3.5,7.6,3.2,11
			c5.2,2.7,12.5,2.9,16.4,0.8C1105.1,749.5,1105.2,748.3,1104.9,746.8L1104.9,746.8z M1099.1,747.2c-2.3,1.3-6.5,1.1-9.2-0.5
			s-3-3.9-0.7-5.2s6.5-1.1,9.2,0.5S1101.5,745.8,1099.1,747.2z M1120.5,740.3l-4,2.3c-0.4,0.2-0.9,0.2-1.3-0.1l-26.8-15.3
			c-0.4-0.2-0.4-0.5-0.1-0.7l4-2.2c0.4-0.2,0.8-0.2,1.2,0l26.9,15.3C1120.7,739.8,1120.8,740.1,1120.5,740.3L1120.5,740.3z"/>
		<path class="st48" d="M928.8,803.6l11.4-6.3c3.2-1.8,7.1-3.8,12.3-3.8c3.5,0,7,0.9,10.1,2.6c9.8,5.7,10.6,11.6,3.6,15.5l-5.7,3.2
			c-1,0.5-0.8,1.3,1,2.5l10.7,7.2c0.7,0.5,0.9,0.9,0.4,1.2l-7.1,4c-0.8,0.5-1.8,0.2-3.2-0.7l-33.6-23
			C927.4,805.1,927.4,804.4,928.8,803.6z"/>
		<path class="st49" d="M960.5,816.5l-13.2-9c-1.2-0.8-1.2-1.4,0-2.1l11.4-6.3c1.7-1,3.6-1.6,5.6-2c8.2,5.4,8.5,10.8,1.9,14.5
			l-5.7,3.2C959.7,815.2,959.6,815.7,960.5,816.5z"/>
		<g>
			<g>
				<defs>
					<rect id="SVGID_19_" x="132.4" y="612.8" width="322.7" height="385.3"/>
				</defs>
				<clipPath id="SVGID_20_">
					<use xlink:href="#SVGID_19_"  style="overflow:visible;"/>
				</clipPath>
				<g class="st50">
					<path class="st0" d="M215.1,996.6l-78.1-45c-1.8-1-2.4-3.3-1.4-5.1c0.3-0.6,0.8-1,1.4-1.4l227-130.6c3.5-2,7.7-2,11.2,0
						l78.1,45c1.8,1,2.4,3.3,1.4,5.1c-0.3,0.6-0.8,1.1-1.4,1.4l-227,130.7C222.8,998.6,218.5,998.6,215.1,996.6z"/>
					<path class="st51" d="M437.1,742.7c4.1-2.4,7.5-0.5,7.5,4.3l0.2,68.6c-0.3,5.2-3.1,10-7.5,12.9L377.4,863
						c-4.1,2.4-7.5,0.5-7.5-4.3l-0.2-68.6c0.3-5.2,3-10,7.5-12.9L437.1,742.7z"/>
					
						<linearGradient id="SVGID_21_" gradientUnits="userSpaceOnUse" x1="377.2" y1="292.2" x2="390.77" y2="292.2" gradientTransform="matrix(1 0 0 -1 0 1082)">
						<stop  offset="0" style="stop-color:#FFFFFF"/>
						<stop  offset="0.5" style="stop-color:#FCFDFF"/>
						<stop  offset="0.8" style="stop-color:#F4F7FF"/>
						<stop  offset="1" style="stop-color:#E9EEFF"/>
					</linearGradient>
					<path class="st52" d="M377.2,785.9l13.6-7.8v15.6l-13.6,7.8V785.9z"/>
					
						<linearGradient id="SVGID_22_" gradientUnits="userSpaceOnUse" x1="393.36" y1="301.3" x2="406.92" y2="301.3" gradientTransform="matrix(1 0 0 -1 0 1082)">
						<stop  offset="0" style="stop-color:#FFFFFF"/>
						<stop  offset="0.5" style="stop-color:#FCFDFF"/>
						<stop  offset="0.8" style="stop-color:#F4F7FF"/>
						<stop  offset="1" style="stop-color:#E9EEFF"/>
					</linearGradient>
					<path class="st53" d="M393.4,776.8L407,769v15.6l-13.5,7.8L393.4,776.8z"/>
					<path class="st54" d="M442.1,742c-0.1,0-0.2-0.1-0.3-0.1h-0.1c-0.1,0-0.2-0.1-0.3-0.1h-0.1l0,0h-0.1h-0.1
						c-0.1,0-0.3-0.1-0.4-0.1h-0.1c-0.2,0-0.4,0-0.6,0h-0.1h-0.4h-0.1h-0.3c-0.1,0-0.2,0.1-0.3,0.1c-0.2,0-0.4,0.1-0.5,0.2l-0.2,0.1
						c-0.2,0.1-0.4,0.2-0.6,0.2l-0.5,0.3l-59.9,34.5c-0.2,0.1-0.4,0.2-0.6,0.4l-0.5,0.4l-0.2,0.2l0,0c-0.2,0.1-0.3,0.3-0.5,0.4h-0.1
						c-0.2,0.2-0.4,0.3-0.5,0.5l-0.3,0.3l-0.5,0.5l0,0c-0.1,0.1-0.2,0.2-0.3,0.3c-0.1,0.1-0.2,0.2-0.3,0.3l-0.3,0.4l-0.2,0.3
						l-0.4,0.5l-0.1,0.2c-0.2,0.2-0.3,0.5-0.5,0.8c0,0,0,0.1-0.1,0.1c-0.1,0.2-0.2,0.4-0.4,0.7c0,0.1-0.1,0.1-0.1,0.2
						c-0.1,0.2-0.2,0.5-0.3,0.7v0.1c-0.1,0.3-0.2,0.5-0.3,0.8c0,0.1-0.1,0.2-0.1,0.2c-0.1,0.2-0.1,0.4-0.2,0.6
						c0,0.1-0.1,0.2-0.1,0.3c0,0.2-0.1,0.4-0.1,0.5s-0.1,0.2-0.1,0.4c0,0,0,0.1,0,0.2c-0.1,0.3-0.1,0.6-0.2,0.8c0,0.1,0,0.2,0,0.3
						s0,0.3,0,0.5s0,0.5,0,0.7v0.2l0.2,68.6c0,0.3,0,0.5,0,0.8c0,0.2,0,0.3,0,0.5s0,0.3,0.1,0.5c0.1,0.3,0.1,0.5,0.2,0.8
						c0,0.1,0.1,0.2,0.1,0.3s0.1,0.2,0.1,0.3c0.2,0.4,0.4,0.7,0.7,1c0.1,0.1,0.2,0.2,0.3,0.3l0.1,0.1c0.1,0.1,0.3,0.2,0.4,0.3
						l-0.1-0.1l-74.2-43c-0.5-0.3-1-0.7-1.3-1.2c-0.6-1.1-0.9-2.3-0.9-3.5l-0.2-68.6c0-0.4,0-0.9,0.1-1.3c0,0,0-0.1,0-0.2
						c0,0,0-0.1,0-0.2s0.1-0.4,0.1-0.6c0-0.1,0-0.2,0-0.3v-0.1l0.1-0.4c0-0.1,0-0.2,0.1-0.4l0.1-0.2c0-0.1,0.1-0.2,0.1-0.3
						s0-0.2,0.1-0.3l0.1-0.3l0.1-0.2v-0.1c0.1-0.2,0.2-0.4,0.3-0.7l0,0v-0.1c0.1-0.2,0.1-0.4,0.2-0.5c0-0.1,0.1-0.1,0.1-0.2
						c0-0.1,0.1-0.2,0.1-0.2c0-0.1,0.1-0.2,0.1-0.2s0.2-0.3,0.3-0.5l0.1-0.1l0,0l0.4-0.6l0.1-0.1c0-0.1,0.1-0.1,0.1-0.2
						s0.2-0.2,0.2-0.3s0.1-0.1,0.1-0.2c0.1-0.1,0.1-0.2,0.2-0.3l0.1-0.2c0.1-0.1,0.1-0.2,0.2-0.2s0.2-0.2,0.3-0.3s0.1-0.1,0.1-0.2
						c0.1-0.1,0.1-0.1,0.2-0.2c0.2-0.2,0.3-0.4,0.5-0.5s0.1-0.1,0.2-0.2l0.1-0.1c0.3-0.3,0.7-0.6,1-0.9l0.2-0.2
						c0.4-0.3,0.8-0.5,1.2-0.8l59.9-34.5c0.3-0.2,0.6-0.3,1-0.5h0.1l0.2-0.1l0.5-0.2l0.2-0.1h0.2l0.3-0.1h0.2h0.2h0.2h0.6h0.5h0.1
						h0.1l0.2,0.1l0.2,0.1h0.1h0.1c0.1,0.1,0.3,0.1,0.4,0.2l0,0l27.3,15.8l10.5,6.1L442.1,742z"/>
					
						<linearGradient id="SVGID_23_" gradientUnits="userSpaceOnUse" x1="318.43" y1="327.6499" x2="405.8301" y2="327.6499" gradientTransform="matrix(1 0 0 -1 0 1082)">
						<stop  offset="0" style="stop-color:#FFFFFF"/>
						<stop  offset="0.5" style="stop-color:#FCFDFF"/>
						<stop  offset="0.8" style="stop-color:#F4F7FF"/>
						<stop  offset="1" style="stop-color:#E9EEFF"/>
					</linearGradient>
					<path class="st55" d="M335.6,768.7c0-0.2,0-0.5,0.1-0.9v-0.3c0-0.2,0-0.3,0.1-0.5l0.1-0.7c0-0.2,0.1-0.3,0.1-0.5l0.1-0.3
						c0-0.2,0.1-0.3,0.2-0.5l0.1-0.2c0.1-0.2,0.2-0.5,0.3-0.7l0.1-0.2c0.1-0.2,0.2-0.4,0.3-0.7l0.1-0.2c0.1-0.2,0.2-0.4,0.4-0.6
						v-0.1c0.1-0.2,0.3-0.5,0.5-0.8l0.1-0.1l0.4-0.5l0.2-0.2l0.3-0.4l0.3-0.3l0.2-0.3l0.4-0.5l0.2-0.2c0.3-0.3,0.6-0.5,0.9-0.8
						l0.1-0.1c0.3-0.2,0.6-0.4,0.9-0.6l63.9-36.8l-10.5-6.1l-58.7,33.8c-0.7,0.4-1.4,0.9-2,1.3l-0.3,0.2c-0.6,0.5-1.1,1-1.7,1.5
						c-0.1,0.1-0.3,0.2-0.4,0.4s-0.5,0.5-0.8,0.8s-0.3,0.3-0.4,0.5s-0.3,0.4-0.4,0.5s-0.3,0.4-0.5,0.7l-0.3,0.4
						c-0.2,0.3-0.4,0.5-0.6,0.9l-0.2,0.3c-0.2,0.4-0.5,0.8-0.7,1.1l-0.1,0.2c-0.2,0.3-0.4,0.7-0.5,1l-0.2,0.3
						c-0.2,0.4-0.4,0.7-0.5,1l-0.1,0.2c-0.2,0.4-0.3,0.8-0.5,1.2l-0.1,0.4c-0.1,0.3-0.2,0.6-0.3,0.9s-0.1,0.3-0.1,0.5
						s-0.2,0.5-0.2,0.9l-0.1,0.5c0,0.2-0.1,0.4-0.1,0.5v0.1c-0.1,0.3-0.1,0.6-0.2,1l-0.1,0.4v0.1c-0.1,0.7-0.1,1.5-0.1,2.2v9.1
						l-6.7-3.9l11.9,20.5l12-6.8l-6.6-3.8L335.6,768.7z"/>
					<path class="st51" d="M302.8,656.9c-4.1-2.4-7.5-0.5-7.5,4.3l-0.2,68.6c0.3,5.2,3,10,7.5,12.9l59.9,34.5
						c4.1,2.4,7.5,0.5,7.5-4.3l0.2-68.6c-0.3-5.2-3.1-10-7.5-12.9L302.8,656.9z"/>
					
						<linearGradient id="SVGID_24_" gradientUnits="userSpaceOnUse" x1="349.07" y1="378" x2="362.63" y2="378" gradientTransform="matrix(1 0 0 -1 0 1082)">
						<stop  offset="0" style="stop-color:#FFFFFF"/>
						<stop  offset="0.5" style="stop-color:#FCFDFF"/>
						<stop  offset="0.8" style="stop-color:#F4F7FF"/>
						<stop  offset="1" style="stop-color:#E9EEFF"/>
					</linearGradient>
					<path class="st56" d="M362.6,700.1l-13.6-7.8v15.6l13.5,7.8L362.6,700.1z"/>
					
						<linearGradient id="SVGID_25_" gradientUnits="userSpaceOnUse" x1="332.9" y1="387.1" x2="346.46" y2="387.1" gradientTransform="matrix(1 0 0 -1 0 1082)">
						<stop  offset="0" style="stop-color:#FFFFFF"/>
						<stop  offset="0.5" style="stop-color:#FCFDFF"/>
						<stop  offset="0.8" style="stop-color:#F4F7FF"/>
						<stop  offset="1" style="stop-color:#E9EEFF"/>
					</linearGradient>
					<path class="st57" d="M346.5,691l-13.6-7.8v15.6l13.5,7.8L346.5,691z"/>
					<path class="st54" d="M297.7,656.2l0.3-0.1h0.1l0.3-0.1h0.1l0,0h0.1h0.1c0.1,0,0.3,0,0.4,0h0.1c0.2,0,0.4,0,0.6,0h0.2h0.4h0.1
						l0.3,0.1c0.1,0,0.2,0.1,0.3,0.1c0.2,0,0.4,0.1,0.5,0.2l0.2,0.1l0.6,0.2l0.5,0.3l59.9,34.5c0.2,0.1,0.4,0.2,0.6,0.4l0.5,0.4
						c0.1,0,0.1,0.1,0.2,0.2l0,0c0.2,0.1,0.3,0.2,0.5,0.4h0.1c0.2,0.2,0.3,0.3,0.5,0.5l0.3,0.3l0.5,0.5l0,0l0.3,0.3l0.3,0.3
						c0.1,0.2,0.2,0.3,0.3,0.4l0.2,0.3c0.1,0.2,0.2,0.3,0.4,0.5l0.1,0.2c0.2,0.2,0.3,0.5,0.5,0.8c0,0,0,0.1,0.1,0.1l0.4,0.7l0.1,0.2
						c0.1,0.2,0.2,0.5,0.3,0.7v0.1c0.1,0.3,0.2,0.5,0.3,0.8c0,0.1,0.1,0.2,0.1,0.2c0.1,0.2,0.1,0.4,0.2,0.6s0.1,0.2,0.1,0.3
						s0.1,0.4,0.1,0.5l0.1,0.4c0,0,0,0.1,0,0.2c0.1,0.3,0.1,0.6,0.2,0.9c0,0.1,0,0.2,0,0.3s0,0.3,0,0.5s0,0.5,0,0.7v0.1l-0.2,68.6
						c0,0.2,0,0.5,0,0.8c0,0.2,0,0.4-0.1,0.5c0,0.1,0,0.3-0.1,0.4c0,0.3-0.1,0.5-0.2,0.8c0,0.1-0.1,0.2-0.1,0.3s-0.1,0.2-0.1,0.3
						c-0.2,0.4-0.4,0.7-0.7,1c-0.1,0.1-0.2,0.2-0.3,0.3l-0.1,0.1c-0.1,0.1-0.3,0.2-0.4,0.3l0.1-0.1l74.2-43c0.5-0.3,1-0.7,1.3-1.2
						c0.6-1.1,0.9-2.3,0.9-3.5l0.2-68.6c0-0.4,0-0.9-0.1-1.3c0,0,0-0.1,0-0.2c0,0,0-0.1,0-0.2s-0.1-0.4-0.1-0.6c0-0.1,0-0.2,0-0.3
						v-0.1c0-0.1-0.1-0.2-0.1-0.4s0-0.2-0.1-0.3l-0.1-0.2l-0.1-0.3c0-0.1,0-0.2-0.1-0.3l-0.1-0.3l-0.1-0.2v-0.1l-0.3-0.7l0,0
						l-0.1-0.1c-0.1-0.2-0.1-0.4-0.2-0.5l-0.1-0.2c0-0.1-0.1-0.2-0.1-0.2c0-0.1-0.1-0.1-0.1-0.2c-0.1-0.2-0.2-0.3-0.3-0.5l-0.1-0.1
						l0,0c-0.1-0.2-0.2-0.4-0.4-0.6c0,0,0-0.1-0.1-0.1c0-0.1-0.1-0.1-0.1-0.2s-0.2-0.2-0.2-0.3s-0.1-0.1-0.1-0.2
						c-0.1-0.1-0.1-0.2-0.2-0.3l-0.1-0.2l-0.2-0.2l-0.3-0.3l-0.1-0.2c0-0.1-0.1-0.1-0.2-0.2s-0.3-0.4-0.5-0.5
						c-0.1-0.1-0.1-0.1-0.2-0.2l-0.1-0.1c-0.3-0.3-0.7-0.6-1-0.9l-0.2-0.2c-0.4-0.3-0.8-0.5-1.2-0.8l-59.8-34.4
						c-0.3-0.2-0.7-0.3-1-0.5l-0.1-0.1l-0.2-0.1l-0.5-0.2l-0.2-0.1H375l-0.3-0.1h-0.2h-0.2h-0.2h-0.6c-0.2,0-0.3,0-0.5,0.1h-0.1
						h-0.1h-0.2l-0.2,0.1h-0.1h-0.1l-0.4,0.2l0,0l-27.3,15.8l-10.5,6L297.7,656.2z"/>
					
						<linearGradient id="SVGID_26_" gradientUnits="userSpaceOnUse" x1="334" y1="413.1501" x2="421.4001" y2="413.1501" gradientTransform="matrix(1 0 0 -1 0 1082)">
						<stop  offset="0" style="stop-color:#FFFFFF"/>
						<stop  offset="0.5" style="stop-color:#FCFDFF"/>
						<stop  offset="0.8" style="stop-color:#F4F7FF"/>
						<stop  offset="1" style="stop-color:#E9EEFF"/>
					</linearGradient>
					<path class="st58" d="M404.2,698.1l-6.6,3.8l12,6.8l11.9-20.5l-6.7,3.8v-9.1c0-0.7-0.1-1.5-0.1-2.2v-0.1l-0.1-0.4
						c0-0.3-0.1-0.7-0.2-1V679c0-0.2-0.1-0.3-0.1-0.5s-0.1-0.4-0.1-0.5c-0.1-0.3-0.2-0.6-0.2-0.9l-0.1-0.5c-0.1-0.3-0.2-0.6-0.3-0.9
						l-0.1-0.4c-0.2-0.4-0.3-0.8-0.5-1.2l-0.1-0.2l-0.5-1l-0.2-0.3c-0.2-0.3-0.4-0.7-0.5-1l-0.1-0.2c-0.2-0.4-0.5-0.8-0.7-1.1
						l-0.2-0.3l-0.6-0.9l-0.3-0.4c-0.2-0.2-0.4-0.4-0.5-0.7s-0.3-0.4-0.4-0.5s-0.3-0.3-0.4-0.5s-0.5-0.5-0.8-0.8l-0.4-0.4
						c-0.5-0.5-1.1-1-1.7-1.5l-0.3-0.2c-0.6-0.5-1.3-0.9-2-1.3L344.6,629l-10.5,6.1l63.9,36.8c0.2,0.1,0.5,0.3,0.9,0.6l0.1,0.1
						c0.3,0.2,0.6,0.5,0.9,0.8l0.2,0.2c0.2,0.2,0.3,0.3,0.4,0.5l0.2,0.3l0.3,0.3l0.3,0.4l0.2,0.2c0.1,0.2,0.2,0.3,0.4,0.5l0.1,0.1
						c0.2,0.3,0.4,0.5,0.5,0.8v0.1c0.1,0.2,0.2,0.4,0.4,0.6l0.1,0.2c0.1,0.2,0.2,0.4,0.3,0.7l0.1,0.2l0.3,0.7l0.1,0.2
						c0.1,0.2,0.1,0.4,0.2,0.5l0.1,0.3c0,0.2,0.1,0.3,0.1,0.5l0.1,0.7c0,0.2,0.1,0.3,0.1,0.5v0.3c0,0.3,0.1,0.6,0.1,0.9L404.2,698.1
						z"/>
					<path class="st51" d="M355.5,789.6c4.1-2.4,7.5-0.5,7.5,4.3l0.2,68.6c-0.3,5.2-3.1,10-7.5,12.9l-59.9,34.5
						c-4.1,2.4-7.5,0.5-7.5-4.3l-0.2-68.6c0.3-5.2,3-10,7.5-12.9L355.5,789.6z"/>
					
						<linearGradient id="SVGID_27_" gradientUnits="userSpaceOnUse" x1="295.68" y1="245.3" x2="309.24" y2="245.3" gradientTransform="matrix(1 0 0 -1 0 1082)">
						<stop  offset="0" style="stop-color:#FFFFFF"/>
						<stop  offset="0.5" style="stop-color:#FCFDFF"/>
						<stop  offset="0.8" style="stop-color:#F4F7FF"/>
						<stop  offset="1" style="stop-color:#E9EEFF"/>
					</linearGradient>
					<path class="st59" d="M295.7,832.8l13.6-7.8v15.6l-13.5,7.8L295.7,832.8z"/>
					
						<linearGradient id="SVGID_28_" gradientUnits="userSpaceOnUse" x1="311.83" y1="254.3" x2="325.39" y2="254.3" gradientTransform="matrix(1 0 0 -1 0 1082)">
						<stop  offset="0" style="stop-color:#FFFFFF"/>
						<stop  offset="0.5" style="stop-color:#FCFDFF"/>
						<stop  offset="0.8" style="stop-color:#F4F7FF"/>
						<stop  offset="1" style="stop-color:#E9EEFF"/>
					</linearGradient>
					<path class="st60" d="M311.8,823.8l13.6-7.8v15.6l-13.6,7.8V823.8z"/>
					<path class="st54" d="M360.6,789l-0.3-0.1h-0.1l-0.3-0.1h-0.1l0,0h-0.1h-0.1c-0.1,0-0.3,0-0.4,0H359c-0.2,0-0.4,0-0.6,0h-0.1
						h-0.4h-0.1l-0.3,0.1c-0.1,0-0.2,0.1-0.3,0.1c-0.2,0-0.4,0.1-0.5,0.2c-0.1,0-0.1,0.1-0.2,0.1l-0.6,0.2l-0.5,0.3l-59.9,34.5
						l-0.6,0.4l-0.6,0.4c-0.1,0-0.1,0.1-0.2,0.2l0,0c-0.2,0.1-0.3,0.2-0.5,0.4h-0.1c-0.2,0.2-0.4,0.3-0.5,0.5l-0.2,0.3l-0.5,0.5l0,0
						c-0.1,0.1-0.2,0.2-0.3,0.3l-0.3,0.3l-0.4,0.4c-0.1,0.1-0.1,0.2-0.2,0.3l-0.4,0.5c-0.1,0.1-0.1,0.1-0.1,0.2
						c-0.2,0.2-0.3,0.5-0.5,0.8c0,0,0,0.1-0.1,0.1c-0.1,0.2-0.2,0.5-0.4,0.7c0,0.1-0.1,0.2-0.1,0.2c-0.1,0.2-0.2,0.5-0.3,0.7v0.1
						c-0.1,0.3-0.2,0.5-0.3,0.8c0,0.1-0.1,0.2-0.1,0.2c-0.1,0.2-0.1,0.4-0.2,0.6c0,0.1-0.1,0.2-0.1,0.3c0,0.2-0.1,0.4-0.1,0.5
						s-0.1,0.3-0.1,0.4v0.1c-0.1,0.3-0.1,0.6-0.2,0.9c0,0.1,0,0.2,0,0.3s0,0.3,0,0.5s-0.1,0.5,0,0.7l0,0l0.2,68.6c0,0.2,0,0.5,0,0.8
						c0,0.2,0,0.4,0,0.5s0,0.3,0.1,0.4c0,0.3,0.1,0.5,0.2,0.8c0,0.1,0.1,0.2,0.1,0.3s0.1,0.2,0.1,0.3c0.2,0.4,0.4,0.7,0.7,1
						c0.1,0.1,0.2,0.2,0.3,0.3l0.1,0.1l0.4,0.3l-0.1-0.1l-74.2-43c-0.5-0.3-1-0.8-1.3-1.3c-0.6-1.1-0.9-2.3-0.9-3.5l-0.2-68.6
						c0-0.4,0-0.9,0.1-1.3v-0.1c0-0.1,0-0.1,0-0.2c0-0.2,0.1-0.4,0.1-0.6c0-0.1,0-0.2,0-0.3v-0.1l0.1-0.4c0-0.1,0.1-0.2,0.1-0.3
						l0.1-0.2c0-0.1,0.1-0.2,0.1-0.3s0-0.2,0.1-0.3s0.1-0.2,0.1-0.3s0.1-0.2,0.1-0.2v-0.1l0.3-0.7l0,0v-0.1c0.1-0.2,0.2-0.4,0.2-0.5
						s0.1-0.1,0.1-0.2l0.1-0.2c0-0.1,0.1-0.1,0.1-0.2c0.1-0.2,0.2-0.3,0.3-0.5l0.1-0.1l0,0l0.4-0.6l0.1-0.1c0-0.1,0.1-0.1,0.1-0.2
						s0.2-0.2,0.2-0.3s0.1-0.1,0.1-0.2l0.2-0.3l0.1-0.2l0.2-0.2l0.3-0.3c0-0.1,0.1-0.1,0.1-0.2l0.2-0.2c0.2-0.2,0.3-0.4,0.5-0.5
						l0.2-0.2l0.1-0.1c0.3-0.3,0.7-0.6,1.1-0.9l0.2-0.2c0.4-0.3,0.8-0.5,1.2-0.8l59.9-34.5c0.3-0.2,0.6-0.3,0.9-0.5h0.1l0.2-0.1
						l0.5-0.2l0.2-0.1h0.2l0.3-0.1h0.2h0.2h0.2h0.6h0.5h0.1c0.1,0,0.1,0,0.1,0h0.2l0.2,0.1h0.1h0.1c0.1,0.1,0.3,0.1,0.4,0.2l0,0
						l27.3,15.8l10.5,6.1L360.6,789z"/>
					
						<linearGradient id="SVGID_29_" gradientUnits="userSpaceOnUse" x1="236.92" y1="280.6498" x2="324.32" y2="280.6498" gradientTransform="matrix(1 0 0 -1 0 1082)">
						<stop  offset="0" style="stop-color:#FFFFFF"/>
						<stop  offset="0.5" style="stop-color:#FCFDFF"/>
						<stop  offset="0.8" style="stop-color:#F4F7FF"/>
						<stop  offset="1" style="stop-color:#E9EEFF"/>
					</linearGradient>
					<path class="st61" d="M254.1,815.7c0-0.3,0-0.6,0.1-0.9v-0.3c0-0.2,0-0.3,0.1-0.5l0.1-0.7l0.1-0.5l0.1-0.3
						c0-0.2,0.1-0.3,0.2-0.5l0.1-0.2c0.1-0.2,0.2-0.5,0.3-0.7l0.1-0.2c0.1-0.2,0.2-0.4,0.3-0.7l0.1-0.2c0.1-0.2,0.2-0.4,0.4-0.6
						l0.1-0.1l0.5-0.8l0.1-0.1c0.1-0.2,0.2-0.3,0.4-0.5l0.2-0.2c0.1-0.1,0.2-0.3,0.3-0.4c0.1-0.1,0.2-0.2,0.3-0.3l0.2-0.3l0.4-0.5
						l0.2-0.2c0.3-0.3,0.6-0.5,0.9-0.8l0.1-0.1c0.3-0.2,0.6-0.4,0.9-0.6l63.9-36.8l-10.5-6.1l-58.7,33.8c-0.7,0.4-1.4,0.9-2,1.3
						l-0.3,0.2c-0.6,0.5-1.1,0.9-1.7,1.5l-0.4,0.4l-0.8,0.8c-0.1,0.2-0.3,0.3-0.4,0.5l-0.4,0.5c-0.2,0.2-0.3,0.4-0.5,0.7l-0.3,0.4
						c-0.2,0.3-0.4,0.5-0.6,0.9l-0.2,0.2c-0.2,0.4-0.5,0.8-0.7,1.1l-0.1,0.2c-0.2,0.3-0.4,0.7-0.5,1l-0.2,0.3
						c-0.2,0.4-0.4,0.7-0.5,1l-0.1,0.2c-0.2,0.4-0.3,0.8-0.5,1.2l-0.1,0.4c-0.1,0.3-0.2,0.6-0.3,0.9s-0.1,0.3-0.1,0.5
						s-0.2,0.6-0.2,0.9c0,0.2-0.1,0.3-0.1,0.5s-0.1,0.4-0.1,0.5v0.1c-0.1,0.3-0.1,0.6-0.2,1L244,813v0.1c-0.1,0.7-0.1,1.5-0.1,2.2
						v9.1l-6.7-3.8l11.9,20.5l12-6.8l-6.6-3.8L254.1,815.7z"/>
					<path class="st51" d="M274,836.5c4.1-2.4,7.5-0.5,7.5,4.3l0.2,68.6c-0.3,5.2-3.1,10-7.5,12.9l-59.9,34.5
						c-4.1,2.4-7.5,0.5-7.5-4.3l-0.2-68.6c0.3-5.2,3.1-10,7.5-12.8L274,836.5z"/>
					
						<linearGradient id="SVGID_30_" gradientUnits="userSpaceOnUse" x1="214.17" y1="198.4" x2="227.73" y2="198.4" gradientTransform="matrix(1 0 0 -1 0 1082)">
						<stop  offset="0" style="stop-color:#FFFFFF"/>
						<stop  offset="0.5" style="stop-color:#FCFDFF"/>
						<stop  offset="0.8" style="stop-color:#F4F7FF"/>
						<stop  offset="1" style="stop-color:#E9EEFF"/>
					</linearGradient>
					<path class="st62" d="M214.2,879.7l13.6-7.8v15.6l-13.6,7.8V879.7z"/>
					
						<linearGradient id="SVGID_31_" gradientUnits="userSpaceOnUse" x1="230.33" y1="207.5" x2="243.88" y2="207.5" gradientTransform="matrix(1 0 0 -1 0 1082)">
						<stop  offset="0" style="stop-color:#FFFFFF"/>
						<stop  offset="0.5" style="stop-color:#FCFDFF"/>
						<stop  offset="0.8" style="stop-color:#F4F7FF"/>
						<stop  offset="1" style="stop-color:#E9EEFF"/>
					</linearGradient>
					<path class="st63" d="M230.3,870.6l13.6-7.8v15.6l-13.5,7.8L230.3,870.6z"/>
					<path class="st54" d="M279.1,835.8l-0.3-0.1h-0.1l-0.3-0.1h-0.1l0,0h-0.1H278c-0.1,0-0.3,0-0.4,0h-0.1c-0.2,0-0.4,0-0.6,0h-0.1
						h-0.4h-0.1l-0.3,0.1c-0.1,0-0.2,0.1-0.3,0.1c-0.2,0-0.4,0.1-0.5,0.2c-0.1,0-0.1,0.1-0.2,0.1l-0.6,0.2l-0.5,0.3L214.2,871
						l-0.6,0.4l-0.6,0.4c-0.1,0-0.1,0.1-0.2,0.2l0,0c-0.2,0.1-0.3,0.2-0.5,0.4l-0.1,0.1c-0.2,0.1-0.3,0.3-0.5,0.4l-0.2,0.3
						c-0.2,0.2-0.3,0.3-0.5,0.5l0,0l-0.3,0.3l-0.3,0.3l-0.4,0.4c-0.1,0.1-0.1,0.2-0.2,0.3s-0.3,0.3-0.4,0.5
						c-0.1,0.1-0.1,0.1-0.1,0.2c-0.2,0.2-0.3,0.5-0.5,0.8c0,0,0,0.1-0.1,0.1c-0.1,0.2-0.2,0.5-0.4,0.7c0,0.1-0.1,0.2-0.1,0.2
						c-0.1,0.2-0.2,0.5-0.3,0.7l-0.1,0.1c-0.1,0.3-0.2,0.5-0.3,0.8c0,0.1-0.1,0.2-0.1,0.2c-0.1,0.2-0.1,0.4-0.2,0.6l-0.1,0.3
						c0,0.2-0.1,0.4-0.1,0.5s-0.1,0.3-0.1,0.4v0.1c-0.1,0.3-0.1,0.6-0.2,0.9c0,0.1,0,0.2,0,0.3s0,0.3,0,0.5s-0.1,0.5-0.1,0.8v0.1
						l0.2,68.6c0,0.2,0,0.5,0,0.8c0,0.2,0,0.4,0.1,0.5c0,0.1,0,0.3,0.1,0.4c0,0.3,0.1,0.5,0.2,0.8c0,0.1,0.1,0.2,0.1,0.3
						s0.1,0.2,0.1,0.3c0.2,0.4,0.4,0.7,0.7,1c0.1,0.1,0.2,0.2,0.3,0.3l0.1,0.1l0.4,0.3l-0.1-0.1l-74.2-43c-0.5-0.3-1-0.7-1.3-1.2
						c-0.6-1.1-0.9-2.3-0.9-3.6l-0.2-68.6c0-0.4,0-0.9,0.1-1.3c0,0,0-0.1,0-0.2c0-0.1,0-0.1,0-0.2c0-0.2,0.1-0.4,0.1-0.6
						c0-0.1,0-0.2,0.1-0.3V838l0.1-0.4c0-0.1,0.1-0.2,0.1-0.3l0.1-0.2c0-0.1,0.1-0.2,0.1-0.3s0-0.2,0.1-0.3l0.1-0.3l0.1-0.2v-0.1
						l0.3-0.7l0,0l0.1-0.1c0.1-0.2,0.1-0.4,0.2-0.5c0-0.1,0.1-0.1,0.1-0.2c0-0.1,0.1-0.1,0.1-0.2l0.1-0.2c0.1-0.2,0.2-0.3,0.3-0.5
						l0.1-0.1l0,0l0.4-0.6l0.1-0.1c0.1-0.1,0.1-0.1,0.1-0.2s0.2-0.2,0.2-0.3s0.1-0.1,0.1-0.2c0.1-0.1,0.1-0.2,0.2-0.3l0.1-0.2
						l0.2-0.2c0.1-0.1,0.2-0.2,0.3-0.4l0.1-0.2c0.1-0.1,0.1-0.1,0.2-0.2c0.2-0.2,0.3-0.4,0.5-0.5s0.1-0.1,0.2-0.2l0.1-0.1
						c0.3-0.3,0.7-0.6,1.1-0.9l0.2-0.2c0.4-0.3,0.8-0.5,1.2-0.8l59.9-34.5c0.3-0.2,0.6-0.3,0.9-0.5h0.1l0.2-0.1l0.5-0.2l0.2-0.1h0.2
						l0.3-0.1h0.2h0.2h0.2h0.1c0.1,0,0.2,0,0.4,0h0.1h0.4h0.1h0.1l0.2,0.1l0.2,0.1h0.1c0,0,0,0,0.1,0c0.1,0.1,0.3,0.1,0.4,0.2l0,0
						l27.3,15.8l10.5,6.1L279.1,835.8z"/>
					
						<linearGradient id="SVGID_32_" gradientUnits="userSpaceOnUse" x1="155.3501" y1="233.7999" x2="242.7501" y2="233.7999" gradientTransform="matrix(1 0 0 -1 0 1082)">
						<stop  offset="0" style="stop-color:#FFFFFF"/>
						<stop  offset="0.5" style="stop-color:#FCFDFF"/>
						<stop  offset="0.8" style="stop-color:#F4F7FF"/>
						<stop  offset="1" style="stop-color:#E9EEFF"/>
					</linearGradient>
					<path class="st64" d="M172.6,862.5c0-0.3,0-0.6,0.1-0.9v-0.3c0-0.2,0.1-0.3,0.1-0.5l0.1-0.7l0.1-0.5l0.1-0.3
						c0.1-0.2,0.1-0.3,0.2-0.5l0.1-0.2c0.1-0.2,0.2-0.5,0.3-0.7l0.1-0.2c0.1-0.2,0.2-0.4,0.3-0.7l0.1-0.2c0.1-0.2,0.2-0.4,0.4-0.6
						l0.1-0.1l0.5-0.8l0.1-0.1c0.1-0.2,0.2-0.3,0.4-0.5l0.2-0.2c0.1-0.1,0.2-0.3,0.3-0.4c0.1-0.1,0.2-0.2,0.3-0.3l0.2-0.3l0.4-0.5
						l0.2-0.2c0.3-0.3,0.6-0.5,0.9-0.8l0.1-0.1c0.3-0.2,0.6-0.4,0.9-0.6l63.9-36.8l-10.5-6.1l-58.7,33.8c-0.7,0.4-1.4,0.9-2,1.3
						l-0.3,0.2c-0.6,0.5-1.1,0.9-1.7,1.5l-0.4,0.4l-0.8,0.8c-0.1,0.2-0.3,0.3-0.4,0.5s-0.3,0.4-0.4,0.5s-0.4,0.4-0.5,0.7l-0.3,0.4
						l-0.6,0.9l-0.2,0.2c-0.2,0.4-0.5,0.8-0.7,1.1l-0.1,0.2c-0.2,0.3-0.4,0.7-0.5,1l-0.2,0.3c-0.2,0.4-0.4,0.7-0.5,1.1l-0.1,0.2
						c-0.2,0.4-0.4,0.8-0.5,1.2l-0.1,0.4c-0.1,0.3-0.2,0.6-0.3,0.9s-0.1,0.3-0.1,0.5s-0.2,0.6-0.2,0.9l-0.1,0.5
						c0,0.2-0.1,0.4-0.1,0.5v0.1c-0.1,0.3-0.1,0.6-0.2,1l-0.1,0.4v0.1c-0.1,0.7-0.1,1.5-0.1,2.2v9.1l-6.7-3.8l11.9,20.5l12-6.8
						l-6.6-3.8L172.6,862.5z"/>
				</g>
			</g>
		</g>
	</g>
</g>
</svg>
