<svg width="204" height="118" viewBox="0 0 204 118" fill="none" xmlns="http://www.w3.org/2000/svg">
<g filter="url(#filter0_d)">
<path d="M132.348 14.7555V81.177C132.348 82.835 131.005 84.1821 129.248 84.1821H25.0997C23.3432 84.1821 22 82.835 22 81.177V14.7555C22 13.0976 23.3432 11.7505 25.0997 11.7505H129.248C131.005 11.7505 132.348 13.0976 132.348 14.7555Z" fill="white"/>
</g>
<path d="M132.348 14.8591V19.004H22V14.8591C22 13.0976 23.3432 11.7505 25.0997 11.7505H129.248C131.005 11.7505 132.348 13.0976 132.348 14.8591Z" fill="#362F4A"/>
<path d="M25.6174 16.7245C26.2453 16.7245 26.7544 16.2142 26.7544 15.5847C26.7544 14.9551 26.2453 14.4448 25.6174 14.4448C24.9895 14.4448 24.4805 14.9551 24.4805 15.5847C24.4805 16.2142 24.9895 16.7245 25.6174 16.7245Z" fill="white"/>
<path d="M28.8205 16.7245C29.4485 16.7245 29.9575 16.2142 29.9575 15.5847C29.9575 14.9551 29.4485 14.4448 28.8205 14.4448C28.1926 14.4448 27.6836 14.9551 27.6836 15.5847C27.6836 16.2142 28.1926 16.7245 28.8205 16.7245Z" fill="white"/>
<path d="M31.9202 16.7245C32.5481 16.7245 33.0571 16.2142 33.0571 15.5847C33.0571 14.9551 32.5481 14.4448 31.9202 14.4448C31.2922 14.4448 30.7832 14.9551 30.7832 15.5847C30.7832 16.2142 31.2922 16.7245 31.9202 16.7245Z" fill="white"/>
<path d="M117.106 32H94.8936C94.383 32 94 31.625 94 31.125V30.875C94 30.375 94.383 30 94.8936 30H117.106C117.617 30 118 30.375 118 30.875V31.125C118 31.5 117.617 32 117.106 32Z" fill="#362F4A"/>
<path d="M121.077 38H94.9231C94.4103 38 94 37.5556 94 37C94 36.4444 94.4103 36 94.9231 36H121.077C121.59 36 122 36.4444 122 37C121.897 37.5556 121.59 38 121.077 38Z" fill="url(#paint0_linear)"/>
<path d="M127.846 44H95.1538C94.5128 44 94 43.5556 94 43C94 42.4444 94.5128 42 95.1538 42H127.846C128.487 42 129 42.4444 129 43C128.872 43.5556 128.487 44 127.846 44Z" fill="url(#paint1_linear)"/>
<path d="M127.846 50H95.1538C94.5128 50 94 49.5556 94 49C94 48.4444 94.5128 48 95.1538 48H127.846C128.487 48 129 48.4444 129 49C128.872 49.6667 128.487 50 127.846 50Z" fill="url(#paint2_linear)"/>
<path d="M111.245 56H94.7552C94.3776 56 94 55.6471 94 55.2941V54.7059C94 54.3529 94.3776 54 94.7552 54H111.245C111.622 54 112 54.3529 112 54.7059V55.2941C112 55.6471 111.748 56 111.245 56Z" fill="url(#paint3_linear)"/>
<path d="M84.377 37.3758C84.0789 37.0768 83.7808 36.9273 83.4827 36.6284C79.9054 33.6386 76.4771 30.6489 72.8998 27.6592C72.4526 27.3602 71.8564 27.0612 71.4092 27.0612C68.7263 27.0612 66.0433 27.0612 63.3603 27.0612C62.0188 27.0612 61.5717 27.5097 61.5717 28.8551C61.2735 31.6953 59.1868 33.9376 56.5038 33.9376C53.5227 33.9376 51.1378 31.9943 50.8397 29.0046C50.5416 26.4633 50.0945 27.0612 41.3002 27.0612C40.4059 27.0612 39.6606 27.3602 39.0644 27.9581C35.4871 30.9479 31.9098 33.9376 28.4816 36.9273C28.3325 37.0768 28.1834 37.2263 27.8853 37.3758C26.842 38.2727 26.6929 39.0202 27.5872 40.0666C29.3759 42.1594 31.0155 44.2522 32.8041 46.345C33.5494 47.3914 33.9966 47.3914 35.7852 46.644C36.6796 46.1955 38.1701 45.4481 40.1078 44.5512V71.6082C40.1078 73.5515 40.555 74 42.4927 74C51.585 74 60.6773 74 69.7697 74C71.7074 74 72.1545 73.5515 72.1545 71.6082V44.4017C74.2413 45.4481 75.5828 46.1955 76.6262 46.644C78.4148 47.3914 78.7129 47.3914 79.6073 46.345C81.3959 44.2522 83.1846 42.0099 84.9732 39.9171C85.4204 39.0202 85.4204 38.2727 84.377 37.3758Z" fill="#DDE1F0"/>
<path d="M67.8321 46.3451L64.702 48.5874C64.2548 49.0358 63.6586 49.0358 63.2115 48.5874L60.0813 46.3451C59.7832 46.1956 59.7832 45.8966 59.7832 45.5976V40.6646C59.7832 40.3656 60.0813 40.0667 60.3794 40.0667H67.534C67.8321 40.0667 68.1303 40.3656 68.1303 40.6646V45.5976C68.1303 45.8966 67.9812 46.1956 67.8321 46.3451Z" fill="#C5CCDE"/>
<path d="M35.9351 46.6441C34.1464 47.541 33.6993 47.3915 32.954 46.3451C31.1654 44.2523 29.3767 42.1595 27.7371 40.0667C26.8428 39.0203 26.8428 38.2729 28.0352 37.3759C28.1843 37.2265 28.3333 37.077 28.6314 36.9275L35.9351 46.6441Z" fill="#C5CCDE"/>
<path d="M84.974 40.0665C83.1853 42.1593 81.3967 44.4016 79.608 46.4945C78.8628 47.3914 78.4156 47.5409 76.627 46.7934L83.7816 36.7778C84.0797 37.0768 84.3778 37.2263 84.6759 37.5253C85.7193 38.2727 85.8683 39.0201 84.974 40.0665Z" fill="#C5CCDE"/>
<g filter="url(#filter1_d)">
<path d="M178.244 93H108.631C106.628 93 105 91.3443 105 89.3066V69.6934C105 67.6557 106.628 66 108.631 66H178.369C180.372 66 182 67.6557 182 69.6934V89.3066C182 91.3443 180.372 93 178.244 93Z" fill="white"/>
</g>
<path d="M116.509 73.2791L118.011 76.2912C118.136 76.4167 118.261 76.5422 118.386 76.5422L121.765 77.1697C122.14 77.2952 122.391 77.7972 122.015 78.0482L119.638 80.4328C119.512 80.5583 119.512 80.6838 119.512 80.9348L120.138 84.3234C120.263 84.6999 119.763 85.0764 119.387 84.8254L116.384 83.1938C116.259 83.0683 116.009 83.0683 115.883 83.1938L112.88 84.8254C112.505 85.0764 112.004 84.6999 112.129 84.3234L112.755 80.9348C112.755 80.8093 112.755 80.5583 112.63 80.4328L110.252 78.0482C109.877 77.7972 110.127 77.1697 110.502 77.1697L113.881 76.6677C114.006 76.6677 114.257 76.5422 114.257 76.4167L115.758 73.4046C115.758 72.9026 116.259 72.9026 116.509 73.2791Z" fill="#6154F9"/>
<path opacity="0.3" d="M116.008 75.6637H115.883C115.633 75.5382 115.633 75.2872 115.633 75.1617V75.0362C115.758 74.7852 116.008 74.7852 116.259 74.7852C116.509 74.9107 116.509 75.1617 116.509 75.4127C116.259 75.5382 116.134 75.6637 116.008 75.6637Z" fill="white"/>
<path opacity="0.3" d="M113.756 80.5584C113.631 80.5584 113.381 80.4329 113.381 80.3074C113.256 80.0564 113.256 79.9309 113.006 79.8054L111.629 78.4248C111.504 78.2993 111.504 78.1738 111.504 78.0483C111.504 77.9228 111.629 77.7973 111.879 77.7973L113.756 77.5463C114.257 77.4208 114.632 77.1698 114.758 76.7933L115.008 76.4168C115.133 76.1658 115.383 76.1658 115.634 76.1658C115.884 76.2913 115.884 76.5423 115.884 76.7933L115.508 77.0443C115.133 77.6718 114.507 78.1738 113.882 78.2993L112.88 78.4248L113.631 79.1778C113.882 79.4288 114.007 79.6799 114.132 80.0564C114.257 80.3074 114.132 80.5584 113.882 80.5584C113.882 80.5584 113.756 80.5584 113.756 80.5584Z" fill="white"/>
<path d="M130.025 73.2791L131.527 76.2912C131.652 76.4167 131.777 76.5422 131.902 76.5422L135.281 77.0442C135.656 77.1697 135.906 77.6717 135.531 77.9227L133.028 80.4328C132.903 80.5583 132.903 80.6838 132.903 80.9348L133.529 84.3234C133.654 84.6999 133.153 85.0764 132.778 84.8254L129.775 83.1938C129.649 83.0683 129.399 83.0683 129.274 83.1938L126.271 84.8254C125.895 85.0764 125.395 84.6999 125.52 84.3234L126.146 80.9348C126.146 80.8093 126.146 80.5583 126.02 80.4328L123.643 78.0482C123.267 77.7972 123.518 77.1697 123.893 77.1697L127.272 76.6677C127.397 76.6677 127.647 76.5422 127.647 76.4167L129.149 73.4046C129.274 72.9026 129.775 72.9026 130.025 73.2791Z" fill="#6154F9"/>
<path opacity="0.3" d="M129.399 75.6637H129.274C129.023 75.5382 129.023 75.2872 129.023 75.1617V75.0362C129.149 74.7852 129.399 74.7852 129.649 74.7852C129.9 74.9107 129.9 75.1617 129.9 75.4127C129.775 75.5382 129.649 75.6637 129.399 75.6637Z" fill="white"/>
<path opacity="0.3" d="M127.272 80.5584C127.147 80.5584 126.897 80.4329 126.897 80.3074C126.771 80.0564 126.771 79.9309 126.521 79.8054L125.145 78.4248C125.02 78.2993 125.02 78.1738 125.02 78.0483C125.02 77.9228 125.145 77.7973 125.395 77.7973L127.272 77.5463C127.773 77.4208 128.148 77.1698 128.273 76.7933L128.523 76.4168C128.649 76.1658 128.899 76.1658 129.149 76.1658C129.399 76.2913 129.399 76.5423 129.399 76.7933L129.149 77.1698C128.774 77.7973 128.148 78.2993 127.522 78.4248H126.396L127.147 79.1778C127.397 79.4288 127.522 79.6799 127.647 80.0564C127.773 80.3074 127.647 80.5584 127.397 80.5584C127.272 80.5584 127.272 80.5584 127.272 80.5584Z" fill="white"/>
<path d="M143.414 73.2791L144.915 76.2912C145.04 76.4167 145.166 76.5422 145.291 76.5422L148.669 77.0442C149.045 77.1697 149.295 77.6717 148.92 77.9227L146.542 80.3073C146.417 80.4328 146.417 80.5583 146.417 80.8093L147.043 84.1979C147.168 84.5744 146.667 84.9509 146.292 84.6999L143.288 83.0683C143.163 82.9428 142.913 82.9428 142.788 83.0683L139.784 84.6999C139.409 84.9509 138.909 84.5744 139.034 84.1979L139.659 80.8093C139.659 80.6838 139.659 80.4328 139.534 80.3073L137.157 77.9227C136.656 77.7972 136.781 77.1697 137.282 77.1697L140.66 76.6677C140.786 76.6677 141.036 76.5422 141.036 76.4167L142.538 73.4046C142.663 72.9026 143.288 72.9026 143.414 73.2791Z" fill="#6154F9"/>
<path opacity="0.3" d="M142.913 75.6637H142.787C142.537 75.5382 142.537 75.2872 142.537 75.1617V75.0362C142.662 74.7852 142.913 74.7852 143.163 74.7852C143.413 74.9107 143.413 75.1617 143.413 75.4127C143.288 75.5382 143.163 75.6637 142.913 75.6637Z" fill="white"/>
<path opacity="0.3" d="M140.661 80.5584C140.535 80.5584 140.285 80.4329 140.285 80.3074C140.16 80.0564 140.16 79.9309 139.91 79.8054L138.658 78.4248C138.533 78.2993 138.533 78.1738 138.533 78.0483C138.533 77.9228 138.658 77.7973 138.909 77.7973L140.786 77.5463C141.286 77.4208 141.662 77.1698 141.787 76.7933L142.037 76.4168C142.162 76.1658 142.413 76.1658 142.663 76.1658C142.913 76.2913 142.913 76.5423 142.913 76.7933L142.663 77.1698C142.287 77.7973 141.662 78.2993 141.036 78.4248H139.785L140.535 79.1778C140.786 79.4288 140.911 79.6799 141.036 80.0564C141.161 80.3074 141.036 80.5584 140.786 80.5584C140.786 80.5584 140.786 80.5584 140.661 80.5584Z" fill="white"/>
<path d="M156.929 73.2791L158.431 76.2912C158.556 76.4167 158.681 76.5422 158.806 76.5422L162.185 77.0442C162.56 77.1697 162.811 77.6717 162.435 77.9227L160.058 80.3073C159.933 80.4328 159.933 80.5583 159.933 80.8093L160.558 84.1979C160.683 84.5744 160.183 84.9509 159.807 84.6999L156.804 83.0683C156.679 82.9428 156.429 82.9428 156.303 83.0683L153.3 84.6999C152.925 84.9509 152.424 84.5744 152.549 84.1979L153.05 80.9348C153.05 80.8093 153.05 80.5583 152.925 80.4328L150.547 78.0482C150.172 77.7972 150.422 77.1697 150.797 77.1697L154.176 76.6677C154.301 76.6677 154.552 76.5422 154.552 76.4167L156.053 73.4046C156.178 72.9026 156.804 72.9026 156.929 73.2791Z" fill="#6154F9"/>
<path opacity="0.3" d="M156.428 75.6637H156.303C156.053 75.5382 156.053 75.2872 156.053 75.1617V75.0362C156.178 74.7852 156.428 74.7852 156.679 74.7852C156.929 74.9107 156.929 75.1617 156.929 75.4127C156.804 75.5382 156.553 75.6637 156.428 75.6637Z" fill="white"/>
<path opacity="0.3" d="M154.176 80.5584C154.051 80.5584 153.801 80.4329 153.801 80.3074C153.676 80.0564 153.676 79.9309 153.425 79.8054L152.174 78.4248C152.049 78.2993 152.049 78.1738 152.049 78.0483C152.049 77.9228 152.174 77.7973 152.424 77.7973L154.301 77.5463C154.802 77.4208 155.177 77.1698 155.302 76.7933L155.553 76.4168C155.678 76.1658 155.928 76.1658 156.178 76.1658C156.429 76.2913 156.429 76.5423 156.429 76.7933L156.178 77.1698C155.803 77.7973 155.177 78.2993 154.552 78.4248H153.3L154.051 79.1778C154.301 79.4288 154.426 79.6799 154.552 80.0564C154.677 80.3074 154.552 80.5584 154.301 80.5584C154.301 80.5584 154.301 80.5584 154.176 80.5584Z" fill="white"/>
<path d="M170.445 73.2792L171.946 76.2913C172.071 76.4168 172.197 76.5423 172.322 76.5423L175.701 77.0443C176.076 77.1698 176.326 77.6718 175.951 77.9228L173.573 80.3074C173.448 80.4329 173.448 80.5584 173.448 80.8094L174.074 84.1979C174.199 84.5745 173.698 84.951 173.323 84.7L170.32 83.0684C170.194 82.9429 169.944 82.9429 169.819 83.0684L166.816 84.7C166.44 84.951 165.94 84.5745 166.065 84.1979L166.69 80.8094C166.69 80.6839 166.69 80.4329 166.565 80.3074L164.188 77.9228C163.812 77.6718 164.063 77.0443 164.438 77.0443L167.817 76.5423C167.942 76.5423 168.192 76.4168 168.192 76.2913L169.694 73.2792C169.694 72.9027 170.194 72.9027 170.445 73.2792Z" fill="#6154F9"/>
<path opacity="0.3" d="M169.944 75.6637H169.819C169.568 75.5382 169.568 75.2872 169.568 75.1617V75.0362C169.694 74.7852 169.944 74.7852 170.194 74.7852C170.445 74.9107 170.445 75.1617 170.445 75.4127C170.319 75.5382 170.069 75.6637 169.944 75.6637Z" fill="white"/>
<path opacity="0.3" d="M167.692 80.5584C167.567 80.5584 167.317 80.4329 167.317 80.3074C167.191 80.0564 167.191 79.9309 166.941 79.8054L165.565 78.4248C165.439 78.2993 165.439 78.1738 165.439 78.0483C165.439 77.9228 165.565 77.7973 165.815 77.7973L167.692 77.5463C168.193 77.4208 168.568 77.1698 168.693 76.7933L168.943 76.4168C169.069 76.1658 169.319 76.1658 169.569 76.1658C169.819 76.2913 169.819 76.5423 169.819 76.7933L169.569 77.1698C169.194 77.7973 168.568 78.2993 167.942 78.4248H166.816L167.567 79.1778C167.817 79.4288 167.942 79.6799 168.067 80.0564C168.193 80.3074 168.067 80.5584 167.817 80.5584H167.692Z" fill="white"/>
<path d="M160.155 29.5012C159.884 30.4506 159.478 31.5358 158.937 32.3496C157.585 35.6046 153.934 39.5376 148.795 41.572C145.684 42.7927 142.033 43.3354 138.111 42.5217C127.833 40.3516 121.342 30.3151 123.371 20.143C126.481 5.35958 144.603 -0.065676 155.286 10.5133C160.56 15.6672 162.183 22.9911 160.155 29.5012Z" fill="#6154F9"/>
<path d="M160 29.6855C159.736 30.6541 159.339 31.761 158.81 32.5912C157.489 35.9119 153.92 39.9245 148.897 42L137 29.5472L145.592 21.9371L150.615 20L160 29.6855Z" fill="#2D61A4"/>
<path d="M150.272 19.7214C148.461 16.5729 144.194 16.1622 141.996 19.037C139.797 16.0253 135.53 16.436 133.719 19.7214C132.167 22.4593 133.331 24.9233 135.271 27.2505C137.211 29.7146 139.926 31.9049 141.349 32.7262C141.608 32.8631 141.866 33 142.125 33C142.383 33 142.642 33 142.901 32.7262C144.194 31.9049 147.039 29.7146 148.979 27.2505C150.66 24.9233 151.824 22.4593 150.272 19.7214Z" fill="#DFF6FD"/>
<defs>
<filter id="filter0_d" x="0" y="0.750488" width="154.348" height="116.432" filterUnits="userSpaceOnUse" color-interpolation-filters="sRGB">
<feFlood flood-opacity="0" result="BackgroundImageFix"/>
<feColorMatrix in="SourceAlpha" type="matrix" values="0 0 0 0 0 0 0 0 0 0 0 0 0 0 0 0 0 0 127 0"/>
<feOffset dy="11"/>
<feGaussianBlur stdDeviation="11"/>
<feColorMatrix type="matrix" values="0 0 0 0 0.397708 0 0 0 0 0.47749 0 0 0 0 0.575 0 0 0 0.18 0"/>
<feBlend mode="normal" in2="BackgroundImageFix" result="effect1_dropShadow"/>
<feBlend mode="normal" in="SourceGraphic" in2="effect1_dropShadow" result="shape"/>
</filter>
<filter id="filter1_d" x="83" y="46" width="121" height="71" filterUnits="userSpaceOnUse" color-interpolation-filters="sRGB">
<feFlood flood-opacity="0" result="BackgroundImageFix"/>
<feColorMatrix in="SourceAlpha" type="matrix" values="0 0 0 0 0 0 0 0 0 0 0 0 0 0 0 0 0 0 127 0"/>
<feOffset dy="2"/>
<feGaussianBlur stdDeviation="11"/>
<feColorMatrix type="matrix" values="0 0 0 0 0.397708 0 0 0 0 0.47749 0 0 0 0 0.575 0 0 0 0.21 0"/>
<feBlend mode="normal" in2="BackgroundImageFix" result="effect1_dropShadow"/>
<feBlend mode="normal" in="SourceGraphic" in2="effect1_dropShadow" result="shape"/>
</filter>
<linearGradient id="paint0_linear" x1="94.0873" y1="37.0294" x2="121.944" y2="37.0294" gradientUnits="userSpaceOnUse">
<stop stop-color="#CED7E2"/>
<stop offset="1" stop-color="#E6ECF5"/>
</linearGradient>
<linearGradient id="paint1_linear" x1="94.1091" y1="43.0622" x2="128.93" y2="43.0622" gradientUnits="userSpaceOnUse">
<stop stop-color="#CED7E2"/>
<stop offset="1" stop-color="#E6ECF5"/>
</linearGradient>
<linearGradient id="paint2_linear" x1="94.1091" y1="49.095" x2="128.93" y2="49.095" gradientUnits="userSpaceOnUse">
<stop stop-color="#CED7E2"/>
<stop offset="1" stop-color="#E6ECF5"/>
</linearGradient>
<linearGradient id="paint3_linear" x1="93.9812" y1="54.9588" x2="112.036" y2="54.9588" gradientUnits="userSpaceOnUse">
<stop stop-color="#CED7E2"/>
<stop offset="1" stop-color="#E6ECF5"/>
</linearGradient>
</defs>
</svg>
