<svg width="149" height="145" viewBox="0 0 149 145" fill="none" xmlns="http://www.w3.org/2000/svg">
<path d="M95.7421 6.4039C96.5759 6.4039 97.2518 5.72564 97.2518 4.88896C97.2518 4.05228 96.5759 3.37402 95.7421 3.37402C94.9083 3.37402 94.2324 4.05228 94.2324 4.88896C94.2324 5.72564 94.9083 6.4039 95.7421 6.4039Z" fill="url(#paint0_linear)"/>
<path d="M126.515 8.38499C127.56 8.38499 128.489 7.56926 128.489 6.40392C128.489 5.35512 127.676 4.42285 126.515 4.42285C125.47 4.42285 124.541 5.23859 124.541 6.40392C124.541 7.56926 125.47 8.38499 126.515 8.38499Z" fill="#6154F9"/>
<path d="M26.9937 113.032C28.0389 113.032 28.9679 112.216 28.9679 111.051C28.9679 110.002 28.155 109.07 26.9937 109.07C25.9486 109.07 25.0195 109.886 25.0195 111.051C25.0195 112.1 25.8324 113.032 26.9937 113.032Z" fill="#6154F9"/>
<path d="M30.967 12.7308C32.0039 12.3927 32.5713 11.275 32.2343 10.2345C31.8973 9.19399 30.7835 8.62466 29.7466 8.96285C28.7097 9.30104 28.1423 10.4187 28.4794 11.4592C28.8164 12.4997 29.9302 13.069 30.967 12.7308Z" fill="#EAEEF9"/>
<path d="M119.517 10.8924C120.132 10.328 120.175 9.36974 119.613 8.75211C119.05 8.13447 118.095 8.09133 117.48 8.65576C116.864 9.22018 116.821 10.1784 117.384 10.7961C117.946 11.4137 118.901 11.4568 119.517 10.8924Z" fill="#EAEEF9"/>
<path d="M32.0914 108.133C32.8489 107.439 32.9019 106.259 32.2096 105.499C31.5173 104.739 30.342 104.686 29.5845 105.381C28.827 106.075 28.7741 107.255 29.4663 108.015C30.1586 108.775 31.3339 108.828 32.0914 108.133Z" fill="#EAEEF9"/>
<g filter="url(#filter0_d)">
<path d="M83.6647 23.4177V98.4653C83.6647 100.563 81.9228 102.427 79.7163 102.427H28.9679C26.7615 102.427 25.0195 100.679 25.0195 98.4653V23.4177C25.0195 21.2036 26.7615 19.4556 28.9679 19.4556H79.7163C81.9228 19.5721 83.6647 21.3201 83.6647 23.4177Z" fill="white"/>
</g>
<path d="M64.5041 56.9793H32.917C32.1041 56.9793 31.5234 56.3966 31.5234 55.5809V29.7104C31.5234 28.8947 32.1041 28.312 32.917 28.312H64.5041C65.317 28.312 65.8976 28.8947 65.8976 29.7104V55.4643C66.0138 56.2801 65.317 56.9793 64.5041 56.9793Z" fill="#E6EDF5"/>
<path d="M50.6846 50.6864H36.8652L43.7168 42.8787L50.6846 50.6864Z" fill="#CED7E2"/>
<path d="M62.0651 50.6863H42.207L52.078 39.3826L62.0651 50.6863Z" fill="white"/>
<path d="M42.0909 39.9653C43.4844 39.9653 44.7619 38.7999 44.7619 37.285C44.7619 35.7701 43.6006 34.6047 42.0909 34.6047C40.6973 34.6047 39.4199 35.7701 39.4199 37.285C39.4199 38.7999 40.5812 39.9653 42.0909 39.9653Z" fill="#CED7E2"/>
<path d="M64.5041 92.7552H32.917C32.1041 92.7552 31.5234 92.1725 31.5234 91.3567V65.4863C31.5234 64.6706 32.1041 64.0879 32.917 64.0879H64.5041C65.317 64.0879 65.8976 64.6706 65.8976 65.4863V91.2402C66.0138 92.0559 65.317 92.7552 64.5041 92.7552Z" fill="#E6EDF5"/>
<path d="M50.6846 86.3458H36.8652L43.7168 78.5381L50.6846 86.3458Z" fill="#CED7E2"/>
<path d="M62.0651 86.3458H42.207L52.078 75.042L62.0651 86.3458Z" fill="white"/>
<path d="M42.0909 75.7412C43.4844 75.7412 44.7619 74.5758 44.7619 73.0609C44.7619 71.546 43.6006 70.3806 42.0909 70.3806C40.6973 70.3806 39.4199 71.546 39.4199 73.0609C39.4199 74.5758 40.5812 75.7412 42.0909 75.7412Z" fill="#CED7E2"/>
<g filter="url(#filter1_d)">
<path d="M126.283 16.5422V106.506C126.283 109.07 124.193 111.167 121.638 111.167H60.6706C58.1157 111.167 56.0254 109.07 56.0254 106.506V16.5422C56.0254 13.9785 58.1157 11.8809 60.6706 11.8809H121.522C124.077 11.8809 126.283 13.9785 126.283 16.5422Z" fill="white"/>
</g>
<path d="M107.588 73.6438H74.7235C73.7944 73.6438 73.0977 72.9446 73.0977 72.0123C73.0977 71.0801 73.7944 70.3809 74.7235 70.3809H107.588C108.517 70.3809 109.214 71.0801 109.214 72.0123C109.214 72.9446 108.517 73.6438 107.588 73.6438Z" fill="#E3EAF2"/>
<path d="M97.0189 81.1018H85.2899C84.3608 81.1018 83.6641 80.4026 83.6641 79.4703C83.6641 78.5381 84.3608 77.8389 85.2899 77.8389H97.0189C97.9479 77.8389 98.6447 78.5381 98.6447 79.4703C98.6447 80.2861 97.9479 81.1018 97.0189 81.1018Z" fill="#E3EAF2"/>
<path d="M108.283 45.5593V40.7814C108.283 35.654 106.077 31.1091 102.593 27.9627L103.057 27.3801C103.29 27.0305 103.29 26.5643 102.941 26.3313C99.6896 23.651 95.5089 22.0195 90.9799 22.0195C86.3347 22.0195 82.038 23.7675 78.7863 26.5643C78.438 26.7974 78.438 27.3801 78.7863 27.6131L79.2509 28.0793C75.8831 31.2257 73.6767 35.7705 73.6767 40.7814V45.6758C71.9347 46.7246 70.7734 48.5892 70.7734 50.8033V54.1828C70.7734 57.4457 73.4444 60.126 76.696 60.126V60.5921C76.696 61.9905 77.8573 63.1559 79.2509 63.1559C80.6444 63.1559 81.8057 61.9905 81.8057 60.5921V44.394C81.8057 42.9956 80.6444 41.8302 79.2509 41.8302C77.8573 41.8302 76.696 42.9956 76.696 44.394V44.8601C76.4638 44.8601 76.2315 44.8601 76.1154 44.8601V40.7814C76.1154 36.4697 77.9734 32.5076 80.9928 29.7107L81.5734 30.2934C81.8057 30.5265 82.2702 30.5265 82.5025 30.2934C84.825 28.4289 87.7283 27.2635 90.9799 27.2635C94.1154 27.2635 97.0186 28.4289 99.3412 30.1769C99.6896 30.4099 100.038 30.4099 100.27 30.0603L100.851 29.4777C103.87 32.158 105.844 36.1201 105.844 40.5484V44.627C105.728 44.627 105.496 44.627 105.38 44.627V44.1609C105.38 42.7625 104.219 41.5972 102.825 41.5972C101.432 41.5972 100.27 42.7625 100.27 44.1609V60.2425C100.27 61.6409 101.432 62.8063 102.825 62.8063C104.219 62.8063 105.38 61.6409 105.38 60.2425V59.7764C108.631 59.7764 111.302 57.0961 111.302 53.8332V50.4537C111.302 48.4727 110.141 46.4916 108.283 45.5593Z" fill="#EAEEF9"/>
<path d="M107.121 51.2694C106.424 51.2694 105.96 50.6867 105.96 50.1041V40.7814C105.96 32.5075 99.3405 25.8651 91.0953 25.8651C82.8501 25.8651 76.2308 32.5075 76.2308 40.7814V50.1041C76.2308 50.8033 75.6501 51.2694 75.0695 51.2694C74.3727 51.2694 73.9082 50.6867 73.9082 50.1041V40.7814C73.9082 31.2256 81.6888 23.5344 91.0953 23.5344C100.502 23.5344 108.282 31.2256 108.282 40.7814V50.1041C108.282 50.6867 107.818 51.2694 107.121 51.2694Z" fill="#A7B5C7"/>
<path d="M74.6059 59.5434C72.5155 58.6111 71.0059 56.5135 71.0059 54.0663V50.6869C71.0059 47.4239 73.6768 44.7437 76.9284 44.7437V60.0096" fill="#CAD1E0"/>
<path d="M105.381 60.0094H105.497C108.632 60.0094 111.303 57.4456 111.303 54.1827V50.4536C111.303 47.3072 108.749 44.627 105.497 44.627H105.381V60.0094Z" fill="#CAD1E0"/>
<path d="M103.29 27.0304C103.29 27.1469 103.173 27.2635 103.057 27.38L100.386 30.1768C100.27 30.2933 100.154 30.4099 99.9218 30.4099C99.6895 30.4099 99.5734 30.4099 99.3411 30.2933C98.5282 29.5941 97.5992 29.0115 96.6702 28.6619C94.9282 27.8461 92.954 27.38 90.9798 27.38C87.8443 27.38 84.9411 28.4288 82.6185 30.2933C82.6185 30.2933 82.5024 30.2933 82.5024 30.4099C82.2702 30.6429 81.8056 30.6429 81.5734 30.4099L78.7863 27.7296C78.4379 27.38 78.554 26.9139 78.7863 26.6808C82.0379 23.884 86.3347 22.136 90.9798 22.136C95.5089 22.136 99.6895 23.7675 102.941 26.4477C103.29 26.4477 103.29 26.7973 103.29 27.0304Z" fill="#EAEEF9"/>
<path d="M116.18 94.7363C116.18 96.8339 115.367 98.6984 113.974 100.097C112.58 101.495 110.722 102.311 108.632 102.311H71.7027C67.522 102.311 64.1543 98.9315 64.1543 94.7363C64.1543 92.6387 64.9672 90.7742 66.3608 89.3758C67.7543 87.9774 69.6124 87.1616 71.7027 87.1616H108.516C112.696 87.1616 116.18 90.5411 116.18 94.7363Z" fill="#6154F9"/>
<path d="M104.8 102.428H90.7481L83.8965 95.4355L88.5416 94.3867L94.9287 94.0371L96.5546 94.1536L104.8 102.428Z" fill="#2D61A4"/>
<path d="M96.5553 95.319L94.1166 97.7662C93.8843 97.9993 93.4198 97.9993 92.9553 97.7662C92.723 97.5331 92.723 97.067 92.9553 96.6009L94.1166 95.4355H84.2456C83.7811 95.4355 83.5488 95.0859 83.5488 94.7363C83.5488 94.3867 83.8972 94.0371 84.2456 94.0371H94.1166L92.9553 92.8718C92.723 92.6387 92.723 92.1726 92.9553 91.7065C93.1875 91.4734 93.3037 91.4734 93.5359 91.4734C93.7682 91.4734 93.8843 91.5899 94.1166 91.7065L96.5553 94.1537C96.7875 94.3867 96.7875 94.5033 96.7875 94.7363C96.7875 94.9694 96.6714 95.2025 96.5553 95.319Z" fill="#DFF6FD"/>
<g filter="url(#filter2_d)">
<path d="M66.6301 84.6358H24.8236C23.5462 84.6358 22.6172 83.587 22.6172 82.4217V71.1179C22.6172 69.8361 23.6623 68.9038 24.8236 68.9038H66.6301C67.9075 68.9038 68.8365 69.9526 68.8365 71.1179V82.4217C68.8365 83.587 67.7914 84.6358 66.6301 84.6358Z" fill="white"/>
<g filter="url(#filter3_d)">
<path d="M30.7463 80.5572C32.8628 80.5572 34.5786 78.8354 34.5786 76.7116C34.5786 74.5877 32.8628 72.866 30.7463 72.866C28.6298 72.866 26.9141 74.5877 26.9141 76.7116C26.9141 78.8354 28.6298 80.5572 30.7463 80.5572Z" fill="url(#paint1_linear)"/>
</g>
<path d="M30.7457 78.6926C31.836 78.6926 32.7199 77.8057 32.7199 76.7115C32.7199 75.6174 31.836 74.7305 30.7457 74.7305C29.6554 74.7305 28.7715 75.6174 28.7715 76.7115C28.7715 77.8057 29.6554 78.6926 30.7457 78.6926Z" fill="white"/>
<path d="M40.7335 79.3918C42.2086 79.3918 43.4044 78.1918 43.4044 76.7115C43.4044 75.2312 42.2086 74.0312 40.7335 74.0312C39.2583 74.0312 38.0625 75.2312 38.0625 76.7115C38.0625 78.1918 39.2583 79.3918 40.7335 79.3918Z" fill="#EAEEF9"/>
<path d="M50.7198 79.3918C52.1949 79.3918 53.3908 78.1918 53.3908 76.7115C53.3908 75.2312 52.1949 74.0312 50.7198 74.0312C49.2447 74.0312 48.0488 75.2312 48.0488 76.7115C48.0488 78.1918 49.2447 79.3918 50.7198 79.3918Z" fill="#6154F9"/>
<path d="M60.5909 79.3918C62.066 79.3918 63.2619 78.1918 63.2619 76.7115C63.2619 75.2312 62.066 74.0312 60.5909 74.0312C59.1158 74.0312 57.9199 75.2312 57.9199 76.7115C57.9199 78.1918 59.1158 79.3918 60.5909 79.3918Z" fill="#1C3754"/>
</g>
<defs>
<filter id="filter0_d" x="3.01953" y="8.45557" width="102.645" height="126.972" filterUnits="userSpaceOnUse" color-interpolation-filters="sRGB">
<feFlood flood-opacity="0" result="BackgroundImageFix"/>
<feColorMatrix in="SourceAlpha" type="matrix" values="0 0 0 0 0 0 0 0 0 0 0 0 0 0 0 0 0 0 127 0"/>
<feOffset dy="11"/>
<feGaussianBlur stdDeviation="11"/>
<feColorMatrix type="matrix" values="0 0 0 0 0.397708 0 0 0 0 0.47749 0 0 0 0 0.575 0 0 0 0.18 0"/>
<feBlend mode="normal" in2="BackgroundImageFix" result="effect1_dropShadow"/>
<feBlend mode="normal" in="SourceGraphic" in2="effect1_dropShadow" result="shape"/>
</filter>
<filter id="filter1_d" x="34.0254" y="0.880859" width="114.258" height="143.287" filterUnits="userSpaceOnUse" color-interpolation-filters="sRGB">
<feFlood flood-opacity="0" result="BackgroundImageFix"/>
<feColorMatrix in="SourceAlpha" type="matrix" values="0 0 0 0 0 0 0 0 0 0 0 0 0 0 0 0 0 0 127 0"/>
<feOffset dy="11"/>
<feGaussianBlur stdDeviation="11"/>
<feColorMatrix type="matrix" values="0 0 0 0 0.397708 0 0 0 0 0.47749 0 0 0 0 0.575 0 0 0 0.18 0"/>
<feBlend mode="normal" in2="BackgroundImageFix" result="effect1_dropShadow"/>
<feBlend mode="normal" in="SourceGraphic" in2="effect1_dropShadow" result="shape"/>
</filter>
<filter id="filter2_d" x="0.617188" y="57.9038" width="90.2194" height="59.732" filterUnits="userSpaceOnUse" color-interpolation-filters="sRGB">
<feFlood flood-opacity="0" result="BackgroundImageFix"/>
<feColorMatrix in="SourceAlpha" type="matrix" values="0 0 0 0 0 0 0 0 0 0 0 0 0 0 0 0 0 0 127 0"/>
<feOffset dy="11"/>
<feGaussianBlur stdDeviation="11"/>
<feColorMatrix type="matrix" values="0 0 0 0 0.397708 0 0 0 0 0.47749 0 0 0 0 0.575 0 0 0 0.18 0"/>
<feBlend mode="normal" in2="BackgroundImageFix" result="effect1_dropShadow"/>
<feBlend mode="normal" in="SourceGraphic" in2="effect1_dropShadow" result="shape"/>
</filter>
<filter id="filter3_d" x="18.9141" y="69.866" width="23.6645" height="23.6912" filterUnits="userSpaceOnUse" color-interpolation-filters="sRGB">
<feFlood flood-opacity="0" result="BackgroundImageFix"/>
<feColorMatrix in="SourceAlpha" type="matrix" values="0 0 0 0 0 0 0 0 0 0 0 0 0 0 0 0 0 0 127 0"/>
<feOffset dy="5"/>
<feGaussianBlur stdDeviation="4"/>
<feColorMatrix type="matrix" values="0 0 0 0 0.968627 0 0 0 0 0.254902 0 0 0 0 0.564706 0 0 0 0.3 0"/>
<feBlend mode="normal" in2="BackgroundImageFix" result="effect1_dropShadow"/>
<feBlend mode="normal" in="SourceGraphic" in2="effect1_dropShadow" result="shape"/>
</filter>
<linearGradient id="paint0_linear" x1="94.1639" y1="4.93581" x2="97.2733" y2="4.93581" gradientUnits="userSpaceOnUse">
<stop stop-color="#FF66A9"/>
<stop offset="1" stop-color="#F53689"/>
</linearGradient>
<linearGradient id="paint1_linear" x1="26.9549" y1="76.6926" x2="34.6304" y2="76.6926" gradientUnits="userSpaceOnUse">
<stop stop-color="#FF66A9"/>
<stop offset="1" stop-color="#F53689"/>
</linearGradient>
</defs>
</svg>
