<?xml version="1.0" encoding="utf-8"?>
<!-- Generator: Adobe Illustrator 25.2.1, SVG Export Plug-In . SVG Version: 6.00 Build 0)  -->
<svg version="1.1" xmlns="http://www.w3.org/2000/svg" xmlns:xlink="http://www.w3.org/1999/xlink" x="0px" y="0px"
	 viewBox="0 0 414 79" style="enable-background:new 0 0 414 79;" xml:space="preserve">
<style type="text/css">
	.st0{fill:#362F4A;}
	.st1{fill:#FFFFFF;}
	.st2{clip-path:url(#SVGID_2_);}
	.st3{clip-path:url(#SVGID_4_);}
	.st4{fill:#6154F9;}
</style>
<g id="Layer_1">
	<rect class="st0" width="414" height="79"/>
	<path class="st1" d="M29.5,29h29c0.8,0,1.5,0.7,1.5,1.5l0,0c0,0.8-0.7,1.5-1.5,1.5h-29c-0.8,0-1.5-0.7-1.5-1.5l0,0
		C28,29.7,28.7,29,29.5,29z"/>
	<path class="st1" d="M29.5,38h29c0.8,0,1.5,0.7,1.5,1.5l0,0c0,0.8-0.7,1.5-1.5,1.5h-29c-0.8,0-1.5-0.7-1.5-1.5l0,0
		C28,38.7,28.7,38,29.5,38z"/>
	<path class="st1" d="M29.5,47h29c0.8,0,1.5,0.7,1.5,1.5l0,0c0,0.8-0.7,1.5-1.5,1.5h-29c-0.8,0-1.5-0.7-1.5-1.5l0,0
		C28,47.7,28.7,47,29.5,47z"/>
	<g>
		<defs>
			<rect id="SVGID_1_" x="346" y="27" width="26.8" height="26.8"/>
		</defs>
		<clipPath id="SVGID_2_">
			<use xlink:href="#SVGID_1_"  style="overflow:visible;"/>
		</clipPath>
		<g class="st2">
			<path class="st1" d="M368.8,34.1h-17.7l-0.4-1.8c-0.1-0.5-0.5-0.8-1-0.8h-3.6c-0.3,0-0.5,0.3-0.5,0.5v0.3c0,0.3,0.2,0.5,0.5,0.5
				h3.3l2.9,15.6c-0.4,0.5-0.7,1.1-0.7,1.8c0,1.5,1.2,2.7,2.7,2.7c1.5,0,2.7-1.2,2.7-2.7c0-0.4-0.2-1-0.4-1.3h6.1
				c-0.2,0.4-0.3,1-0.3,1.3c0,1.5,1.2,2.7,2.7,2.7c1.5,0,2.7-1.2,2.7-2.7c0-0.7-0.3-1.4-0.8-1.9c-0.1-0.5-0.5-0.8-1-0.8h-12.4
				l-0.5-2.7H367c0.5,0,0.9-0.3,1-0.8l1.8-8.7C370,34.7,369.5,34.1,368.8,34.1z M355.8,50.2c0,0.8-0.6,1.3-1.3,1.3
				c-0.8,0-1.3-0.6-1.3-1.3c0-0.7,0.6-1.3,1.3-1.3C355.2,48.9,355.8,49.5,355.8,50.2z M365.2,51.6c-0.8,0-1.3-0.6-1.3-1.3
				c0-0.7,0.6-1.3,1.3-1.3c0.7,0,1.3,0.6,1.3,1.3C366.5,51,365.9,51.6,365.2,51.6z M366.8,43.5h-13.9l-1.5-8h17L366.8,43.5z"/>
		</g>
	</g>
</g>
<g id="Layer_2">
	<g>
		<defs>
			<rect id="SVGID_3_" x="117.8" y="28.4" width="178" height="24"/>
		</defs>
		<clipPath id="SVGID_4_">
			<use xlink:href="#SVGID_3_"  style="overflow:visible;"/>
		</clipPath>
		<g class="st3">
			<path class="st1" d="M176.9,46.4l-3-5.1c1.4-0.3,2.9-1.6,2.9-4c0-2.5-1.7-4.3-4.5-4.3h-6.2v13.3h2.8v-4.7h2.1l2.6,4.7H176.9z
				 M171.9,39.2h-3v-3.6h3c1.1,0,2,0.7,2,1.8C173.9,38.5,173.1,39.2,171.9,39.2z M186.9,46.4v-6.2c0-2.8-2-3.7-4.2-3.7
				c-1.5,0-3,0.5-4.2,1.5l1,1.8c0.8-0.7,1.8-1.1,2.8-1.1c1.3,0,2.1,0.6,2.1,1.6v1.2c-0.6-0.8-1.8-1.2-3.1-1.2
				c-1.5,0-3.3,0.8-3.3,3.1c0,2.2,1.8,3.2,3.3,3.2c1.3,0,2.4-0.5,3.1-1.3v1H186.9z M182.3,44.9c-1,0-1.8-0.5-1.8-1.4
				c0-0.9,0.8-1.5,1.8-1.5c0.8,0,1.6,0.3,2,0.9v1.2C183.9,44.6,183.1,44.9,182.3,44.9z M198.8,46.4l-3.9-5.3l3.8-4.4h-3.1l-3.7,4.3
				v-8h-2.5v13.3h2.5v-2.5l1.2-1.2l2.6,3.7H198.8z M204.5,46.6c1.5,0,3-0.5,4-1.3l-1.1-1.7c-0.6,0.6-1.7,0.9-2.6,0.9
				c-1.6,0-2.6-1-2.8-2.2h7.2v-0.6c0-3.1-1.9-5.3-4.8-5.3c-2.9,0-5,2.3-5,5.1C199.3,44.7,201.5,46.6,204.5,46.6z M206.7,40.6H202
				c0.1-1,0.8-2.1,2.4-2.1C206,38.6,206.6,39.7,206.7,40.6z M214.2,46.6c1.1,0,1.7-0.3,2.1-0.6l-0.5-1.9c-0.1,0.2-0.5,0.3-0.9,0.3
				c-0.6,0-0.9-0.5-0.9-1.1V39h2v-2.2h-2v-2.6h-2.5v2.6h-1.6V39h1.6v5C211.5,45.7,212.5,46.6,214.2,46.6z M221.2,46.6
				c2.7,0,4.2-1.3,4.2-3.1c0-3.9-5.7-2.7-5.7-4.1c0-0.5,0.6-0.9,1.5-0.9c1.2,0,2.3,0.5,2.9,1.1l1-1.8c-1-0.8-2.3-1.3-3.9-1.3
				c-2.6,0-4,1.4-4,3c0,3.8,5.7,2.5,5.7,4.1c0,0.6-0.5,1-1.6,1c-1.2,0-2.6-0.7-3.3-1.3l-1.1,1.8C217.9,46.1,219.6,46.6,221.2,46.6z
				 M236.4,46.4v-6.9c0-1.9-1-3-3.1-3c-1.6,0-2.8,0.8-3.4,1.5v-4.9h-2.6v13.3h2.6v-6.5c0.4-0.6,1.2-1.1,2.2-1.1
				c1.1,0,1.8,0.4,1.8,1.8v5.9H236.4z M243.4,46.6c3.2,0,5.1-2.3,5.1-5.1c0-2.7-1.9-5.1-5.1-5.1c-3.2,0-5.1,2.3-5.1,5.1
				C238.3,44.3,240.2,46.6,243.4,46.6z M243.4,44.4c-1.6,0-2.5-1.3-2.5-2.8c0-1.5,0.9-2.8,2.5-2.8c1.6,0,2.5,1.3,2.5,2.8
				C245.8,43.1,245,44.4,243.4,44.4z M255.9,46.6c2.5,0,4.3-1.9,4.3-5.1c0-3.2-1.8-5.1-4.3-5.1c-1.2,0-2.2,0.5-3,1.5v-1.2h-2.5v13.3
				h2.5v-4.9C253.7,46.2,254.8,46.6,255.9,46.6z M255.1,44.4c-0.8,0-1.8-0.5-2.2-1.1v-3.4c0.4-0.6,1.4-1.1,2.2-1.1
				c1.5,0,2.5,1.1,2.5,2.8C257.6,43.2,256.6,44.4,255.1,44.4z M267.6,46.6c2.5,0,4.3-1.9,4.3-5.1c0-3.2-1.8-5.1-4.3-5.1
				c-1.2,0-2.2,0.5-3,1.5v-1.2H262v13.3h2.5v-4.9C265.4,46.2,266.4,46.6,267.6,46.6z M266.8,44.4c-0.8,0-1.8-0.5-2.2-1.1v-3.4
				c0.4-0.6,1.4-1.1,2.2-1.1c1.5,0,2.5,1.1,2.5,2.8C269.2,43.2,268.2,44.4,266.8,44.4z M278.2,46.6c1.5,0,3-0.5,4-1.3l-1.1-1.7
				c-0.6,0.6-1.7,0.9-2.6,0.9c-1.6,0-2.6-1-2.8-2.2h7.2v-0.6c0-3.1-1.9-5.3-4.8-5.3c-2.9,0-5,2.3-5,5.1
				C273.1,44.7,275.3,46.6,278.2,46.6z M280.5,40.6h-4.8c0.1-1,0.8-2.1,2.4-2.1C279.8,38.6,280.4,39.7,280.5,40.6z M293.8,46.4v-6.8
				c0-1.9-1-3.1-3.2-3.1c-1.6,0-2.8,0.8-3.4,1.5v-1.2h-2.5v9.7h2.5v-6.5c0.4-0.6,1.2-1.1,2.2-1.1c1.1,0,1.8,0.5,1.8,1.8v5.8H293.8z"
				/>
			<path class="st4" d="M158.2,41.9c0.6-0.8,0.6-2.2,0-3l-6.3-9c-0.6-0.8-1.9-1.5-2.9-1.5h-19.8c-1,0-1.4,0.7-0.8,1.5l6,9
				c0.6,0.8,0.6,2.2,0,3l-6,9c-0.6,0.8-0.2,1.5,0.8,1.5H149c1,0,2.3-0.7,2.9-1.5L158.2,41.9z M140.1,46.6c-1,0-1.4-0.7-0.8-1.5
				l2.1-3.2c0.6-0.8,0.6-2.2,0-3l-2.1-3.2c-0.6-0.8-0.2-1.5,0.8-1.5h5.7c1,0,2.3,0.7,2.9,1.5l2.3,3.2c0.6,0.8,0.6,2.2,0,3l-2.3,3.2
				c-0.6,0.8-1.9,1.5-2.9,1.5L140.1,46.6L140.1,46.6z"/>
			<path class="st1" d="M120.6,33.9c-1,0-1.8-0.5-1.8-1.3s0.8-1.3,1.8-1.3h5.2c1,0,1.8,0.5,1.8,1.3s-0.8,1.3-1.8,1.3H120.6z"/>
			<path class="st1" d="M120.6,49.6c-1,0-1.8-0.5-1.8-1.3c0-0.8,0.8-1.3,1.8-1.3h5.2c1,0,1.8,0.5,1.8,1.3c0,0.8-0.8,1.3-1.8,1.3
				H120.6z"/>
			<path class="st1" d="M120.6,41.7c-1,0-1.8-0.5-1.8-1.3c0-0.8,0.8-1.3,1.8-1.3h9.6c1,0,1.8,0.5,1.8,1.3c0,0.8-0.8,1.3-1.8,1.3
				H120.6z"/>
		</g>
	</g>
</g>
</svg>
