<svg width="418" height="721" viewBox="0 0 418 721" fill="none" xmlns="http://www.w3.org/2000/svg">
<g clip-path="url(#clip0)">
<rect width="418" height="721" fill="#F7F9FD"/>
<path d="M0 0H209H418V70.7456H0V0Z" fill="#362F4A"/>
<g clip-path="url(#clip1)">
<path d="M383.515 29.7535H365.676L365.295 28.0124C365.211 27.5771 364.788 27.2209 364.323 27.2209H360.73C360.434 27.2209 360.223 27.4584 360.223 27.6958V28.0124C360.223 28.2894 360.434 28.4872 360.73 28.4872H364.027L366.986 43.2471C366.564 43.722 366.31 44.3155 366.31 44.9487C366.31 46.3732 367.493 47.4812 369.015 47.4812C370.495 47.4812 371.721 46.3732 371.721 44.9487C371.721 44.5925 371.552 44.0385 371.34 43.6824H377.47C377.258 44.0385 377.132 44.5925 377.132 44.9487C377.132 46.3732 378.315 47.4812 379.837 47.4812C381.317 47.4812 382.542 46.3732 382.542 44.9487C382.542 44.276 382.204 43.6033 381.697 43.168C381.612 42.7327 381.19 42.4161 380.725 42.4161H368.212L367.705 39.8836H381.697C382.204 39.8836 382.585 39.6066 382.712 39.1318L384.529 30.901C384.656 30.3075 384.191 29.7535 383.515 29.7535ZM370.368 44.9487C370.368 45.6609 369.734 46.2149 369.015 46.2149C368.254 46.2149 367.663 45.6609 367.663 44.9487C367.663 44.276 368.254 43.6824 369.015 43.6824C369.734 43.6824 370.368 44.276 370.368 44.9487ZM379.837 46.2149C379.076 46.2149 378.484 45.6609 378.484 44.9487C378.484 44.276 379.076 43.6824 379.837 43.6824C380.556 43.6824 381.19 44.276 381.19 44.9487C381.19 45.6609 380.556 46.2149 379.837 46.2149ZM381.443 38.6173H367.451L365.929 31.0197H383.134L381.443 38.6173Z" fill="white"/>
</g>
<rect x="81.7812" y="509.99" width="252.415" height="44.4214" rx="5" fill="#4281C4"/>
<rect x="118.129" y="470.294" width="179.72" height="12.2868" rx="6.14339" fill="#D8DBDE"/>
<rect x="89.8594" y="444.776" width="236.261" height="12.2868" rx="6.14339" fill="#D8DBDE"/>
<rect x="73.707" y="412" width="268.57" height="20" rx="9" fill="#362F4A"/>
<rect x="30.2891" y="25" width="32.3092" height="2.83541" rx="1.41771" fill="white"/>
<rect x="30.2891" y="33.5063" width="32.3092" height="2.83541" rx="1.41771" fill="white"/>
<rect x="30.2891" y="42.0125" width="32.3092" height="2.83541" rx="1.41771" fill="white"/>
<path d="M182.834 41.4223L179.516 36.3261C181.109 35.985 182.746 34.721 182.746 32.3535C182.746 29.8656 180.866 28.0397 177.791 28.0397H170.889V41.4223H174.03V36.6672H176.331L179.229 41.4223H182.834ZM177.326 34.1592H174.03V30.5477H177.326C178.587 30.5477 179.538 31.2299 179.538 32.3535C179.538 33.477 178.587 34.1592 177.326 34.1592Z" fill="white"/>
<path d="M189.323 41.6631C192.862 41.6631 194.986 39.3357 194.986 36.5669C194.986 33.8181 192.862 31.4907 189.323 31.4907C185.805 31.4907 183.682 33.8181 183.682 36.5669C183.682 39.3357 185.805 41.6631 189.323 41.6631ZM189.323 39.3959C187.575 39.3959 186.602 38.0917 186.602 36.5669C186.602 35.0621 187.575 33.7579 189.323 33.7579C191.07 33.7579 192.066 35.0621 192.066 36.5669C192.066 38.0917 191.07 39.3959 189.323 39.3959Z" fill="white"/>
<path d="M202.048 41.6631C204.238 41.6631 205.565 40.8003 206.273 39.8974L204.437 38.3525C203.928 38.9946 203.154 39.3959 202.18 39.3959C200.477 39.3959 199.282 38.2522 199.282 36.5669C199.282 34.8815 200.477 33.7579 202.18 33.7579C203.154 33.7579 203.928 34.1191 204.437 34.8012L206.273 33.2363C205.565 32.3535 204.238 31.4907 202.048 31.4907C198.751 31.4907 196.384 33.5974 196.384 36.5669C196.384 39.5564 198.751 41.6631 202.048 41.6631Z" fill="white"/>
<path d="M218.551 41.4223L214.193 36.1255L218.418 31.7315H214.967L210.919 36.0452V28.0397H208.109V41.4223H210.919V38.9344L212.202 37.6904L215.033 41.4223H218.551Z" fill="white"/>
<path d="M224.84 41.6631C226.499 41.6631 228.18 41.2016 229.242 40.3188L228.003 38.6736C227.318 39.2755 226.057 39.6366 225.15 39.6366C223.336 39.6366 222.252 38.6134 222.075 37.3895H230.016V36.8277C230.016 33.6576 227.848 31.4907 224.663 31.4907C221.411 31.4907 219.133 33.7579 219.133 36.5669C219.133 39.6767 221.588 41.6631 224.84 41.6631ZM227.295 35.664H222.03C222.163 34.7009 222.915 33.5172 224.663 33.5172C226.521 33.5172 227.229 34.7411 227.295 35.664Z" fill="white"/>
<path d="M235.629 41.6631C236.802 41.6631 237.554 41.3822 237.974 41.0411L237.377 39.115C237.222 39.2554 236.824 39.3959 236.404 39.3959C235.784 39.3959 235.43 38.9344 235.43 38.3325V33.9586H237.598V31.7315H235.43V29.0831H232.599V31.7315H230.829V33.9586H232.599V39.0146C232.599 40.7401 233.661 41.6631 235.629 41.6631Z" fill="white"/>
<path d="M250.49 41.6631C254.472 41.6631 256.396 39.8172 256.396 37.3694C256.396 32.3735 247.924 33.7981 247.924 31.6713C247.924 30.8687 248.676 30.327 250.025 30.327C251.529 30.327 253.122 30.7885 254.317 31.7917L256.064 29.705C254.604 28.4812 252.658 27.8391 250.313 27.8391C246.84 27.8391 244.716 29.685 244.716 31.9121C244.716 36.9481 253.211 35.3229 253.211 37.6904C253.211 38.4529 252.37 39.1751 250.645 39.1751C248.609 39.1751 246.994 38.3525 245.955 37.3694L244.251 39.5363C245.623 40.8003 247.658 41.6631 250.49 41.6631Z" fill="white"/>
<path d="M268.488 41.4223V34.5404C268.488 32.6544 267.36 31.4907 265.015 31.4907C263.267 31.4907 261.94 32.2531 261.254 32.9955V28.0397H258.445V41.4223H261.254V34.9016C261.741 34.3197 262.604 33.7579 263.688 33.7579C264.904 33.7579 265.679 34.1793 265.679 35.5235V41.4223H268.488Z" fill="white"/>
<path d="M276.232 41.6631C279.772 41.6631 281.895 39.3357 281.895 36.5669C281.895 33.8181 279.772 31.4907 276.232 31.4907C272.715 31.4907 270.591 33.8181 270.591 36.5669C270.591 39.3357 272.715 41.6631 276.232 41.6631ZM276.232 39.3959C274.485 39.3959 273.511 38.0917 273.511 36.5669C273.511 35.0621 274.485 33.7579 276.232 33.7579C277.98 33.7579 278.975 35.0621 278.975 36.5669C278.975 38.0917 277.98 39.3959 276.232 39.3959Z" fill="white"/>
<path d="M290.085 41.6631C292.828 41.6631 294.819 39.7971 294.819 36.5669C294.819 33.3366 292.828 31.4907 290.085 31.4907C288.78 31.4907 287.608 32.0124 286.789 32.9554V31.7315H283.98V45.114H286.789V40.1783C287.652 41.1815 288.824 41.6631 290.085 41.6631ZM289.2 39.3959C288.293 39.3959 287.254 38.8943 286.789 38.2923V34.8614C287.254 34.2395 288.293 33.7579 289.2 33.7579C290.815 33.7579 291.899 34.9016 291.899 36.5669C291.899 38.2522 290.815 39.3959 289.2 39.3959Z" fill="white"/>
<path d="M162.957 36.7519C163.535 35.9768 163.535 34.708 162.957 33.9322L156.604 25.4098C156.025 24.634 154.712 24 153.686 24L133.719 24C132.693 24 132.312 24.6435 132.872 25.4287L138.922 33.9125C139.482 34.6985 139.482 35.9848 138.922 36.7708L132.872 45.2545C132.311 46.0405 132.693 46.6833 133.719 46.6833L153.686 46.6833C154.712 46.6833 156.025 46.0485 156.604 45.2734L162.957 36.7519ZM144.741 41.2264C143.714 41.2264 143.333 40.5837 143.893 39.7977L146.051 36.7715C146.612 35.9855 146.612 34.6993 146.051 33.9133L143.893 30.8871C143.333 30.1011 143.714 29.4583 144.741 29.4583L150.528 29.4583C151.554 29.4583 152.867 30.0924 153.445 30.8682L155.73 33.9329C156.308 34.708 156.308 35.9768 155.73 36.7526L153.445 39.8173C152.867 40.5924 151.554 41.2271 150.528 41.2271L144.741 41.2271L144.741 41.2264Z" fill="#6154F9"/>
<path d="M125.042 29.1618C124.015 29.1618 123.175 28.6761 123.175 27.9258C123.175 27.1754 124.015 26.6897 125.042 26.6897L130.268 26.6897C131.295 26.6897 132.135 27.1754 132.135 27.9258C132.135 28.6761 131.295 29.1618 130.268 29.1618L125.042 29.1618Z" fill="white"/>
<path d="M125.042 43.9946C124.015 43.9946 123.175 43.5089 123.175 42.7585C123.175 42.0074 124.015 41.5225 125.042 41.5225L130.268 41.5225C131.295 41.5225 132.135 42.0074 132.135 42.7585C132.135 43.5089 131.295 43.9946 130.268 43.9946L125.042 43.9946Z" fill="white"/>
<path d="M125.043 36.5783C124.016 36.5783 123.176 36.0926 123.176 35.3423C123.176 34.5919 124.016 34.1062 125.043 34.1062L134.749 34.1062C135.775 34.1062 136.615 34.5919 136.615 35.3423C136.615 36.0926 135.775 36.5783 134.749 36.5783L125.043 36.5783Z" fill="white"/>
<g filter="url(#filter0_dd)">
<rect x="32.3086" y="592.217" width="168.614" height="96.404" rx="8" fill="white"/>
<rect x="122.301" y="628.132" width="58.7305" height="8.50623" rx="4.25312" fill="#D8DBDE"/>
<rect x="123.246" y="643.254" width="39.7852" height="8.50623" rx="4.25312" fill="#D8DBDE"/>
</g>
<path d="M41.3945 628.884C41.3945 628.867 41.3945 628.85 41.3945 628.85C41.4128 628.816 41.4492 628.765 41.4492 628.73C41.668 627.773 41.905 626.833 42.0873 625.859C42.4519 623.911 42.7618 621.945 43.0899 619.997C43.6186 617.023 44.366 614.1 45.551 611.28C45.8609 610.545 46.1708 609.793 46.663 609.127C47.7204 607.674 49.1423 606.683 50.8924 606.068C53.2441 605.247 55.5958 604.41 57.9292 603.555C59.6976 602.906 61.4477 602.205 63.1977 601.521C63.3071 601.47 63.3983 601.368 63.5077 601.299C63.7629 601.18 64.0181 601.077 64.2186 600.838C64.3462 600.65 64.5103 600.462 64.7108 600.359C65.0025 600.205 65.3307 600.069 65.6588 600.017C66.0052 599.966 66.388 599.915 66.6797 600.24C66.8073 600.376 66.9714 600.479 67.1537 600.564C67.6641 600.769 68.1746 600.992 68.7032 601.128C70.9091 601.692 73.1696 601.863 75.4484 601.914C77.3625 601.949 79.2767 601.761 81.1544 601.385C82.7951 601.06 84.4176 600.667 85.8031 599.778C85.9489 599.864 86.0948 599.915 86.2042 600C86.4229 600.154 86.6417 600.325 86.8422 600.479C86.9698 600.564 87.0974 600.65 87.1886 600.752C87.3526 600.974 87.5532 601.145 87.8266 601.231C87.936 601.265 87.9907 601.333 87.9542 601.453C87.8995 601.573 87.9725 601.624 88.0819 601.675C88.2824 601.761 88.4829 601.846 88.6834 601.932C91.8008 603.077 94.9364 604.239 98.0537 605.384C99.2022 605.811 100.387 606.153 101.463 606.751C102.939 607.589 104.124 608.683 104.799 610.187C105.236 611.144 105.637 612.118 106.002 613.109C106.968 615.792 107.552 618.578 108.007 621.381C108.427 623.876 108.809 626.355 109.429 628.816C109.448 628.867 109.393 628.97 109.338 629.004C109.192 629.072 109.028 629.123 108.864 629.175C107.57 629.499 106.294 629.807 104.999 630.132C103.906 630.422 102.812 630.764 101.718 631.038C100.606 631.311 99.4574 631.465 98.3089 631.431C97.7803 631.414 97.2881 631.243 96.8141 631.003C96.6318 630.901 96.4495 630.781 96.4859 630.542C96.4495 630.593 96.4312 630.662 96.4312 630.713C96.413 631.26 96.3948 631.79 96.3766 632.337C96.3401 633.277 96.3583 634.234 96.2854 635.174C96.2489 635.669 96.012 636.165 95.9208 636.661C95.7932 637.413 95.6838 638.182 95.6109 638.951C95.5015 640.25 95.4286 641.566 95.3557 642.882C95.2827 644.334 95.2098 645.77 95.1734 647.223C95.1551 647.804 95.1734 648.385 95.2281 648.966C95.3374 649.974 95.4833 650.966 95.5927 651.974C95.7203 652.983 95.7932 653.991 95.939 654.982C96.3401 657.631 96.6135 660.297 96.7594 662.981C96.8141 663.904 96.7776 664.827 96.8141 665.75C96.8688 667.031 97.2151 668.262 97.5797 669.475C97.6527 669.715 97.762 669.954 97.7985 670.193C97.8897 670.843 97.9443 671.509 97.999 672.176C98.1266 673.543 98.2543 674.893 98.3636 676.261C98.4366 677.149 98.4912 678.038 98.5459 678.91C98.5642 679.046 98.5095 679.149 98.3636 679.2C97.8897 679.422 97.4339 679.679 96.9599 679.867C94.8817 680.687 92.6758 681.012 90.47 681.268C88.7381 681.456 87.0245 681.559 85.2744 681.61C83.8342 681.661 82.3941 681.747 80.9539 681.815C79.6231 681.883 78.2741 681.952 76.9433 681.986C73.8441 682.071 70.745 681.849 67.6641 681.695C65.7135 681.61 63.7629 681.525 61.8123 681.388C60.0986 681.268 58.4032 681.046 56.7443 680.687C55.377 680.397 54.0645 679.986 52.843 679.354C52.4784 679.166 52.3326 678.927 52.3508 678.551C52.3508 678.534 52.3508 678.517 52.3508 678.482C52.4237 677.371 52.4784 676.243 52.5878 675.133C52.7154 673.868 52.8795 672.603 53.0436 671.338C53.1347 670.672 53.2259 670.005 53.3899 669.339C53.6087 668.364 53.9004 667.39 54.1009 666.399C54.1921 665.92 54.1374 665.425 54.1738 664.929C54.2468 663.699 54.3015 662.468 54.4108 661.22C54.5202 659.853 54.6843 658.469 54.8301 657.101C54.9395 656.059 55.0853 655.016 55.1947 653.974C55.3406 652.709 55.4682 651.444 55.614 650.18C55.6869 649.479 55.8328 648.761 55.8328 648.06C55.8328 646.813 55.7781 645.565 55.7234 644.317C55.6322 642.318 55.5229 640.301 55.3953 638.301C55.3588 637.806 55.2494 637.31 55.1583 636.831C55.1036 636.524 54.9942 636.216 54.9942 635.909C54.976 634.849 55.0124 633.772 55.0124 632.713C55.0124 631.909 54.8666 631.106 54.6843 630.269C54.5567 630.371 54.3744 630.457 54.3561 630.542C54.3379 630.798 54.1738 630.901 53.9915 631.003C53.4811 631.277 52.916 631.414 52.3144 631.414C50.7283 631.414 49.197 631.106 47.7022 630.679C45.9885 630.2 44.3296 629.619 42.5613 629.277C42.1967 629.175 41.7956 629.004 41.3945 628.884Z" fill="#362F4A"/>
<path d="M85.3773 623.302C85.6399 622.941 85.6399 622.35 85.3773 621.989L82.4892 618.021C82.2262 617.659 81.6294 617.364 81.1628 617.364L72.0869 617.364C71.6203 617.364 71.447 617.664 71.7017 618.03L74.4516 621.98C74.7062 622.346 74.7062 622.945 74.4516 623.311L71.7017 627.261C71.4467 627.627 71.6203 627.927 72.0869 627.927L81.1628 627.927C81.6294 627.927 82.2262 627.631 82.4892 627.27L85.3773 623.302ZM77.0967 625.386C76.6301 625.386 76.4568 625.086 76.7115 624.72L77.6924 623.311C77.9474 622.945 77.9474 622.346 77.6924 621.98L76.7115 620.571C76.4568 620.205 76.6301 619.906 77.0967 619.906L79.7273 619.906C80.1938 619.906 80.7906 620.201 81.0532 620.562L82.092 621.99C82.355 622.35 82.355 622.941 82.092 623.303L81.0532 624.73C80.7906 625.091 80.1938 625.386 79.7273 625.386L77.0967 625.386L77.0967 625.386Z" fill="white"/>
<path d="M68.1411 619.768C67.6745 619.768 67.2926 619.542 67.2926 619.192C67.2926 618.843 67.6745 618.617 68.1411 618.617L70.5167 618.617C70.9833 618.617 71.3652 618.843 71.3652 619.192C71.3652 619.542 70.9833 619.768 70.5167 619.768L68.1411 619.768Z" fill="white"/>
<path d="M68.1411 626.675C67.6745 626.675 67.2926 626.448 67.2926 626.099C67.2926 625.749 67.6745 625.523 68.1411 625.523L70.5167 625.523C70.9833 625.523 71.3652 625.749 71.3652 626.099C71.3652 626.448 70.9833 626.675 70.5167 626.675L68.1411 626.675Z" fill="white"/>
<path d="M68.1419 623.221C67.6753 623.221 67.2933 622.995 67.2933 622.646C67.2933 622.296 67.6753 622.07 68.1419 622.07L72.5538 622.07C73.0204 622.07 73.4023 622.296 73.4023 622.646C73.4023 622.995 73.0204 623.221 72.5538 623.221L68.1419 623.221Z" fill="white"/>
<g filter="url(#filter1_dd)">
<rect x="214.047" y="592.217" width="171.642" height="96.404" rx="8" fill="white"/>
<rect x="305.656" y="628.132" width="59.7854" height="8.50623" rx="4.25312" fill="#D8DBDE"/>
<rect x="306.619" y="643.254" width="40.4998" height="8.50623" rx="4.25312" fill="#D8DBDE"/>
</g>
<path d="M225.156 627.939C225.156 627.922 225.156 627.905 225.156 627.905C225.174 627.871 225.211 627.819 225.211 627.785C225.43 626.828 225.667 625.888 225.849 624.914C226.214 622.966 226.524 621 226.852 619.052C227.38 616.078 228.128 613.155 229.313 610.335C229.623 609.6 229.933 608.848 230.425 608.182C231.482 606.729 232.904 605.738 234.654 605.123C237.006 604.302 239.358 603.465 241.691 602.61C243.459 601.961 245.209 601.26 246.959 600.576C247.069 600.525 247.16 600.422 247.269 600.354C247.525 600.234 247.78 600.132 247.98 599.893C248.108 599.705 248.272 599.517 248.473 599.414C248.764 599.26 249.092 599.124 249.421 599.072C249.767 599.021 250.15 598.97 250.441 599.294C250.569 599.431 250.733 599.534 250.915 599.619C251.426 599.824 251.936 600.046 252.465 600.183C254.671 600.747 256.931 600.918 259.21 600.969C261.124 601.004 263.038 600.816 264.916 600.44C266.557 600.115 268.179 599.722 269.565 598.833C269.711 598.918 269.856 598.97 269.966 599.055C270.185 599.209 270.403 599.38 270.604 599.534C270.732 599.619 270.859 599.705 270.95 599.807C271.114 600.029 271.315 600.2 271.588 600.286C271.698 600.32 271.752 600.388 271.716 600.508C271.661 600.628 271.734 600.679 271.844 600.73C272.044 600.816 272.245 600.901 272.445 600.986C275.563 602.132 278.698 603.294 281.815 604.439C282.964 604.866 284.149 605.208 285.224 605.806C286.701 606.644 287.886 607.737 288.561 609.241C288.998 610.199 289.399 611.173 289.764 612.164C290.73 614.847 291.313 617.633 291.769 620.436C292.188 622.931 292.571 625.41 293.191 627.871C293.209 627.922 293.155 628.025 293.1 628.059C292.954 628.127 292.79 628.178 292.626 628.23C291.332 628.554 290.055 628.862 288.761 629.187C287.667 629.477 286.574 629.819 285.48 630.093C284.368 630.366 283.219 630.52 282.071 630.486C281.542 630.469 281.05 630.298 280.576 630.058C280.393 629.956 280.211 629.836 280.248 629.597C280.211 629.648 280.193 629.717 280.193 629.768C280.175 630.315 280.157 630.845 280.138 631.391C280.102 632.331 280.12 633.289 280.047 634.229C280.011 634.724 279.774 635.22 279.683 635.716C279.555 636.468 279.446 637.237 279.373 638.006C279.263 639.305 279.19 640.621 279.117 641.937C279.044 643.389 278.972 644.825 278.935 646.278C278.917 646.859 278.935 647.44 278.99 648.021C279.099 649.029 279.245 650.021 279.354 651.029C279.482 652.037 279.555 653.046 279.701 654.037C280.102 656.686 280.375 659.352 280.521 662.036C280.576 662.959 280.539 663.882 280.576 664.804C280.63 666.086 280.977 667.317 281.341 668.53C281.414 668.77 281.524 669.009 281.56 669.248C281.651 669.898 281.706 670.564 281.761 671.231C281.888 672.598 282.016 673.948 282.125 675.315C282.198 676.204 282.253 677.093 282.308 677.965C282.326 678.101 282.271 678.204 282.125 678.255C281.651 678.477 281.196 678.734 280.722 678.922C278.643 679.742 276.438 680.067 274.232 680.323C272.5 680.511 270.786 680.614 269.036 680.665C267.596 680.716 266.156 680.802 264.716 680.87C263.385 680.938 262.036 681.007 260.705 681.041C257.606 681.126 254.507 680.904 251.426 680.75C249.475 680.665 247.525 680.58 245.574 680.443C243.86 680.323 242.165 680.101 240.506 679.742C239.139 679.452 237.826 679.041 236.605 678.409C236.24 678.221 236.094 677.982 236.113 677.606C236.113 677.589 236.113 677.571 236.113 677.537C236.185 676.426 236.24 675.298 236.35 674.187C236.477 672.923 236.641 671.658 236.805 670.393C236.896 669.727 236.988 669.06 237.152 668.394C237.37 667.419 237.662 666.445 237.863 665.454C237.954 664.975 237.899 664.48 237.936 663.984C238.008 662.754 238.063 661.523 238.173 660.275C238.282 658.908 238.446 657.524 238.592 656.156C238.701 655.114 238.847 654.071 238.956 653.029C239.102 651.764 239.23 650.499 239.376 649.235C239.449 648.534 239.594 647.816 239.594 647.115C239.594 645.868 239.54 644.62 239.485 643.372C239.394 641.373 239.285 639.356 239.157 637.356C239.121 636.861 239.011 636.365 238.92 635.886C238.865 635.579 238.756 635.271 238.756 634.963C238.738 633.904 238.774 632.827 238.774 631.767C238.774 630.964 238.628 630.161 238.446 629.323C238.318 629.426 238.136 629.511 238.118 629.597C238.1 629.853 237.936 629.956 237.753 630.058C237.243 630.332 236.678 630.469 236.076 630.469C234.49 630.469 232.959 630.161 231.464 629.734C229.75 629.255 228.091 628.674 226.323 628.332C225.958 628.23 225.557 628.059 225.156 627.939Z" fill="#362F4A"/>
<path d="M269.135 622.357C269.398 621.996 269.398 621.405 269.135 621.044L266.247 617.075C265.984 616.714 265.387 616.419 264.921 616.419L255.845 616.419C255.378 616.419 255.205 616.719 255.459 617.084L258.209 621.035C258.464 621.401 258.464 622 258.209 622.366L255.459 626.316C255.204 626.682 255.378 626.981 255.845 626.981L264.921 626.981C265.387 626.981 265.984 626.686 266.247 626.325L269.135 622.357ZM260.854 624.44C260.388 624.44 260.215 624.141 260.469 623.775L261.45 622.366C261.705 622 261.705 621.401 261.45 621.035L260.469 619.626C260.215 619.26 260.388 618.961 260.854 618.961L263.485 618.961C263.952 618.961 264.548 619.256 264.811 619.617L265.85 621.044C266.113 621.405 266.113 621.996 265.85 622.357L264.811 623.784C264.548 624.145 263.952 624.441 263.485 624.441L260.854 624.441L260.854 624.44Z" fill="white"/>
<path d="M251.899 618.823C251.432 618.823 251.05 618.597 251.05 618.247C251.05 617.898 251.432 617.672 251.899 617.672L254.275 617.672C254.741 617.672 255.123 617.898 255.123 618.247C255.123 618.597 254.741 618.823 254.275 618.823L251.899 618.823Z" fill="white"/>
<path d="M251.899 625.729C251.432 625.729 251.05 625.503 251.05 625.154C251.05 624.804 251.432 624.578 251.899 624.578L254.275 624.578C254.741 624.578 255.123 624.804 255.123 625.154C255.123 625.503 254.741 625.729 254.275 625.729L251.899 625.729Z" fill="white"/>
<path d="M251.9 622.276C251.433 622.276 251.051 622.05 251.051 621.7C251.051 621.351 251.433 621.125 251.9 621.125L256.312 621.125C256.778 621.125 257.16 621.351 257.16 621.7C257.16 622.05 256.778 622.276 256.312 622.276L251.9 622.276Z" fill="white"/>
<g filter="url(#filter2_bd)">
<rect x="21" y="109" width="374.654" height="262.592" rx="18" fill="#362F4A"/>
<path d="M263.228 160.102H257.244V164.023H263.228V160.102Z" fill="#B3BFCF"/>
<path d="M263.228 160.102H257.244V161.801H263.228V160.102Z" fill="#9FADBF"/>
<path d="M240.332 168.074L237.08 171.341L239.422 173.694L242.674 170.427L240.332 168.074Z" fill="#B3BFCF"/>
<path d="M278.574 170.165L281.826 173.432L283.908 171.341L280.656 168.074L278.574 170.165Z" fill="#B3BFCF"/>
<g filter="url(#filter3_d)">
<path d="M260.624 221.654C276.624 221.654 289.632 208.586 289.632 192.512C289.632 176.438 276.624 163.37 260.624 163.37C244.623 163.37 231.615 176.438 231.615 192.512C231.615 208.586 244.623 221.654 260.624 221.654Z" fill="#F0F3F9"/>
<path d="M260.624 221.654C276.624 221.654 289.632 208.586 289.632 192.512C289.632 176.438 276.624 163.37 260.624 163.37C244.623 163.37 231.615 176.438 231.615 192.512C231.615 208.586 244.623 221.654 260.624 221.654Z" stroke="#CDD5E4" stroke-width="0.5522" stroke-miterlimit="10"/>
</g>
<path d="M283.259 192.512C283.259 192.773 283.259 193.035 283.259 193.296C282.869 205.45 272.852 215.251 260.624 215.251C248.397 215.251 238.38 205.45 237.99 193.296C237.99 193.035 237.99 192.773 237.99 192.512C237.99 180.228 247.616 170.165 259.844 169.773C260.104 169.773 260.364 169.773 260.624 169.773C272.982 169.773 282.999 179.705 283.259 192.12C283.259 192.251 283.259 192.381 283.259 192.512Z" fill="#EDF0FC"/>
<path d="M283.259 193.296C282.869 205.449 272.852 215.251 260.624 215.251C248.397 215.251 238.38 205.449 237.99 193.296C238.38 181.142 248.397 171.341 260.624 171.341C272.982 171.341 282.869 181.012 283.259 193.296Z" fill="white"/>
<path d="M266.736 207.018H253.727C253.077 207.018 252.557 206.495 252.557 205.842V199.308C252.557 198.654 253.077 198.132 253.727 198.132H266.736C267.386 198.132 267.906 198.654 267.906 199.308V205.842C267.776 206.495 267.256 207.018 266.736 207.018Z" fill="#F2F5FC"/>
<path d="M280.265 193.688H276.493C275.843 193.688 275.322 193.165 275.322 192.512C275.322 191.858 275.843 191.336 276.493 191.336H280.265C280.916 191.336 281.436 191.858 281.436 192.512C281.436 193.165 280.786 193.688 280.265 193.688Z" fill="#DAE1ED"/>
<path d="M243.584 193.688H239.811C239.161 193.688 238.641 193.165 238.641 192.512C238.641 191.858 239.161 191.336 239.811 191.336H243.584C244.234 191.336 244.754 191.858 244.754 192.512C244.754 193.165 244.234 193.688 243.584 193.688Z" fill="#DAE1ED"/>
<path d="M260.104 213.944C259.454 213.944 258.934 213.421 258.934 212.768V208.978C258.934 208.324 259.454 207.802 260.104 207.802C260.755 207.802 261.275 208.324 261.275 208.978V212.768C261.145 213.552 260.625 213.944 260.104 213.944Z" fill="#DAE1ED"/>
<path d="M260.104 177.222C259.454 177.222 258.934 176.699 258.934 176.046V172.387C258.934 171.733 259.454 171.21 260.104 171.21C260.755 171.21 261.275 171.733 261.275 172.387V176.176C261.145 176.699 260.625 177.222 260.104 177.222Z" fill="#DAE1ED"/>
<path d="M260.363 195.649C262.314 195.649 263.745 194.08 263.745 192.251C263.745 190.291 262.184 188.853 260.363 188.853C258.411 188.853 256.98 190.421 256.98 192.251C256.98 194.08 258.411 195.649 260.363 195.649Z" fill="#F2F5FC"/>
<path d="M274.932 178.529C274.542 178.137 273.892 178.137 273.501 178.529L261.404 191.336C261.274 191.336 261.274 191.336 261.274 191.336C260.363 191.336 259.713 191.989 259.713 192.904C259.713 193.035 259.713 193.035 259.713 193.165L257.761 195.256C257.371 195.648 257.371 196.302 257.761 196.694C258.022 196.955 258.152 196.955 258.412 196.955C258.672 196.955 258.932 196.825 259.062 196.694L261.013 194.603C261.144 194.603 261.144 194.603 261.144 194.603C262.054 194.603 262.705 193.95 262.705 193.035C262.705 192.904 262.705 192.904 262.705 192.773L274.802 180.097C275.322 179.574 275.322 178.921 274.932 178.529Z" fill="#DAE1ED"/>
<path d="M274.022 177.745C273.632 177.353 272.981 177.353 272.591 177.745L260.494 190.552C260.363 190.552 260.363 190.552 260.363 190.552C259.453 190.552 258.803 191.205 258.803 192.12C258.803 192.251 258.803 192.251 258.803 192.381L256.851 194.472C256.461 194.864 256.461 195.518 256.851 195.91C257.111 196.171 257.242 196.171 257.502 196.171C257.762 196.171 258.022 196.04 258.152 195.91L260.103 193.819C260.233 193.819 260.233 193.819 260.233 193.819C261.144 193.819 261.794 193.165 261.794 192.251C261.794 192.12 261.794 192.12 261.794 191.989L273.892 179.313C274.412 178.79 274.412 178.137 274.022 177.745Z" fill="#EB358A"/>
<path d="M273.634 178.137L257.113 195.387C256.983 195.387 256.983 195.387 256.853 195.387C256.723 195.126 256.723 194.864 256.983 194.734L272.853 178.006C273.113 177.745 273.373 177.745 273.634 177.875C273.634 177.875 273.634 178.006 273.634 178.137Z" fill="#FF4FA2"/>
<path d="M266.088 154.614V158.403C266.088 159.841 264.917 161.017 263.487 161.017H256.982C255.552 161.017 254.381 159.841 254.381 158.403V154.614C254.381 153.176 255.552 152 256.982 152H263.487C264.917 152 266.088 153.176 266.088 154.614Z" fill="#1C3754"/>
<path d="M266.088 154.614V158.403C266.088 159.841 264.917 161.017 263.487 161.017H256.982C255.552 161.017 254.381 159.841 254.381 158.403V157.75C254.771 159.58 256.462 159.58 256.462 159.58H263.096C264.007 159.58 264.787 158.796 264.787 157.881V155.136C264.787 153.176 264.397 152.523 263.487 152C264.917 152 266.088 153.176 266.088 154.614Z" fill="#172D45"/>
<path d="M240.98 168.336L237.468 171.864C236.687 172.648 235.387 172.648 234.606 171.864L232.525 169.773C231.744 168.989 231.744 167.682 232.525 166.898L236.037 163.37C236.818 162.585 238.118 162.585 238.899 163.37L240.98 165.461C241.761 166.245 241.761 167.551 240.98 168.336Z" fill="#1C3754"/>
<path d="M280.003 168.336L283.516 171.864C284.296 172.648 285.597 172.648 286.377 171.864L288.459 169.773C289.239 168.989 289.239 167.682 288.459 166.898L284.947 163.37C284.166 162.585 282.865 162.585 282.085 163.37L280.003 165.461C279.353 166.245 279.353 167.551 280.003 168.336Z" fill="#1C3754"/>
<path d="M260.362 192.509C260.492 192.509 260.622 192.379 260.622 192.249C260.622 192.119 260.492 191.989 260.362 191.989C260.232 191.989 260.102 192.119 260.102 192.249C260.102 192.379 260.232 192.509 260.362 192.509Z" fill="#1C3754"/>
<path opacity="0.4" d="M283.259 192.12H259.844V169.773C260.104 169.773 260.364 169.773 260.624 169.773C273.112 169.773 283.128 179.836 283.259 192.12Z" fill="url(#paint0_linear)"/>
<path d="M247.368 264.1L226.903 313.636C226.345 314.754 226.159 316.057 226.159 317.361L225.973 321.458H145.418C142.627 321.458 140.395 319.037 140.581 316.244L143.185 289.799C143.743 284.026 139.65 278.812 133.883 278.067L119 276.205L122.721 251.995C126.442 227.785 137.418 227.04 144.673 223.502C148.208 221.826 152.301 220.15 155.836 218.66C157.696 217.915 159.557 217.357 160.673 216.798C161.975 216.239 163.464 216.053 164.952 216.053C167.556 216.239 172.021 216.612 178.719 218.101C182.812 219.033 187.835 219.964 192.672 220.895C193.788 221.081 195.09 221.267 196.207 221.64C204.764 223.316 212.764 227.04 219.462 232.441L244.019 252.181C247.926 254.602 249.228 259.63 247.368 264.1Z" fill="#23476F"/>
<path d="M189.512 208.045V219.964C189.512 227.972 182.814 234.49 174.442 234.49C170.349 234.49 166.443 232.814 163.838 230.206C161.047 227.599 159.373 223.875 159.373 219.964V184.953L189.512 208.045Z" fill="white"/>
<path d="M189.51 208.046V219.592C172.208 217.916 166.441 200.783 168.86 202.831C170.906 204.88 181.882 206.928 189.51 208.046Z" fill="url(#paint1_linear)"/>
<path d="M199.928 166.517C200.114 184.953 202.533 203.203 198.254 206.556C193.975 209.908 184.487 213.073 174.999 207.487C165.511 201.9 164.395 198.361 164.395 198.361L159.186 193.147L159.93 171.731L174.999 160.93L199.928 166.517Z" fill="white"/>
<path d="M199.927 166.517C199.927 166.517 201.787 172.104 193.788 171.917C185.788 171.731 176.114 169.124 172.021 168.379C167.928 167.448 165.324 172.104 165.324 172.104V179.18L164.393 190.168C164.393 190.168 157.138 186.816 156.952 182.532C156.766 178.249 156.952 176.945 156.952 176.945L165.882 168.751C165.882 168.751 177.416 164.468 177.974 163.91C178.532 163.537 190.439 160.744 190.439 160.744C190.439 160.744 198.625 161.116 199.369 162.233C199.741 162.792 199.927 164.096 200.113 165.027C199.927 165.958 199.927 166.517 199.927 166.517Z" fill="#1C3754"/>
<path d="M160.891 194.235C163.753 193.941 165.809 191.13 165.483 187.959C165.157 184.787 162.573 182.454 159.711 182.749C156.849 183.044 154.793 185.854 155.119 189.026C155.445 192.197 158.029 194.53 160.891 194.235Z" fill="white"/>
<path d="M200.299 169.31C200.113 169.31 200.113 169.31 199.927 169.496C196.393 164.84 190.625 162.233 179.835 166.144H179.649C179.277 166.33 178.719 166.517 178.161 166.703C177.603 166.889 177.045 167.075 176.486 167.448C173.882 168.565 169.789 170.8 166.068 173.407C161.417 176.573 157.324 180.67 157.138 184.022C156.022 179.552 155.464 175.083 155.278 170.614C155.092 162.233 165.51 153.481 175.928 152.177C181.509 151.432 185.974 153.108 189.881 155.902C193.23 158.322 196.207 161.861 198.811 165.399L200.299 169.31Z" fill="#6154F9"/>
<path d="M212.762 159.066C211.832 163.722 204.577 167.446 199.926 169.309C191.74 158.694 175.554 166.702 166.066 173.406C166.252 173.22 166.438 172.102 166.625 171.916C172.392 157.763 215.367 145.285 212.762 159.066Z" fill="#4281C4"/>
<path d="M194.531 185.139C195.764 185.139 196.764 184.139 196.764 182.905C196.764 181.67 195.764 180.67 194.531 180.67C193.298 180.67 192.299 181.67 192.299 182.905C192.299 184.139 193.298 185.139 194.531 185.139Z" fill="#1C3754"/>
<path d="M178.719 185.139C179.952 185.139 180.951 184.139 180.951 182.905C180.951 181.67 179.952 180.67 178.719 180.67C177.486 180.67 176.486 181.67 176.486 182.905C176.486 184.139 177.486 185.139 178.719 185.139Z" fill="#1C3754"/>
<path d="M257.787 240.82H253.322C252.764 240.82 252.578 240.634 252.578 240.076C252.578 239.518 252.764 239.332 253.322 239.332H257.787C258.345 239.332 258.531 239.518 258.531 240.076C258.531 240.448 258.345 240.82 257.787 240.82Z" fill="#83C2EF"/>
<path d="M296.11 237.469V320.154C296.11 321.272 295.924 322.203 295.366 322.948C295.18 323.134 294.994 323.693 294.622 323.879C294.436 324.065 294.436 324.065 294.25 324.251C293.134 325.369 291.831 325.927 290.157 325.927H265.228L260.391 232.069H290.715C293.692 232.069 296.11 234.303 296.11 237.469Z" fill="#6154F9"/>
<g filter="url(#filter4_d)">
<path d="M296.11 237.469V320.154C296.11 321.272 295.924 322.203 295.366 322.948C295.18 323.134 294.994 323.693 294.622 323.879C294.436 324.065 294.436 324.065 294.25 324.251C293.134 325.369 291.831 325.927 290.157 325.927H265.228L260.391 232.069H290.715C293.692 232.069 296.11 234.303 296.11 237.469Z" fill="#6154F9"/>
</g>
<g filter="url(#filter5_d)">
<path d="M265.413 236.911V325.741H183.741C180.579 325.741 178.16 323.32 178.16 320.154V237.469C178.16 234.49 180.579 232.069 183.741 232.069H260.39C263.18 232.069 265.413 234.303 265.413 236.911Z" fill="#83C2EF"/>
</g>
<path d="M230.809 232.069V256.837C230.809 257.582 230.437 257.954 229.879 258.327L226.53 259.817C226.158 260.003 225.6 260.003 225.228 259.63L220.019 255.533C219.647 255.347 219.088 255.161 218.716 255.347L215.926 256.837C215.182 257.209 214.438 256.651 214.438 256.092V232.069H230.809Z" fill="#6154F9"/>
<path d="M260.391 232.069C262.437 231.696 264.856 233 265.6 235.048C265.786 235.607 265.972 236.166 265.972 236.724C265.972 237.283 265.972 237.842 265.972 238.214V241.194V253.299L265.786 277.508L265.6 301.718L265.228 325.928L265.042 301.718L264.856 277.508L264.67 253.299V241.194V238.214C264.67 237.097 264.856 236.166 264.483 235.421C263.925 233.745 262.251 232.441 260.391 232.069Z" fill="#83C2EF"/>
<path d="M265.226 310.285V321.086C265.226 321.831 264.482 323.134 263.738 324.438C262.993 325.183 261.877 325.555 260.761 325.555H248.296L239.366 315.313L242.157 312.333L234.529 303.767L244.575 304.512L252.761 300.787L247.738 296.504L248.296 293.71L265.226 310.285Z" fill="#4281C4"/>
<path d="M234.716 300.973C234.53 301.346 234.344 301.904 234.344 302.277C234.344 303.394 235.274 304.325 236.39 304.325H239.553V314.568C239.553 314.94 239.739 315.313 240.297 315.313H247.925H249.227C249.599 315.313 249.971 315.126 249.971 314.568V304.325H252.762C253.134 304.325 253.692 304.139 254.064 303.953C254.994 303.208 255.18 301.904 254.436 300.973L246.25 290.731C246.064 290.544 246.064 290.358 245.878 290.358C244.948 289.613 243.646 289.986 242.902 290.731L234.716 300.973Z" fill="url(#paint2_linear)"/>
<path d="M142.814 294.641L146.163 261.307L149.698 297.062" fill="#112133"/>
<g filter="url(#filter6_d)">
<path d="M217.229 304.325C217.415 305.629 216.299 306.746 215.183 306.932L213.136 307.118C213.136 307.118 206.067 306.001 205.695 311.029C205.323 315.126 207.369 316.616 212.95 323.506C214.252 325.182 213.136 327.603 211.09 327.79C197.137 328.907 196.579 328.907 185.602 318.106C184.114 316.616 182.068 315.685 180.021 315.685L151.557 315.499L126.256 315.126C121.977 313.078 119.372 308.794 119.744 303.952L121.233 276.018L144.487 278.998L143.185 291.848L182.812 299.855C182.812 299.855 192.858 301.904 200.858 301.532C206.811 301.345 211.834 301.718 215.183 301.904C216.113 302.276 217.043 303.208 217.229 304.325Z" fill="white"/>
</g>
</g>
</g>
<defs>
<filter id="filter0_dd" x="8.30859" y="576.217" width="216.614" height="144.404" filterUnits="userSpaceOnUse" color-interpolation-filters="sRGB">
<feFlood flood-opacity="0" result="BackgroundImageFix"/>
<feColorMatrix in="SourceAlpha" type="matrix" values="0 0 0 0 0 0 0 0 0 0 0 0 0 0 0 0 0 0 127 0"/>
<feOffset dy="8"/>
<feGaussianBlur stdDeviation="12"/>
<feColorMatrix type="matrix" values="0 0 0 0 0 0 0 0 0 0 0 0 0 0 0 0 0 0 0.1 0"/>
<feBlend mode="normal" in2="BackgroundImageFix" result="effect1_dropShadow"/>
<feColorMatrix in="SourceAlpha" type="matrix" values="0 0 0 0 0 0 0 0 0 0 0 0 0 0 0 0 0 0 127 0"/>
<feOffset/>
<feGaussianBlur stdDeviation="1"/>
<feColorMatrix type="matrix" values="0 0 0 0 0 0 0 0 0 0 0 0 0 0 0 0 0 0 0.06 0"/>
<feBlend mode="normal" in2="effect1_dropShadow" result="effect2_dropShadow"/>
<feBlend mode="normal" in="SourceGraphic" in2="effect2_dropShadow" result="shape"/>
</filter>
<filter id="filter1_dd" x="190.047" y="576.217" width="219.642" height="144.404" filterUnits="userSpaceOnUse" color-interpolation-filters="sRGB">
<feFlood flood-opacity="0" result="BackgroundImageFix"/>
<feColorMatrix in="SourceAlpha" type="matrix" values="0 0 0 0 0 0 0 0 0 0 0 0 0 0 0 0 0 0 127 0"/>
<feOffset dy="8"/>
<feGaussianBlur stdDeviation="12"/>
<feColorMatrix type="matrix" values="0 0 0 0 0 0 0 0 0 0 0 0 0 0 0 0 0 0 0.1 0"/>
<feBlend mode="normal" in2="BackgroundImageFix" result="effect1_dropShadow"/>
<feColorMatrix in="SourceAlpha" type="matrix" values="0 0 0 0 0 0 0 0 0 0 0 0 0 0 0 0 0 0 127 0"/>
<feOffset/>
<feGaussianBlur stdDeviation="1"/>
<feColorMatrix type="matrix" values="0 0 0 0 0 0 0 0 0 0 0 0 0 0 0 0 0 0 0.06 0"/>
<feBlend mode="normal" in2="effect1_dropShadow" result="effect2_dropShadow"/>
<feBlend mode="normal" in="SourceGraphic" in2="effect2_dropShadow" result="shape"/>
</filter>
<filter id="filter2_bd" x="-33" y="55" width="482.654" height="370.592" filterUnits="userSpaceOnUse" color-interpolation-filters="sRGB">
<feFlood flood-opacity="0" result="BackgroundImageFix"/>
<feGaussianBlur in="BackgroundImage" stdDeviation="27"/>
<feComposite in2="SourceAlpha" operator="in" result="effect1_backgroundBlur"/>
<feColorMatrix in="SourceAlpha" type="matrix" values="0 0 0 0 0 0 0 0 0 0 0 0 0 0 0 0 0 0 127 0"/>
<feMorphology radius="1" operator="erode" in="SourceAlpha" result="effect2_dropShadow"/>
<feOffset dy="1"/>
<feGaussianBlur stdDeviation="12"/>
<feColorMatrix type="matrix" values="0 0 0 0 0 0 0 0 0 0 0 0 0 0 0 0 0 0 0.1 0"/>
<feBlend mode="normal" in2="effect1_backgroundBlur" result="effect2_dropShadow"/>
<feBlend mode="normal" in="SourceGraphic" in2="effect2_dropShadow" result="shape"/>
</filter>
<filter id="filter3_d" x="209.34" y="152.094" width="102.569" height="102.837" filterUnits="userSpaceOnUse" color-interpolation-filters="sRGB">
<feFlood flood-opacity="0" result="BackgroundImageFix"/>
<feColorMatrix in="SourceAlpha" type="matrix" values="0 0 0 0 0 0 0 0 0 0 0 0 0 0 0 0 0 0 127 0"/>
<feOffset dy="11"/>
<feGaussianBlur stdDeviation="11"/>
<feColorMatrix type="matrix" values="0 0 0 0 0.397708 0 0 0 0 0.47749 0 0 0 0 0.575 0 0 0 0.18 0"/>
<feBlend mode="normal" in2="BackgroundImageFix" result="effect1_dropShadow"/>
<feBlend mode="normal" in="SourceGraphic" in2="effect1_dropShadow" result="shape"/>
</filter>
<filter id="filter4_d" x="252.391" y="229.069" width="51.7197" height="109.859" filterUnits="userSpaceOnUse" color-interpolation-filters="sRGB">
<feFlood flood-opacity="0" result="BackgroundImageFix"/>
<feColorMatrix in="SourceAlpha" type="matrix" values="0 0 0 0 0 0 0 0 0 0 0 0 0 0 0 0 0 0 127 0"/>
<feOffset dy="5"/>
<feGaussianBlur stdDeviation="4"/>
<feColorMatrix type="matrix" values="0 0 0 0 0.1125 0 0 0 0 0.295916 0 0 0 0 1 0 0 0 0.22 0"/>
<feBlend mode="normal" in2="BackgroundImageFix" result="effect1_dropShadow"/>
<feBlend mode="normal" in="SourceGraphic" in2="effect1_dropShadow" result="shape"/>
</filter>
<filter id="filter5_d" x="170.16" y="229.069" width="103.253" height="109.673" filterUnits="userSpaceOnUse" color-interpolation-filters="sRGB">
<feFlood flood-opacity="0" result="BackgroundImageFix"/>
<feColorMatrix in="SourceAlpha" type="matrix" values="0 0 0 0 0 0 0 0 0 0 0 0 0 0 0 0 0 0 127 0"/>
<feOffset dy="5"/>
<feGaussianBlur stdDeviation="4"/>
<feColorMatrix type="matrix" values="0 0 0 0 0.1125 0 0 0 0 0.295916 0 0 0 0 1 0 0 0 0.22 0"/>
<feBlend mode="normal" in2="BackgroundImageFix" result="effect1_dropShadow"/>
<feBlend mode="normal" in="SourceGraphic" in2="effect1_dropShadow" result="shape"/>
</filter>
<filter id="filter6_d" x="97.709" y="265.018" width="141.541" height="96.249" filterUnits="userSpaceOnUse" color-interpolation-filters="sRGB">
<feFlood flood-opacity="0" result="BackgroundImageFix"/>
<feColorMatrix in="SourceAlpha" type="matrix" values="0 0 0 0 0 0 0 0 0 0 0 0 0 0 0 0 0 0 127 0"/>
<feOffset dy="11"/>
<feGaussianBlur stdDeviation="11"/>
<feColorMatrix type="matrix" values="0 0 0 0 0.397708 0 0 0 0 0.47749 0 0 0 0 0.575 0 0 0 0.18 0"/>
<feBlend mode="normal" in2="BackgroundImageFix" result="effect1_dropShadow"/>
<feBlend mode="normal" in="SourceGraphic" in2="effect1_dropShadow" result="shape"/>
</filter>
<linearGradient id="paint0_linear" x1="258.27" y1="174.265" x2="279.279" y2="195.188" gradientUnits="userSpaceOnUse">
<stop stop-color="#EF4896"/>
<stop offset="1" stop-color="#F14D9A" stop-opacity="0"/>
</linearGradient>
<linearGradient id="paint1_linear" x1="176.792" y1="215.807" x2="179.575" y2="210.164" gradientUnits="userSpaceOnUse">
<stop stop-color="#E3E7F5"/>
<stop offset="0.9913" stop-color="#CED5E6"/>
</linearGradient>
<linearGradient id="paint2_linear" x1="251.356" y1="311.582" x2="239.361" y2="299.569" gradientUnits="userSpaceOnUse">
<stop offset="0.0113208" stop-color="#C2D1FF"/>
<stop offset="1" stop-color="white"/>
</linearGradient>
<clipPath id="clip0">
<rect width="418" height="721" fill="white"/>
</clipPath>
<clipPath id="clip1">
<rect width="27.0543" height="25.3253" fill="white" transform="translate(360.449 23)"/>
</clipPath>
</defs>
</svg>
