<svg width="171" height="28" viewBox="0 0 171 28" fill="none" xmlns="http://www.w3.org/2000/svg">
<g clip-path="url(#clip0)">
<path d="M19.4327 25.3643C18.4314 26.0575 17.3188 26.6413 16.1692 27.0426C14.9453 27.444 13.6845 27.6629 12.3865 27.6629C10.6435 27.6994 8.90046 27.298 7.34288 26.5318C5.85947 25.8021 4.5244 24.817 3.41184 23.5764C2.29928 22.3359 1.44632 20.9129 0.890046 19.3805C0.296682 17.8116 0 16.1697 0 14.5278C0 12.8129 0.333767 11.1345 0.927131 9.56561C1.52049 8.03318 2.41054 6.61021 3.56018 5.36967C4.67274 4.16561 6.00781 3.18048 7.49122 2.48724C9.0488 1.75751 10.7176 1.39264 12.4236 1.42913C14.1666 1.39264 15.9096 1.79399 17.4671 2.59669C18.9506 3.32642 20.2856 4.34805 21.3611 5.62507C22.4366 6.86561 23.2895 8.28859 23.8829 9.85751C24.4763 11.3899 24.7729 13.0318 24.7729 14.6372C24.7729 16.3521 24.4763 18.0305 23.8087 19.6359C23.2154 21.1683 22.3253 22.5913 21.2128 23.8318L24.5504 27.4805H21.2869L19.4327 25.3643ZM12.4236 24.7075C13.3507 24.7075 14.2778 24.5616 15.1308 24.2697C15.9466 23.9778 16.7254 23.5764 17.4301 23.0656L13.907 19.0156H17.1705L19.1731 21.3143C20.6565 19.344 21.4353 16.9724 21.4353 14.5278C21.4353 13.2143 21.2128 11.9372 20.7677 10.6967C20.3598 9.49264 19.7293 8.39805 18.9135 7.41291C18.1347 6.46426 17.1705 5.69805 16.0579 5.15075C14.9453 4.56697 13.6845 4.31156 12.4236 4.31156C11.1256 4.31156 9.7905 4.63994 8.64086 5.22372C7.5283 5.80751 6.56409 6.57372 5.82238 7.55886C5.04359 8.54399 4.41314 9.63859 4.00521 10.8426C3.15224 13.2872 3.15224 15.9507 4.00521 18.3589C4.41314 19.5629 5.04359 20.6575 5.85947 21.6426C6.63826 22.5913 7.60247 23.3575 8.71503 23.9048C9.86467 24.4521 11.1256 24.744 12.4236 24.7075Z" fill="#6154F9"/>
<path d="M33.3395 27.8454C31.2998 27.8454 29.7793 27.1886 28.7409 25.8386C27.7025 24.4886 27.1833 22.5184 27.1833 19.8548V8.43457H30.4468V19.2346C30.4468 23.1386 31.819 25.0724 34.5633 25.0724C35.9355 25.0724 37.2334 24.6346 38.3089 23.8319C39.4956 22.9562 40.4228 21.7521 40.942 20.3657V8.43457H44.2055V23.54C44.2055 24.3062 44.5392 24.6711 45.2439 24.7075V27.4805C44.873 27.517 44.5763 27.5535 44.3909 27.59C44.2055 27.6265 43.983 27.59 43.7604 27.59C43.1671 27.6265 42.6108 27.4075 42.1658 27.0062C41.7578 26.6413 41.4982 26.1305 41.4982 25.6197L41.4241 23.394C40.6082 24.7805 39.4215 25.9116 38.0122 26.6778C36.5659 27.444 34.9712 27.8454 33.3395 27.8454Z" fill="#6154F9"/>
<path d="M48.1736 4.85885V0.845337H51.4371V4.85885H48.1736ZM48.1736 27.4805V8.43453H51.4371V27.4805H48.1736Z" fill="#6154F9"/>
<path d="M53.9219 17.921C53.9219 16.6075 54.1444 15.3304 54.6265 14.1264C55.0715 12.9588 55.7391 11.9007 56.6291 11.025C57.5191 10.1129 58.5575 9.41962 59.7443 8.90881C61.0052 8.36152 62.3773 8.10611 63.7865 8.10611C65.5296 8.06962 67.2726 8.50746 68.756 9.38314C70.1281 10.1858 71.2036 11.3534 71.9453 12.7399L68.756 13.725C68.2739 12.8494 67.5692 12.1196 66.6792 11.6088C65.7892 11.098 64.7508 10.8426 63.7124 10.8791C61.9694 10.8791 60.3005 11.6088 59.1509 12.8858C58.5575 13.5426 58.1125 14.3088 57.8158 15.1115C57.4821 16.0237 57.2966 16.9723 57.2966 17.921C57.2966 18.8696 57.4821 19.8183 57.8158 20.7304C58.1496 21.5696 58.5946 22.3358 59.2251 23.0291C59.7813 23.6494 60.486 24.1967 61.2648 24.5615C62.0435 24.9264 62.8965 25.1088 63.7865 25.1088C64.3428 25.1088 64.9362 25.0358 65.4925 24.8534C66.0117 24.7075 66.5309 24.4885 67.013 24.1967C67.458 23.9412 67.8659 23.6129 68.2368 23.2845C68.5705 22.9561 68.8301 22.5548 68.9785 22.1169L72.1678 23.0656C71.8711 23.7588 71.4632 24.4156 70.944 24.9994C70.4248 25.5831 69.7944 26.094 69.0897 26.4953C68.348 26.9331 67.5322 27.2615 66.7163 27.4804C65.7891 27.7358 64.862 27.8453 63.8978 27.8453C61.2277 27.8818 58.6317 26.8237 56.7774 24.8899C55.8874 23.9777 55.2199 22.9196 54.7748 21.7156C54.1444 20.5115 53.9219 19.2345 53.9219 17.921Z" fill="#6154F9"/>
<path d="M87.9291 27.4805L81.2538 18.1764L77.5452 21.6061V27.4805H74.2817V0.845337H77.5452V18.3589L87.4841 8.47101H91.0813L83.3676 16.3521L91.4522 27.4805H87.9291Z" fill="#6154F9"/>
<path d="M102.726 27.8453C101.28 27.8453 99.8706 27.4805 98.6097 26.7507C97.423 26.0575 96.3846 25.0724 95.68 23.9048V27.4805H92.7874V0.845337H96.0509V12.2291C96.8296 11.0251 97.8309 10.0034 99.0548 9.23723C101.428 7.85074 104.358 7.74128 106.806 8.94534C107.844 9.49263 108.771 10.2589 109.55 11.1345C110.329 12.0832 110.922 13.1413 111.293 14.3089C111.701 15.5129 111.886 16.7534 111.886 17.994C111.886 19.3075 111.664 20.5845 111.182 21.7886C110.737 22.9197 110.069 23.9778 109.253 24.9264C108.437 25.8021 107.436 26.5318 106.323 27.0426C105.211 27.5899 103.987 27.8453 102.726 27.8453ZM101.91 25.0724C102.837 25.0724 103.765 24.8899 104.58 24.4886C105.396 24.1237 106.101 23.5764 106.694 22.9197C107.288 22.2629 107.77 21.4967 108.066 20.6575C108.4 19.8183 108.549 18.9061 108.549 17.994C108.549 17.0818 108.4 16.1697 108.066 15.3305C107.77 14.4913 107.325 13.7251 106.768 13.0318C106.212 12.3751 105.545 11.8278 104.766 11.4264C103.987 11.0251 103.097 10.8061 102.17 10.8426C101.502 10.8426 100.835 10.9521 100.204 11.2075C99.5739 11.4629 99.0177 11.7913 98.4985 12.1561C97.9793 12.5575 97.4972 13.0318 97.0892 13.5791C96.6813 14.1264 96.3104 14.6737 96.0138 15.294V20.8034C96.125 21.4237 96.4217 22.0075 96.7926 22.4818C97.2005 22.9926 97.6826 23.4305 98.2389 23.8318C98.7952 24.1967 99.3885 24.4886 100.019 24.744C100.649 24.9629 101.28 25.0724 101.91 25.0724Z" fill="#335C80"/>
<path d="M120.379 27.8454C118.339 27.8454 116.818 27.1886 115.78 25.8386C114.742 24.4886 114.222 22.5184 114.222 19.8548V8.43457H117.486V19.2346C117.486 23.1386 118.858 25.0724 121.602 25.0724C122.937 25.0724 124.273 24.6346 125.348 23.8319C126.535 22.9562 127.462 21.7521 127.944 20.3657V8.43457H131.207V23.54C131.207 24.3062 131.541 24.6711 132.246 24.7075V27.4805C131.875 27.517 131.578 27.5535 131.356 27.59C131.133 27.6265 130.948 27.59 130.762 27.59C130.169 27.59 129.613 27.4075 129.131 27.0062C128.723 26.6413 128.463 26.1305 128.426 25.6197L128.352 23.394C127.536 24.7805 126.349 25.9116 124.94 26.6778C123.568 27.444 121.973 27.8454 120.379 27.8454Z" fill="#335C80"/>
<path d="M145.226 26.5318C145.04 26.6412 144.781 26.7507 144.447 26.8601C144.113 26.9696 143.742 27.1155 143.334 27.2615C142.889 27.4074 142.444 27.5169 141.999 27.5899C141.517 27.6628 140.998 27.7358 140.516 27.6993C139.403 27.7358 138.328 27.371 137.438 26.7142C136.585 26.0574 136.14 25.0723 136.14 23.6858V10.952H133.507V8.43446H136.14V2.08582H139.403V8.43446H143.742V10.952H139.403V22.7737C139.403 23.3574 139.663 23.9047 140.108 24.3061C140.516 24.6345 141.072 24.7804 141.591 24.7804C142.185 24.7804 142.778 24.671 143.372 24.4885C143.742 24.3426 144.113 24.1966 144.484 24.0142L145.226 26.5318Z" fill="#335C80"/>
<path d="M146.783 4.85885V0.845337H150.047V4.85885H146.783ZM146.783 27.4805V8.43453H150.047V27.4805H146.783Z" fill="#335C80"/>
<path d="M167.477 27.4805L160.802 18.1764L157.093 21.6061V27.4805H153.83V0.845337H157.093V18.3589L167.032 8.47101H170.629L162.915 16.3521L171 27.4805H167.477Z" fill="#335C80"/>
</g>
<defs>
<clipPath id="clip0">
<rect width="171" height="27" fill="white" transform="translate(0 0.845337)"/>
</clipPath>
</defs>
</svg>
