<svg xmlns="http://www.w3.org/2000/svg" viewBox="0 0 6974.72 939.53"><defs><style>.cls-1,.cls-5{fill:#4285f4;}.cls-1,.cls-2,.cls-3,.cls-4,.cls-6{fill-rule:evenodd;}.cls-2{fill:#34a853;}.cls-3{fill:#fbbc05;}.cls-4{fill:#ea4335;}.cls-6{fill:#fff;}.cls-7{fill:#dd4135;}.cls-8{fill:#35aa53;}.cls-9{fill:#507cbd;}.cls-10{fill:#fab906;}.cls-11{fill:#767677;}</style></defs><g id="Layer_2" data-name="Layer 2"><g id="Layer_1-2" data-name="Layer 1"><path class="cls-1" d="M724.86,241.62a64.43,64.43,0,1,0-64.43-64.43A64.43,64.43,0,0,0,724.86,241.62ZM268.41,222,466.07,24.29A83.22,83.22,0,0,1,525.12,0H818.29a83.48,83.48,0,0,1,83.76,83.18V376.93A81.92,81.92,0,0,1,877.34,436L680,633.53Z"/><path class="cls-2" d="M680,633.53,436.4,877.34c-15.5,15.07-36.44,24.71-59.47,24.71a83.6,83.6,0,0,1-59.05-24.71L24.71,584.17A81.86,81.86,0,0,1,0,525.12a83.84,83.84,0,0,1,24.71-59.47L268.41,222Z"/><path class="cls-3" d="M167,726.44,24.71,584.17A81.85,81.85,0,0,1,0,525.12a83.84,83.84,0,0,1,24.71-59.47L268.41,222,469.93,423.48Z"/><path class="cls-4" d="M873.12,20.29A83.47,83.47,0,0,0,818.29,0H525.12a83.22,83.22,0,0,0-59.05,24.29L268.41,222,469.93,423.48,675.19,218.23a64.44,64.44,0,0,1,90.71-90.72Z"/><circle class="cls-5" cx="469.82" cy="446.32" r="130.88"/><path class="cls-6" d="M648.13,407.83H474.06v74.68h100.2c-9.34,47.44-48.4,74.68-100.2,74.68-61.13,0-110.38-51-110.38-114.22s49.25-114.22,110.38-114.22a105.77,105.77,0,0,1,68.78,25.48L597.18,298c-33.11-29.88-75.57-48.33-123.12-48.33-103.59,0-186.8,86.11-186.8,193.3s83.21,193.3,186.8,193.3c93.4,0,178.31-70.29,178.31-193.3a165.42,165.42,0,0,0-4.24-35.14Z"/><g id="Google_Shopping" data-name="Google Shopping"><path id="_Path_" data-name=" Path " class="cls-7" d="M3701.05,685.21c-48.33-.83-86.19-30.57-95.28-60.45,11.57-5.09,243.7-97.89,263.39-105.46-19.69-85.92-92.8-149.52-178.3-149.52-100.37,0-183,82.6-181.88,196.74a192.77,192.77,0,0,0,181.88,198c90.18,0,136.45-37.59,176.1-87-14.87-10.6-48.05-34.14-67.33-46.53A112.49,112.49,0,0,1,3701.05,685.21Zm-21.89-237.92c66.64-6.61,88.12,34.83,88.53,42.13,0,0-155,61.54-174.72,70.22C3591.59,539.54,3595.17,470.7,3679.16,447.29Z"/><rect id="_Path_2" data-name=" Path 2" class="cls-8" x="3383.14" y="172.61" width="86.19" height="579.09"/><path class="cls-9" d="M3324.49,741.52V382.17h-81v31.66h-3.3c-4.82-7.71-31-40.06-106.29-42.68-90.6,0-180.09,77.93-185.87,195.79,0,108.28,87.77,196.06,196,196.06h1.8a140.44,140.44,0,0,0,93.48-44.48h3.31v51c-2.89,35.66-25.47,87.56-97.21,94.86s-106.15-68.84-106.15-68.84-74.21,27.53-72.83,29.74c18.31,56.72,79.71,115.65,183,114.27,148.42-7.71,174.3-136.44,174.71-177.61A197.74,197.74,0,0,0,3324.49,741.52Zm-183-56.31c-59.2,0-106.15-52.87-106.15-119s48-117.86,107-117.86c63.61,0,105.87,51.63,105.87,117.86S3207.05,685.21,3141.51,685.21Z"/><path id="_Path_3" data-name=" Path 3" class="cls-10" d="M2714.83,367.16c-110.1-.61-199.85,88.16-200.46,198.26s88.16,199.85,198.26,200.46,199.86-88.16,200.46-198.26c0-.18,0-.36,0-.55C2913.48,457.15,2824.76,367.69,2714.83,367.16Zm0,321.21c-62.23,0-112.76-54.11-112.76-121s50.53-121.16,112.76-121.16,112.76,54.11,112.76,121.16S2777.48,688.37,2714.83,688.37Z"/><path id="_Path_4" data-name=" Path 4" class="cls-7" d="M2287.05,367.57c-110-.45-199.45,88.31-199.91,198.26s88.31,199.46,198.26,199.92,199.46-88.31,199.92-198.27v-.41c.45-109.72-88.13-199-197.85-199.5Zm0,320.8c-62.23,0-112.9-54.11-112.9-121s50.67-121.16,112.9-121.16,112.77,54.11,112.77,121.16-50.26,121-112.35,121Z"/><path id="_Path_5" data-name=" Path 5" class="cls-9" d="M2056,432.7v-1.11H1775.56V514.2h198.27c-6.89,103.68-96.38,169.22-198.27,169.22-123.56,0-223.73-100.17-223.73-223.74S1652,236,1775.56,236a217.26,217.26,0,0,1,149.94,59.89c5.78-5.37,55.07-55.07,58.93-58.93-50.26-53.42-123.92-82.61-212.17-82.61-168.35,0-304.83,136.48-304.83,304.83S1603.91,764,1772.26,764C1940.78,763.68,2087,640.05,2056,432.7Z"/><path class="cls-11" d="M4392.63,615.68a136.6,136.6,0,0,1-50.25,110.14,192.8,192.8,0,0,1-123.92,40.62,184.59,184.59,0,0,1-114.55-37.73A191,191,0,0,1,4035.07,625l64-26.3A168.2,168.2,0,0,0,4117.26,641a135.9,135.9,0,0,0,27.54,32.35,122.52,122.52,0,0,0,34.56,21.07,106.37,106.37,0,0,0,40.06,7.71,115.11,115.11,0,0,0,74.9-23.68,77.37,77.37,0,0,0,29.19-62.92,74.48,74.48,0,0,0-24.09-56c-14.87-14.87-43.23-29.46-84.4-43.64a755.53,755.53,0,0,1-77.79-30.57c-55.07-27.54-82.61-69.8-82.61-124.74A127.64,127.64,0,0,1,4100.33,262,167.07,167.07,0,0,1,4215,220.67a177,177,0,0,1,103.67,30.56,143.27,143.27,0,0,1,58.24,74.9l-62.64,26.16A92.84,92.84,0,0,0,4279.73,304a111.94,111.94,0,0,0-129.15,2.48,64,64,0,0,0-27.53,53.15,61.12,61.12,0,0,0,21.06,46.53c15.56,13.77,49.43,28.78,101.47,46.68s91,39.93,113.45,65.81A146.63,146.63,0,0,1,4392.63,615.68Z"/><path class="cls-11" d="M4462,232.92h67V398.14l-3,49.56h3a118.09,118.09,0,0,1,46.81-43.64,135.3,135.3,0,0,1,65.95-17.49c43.65,0,77.38,12.39,101.06,37.45s35.25,60.72,35.25,107V755.42h-66.91V543.67c0-64-28.37-96.38-85.09-96.38A85.75,85.75,0,0,0,4557.3,481a121.26,121.26,0,0,0-27.54,79V754.6h-66.91V232.92Z"/><path class="cls-11" d="M4836.79,576.44A189,189,0,0,1,4888.42,440a175.85,175.85,0,0,1,132-53.83A173.63,173.63,0,0,1,5151.81,440a203.92,203.92,0,0,1,0,272.75,173.64,173.64,0,0,1-131.35,53.84,175.86,175.86,0,0,1-132-53.84A188.5,188.5,0,0,1,4836.79,576.44Zm66.92,0a132.12,132.12,0,0,0,33.45,93.48,114.27,114.27,0,0,0,161.55,4.36q2.25-2.13,4.36-4.36a146.35,146.35,0,0,0,0-186.28,112.89,112.89,0,0,0-159.54-6.37q-3.3,3.06-6.37,6.37A131.46,131.46,0,0,0,4903.71,576.44Z"/><path class="cls-11" d="M5447.55,766.58A151.53,151.53,0,0,1,5376,749.92a126.4,126.4,0,0,1-49.85-44.34h-3.58l3,49.43V912.52h-67.05V397.72h64v49.57h3a123.88,123.88,0,0,1,49.84-44.47,151.47,151.47,0,0,1,71.6-16.66,153.82,153.82,0,0,1,119.65,55.07,206.54,206.54,0,0,1,0,270A153.81,153.81,0,0,1,5447.55,766.58Zm-10.88-61a103.92,103.92,0,0,0,80.68-36.48,130.78,130.78,0,0,0,32.77-92.66,133.37,133.37,0,0,0-32.77-92.8,108.57,108.57,0,0,0-162.18,0,134.86,134.86,0,0,0-32.08,92.8,136.38,136.38,0,0,0,32.08,93.48,107.19,107.19,0,0,0,81.5,35.66Z"/><path class="cls-11" d="M5857.57,766.58a151.46,151.46,0,0,1-71.73-16.66A127.35,127.35,0,0,1,5736,705.58h-2.89L5736,755V912.52h-66.91V397.72h64v49.57h2.48a123.88,123.88,0,0,1,49.84-44.47,151.51,151.51,0,0,1,71.73-16.66,154.19,154.19,0,0,1,119.65,55.07,206.54,206.54,0,0,1,0,270A154.5,154.5,0,0,1,5857.57,766.58Zm-11.29-61A103.92,103.92,0,0,0,5927,669.1a130.82,130.82,0,0,0,32.77-92.66,133.41,133.41,0,0,0-32.77-92.8,108.57,108.57,0,0,0-162.19,0,134.8,134.8,0,0,0-31.94,92.8,136.42,136.42,0,0,0,31.94,93.48,107.24,107.24,0,0,0,81,35.66Z"/><path class="cls-11" d="M6171.48,274.5a46.93,46.93,0,1,1-13.76-33.6A45.87,45.87,0,0,1,6171.48,274.5Zm-13.76,123.91v358h-67.06V397.72Z"/><path class="cls-11" d="M6245,397.72h64v49.57h3a118.19,118.19,0,0,1,46.81-43.65,135.15,135.15,0,0,1,65.95-17.48c43.64,0,77.38,12.39,101.06,37.45s35.8,60.85,35.8,107V755h-66.92V534.72c-1.38-58.1-30.84-87.57-88.39-87.57a84,84,0,0,0-66.91,32.36A118.35,118.35,0,0,0,6312.61,557V754.46H6245Z"/><path class="cls-11" d="M6795.73,924.22a198.08,198.08,0,0,1-56-7.71A182.87,182.87,0,0,1,6692.06,895a149.64,149.64,0,0,1-36.76-32.77A138.28,138.28,0,0,1,6632,820.13l63.2-26.16a101.16,101.16,0,0,0,37.86,50.12,105.06,105.06,0,0,0,62.64,19,111,111,0,0,0,85.09-32.77,127.76,127.76,0,0,0,30.57-90.59V705.58h-2.89a135.4,135.4,0,0,1-51.36,44.75,153.55,153.55,0,0,1-70.22,16.25,158.76,158.76,0,0,1-120.33-55.08A197.14,197.14,0,0,1,6617,575.89a195.06,195.06,0,0,1,49.57-135.07,156,156,0,0,1,120.33-55.07,151.49,151.49,0,0,1,70.22,16.38,130.12,130.12,0,0,1,51.36,44.75h2.89V397.72h63.33v342c0,57.41-16.38,102.16-48.74,134.93A176.22,176.22,0,0,1,6795.73,924.22Zm2.21-218.64a102.68,102.68,0,0,0,80.68-35.66,148.7,148.7,0,0,0,0-186.28,102.85,102.85,0,0,0-80.68-36.35,104.09,104.09,0,0,0-80.82,36.35,147.59,147.59,0,0,0,0,185.46,105.19,105.19,0,0,0,80.13,36.48Z"/></g></g></g></svg>