<?xml version="1.0" encoding="UTF-8"?> <svg xmlns="http://www.w3.org/2000/svg" id="color" viewBox="0 0 512 164"><defs><style>.cls-1{fill:#2b2b2b;}.cls-2{fill:#f36;}.cls-3{fill:none;stroke:#f36;stroke-linejoin:bevel;stroke-width:10px;}</style></defs><title>sello_color</title><g id="logo"><path id="s" class="cls-1" d="M126.16,113.18a45.81,45.81,0,0,1-7.36,25.51,48.76,48.76,0,0,1-21.52,17.72A81.26,81.26,0,0,1,63.58,163q-23.31,0-38.45-8.76A51,51,0,0,1,7.67,137.45,38,38,0,0,1,1,116.89a13.81,13.81,0,0,1,14.3-14A12.12,12.12,0,0,1,23.84,106a25.15,25.15,0,0,1,5.95,9.59,63.14,63.14,0,0,0,6.51,12.46,26.27,26.27,0,0,0,9.82,8.29,36.62,36.62,0,0,0,16.65,3.11,37.69,37.69,0,0,0,23-6.57,19.71,19.71,0,0,0,8.86-16.38,17.29,17.29,0,0,0-4.79-12.65A30.8,30.8,0,0,0,77.5,96.46Q69.84,94,57.32,91.16a148.61,148.61,0,0,1-28.41-9.34A45.86,45.86,0,0,1,10.76,67.4,37.28,37.28,0,0,1,4.13,44.82a38.75,38.75,0,0,1,7-22.95A44.64,44.64,0,0,1,31.63,6.29,84.52,84.52,0,0,1,63.2,1.06a78.59,78.59,0,0,1,25,3.58,53.35,53.35,0,0,1,17.59,9.5A39.88,39.88,0,0,1,116,26.6a28.68,28.68,0,0,1,3.13,12.71,15,15,0,0,1-4,10.18A12.88,12.88,0,0,1,105.19,54a11.61,11.61,0,0,1-8.32-2.71,36.84,36.84,0,0,1-6.26-8.91A40.46,40.46,0,0,0,80.29,28.56q-6-4.95-19.34-4.95a33.65,33.65,0,0,0-19.84,5.48,15.56,15.56,0,0,0-7.57,13,13.06,13.06,0,0,0,2.57,8.1A21.71,21.71,0,0,0,43.21,56a47.26,47.26,0,0,0,9.14,3.83q4.62,1.41,15.23,4a240.32,240.32,0,0,1,24.16,6.76,73.36,73.36,0,0,1,18.36,9.06,37.46,37.46,0,0,1,11.83,13.52A43.06,43.06,0,0,1,126.16,113.18Z"></path><path id="e" class="cls-1" d="M175.65,94.25h53.19q-1.07-15-8.1-22.37a24.4,24.4,0,0,0-18.52-7.41,23.56,23.56,0,0,0-18,7.54q-7,7.53-8.55,22.27ZM233,110.79H175.65a38.54,38.54,0,0,0,4,17.5,27,27,0,0,0,24.69,15.29,35.36,35.36,0,0,0,9.6-1.21,31.73,31.73,0,0,0,8.42-3.83,66.05,66.05,0,0,0,7.51-5.61l8.91-8.13a9.7,9.7,0,0,1,6.45-1.93,10.64,10.64,0,0,1,7.29,2.46,8.76,8.76,0,0,1,2.78,7,18.84,18.84,0,0,1-3.12,9.34,36.93,36.93,0,0,1-9.39,10.15,53.6,53.6,0,0,1-15.65,8.07,68.25,68.25,0,0,1-21.9,3.11q-28.15,0-43.8-16t-15.64-43.6a72,72,0,0,1,3.88-24A52.83,52.83,0,0,1,161,60.45a49,49,0,0,1,18.27-12.11,66.1,66.1,0,0,1,24.06-4.21,57.36,57.36,0,0,1,29.22,7.26A47.52,47.52,0,0,1,251,70.08a48.67,48.67,0,0,1,6.26,23.26q0,11-6.26,14.27a39.62,39.62,0,0,1-17.83,3.11Z"></path><path id="l1" class="cls-1" d="M281.88,145.17V18.78a19.56,19.56,0,0,1,3.84-13.23,13.34,13.34,0,0,1,10.64-4.49,13.9,13.9,0,0,1,10.73,4.42,19,19,0,0,1,4.07,13.3V145.17a18.85,18.85,0,0,1-4.13,13.3A14,14,0,0,1,296.36,163a13.31,13.31,0,0,1-10.48-4.58,19.31,19.31,0,0,1-4-13.15Z"></path><path id="l2" class="cls-1" d="M341.48,145.17V18.78a19.53,19.53,0,0,1,3.91-13.23A13.3,13.3,0,0,1,356,1.06a13.93,13.93,0,0,1,10.73,4.42,19,19,0,0,1,4.07,13.3V145.17a18.9,18.9,0,0,1-4.13,13.3A14,14,0,0,1,356,163a13.3,13.3,0,0,1-10.48-4.58,19.25,19.25,0,0,1-4-13.15Z"></path><path id="o" class="cls-2" d="M481.43,103.65q0-17.81-7.88-27.75A25.7,25.7,0,0,0,452.33,66a26.35,26.35,0,0,0-15.14,4.42,28.09,28.09,0,0,0-10.11,13.08,53.2,53.2,0,0,0-3.69,20.18,52.43,52.43,0,0,0,3.51,20,28.63,28.63,0,0,0,10,13.08,26,26,0,0,0,15.45,4.51,25.62,25.62,0,0,0,21.12-10q7.89-10,7.89-27.6Zm29.44,0a68.53,68.53,0,0,1-4.06,24A52.93,52.93,0,0,1,495,146.57a52.14,52.14,0,0,1-18.46,12.12A65.7,65.7,0,0,1,452.33,163a63.89,63.89,0,0,1-24-4.27,52.71,52.71,0,0,1-30.23-31.15,68.34,68.34,0,0,1-4-23.95,69,69,0,0,1,4.06-24.23,52.76,52.76,0,0,1,11.71-18.69,51.66,51.66,0,0,1,18.46-12,70.31,70.31,0,0,1,48.12,0,51.84,51.84,0,0,1,30.35,31,68.81,68.81,0,0,1,4.19,24Z"></path></g><polyline class="cls-3" points="421.61 77.75 452.41 108.54 483.2 77.75"></polyline></svg> 