<svg xmlns="http://www.w3.org/2000/svg" viewBox="0 0 283.46 82.89"><defs><style>.cls-1{fill:#005776;}.cls-2{fill:#00bef0;}</style></defs><g id="Layer_2" data-name="Layer 2"><g id="Layer_1-2" data-name="Layer 1"><path class="cls-1" d="M1.31,81.59A1.19,1.19,0,0,1,0,80.28V25.08a1.69,1.69,0,0,1,1-1.66,59.18,59.18,0,0,1,22.84-4.64c15.94,0,26.76,7.49,26.76,25.69V80.28c0,.83-.47,1.31-1.42,1.31h-7a1.19,1.19,0,0,1-1.31-1.31V44.71c0-12.37-6.3-17.13-17-17.13a49,49,0,0,0-14,2.14V80.28c0,.83-.47,1.31-1.42,1.31Z"/><path class="cls-1" d="M114.31,54.11c0,1-.48,1.43-1.31,1.43H74.1v5c0,8.92,6.66,13.68,15.47,13.68,8.2,0,13.79-3.21,18.2-6.66a1.25,1.25,0,0,1,1.9.36l3.45,4.52c.59.71.47,1.3-.24,1.9a35.44,35.44,0,0,1-23.55,8.56c-12.85,0-25.1-7.37-25.1-22.36V42.45c0-16.29,12.13-23.67,25.22-23.67s24.86,7.38,24.86,23.67ZM89.45,27.58c-8.92,0-15.35,4.64-15.35,14.87v5h30.69v-5C104.79,32.34,98.13,27.58,89.45,27.58Z"/><path class="cls-1" d="M148.8,73.85c1.31,0,3.57-.12,5.71-.23,1,0,1.43.47,1.43,1.3v6.31a1.33,1.33,0,0,1-1.19,1.43c-2.14.12-4.88.23-6.43.23-11.89,0-20.69-6.42-20.69-21V6.41A1.26,1.26,0,0,1,129.05,5h6.19c.71,0,1.19.48,1.31,1.31l.83,14.39h15.46A1.19,1.19,0,0,1,154.15,22v6c0,.95-.47,1.43-1.31,1.43H137.38v32C137.38,69.22,141.42,73.85,148.8,73.85Z"/><path class="cls-1" d="M186.27,82.89a39.43,39.43,0,0,1-23.56-7.61,1.34,1.34,0,0,1-.35-1.9l3.21-5.47c.48-.84,1.07-1,1.9-.36a31.66,31.66,0,0,0,19,6.66c8,0,14-3.33,14-9.52,0-6.66-7.37-8.2-14-9.51-8.56-1.79-23.19-5.12-23.19-18.91,0-12.14,11.54-17.49,23.43-17.49a40.91,40.91,0,0,1,20.7,5.59,1.1,1.1,0,0,1,.48,1.79l-3.22,5.35a1.14,1.14,0,0,1-1.78.47,35.9,35.9,0,0,0-16.65-4.4c-8.33,0-13.33,3.33-13.33,8.69,0,6.54,7,8.32,15.47,10,9.51,1.9,22,4.64,22,18C210.41,76.35,200.18,82.89,186.27,82.89Z"/><circle class="cls-2" cx="241.95" cy="13.83" r="13.83"/><circle class="cls-2" cx="271.29" cy="13.83" r="8.85"/><circle class="cls-2" cx="271.29" cy="43.11" r="12.17"/><circle class="cls-2" cx="241.95" cy="72.38" r="10.51"/></g></g></svg>