<?xml version="1.0" encoding="utf-8"?>
<!-- Generator: Adobe Illustrator 25.2.0, SVG Export Plug-In . SVG Version: 6.00 Build 0)  -->
<svg version="1.1" id="Layer_1" xmlns="http://www.w3.org/2000/svg" xmlns:xlink="http://www.w3.org/1999/xlink" x="0px" y="0px"
	 viewBox="0 0 924 281" style="enable-background:new 0 0 924 281;" xml:space="preserve">
<style type="text/css">
	.st0{fill:#4A4A49;}
	.st1{fill-rule:evenodd;clip-rule:evenodd;fill:url(#SVGID_1_);}
	.st2{fill-rule:evenodd;clip-rule:evenodd;fill:url(#SVGID_2_);}
	.st3{fill-rule:evenodd;clip-rule:evenodd;fill:url(#SVGID_3_);}
	.st4{fill-rule:evenodd;clip-rule:evenodd;fill:url(#SVGID_4_);}
</style>
<path class="st0" d="M877.4,78.1c0-3.2,0.6-6.3,1.8-9.1c1.2-2.8,2.8-5.3,4.9-7.4c2.1-2.1,4.5-3.8,7.2-5c2.7-1.2,5.7-1.8,8.9-1.8
	c3.2,0,6.2,0.6,9,1.8c2.7,1.2,5.2,2.9,7.3,5c2.1,2.1,3.7,4.6,4.9,7.4c1.2,2.8,1.8,5.9,1.8,9.1c0,3.2-0.6,6.3-1.8,9.1
	c-1.2,2.8-2.8,5.3-4.9,7.4c-2.1,2.1-4.6,3.8-7.3,5c-2.8,1.2-5.8,1.8-9,1.8c-3.2,0-6.1-0.6-8.9-1.8c-2.7-1.2-5.1-2.9-7.2-5
	c-2-2.1-3.7-4.6-4.9-7.4C878,84.4,877.4,81.4,877.4,78.1L877.4,78.1z M882.1,78.1c0,2.7,0.5,5.2,1.4,7.5c0.9,2.2,2.2,4.3,3.8,6
	c1.6,1.7,3.6,3.1,5.7,4c2.2,1,4.6,1.5,7.1,1.5c2.6,0,5-0.5,7.2-1.5c2.2-1,4.1-2.3,5.8-4c1.7-1.7,3-3.8,3.9-6
	c0.9-2.3,1.4-4.8,1.4-7.5c0-2.7-0.5-5.2-1.4-7.5c-0.9-2.2-2.2-4.3-3.9-6c-1.6-1.7-3.6-3.1-5.8-4c-2.2-1-4.6-1.5-7.2-1.5
	c-2.6,0-4.9,0.5-7.1,1.5c-2.2,1-4.1,2.3-5.7,4c-1.6,1.7-2.9,3.8-3.8,6C882.6,73,882.1,75.5,882.1,78.1L882.1,78.1z M892.3,68.1
	c0-1.4,0.7-2.1,2.1-2.1h7.2c2.3,0,4.1,0.7,5.5,2c1.4,1.3,2,3.1,2,5.4c0,0.9-0.1,1.8-0.4,2.5c-0.3,0.7-0.6,1.3-1.1,1.9
	c-0.4,0.5-0.9,1-1.4,1.3c-0.5,0.3-1,0.6-1.5,0.7v0.1c0,0,0.1,0.1,0.2,0.3c0.1,0.1,0.2,0.3,0.3,0.4c0.1,0.2,0.2,0.4,0.4,0.7l3.3,6.5
	c0.4,0.7,0.5,1.3,0.3,1.8c-0.2,0.4-0.7,0.7-1.4,0.7H907c-1.2,0-2-0.5-2.5-1.5l-3.7-7.8h-4v7.3c0,1.4-0.7,2-2,2h-0.6
	c-1.3,0-2-0.7-2-2V68.1z M900.7,77.4c1.2,0,2.2-0.4,2.9-1.1c0.7-0.7,1-1.7,1-3c0-1.2-0.3-2.2-1-2.9c-0.7-0.7-1.6-1-2.8-1h-3.9v8
	H900.7z M714.4,92.8c7.2,0,13.4,0.9,18.4,2.8c5,1.8,9,3.5,11.8,5.1c2.4,1.3,3.8,3,4.3,5.1c0.4,2.1,0.1,4.4-1.1,6.8l-2.1,3.8
	c-1.3,2.6-2.9,4-4.9,4.5c-2,0.4-4.3,0.1-7-1.1c-2.4-1.1-5.3-2.3-8.7-3.5c-3.4-1.2-7.4-1.8-11.9-1.8c-4.7,0-8.3,0.9-10.8,2.8
	c-2.6,1.8-3.8,4.5-3.8,7.9c0,3,1.3,5.4,3.9,7.2c2.6,1.8,6,3.5,10,4.9c4,1.4,8.4,2.9,13,4.6c4.5,1.6,8.9,3.7,13,6.3
	c4,2.5,7.4,5.8,10,9.8c2.6,4,3.9,9,3.9,15.1c0,4.8-1,9.3-2.9,13.3c-1.9,4-4.7,7.6-8.3,10.5c-3.6,3-8,5.3-13.1,7
	c-5.1,1.7-10.8,2.6-17,2.6c-8.8,0-16.2-1.3-22.2-3.8c-6-2.6-10.7-5-13.9-7.2c-2.4-1.4-3.8-3.2-4-5.3c-0.3-2.1,0.4-4.4,1.9-6.8
	l2.5-3.8c1.6-2.3,3.3-3.5,5.2-3.8c1.9-0.3,4.2,0.3,6.9,1.7c2.6,1.4,5.8,3,9.9,4.8c4,1.8,8.8,2.7,14.3,2.7c4.7,0,8.4-1,11.1-3
	c2.7-2,4-4.7,4-8.1c0-3-1.3-5.4-3.9-7.1c-2.6-1.8-6-3.4-10-4.9c-4.3-1.6-8.6-3.2-13-4.8c-4.5-1.7-8.9-3.8-13-6.4
	c-4-2.5-7.4-5.8-10-9.8c-2.6-4-3.9-9.1-3.9-15.3c0-5.3,1.1-9.9,3.3-14c2.1-4.1,5.2-7.6,8.9-10.2c3.8-2.7,8.1-4.8,13.2-6.2
	C703.3,93.5,708.7,92.8,714.4,92.8L714.4,92.8z M398.4,92.8c7.2,0,13.4,0.9,18.4,2.8c5,1.8,9,3.5,11.8,5.1c2.4,1.3,3.8,3,4.3,5.1
	c0.4,2.1,0.1,4.4-1.1,6.8l-2.1,3.8c-1.3,2.6-2.9,4-4.9,4.5c-2,0.4-4.3,0.1-7-1.1c-2.4-1.1-5.3-2.3-8.7-3.5
	c-3.4-1.2-7.4-1.8-11.9-1.8c-4.7,0-8.3,0.9-10.8,2.8c-2.6,1.8-3.8,4.5-3.8,7.9c0,3,1.3,5.4,3.9,7.2c2.6,1.8,6,3.5,10,4.9
	c4,1.4,8.4,2.9,13,4.6c4.5,1.6,8.9,3.7,13,6.3c4,2.5,7.4,5.8,10,9.8c2.6,4,3.9,9,3.9,15.1c0,4.8-1,9.3-2.9,13.3
	c-1.9,4-4.7,7.6-8.3,10.5c-3.6,3-8,5.3-13.1,7c-5.1,1.7-10.8,2.6-17,2.6c-8.8,0-16.2-1.3-22.2-3.8c-6-2.6-10.7-5-13.9-7.2
	c-2.4-1.4-3.8-3.2-4-5.3c-0.3-2.1,0.4-4.4,1.9-6.8l2.5-3.8c1.6-2.3,3.3-3.5,5.2-3.8c1.9-0.3,4.2,0.3,6.9,1.7c2.6,1.4,5.8,3,9.9,4.8
	c4,1.8,8.8,2.7,14.3,2.7c4.7,0,8.4-1,11.1-3c2.7-2,4-4.7,4-8.1c0-3-1.3-5.4-3.9-7.1c-2.6-1.8-6-3.4-10-4.9c-4-1.5-8.4-3.1-13-4.8
	c-4.5-1.7-8.9-3.8-13-6.4c-4-2.5-7.4-5.8-10-9.8c-2.6-4-3.9-9.1-3.9-15.3c0-5.3,1.1-9.9,3.3-14c2.1-4.1,5.2-7.6,8.9-10.2
	c3.8-2.7,8.1-4.8,13.2-6.2C387.4,93.5,392.7,92.8,398.4,92.8L398.4,92.8z M786,52.7c6,0,8.9,3,8.9,8.9v43.8c0,1.4,0,2.7-0.1,3.7
	c-0.1,1.1-0.2,2-0.3,2.9c-0.1,0.8-0.2,1.7-0.2,2.6h0.4c1.3-2.6,3.1-5.1,5.4-7.8c2.3-2.6,5.1-5,8.3-7.1c3.2-2.1,6.8-3.8,10.8-5.1
	c4-1.3,8.4-1.9,13.1-1.9c12,0,21.4,3.3,28,9.8c6.6,6.5,9.9,17,9.9,31.5v60.9c0,6-3,8.9-8.9,8.9h-9.1c-6,0-8.9-3-8.9-8.9v-55.3
	c0-6.7-1.1-12-3.4-16.1c-2.3-4-6.8-6.1-13.6-6.1c-4.7,0-9,0.9-12.9,2.8c-3.9,1.8-7.2,4.4-9.9,7.6c-2.7,3.2-4.8,7-6.3,11.4
	c-1.5,4.4-2.2,9.2-2.2,14.3v41.5c0,6-3,8.9-8.9,8.9h-9.1c-5.9,0-8.9-3-8.9-8.9V61.7c0-6,3-8.9,8.9-8.9H786z M644.8,95.3
	c5.8,0,8.7,3,8.7,8.9v90.7c0,6-2.9,8.9-8.7,8.9h-9.4c-5.8,0-8.7-3-8.7-8.9v-90.7c0-6,2.9-8.9,8.7-8.9H644.8z M464.4,95.3
	c5.4,0,8.6,2.6,9.6,7.9l17.4,63.4c0.3,1.6,0.5,3,0.7,4.3c0.2,1.3,0.5,2.5,0.7,3.6c0.3,1.3,0.5,2.5,0.6,3.6h0.4
	c0.1-1.1,0.4-2.3,0.6-3.6c0.3-1.1,0.5-2.3,0.7-3.6c0.2-1.3,0.5-2.7,1-4.3l18.3-63.4c1-5.1,4.3-7.7,9.8-7.7h8.1
	c5.2,0,8.5,2.6,9.8,7.7l18.1,63.4c0.4,1.6,0.7,3,1,4.3c0.2,1.3,0.5,2.5,0.7,3.6c0.3,1.3,0.5,2.5,0.6,3.6h0.4
	c0.2-1.2,0.4-2.4,0.6-3.6c0.3-1.1,0.5-2.3,0.7-3.6c0.2-1.3,0.5-2.7,1-4.3l17.2-63.4c1.3-5.2,4.5-7.9,9.8-7.9h9.8
	c3.3,0,5.5,0.9,6.8,2.8c1.3,1.8,1.5,4.3,0.6,7.2l-27.8,91.1c-1.4,5-4.7,7.5-10,7.5h-14.2c-5.4,0-8.7-2.6-10-7.7l-16.4-54.3
	c-0.4-1.4-0.8-2.8-1.1-4.3c-0.3-1.3-0.5-2.6-0.8-3.8c-0.3-1.2-0.5-2.4-0.6-3.6h-0.4c-0.3,1.2-0.6,2.4-0.8,3.6
	c-0.3,1.1-0.6,2.4-0.8,3.8c-0.3,1.4-0.6,2.9-1.1,4.3L509,196.2c-1.3,5.1-4.5,7.7-9.8,7.7h-14.7c-5.1,0-8.4-2.5-9.8-7.5l-28.1-91.1
	c-0.9-3-0.6-5.4,0.7-7.2c1.3-1.8,3.6-2.8,6.7-2.8H464.4z"/>
<linearGradient id="SVGID_1_" gradientUnits="userSpaceOnUse" x1="190.3641" y1="75.0284" x2="130.6701" y2="193.9427" gradientTransform="matrix(1 0 0 -1 0 282)">
	<stop  offset="0" style="stop-color:#EF2131"/>
	<stop  offset="1" style="stop-color:#FECF2C"/>
</linearGradient>
<path class="st1" d="M79.9,267.3c56.4,27,126.1,13.6,168.2-36.5c49.9-59.4,42.1-148-17.3-197.9L191.3,80
	c46.4,39,52.5,108.2,13.5,154.6C173.7,271.6,122.6,284,79.9,267.3"/>
<linearGradient id="SVGID_2_" gradientUnits="userSpaceOnUse" x1="244.1142" y1="169.4783" x2="139.4705" y2="-11.6772" gradientTransform="matrix(1 0 0 -1 0 282)">
	<stop  offset="0" style="stop-color:#FBC52C"/>
	<stop  offset="0.264" style="stop-color:#F87130"/>
	<stop  offset="0.561" style="stop-color:#EF52E2"/>
	<stop  offset="1" style="stop-color:#661EEC"/>
</linearGradient>
<path class="st2" d="M79.9,267.3c56.4,27,126.1,13.6,168.2-36.5c5.1-6,9.6-12.5,13.6-19.3c6.6-41.3-8-85-42.3-113.8
	c-8.5-7.2-18-13.1-28.1-17.7c46.4,39,52.5,108.2,13.5,154.6C173.7,271.6,122.6,284,79.9,267.3z"/>
<linearGradient id="SVGID_3_" gradientUnits="userSpaceOnUse" x1="92.3038" y1="205.2868" x2="149.5161" y2="88.9278" gradientTransform="matrix(1 0 0 -1 0 282)">
	<stop  offset="0" style="stop-color:#78F6D8"/>
	<stop  offset="0.266" style="stop-color:#77D1F6"/>
	<stop  offset="0.554" style="stop-color:#70A4F3"/>
	<stop  offset="1" style="stop-color:#661EEC"/>
</linearGradient>
<path class="st3" d="M201.1,13.7C144.6-13.3,75,0,32.9,50.2c-49.9,59.4-42.1,148,17.3,197.9L89.7,201
	c-46.4-39-52.5-108.2-13.5-154.6C107.3,9.4,158.4-3,201.1,13.7"/>
<linearGradient id="SVGID_4_" gradientUnits="userSpaceOnUse" x1="37.625" y1="114.2914" x2="141.4532" y2="294.8255" gradientTransform="matrix(1 0 0 -1 0 282)">
	<stop  offset="0" style="stop-color:#536EED"/>
	<stop  offset="0.247" style="stop-color:#54C3EC"/>
	<stop  offset="0.564" style="stop-color:#64D769"/>
	<stop  offset="1" style="stop-color:#FECF2C"/>
</linearGradient>
<path class="st4" d="M201.1,13.7C144.6-13.3,75,0,32.9,50.2c-5.1,6-9.6,12.5-13.6,19.3c-6.6,41.3,8,84.9,42.3,113.8
	c8.5,7.2,18,13.1,28.1,17.7c-46.4-39-52.5-108.2-13.5-154.6C107.3,9.4,158.4-3,201.1,13.7"/>
</svg>
