<?xml version="1.0" encoding="utf-8"?>
<!-- Generator: Adobe Illustrator 25.2.0, SVG Export Plug-In . SVG Version: 6.00 Build 0)  -->
<svg version="1.1"
	 id="Logo_DB_Schenker" inkscape:output_extension="org.inkscape.output.svg.inkscape" inkscape:version="0.46" sodipodi:docname="Logo_DB_Schenker.svg" sodipodi:version="0.32" xmlns:cc="http://creativecommons.org/ns#" xmlns:dc="http://purl.org/dc/elements/1.1/" xmlns:inkscape="http://www.inkscape.org/namespaces/inkscape" xmlns:rdf="http://www.w3.org/1999/02/22-rdf-syntax-ns#" xmlns:sodipodi="http://sodipodi.sourceforge.net/DTD/sodipodi-0.dtd" xmlns:svg="http://www.w3.org/2000/svg"
	 xmlns="http://www.w3.org/2000/svg" xmlns:xlink="http://www.w3.org/1999/xlink" x="0px" y="0px" viewBox="0 0 880 173.2"
	 style="enable-background:new 0 0 880 173.2;" xml:space="preserve">
<style type="text/css">
	.st0{fill:#FFFFFF;}
	.st1{fill:#FF0000;}
</style>
<sodipodi:namedview  bordercolor="#666666" borderopacity="1.0" gridtolerance="10.0" guidetolerance="10.0" id="base" inkscape:current-layer="Logo_DB_Schenker" inkscape:cx="427.72709" inkscape:cy="146.5035" inkscape:pageopacity="0.0" inkscape:pageshadow="2" inkscape:window-height="998" inkscape:window-width="1280" inkscape:window-x="-4" inkscape:window-y="-4" inkscape:zoom="1.0658384" objecttolerance="10.0" pagecolor="#ffffff" showgrid="false">
	</sodipodi:namedview>
<defs>
	
		<inkscape:perspective  id="perspective2439" inkscape:persp3d-origin="510.3963 : 57.741999 : 1" inkscape:vp_x="0 : 86.612999 : 1" inkscape:vp_y="0 : 1000 : 0" inkscape:vp_z="1020.7926 : 86.612999 : 1" sodipodi:type="inkscape:persp3d">
		</inkscape:perspective>
</defs>
<path id="SCHENKER" class="st0" d="M856.9,105.4c-2.3-3.8-4.7-6.1-7.3-7.7c10.6-3.5,15.3-9.6,15.3-20.4C864.9,61,855,53,834.7,53
	h-30.9v81.8h20.8c0,0,0-30.7,0-32.3c1,0,2.6,0,2.6,0c4.7,0,6.4,1.3,10,7.5l14.5,24.8h22.7L856.9,105.4z M824.5,68.8
	c1.4,0,9.5,0,9.5,0c8.1,0,10.7,2.3,10.7,9.5c0,7.2-2.9,9.8-10.7,9.8c0,0-8.1,0-9.5,0V68.8 M752.2,118.3v-17.1c1.6,0,27.7,0,27.7,0
	V85.3c0,0-26.1,0-27.7,0V69.6c1.6,0,35.1,0,35.1,0V53h-55.8v81.8H789l1.5-16.6C790.4,118.3,753.8,118.3,752.2,118.3 M688.8,91.6
	c0.8-1,30.4-38.5,30.4-38.5h-21.6c0,0-23.9,31.4-26.6,34.9c0-4.3,0-34.9,0-34.9h-20.8v81.8h20.8c0,0,0-30.3,0-34.6
	c2.7,3.6,26.1,34.6,26.1,34.6h24.7C721.9,134.9,689.6,92.6,688.8,91.6 M615.1,53c0,0,0,40.2,0,44.7c-2.8-3.7-33.5-44.7-33.5-44.7
	h-17.4v81.8h17.6c0,0,0-44.9,0-49.5c2.8,3.7,37.1,49.5,37.1,49.5h13.8V53H615.1 M512.6,118.3v-17.1c1.6,0,27.7,0,27.7,0V85.3
	c0,0-26.1,0-27.7,0V69.6c1.6,0,35.1,0,35.1,0V53h-55.9v81.8h57.5l1.4-16.6C550.8,118.3,514.2,118.3,512.6,118.3 M453.5,53
	c0,0,0,30.1,0,31.7h-28.7c0-1.6,0-31.7,0-31.7H404v81.8h20.8c0,0,0-32.1,0-33.7h28.7c0,1.6,0,33.7,0,33.7h20.8V53H453.5 M389,116.4
	c-7.7,2.9-12.7,3.9-19.2,3.9c-13.5,0-18.7-7.3-18.7-26c0-19.6,5.1-26.8,18.8-26.8c6.4,0,11.9,1.1,18.6,3.8l1.1,0.5V54.7l-0.5-0.2
	c-6.3-2.3-12.5-3.4-19.7-3.4c-11.2,0-20.7,3.2-27.6,9.3c-8.6,7.6-12.5,18.3-12.5,33.9c0,13.2,2.7,22.7,8.5,29.8
	c6.8,8.1,17.5,12.4,30.9,12.4c7.5,0,14.8-1.5,20.9-4.5l0.5-0.2v-15.9L389,116.4 M299.8,85.8c0,0-1.3-0.6-1.3-0.6
	c-8.4-3.6-8.7-3.8-10.7-5.2c-2.7-2-3.7-3.5-3.7-6c0-4.5,3.7-6.8,11-6.8c6.5,0,11.2,1.1,18.7,4.5l1.2,0.5V55.2l-0.6-0.2
	c-7.2-2.7-13.2-3.8-20.2-3.8c-18.6,0-29.3,9.1-29.3,24.9c0,11.9,5.3,18.7,19,24.4c14.5,6.1,15.9,7.6,15.9,12.1
	c0,5.2-4.3,7.9-12.9,7.9c-7.4,0-12.9-1.5-21.2-5.6l-1.2-0.6v17.1l0.5,0.2c7.7,3.6,14.5,5,23.3,5c20.4,0,31.6-9.1,31.6-25.5
	C319.9,98.5,314.8,92.2,299.8,85.8"/>
<path id="DB" class="st1" d="M69.1,134.9H34.2V38.4h34.9c24.6,0,37.8,15.6,37.8,47.8C106.9,114.1,98.1,134.6,69.1,134.9z M84.3,88.2
	c0-19.4-2-34.6-22.6-34.6H57v65.7h8.1C77.2,119.2,84.3,109.4,84.3,88.2 M153.9,134.9H117V38.4h38.6c18.2,0,28.1,7.6,28.1,25.7
	c0,9.4-7.7,16.1-16,20.3c11.6,3.3,19.5,10.5,19.5,22.6C187.2,126.6,171,134.9,153.9,134.9z M139.6,76.6h7.9
	c7.5,0,12.9-3.3,12.9-11.6c0-9.2-7-11.6-14.5-11.6h-6.4V76.6z M163.1,106.5c0-9.8-6.1-12.1-15.1-12.1h-8.4v24.8h8.1
	C155.8,119.2,163.1,116.5,163.1,106.5 M192.5,12.9h-166c-11.4,0-20.8,9.2-20.8,21v105.2c0,11.8,9.4,21.2,20.8,21.2h166
	c11.2,0,20.6-9.4,20.6-21.2V33.9C213.1,22.1,203.7,12.9,192.5,12.9z M198,139.1c0,3.4-2.2,6-5.5,6h-166c-3.3,0-5.7-2.7-5.7-6V33.9
	c0-3.4,2.4-6,5.7-6h166c3.3,0,5.5,2.7,5.5,6V139.1"/>
</svg>
