<svg width="42" height="24" viewBox="0 0 42 24" fill="none" xmlns="http://www.w3.org/2000/svg">
<path d="M4.03291 0H37.9671C40.1944 0 42 1.85719 42 4.14814V19.8519C42 22.1428 40.1944 24 37.9671 24H4.03291C1.8056 24 0 22.1428 0 19.8519V4.14814C0 1.85719 1.8056 0 4.03291 0Z" fill="#FFB3C7"/>
<path d="M38.0748 14.0607C37.5232 14.0629 37.0778 14.5245 37.0798 15.0918C37.0798 15.0925 37.0798 15.0931 37.0798 15.0936C37.0767 15.6609 37.5213 16.1234 38.0728 16.1266C38.0734 16.1266 38.0741 16.1266 38.0746 16.1266C38.6235 16.1266 39.0696 15.6638 39.0696 15.0936C39.0727 14.5263 38.6281 14.0639 38.0766 14.0607C38.076 14.0607 38.0753 14.0607 38.0748 14.0607ZM34.8006 13.263C34.8006 12.4815 34.1575 11.8489 33.3641 11.8489C32.5708 11.8489 31.9277 12.4826 31.9277 13.263C31.9277 14.0434 32.5717 14.6762 33.365 14.6762C34.1582 14.6762 34.8006 14.0434 34.8006 13.263ZM34.8062 10.5145H36.391V16.0105H34.8062V15.6591C34.3441 15.9871 33.7959 16.1626 33.2345 16.162C31.6916 16.162 30.441 14.8641 30.441 13.2628C30.441 11.6616 31.6917 10.3636 33.2345 10.3636C33.8178 10.3636 34.3581 10.5489 34.8062 10.8666V10.5145ZM22.1203 11.2306V10.5153H20.4973V16.0103H22.1241V13.4444C22.1241 12.5784 23.0275 12.1138 23.6548 12.1138H23.6734V10.5153C23.0294 10.5153 22.4386 10.8014 22.1203 11.2306ZM18.0772 13.263C18.0772 12.4815 17.4341 11.8489 16.6407 11.8489C15.8473 11.8489 15.2043 12.4826 15.2043 13.263C15.2043 14.0434 15.8483 14.6762 16.6416 14.6762C17.4349 14.676 18.0772 14.0434 18.0772 13.263ZM18.0828 10.5145H19.6686V16.0105H18.0828V15.6591C17.6347 15.9759 17.0944 16.162 16.511 16.162C14.9682 16.162 13.7176 14.8641 13.7176 13.2628C13.7176 11.6616 14.9683 10.3636 16.511 10.3636C17.0944 10.3636 17.6347 10.5489 18.0828 10.8666V10.5145ZM27.6242 10.3675C26.9913 10.3675 26.3921 10.571 25.9909 11.1337V10.5155H24.4127V16.0105H26.0105V13.1228C26.0105 12.2876 26.55 11.8776 27.2005 11.8776C27.8967 11.8776 28.2981 12.3097 28.2981 13.1113V16.0105H29.8811V12.516C29.8809 11.2374 28.901 10.3675 27.6242 10.3675ZM11.4084 16.0105H13.0679V8.06647H11.4084V16.0105ZM4.11914 16.0124H5.87665V8.06445H4.11998L4.11914 16.0124ZM10.2661 8.06445C10.2661 9.7848 9.6202 11.386 8.46848 12.5756L10.897 16.0124H8.727L6.08849 12.2779L6.76985 11.748C7.89451 10.8779 8.55288 9.51197 8.54503 8.06445H10.2641H10.2661Z" fill="#0A0B09"/>
</svg>
