<?xml version="1.0" encoding="UTF-8"?> <svg xmlns="http://www.w3.org/2000/svg" xmlns:xlink="http://www.w3.org/1999/xlink" width="261px" height="37px" viewBox="0 0 261 37" version="1.1"><!-- Generator: Sketch 53.2 (72643) - https://sketchapp.com --><title>getanewsletter.</title><desc>Created with Sketch.</desc><g id="Page-1" stroke="none" stroke-width="1" fill="none" fill-rule="evenodd"><g id="Desktop-Copy-8" transform="translate(-170.000000, -432.000000)" fill-rule="nonzero"><g id="getanewsletter." transform="translate(170.000000, 432.000000)"><path d="M13.9537979,27.8950202 L13.9537979,26.7402423 C13.0621814,27.8061911 11.2343676,28.7833109 9.04990724,28.7833109 C3.29898097,28.7833109 0,24.1641992 0,18.8344549 C0,13.5491252 3.29898097,8.93001346 9.04990724,8.93001346 C11.2343676,8.93001346 13.0621814,9.90713324 13.9537979,10.9286676 L13.9537979,9.37415882 L19.4372392,9.37415882 L19.4372392,27.051144 C19.4372392,33.846568 15.2912226,37 9.67403878,37 C4.50266321,37 0.980778125,34.3795424 0.401227415,29.9380888 L5.75092628,29.9380888 C6.19673452,31.8034993 7.53415923,32.7362046 9.67403878,32.7362046 C12.4826307,32.7362046 13.9537979,31.0928668 13.9537979,27.8950202 Z M13.9537979,22.076716 L13.9537979,15.5921938 C13.2850855,14.4818304 11.8584991,13.5491252 10.2090087,13.5491252 C7.26667429,13.5491252 5.52802216,15.769852 5.52802216,18.8344549 C5.52802216,21.9434724 7.26667429,24.1641992 10.2090087,24.1641992 C11.8584991,24.1641992 13.2850855,23.2314939 13.9537979,22.076716 Z M36.3696993,21.5795716 L41.3218028,20.2576089 C41.7289593,24.5171431 39.4184758,27.9387861 34.5955576,29.2262628 C28.9975277,30.7206554 24.155009,27.6451399 22.5627144,21.7247816 C21.005035,15.9331267 23.7382959,10.6513337 29.1210171,9.21441773 C34.7621088,7.7085298 38.9125475,10.7848706 40.4240735,16.4049209 L40.8625314,18.0351644 L28.0301242,21.4607721 C28.9754418,24.2891676 31.0733237,25.5683911 33.441721,24.936148 C35.2503153,24.4533443 36.3775396,23.3247685 36.3696993,21.5795716 Z M30.3294538,13.5359383 C28.2624889,14.087714 27.1330014,15.7226884 27.2939321,18.2087001 L34.7436181,16.2200084 C34.1582531,14.2151498 32.5256041,12.9496765 30.3294538,13.5359383 Z M44.8355722,23.2314939 L44.8355722,13.8156124 L41.8040761,13.8156124 L41.8040761,9.37415882 L44.8355722,9.37415882 L44.8355722,4 L50.3190135,4 L50.3190135,9.37415882 L54.6879342,9.37415882 L54.6879342,13.8156124 L50.3190135,13.8156124 L50.3190135,22.5208614 C50.3190135,24.0753701 51.1660491,24.7860027 52.5926355,24.7860027 C53.4396712,24.7860027 54.3758685,24.5195155 55,24.1197847 L55,29.0053836 C54.242126,29.4051144 52.9047013,29.6271871 51.4335341,29.6271871 C47.3766791,29.6271871 44.8355722,27.628533 44.8355722,23.2314939 Z" id="get" fill="#171717"></path><path d="M75,28.6387097 L69.5634518,28.6387097 L69.5634518,27.5548387 C68.8781726,28.2322581 66.822335,29 64.5837563,29 C60.4720812,29 57,26.6516129 57,22.4516129 C57,18.6129032 60.4720812,15.9935484 64.9035533,15.9935484 C66.6852792,15.9935484 68.7411168,16.5806452 69.5634518,17.1677419 L69.5634518,15.6774194 C69.5634518,13.9612903 68.5126904,12.5612903 66.2284264,12.5612903 C64.6294416,12.5612903 63.6700508,13.283871 63.213198,14.4580645 L57.822335,14.4580645 C58.4162437,10.8 61.751269,8 66.4111675,8 C71.8477157,8 75,10.9354839 75,15.7677419 L75,28.6387097 Z M69.5634518,23.1290323 L69.5634518,21.683871 C69.0609137,20.6 67.5076142,19.9225806 65.8629442,19.9225806 C64.0812183,19.9225806 62.2538071,20.6903226 62.2538071,22.4064516 C62.2538071,24.1677419 64.0812183,24.8903226 65.8629442,24.8903226 C67.5076142,24.8903226 69.0609137,24.2129032 69.5634518,23.1290323 Z" id="a" fill="#0D62CB"></path><path d="M78,28.5606061 L78,8.91969697 L83.5601704,8.91969697 L83.5601704,10.7212121 C84.6363324,9.49090909 86.6092961,8.48030303 88.9409804,8.48030303 C93.4698289,8.48030303 96.0257137,11.380303 96.0257137,15.730303 L96.0257137,28.5606061 L90.4655433,28.5606061 L90.4655433,16.8727273 C90.4655433,14.8075758 89.3893813,13.4015152 87.1922172,13.4015152 C85.488294,13.4015152 84.0085712,14.4121212 83.5601704,16.1257576 L83.5601704,28.5606061 L78,28.5606061 Z M112.84642,20.9945376 L117.827323,19.6867172 C118.236847,23.9006833 115.912927,27.2857219 111.061961,28.5594253 C105.431376,30.0378311 100.560695,26.9952171 98.9591408,21.1381942 C97.3924027,15.4084978 100.141559,10.1832088 105.555583,8.76166478 C111.229481,7.27188667 115.404056,10.3153171 116.924373,15.8752447 L117.36538,17.4880481 L104.458346,20.877009 C105.409161,23.6751467 107.519244,24.9406851 109.901414,24.3152058 C111.720526,23.837567 112.854306,22.7210646 112.84642,20.9945376 Z M106.771048,13.0369542 C104.692062,13.5828271 103.556006,15.2003107 103.717873,17.6597273 L111.210883,15.6923104 C110.622113,13.7088996 108.97997,12.4569642 106.771048,13.0369542 Z M134.782688,8.91969697 L138.100854,21.4424242 L141.68806,8.91969697 L147.068871,8.91969697 L140.970619,28.5606061 L135.85885,28.5606061 L132.585523,16.5212121 L129.312197,28.5606061 L124.200428,28.5606061 L118.102176,8.91969697 L123.662347,8.91969697 L127.249553,21.4424242 L130.52288,8.91969697 L134.782688,8.91969697 Z M147.749043,22.7166667 L153.264373,22.7166667 C153.712774,24.1227273 154.968296,24.869697 156.627379,24.869697 C158.331302,24.869697 159.452304,24.2106061 159.452304,22.9363636 C159.452304,22.0575758 158.824543,21.6181818 157.434501,21.2666667 L153.398893,20.3878788 C150.349767,19.6848485 148.197443,18.1469697 148.197443,14.8515152 C148.197443,11.0287879 151.69497,8.48030303 156.178978,8.48030303 C161.245908,8.48030303 164.025993,10.8530303 164.698594,14.5439394 L159.407464,14.5439394 C159.048744,13.4454545 158.107102,12.6106061 156.268658,12.6106061 C154.923456,12.6106061 153.623094,13.2257576 153.623094,14.4560606 C153.623094,15.2469697 154.161175,15.6863636 155.416697,15.9939394 L159.541985,16.9166667 C163.039511,17.7515152 164.877955,19.6409091 164.877955,22.6287879 C164.877955,26.6272727 161.335588,29 156.672219,29 C151.78465,29 148.331964,26.7151515 147.749043,22.7166667 Z M173.449981,0 L173.449981,28.5606061 L167.889811,28.5606061 L167.889811,0 L173.449981,0 Z M190.494888,20.9945376 L195.475791,19.6867172 C195.885315,23.9006833 193.561395,27.2857219 188.710429,28.5594253 C183.079844,30.0378311 178.209163,26.9952171 176.607609,21.1381942 C175.040871,15.4084978 177.790027,10.1832088 183.204051,8.76166478 C188.877949,7.27188667 193.052524,10.3153171 194.572841,15.8752447 L195.013848,17.4880481 L182.106814,20.877009 C183.057629,23.6751467 185.167712,24.9406851 187.549882,24.3152058 C189.368995,23.837567 190.502774,22.7210646 190.494888,20.9945376 Z M184.419516,13.0369542 C182.34053,13.5828271 181.204474,15.2003107 181.366341,17.6597273 L188.859351,15.6923104 C188.270581,13.7088996 186.628438,12.4569642 184.419516,13.0369542 Z M199.023971,22.6287879 L199.023971,13.3136364 L195.974845,13.3136364 L195.974845,8.91969697 L199.023971,8.91969697 L199.023971,3.6030303 L204.539301,3.6030303 L204.539301,8.91969697 L208.933629,8.91969697 L208.933629,13.3136364 L204.539301,13.3136364 L204.539301,21.9257576 C204.539301,23.4636364 205.391262,24.1666667 206.826145,24.1666667 C207.678107,24.1666667 208.619748,23.9030303 209.24751,23.5075758 L209.24751,28.3409091 C208.485228,28.7363636 207.140026,28.9560606 205.660303,28.9560606 C201.579855,28.9560606 199.023971,26.9787879 199.023971,22.6287879 Z M211.247973,22.6287879 L211.247973,13.3136364 L208.198847,13.3136364 L208.198847,8.91969697 L211.247973,8.91969697 L211.247973,3.6030303 L216.763303,3.6030303 L216.763303,8.91969697 L221.157632,8.91969697 L221.157632,13.3136364 L216.763303,13.3136364 L216.763303,21.9257576 C216.763303,23.4636364 217.615265,24.1666667 219.050148,24.1666667 C219.902109,24.1666667 220.843751,23.9030303 221.471512,23.5075758 L221.471512,28.3409091 C220.709231,28.7363636 219.364028,28.9560606 217.884305,28.9560606 C213.803858,28.9560606 211.247973,26.9787879 211.247973,22.6287879 Z M237.529937,20.9945376 L242.51084,19.6867172 C242.920364,23.9006833 240.596444,27.2857219 235.745478,28.5594253 C230.114893,30.0378311 225.244212,26.9952171 223.642658,21.1381942 C222.07592,15.4084978 224.825076,10.1832088 230.2391,8.76166478 C235.912998,7.27188667 240.087573,10.3153171 241.60789,15.8752447 L242.048897,17.4880481 L229.141863,20.877009 C230.092678,23.6751467 232.202761,24.9406851 234.584931,24.3152058 C236.404044,23.837567 237.537823,22.7210646 237.529937,20.9945376 Z M231.454565,13.0369542 C229.375579,13.5828271 228.239523,15.2003107 228.40139,17.6597273 L235.8944,15.6923104 C235.30563,13.7088996 233.663487,12.4569642 231.454565,13.0369542 Z M257,8.83181818 L257,14.280303 C256.237719,13.8409091 255.251237,13.6212121 254.219915,13.6212121 C252.336631,13.6212121 250.812068,14.5878788 250.408508,16.3893939 L250.408508,28.5606061 L244.848337,28.5606061 L244.848337,8.91969697 L250.408508,8.91969697 L250.408508,10.8530303 C251.260469,9.4469697 252.919552,8.48030303 254.892516,8.48030303 C255.834158,8.48030303 256.686119,8.65606061 257,8.83181818 Z" id="newsletter" fill="#171717"></path><path d="M254,25.4779874 C254,23.4968553 255.525641,22 257.5,22 C259.474359,22 261,23.4968553 261,25.4779874 C261,27.4591195 259.474359,29 257.5,29 C255.525641,29 254,27.4591195 254,25.4779874 Z" id="." fill="#005FCE"></path></g></g></g></svg> 