<svg xmlns="http://www.w3.org/2000/svg" viewBox="0 0 5507.29 966.2"><defs><style>.cls-1,.cls-2{fill:#747474;}.cls-1{fill-rule:evenodd;}.cls-3{fill:#fbbc04;}.cls-4{fill:#4285f4;}.cls-5{fill:#34a853;}</style></defs><g id="Layer_2" data-name="Layer 2"><g id="svg18"><path id="path2" class="cls-1" d="M4217.12,766.89l212-562.24h81.67l212,562.24h-80.09l-54.18-152.34H4352.19l-55,152.34ZM4376.53,547h186.89l-91.88-253.64h-3.14Zm548.89,232.43q-74.62,0-128.78-58.89T4742.46,574.5q0-87.17,54.18-146t128.78-58.9q44,0,78.93,18.85t52.2,47.11h3.15l-3.15-53.39V204.65h72.25V766.89h-69.1v-53.4h-3.15q-17.25,28.28-52.23,47.12t-78.9,18.84Zm11.78-66q51.06,0,86.78-37.69t35.72-101.3q0-63.6-35.72-101.29t-86.78-37.7q-50.25,0-86.38,38.07T4814.7,574.5q0,62.79,36.12,100.89t86.38,38.1Zm418.53,66q-64.36,0-106.38-31.41t-61.66-78.52l64.39-26.7q30.63,72.21,104.44,72.24,33.8,0,55.34-14.92t21.61-39.26q0-37.7-52.61-51L5303.12,591q-36.87-9.42-69.88-35.74t-33-71.05q0-51.06,45.17-82.86t107.17-31.79q51.06,0,91.09,23.15T5501,459.07L5438.18,485q-21.19-51-87.94-51-32.22,0-54.18,13.35t-22,36.12q0,33,51,44.76l76.17,18.06q54.18,12.56,80.09,43.19t25.92,69.1q0,51.84-42.41,86.38t-109.15,34.55Z"/><g id="g6"><path id="path4" class="cls-2" d="M1789,778.43c-174.12,0-324.34-143.4-324.34-317.52S1611.47,143.4,1789,143.4c95.6,0,167.29,37.56,218.5,88.77l-61.45,61.45c-37.56-34.14-88.77-61.45-157-61.45-126.32,0-228.75,102.42-228.75,232.16s99,232.16,228.75,232.16c81.94,0,129.74-34.14,160.46-64.87,23.9-23.9,41-61.45,47.8-109.25H1789V437h293.61c3.42,17.07,3.42,34.14,3.42,54.62,0,64.87-17.07,146.81-75.11,204.85-58,51.21-129.74,81.94-221.92,81.94Zm747.69-204.85c0,119.5-92.18,204.85-201.43,204.85-112.67,0-201.43-85.35-201.43-204.85S2226,368.73,2335.26,368.73C2447.93,368.73,2536.69,457.5,2536.69,573.58Zm-88.76,0c0-75.11-51.22-122.91-112.67-122.91s-112.67,51.21-112.67,122.91,51.22,122.91,112.67,122.91C2396.71,699.9,2447.93,648.69,2447.93,573.58Zm542.84,0c0,119.5-92.18,204.85-201.43,204.85-112.67,0-201.43-85.35-201.43-204.85s92.18-204.85,201.43-204.85S2990.77,457.5,2990.77,573.58Zm-88.77,0c0-75.11-51.21-122.91-112.66-122.91s-112.67,51.21-112.67,122.91,51.21,122.91,112.67,122.91C2847.38,699.9,2902,648.69,2902,573.58Zm529.19-191.19V751.12c0,150.22-88.76,215.08-194.6,215.08-99,0-160.46-68.28-181-119.49l78.53-34.14c13.65,34.14,47.79,71.7,102.42,71.7,68.28,0,109.25-41,109.25-119.5V734h-3.41c-20.49,23.9-58,47.8-109.26,47.8-102.42,0-194.6-88.76-194.6-204.85s95.6-204.84,194.6-204.84c47.8,0,88.77,20.48,109.26,44.38h3.41V382.39ZM3352.67,577c0-71.69-47.8-126.32-109.25-126.32S3130.75,501.88,3130.75,577c0,71.7,51.21,122.91,112.67,122.91S3352.67,645.28,3352.67,577Zm235.57-413.1V764.77h-88.76V163.89Zm355.07,478,68.28,47.8c-23.89,34.14-75.11,92.18-170.7,92.18-116.08,0-201.43-88.77-201.43-204.85,0-122.9,85.35-204.84,191.19-204.84s157,85.35,174.12,129.73l10.24,23.9L3741.88,638.45c20.48,41,54.62,61.45,99,61.45s78.52-23.9,102.42-58Zm-215.09-75.11,184.36-75.11c-10.24-23.9-41-44.38-75.11-44.38-47.79,0-112.66,41-109.25,119.49Z"/></g><g id="g14"><path id="path8" class="cls-3" d="M22.74,643.6,351.48,80.82c41.76,24.58,252.31,141.11,286.28,163.26L309.05,806.87C273.13,854.36-22.77,715.68,22.74,643.6Z"/><path id="path10" class="cls-4" d="M968,643.6,639.26,80.82C593.31,4.38,494.33-23.41,413,21.76S307,164.23,353,244.12L681.66,806.9c46,76.44,144.93,104.24,226.22,59.07,77.78-45.17,106-145.92,60.09-222.33Z"/><ellipse id="ellipse12" class="cls-5" cx="165" cy="726.81" rx="165" ry="160.91"/></g></g></g></svg>