<svg width="178" height="24" viewBox="0 0 178 24" fill="none" xmlns="http://www.w3.org/2000/svg">
<g clip-path="url(#clip0)">
<path d="M59.14 18L56.12 12.92C57.56 12.58 59.06 11.3 59.06 8.96C59.06 6.48 57.34 4.66 54.56 4.66H48.32V18H51.16V13.26H53.24L55.86 18H59.14ZM54.16 10.76H51.16V7.16H54.16C55.28 7.16 56.14 7.84 56.14 8.94C56.14 10.08 55.28 10.76 54.16 10.76ZM69.0809 18V11.76C69.0809 8.98 67.0609 8.1 64.8409 8.1C63.3209 8.1 61.8009 8.56 60.6209 9.62L61.6209 11.4C62.4209 10.66 63.3809 10.26 64.4009 10.26C65.6809 10.26 66.5209 10.9 66.5209 11.88V13.1C65.8809 12.34 64.7609 11.92 63.4609 11.92C61.9209 11.92 60.1209 12.76 60.1209 15.04C60.1209 17.2 61.9209 18.24 63.4609 18.24C64.7209 18.24 65.8609 17.78 66.5209 16.98V18H69.0809ZM64.4809 16.52C63.4809 16.52 62.6609 16 62.6609 15.08C62.6609 14.16 63.4809 13.62 64.4809 13.62C65.3009 13.62 66.1009 13.92 66.5209 14.48V15.68C66.1009 16.24 65.3009 16.52 64.4809 16.52ZM81.0203 18L77.0803 12.72L80.9003 8.34H77.7803L74.1203 12.64V4.66H71.5803V18H74.1203V15.52L75.2803 14.28L77.8403 18H81.0203ZM86.7063 18.24C88.2063 18.24 89.7263 17.78 90.6863 16.9L89.5463 15.22C88.9263 15.82 87.8063 16.16 86.9863 16.16C85.3463 16.16 84.3863 15.18 84.2063 14H91.3863V13.4C91.3863 10.26 89.4463 8.1 86.5463 8.1C83.6263 8.1 81.5463 10.36 81.5463 13.16C81.5463 16.26 83.7663 18.24 86.7063 18.24ZM88.9463 12.24H84.1863C84.2863 11.28 84.9663 10.18 86.5463 10.18C88.2263 10.18 88.8663 11.32 88.9463 12.24ZM96.4609 18.24C97.5209 18.24 98.2009 17.96 98.5809 17.62L98.0409 15.68C97.9009 15.84 97.5409 15.98 97.1609 15.98C96.6009 15.98 96.2809 15.52 96.2809 14.9V10.56H98.2409V8.34H96.2809V5.7H93.7409V8.34H92.1409V10.56H93.7409V15.58C93.7409 17.32 94.6809 18.24 96.4609 18.24ZM103.459 18.24C106.139 18.24 107.659 16.94 107.659 15.16C107.659 11.26 101.919 12.46 101.919 11.04C101.919 10.5 102.519 10.1 103.439 10.1C104.619 10.1 105.719 10.62 106.299 11.22L107.319 9.42C106.359 8.66 105.059 8.1 103.439 8.1C100.879 8.1 99.4788 9.52 99.4788 11.14C99.4788 14.94 105.199 13.64 105.199 15.22C105.199 15.82 104.679 16.24 103.579 16.24C102.379 16.24 100.959 15.58 100.239 14.9L99.1388 16.74C100.159 17.68 101.779 18.24 103.459 18.24ZM118.59 18V11.14C118.59 9.26 117.57 8.1 115.45 8.1C113.87 8.1 112.69 8.86 112.07 9.58V4.66H109.51V18H112.07V11.48C112.49 10.92 113.27 10.36 114.27 10.36C115.35 10.36 116.05 10.78 116.05 12.12V18H118.59ZM125.592 18.24C128.792 18.24 130.712 15.9 130.712 13.16C130.712 10.42 128.792 8.1 125.592 8.1C122.412 8.1 120.492 10.42 120.492 13.16C120.492 15.9 122.412 18.24 125.592 18.24ZM125.592 15.98C124.012 15.98 123.132 14.68 123.132 13.16C123.132 11.66 124.012 10.36 125.592 10.36C127.192 10.36 128.072 11.66 128.072 13.16C128.072 14.68 127.192 15.98 125.592 15.98ZM138.135 18.24C140.615 18.24 142.415 16.38 142.415 13.16C142.415 9.94 140.615 8.1 138.135 8.1C136.955 8.1 135.895 8.62 135.155 9.56V8.34H132.615V21.68H135.155V16.76C135.955 17.76 136.995 18.24 138.135 18.24ZM137.335 15.98C136.515 15.98 135.575 15.48 135.155 14.86V11.46C135.595 10.82 136.515 10.36 137.335 10.36C138.795 10.36 139.795 11.5 139.795 13.16C139.795 14.84 138.795 15.98 137.335 15.98ZM149.796 18.24C152.276 18.24 154.076 16.38 154.076 13.16C154.076 9.94 152.276 8.1 149.796 8.1C148.616 8.1 147.556 8.62 146.816 9.56V8.34H144.276V21.68H146.816V16.76C147.616 17.76 148.656 18.24 149.796 18.24ZM148.996 15.98C148.176 15.98 147.236 15.48 146.816 14.86V11.46C147.256 10.82 148.176 10.36 148.996 10.36C150.456 10.36 151.456 11.5 151.456 13.16C151.456 14.84 150.456 15.98 148.996 15.98ZM160.476 18.24C161.976 18.24 163.496 17.78 164.456 16.9L163.316 15.22C162.696 15.82 161.576 16.16 160.756 16.16C159.116 16.16 158.156 15.18 157.976 14H165.156V13.4C165.156 10.26 163.216 8.1 160.316 8.1C157.396 8.1 155.316 10.36 155.316 13.16C155.316 16.26 157.536 18.24 160.476 18.24ZM162.716 12.24H157.956C158.056 11.28 158.736 10.18 160.316 10.18C161.996 10.18 162.636 11.32 162.716 12.24ZM176.07 18V11.18C176.07 9.3 175.05 8.1 172.91 8.1C171.35 8.1 170.15 8.86 169.53 9.58V8.34H166.99V18H169.53V11.48C169.97 10.92 170.73 10.36 171.73 10.36C172.81 10.36 173.51 10.82 173.51 12.16V18H176.07Z" fill="white"/>
<path d="M40.3977 13.4921C40.9698 12.672 40.9698 11.3296 40.3977 10.5087L34.1048 1.49168C33.5318 0.670834 32.2315 9.08857e-07 31.2148 8.64419e-07L11.4393 0C10.4227 -4.444e-08 10.0452 0.680834 10.6 1.51168L16.5918 10.4879C17.1466 11.3195 17.1466 12.6804 16.5918 13.5121L10.6 22.4883C10.0444 23.3199 10.4227 24 11.4393 24H31.2148C32.2315 24 33.5318 23.3284 34.1048 22.5083L40.3977 13.4921ZM22.3551 18.2264C21.3385 18.2264 20.961 17.5463 21.5158 16.7147L23.6531 13.5128C24.2087 12.6812 24.2087 11.3203 23.6531 10.4887L21.5158 7.28685C20.961 6.45524 21.3385 5.77517 22.3551 5.77517H28.0869C29.1035 5.77517 30.4039 6.446 30.976 7.26685L33.2394 10.5095C33.8124 11.3296 33.8124 12.672 33.2394 13.4928L30.976 16.7355C30.4039 17.5555 29.1035 18.2271 28.0869 18.2271H22.3551V18.2264Z" fill="#6154F9"/>
<path d="M2.84691 5.46134C1.83027 5.46134 0.998047 4.94744 0.998047 4.15352C0.998048 3.3596 1.83027 2.8457 2.84691 2.8457H8.02308C9.03972 2.8457 9.87194 3.3596 9.87194 4.15352C9.87194 4.94744 9.03972 5.46134 8.02308 5.46134H2.84691Z" fill="white"/>
<path d="M2.84691 21.1551C1.83027 21.1551 0.998047 20.6413 0.998047 19.8474C0.998048 19.0527 1.83027 18.5396 2.84691 18.5396H8.02308C9.03972 18.5396 9.87194 19.0527 9.87194 19.8474C9.87194 20.6413 9.03972 21.1551 8.02308 21.1551H2.84691Z" fill="white"/>
<path d="M2.84691 13.3083C1.83027 13.3083 0.998047 12.7944 0.998047 12.0004C0.998047 11.2065 1.83027 10.6926 2.84691 10.6926H12.46C13.4766 10.6926 14.3089 11.2065 14.3089 12.0004C14.3089 12.7944 13.4766 13.3083 12.46 13.3083H2.84691Z" fill="white"/>
</g>
<defs>
<clipPath id="clip0">
<rect width="178" height="24" fill="white"/>
</clipPath>
</defs>
</svg>
