<svg xmlns="http://www.w3.org/2000/svg" viewBox="0 0 600.08 161.61"><g id="Layer_2" data-name="Layer 2"><g id="layer"><path d="M114.48,76.18h3.3a9.29,9.29,0,0,0,0-6.2c-.7-3.7-1.8-6.2-4-5.9s-2.2,3.3-1.5,7a8.93,8.93,0,0,0,2.2,5.1Z"/><path d="M95.08,79.48c1.5.7,2.6,1.1,2.9.7s0-.7-.4-1.5c-.7-1.5-2.6-2.6-4-3.3a10.75,10.75,0,0,0-11,1.5c-1.1.7-2.2,1.8-1.8,2.6,0,.4.4.4.7.4.7,0,4-1.5,7.7-1.8a13.17,13.17,0,0,1,5.9,1.4Z"/><path d="M91.78,81.28a7.07,7.07,0,0,0-4,1.8c-.7.7-1.1,1.1-1.1,1.5V85h.4a7.54,7.54,0,0,0,1.5-.4,10.73,10.73,0,0,1,6.6-.7c1.1,0,1.5.4,1.8,0v-.7c-.1-1.1-2.3-2.2-5.2-1.9Z"/><path d="M92.88,83.88c.7-1.5.7-4.8,0-7.3-.7-3.7-1.8-5.9-4.4-5.9-2.2.4-2.2,3.3-1.5,7.3.4,2.6,1.5,4,1.8,5.1,1.9,3,3,2.2,4.1.8Z"/><path d="M107.88,87.88a2.84,2.84,0,0,0,3.7-.7c.4-1.1-.4-2.6-1.8-3.3a2.84,2.84,0,0,0-3.7.7C105.28,85.68,106.38,87.18,107.88,87.88Z"/><path d="M117,79.88c-1.1,0-2.2,1.1-2.2,2.9,0,1.5.7,2.9,2.2,2.9,1.1,0,2.2-1.1,2.2-2.9C118.88,81.28,118.08,79.88,117,79.88Z"/><path d="M39.48,108.38a.65.65,0,0,0-1.1,0h-1.1a2,2,0,0,1-1.8-1.1,5.15,5.15,0,0,1,0-3.3l.4-.7c1.1-2.2,2.6-5.5.7-8.8-1.5-2.6-3.3-4-5.9-4.4a7.07,7.07,0,0,0-6.6,2.6,10.31,10.31,0,0,0-2.6,8,.75.75,0,0,0,.7.7c.4,0,1.1-.4,1.5-1.5v-.4a5.37,5.37,0,0,1,1.1-2.6,3.6,3.6,0,0,1,2.9-1.8,4.58,4.58,0,0,1,3.7.71,4.49,4.49,0,0,1,1.8,5.5,6.75,6.75,0,0,0-1.5,4.79,5.51,5.51,0,0,0,4.4,5.11c1.8,0,3.3-1.11,3.3-1.8.4-.61.1-.61.1-1Z"/><path d="M145.88,102.18a25.57,25.57,0,0,0-1.1-4l-1.5-3.3a11.84,11.84,0,0,0,2.2-9.1,14.67,14.67,0,0,0-3.3-6.6c-1.8-2.2-6.2-4.4-11.7-5.9l-2.9-.7s0-7-.4-9.9a29.37,29.37,0,0,0-1.5-8.8,22.1,22.1,0,0,0-6.2-11c7.3-7.7,12.1-16.5,12.1-23.8,0-13.9-17.2-18.3-38.8-9.5l-4.4,1.8s-8-8-8.4-8c-23.7-21.2-99.4,63.3-75.3,83.8l5.1,4.4a26.79,26.79,0,0,0-1.5,12.1c.7,5.5,3.7,11,8,15.4a24.44,24.44,0,0,0,16.1,6.6c9.5,22,31.1,35.1,56.3,35.9,27.1.7,50.1-12.1,59.6-34.8a45,45,0,0,0,3.3-15.4c.6-6.7-3.1-9.2-5.7-9.2Zm-111.2,17.2c-.7,0-1.8.4-2.6,0-8-.4-17.2-7.7-17.9-16.5-.7-9.5,4-16.8,12.8-18.7a10.51,10.51,0,0,1,3.7-.4c4.8.4,12.1,4,13.9,14.6C46,108.38,43.88,117.88,34.68,119.38Zm-9.1-41a20.54,20.54,0,0,0-13.2,8.4c-1.8-1.5-5.1-4.4-5.5-5.5C2.08,72.48,12,55,19,45.38c16.8-24.1,43.5-42.4,55.6-39.2,2.2.7,8.8,8.4,8.8,8.4a182.17,182.17,0,0,0-23.8,16.5C44.18,42.48,32.48,59.68,25.58,78.38Zm86.3,37.3.4-.4a.39.39,0,0,0-.4-.4s-12.8,1.8-24.9-2.6c1.5-4.4,4.8-2.9,10.2-2.2a69,69,0,0,0,24.5-2.6,55.89,55.89,0,0,0,18.3-9.1,41.51,41.51,0,0,1,2.6,8.8,3.41,3.41,0,0,1,2.6.4c1.1.7,1.8,2.2,1.5,5.9-1.1,7.3-4.4,12.8-9.1,18.3a38.76,38.76,0,0,1-11.3,8.4,42.71,42.71,0,0,1-7.3,2.9c-19.8,6.2-39.5-.4-45.7-15.4a10.05,10.05,0,0,1-1.1-3.7c-2.6-9.9-.4-21.6,7-28.9h0a2.67,2.67,0,0,0,.7-1.8,2.36,2.36,0,0,0-.7-1.5c-2.6-3.7-11.3-9.9-9.5-22,1.1-8.8,8.8-14.6,15.7-14.3h1.8c2.9,0,5.9.7,8,.7,4,0,8-.4,12.4-4,1.5-1.1,2.6-2.2,4.8-2.6a2.56,2.56,0,0,1,1.8,0,4.17,4.17,0,0,1,2.9,1.1c3.7,2.6,4,8,4.4,12.4,0,2.6.4,8.4.4,9.9.4,3.7,1.1,4.4,3.3,5.1,1.1.4,2.2.7,3.7,1.1,4.8,1.5,7.7,2.6,9.5,4.4a6.8,6.8,0,0,1,1.8,3.3c.7,4-3.3,9.1-13.2,13.9a64.16,64.16,0,0,1-32.9,5.1l-3.3-.4c-7.3-1.1-11.3,8.4-7,14.6,2.9,4,10.6,7,17.9,7,17.6,0,31.1-7.3,35.9-13.9l.4-.7c.4-.4,0-.7-.4-.4-4,2.9-22.3,13.9-41.7,10.6a40.31,40.31,0,0,1-4.4-1.1c-1.8-.7-5.1-2.2-5.9-5.9,16.4,4.8,26.3,0,26.3,0ZM57,45.48c5.9-7,13.5-13.2,20.1-16.5.4,0,.4,0,.4.4a30.83,30.83,0,0,0-1.8,4.4.39.39,0,0,0,.4.4A36.59,36.59,0,0,1,93.68,28a.39.39,0,0,1,.4.4,19.82,19.82,0,0,0-2.9,2.9.39.39,0,0,0,.4.4,30.82,30.82,0,0,1,14.6,4c.4,0,0,.7-.4.7a57.87,57.87,0,0,0-26.7,0,60.64,60.64,0,0,0-21.6,9.5c-.5-.1-.8-.1-.5-.4Z"/><path d="M580.58,61.88c-9.1,0-13.2,6.6-15,10.6-1.1,2.6-1.1,3.3-1.8,3.3-1.1,0-.4-2.2.4-4.4a22.26,22.26,0,0,0,.4-8.4h-12.8v61.5h17.6v-19.4c2.2,3.7,5.9,7.3,11.7,7.3,12.8,0,19-10.6,19-25.2-.1-16.5-7.8-25.3-19.5-25.3Zm-4.7,38.8c-4,0-7-5.1-7-12.1s2.9-12.1,7-12.1c4.8,0,7,4.4,7,12.1-.1,8.1-1.9,12.1-7,12.1Z"/><path d="M232.68,61.88c-7.7,0-11.3,6.2-13.2,9.9-1.1,2.2-1.1,4-2.2,4s-.4-1.5-1.1-4.8c-1.1-4.4-4.8-9.1-12.4-9.1-8,0-11.7,7-13.2,10.6-1.1,2.6-1.1,3.3-1.8,3.3-1.1,0-.4-2.2.4-4.4a22.26,22.26,0,0,0,.4-8.4h-12.8v48.3H194V87.18c0-4.8,1.8-10.6,5.5-10.6,4,0,4.8,2.9,4.8,8.4v26.3h17.6V87.18c0-4.4,1.8-10.6,5.5-10.6,4,0,4.8,4.4,4.8,8.4v26H249V82.48c-.2-12.5-4.6-20.6-16.3-20.6Zm297.1,0c-7.7,0-11.3,6.2-13.2,9.9-1.1,2.2-1.1,4-2.2,4s-.4-1.8-1.1-4.8c-1.5-4.4-4.4-9.1-12.4-9.1s-11.7,7-13.2,10.6c-1.1,2.6-1.1,3.3-1.8,3.3-1.1,0-.4-2.2.4-4.4a22.26,22.26,0,0,0,.4-8.4h-12.8v48.3h17.6V87.18c0-4.8,1.8-10.6,5.5-10.6,4,0,4.8,2.9,4.8,8.4v26.3h17.6V87.18c0-4.4,1.8-10.6,5.5-10.6,4,0,4.8,4.4,4.8,8.4v26h17.2V82.48c-1-12.5-5.4-20.6-17.1-20.6Zm-251,0a56.36,56.36,0,0,0-23.1,4.8v14.6s10.6-6.2,19.4-6.2c7,0,7.7,3.7,7.3,7a46,46,0,0,0-8-.4c-14.3,0-21.6,6.6-21.6,16.8,0,9.9,8,13.9,15,13.9,9.9,0,14.3-6.6,15.7-9.9,1.1-2.2,1.1-3.7,1.8-3.7,1.1,0,.7,1.1.7,3.3,0,3.7,0,6.6.7,9.1H300V87.38c-.4-14.9-5.5-25.5-21.2-25.5Zm-4.4,38.1c-4,1.1-6.2-.4-6.2-2.9,0-3.7,4-5.5,9.5-5.5a30,30,0,0,1,4.8.4C282.38,93.38,278.78,98.88,274.38,100Zm54.1-51.6h17.6v62.9h-17.6Zm37,38.8c0-4.4,4-8.4,11.3-8.4,8,0,14.6,4,16.1,4.8V66.68s-5.1-4.8-17.6-4.8c-13.2,0-24.1,7.7-24.1,24.5s9.9,26,24.1,26a28.54,28.54,0,0,0,17.9-6.2V90.08c-2.2,1.1-8,5.1-16.1,5.1-8.7.4-11.6-3.6-11.6-8Zm62.9-25.3c-10.2,0-13.9,9.5-14.6,11.3s-1.1,2.6-1.8,2.6c-1.1,0-.4-2.2,0-3.3a60.41,60.41,0,0,0,2.6-16.8c0-5.5-.7-7.3-.7-7.3h-15v62.9h17.6V87.18c0-4,1.5-10.6,5.9-10.6,3.7,0,4.8,2.6,4.8,8v26.7h17.6V85.68c-.7-12.4-2.5-23.8-16.4-23.8ZM450,63v48.3h17.6V63s-2.9,1.8-8.8,1.8c-5.9-.3-8.8-1.8-8.8-1.8Z"/><ellipse cx="458.78" cy="54.58" rx="10.6" ry="7"/><path d="M305.48,63v48.3H323V63s-2.9,1.8-8.8,1.8C314.18,64.48,305.48,63,305.48,63Z"/><ellipse cx="314.18" cy="54.58" rx="10.6" ry="7"/></g></g></svg>