<?xml version="1.0" encoding="UTF-8"?>
<svg width="3685px" height="1058px" viewBox="0 0 3685 1058" version="1.1" xmlns="http://www.w3.org/2000/svg" xmlns:xlink="http://www.w3.org/1999/xlink">
    <!-- Generator: Sketch 42 (36781) - http://www.bohemiancoding.com/sketch -->
    <title>prisjakt-rgb</title>
    <desc>Created with Sketch.</desc>
    <defs></defs>
    <g id="Page-1" stroke="none" stroke-width="1" fill="none" fill-rule="evenodd">
        <g id="prisjakt-rgb">
            <path d="M1314.2068,359.6969 L1314.2068,513.1659 L1390.7638,513.1659 C1443.3018,513.1659 1473.4348,485.1979 1473.4348,436.4309 C1473.4348,388.3839 1442.5308,359.6969 1390.7638,359.6969 L1314.2068,359.6969 Z M1540.3018,298.6199 C1578.6948,332.3159 1598.9868,379.9699 1598.9868,436.4309 C1598.9868,492.9619 1578.7908,540.6129 1540.5848,574.2359 C1505.2958,605.2899 1456.0418,622.3929 1401.8958,622.3929 L1314.2068,622.3929 L1314.2068,807.1689 L1189.3958,807.1689 L1189.3958,250.4699 L1401.8958,250.4699 C1455.7708,250.4699 1504.9218,267.5689 1540.3018,298.6199 Z" id="Fill-1" fill="#002136"></path>
            <path d="M1738.6089,470.8262 L1733.1929,419.6622 L1625.4159,419.6622 L1625.4159,807.1692 L1745.7749,807.1692 L1745.7749,588.7642 C1771.2149,556.9392 1798.6179,542.7202 1834.3839,542.7202 L1848.9219,542.7202 L1848.9219,423.1052 L1843.2859,423.1052 C1800.7099,423.1052 1762.6179,440.7042 1738.6089,470.8262" id="Fill-3" fill="#002136"></path>
            <path d="M1950.4529,241.254 C1910.2069,241.254 1880.9989,270.462 1880.9989,310.708 C1880.9989,350.954 1910.2069,380.163 1950.4529,380.163 C1990.6989,380.163 2019.9069,350.954 2019.9069,310.708 C2019.9069,270.462 1990.6989,241.254 1950.4529,241.254" id="Fill-5" fill="#002136"></path>
            <polygon id="Fill-7" fill="#002136" points="1889.904 807.169 2010.26 807.169 2010.26 419.662 1889.904 419.662"></polygon>
            <path d="M2370.3552,684.2844 C2370.3552,625.6954 2330.3512,587.4934 2248.0212,567.4874 C2193.9672,554.7254 2184.8342,547.8414 2184.8342,533.6414 C2184.8342,527.6934 2184.8342,509.5954 2228.1732,509.5954 C2267.5092,509.5954 2296.8092,526.2834 2314.4672,540.2864 L2319.7802,544.4984 L2365.8532,457.3804 L2362.4842,454.4444 C2332.6262,428.4134 2281.1632,412.2424 2228.1732,412.2424 C2127.2032,412.2424 2064.4782,461.6034 2064.4782,541.0644 C2064.4782,600.2664 2100.7682,633.2434 2189.7812,654.8924 C2240.3562,666.7924 2249.2542,676.2444 2249.2542,691.7044 C2249.2542,713.4194 2223.2642,717.9764 2201.4602,717.9764 C2164.8952,717.9764 2129.5622,705.0164 2101.9682,681.4774 L2096.6362,676.9314 L2049.6572,765.0144 L2053.0772,767.9574 C2086.5022,796.7224 2143.0762,814.5884 2200.7192,814.5884 C2303.7702,814.5884 2370.3552,763.4404 2370.3552,684.2844" id="Fill-9" fill="#002136"></path>
            <path d="M2413.2622,830.4731 C2413.2622,860.4121 2394.9482,879.0081 2365.4682,879.0081 C2341.0632,879.0081 2322.4522,863.1381 2311.1352,849.8251 L2307.1172,845.0961 L2228.5192,926.1751 L2232.2732,930.0971 C2267.3232,966.7071 2312.8862,985.2661 2367.6952,985.2661 C2463.8372,985.2661 2533.6182,916.7331 2533.6182,822.3121 L2533.6182,419.6621 L2413.2622,419.6621 L2413.2622,830.4731 Z" id="Fill-10" fill="#002136"></path>
            <path d="M2468.894,241.254 C2428.648,241.254 2399.44,270.462 2399.44,310.708 C2399.44,350.954 2428.648,380.163 2468.894,380.163 C2509.14,380.163 2538.348,350.954 2538.348,310.708 C2538.348,270.462 2509.14,241.254 2468.894,241.254" id="Fill-11" fill="#002136"></path>
            <path d="M2773.3589,708.3299 C2725.3919,708.3299 2694.3969,671.2209 2694.3969,613.7879 C2694.3969,555.9029 2725.3919,518.5009 2773.3589,518.5009 C2803.6019,518.5009 2826.3709,532.3199 2844.8969,561.9579 L2844.8969,665.6149 C2826.6679,694.7499 2803.8989,708.3299 2773.3589,708.3299 L2773.3589,708.3299 Z M2852.7019,453.8979 C2835.6069,435.0439 2803.2279,412.2429 2746.6419,412.2429 C2644.5779,412.2429 2573.2959,495.1199 2573.2959,613.7879 C2573.2959,732.0159 2644.5779,814.5879 2746.6419,814.5879 C2790.4289,814.5879 2828.3039,799.7419 2852.7019,773.4429 L2857.5199,807.1689 L2965.9979,807.1689 L2965.9979,419.6619 L2857.5089,419.6619 L2852.7019,453.8979 Z" id="Fill-12" fill="#002136"></path>
            <polygon id="Fill-13" fill="#002136" points="3390.5784 419.6622 3245.7214 419.6622 3128.2604 599.9982 3128.2604 244.8292 3007.9044 244.8292 3007.9044 807.1692 3102.4834 807.1692 3191.8294 684.9372 3262.5934 807.1692 3399.4514 807.1692 3271.0734 580.8042"></polygon>
            <path d="M3653.8606,691.5204 L3647.8136,694.9734 C3635.9206,701.7694 3620.2086,705.3614 3602.3756,705.3614 C3573.3756,705.3614 3556.0636,688.3284 3556.0636,659.7944 L3556.0636,522.9524 L3663.6646,522.9524 L3663.6646,419.6624 L3556.0636,419.6624 L3556.0636,294.9944 L3435.7076,294.9944 L3435.7076,419.6624 L3434.7956,419.6624 L3358.4566,522.9524 L3435.7076,522.9524 L3435.7076,661.2804 C3435.7076,757.2764 3494.1276,814.5884 3591.9836,814.5884 C3624.8286,814.5884 3653.9266,806.8054 3680.9366,790.7964 L3684.7976,788.5094 L3653.8606,691.5204 Z" id="Fill-14" fill="#002136"></path>
            <path d="M528.5884,0.9629 C820.3564,0.9629 1056.8404,237.4799 1056.8404,529.2149 C1056.8404,820.9569 820.3564,1057.4749 528.5884,1057.4749 C236.8444,1057.4749 0.3364,820.9569 0.3364,529.2149 C0.3364,237.4799 236.8444,0.9629 528.5884,0.9629" id="Fill-15" fill="#DD2729"></path>
            <path d="M807.6074,529.219 C807.6074,683.408 682.6124,808.402 528.4234,808.402 C374.2354,808.402 249.2404,683.408 249.2404,529.219 C249.2404,375.03 374.2354,250.035 528.4234,250.035 C682.6124,250.035 807.6074,375.03 807.6074,529.219" id="Fill-16" fill="#4895B6"></path>
            <path d="M249.4046,529.2189 C249.4046,375.0299 374.3996,250.0349 528.5886,250.0349 C682.7766,250.0349 807.7726,375.0299 807.7726,529.2189 C807.7726,683.4079 682.7766,808.4019 528.5886,808.4019 C374.3996,808.4019 249.4046,683.4079 249.4046,529.2189 M925.9436,529.2159 C925.9436,443.3539 898.7086,363.8509 852.4076,298.8749 L904.6076,246.6749 C877.9196,211.1749 846.3216,179.5769 810.8216,152.8879 L758.5706,205.1379 C693.6646,158.9939 614.2976,131.8609 528.5886,131.8609 C443.0136,131.8609 363.7576,158.9159 298.9026,204.9359 L246.6136,152.6459 C211.0896,179.3059 179.4676,210.8789 152.7486,246.3549 L204.9816,298.5869 C158.5526,363.6169 131.2326,443.2259 131.2326,529.2159 C131.2326,614.9199 158.3666,694.2879 204.5126,759.1969 L152.5046,811.2049 C179.1936,846.7049 210.7906,878.3029 246.2906,904.9929 L298.2476,853.0359 C363.2226,899.3389 442.7246,926.5769 528.5886,926.5769 C614.5866,926.5769 694.1966,899.2579 759.2246,852.8299 L811.1456,904.7509 C846.6216,878.0319 878.1936,846.4089 904.8516,810.8839 L852.8736,758.9059 C898.8916,694.0509 925.9436,614.7929 925.9436,529.2159" id="Fill-17" fill="#FFD400"></path>
            <path d="M1046.8691,558.3542 L867.3671,319.2102 L908.7851,277.7922 C903.7491,271.0942 898.5381,264.5362 893.1601,258.1222 L852.4071,298.8752 C898.7091,363.8512 925.9441,443.3532 925.9441,529.2162 C925.9441,614.7932 898.8921,694.0512 852.8741,758.9062 L904.8521,810.8842 C878.1941,846.4082 846.6211,878.0312 811.1451,904.7512 L759.2241,852.8292 C694.1961,899.2582 614.5861,926.5772 528.5881,926.5772 C442.7251,926.5772 363.2221,899.3392 298.2471,853.0362 L246.2901,904.9922 C217.4891,883.3392 191.2571,858.4532 168.1301,830.8752 L156.6821,842.3222 C183.3711,877.8222 214.9681,909.4202 250.4681,936.1102 L299.0521,887.5052 L409.3661,1034.7852 C381.0651,1028.1412 353.3311,1019.1002 326.3101,1007.6712 C264.4801,981.5182 208.9481,944.0762 161.2571,896.3842 C113.5681,848.6932 76.1261,793.1602 49.9731,731.3282 C22.8991,667.3172 9.1711,599.3172 9.1711,529.2152 C9.1711,459.1152 22.8991,391.1152 49.9731,327.1062 C76.1261,265.2752 113.5681,209.7432 161.2571,162.0522 C208.9481,114.3612 264.4801,76.9192 326.3101,50.7662 C390.3211,23.6912 458.3221,9.9632 528.4241,9.9632 C598.5311,9.9632 666.5351,23.6912 730.5461,50.7662 C792.3781,76.9192 847.9091,114.3612 895.5981,162.0522 C943.2861,209.7422 980.7261,265.2742 1006.8771,327.1052 C1033.9491,391.1142 1047.6761,459.1142 1047.6761,529.2152 C1047.6761,538.9712 1047.4001,548.6842 1046.8691,558.3542 L1046.8691,558.3542 Z M1055.1671,569.4092 C1056.1651,556.1412 1056.6761,542.7382 1056.6761,529.2152 C1056.6761,237.4792 820.1911,0.9632 528.4241,0.9632 C236.6801,0.9632 0.1711,237.4792 0.1711,529.2152 C0.1711,820.9572 236.6801,1057.4742 528.4241,1057.4742 L528.5011,1057.4742 C528.5301,1057.4742 528.5591,1057.4752 528.5881,1057.4752 C806.7451,1057.4752 1034.6551,842.5092 1055.3141,569.6642 C1055.3041,569.6322 1055.2961,569.6002 1055.2871,569.5692 L1055.1671,569.4092 Z" id="Fill-18" fill="#C42128"></path>
            <path d="M168.7891,262.3949 C164.7391,267.3409 160.7761,272.3609 156.9261,277.4719 L194.1101,314.6559 C197.6111,309.2109 201.2271,303.8459 204.9811,298.5869 L168.7891,262.3949 Z" id="Fill-19" fill="#C42128"></path>
            <path d="M281.4201,561.5985 C281.4201,407.4095 406.4151,282.4145 560.6041,282.4145 C629.4551,282.4145 692.4731,307.3535 741.1521,348.6715 C689.9411,288.3365 613.5611,250.0355 528.2241,250.0355 C374.0351,250.0355 249.0401,375.0305 249.0401,529.2185 C249.0401,614.5565 287.3411,690.9355 347.6761,742.1465 C306.3581,693.4675 281.4201,630.4505 281.4201,561.5985" id="Fill-20" fill="#438BAA"></path>
            <path d="M528.4233,661.6838 C455.2613,661.6838 395.9513,602.3738 395.9513,529.2108 C395.9513,456.0478 455.2613,396.7378 528.4233,396.7378 C601.5863,396.7378 660.8963,456.0478 660.8963,529.2108 C660.8963,602.3738 601.5863,661.6838 528.4233,661.6838 Z" id="Fill-21" fill="#FFD400"></path>
            <path d="M642.0837,461.1381 C654.0247,481.0331 660.8957,504.3181 660.8957,529.2111 C660.8957,602.3731 601.5857,661.6831 528.4237,661.6831 C487.9577,661.6831 451.7357,643.5331 427.4367,614.9361 C450.5137,653.9091 492.9787,680.0471 541.5547,680.0471 C614.7537,680.0471 674.0937,620.7071 674.0937,547.5081 C674.0937,514.5121 662.0327,484.3361 642.0837,461.1381" id="Fill-22" fill="#438BAA"></path>
            <path d="M528.5884,240.647 C489.6894,240.647 451.9494,248.268 416.4164,263.297 C382.0994,277.811 351.2824,298.588 324.8194,325.051 C298.3574,351.513 277.5804,382.331 263.0654,416.647 C248.0364,452.18 240.4164,489.92 240.4164,528.819 C240.4164,567.718 248.0364,605.459 263.0654,640.992 C277.5804,675.308 298.3574,706.126 324.8194,732.588 C351.2824,759.05 382.0994,779.827 416.4164,794.342 C451.9494,809.371 489.6894,816.992 528.5884,816.992 C567.4874,816.992 605.2274,809.371 640.7604,794.342 C675.0774,779.827 705.8944,759.05 732.3574,732.588 C758.8194,706.126 779.5964,675.308 794.1114,640.992 C809.1404,605.459 816.7604,567.718 816.7604,528.819 C816.7604,489.92 809.1404,452.18 794.1114,416.647 C779.5964,382.331 758.8194,351.513 732.3574,325.051 C705.8944,298.588 675.0774,277.811 640.7604,263.297 C605.2274,248.268 567.4874,240.647 528.5884,240.647 M528.5884,249.63 C682.7804,249.63 807.7774,374.627 807.7774,528.819 C807.7774,683.011 682.7804,808.009 528.5884,808.009 C374.3964,808.009 249.3994,683.011 249.3994,528.819 C249.3994,374.627 374.3964,249.63 528.5884,249.63" id="Fill-23" fill="#E4B60B"></path>
        </g>
    </g>
</svg>