<?xml version="1.0" encoding="utf-8"?>
<!-- Generator: Adobe Illustrator 25.0.1, SVG Export Plug-In . SVG Version: 6.00 Build 0)  -->
<svg version="1.1" id="Layer_1" xmlns="http://www.w3.org/2000/svg" xmlns:xlink="http://www.w3.org/1999/xlink" x="0px" y="0px"
	 viewBox="0 0 1382.4 970.1" style="enable-background:new 0 0 1382.4 970.1;" xml:space="preserve">
<style type="text/css">
	.st0{opacity:0.24;fill:#69A1DA;enable-background:new    ;}
	.st1{opacity:0.24;fill:#20D287;enable-background:new    ;}
	.st2{fill:#362F4A;}
	.st3{fill:#302b40;}
	.st4{fill:#69A1DA;}
	.st5{fill:#626D7B;}
	.st6{fill:#FFFFFF;}
	.st7{fill:#EAEAEA;}
	.st8{fill:none;stroke:#302b40;stroke-miterlimit:10;}
	.st9{fill:none;stroke:#EAEAEA;stroke-miterlimit:10;}
	.st10{fill:none;stroke:#6154F9;stroke-width:4;stroke-linecap:round;stroke-linejoin:round;}
	.st11{fill:none;stroke:#20D287;stroke-width:4;stroke-linecap:round;stroke-linejoin:round;}
	.st12{fill:#20D287;}
	.st13{fill:none;stroke:#EFEFEF;stroke-miterlimit:10;}
	.st14{fill:#6154F9;}
</style>
<g id="Layer_2_1_">
	<g id="Layer_1-2">
		<path class="st0" d="M337.5,692.3c23.5-71.9,60.6-155.7,113.1-159c49.4-3.1,73.4,67.2,120.3,60.2c61.8-9.3,62.9-137.5,153.7-166.3
			c22.2-7.1,42.6-5.9,55.3-4.2v269.4H337.5z"/>
		<path class="st1" d="M868.9,627.1c17.8-22.5,47.3-51.8,87.7-56c48.6-5.1,68.3,30.9,102.3,22c59.6-15.5,49.3-138.8,105.5-150.1
			c31.2-6.3,50.5,28.5,92.7,21c27.2-4.8,46.8-24.1,59.6-41v269.4H868.9V627.1z"/>
		<rect class="st2" width="274.3" height="970.1"/>
		<rect y="226.9" class="st3" width="274.3" height="64"/>
		<path class="st4" d="M245.6,249.2c7.5,0,13.5,6,13.5,13.5c0,2.4-0.6,4.7-1.8,6.8c-0.3,0.4-0.8,0.7-1.3,0.7h-20.8
			c-0.5,0-1-0.3-1.3-0.7c-3.8-6.4-1.6-14.7,4.9-18.5C240.9,249.8,243.2,249.2,245.6,249.2z M235.7,267.9h19.9
			c2.9-5.5,0.8-12.3-4.7-15.2c-5.5-2.9-12.3-0.8-15.2,4.7C233.9,260.7,233.9,264.7,235.7,267.9z M239.6,262.7c0,0.8-0.7,1.5-1.5,1.5
			s-1.5-0.7-1.5-1.5s0.7-1.5,1.5-1.5S239.6,261.9,239.6,262.7z M238.9,257.4c0-0.8,0.7-1.5,1.5-1.5s1.5,0.7,1.5,1.5
			s-0.7,1.5-1.5,1.5S238.9,258.3,238.9,257.4z M245.6,261.2c0.3,0,0.5,0,0.8,0.1l3.6-4.6c0.4-0.5,1.1-0.5,1.6-0.1
			c0.4,0.4,0.5,1,0.2,1.4l-3.6,4.6c0.3,0.5,0.4,1,0.4,1.5c0,0.5-0.1,1-0.4,1.5h-5.2c-0.3-0.5-0.4-1-0.4-1.5
			C242.6,262.5,244,261.2,245.6,261.2z M245.6,256.7c-0.8,0-1.5-0.7-1.5-1.5s0.7-1.5,1.5-1.5s1.5,0.7,1.5,1.5
			S246.5,256.7,245.6,256.7z M253.1,261.2c0.8,0,1.5,0.7,1.5,1.5s-0.7,1.5-1.5,1.5s-1.5-0.7-1.5-1.5S252.3,261.2,253.1,261.2z"/>
		<path class="st5" d="M257.7,315.9l-2.1,9.8c-0.1,0.5-0.6,0.9-1.1,0.9h-14.6l0.4,2.2h13.2c0.6,0,1.1,0.5,1.1,1.1c0,0.1,0,0.2,0,0.2
			v0.2c1.2,1.1,1.2,3,0.1,4.2s-3,1.2-4.2,0.1c-0.6-0.6-0.9-1.4-0.9-2.2l0,0c0-0.5,0.2-1,0.4-1.5h-6.8c0.2,0.5,0.4,1,0.4,1.5l0,0
			c0,1.7-1.3,3-3,3s-3-1.3-3-3c0-0.8,0.3-1.5,0.8-2.1l-3.3-16.7h-3.8c-0.3,0-0.6-0.3-0.6-0.6c0,0,0,0,0,0v-1.1
			c0-0.3,0.3-0.6,0.6-0.6h4.7c0.5,0,1,0.4,1.1,0.9l0.4,2.1h19.1c0.6,0,1.1,0.5,1.1,1.1C257.7,315.7,257.7,315.8,257.7,315.9z
			 M255.2,316.8h-17.3l1.5,7.5h14.2L255.2,316.8z M241.6,332.5c0-0.6-0.5-1.1-1.1-1.1s-1.1,0.5-1.1,1.1c0,0.6,0.5,1.1,1.1,1.1
			c0,0,0,0,0,0C241.1,333.7,241.6,333.2,241.6,332.5z M253.6,332.5c0-0.6-0.5-1.1-1.1-1.1s-1.1,0.5-1.1,1.1c0,0.6,0.5,1.1,1.1,1.1
			c0,0,0,0,0,0C253.1,333.7,253.6,333.2,253.6,332.5z"/>
		<path class="st5" d="M236.3,389.4c-0.2-0.1-0.4-0.1-0.6-0.1h-1.1c-0.9,0-1.7,0.8-1.7,1.7l0,0c0.1,0.6-0.4,1.2-1,1.2
			c-0.6,0.1-1.2-0.4-1.2-1c0-0.1,0-0.1,0-0.2c0-2.2,1.8-3.9,3.9-3.9h1.1c0.8,0,1.5,0.2,2.2,0.7C237.3,388.2,236.7,388.7,236.3,389.4
			z M231.4,381.8c0-2.1,1.7-3.8,3.8-3.8s3.8,1.7,3.8,3.8s-1.7,3.8-3.8,3.8S231.4,383.8,231.4,381.8L231.4,381.8L231.4,381.8z
			 M233.6,381.8c0,0.8,0.7,1.5,1.5,1.5s1.5-0.7,1.5-1.5s-0.7-1.5-1.5-1.5C234.3,380.3,233.6,380.9,233.6,381.8L233.6,381.8z
			 M254.6,393.2v2.1c0,1.2-1,2.2-2.2,2.2c0,0,0,0,0,0h-13.5c-1.2,0-2.2-1-2.2-2.2v-2.1c0-1.1,0.3-2.1,0.9-3c1.3-1.9,3.8-2.7,6-2
			c0.7,0.2,1.4,0.3,2.1,0.3c0.7,0,1.4-0.1,2.1-0.3c2.2-0.7,4.7,0.1,6,2C254.3,391.1,254.6,392.1,254.6,393.2L254.6,393.2z
			 M252.4,393.2c0-1.7-1.4-3.1-3.1-3.1c-2.4,1-5,1-7.4,0c-1.7,0.1-3.1,1.4-3.1,3.1v2.1h13.5V393.2z M240.4,381.8
			c0-2.9,2.4-5.2,5.2-5.2s5.2,2.4,5.2,5.2s-2.4,5.2-5.2,5.2l0,0C242.7,387,240.4,384.7,240.4,381.8
			C240.4,381.8,240.4,381.8,240.4,381.8L240.4,381.8z M242.6,381.8c0,1.7,1.3,3,3,3s3-1.3,3-3s-1.3-3-3-3
			C244,378.8,242.6,380.1,242.6,381.8C242.6,381.8,242.6,381.8,242.6,381.8L242.6,381.8z M252.4,381.8c0-2.1,1.7-3.8,3.7-3.8
			c2.1,0,3.8,1.7,3.8,3.8s-1.7,3.8-3.7,3.8C254.1,385.5,252.4,383.9,252.4,381.8C252.4,381.8,252.4,381.8,252.4,381.8L252.4,381.8z
			 M260.6,391c0.1,0.6-0.4,1.2-1,1.2c-0.6,0.1-1.2-0.4-1.2-1c0-0.1,0-0.1,0-0.2c0-0.9-0.8-1.7-1.7-1.7l0,0h-1.1
			c-0.2,0-0.4,0-0.6,0.1c-0.4-0.7-1-1.2-1.6-1.7c0.6-0.4,1.4-0.7,2.2-0.7h1.1C258.9,387,260.6,388.8,260.6,391
			C260.6,391,260.6,391,260.6,391L260.6,391z M254.6,381.8c0,0.8,0.7,1.5,1.5,1.5s1.5-0.7,1.5-1.5s-0.7-1.5-1.5-1.5
			C255.3,380.3,254.6,380.9,254.6,381.8C254.6,381.8,254.6,381.8,254.6,381.8L254.6,381.8z"/>
		<path class="st5" d="M244.9,441.2l9.8,3.7c0.9,0.3,1.5,1.2,1.5,2.1v10.6c0,0.8-0.5,1.6-1.2,2l-9.8,4.9c-0.6,0.3-1.4,0.3-2,0
			l-9.8-4.9c-0.8-0.4-1.2-1.2-1.2-2V447c0-0.9,0.6-1.8,1.5-2.1l9.8-3.7C243.9,441,244.4,441,244.9,441.2z M234.4,447L234.4,447
			l9.8,4l9.8-4l0,0l-9.8-3.7L234.4,447z M234.4,457.5l8.6,4.3v-8.9l-8.6-3.5V457.5z M253.9,457.5v-8.1l-8.6,3.5v8.9L253.9,457.5z"/>
		<path class="st5" d="M256.9,516H252v3.4h2.6c0.8,0,1.5,0.7,1.5,1.5v4.5c0,0.8-0.7,1.5-1.5,1.5h-7.5c-0.8,0-1.5-0.7-1.5-1.5v-4.5
			c0-0.8,0.7-1.5,1.5-1.5h2.6V516h-14.2v3.4h2.6c0.8,0,1.5,0.7,1.5,1.5v4.5c0,0.8-0.7,1.5-1.5,1.5h-7.5c-0.8,0-1.5-0.7-1.5-1.5v-4.5
			c0-0.8,0.7-1.5,1.5-1.5h2.6V516h-4.9c-0.4,0-0.7-0.3-0.8-0.8v-0.8c0-0.4,0.3-0.7,0.8-0.8h13.1v-3.4h-3.4c-0.8,0-1.5-0.7-1.5-1.5
			v-4.5c0-0.8,0.7-1.5,1.5-1.5h9c0.8,0,1.5,0.7,1.5,1.5v4.5c0,0.8-0.7,1.5-1.5,1.5h-3.4v3.4h13.1c0.4,0,0.7,0.3,0.8,0.8v0.8
			C257.6,515.7,257.3,516,256.9,516z M231.4,521.6v3h6v-3H231.4z M238.9,508.1h7.5v-3h-7.5V508.1z M247.9,521.6v3h6v-3H247.9z"/>
		<path class="st5" d="M257.3,569.1v15c0,1.2-1,2.2-2.2,2.2l0,0h-2.2v2.2c0,1.2-1,2.2-2.2,2.2l0,0h-15c-1.2,0-2.2-1-2.2-2.2l0,0v-15
			c0-1.2,1-2.2,2.2-2.2l0,0h2.2v-2.2c0-1.2,1-2.2,2.2-2.2l0,0h15C256.3,566.8,257.3,567.9,257.3,569.1L257.3,569.1z M250.5,578.8
			h-15v9.8h15V578.8z M255,569.1h-15v2.2h10.5c1.2,0,2.2,1,2.2,2.2l0,0v10.5h2.2L255,569.1z"/>
		<path class="st5" d="M253.2,652.6c0,1.2-1,2.2-2.2,2.2l0,0h-13.5c-1.2,0-2.2-1-2.2-2.2l0,0v-19.5c0-1.2,1-2.2,2.2-2.2c0,0,0,0,0,0
			h9.5c0.6,0,1.2,0.2,1.6,0.7l3.9,3.9c0.4,0.4,0.7,1,0.7,1.6L253.2,652.6z M251,639.1h-4.9c-0.6,0-1.1-0.5-1.1-1.1v-4.9h-7.5v19.5
			H251V639.1z M248.8,643.8c0,0.3-0.3,0.6-0.6,0.6h-7.9c-0.3,0-0.6-0.3-0.6-0.6v-1.3c0-0.3,0.3-0.6,0.6-0.6h7.9
			c0.3,0,0.6,0.2,0.6,0.6V643.8z M248.8,646.4v1.3c0,0.3-0.3,0.6-0.6,0.6h-7.9c-0.3,0-0.6-0.3-0.6-0.6v-1.3c0-0.3,0.3-0.6,0.6-0.6
			h7.9C248.5,645.9,248.7,646.1,248.8,646.4L248.8,646.4z M247.2,636.8h3.6l-3.6-3.6V636.8z"/>
		<path class="st5" d="M256.5,703.8c0,0.2-0.1,0.5-0.2,0.7c-3.6,7.4-12.5,10.4-19.9,6.8c-3-1.4-5.4-3.8-6.8-6.8
			c-0.1-0.2-0.2-0.4-0.2-0.7c0-0.2,0.1-0.5,0.2-0.7c3.6-7.4,12.5-10.4,19.9-6.8c3,1.4,5.4,3.8,6.8,6.8
			C256.4,703.4,256.5,703.6,256.5,703.8z M254.2,703.8c-3.2-6.2-10.8-8.5-17-5.3c-2.3,1.2-4.1,3-5.3,5.3c3.2,6.2,10.8,8.5,17,5.3
			C251.1,708,253,706.1,254.2,703.8z M243,698.6c2.9,0,5.2,2.3,5.2,5.2c0,2.9-2.3,5.2-5.2,5.2s-5.2-2.3-5.2-5.2c0,0,0,0,0,0
			c0-0.5,0.1-1,0.2-1.5c0.4,0.2,0.8,0.3,1.3,0.3c1.4,0,2.6-1.2,2.6-2.6c0-0.4-0.1-0.9-0.3-1.3C242,698.7,242.5,698.6,243,698.6
			L243,698.6z"/>
		<path class="st5" d="M255.1,768.4v1.1c0,0.3-0.2,0.6-0.6,0.6h-0.9l-1.3,9.3c-0.2,1.1-1.1,1.9-2.2,1.9h-17.1
			c-1.1,0-2.1-0.8-2.2-1.9l-1.3-9.3h-0.9c-0.3,0-0.6-0.3-0.6-0.6v-1.1c0-0.3,0.3-0.6,0.6-0.6h3.4l6-7.1c0.4-0.5,1.1-0.5,1.6-0.1
			c0.5,0.4,0.5,1.1,0.1,1.6l0,0l-4.8,5.7h13.1l-4.8-5.7c-0.4-0.5-0.3-1.2,0.1-1.6c0.5-0.4,1.2-0.3,1.6,0.1l0,0l6,7.1h3.4
			C254.8,767.8,255.1,768,255.1,768.4C255.1,768.4,255.1,768.4,255.1,768.4z M251.4,770.1h-19.6l1.2,9h17.1L251.4,770.1z
			 M237.5,776.5c0.1,0.6-0.4,1.2-1,1.2s-1.2-0.4-1.2-1c0-0.1,0-0.1,0-0.2v-3.8c0.1-0.6,0.6-1.1,1.2-1c0.5,0.1,1,0.5,1,1V776.5z
			 M242.7,776.5c0.1,0.6-0.4,1.2-1,1.2s-1.2-0.4-1.2-1c0-0.1,0-0.1,0-0.2v-3.8c0.1-0.6,0.6-1.1,1.2-1c0.5,0.1,1,0.5,1,1V776.5z
			 M248,776.5c0.1,0.6-0.4,1.2-1,1.2s-1.2-0.4-1.2-1c0-0.1,0-0.1,0-0.2v-3.8c0.1-0.6,0.6-1.1,1.2-1c0.5,0.1,1,0.5,1,1V776.5z"/>
		<path class="st5" d="M252.1,845.7v1.6c-0.1,0.6-0.6,1.1-1.2,1c-0.5-0.1-1-0.5-1-1v-1.6c0-2.2-1.8-4-4.1-4h-0.6c-2.3,1-4.9,1-7.2,0
			h-0.6c-2.2,0-4,1.8-4,4v1.6c-0.1,0.6-0.6,1.1-1.2,1c-0.5-0.1-1-0.5-1-1v-1.6c0-2.7,1.7-5,4.2-5.9c-1-1-1.7-2.1-2.2-3.4h-0.5
			c-0.4,0-0.7-0.3-0.8-0.8v-4.5c0-0.4,0.3-0.7,0.8-0.8h0.5c1.7-4.7,6.8-7.1,11.5-5.4c2.5,0.9,4.5,2.9,5.4,5.4h0.5
			c0.4,0,0.8,0.3,0.8,0.8v4.5c0,0.4-0.3,0.8-0.8,0.8H250c-0.5,1.3-1.2,2.5-2.2,3.4C250.3,840.7,252,843,252.1,845.7z M248.3,833.4
			c0-3.7-3-6.8-6.8-6.8s-6.8,3-6.8,6.8s3,6.8,6.8,6.8S248.3,837.1,248.3,833.4L248.3,833.4z M246.8,832.6v0.8c0,2.5-2,4.5-4.5,4.5
			c0,0,0,0,0,0h-1.5c-2.5,0-4.5-2-4.5-4.5l0,0v-0.8c0-1.2,1-2.2,2.2-2.2l0,0h6C245.8,830.4,246.8,831.4,246.8,832.6L246.8,832.6z
			 M246.8,845.4v3h-6.8v-2.2c0-0.4-0.3-0.8-0.8-0.8s-0.8,0.3-0.8,0.8v2.2h-2.2v-3c0-0.8,0.7-1.5,1.5-1.5h7.5
			C246.1,843.9,246.8,844.6,246.8,845.4z M242.3,834.1l-1.7-0.6l-0.6-1.7l-0.6,1.7l-1.7,0.6l1.7,0.6l0.6,1.7l0.6-1.7L242.3,834.1z
			 M244.6,846.1c0-0.4-0.3-0.8-0.8-0.8s-0.8,0.3-0.8,0.8s0.3,0.8,0.8,0.8S244.6,846.6,244.6,846.1z"/>
		<path class="st6" d="M31.1,182.9c0.3,0,0.6,0.3,0.6,0.6v1.1c0,0.3-0.2,0.6-0.6,0.6h-3.9c-1.2,0-2.2,1-2.2,2.2v9
			c0,1.2,1,2.2,2.2,2.2h3.9c0.3,0,0.6,0.3,0.6,0.6v1.1c0,0.3-0.2,0.6-0.6,0.6h-3.9c-2.5,0-4.5-2-4.5-4.5v-9c0-2.5,2-4.5,4.5-4.5l0,0
			H31.1z M38.8,183.8l7.7,7.7c0.2,0.2,0.2,0.6,0,0.8l-7.7,7.7c-0.2,0.2-0.6,0.2-0.8,0l-0.9-0.9c-0.2-0.2-0.2-0.6,0-0.8l5.3-5.1H30.7
			c-0.3,0-0.6-0.3-0.6-0.6v-1.3c0-0.3,0.3-0.6,0.6-0.6h11.7l-5.3-5.1c-0.2-0.2-0.2-0.6,0-0.8c0,0,0,0,0,0l0.9-0.9
			C38.2,183.6,38.6,183.6,38.8,183.8z"/>
		<path class="st6" d="M98.7,191.9c0,6.4-5.2,11.6-11.6,11.6s-11.6-5.2-11.6-11.6c0-6.4,5.2-11.6,11.6-11.6
			C93.4,180.2,98.6,185.4,98.7,191.9C98.7,191.8,98.7,191.8,98.7,191.9z M96.4,191.9c0-5.2-4.2-9.4-9.4-9.4c-5.2,0-9.4,4.2-9.4,9.4
			c0,5.2,4.2,9.4,9.3,9.4C92.2,201.3,96.4,197.1,96.4,191.9C96.4,191.9,96.4,191.9,96.4,191.9z M88.7,193.6v0.3
			c0,0.3-0.3,0.6-0.6,0.6H86c-0.3,0-0.6-0.3-0.6-0.6v-0.4c0-1.7,1.3-2.3,2.2-2.9s1.3-0.8,1.3-1.4c0-0.8-1-1.3-1.9-1.3
			c-1.1,0-1.6,0.5-2.3,1.4c-0.2,0.2-0.5,0.3-0.8,0.1l-1.3-1c-0.2-0.2-0.3-0.5-0.1-0.8c1-1.6,2.8-2.6,4.7-2.5c2.3,0,4.8,1.8,4.8,4.2
			C92.1,192.4,88.7,192.5,88.7,193.6z M87,199.1c-1.1,0-2-0.9-2-2s0.9-2,2-2s2,0.9,2,2S88.1,199.1,87,199.1z"/>
		<path class="st6" d="M142.7,203.9h-16c-1.2,0-2.2-1-2.2-2.2v-1.2c0-3.5,2.8-6.3,6.3-6.3l0,0c1.4,0,2,0.8,4.2,0.8s2.7-0.7,4-0.7
			c-0.2,0.8-0.3,1.5-0.3,2.3c-1.2,0.4-2.5,0.7-3.8,0.7c-2.4,0-3.5-0.8-4.2-0.8c-2.2,0-4,1.8-4.1,4v1.2h13.7
			C141,202.5,141.8,203.2,142.7,203.9z M128.2,186.6c0-3.7,3-6.8,6.8-6.8s6.8,3,6.8,6.8s-3,6.8-6.8,6.8l0,0
			C131.2,193.4,128.2,190.3,128.2,186.6z M130.4,186.6c0,2.5,2,4.5,4.5,4.5s4.5-2,4.5-4.5s-2-4.5-4.5-4.5l0,0
			C132.5,182.1,130.4,184.1,130.4,186.6z M154.3,198.1c0.1,0.1,0.2,0.2,0.1,0.4c-0.3,1-0.8,1.9-1.6,2.7c-0.1,0.1-0.3,0.2-0.4,0.1
			l-1.2-0.7c-0.5,0.4-1.1,0.8-1.7,1v1.4c0,0.2-0.1,0.3-0.3,0.3c-1,0.2-2.1,0.2-3.1,0c-0.2,0-0.3-0.2-0.3-0.3v-1.4
			c-0.6-0.2-1.2-0.6-1.7-1l-1.2,0.7c-0.1,0.1-0.3,0.1-0.4-0.1c-0.7-0.8-1.2-1.7-1.6-2.7c-0.1-0.2,0-0.3,0.1-0.4l1.2-0.7
			c-0.1-0.7-0.1-1.3,0-2l-1.2-0.7c-0.1-0.1-0.2-0.2-0.1-0.4c0.3-1,0.8-1.9,1.6-2.7c0.1-0.1,0.3-0.1,0.4-0.1l1.2,0.7
			c0.5-0.4,1.1-0.8,1.7-1v-1.4c0-0.2,0.1-0.3,0.3-0.3c1-0.2,2.1-0.2,3.1,0c0.2,0,0.3,0.2,0.3,0.3v1.4c0.6,0.2,1.2,0.6,1.7,1l1.2-0.7
			c0.1-0.1,0.3-0.1,0.4,0.1c0.7,0.8,1.3,1.7,1.6,2.7c0.1,0.2,0,0.3-0.1,0.4l-1.2,0.7c0.1,0.7,0.1,1.3,0,2L154.3,198.1z M150,196.4
			c0-1.3-1-2.3-2.3-2.3c-1.3,0-2.3,1-2.3,2.3c0,1.3,1,2.3,2.3,2.3C149,198.6,150,197.6,150,196.4z"/>
		<path class="st6" d="M205.3,191.1c0,1.1-0.6,2-1.5,2.6v7.2c0,0.8-0.7,1.5-1.5,1.5c-0.3,0-0.7-0.1-0.9-0.3l-4-3.2
			c-2-1.6-4.5-2.5-7.1-2.5H189c-0.1,0.5-0.2,1-0.2,1.5c0,1.3,0.4,2.6,1.2,3.6c0.5,0.7,0.3,1.6-0.3,2.1c-0.3,0.2-0.6,0.3-0.9,0.3h-5
			c-0.6,0-1.1-0.3-1.3-0.8c-0.8-1.6-1.2-3.4-1.2-5.2v-1.5c-1.7,0-3-1.3-3-3v-4.5c0-1.7,1.3-3,3-3h9c2.6,0,5.1-0.9,7.1-2.5l4-3.2
			c0.3-0.2,0.6-0.3,0.9-0.3l0,0c0.8,0,1.5,0.7,1.5,1.5v7.2C204.7,189,205.3,190,205.3,191.1z M189.6,188.1h-8.2
			c-0.4,0-0.8,0.3-0.8,0.8v4.5c0,0.4,0.3,0.7,0.8,0.8h8.2V188.1z M187.5,201.6c-0.6-1.2-0.9-2.4-0.9-3.8c0-0.5,0.1-1,0.2-1.5h-3
			c-0.1,0.5-0.1,1-0.1,1.5c0,1.3,0.3,2.6,0.8,3.8H187.5z M201.6,182.9l-2.8,2.2c-2,1.6-4.4,2.6-7,2.9v6.2c2.6,0.3,5,1.3,7,2.9
			l2.8,2.2V182.9z"/>
		<path class="st6" d="M256.2,191.6v10.7c0,0.9-0.6,1.6-1.5,1.6h-21c-0.9,0-1.5-0.8-1.5-1.6v-10.7c-2.1-1-3-3.5-2-5.7
			c0.1-0.2,0.2-0.3,0.3-0.5l3.1-4.9c0.3-0.4,0.8-0.7,1.3-0.7h18.9c0.5,0,1,0.3,1.3,0.7l3,4.9c1.3,2,0.7,4.6-1.3,5.9
			C256.5,191.4,256.4,191.5,256.2,191.6z M256.1,186.6l-2.8-4.5h-18.1l-2.8,4.5c-0.4,0.6-0.4,1.4-0.1,2c0.2,0.5,0.7,0.9,1.3,1
			c0.1,0,0.2,0,0.3,0c0.7,0,1.3-0.3,1.8-0.8l1.7-1.9l1.7,1.9c0.9,1,2.4,1.1,3.3,0.2c0.1-0.1,0.2-0.1,0.2-0.2l1.7-1.9l1.7,1.9
			c0.9,1,2.4,1.1,3.3,0.2c0.1-0.1,0.2-0.1,0.2-0.2l1.7-1.9l1.7,1.9c0.5,0.5,1.1,0.8,1.8,0.8h0.3c0.6-0.1,1-0.5,1.3-1
			C256.5,188,256.5,187.2,256.1,186.6z M254,191.8c-1.1-0.1-2.1-0.7-2.8-1.5c-1.7,1.9-4.6,2.1-6.5,0.4c-0.1-0.1-0.3-0.3-0.4-0.4
			c-1.7,1.9-4.6,2.1-6.5,0.4c-0.1-0.1-0.3-0.3-0.4-0.4c-0.7,0.8-1.7,1.4-2.8,1.5v3H254L254,191.8z M254,197.1h-19.5v4.5H254
			L254,197.1z"/>
		<path class="st7" d="M360.8,795.5l-3.9,3.9c-0.4,0.4-1,0.6-1.6,0.7h-12.6c-1.2,0-2.2-1-2.2-2.2l0,0v-16.5c0-1.2,1-2.2,2.2-2.2l0,0
			h16.5c1.2,0,2.2,1,2.2,2.2c0,0,0,0,0,0v12.6C361.4,794.5,361.2,795.1,360.8,795.5z M342.7,781.4v16.5h10.5V793
			c0-0.6,0.5-1.1,1.1-1.1h4.9v-10.5H342.7z M359,794.1h-3.6v3.6L359,794.1z"/>
		<path class="st2" d="M729.8,79V68.3l-10-14.6h3.7l7.9,11.8l7.9-11.8h3.8l-10,14.6V79H729.8z"/>
		<path class="st2" d="M740.2,69.9c0-5.3,3.5-9.6,9.1-9.6s9.1,4.3,9.1,9.6s-3.5,9.6-9.1,9.6S740.2,75.2,740.2,69.9z M755.4,69.9
			c0-3.7-2.2-7.1-6.1-7.1s-6.1,3.3-6.1,7.1s2.2,7.1,6.1,7.1S755.4,73.6,755.4,69.9z"/>
		<path class="st2" d="M775.4,79v-2.5c-1.7,1.9-4,3-6.5,3c-3.8,0-5.8-1.9-5.8-5.8V60.7h2.8v12.1c0,3.2,1.6,4.2,4.1,4.2
			c2.1,0,4.1-1.1,5.4-2.8V60.7h2.8V79H775.4z"/>
		<path class="st2" d="M783.9,79V60.7h2.8v3c1.4-2,3.7-3.2,6.1-3.3v2.9c-0.4-0.1-0.8-0.1-1.1-0.1c-2,0.2-3.9,1.2-5,2.9V79H783.9z"/>
		<path class="st2" d="M804.9,75.5l1.9-2.4c2,2.3,4.9,3.6,8,3.6c4.5,0,6-2.4,6-4.4c0-6.5-15-2.9-15-12c0-4.2,3.7-7,8.7-7
			c3.4-0.1,6.6,1.1,9,3.5l-1.9,2.3c-1.9-2-4.6-3.1-7.3-3c-3,0-5.2,1.6-5.2,4c0,5.7,15,2.4,15,11.9c0,3.7-2.5,7.4-9.3,7.4
			C810.9,79.7,807.4,78.2,804.9,75.5z"/>
		<path class="st2" d="M828.4,75.2v-12h-3v-2.5h3v-5h2.8v5h3.7v2.5h-3.7v11.4c0,1.4,0.6,2.3,1.9,2.3c0.7,0,1.4-0.3,1.9-0.8l0.8,2.1
			c-0.9,0.8-2.2,1.3-3.4,1.2C829.8,79.5,828.4,77.9,828.4,75.2z"/>
		<path class="st2" d="M838,69.9c0-5.3,3.5-9.6,9.1-9.6s9.1,4.3,9.1,9.6s-3.5,9.6-9.1,9.6S838,75.2,838,69.9z M853.2,69.9
			c0-3.7-2.2-7.1-6.1-7.1s-6.1,3.3-6.1,7.1s2.2,7.1,6,7.1S853.1,73.6,853.2,69.9L853.2,69.9z"/>
		<path class="st2" d="M860.7,79V60.7h2.8v3c1.4-2,3.7-3.2,6.1-3.3v2.9c-0.4-0.1-0.8-0.1-1.1-0.1c-2,0.2-3.9,1.2-5,2.9V79H860.7z"/>
		<path class="st2" d="M872.2,69.9c0-5.3,3.8-9.6,9-9.6c5.5,0,8.8,4.3,8.8,9.8v0.7h-14.8c0.1,3.6,3,6.4,6.6,6.3c0,0,0,0,0,0
			c2.1,0,4.2-0.8,5.7-2.3l1.4,1.9c-1.9,1.9-4.6,2.9-7.3,2.8C876.1,79.5,872.2,75.6,872.2,69.9z M881.2,62.6c-3.9,0-5.8,3.3-6,6.1h12
			c0.1-3.3-2.6-6.1-5.9-6.1C881.3,62.6,881.2,62.6,881.2,62.6L881.2,62.6z"/>
		<line class="st8" x1="0" y1="162.9" x2="274.3" y2="162.9"/>
		<line class="st8" x1="0" y1="226.9" x2="274.3" y2="226.9"/>
		<line class="st8" x1="0" y1="290.9" x2="274.3" y2="290.9"/>
		<line class="st8" x1="0" y1="354.9" x2="274.3" y2="354.9"/>
		<line class="st8" x1="0" y1="418.9" x2="274.3" y2="418.9"/>
		<line class="st8" x1="0" y1="482.9" x2="274.3" y2="482.9"/>
		<line class="st8" x1="0" y1="546.8" x2="274.3" y2="546.8"/>
		<line class="st8" x1="0" y1="610.8" x2="274.3" y2="610.8"/>
		<line class="st8" x1="0" y1="674.8" x2="274.3" y2="674.8"/>
		<line class="st8" x1="0" y1="738.8" x2="274.3" y2="738.8"/>
		<line class="st8" x1="0" y1="802.8" x2="274.3" y2="802.8"/>
		<line class="st8" x1="0" y1="867" x2="274.3" y2="867"/>
		<line class="st8" x1="0" y1="931.1" x2="274.3" y2="931.1"/>
		<path class="st5" d="M32.3,251.4h117.9c5.6,0,10.1,4.5,10.1,10.1v0c0,5.6-4.5,10.1-10.1,10.1H32.3c-5.6,0-10.1-4.5-10.1-10.1v0
			C22.2,256,26.7,251.4,32.3,251.4z"/>
		<path class="st5" d="M77.5,115.3h117.9c5.6,0,10.1,4.5,10.1,10.1v0c0,5.6-4.5,10.1-10.1,10.1H77.5c-5.6,0-10.1-4.5-10.1-10.1v0
			C67.4,119.8,71.9,115.3,77.5,115.3z"/>
		<path class="st5" d="M32.3,314.2h103.1c5.6,0,10.1,4.5,10.1,10.1v0c0,5.6-4.5,10.1-10.1,10.1H32.3c-5.6,0-10.1-4.5-10.1-10.1v0
			C22.2,318.7,26.7,314.2,32.3,314.2z"/>
		<path class="st5" d="M32.3,377.9h112.2c5.6,0,10.1,4.5,10.1,10.1v0c0,5.6-4.5,10.1-10.1,10.1H32.3c-5.6,0-10.1-4.5-10.1-10.1v0
			C22.2,382.4,26.7,377.9,32.3,377.9z"/>
		<path class="st5" d="M32.3,442.8h100c5.6,0,10.1,4.5,10.1,10.1v0c0,5.6-4.5,10.1-10.1,10.1h-100c-5.6,0-10.1-4.5-10.1-10.1v0
			C22.2,447.3,26.7,442.8,32.3,442.8z"/>
		<path class="st5" d="M32.3,632.8h100c5.6,0,10.1,4.5,10.1,10.1v0c0,5.6-4.5,10.1-10.1,10.1h-100c-5.6,0-10.1-4.5-10.1-10.1v0
			C22.2,637.3,26.7,632.8,32.3,632.8z"/>
		<path class="st5" d="M32.3,506.6h112.2c5.6,0,10.1,4.5,10.1,10.1v0c0,5.6-4.5,10.1-10.1,10.1H32.3c-5.6,0-10.1-4.5-10.1-10.1v0
			C22.2,511.1,26.7,506.6,32.3,506.6z"/>
		<path class="st5" d="M32.3,568.8h126.4c5.6,0,10.1,4.5,10.1,10.1v0c0,5.6-4.5,10.1-10.1,10.1H32.3c-5.6,0-10.1-4.5-10.1-10.1v0
			C22.2,573.3,26.7,568.8,32.3,568.8z"/>
		<path class="st7" d="M342.6,713.5h37.1c2.8,0,5,2.4,5,5.4l0,0c0,3-2.3,5.4-5,5.4h-37.1c-2.8,0-5-2.4-5-5.4l0,0
			C337.5,716,339.8,713.5,342.6,713.5z"/>
		<path class="st7" d="M344.4,823.8h179.5c3.8,0,6.9,3.1,6.9,6.9l0,0c0,3.8-3.1,6.9-6.9,6.9H344.4c-3.8,0-6.9-3.1-6.9-6.9l0,0
			C337.5,826.9,340.6,823.8,344.4,823.8z"/>
		<path class="st7" d="M343,857h113.4c3,0,5.5,2.5,5.5,5.5v2.7c0,3-2.5,5.5-5.5,5.5H343c-3,0-5.5-2.5-5.5-5.5v-2.7
			C337.5,859.4,340,857,343,857z"/>
		<path class="st7" d="M344.3,924.7h175.2c3.7,0,6.8,3,6.8,6.8v0.2c0,3.7-3,6.8-6.8,6.8H344.3c-3.7,0-6.8-3-6.8-6.8v-0.2
			C337.5,927.8,340.6,924.7,344.3,924.7z"/>
		<path class="st7" d="M535.8,924.7h96.9c2.8,0,5.1,2.3,5.1,5.1v3.5c0,2.8-2.3,5.1-5.1,5.1h-96.9c-2.8,0-5.1-2.3-5.1-5.1v-3.5
			C530.7,927,533,924.7,535.8,924.7z"/>
		<path class="st7" d="M606.7,889.1h113.4c3,0,5.5,2.5,5.5,5.5v2.7c0,3-2.5,5.5-5.5,5.5H606.7c-3,0-5.5-2.5-5.5-5.5v-2.7
			C601.2,891.6,603.7,889.1,606.7,889.1z"/>
		<path class="st7" d="M344.4,889.1h241.2c3.8,0,6.9,3.1,6.9,6.9l0,0c0,3.8-3.1,6.9-6.9,6.9H344.4c-3.8,0-6.9-3.1-6.9-6.9l0,0
			C337.5,892.2,340.6,889.1,344.4,889.1z"/>
		<path class="st7" d="M549.5,823.8h65.7c2.3,0,4.2,1.9,4.2,4.2v5.2c0,2.3-1.9,4.2-4.2,4.2h-65.7c-2.3,0-4.2-1.9-4.2-4.2V828
			C545.2,825.7,547.1,823.8,549.5,823.8z"/>
		<path class="st7" d="M1208.1,100.5h35.8c3.8,0,6.9,3.1,6.9,6.9l0,0c0,3.8-3.1,6.9-6.9,6.9h-35.8c-3.8,0-6.9-3.1-6.9-6.9l0,0
			C1201.2,103.6,1204.3,100.5,1208.1,100.5z"/>
		<path class="st0" d="M1261.4,100.5h27.2c3.4,0,6.1,2.7,6.1,6.1v1.5c0,3.4-2.7,6.1-6.1,6.1h-27.2c-3.4,0-6.1-2.7-6.1-6.1v-1.5
			C1255.3,103.3,1258,100.5,1261.4,100.5z"/>
		<path class="st7" d="M1307,100.5h27.2c3.4,0,6.1,2.7,6.1,6.1v1.5c0,3.4-2.7,6.1-6.1,6.1H1307c-3.4,0-6.1-2.7-6.1-6.1v-1.5
			C1300.9,103.3,1303.6,100.5,1307,100.5z"/>
		<path class="st7" d="M432.6,710.6h50.5c3.8,0,6.9,3.1,6.9,6.9l0,0c0,3.8-3.1,6.9-6.9,6.9h-50.5c-3.8,0-6.9-3.1-6.9-6.9l0,0
			C425.7,713.7,428.8,710.6,432.6,710.6z"/>
		<path class="st7" d="M530.9,710.6h50.5c3.8,0,6.9,3.1,6.9,6.9l0,0c0,3.8-3.1,6.9-6.9,6.9h-50.5c-3.8,0-6.9-3.1-6.9-6.9l0,0
			C524.1,713.7,527.1,710.6,530.9,710.6z"/>
		<path class="st7" d="M629.3,710.6h50.5c3.8,0,6.9,3.1,6.9,6.9l0,0c0,3.8-3.1,6.9-6.9,6.9h-50.5c-3.8,0-6.9-3.1-6.9-6.9l0,0
			C622.4,713.7,625.5,710.6,629.3,710.6z"/>
		<path class="st7" d="M727.6,710.6h50.5c3.8,0,6.9,3.1,6.9,6.9l0,0c0,3.8-3.1,6.9-6.9,6.9h-50.5c-3.8,0-6.9-3.1-6.9-6.9l0,0
			C720.8,713.7,723.9,710.6,727.6,710.6z"/>
		<path class="st5" d="M32.3,696.8h100c5.6,0,10.1,4.5,10.1,10.1v0c0,5.6-4.5,10.1-10.1,10.1h-100c-5.6,0-10.1-4.5-10.1-10.1v0
			C22.2,701.3,26.7,696.8,32.3,696.8z"/>
		<path class="st5" d="M32.3,824.8h100c5.6,0,10.1,4.5,10.1,10.1v0c0,5.6-4.5,10.1-10.1,10.1h-100c-5.6,0-10.1-4.5-10.1-10.1v0
			C22.2,829.3,26.7,824.8,32.3,824.8z"/>
		<path class="st5" d="M31,890.5h73.2c4.8,0,8.8,3.9,8.8,8.8v2.6c0,4.8-3.9,8.8-8.8,8.8H31c-4.8,0-8.8-3.9-8.8-8.8v-2.6
			C22.2,894.4,26.1,890.5,31,890.5z"/>
		<path class="st5" d="M32.3,760.8h116.8c5.6,0,10.1,4.5,10.1,10.1v0c0,5.6-4.5,10.1-10.1,10.1H32.3c-5.6,0-10.1-4.5-10.1-10.1v0
			C22.2,765.3,26.7,760.8,32.3,760.8z"/>
		<path class="st9" d="M324.5,122.5H1340c6.6,0,12,5.4,12,12V243c0,6.6-5.4,12-12,12H324.5c-6.6,0-12-5.4-12-12V134.4
			C312.6,127.8,317.9,122.5,324.5,122.5z"/>
		<path class="st9" d="M324.5,327.3h475c6.6,0,12,5.4,12,12V722c0,6.6-5.4,12-12,12h-475c-6.6,0-12-5.4-12-12V339.3
			C312.6,332.7,317.9,327.3,324.5,327.3z"/>
		<path class="st9" d="M325.8,765.2h1012.8c7.3,0,13.3,5.9,13.3,13.3v154.2c0,7.3-5.9,13.3-13.3,13.3H325.8
			c-7.3,0-13.3-5.9-13.3-13.3V778.5C312.6,771.2,318.5,765.2,325.8,765.2z"/>
		<path class="st9" d="M854.9,327.3H1340c6.6,0,12,5.4,12,12V722c0,6.6-5.4,12-12,12H854.9c-6.6,0-12-5.4-12-12V339.3
			C842.9,332.7,848.2,327.3,854.9,327.3z"/>
		<line class="st9" x1="659" y1="122.5" x2="659" y2="255"/>
		<line class="st9" x1="1005.5" y1="122.5" x2="1005.5" y2="255"/>
		<line class="st9" x1="359.5" y1="692.3" x2="779.5" y2="692.3"/>
		<path class="st10" d="M337.5,692.3c23.5-71.9,60.7-155.7,113.3-159c49.5-3.1,73.5,67.2,120.5,60.2c61.8-9.3,63-137.5,154-166.3
			c22.2-7.1,42.6-5.9,55.4-4.2"/>
		<path class="st11" d="M868.9,627.1c17.8-22.5,47.3-51.8,87.7-56c48.6-5.1,68.3,30.9,102.3,22c59.6-15.5,49.3-138.8,105.5-150.1
			c31.2-6.3,50.5,28.5,92.7,21c27.2-4.8,46.8-24.1,59.6-41"/>
		<path class="st7" d="M870.8,710.6h50.5c3.8,0,6.9,3.1,6.9,6.9l0,0c0,3.8-3.1,6.9-6.9,6.9h-50.5c-3.8,0-6.9-3.1-6.9-6.9l0,0
			C864,713.7,867.1,710.6,870.8,710.6z"/>
		<path class="st7" d="M969.2,710.6h50.5c3.8,0,6.9,3.1,6.9,6.9l0,0c0,3.8-3.1,6.9-6.9,6.9h-50.5c-3.8,0-6.9-3.1-6.9-6.9l0,0
			C962.3,713.7,965.4,710.6,969.2,710.6z"/>
		<path class="st7" d="M1067.6,710.6h50.5c3.8,0,6.9,3.1,6.9,6.9l0,0c0,3.8-3.1,6.9-6.9,6.9h-50.5c-3.8,0-6.9-3.1-6.9-6.9l0,0
			C1060.7,713.7,1063.8,710.6,1067.6,710.6z"/>
		<path class="st7" d="M1165.9,710.6h50.5c3.8,0,6.9,3.1,6.9,6.9l0,0c0,3.8-3.1,6.9-6.9,6.9h-50.5c-3.8,0-6.9-3.1-6.9-6.9l0,0
			C1159.1,713.7,1162.1,710.6,1165.9,710.6z"/>
		<path class="st7" d="M1264.3,710.6h50.5c3.8,0,6.9,3.1,6.9,6.9l0,0c0,3.8-3.1,6.9-6.9,6.9h-50.5c-3.8,0-6.9-3.1-6.9-6.9l0,0
			C1257.4,713.7,1260.5,710.6,1264.3,710.6z"/>
		<line class="st9" x1="896.1" y1="692.3" x2="1316.1" y2="692.3"/>
		<circle class="st4" cx="337.6" cy="691.7" r="5"/>
		<circle class="st4" cx="779.5" cy="422.5" r="5"/>
		<ellipse class="st12" cx="869.1" cy="627.1" rx="5.2" ry="5"/>
		<circle class="st12" cx="1316.7" cy="421.6" r="5"/>
		<line class="st13" x1="312.6" y1="811.8" x2="1351.9" y2="811.8"/>
		<line class="st13" x1="312.6" y1="845.3" x2="1351.9" y2="845.3"/>
		<line class="st13" x1="312.6" y1="878.7" x2="1351.9" y2="878.7"/>
		<line class="st13" x1="312.6" y1="913.2" x2="1351.9" y2="913.2"/>
		<path class="st14" d="M49.8,79.1c-1.3,0.9-2.7,1.6-4.2,2.2c-1.6,0.5-3.3,0.8-4.9,0.8c-2.3,0-4.5-0.5-6.6-1.5
			c-3.9-1.9-6.9-5.2-8.4-9.2c-0.8-2-1.2-4.1-1.2-6.3c0-2.2,0.4-4.4,1.2-6.4c0.8-2,2-3.8,3.4-5.4c1.5-1.6,3.2-2.8,5.1-3.7
			c2-0.9,4.2-1.4,6.4-1.4c2.3,0,4.5,0.5,6.6,1.5c1.9,0.9,3.7,2.3,5.1,3.9c1.4,1.6,2.5,3.5,3.3,5.5c0.8,2,1.2,4.1,1.2,6.2
			c0,2.2-0.4,4.4-1.3,6.4c-0.8,2-1.9,3.8-3.4,5.4l4.3,4.7h-4.2L49.8,79.1z M40.6,78.2c1.2,0,2.4-0.2,3.5-0.6c1.1-0.4,2.1-0.9,3-1.6
			l-4.6-5.2h4.2l2.6,3c3-3.9,3.8-9.1,2.1-13.7c-0.5-1.5-1.4-3-2.4-4.2c-1-1.2-2.3-2.2-3.7-2.9c-1.5-0.7-3.1-1.1-4.7-1.1
			c-1.7,0-3.4,0.4-4.9,1.2c-1.4,0.7-2.7,1.7-3.7,3c-1,1.3-1.8,2.7-2.4,4.2c-1.1,3.1-1.1,6.6,0,9.7c0.5,1.6,1.4,3,2.4,4.2
			c1,1.2,2.3,2.2,3.7,2.9C37.3,77.9,39,78.3,40.6,78.2z"/>
		<path class="st14" d="M67.9,82.3c-2.3,0.2-4.5-0.8-6-2.6c-1.3-1.8-2-4.3-2-7.7V57.2h4.3v13.9c0,5,1.8,7.5,5.4,7.5
			c1.8,0,3.5-0.6,4.9-1.6c1.6-1.1,2.8-2.7,3.4-4.5V57.2h4.2v19.5c0,1,0.4,1.5,1.3,1.5v3.6c-0.5,0-0.9,0.1-1.1,0.2
			c-0.3,0-0.5,0-0.8,0c-0.8,0-1.5-0.2-2.1-0.8c-0.5-0.4-0.8-1.1-0.9-1.8l-0.1-2.9c-1.1,1.8-2.6,3.3-4.5,4.2
			C72.1,81.8,70,82.3,67.9,82.3z"/>
		<path class="st14" d="M87.2,52.6v-5.2h4.2v5.2H87.2z M87.2,81.8V57.2h4.2v24.6H87.2z"/>
		<path class="st14" d="M94.7,69.5c0-1.7,0.3-3.3,0.9-4.9c0.6-1.5,1.5-2.9,2.6-4c1.2-1.2,2.5-2.1,4.1-2.7c1.7-0.7,3.5-1,5.3-1
			c2.3-0.1,4.5,0.5,6.5,1.7c1.8,1,3.2,2.5,4.2,4.3l-4.2,1.2c-0.6-1.1-1.6-2.1-2.7-2.7c-1.2-0.7-2.5-1-3.9-0.9c-2.3,0-4.4,1-5.9,2.7
			c-0.8,0.8-1.4,1.8-1.7,2.9c-0.9,2.3-0.9,4.9,0,7.2c0.4,1.1,1,2.1,1.8,3c0.7,0.8,1.7,1.5,2.7,2c1,0.5,2.2,0.7,3.3,0.7
			c0.8,0,1.5-0.1,2.2-0.3c0.7-0.2,1.4-0.5,2-0.8c0.6-0.3,1.1-0.7,1.6-1.2c0.4-0.4,0.8-0.9,1-1.5l4.2,1.2c-0.4,0.9-0.9,1.8-1.6,2.5
			c-0.7,0.8-1.5,1.4-2.4,1.9c-1,0.6-2,1-3.1,1.3c-1.2,0.3-2.4,0.5-3.7,0.5c-3.5,0.1-6.8-1.3-9.3-3.8c-1.2-1.2-2-2.6-2.6-4.1
			C95.1,72.9,94.7,71.2,94.7,69.5z"/>
		<path class="st14" d="M139.1,81.8l-8.7-12l-4.8,4.4v7.6h-4.2V47.4h4.2V70l13-12.8h4.7l-10.1,10.2l10.5,14.4H139.1z"/>
		<path class="st6" d="M158.3,82.3c-3.7,0-7.2-1.9-9.2-5.1v4.6h-3.8V47.4h4.2v14.7c1-1.6,2.3-2.9,3.9-3.9c3.1-1.8,6.9-1.9,10.1-0.4
			c1.3,0.7,2.6,1.7,3.6,2.8c1,1.2,1.8,2.6,2.3,4.1c0.5,1.5,0.8,3.1,0.8,4.8c0,1.7-0.3,3.3-0.9,4.9c-0.6,1.5-1.5,2.8-2.5,4
			c-1.1,1.2-2.4,2.1-3.8,2.8C161.5,81.9,159.9,82.3,158.3,82.3z M157.3,78.7c1.2,0,2.4-0.2,3.5-0.8c1-0.5,2-1.1,2.8-2
			c0.8-0.8,1.4-1.8,1.8-2.9c0.8-2.2,0.8-4.7,0-6.9c-0.4-1.1-1-2.1-1.7-3c-0.7-0.8-1.6-1.5-2.6-2c-1.9-0.9-4-1-5.9-0.3
			c-0.8,0.3-1.5,0.7-2.2,1.2c-0.7,0.5-1.3,1.2-1.8,1.8c-0.5,0.7-1,1.4-1.4,2.2v7.1c0.2,0.8,0.5,1.5,1,2.2c0.5,0.7,1.2,1.3,1.9,1.8
			c0.7,0.5,1.5,0.9,2.3,1.2C155.6,78.5,156.4,78.7,157.3,78.7z"/>
		<path class="st6" d="M181.3,82.3c-2.3,0.2-4.5-0.8-6-2.6c-1.4-1.8-2-4.3-2-7.7V57.2h4.2v13.9c0,5,1.8,7.5,5.4,7.5
			c1.8,0,3.5-0.6,4.9-1.6c1.5-1.1,2.7-2.7,3.4-4.5V57.2h4.2v19.5c0,1,0.4,1.5,1.4,1.5v3.6c-0.5,0-0.9,0.1-1.2,0.2
			c-0.3,0-0.5,0-0.8,0c-0.8,0-1.5-0.3-2.1-0.8c-0.5-0.5-0.9-1.1-0.9-1.8l-0.1-2.9c-1.1,1.8-2.6,3.3-4.4,4.2
			C185.5,81.8,183.4,82.3,181.3,82.3z"/>
		<path class="st6" d="M213.7,80.6c-0.3,0.2-0.7,0.3-1,0.4l-1.4,0.5c-0.6,0.2-1.2,0.3-1.7,0.4c-0.6,0.1-1.3,0.2-1.9,0.1
			c-1.4,0-2.8-0.4-4-1.3c-1.2-0.9-1.8-2.4-1.7-3.9V60.5h-3.4v-3.2h3.4V49h4.3v8.2h5.6v3.2h-5.6v15.3c0,0.8,0.3,1.5,0.9,2
			c0.6,0.4,1.2,0.6,1.9,0.6c0.8,0,1.6-0.1,2.3-0.4c0.5-0.2,1-0.4,1.4-0.6L213.7,80.6z"/>
		<path class="st6" d="M215.8,52.6v-5.2h4.2v5.2H215.8z M215.8,81.8V57.2h4.2v24.6H215.8z"/>
		<path class="st6" d="M242.7,81.8l-8.7-12l-4.8,4.4v7.6h-4.2V47.4h4.2V70l13-12.8h4.7l-10.1,10.2l10.5,14.4H242.7z"/>
		<path class="st14" d="M698.2,77.2h-30.6c-0.9,0-1.6-0.7-1.6-1.6c0-0.9,0.7-1.6,1.6-1.6H697l6-23.3h-41.1c-0.6,0-1.1-0.3-1.4-0.8
			l-2.8-5.5H653c-0.9,0-1.6-0.7-1.6-1.6c0-0.9,0.7-1.6,1.6-1.6c0,0,0,0,0,0h5.6c0.6,0,1.1,0.3,1.4,0.8l2.8,5.5H705
			c0.9,0,1.6,0.7,1.6,1.6c0,0.1,0,0.3,0,0.4L699.8,76C699.6,76.7,699,77.2,698.2,77.2z M663.8,75.6c0-0.9-0.7-1.6-1.6-1.6h-1.7
			c-0.9,0-1.6,0.7-1.6,1.6c0,0.9,0.7,1.6,1.6,1.6h1.7C663.1,77.2,663.8,76.5,663.8,75.6L663.8,75.6z M696.4,62.4
			c0-0.9-0.7-1.6-1.6-1.6h-7.7c-0.9,0-1.6,0.7-1.6,1.6c0,0.9,0.7,1.6,1.6,1.6h7.7C695.7,64,696.4,63.3,696.4,62.4L696.4,62.4z
			 M682.5,62.4c0-0.9-0.7-1.5-1.5-1.6h-21.7c-0.9,0-1.6,0.7-1.6,1.6c0,0.9,0.7,1.6,1.6,1.6H681C681.9,63.9,682.5,63.3,682.5,62.4z
			 M671.8,69c0-0.9-0.7-1.6-1.6-1.6H667c-0.9,0-1.6,0.7-1.6,1.6c0,0.9,0.7,1.6,1.6,1.6h3.2C671.1,70.6,671.8,69.9,671.8,69
			C671.8,69,671.8,69,671.8,69z M694.8,69c0-0.9-0.7-1.6-1.6-1.6h-17c-0.9,0-1.6,0.7-1.6,1.6c0,0.9,0.7,1.6,1.6,1.6h17
			C694.1,70.6,694.8,69.9,694.8,69L694.8,69z M662.5,69c0-0.8-0.7-1.5-1.5-1.5h-7.7c-0.9,0-1.6,0.7-1.6,1.6c0,0.9,0.7,1.6,1.6,1.6
			h7.7C661.9,70.6,662.5,69.9,662.5,69z M648.5,42.8c0-0.8-0.7-1.5-1.5-1.5h-4.6c-0.9,0-1.6,0.7-1.6,1.6c0,0.9,0.7,1.6,1.6,1.6h4.6
			C647.8,44.4,648.5,43.7,648.5,42.8L648.5,42.8z M698.1,55.8c0-0.9-0.7-1.6-1.5-1.6c0,0,0,0,0,0h-23.2c-0.9,0-1.6,0.7-1.6,1.6
			c0,0.9,0.7,1.6,1.6,1.6h23.2C697.4,57.3,698.1,56.6,698.1,55.8C698.1,55.8,698.1,55.8,698.1,55.8z M668.5,55.8
			c0-0.9-0.7-1.5-1.5-1.6h-12.3c-0.9,0-1.6,0.7-1.6,1.6c0,0.9,0.7,1.6,1.6,1.6l0,0H667C667.9,57.3,668.5,56.6,668.5,55.8z
			 M667.9,80.3c-2.3,0-4.2,1.9-4.2,4.2s1.9,4.2,4.2,4.2c2.3,0,4.2-1.9,4.2-4.2c0,0,0,0,0,0C672.1,82.2,670.2,80.3,667.9,80.3
			L667.9,80.3z M689.8,80.3c-2.3,0-4.3,1.9-4.3,4.2c0,2.3,1.9,4.3,4.2,4.3c2.3,0,4.3-1.9,4.3-4.2c0,0,0,0,0,0
			C694,82.2,692.1,80.3,689.8,80.3z"/>
		<path class="st5" d="M253.5,905.1c-0.5,1.7-1.4,3.2-2.6,4.5c-0.2,0.2-0.5,0.2-0.7,0.1l-2-1.2c-0.8,0.7-1.8,1.3-2.9,1.7v2.3
			c0,0.3-0.2,0.5-0.4,0.5c-1.7,0.4-3.4,0.4-5.1,0c-0.3-0.1-0.4-0.3-0.4-0.5v-2.3c-1-0.4-2-0.9-2.9-1.7l-2,1.2
			c-0.2,0.1-0.5,0.1-0.7-0.1c-1.2-1.3-2.1-2.8-2.6-4.5c-0.1-0.3,0-0.5,0.3-0.7l2-1.2c-0.2-1.1-0.2-2.2,0-3.3l-2-1.2
			c-0.2-0.1-0.3-0.4-0.3-0.7c0.5-1.7,1.4-3.2,2.6-4.5c0.2-0.2,0.5-0.2,0.7-0.1l2,1.2c0.8-0.7,1.8-1.3,2.9-1.7v-2.3
			c0-0.3,0.2-0.5,0.4-0.5c1.7-0.4,3.5-0.4,5.1,0c0.3,0.1,0.4,0.3,0.4,0.5v2.3c1,0.4,2,0.9,2.9,1.7l2-1.2c0.2-0.1,0.5-0.1,0.7,0.1
			c1.2,1.3,2.1,2.8,2.6,4.5c0.1,0.3,0,0.5-0.3,0.7l-2,1.2c0.2,1.1,0.2,2.2,0,3.3l2,1.2C253.4,904.6,253.5,904.9,253.5,905.1z
			 M246.1,901.7c0-2.1-1.7-3.8-3.8-3.8c-2.1,0-3.8,1.7-3.8,3.8c0,2.1,1.7,3.8,3.8,3.8S246.1,903.8,246.1,901.7L246.1,901.7
			L246.1,901.7z"/>
		<path class="st7" d="M530.9,358H598c3.8,0,6.9,3.1,6.9,6.9v0c0,3.8-3.1,6.9-6.9,6.9h-67.1c-3.8,0-6.9-3.1-6.9-6.9v0
			C524.1,361.1,527.1,358,530.9,358z"/>
		<path class="st7" d="M1085.1,358h67.1c3.8,0,6.9,3.1,6.9,6.9v0c0,3.8-3.1,6.9-6.9,6.9h-67.1c-3.8,0-6.9-3.1-6.9-6.9v0
			C1078.2,361.1,1081.3,358,1085.1,358z"/>
		<path class="st7" d="M337.2,297.7h95.5c5.4,0,9.8,4.4,9.8,9.8v0.1c0,5.4-4.4,9.8-9.8,9.8h-95.5c-5.4,0-9.8-4.4-9.8-9.8v-0.1
			C327.4,302.1,331.8,297.7,337.2,297.7z"/>
		<path class="st7" d="M381.1,782.8h30.7c3.8,0,6.9,3.1,6.9,6.9l0,0c0,3.8-3.1,6.9-6.9,6.9h-30.7c-3.8,0-6.9-3.1-6.9-6.9l0,0
			C374.3,785.8,377.4,782.8,381.1,782.8z"/>
		<path class="st7" d="M485.7,169.9h35.6c6,0,10.9,4.9,10.9,10.9v0c0,6-4.9,10.9-10.9,10.9h-35.6c-6,0-10.9-4.9-10.9-10.9v0
			C474.9,174.7,479.7,169.9,485.7,169.9z"/>
		<path class="st7" d="M483.4,195.4h30c3.8,0,6.9,3.1,6.9,6.9l0,0c0,3.8-3.1,6.9-6.9,6.9h-30c-3.8,0-6.9-3.1-6.9-6.9l0,0
			C476.5,198.5,479.6,195.4,483.4,195.4z"/>
		<path class="st1" d="M541.9,156.1h10.7c3.8,0,6.9,3.1,6.9,6.9l0,0c0,3.8-3.1,6.9-6.9,6.9h-10.7c-3.8,0-6.9-3.1-6.9-6.9l0,0
			C535,159.2,538.1,156.1,541.9,156.1z"/>
		<path class="st1" d="M890.8,156.1h10.7c3.8,0,6.9,3.1,6.9,6.9l0,0c0,3.8-3.1,6.9-6.9,6.9h-10.7c-3.8,0-6.9-3.1-6.9-6.9l0,0
			C883.9,159.2,887,156.1,890.8,156.1z"/>
		<path class="st1" d="M1255.2,156.1h10.7c3.8,0,6.9,3.1,6.9,6.9l0,0c0,3.8-3.1,6.9-6.9,6.9h-10.7c-3.8,0-6.9-3.1-6.9-6.9l0,0
			C1248.3,159.2,1251.4,156.1,1255.2,156.1z"/>
		<path class="st7" d="M832,195.4h30c3.8,0,6.9,3.1,6.9,6.9l0,0c0,3.8-3.1,6.9-6.9,6.9h-30c-3.8,0-6.9-3.1-6.9-6.9l0,0
			C825.2,198.5,828.2,195.4,832,195.4z"/>
		<path class="st7" d="M834.1,169.9h35.6c6,0,10.9,4.9,10.9,10.9v0c0,6-4.9,10.9-10.9,10.9h-35.6c-6,0-10.9-4.9-10.9-10.9v0
			C823.3,174.7,828.1,169.9,834.1,169.9z"/>
		<path class="st7" d="M1117.3,169.9H1236c6,0,10.9,4.9,10.9,10.9v0c0,6-4.9,10.9-10.9,10.9h-118.7c-6,0-10.9-4.9-10.9-10.9v0
			C1106.4,174.7,1111.3,169.9,1117.3,169.9z"/>
		<path class="st7" d="M1161.6,195.4h42.2c3.8,0,6.9,3.1,6.9,6.9l0,0c0,3.8-3.1,6.9-6.9,6.9h-42.2c-3.8,0-6.9-3.1-6.9-6.9l0,0
			C1154.7,198.5,1157.8,195.4,1161.6,195.4z"/>
		<path class="st7" d="M425.3,169.9h28.2c8.1,0,14.6,6.5,14.6,14.6v10c0,8.1-6.5,14.6-14.6,14.6h-28.2c-8.1,0-14.6-6.5-14.6-14.6
			v-10C410.7,176.4,417.2,169.9,425.3,169.9z"/>
		<path class="st7" d="M773.1,169.9h28.2c8.1,0,14.6,6.5,14.6,14.6v10c0,8.1-6.5,14.6-14.6,14.6h-28.2c-8.1,0-14.6-6.5-14.6-14.6
			v-10C758.5,176.4,765.1,169.9,773.1,169.9z"/>
	</g>
</g>
</svg>
