<?xml version="1.0" encoding="utf-8"?>
<!-- Generator: Adobe Illustrator 25.0.1, SVG Export Plug-In . SVG Version: 6.00 Build 0)  -->
<svg version="1.1" id="Layer_1" xmlns="http://www.w3.org/2000/svg" xmlns:xlink="http://www.w3.org/1999/xlink" x="0px" y="0px"
	 viewBox="0 0 1440.41 970.07" style="enable-background:new 0 0 1440.41 970.07;" xml:space="preserve">
<style type="text/css">
	.st0{opacity:0.24;fill:#6154F9;}
	.st1{opacity:0.24;fill:#20D287;}
	.st2{fill:#362F4A;}
	.st3{font-family:'FontAwesome5Pro-Solid';}
	.st4{font-size:36px;}
	.st5{fill:#EAEAEA;}
	.st6{font-family:'FontAwesome5Pro-Regular';}
	.st7{font-size:24px;}
	.st8{fill:#302b40;}
	.st9{font-family:'ProximaNova-Medium';}
	.st10{font-size:14px;}
	.st11{font-family:'ProximaNova-Regular';}
	.st12{font-size:20px;}
	.st13{font-size:26px;}
	.st14{fill:#9DA4AD;}
	.st15{fill:#20D287;}
	.st16{font-size:12px;}
	.st17{fill:#69A1DA;}
	.st18{fill:none;stroke:#EAEAEA;stroke-miterlimit:10;}
	.st19{fill:none;stroke:#6154F9;stroke-width:4;stroke-linecap:round;stroke-linejoin:round;stroke-miterlimit:10;}
	.st20{fill:none;stroke:#20D287;stroke-width:4;stroke-linecap:round;stroke-linejoin:round;stroke-miterlimit:10;}
	.st21{fill-rule:evenodd;clip-rule:evenodd;fill:#6154F9;}
	.st22{fill-rule:evenodd;clip-rule:evenodd;fill:#20D287;}
	.st23{fill:none;stroke:#6154F9;stroke-linecap:round;stroke-linejoin:round;stroke-miterlimit:10;}
	.st24{fill:none;stroke:#6AD8B9;stroke-linecap:round;stroke-linejoin:round;stroke-miterlimit:10;}
	
		.st25{fill-rule:evenodd;clip-rule:evenodd;fill:#FFFFFF;stroke:#69A1DA;stroke-width:2;stroke-linecap:round;stroke-linejoin:round;stroke-miterlimit:10;}
	
		.st26{fill-rule:evenodd;clip-rule:evenodd;fill:#FFFFFF;stroke:#6AD8B9;stroke-width:2;stroke-linecap:round;stroke-linejoin:round;stroke-miterlimit:10;}
	.st27{fill:#6154F9;}
	.st28{fill:#626D7B;}
	.st29{fill:#FFFFFF;}
	.st30{fill:none;stroke:#302b40;stroke-miterlimit:10;}
	.st31{fill:none;stroke:#EFEFEF;stroke-miterlimit:10;}
</style>
<path class="st0" d="M388.92,699.85c22.34-71.94,57.68-155.7,107.66-159.05c46.98-3.15,69.83,67.24,114.52,60.18
	c58.77-9.28,59.88-137.47,146.28-166.34c21.11-7.05,40.51-5.91,52.66-4.18v269.38H388.92z"/>
<path class="st1" d="M926.11,634.64c16.74-22.48,44.44-51.84,82.35-56.05c45.6-5.07,64.11,30.89,96.09,22.02
	c55.99-15.52,46.3-138.75,99.1-150.15c29.34-6.33,47.39,28.46,87.08,21.02c25.59-4.8,43.91-24.1,55.93-41.02v269.38H926.11V634.64z"
	/>
<text transform="matrix(1 0 0 1 451.1126 209.3661)" class="st2 st3 st4"></text>
<g>
	<text transform="matrix(1 0 0 1 796.0383 209.7671)" class="st2 st3 st4"></text>
</g>
<g>
	<text transform="matrix(1 0 0 1 1226.0408 316.315)" class="st5 st6 st7"></text>
</g>
<text transform="matrix(1 0 0 1 575.2168 355.8872)" class="st8 st9 st10">Visitors</text>
<g>
	<text transform="matrix(1 0 0 1 359.6909 322.455)" class="st8 st11 st12">Last 7 days</text>
</g>
<text transform="matrix(1 0 0 1 505.7447 197.9449)" class="st8 st11 st13">1206</text>
<g>
	<text transform="matrix(1 0 0 1 510.3438 213.958)" class="st14 st9 st10">views</text>
</g>
<g>
	<text transform="matrix(1 0 0 1 564.1167 182.2769)" class="st15 st9 st10">+12%</text>
</g>
<g>
	<text transform="matrix(1 0 0 1 915.9121 182.2769)" class="st15 st9 st10">+20%</text>
</g>
<g>
	<text transform="matrix(1 0 0 1 1276.4087 182.2769)" class="st15 st9 st10">+21%</text>
</g>
<text transform="matrix(1 0 0 1 852.7168 197.9449)" class="st8 st11 st13">1206</text>
<text transform="matrix(1 0 0 1 1143.8057 197.9449)" class="st8 st11 st13">23.410 SEK</text>
<g>
	<text transform="matrix(1 0 0 1 857.3159 213.958)" class="st14 st9 st10">orders</text>
</g>
<g>
	<text transform="matrix(1 0 0 1 1186.4893 213.958)" class="st14 st9 st10">revenue</text>
</g>
<g>
	<text transform="matrix(1 0 0 1 1220.0493 118.3521)"><tspan x="0" y="0" class="st14 st9 st16">Year / Month / </tspan><tspan x="78.3" y="0" class="st17 st9 st16">Week </tspan><tspan x="111.79" y="0" class="st14 st9 st16">/ Today</tspan></text>
</g>
<g>
	<text transform="matrix(1 0 0 1 1103.6914 355.8872)" class="st8 st9 st10">Revenue</text>
</g>
<g>
	<text transform="matrix(1 0 0 1 1262.5273 312.6496)" class="st8 st9 st10">Sales Statistics</text>
</g>
<path class="st18" d="M1369.95,262.53H354.55c-6.61,0-11.96-5.36-11.96-11.96v-108.6c0-6.61,5.36-11.96,11.96-11.96h1015.41
	c6.61,0,11.96,5.36,11.96,11.96v108.6C1381.92,257.17,1376.56,262.53,1369.95,262.53z"/>
<path class="st18" d="M829.55,741.52H354.55c-6.61,0-11.96-5.36-11.96-11.96V346.82c0-6.61,5.36-11.96,11.96-11.96h475.01
	c6.61,0,11.96,5.36,11.96,11.96v382.73C841.52,736.16,836.16,741.52,829.55,741.52z"/>
<path class="st18" d="M1369.95,741.52h-485.1c-6.61,0-11.96-5.36-11.96-11.96V346.82c0-6.61,5.36-11.96,11.96-11.96h485.1
	c6.61,0,11.96,5.36,11.96,11.96v382.73C1381.92,736.16,1376.56,741.52,1369.95,741.52z"/>
<path class="st18" d="M1374.43,329.76h-167.86c-4.13,0-7.49-3.35-7.49-7.49v-31.3c0-4.13,3.35-7.49,7.49-7.49h167.86
	c4.13,0,7.49,3.35,7.49,7.49v31.3C1381.92,326.41,1378.57,329.76,1374.43,329.76z"/>
<line class="st18" x1="689.03" y1="129.99" x2="689.03" y2="262.53"/>
<line class="st18" x1="1035.47" y1="129.99" x2="1035.47" y2="262.53"/>
<line class="st18" x1="389.49" y1="391.89" x2="389.49" y2="699.85"/>
<line class="st18" x1="389.49" y1="699.85" x2="809.48" y2="699.85"/>
<path class="st19" d="M389.49,699.85c22.34-71.94,57.68-155.7,107.66-159.05c46.98-3.15,69.83,67.24,114.52,60.18
	c58.77-9.28,59.88-137.47,146.28-166.34c21.11-7.05,40.51-5.91,52.66-4.18"/>
<path class="st20" d="M926.11,634.64c16.74-22.48,44.44-51.84,82.35-56.05c45.6-5.07,64.11,30.89,96.09,22.02
	c55.99-15.52,46.3-138.75,99.1-150.15c29.34-6.33,47.39,28.46,87.08,21.02c25.59-4.8,43.91-24.1,55.93-41.02"/>
<line class="st18" x1="926.11" y1="391.89" x2="926.11" y2="699.85"/>
<line class="st18" x1="926.11" y1="699.85" x2="1346.1" y2="699.85"/>
<circle class="st21" cx="389.62" cy="699.23" r="4.96"/>
<circle class="st21" cx="809.48" cy="430.03" r="4.96"/>
<circle class="st22" cx="926.11" cy="634.64" r="4.96"/>
<circle class="st22" cx="1346.67" cy="429.16" r="4.96"/>
<line class="st23" x1="624.96" y1="596.15" x2="624.96" y2="700.38"/>
<line class="st24" x1="1029.59" y1="579.43" x2="1029.59" y2="699.85"/>
<circle class="st25" cx="624.96" cy="596.15" r="5.37"/>
<circle class="st26" cx="1029.83" cy="579.43" r="5.37"/>
<g>
	<text transform="matrix(1 0 0 1 365.0025 729.2645)" class="st14 st9 st16">Thursday</text>
</g>
<g>
	<text transform="matrix(1 0 0 1 363.793 696.9151)" class="st14 st9 st16">0</text>
</g>
<g>
	<text transform="matrix(1 0 0 1 361.0132 596.9822)" class="st14 st9 st16">10</text>
</g>
<g>
	<text transform="matrix(1 0 0 1 359.6909 496.291)" class="st14 st9 st16">20</text>
</g>
<g>
	<text transform="matrix(1 0 0 1 440.0259 729.2645)" class="st14 st9 st16">Friday</text>
</g>
<g>
	<text transform="matrix(1 0 0 1 499.6358 729.2645)" class="st14 st9 st16">Saturday</text>
</g>
<g>
	<text transform="matrix(1 0 0 1 570.1353 729.2645)" class="st14 st9 st16">Sunday</text>
</g>
<g>
	<text transform="matrix(1 0 0 1 635.4629 729.2645)" class="st14 st9 st16">Monday</text>
</g>
<g>
	<text transform="matrix(1 0 0 1 697.5503 729.2645)" class="st14 st9 st16">Yesterday</text>
</g>
<g>
	<text transform="matrix(1 0 0 1 774.5654 729.2645)" class="st14 st9 st16">Today</text>
</g>
<g>
	<text transform="matrix(1 0 0 1 922.6216 729.2645)" class="st14 st9 st16">Thursday</text>
</g>
<g>
	<text transform="matrix(1 0 0 1 996.5854 729.2645)" class="st14 st9 st16">Friday</text>
</g>
<g>
	<text transform="matrix(1 0 0 1 1055.1353 729.2645)" class="st14 st9 st16">Saturday</text>
</g>
<g>
	<text transform="matrix(1 0 0 1 1124.5762 729.2645)" class="st14 st9 st16">Sunday</text>
</g>
<g>
	<text transform="matrix(1 0 0 1 1188.8438 729.2645)" class="st14 st9 st16">Monday</text>
</g>
<g>
	<text transform="matrix(1 0 0 1 1249.8716 729.2645)" class="st14 st9 st16">Yesterday</text>
</g>
<g>
	<text transform="matrix(1 0 0 1 1325.8276 729.2645)" class="st14 st9 st16">Today</text>
</g>
<g>
	<text transform="matrix(1 0 0 1 359.6909 394.9994)" class="st14 st9 st16">30</text>
</g>
<g>
	<text transform="matrix(1 0 0 1 904.4736 696.9151)" class="st14 st9 st16">0</text>
</g>
<g>
	<text transform="matrix(1 0 0 1 901.6938 596.9822)" class="st14 st9 st16">10</text>
</g>
<g>
	<text transform="matrix(1 0 0 1 900.3716 496.291)" class="st14 st9 st16">20</text>
</g>
<g>
	<text transform="matrix(1 0 0 1 900.3716 394.9994)" class="st14 st9 st16">30</text>
</g>
<g>
	<path class="st2" d="M759.85,89.04V78.34l-9.98-14.62h3.68l7.86,11.77l7.86-11.77h3.68L763,78.34v10.71H759.85z"/>
	<path class="st2" d="M770.25,79.86c0-5.31,3.49-9.6,9.07-9.6c5.58,0,9.07,4.29,9.07,9.6c0,5.32-3.49,9.64-9.07,9.64
		C773.74,89.5,770.25,85.17,770.25,79.86z M785.4,79.86c0-3.72-2.16-7.06-6.07-7.06s-6.11,3.34-6.11,7.06c0,3.76,2.2,7.1,6.11,7.1
		S785.4,83.61,785.4,79.86z"/>
	<path class="st2" d="M805.4,89.04v-2.58c-1.4,1.59-3.8,3.04-6.53,3.04c-3.83,0-5.85-1.86-5.85-5.85V70.71h2.85v12.07
		c0,3.23,1.63,4.18,4.1,4.18c2.24,0,4.37-1.29,5.43-2.77V70.71h2.85v18.34H805.4z"/>
	<path class="st2" d="M813.94,89.04V70.71h2.85v2.96c1.48-1.94,3.61-3.34,6.11-3.34v2.92c-0.34-0.08-0.68-0.11-1.14-0.11
		c-1.75,0-4.14,1.44-4.97,2.92v12.98H813.94z"/>
	<path class="st2" d="M834.86,85.47l1.86-2.39c1.67,1.86,4.4,3.61,7.97,3.61c4.52,0,5.96-2.43,5.96-4.37c0-6.53-15-2.92-15-11.96
		c0-4.18,3.72-7.02,8.69-7.02c3.87,0,6.87,1.29,9,3.53l-1.9,2.32c-1.9-2.09-4.56-3.04-7.33-3.04c-3.04,0-5.2,1.63-5.2,4.02
		c0,5.69,15,2.43,15,11.88c0,3.68-2.5,7.44-9.34,7.44C840.17,89.5,836.95,87.83,834.86,85.47z"/>
	<path class="st2" d="M858.43,85.21v-12h-3.04v-2.51h3.04V65.7h2.85v5.01H865v2.51h-3.72V84.6c0,1.37,0.61,2.35,1.86,2.35
		c0.8,0,1.56-0.34,1.94-0.76l0.83,2.13c-0.72,0.68-1.75,1.18-3.42,1.18C859.8,89.5,858.43,87.94,858.43,85.21z"/>
	<path class="st2" d="M867.96,79.86c0-5.31,3.49-9.6,9.07-9.6c5.58,0,9.07,4.29,9.07,9.6c0,5.32-3.49,9.64-9.07,9.64
		C871.45,89.5,867.96,85.17,867.96,79.86z M883.11,79.86c0-3.72-2.16-7.06-6.07-7.06s-6.11,3.34-6.11,7.06c0,3.76,2.2,7.1,6.11,7.1
		S883.11,83.61,883.11,79.86z"/>
	<path class="st2" d="M890.73,89.04V70.71h2.85v2.96c1.48-1.94,3.61-3.34,6.11-3.34v2.92c-0.34-0.08-0.68-0.11-1.14-0.11
		c-1.75,0-4.14,1.44-4.97,2.92v12.98H890.73z"/>
	<path class="st2" d="M902.2,79.86c0-5.31,3.8-9.6,9.04-9.6c5.54,0,8.81,4.33,8.81,9.83v0.72H905.2c0.23,3.46,2.66,6.34,6.61,6.34
		c2.09,0,4.21-0.83,5.66-2.32l1.37,1.86c-1.82,1.82-4.29,2.81-7.29,2.81C906.11,89.5,902.2,85.59,902.2,79.86z M911.19,72.6
		c-3.91,0-5.85,3.3-6,6.11h12.04C917.19,75.98,915.37,72.6,911.19,72.6z"/>
</g>
<path class="st27" d="M728.25,87.2h-30.61c-0.86,0-1.56-0.7-1.56-1.56c0-0.86,0.7-1.56,1.56-1.56h29.4l5.93-23.36h-41.06
	c-0.58,0-1.12-0.33-1.39-0.85l-2.81-5.47h-4.68c-0.86,0-1.56-0.7-1.56-1.56c0-0.86,0.7-1.56,1.56-1.56h5.64
	c0.58,0,1.12,0.33,1.39,0.85l2.81,5.47h42.11c0.48,0,0.94,0.22,1.23,0.6c0.3,0.38,0.4,0.87,0.28,1.34l-6.72,26.47
	C729.58,86.72,728.96,87.2,728.25,87.2z M693.75,85.64c0-0.86-0.7-1.56-1.56-1.56h-1.64c-0.86,0-1.56,0.7-1.56,1.56
	c0,0.86,0.7,1.56,1.56,1.56h1.64C693.05,87.2,693.75,86.5,693.75,85.64z M726.43,72.4c0-0.86-0.7-1.56-1.56-1.56h-7.71
	c-0.86,0-1.56,0.7-1.56,1.56s0.7,1.56,1.56,1.56h7.71C725.73,73.96,726.43,73.26,726.43,72.4z M712.54,72.4
	c0-0.86-0.7-1.56-1.56-1.56h-21.66c-0.86,0-1.56,0.7-1.56,1.56s0.7,1.56,1.56,1.56h21.66C711.84,73.96,712.54,73.26,712.54,72.4z
	 M701.81,79.02c0-0.86-0.7-1.56-1.56-1.56h-3.22c-0.86,0-1.56,0.7-1.56,1.56c0,0.86,0.7,1.56,1.56,1.56h3.22
	C701.11,80.58,701.81,79.88,701.81,79.02z M724.75,79.02c0-0.86-0.7-1.56-1.56-1.56h-17c-0.86,0-1.56,0.7-1.56,1.56
	c0,0.86,0.7,1.56,1.56,1.56h17C724.05,80.58,724.75,79.88,724.75,79.02z M692.52,79.02c0-0.86-0.7-1.56-1.56-1.56h-7.69
	c-0.86,0-1.56,0.7-1.56,1.56c0,0.86,0.7,1.56,1.56,1.56h7.69C691.83,80.58,692.52,79.88,692.52,79.02z M678.51,52.85
	c0-0.86-0.7-1.56-1.56-1.56h-4.55c-0.86,0-1.56,0.7-1.56,1.56c0,0.86,0.7,1.56,1.56,1.56h4.55
	C677.82,54.41,678.51,53.71,678.51,52.85z M728.1,65.78c0-0.86-0.7-1.56-1.56-1.56h-23.16c-0.86,0-1.56,0.7-1.56,1.56
	c0,0.86,0.7,1.56,1.56,1.56h23.16C727.41,67.34,728.1,66.64,728.1,65.78z M698.54,65.78c0-0.86-0.7-1.56-1.56-1.56h-12.25
	c-0.86,0-1.56,0.7-1.56,1.56c0,0.86,0.7,1.56,1.56,1.56h12.25C697.84,67.34,698.54,66.64,698.54,65.78z M697.89,90.28
	c-2.34,0-4.24,1.9-4.24,4.24c0,2.34,1.9,4.24,4.24,4.24s4.24-1.9,4.24-4.24C702.13,92.18,700.23,90.28,697.89,90.28z M719.79,90.28
	c-2.34,0-4.24,1.9-4.24,4.24c0,2.34,1.9,4.24,4.24,4.24c2.34,0,4.24-1.9,4.24-4.24C724.02,92.18,722.13,90.28,719.79,90.28z"/>
<rect class="st2" width="274.29" height="970.07"/>
<rect y="226.85" class="st8" width="274.29" height="64"/>
<g>
	<path class="st17" d="M245.63,249.19c7.46,0,13.5,6.04,13.5,13.5c0,2.47-0.67,4.79-1.83,6.79c-0.26,0.45-0.76,0.71-1.29,0.71
		h-20.77c-0.52,0-1.02-0.26-1.29-0.71c-1.16-1.99-1.83-4.31-1.83-6.79C232.13,255.23,238.17,249.19,245.63,249.19z M235.68,267.94
		h19.9c0.85-1.61,1.3-3.42,1.3-5.25c0-6.2-5.05-11.25-11.25-11.25s-11.25,5.05-11.25,11.25
		C234.38,264.52,234.83,266.33,235.68,267.94z M239.63,262.69c0,0.83-0.67,1.5-1.5,1.5s-1.5-0.67-1.5-1.5s0.67-1.5,1.5-1.5
		S239.63,261.86,239.63,262.69z M238.88,257.44c0-0.83,0.67-1.5,1.5-1.5s1.5,0.67,1.5,1.5s-0.67,1.5-1.5,1.5
		S238.88,258.27,238.88,257.44z M245.63,261.19c0.28,0,0.55,0.05,0.81,0.13l3.55-4.57c0.38-0.49,1.08-0.58,1.58-0.2
		c0.49,0.38,0.58,1.09,0.2,1.58l-3.55,4.57c0.26,0.44,0.41,0.95,0.41,1.49c0,0.55-0.16,1.06-0.42,1.5h-5.17
		c-0.26-0.44-0.42-0.95-0.42-1.5C242.63,262.53,243.97,261.19,245.63,261.19z M245.63,256.69c-0.83,0-1.5-0.67-1.5-1.5
		s0.67-1.5,1.5-1.5s1.5,0.67,1.5,1.5S246.46,256.69,245.63,256.69z M253.13,261.19c0.83,0,1.5,0.67,1.5,1.5s-0.67,1.5-1.5,1.5
		s-1.5-0.67-1.5-1.5S252.3,261.19,253.13,261.19z"/>
</g>
<g>
	<path class="st28" d="M257.7,315.9l-2.12,9.75c-0.11,0.52-0.57,0.89-1.1,0.89h-14.64l0.44,2.25h13.23c0.72,0,1.25,0.66,1.1,1.36
		l-0.05,0.22c0.57,0.55,0.92,1.31,0.92,2.16c0,1.66-1.34,3-3,3s-3-1.34-3-3v0c0-0.44,0.18-1.11,0.4-1.5h-6.8
		c0.22,0.38,0.4,1.05,0.4,1.5v0c0,1.66-1.34,3-3,3s-3-1.34-3-3c0-0.81,0.32-1.54,0.84-2.08l-3.26-16.67h-3.76
		c-0.31,0-0.56-0.25-0.56-0.56v-1.13c0-0.31,0.25-0.56,0.56-0.56h4.69c0.54,0,1,0.38,1.1,0.91l0.41,2.09h19.11
		C257.32,314.54,257.85,315.2,257.7,315.9z M255.2,316.79h-17.28l1.47,7.5h14.18L255.2,316.79z M241.6,332.54
		c0-0.62-0.5-1.13-1.13-1.13s-1.13,0.5-1.13,1.13s0.5,1.13,1.13,1.13S241.6,333.16,241.6,332.54z M253.6,332.54
		c0-0.62-0.5-1.13-1.13-1.13s-1.13,0.5-1.13,1.13s0.5,1.13,1.13,1.13S253.6,333.16,253.6,332.54z"/>
</g>
<g>
	<g>
		<path class="st28" d="M236.27,389.39c-0.18-0.07-0.37-0.12-0.58-0.12h-1.13c-0.93,0-1.69,0.76-1.69,1.69
			c0,0.62-0.51,1.13-1.13,1.13s-1.13-0.51-1.13-1.13c0-2.17,1.77-3.94,3.94-3.94h1.13c0.81,0,1.57,0.25,2.19,0.67
			C237.26,388.17,236.71,388.74,236.27,389.39z M231.38,381.77c0-2.07,1.68-3.75,3.75-3.75s3.75,1.68,3.75,3.75
			s-1.68,3.75-3.75,3.75S231.38,383.85,231.38,381.77z M233.63,381.77c0,0.83,0.67,1.5,1.5,1.5s1.5-0.67,1.5-1.5s-0.67-1.5-1.5-1.5
			S233.63,380.95,233.63,381.77z M254.62,393.17v2.1c0,1.24-1.01,2.25-2.25,2.25h-13.5c-1.24,0-2.25-1.01-2.25-2.25v-2.1
			c0-1.12,0.34-2.15,0.92-3.01c1.29-1.92,3.78-2.63,5.99-1.95c0.67,0.2,1.36,0.31,2.1,0.31c0.73,0,1.43-0.11,2.1-0.31
			c2.21-0.67,4.7,0.04,5.99,1.95C254.3,391.02,254.63,392.06,254.62,393.17z M252.38,393.17c0-1.71-1.37-3.1-3.07-3.15
			c-1.2,0.5-2.43,0.75-3.68,0.75s-2.49-0.25-3.68-0.75c-1.7,0.05-3.07,1.44-3.07,3.15v2.1h13.5V393.17z M240.38,381.77
			c0-2.9,2.35-5.25,5.25-5.25s5.25,2.35,5.25,5.25s-2.35,5.25-5.25,5.25S240.38,384.68,240.38,381.77z M242.63,381.77
			c0,1.65,1.35,3,3,3s3-1.35,3-3s-1.35-3-3-3S242.63,380.12,242.63,381.77z M252.38,381.77c0-2.07,1.68-3.75,3.75-3.75
			s3.75,1.68,3.75,3.75s-1.68,3.75-3.75,3.75S252.38,383.85,252.38,381.77z M260.63,390.96c0,0.62-0.51,1.13-1.13,1.13
			c-0.62,0-1.13-0.51-1.13-1.13c0-0.93-0.76-1.69-1.69-1.69h-1.13c-0.2,0-0.39,0.05-0.58,0.12c-0.43-0.66-0.98-1.22-1.61-1.7
			c0.63-0.42,1.38-0.67,2.19-0.67h1.13C258.87,387.02,260.63,388.79,260.63,390.96z M254.63,381.77c0,0.83,0.67,1.5,1.5,1.5
			s1.5-0.67,1.5-1.5s-0.67-1.5-1.5-1.5S254.63,380.95,254.63,381.77z"/>
	</g>
</g>
<g>
	<path class="st28" d="M244.92,441.18l9.75,3.66c0.88,0.33,1.46,1.17,1.46,2.1v10.55c0,0.85-0.48,1.63-1.24,2.01l-9.75,4.88
		c-0.63,0.32-1.38,0.32-2.01,0l-9.75-4.88c-0.76-0.38-1.24-1.16-1.24-2.01v-10.55c0-0.94,0.58-1.78,1.46-2.11l9.75-3.66
		C243.85,440.99,244.41,440.99,244.92,441.18z M234.38,446.95v0.01l9.75,3.96l9.75-3.96v-0.01l-9.75-3.66L234.38,446.95z
		 M234.38,457.5l8.63,4.31v-8.92l-8.63-3.51V457.5z M253.88,457.49v-8.1l-8.63,3.51v8.91L253.88,457.49z"/>
</g>
<g>
	<path class="st28" d="M256.88,515.97h-4.88v3.38h2.63c0.83,0,1.5,0.67,1.5,1.5v4.5c0,0.83-0.67,1.5-1.5,1.5h-7.5
		c-0.83,0-1.5-0.67-1.5-1.5v-4.5c0-0.83,0.67-1.5,1.5-1.5h2.63v-3.38h-14.25v3.38h2.63c0.83,0,1.5,0.67,1.5,1.5v4.5
		c0,0.83-0.67,1.5-1.5,1.5h-7.5c-0.83,0-1.5-0.67-1.5-1.5v-4.5c0-0.83,0.67-1.5,1.5-1.5h2.63v-3.38h-4.88
		c-0.41,0-0.75-0.34-0.75-0.75v-0.75c0-0.41,0.34-0.75,0.75-0.75h13.13v-3.37h-3.38c-0.83,0-1.5-0.67-1.5-1.5v-4.5
		c0-0.83,0.67-1.5,1.5-1.5h9c0.83,0,1.5,0.67,1.5,1.5v4.5c0,0.83-0.67,1.5-1.5,1.5h-3.38v3.37h13.13c0.41,0,0.75,0.34,0.75,0.75
		v0.75C257.63,515.63,257.29,515.97,256.88,515.97z M231.38,521.6v3h6v-3H231.38z M238.88,508.1h7.5v-3h-7.5V508.1z M247.88,521.6v3
		h6v-3H247.88z"/>
</g>
<g>
	<path class="st28" d="M257.26,569.1v15c0,1.24-1.01,2.25-2.25,2.25h-2.25v2.25c0,1.24-1.01,2.25-2.25,2.25h-15
		c-1.24,0-2.25-1.01-2.25-2.25v-15c0-1.24,1.01-2.25,2.25-2.25h2.25v-2.25c0-1.24,1.01-2.25,2.25-2.25h15
		C256.25,566.85,257.26,567.85,257.26,569.1z M250.51,578.85h-15v9.75h15V578.85z M255.01,569.1h-15v2.25h10.5
		c1.24,0,2.25,1.01,2.25,2.25v10.5h2.25V569.1z"/>
</g>
<g>
	<path class="st28" d="M253.23,652.6c0,1.24-1.01,2.25-2.25,2.25h-13.5c-1.24,0-2.25-1.01-2.25-2.25v-19.5
		c0-1.24,1.01-2.25,2.25-2.25h9.57c0.6,0,1.17,0.24,1.59,0.66l3.93,3.93c0.42,0.42,0.66,0.99,0.66,1.59V652.6z M250.98,639.1h-4.88
		c-0.62,0-1.13-0.5-1.13-1.13v-4.88h-7.5v19.5h13.5V639.1z M248.73,643.78c0,0.31-0.25,0.56-0.56,0.56h-7.88
		c-0.31,0-0.56-0.25-0.56-0.56v-1.31c0-0.31,0.25-0.56,0.56-0.56h7.88c0.31,0,0.56,0.25,0.56,0.56V643.78z M248.73,646.41v1.31
		c0,0.31-0.25,0.56-0.56,0.56h-7.88c-0.31,0-0.56-0.25-0.56-0.56v-1.31c0-0.31,0.25-0.56,0.56-0.56h7.88
		C248.47,645.85,248.73,646.1,248.73,646.41z M247.23,636.85h3.57l-3.57-3.57V636.85z"/>
</g>
<g>
	<path class="st28" d="M256.51,703.85c0,0.2-0.07,0.51-0.16,0.68c-2.54,4.96-7.57,8.32-13.34,8.32s-10.79-3.36-13.34-8.32
		c-0.09-0.18-0.16-0.48-0.16-0.68c0-0.2,0.07-0.51,0.16-0.68c2.54-4.96,7.57-8.32,13.34-8.32s10.79,3.36,13.34,8.32
		C256.43,703.34,256.51,703.65,256.51,703.85z M254.16,703.85c-2.29-4.17-6.53-6.75-11.15-6.75s-8.86,2.58-11.15,6.75
		c2.29,4.17,6.53,6.75,11.15,6.75C247.63,710.6,251.87,708.02,254.16,703.85z M243.02,698.6c2.89,0,5.24,2.35,5.24,5.24
		s-2.35,5.24-5.24,5.24c-2.89,0-5.24-2.35-5.24-5.24c0-0.41,0.09-1.06,0.21-1.45c0.32,0.19,0.89,0.34,1.27,0.34
		c1.45,0,2.63-1.18,2.63-2.63c0-0.37-0.15-0.94-0.34-1.27c0.4-0.12,1.05-0.23,1.46-0.23C243.01,698.6,243.02,698.6,243.02,698.6z"/>
</g>
<g>
	<path class="st28" d="M255.1,768.41v1.13c0,0.31-0.25,0.56-0.56,0.56h-0.88l-1.29,9.31c-0.15,1.11-1.11,1.94-2.23,1.94h-17.08
		c-1.12,0-2.07-0.83-2.23-1.94l-1.29-9.31h-0.88c-0.31,0-0.56-0.25-0.56-0.56v-1.13c0-0.31,0.25-0.56,0.56-0.56h3.42l6.04-7.1
		c0.4-0.47,1.11-0.53,1.59-0.13c0.47,0.4,0.53,1.11,0.13,1.59l-4.8,5.65h13.13l-4.8-5.65c-0.4-0.47-0.35-1.18,0.13-1.59
		c0.47-0.4,1.18-0.34,1.59,0.13l6.04,7.1h3.42C254.85,767.85,255.1,768.1,255.1,768.41z M251.39,770.1h-19.58l1.25,9h17.08
		L251.39,770.1z M237.48,776.47c0,0.62-0.5,1.13-1.13,1.13s-1.13-0.5-1.13-1.13v-3.75c0-0.62,0.5-1.13,1.13-1.13s1.13,0.5,1.13,1.13
		V776.47z M242.73,776.47c0,0.62-0.5,1.13-1.13,1.13s-1.13-0.5-1.13-1.13v-3.75c0-0.62,0.5-1.13,1.13-1.13s1.13,0.5,1.13,1.13
		V776.47z M247.98,776.47c0,0.62-0.5,1.13-1.13,1.13s-1.13-0.5-1.13-1.13v-3.75c0-0.62,0.5-1.13,1.13-1.13s1.13,0.5,1.13,1.13
		V776.47z"/>
</g>
<g>
	<path class="st28" d="M252.05,845.69v1.58c0,0.62-0.5,1.13-1.13,1.13s-1.13-0.5-1.13-1.13v-1.58c0-2.23-1.82-4.05-4.05-4.05h-0.61
		c-1.1,0.48-2.32,0.75-3.59,0.75s-2.49-0.27-3.59-0.75h-0.61c-2.23,0-4.05,1.82-4.05,4.05v1.58c0,0.62-0.5,1.13-1.13,1.13
		s-1.13-0.5-1.13-1.13v-1.58c0-2.73,1.75-5.02,4.19-5.89c-0.96-0.95-1.71-2.11-2.17-3.41h-0.52c-0.41,0-0.75-0.34-0.75-0.75v-4.5
		c0-0.41,0.34-0.75,0.75-0.75h0.52c1.23-3.49,4.56-6,8.48-6s7.24,2.51,8.48,6h0.52c0.41,0,0.75,0.34,0.75,0.75v4.5
		c0,0.41-0.34,0.75-0.75,0.75h-0.52c-0.46,1.3-1.2,2.47-2.17,3.41C250.3,840.67,252.05,842.96,252.05,845.69z M248.3,833.39
		c0-3.72-3.03-6.75-6.75-6.75s-6.75,3.03-6.75,6.75s3.03,6.75,6.75,6.75S248.3,837.11,248.3,833.39z M246.8,832.64v0.75
		c0,2.48-2.02,4.5-4.5,4.5h-1.5c-2.48,0-4.5-2.02-4.5-4.5v-0.75c0-1.24,1.01-2.25,2.25-2.25h6
		C245.8,830.39,246.8,831.4,246.8,832.64z M246.8,845.39v3h-6.75v-2.25c0-0.41-0.34-0.75-0.75-0.75s-0.75,0.34-0.75,0.75v2.25h-2.25
		v-3c0-0.83,0.67-1.5,1.5-1.5h7.5C246.13,843.89,246.8,844.56,246.8,845.39z M242.3,834.14l-1.69-0.56l-0.56-1.69l-0.56,1.69
		l-1.69,0.56l1.69,0.56l0.56,1.69l0.56-1.69L242.3,834.14z M244.55,846.14c0-0.41-0.34-0.75-0.75-0.75s-0.75,0.34-0.75,0.75
		s0.34,0.75,0.75,0.75S244.55,846.55,244.55,846.14z"/>
</g>
<g>
	<path class="st29" d="M31.09,182.86c0.31,0,0.56,0.25,0.56,0.56v1.13c0,0.31-0.25,0.56-0.56,0.56h-3.94
		c-1.24,0-2.25,1.01-2.25,2.25v9c0,1.24,1.01,2.25,2.25,2.25h3.94c0.31,0,0.56,0.25,0.56,0.56v1.13c0,0.31-0.25,0.56-0.56,0.56
		h-3.94c-2.48,0-4.5-2.02-4.5-4.5v-9c0-2.48,2.02-4.5,4.5-4.5H31.09z M38.78,183.76l7.71,7.69c0.22,0.22,0.22,0.58,0,0.8l-7.71,7.69
		c-0.22,0.22-0.58,0.22-0.8,0l-0.92-0.92c-0.22-0.22-0.22-0.58,0.01-0.8l5.3-5.14H30.71c-0.31,0-0.56-0.25-0.56-0.56v-1.31
		c0-0.31,0.25-0.56,0.56-0.56h11.66l-5.3-5.15c-0.23-0.22-0.23-0.58-0.01-0.8l0.92-0.92C38.2,183.55,38.56,183.55,38.78,183.76z"/>
</g>
<g>
	<path class="st29" d="M98.67,191.86c0,6.42-5.21,11.63-11.63,11.63s-11.63-5.2-11.63-11.63c0-6.42,5.21-11.63,11.63-11.63
		S98.67,185.44,98.67,191.86z M96.42,191.86c0-5.18-4.2-9.38-9.38-9.38c-5.18,0-9.38,4.2-9.38,9.38c0,5.18,4.19,9.38,9.38,9.38
		C92.23,201.23,96.42,197.04,96.42,191.86z M88.68,193.62v0.3c0,0.31-0.25,0.56-0.56,0.56h-2.14c-0.31,0-0.56-0.25-0.56-0.56v-0.41
		c0-1.67,1.27-2.34,2.23-2.88c0.82-0.46,1.33-0.78,1.33-1.39c0-0.81-1.03-1.34-1.87-1.34c-1.09,0-1.59,0.51-2.29,1.4
		c-0.19,0.24-0.54,0.28-0.78,0.1l-1.3-0.99c-0.24-0.18-0.29-0.52-0.12-0.77c1.11-1.63,2.52-2.54,4.71-2.54c2.3,0,4.76,1.8,4.76,4.16
		C92.07,192.41,88.68,192.46,88.68,193.62z M87.04,199.07c-1.09,0-1.97-0.88-1.97-1.97s0.88-1.97,1.97-1.97s1.97,0.88,1.97,1.97
		S88.13,199.07,87.04,199.07z"/>
</g>
<g>
	<path class="st29" d="M142.72,203.86h-16.03c-1.24,0-2.25-1.01-2.25-2.25v-1.2c0-3.48,2.82-6.3,6.3-6.3c1.35,0,1.99,0.75,4.2,0.75
		c2.12,0,2.7-0.67,4.04-0.73c-0.29,1.14-0.29,1.96-0.29,2.31c-0.47,0.12-1.76,0.67-3.75,0.67c-2.4,0-3.52-0.75-4.2-0.75
		c-2.23,0-4.05,1.82-4.05,4.05v1.2h13.7C141.02,202.49,141.81,203.25,142.72,203.86z M128.19,186.61c0-3.73,3.02-6.75,6.75-6.75
		s6.75,3.02,6.75,6.75s-3.02,6.75-6.75,6.75S128.19,190.33,128.19,186.61z M130.44,186.61c0,2.48,2.02,4.5,4.5,4.5s4.5-2.02,4.5-4.5
		s-2.02-4.5-4.5-4.5S130.44,184.13,130.44,186.61z M154.27,198.05c0.14,0.08,0.2,0.24,0.15,0.4c-0.31,1.01-0.85,1.93-1.56,2.69
		c-0.11,0.12-0.29,0.15-0.42,0.07l-1.21-0.7c-0.51,0.44-1.1,0.77-1.73,1v1.4c0,0.16-0.11,0.3-0.27,0.33c-0.99,0.23-2.06,0.23-3.1,0
		c-0.15-0.03-0.27-0.17-0.27-0.33v-1.4c-0.63-0.22-1.22-0.56-1.73-1l-1.21,0.7c-0.14,0.08-0.31,0.05-0.42-0.07
		c-0.7-0.76-1.24-1.68-1.56-2.69c-0.05-0.16,0.01-0.32,0.15-0.4l1.21-0.7c-0.12-0.66-0.12-1.34,0-2l-1.21-0.7
		c-0.14-0.08-0.2-0.24-0.15-0.4c0.31-1.01,0.85-1.93,1.56-2.69c0.11-0.12,0.29-0.15,0.42-0.07l1.21,0.7c0.51-0.44,1.1-0.77,1.73-1
		v-1.4c0-0.16,0.11-0.3,0.27-0.33c0.99-0.23,2.06-0.23,3.1,0c0.15,0.03,0.27,0.17,0.27,0.33v1.4c0.63,0.22,1.22,0.56,1.73,1
		l1.21-0.7c0.14-0.08,0.31-0.05,0.42,0.07c0.7,0.76,1.24,1.68,1.56,2.69c0.05,0.16-0.01,0.32-0.15,0.4l-1.21,0.7
		c0.12,0.66,0.12,1.34,0,2L154.27,198.05z M149.96,196.36c0-1.25-1.02-2.27-2.27-2.27s-2.27,1.02-2.27,2.27s1.02,2.27,2.27,2.27
		S149.96,197.61,149.96,196.36z"/>
</g>
<g>
	<path class="st29" d="M205.33,191.11c0,1.11-0.61,2.06-1.5,2.58v7.17c0,0.43-0.33,1.5-1.5,1.5c-0.29,0-0.71-0.15-0.94-0.33
		l-3.99-3.19c-2-1.6-4.52-2.48-7.08-2.48h-1.32c-0.13,0.48-0.21,0.98-0.21,1.5c0,1.36,0.46,2.62,1.23,3.63
		c0.74,0.97,0.01,2.37-1.21,2.37h-4.98c-0.56,0-1.09-0.3-1.33-0.8c-0.76-1.57-1.2-3.34-1.2-5.2l0.02-1.5c-1.66,0-3-1.34-3-3v-4.5
		c0-1.66,1.34-3,3-3h9c2.56,0,5.08-0.88,7.08-2.48l3.99-3.19c0.27-0.22,0.6-0.33,0.94-0.33h0c1.17,0,1.5,1.09,1.5,1.5v7.17
		C204.72,189.04,205.33,190,205.33,191.11z M189.58,188.11h-8.25c-0.41,0-0.75,0.34-0.75,0.75v4.5c0,0.41,0.34,0.75,0.75,0.75h8.25
		V188.11z M187.46,201.61c-0.59-1.15-0.9-2.43-0.9-3.75c0-0.5,0.07-1,0.17-1.5h-3.04c-0.04,0.31-0.12,0.83-0.12,1.5
		c0,1.3,0.26,2.56,0.76,3.75H187.46z M201.58,182.92l-2.77,2.21c-2.01,1.6-4.44,2.6-6.98,2.88v6.19c2.54,0.29,4.98,1.28,6.98,2.88
		l2.77,2.21V182.92z"/>
</g>
<g>
	<path class="st29" d="M256.22,191.55v10.66c0,0.91-0.67,1.65-1.5,1.65h-21c-0.83,0-1.5-0.74-1.5-1.65v-10.66
		c-2.25-0.95-3.17-3.92-1.78-6.13l3.04-4.86c0.27-0.44,0.75-0.7,1.27-0.7h18.94c0.52,0,1,0.27,1.27,0.7l3.04,4.86
		C259.39,187.63,258.47,190.6,256.22,191.55z M256.1,186.61l-2.82-4.5h-18.11l-2.82,4.5c-0.44,0.7-0.34,1.49-0.11,2
		c0.15,0.32,0.52,0.87,1.27,0.97c0.11,0.01,0.22,0.02,0.34,0.02c0.68,0,1.32-0.29,1.79-0.81l1.67-1.87l1.68,1.87
		c0.46,0.52,1.1,0.81,1.79,0.81c0.68,0,1.32-0.29,1.79-0.81l1.67-1.87l1.68,1.87c0.46,0.52,1.1,0.81,1.79,0.81
		c0.68,0,1.32-0.29,1.79-0.81l1.67-1.87l1.67,1.87c0.46,0.52,1.1,0.81,1.79,0.81c0.11,0,0.23-0.01,0.34-0.02
		c0.75-0.1,1.12-0.66,1.27-0.98C256.45,188.11,256.54,187.32,256.1,186.61z M253.97,191.81c-1.13-0.16-2.11-0.71-2.83-1.51
		c-0.84,0.94-2.07,1.55-3.46,1.55c-1.38,0-2.62-0.61-3.46-1.55c-0.84,0.94-2.07,1.55-3.46,1.55c-1.38,0-2.62-0.61-3.46-1.55
		c-0.71,0.8-1.7,1.35-2.83,1.51v3.03h19.49V191.81z M253.97,197.11h-19.5v4.5h19.5V197.11z"/>
</g>
<line class="st30" x1="0" y1="162.85" x2="274.29" y2="162.85"/>
<line class="st30" x1="0" y1="226.85" x2="274.29" y2="226.85"/>
<line class="st30" x1="0" y1="290.85" x2="274.29" y2="290.85"/>
<line class="st30" x1="0" y1="354.85" x2="274.29" y2="354.85"/>
<line class="st30" x1="0" y1="418.85" x2="274.29" y2="418.85"/>
<line class="st30" x1="0" y1="482.85" x2="274.29" y2="482.85"/>
<line class="st30" x1="0" y1="546.85" x2="274.29" y2="546.85"/>
<line class="st30" x1="0" y1="610.85" x2="274.29" y2="610.85"/>
<line class="st30" x1="0" y1="674.85" x2="274.29" y2="674.85"/>
<line class="st30" x1="0" y1="738.85" x2="274.29" y2="738.85"/>
<line class="st30" x1="0" y1="802.85" x2="274.29" y2="802.85"/>
<line class="st30" x1="0" y1="866.96" x2="274.29" y2="866.96"/>
<line class="st30" x1="0" y1="931.07" x2="274.29" y2="931.07"/>
<path class="st28" d="M150.16,271.61H32.27c-5.57,0-10.08-4.51-10.08-10.08l0,0c0-5.57,4.51-10.08,10.08-10.08h117.88
	c5.57,0,10.08,4.51,10.08,10.08l0,0C160.24,267.09,155.73,271.61,150.16,271.61z"/>
<path class="st28" d="M195.37,135.44H77.49c-5.57,0-10.08-4.51-10.08-10.08v0c0-5.57,4.51-10.08,10.08-10.08h117.88
	c5.57,0,10.08,4.51,10.08,10.08v0C205.46,130.92,200.94,135.44,195.37,135.44z"/>
<path class="st28" d="M135.33,334.37H32.27c-5.57,0-10.08-4.51-10.08-10.08l0,0c0-5.57,4.51-10.08,10.08-10.08h103.06
	c5.57,0,10.08,4.51,10.08,10.08l0,0C145.42,329.86,140.9,334.37,135.33,334.37z"/>
<path class="st28" d="M144.43,398.04H32.27c-5.57,0-10.08-4.51-10.08-10.08v0c0-5.57,4.51-10.08,10.08-10.08h112.16
	c5.57,0,10.08,4.51,10.08,10.08v0C154.51,393.53,150,398.04,144.43,398.04z"/>
<path class="st28" d="M132.24,462.91H32.27c-5.57,0-10.08-4.51-10.08-10.08l0,0c0-5.57,4.51-10.08,10.08-10.08h99.97
	c5.57,0,10.08,4.51,10.08,10.08l0,0C142.32,458.4,137.81,462.91,132.24,462.91z"/>
<path class="st28" d="M132.24,652.93H32.27c-5.57,0-10.08-4.51-10.08-10.08v0c0-5.57,4.51-10.08,10.08-10.08h99.97
	c5.57,0,10.08,4.51,10.08,10.08v0C142.32,648.41,137.81,652.93,132.24,652.93z"/>
<path class="st28" d="M144.43,526.76H32.27c-5.57,0-10.08-4.51-10.08-10.08v0c0-5.57,4.51-10.08,10.08-10.08h112.16
	c5.57,0,10.08,4.51,10.08,10.08v0C154.51,522.25,150,526.76,144.43,526.76z"/>
<path class="st28" d="M158.65,588.93H32.27c-5.57,0-10.08-4.51-10.08-10.08v0c0-5.57,4.51-10.08,10.08-10.08h126.38
	c5.57,0,10.08,4.51,10.08,10.08v0C168.73,584.41,164.22,588.93,158.65,588.93z"/>
<path class="st28" d="M132.24,716.93H32.27c-5.57,0-10.08-4.51-10.08-10.08v0c0-5.57,4.51-10.08,10.08-10.08h99.97
	c5.57,0,10.08,4.51,10.08,10.08v0C142.32,712.41,137.81,716.93,132.24,716.93z"/>
<path class="st28" d="M132.24,844.93H32.27c-5.57,0-10.08-4.51-10.08-10.08v0c0-5.57,4.51-10.08,10.08-10.08h99.97
	c5.57,0,10.08,4.51,10.08,10.08v0C142.32,840.41,137.81,844.93,132.24,844.93z"/>
<path class="st28" d="M104.12,910.62H30.95c-4.84,0-8.76-3.92-8.76-8.76v-2.64c0-4.84,3.92-8.76,8.76-8.76h73.17
	c4.84,0,8.76,3.92,8.76,8.76v2.64C112.88,906.7,108.96,910.62,104.12,910.62z"/>
<path class="st28" d="M149.08,780.93H32.27c-5.57,0-10.08-4.51-10.08-10.08v0c0-5.57,4.51-10.08,10.08-10.08h116.81
	c5.57,0,10.08,4.51,10.08,10.08v0C159.16,776.41,154.65,780.93,149.08,780.93z"/>
<g>
	<path class="st27" d="M49.77,79.06c-1.31,0.89-2.76,1.65-4.25,2.17c-1.6,0.52-3.24,0.8-4.93,0.8c-2.27,0.05-4.54-0.47-6.57-1.46
		c-1.93-0.94-3.67-2.21-5.12-3.81c-1.45-1.6-2.56-3.44-3.29-5.42c-0.77-2.02-1.16-4.14-1.16-6.26c0-2.21,0.44-4.38,1.21-6.4
		c0.77-1.98,1.93-3.81,3.43-5.42c1.45-1.55,3.19-2.83,5.12-3.72c2.03-0.94,4.21-1.41,6.43-1.37c2.27-0.05,4.54,0.47,6.57,1.51
		c1.93,0.94,3.67,2.26,5.08,3.91c1.4,1.6,2.51,3.44,3.29,5.46c0.77,1.98,1.16,4.1,1.16,6.17c0,2.21-0.39,4.38-1.26,6.45
		c-0.77,1.98-1.93,3.81-3.38,5.42l4.35,4.71h-4.25L49.77,79.06z M40.63,78.22c1.21,0,2.42-0.19,3.53-0.57
		c1.06-0.38,2.08-0.89,3-1.55l-4.59-5.23h4.25l2.61,2.97c1.93-2.54,2.95-5.6,2.95-8.76c0-1.7-0.29-3.34-0.87-4.94
		c-0.53-1.55-1.35-2.97-2.42-4.24c-1.02-1.22-2.27-2.21-3.72-2.92c-1.45-0.75-3.09-1.08-4.74-1.08c-1.69,0-3.43,0.42-4.93,1.18
		c-1.45,0.75-2.71,1.74-3.67,3.01c-1.02,1.27-1.84,2.68-2.37,4.24c-1.11,3.15-1.11,6.59,0,9.7c0.53,1.55,1.35,2.97,2.42,4.24
		c1.02,1.22,2.27,2.21,3.72,2.92C37.3,77.89,38.94,78.26,40.63,78.22z"/>
	<path class="st27" d="M67.9,82.27c-2.66,0-4.64-0.85-5.99-2.59c-1.35-1.74-2.03-4.28-2.03-7.72V57.21h4.25v13.94
		c0,5.04,1.79,7.53,5.37,7.53c1.79,0,3.48-0.57,4.88-1.6c1.55-1.13,2.76-2.68,3.43-4.47v-15.4h4.25v19.49
		c0,0.99,0.44,1.46,1.35,1.51v3.58c-0.48,0.05-0.87,0.09-1.11,0.14c-0.24,0.05-0.53,0-0.82,0c-0.77,0.05-1.5-0.24-2.08-0.75
		c-0.53-0.47-0.87-1.13-0.87-1.79l-0.1-2.87c-1.06,1.79-2.61,3.25-4.45,4.24C72.1,81.75,70.02,82.27,67.9,82.27z"/>
	<path class="st27" d="M87.23,52.6v-5.18h4.25v5.18H87.23z M87.23,81.79V57.21h4.25v24.58H87.23z"/>
	<path class="st27" d="M94.72,69.46c0-1.7,0.29-3.34,0.92-4.9c0.58-1.51,1.45-2.87,2.61-4c1.16-1.18,2.51-2.07,4.06-2.73
		c1.64-0.71,3.43-1.04,5.27-1.04c2.27-0.05,4.54,0.52,6.48,1.65c1.79,1.04,3.19,2.54,4.16,4.33l-4.16,1.27
		c-0.63-1.13-1.55-2.07-2.71-2.73c-1.16-0.66-2.51-0.99-3.87-0.94c-2.27,0-4.45,0.94-5.95,2.59c-0.77,0.85-1.35,1.84-1.74,2.87
		c-0.44,1.18-0.68,2.4-0.68,3.63c0,1.22,0.24,2.45,0.68,3.63c0.44,1.08,1.02,2.07,1.84,2.97c0.73,0.8,1.64,1.51,2.66,1.98
		s2.13,0.71,3.29,0.71c0.73,0,1.5-0.09,2.22-0.33c0.68-0.19,1.35-0.47,1.98-0.85c0.58-0.33,1.11-0.75,1.59-1.18
		c0.44-0.42,0.77-0.94,0.97-1.51l4.16,1.22c-0.39,0.89-0.92,1.74-1.59,2.5c-0.68,0.75-1.5,1.41-2.42,1.93
		c-0.97,0.57-2.03,0.99-3.09,1.27c-1.21,0.33-2.42,0.47-3.67,0.47c-3.48,0.05-6.86-1.32-9.28-3.81c-1.16-1.18-2.03-2.54-2.61-4.1
		C95.01,72.8,94.72,71.15,94.72,69.46z"/>
	<path class="st27" d="M139.05,81.79l-8.7-12.01l-4.83,4.43v7.58h-4.25V47.42h4.25v22.6l12.95-12.76h4.69L133.1,67.43l10.54,14.36
		H139.05z"/>
	<path class="st29" d="M158.33,82.27c-1.89,0-3.72-0.47-5.37-1.41c-1.55-0.89-2.9-2.17-3.82-3.67v4.61h-3.77V47.42h4.25v14.69
		c1.02-1.55,2.32-2.87,3.92-3.86c3.09-1.79,6.91-1.93,10.1-0.38c1.35,0.71,2.56,1.7,3.58,2.83c1.02,1.22,1.79,2.59,2.27,4.1
		c0.53,1.55,0.77,3.15,0.77,4.76c0,1.7-0.29,3.34-0.92,4.9c-0.58,1.46-1.45,2.83-2.51,4.05c-1.06,1.13-2.37,2.07-3.82,2.73
		C161.57,81.94,159.98,82.27,158.33,82.27z M157.27,78.69c1.21,0,2.42-0.24,3.48-0.75c1.06-0.47,1.98-1.18,2.75-2.02
		c0.77-0.85,1.4-1.84,1.79-2.92c0.44-1.08,0.63-2.26,0.63-3.44c0-1.18-0.19-2.35-0.63-3.44c-0.39-1.08-0.97-2.07-1.69-2.97
		c-0.73-0.85-1.59-1.55-2.61-2.07c-1.02-0.52-2.17-0.8-3.38-0.75c-0.87,0-1.74,0.14-2.56,0.47c-0.82,0.33-1.55,0.75-2.22,1.22
		c-0.68,0.52-1.31,1.13-1.84,1.84c-0.53,0.71-1.02,1.41-1.4,2.21v7.11c0.15,0.8,0.53,1.55,1.02,2.17c0.53,0.66,1.16,1.22,1.89,1.74
		c0.72,0.47,1.5,0.85,2.32,1.18C155.63,78.55,156.45,78.69,157.27,78.69z"/>
	<path class="st29" d="M181.34,82.27c-2.66,0-4.64-0.85-5.99-2.59c-1.35-1.74-2.03-4.28-2.03-7.72V57.21h4.25v13.94
		c0,5.04,1.79,7.53,5.37,7.53c1.74,0,3.48-0.57,4.88-1.6c1.55-1.13,2.76-2.68,3.38-4.47v-15.4h4.25v19.49
		c0,0.99,0.44,1.46,1.35,1.51v3.58c-0.48,0.05-0.87,0.09-1.16,0.14c-0.29,0.05-0.53,0-0.77,0c-0.77,0-1.5-0.24-2.13-0.75
		c-0.53-0.47-0.87-1.13-0.92-1.79l-0.1-2.87c-1.06,1.79-2.61,3.25-4.45,4.24C185.5,81.75,183.42,82.27,181.34,82.27z"/>
	<path class="st29" d="M213.72,80.57c-0.24,0.14-0.58,0.28-1.02,0.42c-0.43,0.14-0.92,0.33-1.45,0.52
		c-0.58,0.19-1.16,0.33-1.74,0.42c-0.63,0.09-1.31,0.19-1.93,0.14c-1.45,0.05-2.85-0.42-4.01-1.27c-1.11-0.85-1.69-2.12-1.69-3.91
		V60.46h-3.43v-3.25h3.43v-8.19h4.25v8.19h5.65v3.25h-5.65v15.26c0,0.75,0.34,1.46,0.92,1.98c0.53,0.42,1.26,0.61,1.93,0.61
		c0.77,0,1.55-0.14,2.32-0.38c0.48-0.19,0.97-0.38,1.45-0.61L213.72,80.57z"/>
	<path class="st29" d="M215.75,52.6v-5.18h4.25v5.18H215.75z M215.75,81.79V57.21h4.25v24.58H215.75z"/>
	<path class="st29" d="M242.73,81.79l-8.7-12.01l-4.83,4.43v7.58h-4.25V47.42h4.25v22.6l12.95-12.76h4.69l-10.05,10.17l10.54,14.36
		H242.73z"/>
</g>
<g>
	<path class="st28" d="M253.46,905.14c-0.52,1.68-1.41,3.2-2.58,4.45c-0.18,0.2-0.47,0.24-0.7,0.11l-2.01-1.16
		c-0.85,0.72-1.82,1.28-2.86,1.65v2.32c0,0.26-0.18,0.49-0.44,0.55c-1.64,0.37-3.41,0.39-5.14,0c-0.26-0.06-0.44-0.29-0.44-0.55
		v-2.32c-1.05-0.37-2.02-0.93-2.86-1.65l-2.01,1.16c-0.23,0.13-0.52,0.08-0.7-0.11c-1.16-1.26-2.05-2.78-2.58-4.45
		c-0.08-0.25,0.03-0.53,0.26-0.66l2.01-1.16c-0.2-1.09-0.2-2.21,0-3.31l-2.01-1.16c-0.23-0.13-0.34-0.41-0.26-0.66
		c0.52-1.68,1.41-3.2,2.58-4.45c0.18-0.2,0.47-0.24,0.7-0.11l2,1.16c0.85-0.72,1.82-1.28,2.86-1.65v-2.32
		c0-0.26,0.18-0.49,0.44-0.55c1.64-0.37,3.41-0.39,5.14,0c0.26,0.06,0.44,0.29,0.44,0.55v2.31c1.05,0.37,2.02,0.93,2.86,1.65
		l2.01-1.16c0.23-0.13,0.52-0.08,0.7,0.11c1.16,1.26,2.05,2.78,2.58,4.45c0.08,0.25-0.03,0.53-0.26,0.66l-2.01,1.16
		c0.2,1.09,0.2,2.21,0,3.3l2.01,1.16C253.43,904.61,253.54,904.88,253.46,905.14z M246.07,901.67c0-2.08-1.69-3.77-3.77-3.77
		s-3.77,1.69-3.77,3.77s1.69,3.77,3.77,3.77S246.07,903.74,246.07,901.67z"/>
</g>
<g>
	<g>
		<path class="st5" d="M390.81,803.06l-3.93,3.93c-0.36,0.36-1.08,0.66-1.59,0.66h-12.57c-1.24,0-2.25-1.01-2.25-2.25v-16.5
			c0-1.24,1.01-2.25,2.25-2.25h16.5c1.24,0,2.25,1.01,2.25,2.25v12.57C391.47,801.99,391.18,802.7,390.81,803.06z M372.72,788.91
			v16.5h10.5v-4.88c0-0.62,0.5-1.13,1.13-1.13h4.88v-10.5H372.72z M389.04,801.65h-3.57v3.57L389.04,801.65z"/>
	</g>
</g>
<path class="st5" d="M553.85,845.04H374.39c-3.79,0-6.86-3.07-6.86-6.86l0,0c0-3.79,3.07-6.86,6.86-6.86h179.47
	c3.79,0,6.86,3.07,6.86,6.86l0,0C560.71,841.96,557.64,845.04,553.85,845.04z"/>
<path class="st5" d="M486.45,878.21H373.03c-3.04,0-5.51-2.47-5.51-5.51v-2.71c0-3.04,2.47-5.51,5.51-5.51h113.42
	c3.04,0,5.51,2.47,5.51,5.51v2.71C491.96,875.74,489.49,878.21,486.45,878.21z"/>
<path class="st5" d="M549.47,945.98H374.31c-3.75,0-6.78-3.04-6.78-6.78v-0.16c0-3.75,3.04-6.78,6.78-6.78h175.17
	c3.75,0,6.78,3.04,6.78,6.78v0.16C556.26,942.95,553.22,945.98,549.47,945.98z"/>
<path class="st5" d="M662.73,945.98h-96.91c-2.82,0-5.11-2.29-5.11-5.11v-3.5c0-2.82,2.29-5.11,5.11-5.11h96.91
	c2.82,0,5.11,2.29,5.11,5.11v3.5C667.84,943.7,665.56,945.98,662.73,945.98z"/>
<path class="st5" d="M750.12,910.35H636.7c-3.04,0-5.51-2.47-5.51-5.51v-2.71c0-3.04,2.47-5.51,5.51-5.51h113.42
	c3.04,0,5.51,2.47,5.51,5.51v2.71C755.63,907.89,753.16,910.35,750.12,910.35z"/>
<path class="st5" d="M615.61,910.35H374.39c-3.79,0-6.86-3.07-6.86-6.86l0,0c0-3.79,3.07-6.86,6.86-6.86h241.22
	c3.79,0,6.86,3.07,6.86,6.86l0,0C622.47,907.28,619.4,910.35,615.61,910.35z"/>
<path class="st5" d="M645.13,845.04h-65.66c-2.35,0-4.25-1.9-4.25-4.25v-5.22c0-2.35,1.9-4.25,4.25-4.25h65.66
	c2.35,0,4.25,1.9,4.25,4.25v5.22C649.38,843.13,647.48,845.04,645.13,845.04z"/>
<path class="st18" d="M1368.65,953.49H355.85c-7.33,0-13.27-5.94-13.27-13.27V786.03c0-7.33,5.94-13.27,13.27-13.27h1012.8
	c7.33,0,13.27,5.94,13.27,13.27v154.19C1381.92,947.55,1375.98,953.49,1368.65,953.49z"/>
<line class="st31" x1="342.58" y1="819.31" x2="1381.92" y2="819.31"/>
<line class="st31" x1="342.58" y1="852.79" x2="1381.92" y2="852.79"/>
<line class="st31" x1="342.58" y1="886.27" x2="1381.92" y2="886.27"/>
<line class="st31" x1="342.58" y1="920.71" x2="1381.92" y2="920.71"/>
<path class="st5" d="M441.86,804.02h-30.71c-3.79,0-6.86-3.07-6.86-6.86l0,0c0-3.79,3.07-6.86,6.86-6.86h30.71
	c3.79,0,6.86,3.07,6.86,6.86l0,0C448.72,800.94,445.65,804.02,441.86,804.02z"/>
</svg>
