<svg xmlns="http://www.w3.org/2000/svg" viewBox="0 0 84.09 28.79"><defs><style>.cls-1{fill:#101416;}.cls-2{fill:#fff;}.cls-3{fill:#6154F9;}.cls-4{fill:#41729a;}.cls-5{fill:#e8a231;}</style></defs><g id="Layer_2" data-name="Layer 2"><g id="Layer_1-2" data-name="Layer 1"><rect class="cls-1" width="28.79" height="28.79" rx="8.1"/><path class="cls-2" d="M14.45,4.16a5.52,5.52,0,0,1,5.23,5.76.67.67,0,0,1-1.34,0A4.19,4.19,0,0,0,14.45,5.5a4.19,4.19,0,0,0-3.89,4.42.67.67,0,0,1-1.34,0A5.52,5.52,0,0,1,14.45,4.16Z"/><path class="cls-3" d="M22.5,23.39H6.3a1.8,1.8,0,0,1-1.8-1.91l.91-10.79A1.79,1.79,0,0,1,7.2,9H21.59a1.8,1.8,0,0,1,1.8,1.69l.9,10.8A1.8,1.8,0,0,1,22.5,23.39Z"/><path class="cls-4" d="M14.4,18.9a5.53,5.53,0,0,1-5.23-5.77.67.67,0,0,1,1.34,0,4.2,4.2,0,0,0,3.89,4.43,4.2,4.2,0,0,0,3.89-4.43.67.67,0,0,1,1.34,0A5.53,5.53,0,0,1,14.4,18.9Z"/><circle class="cls-2" cx="18.93" cy="12.95" r="1.51"/><path class="cls-5" d="M38,11,36.64,8.59H35.56V11H34.09V4.13h3.24a2.16,2.16,0,0,1,2.33,2.23,2,2,0,0,1-1.53,2.05L39.7,11Zm.14-4.69a.93.93,0,0,0-1-.92H35.56V7.29h1.56A.93.93,0,0,0,38.14,6.35Z"/><path class="cls-5" d="M39.93,8.53a2.55,2.55,0,0,1,2.59-2.62A2.51,2.51,0,0,1,45,8.66V9H41.31a1.34,1.34,0,0,0,1.44,1.12,2.09,2.09,0,0,0,1.32-.49l.59.87a3.1,3.1,0,0,1-2.06.7A2.54,2.54,0,0,1,39.93,8.53ZM42.52,7A1.15,1.15,0,0,0,41.3,8.06h2.46A1.14,1.14,0,0,0,42.52,7Z"/><path class="cls-5" d="M45.41,10.39l.57-1a2.84,2.84,0,0,0,1.73.69c.57,0,.84-.22.84-.53,0-.82-3-.14-3-2.11,0-.84.72-1.58,2-1.58a3.16,3.16,0,0,1,2,.69l-.53.93A2.16,2.16,0,0,0,47.64,7c-.48,0-.79.21-.79.49,0,.73,3,.11,3,2.13,0,.92-.79,1.6-2.18,1.6A3.36,3.36,0,0,1,45.41,10.39Z"/><path class="cls-5" d="M50.4,8.53A2.55,2.55,0,0,1,53,5.91,2.51,2.51,0,0,1,55.5,8.66V9H51.78a1.34,1.34,0,0,0,1.44,1.12,2.14,2.14,0,0,0,1.33-.49l.59.87a3.12,3.12,0,0,1-2.07.7A2.54,2.54,0,0,1,50.4,8.53ZM53,7a1.15,1.15,0,0,0-1.22,1.07h2.46A1.14,1.14,0,0,0,53,7Z"/><path class="cls-5" d="M56.26,11V4.13h1.31V11Z"/><path class="cls-5" d="M58.46,11V4.13h1.31V11Z"/><path class="cls-5" d="M60.56,8.53a2.55,2.55,0,0,1,2.59-2.62,2.5,2.5,0,0,1,2.51,2.75V9H61.94a1.34,1.34,0,0,0,1.44,1.12,2.1,2.1,0,0,0,1.33-.49l.59.87a3.11,3.11,0,0,1-2.06.7A2.54,2.54,0,0,1,60.56,8.53ZM63.15,7a1.15,1.15,0,0,0-1.22,1.07H64.4A1.16,1.16,0,0,0,63.15,7Z"/><path class="cls-5" d="M66.39,11V6H67.7v.67a2.22,2.22,0,0,1,1.6-.8V7.2a1.83,1.83,0,0,0-.37,0,1.69,1.69,0,0,0-1.23.57V11Z"/><path class="cls-1" d="M39.07,13.67H33.88V24.75h2.36v-4h2.82a3.46,3.46,0,0,0,3.73-3.55A3.46,3.46,0,0,0,39.07,13.67Zm-.34,5H36.24v-3h2.49a1.49,1.49,0,1,1,0,3Z"/><path class="cls-1" d="M47,16.53a5.18,5.18,0,0,0-3.5,1.27l.83,1.48a3.34,3.34,0,0,1,2.31-1c1.06,0,1.76.53,1.76,1.35v1a3.27,3.27,0,0,0-2.54-1,2.54,2.54,0,0,0-2.78,2.59A2.67,2.67,0,0,0,45.82,25a3.27,3.27,0,0,0,2.55-1.05v.85h2.12V19.58C50.5,17.27,48.82,16.53,47,16.53Zm1.4,6.3a2.11,2.11,0,0,1-1.7.7c-.83,0-1.51-.43-1.51-1.2s.68-1.21,1.51-1.21a2.12,2.12,0,0,1,1.7.72Z"/><path class="cls-1" d="M66.78,16.54A3.77,3.77,0,0,0,64,17.77v-1H61.86v8H64V19.35a2.35,2.35,0,0,1,1.83-.93c.9,0,1.48.38,1.48,1.5v4.85h2.13V19.1A2.34,2.34,0,0,0,66.78,16.54Z"/><path class="cls-1" d="M74.36,16.55a4.08,4.08,0,0,0-4.15,4.2A4.06,4.06,0,0,0,74.49,25a5,5,0,0,0,3.31-1.11l-1-1.4a3.32,3.32,0,0,1-2.12.78,2.14,2.14,0,0,1-2.31-1.79h6V21C78.38,18.34,76.77,16.55,74.36,16.55ZM72.4,20a2,2,0,0,1,4,0Z"/><path class="cls-1" d="M81.53,17.83V16.75H79.42v8h2.11v-5.3a2.71,2.71,0,0,1,2-.91,3,3,0,0,1,.58.05V16.55A3.51,3.51,0,0,0,81.53,17.83Z"/><polygon class="cls-1" points="56.28 16.74 56.28 16.74 56.28 16.74 56.28 16.74"/><path class="cls-1" d="M59.75,23.09c-.47,0-.73-.39-.73-.9V18.58h1.63V16.74H59v-2.2H56.91v2.2h-.64a3.52,3.52,0,0,0-2.74,1.18V16.75H51.42v8h2.11v-5.2a2.8,2.8,0,0,1,2.34-1h1v4.17A2,2,0,0,0,59.16,25a2.64,2.64,0,0,0,1.77-.51l-.45-1.61A1.09,1.09,0,0,1,59.75,23.09Z"/></g></g></svg>