<svg xmlns="http://www.w3.org/2000/svg" viewBox="0 0 100.04 28.79"><defs><style>.cls-1{fill:#4fc67f;}.cls-2{fill:#101416;}.cls-3{fill:#fff;}.cls-4{fill:#6154F9;}.cls-5{fill:#41729a;}</style></defs><g id="Layer_2" data-name="Layer 2"><g id="Layer_1-2" data-name="Layer 1"><path class="cls-1" d="M34.13,6.62a3.51,3.51,0,0,1,3.69-3.57A3.15,3.15,0,0,1,40.7,4.74l-1.26.62a1.88,1.88,0,0,0-1.62-1,2.16,2.16,0,0,0-2.18,2.26,2.16,2.16,0,0,0,2.18,2.27,1.88,1.88,0,0,0,1.62-1l1.26.61a3.17,3.17,0,0,1-2.88,1.7A3.52,3.52,0,0,1,34.13,6.62Z"/><path class="cls-1" d="M41,7.57A2.55,2.55,0,0,1,43.61,5a2.5,2.5,0,0,1,2.51,2.74V8H42.4a1.34,1.34,0,0,0,1.44,1.12,2,2,0,0,0,1.32-.49l.59.87a3.08,3.08,0,0,1-2.06.7A2.54,2.54,0,0,1,41,7.57ZM43.61,6a1.15,1.15,0,0,0-1.22,1.07h2.46A1.14,1.14,0,0,0,43.61,6Z"/><path class="cls-1" d="M52.9,3.74a.78.78,0,0,1,1.56,0,.78.78,0,1,1-1.56,0ZM53,10.07v-5h1.32v5Z"/><path class="cls-1" d="M55.53,10.07V6.22H54.7V5.07h.83V4.86a1.62,1.62,0,0,1,1.68-1.8,2,2,0,0,1,.95.21l-.27,1a.75.75,0,0,0-.42-.1c-.38,0-.63.24-.63.72v.21h1V6.22h-1v3.85Zm3-6.33A.77.77,0,0,1,59.27,3a.78.78,0,0,1,.79.77.79.79,0,0,1-.79.79A.78.78,0,0,1,58.49,3.74Zm.13,6.33v-5h1.31v5Z"/><path class="cls-1" d="M60.5,7.57A2.55,2.55,0,0,1,63.09,5,2.5,2.5,0,0,1,65.6,7.69V8H61.88a1.34,1.34,0,0,0,1.44,1.12,2,2,0,0,0,1.32-.49l.59.87a3.08,3.08,0,0,1-2.06.7A2.54,2.54,0,0,1,60.5,7.57ZM63.09,6a1.15,1.15,0,0,0-1.22,1.07h2.46A1.14,1.14,0,0,0,63.09,6Z"/><path class="cls-1" d="M70,10.07V9.43a1.93,1.93,0,0,1-1.55.77c-1.25,0-2.21-.95-2.21-2.63S67.17,5,68.44,5A1.91,1.91,0,0,1,70,5.71V3.16h1.32v6.91Zm0-1.61V6.69a1.42,1.42,0,0,0-1.13-.57,1.31,1.31,0,0,0-1.28,1.45A1.31,1.31,0,0,0,68.86,9,1.44,1.44,0,0,0,70,8.46Z"/><path class="cls-2" d="M33.82,22.23l1.3-1.85a4.84,4.84,0,0,0,3.52,1.51c1.32,0,1.93-.58,1.93-1.23,0-1.92-6.38-.58-6.38-4.75,0-1.84,1.6-3.37,4.21-3.37a6.15,6.15,0,0,1,4.32,1.55L41.4,15.85a4.75,4.75,0,0,0-3.22-1.22c-1,0-1.56.43-1.56,1.1,0,1.74,6.36.57,6.36,4.7,0,2-1.46,3.56-4.44,3.56A6.44,6.44,0,0,1,33.82,22.23Z"/><path class="cls-2" d="M46,22.76v4.09H43.84V15.76H46v1a3.08,3.08,0,0,1,2.47-1.21c2.06,0,3.56,1.53,3.56,4.2S50.49,24,48.43,24A3.1,3.1,0,0,1,46,22.76Zm3.86-3a2.1,2.1,0,0,0-2-2.33,2.36,2.36,0,0,0-1.82.92v2.82a2.36,2.36,0,0,0,1.81.93A2.09,2.09,0,0,0,49.81,19.77Z"/><path class="cls-2" d="M52.68,19.77a4.1,4.1,0,0,1,4.16-4.2c2.41,0,4,1.8,4,4.41v.49h-6a2.16,2.16,0,0,0,2.31,1.8,3.37,3.37,0,0,0,2.13-.78l1,1.39A5,5,0,0,1,57,24,4.08,4.08,0,0,1,52.68,19.77Zm4.16-2.47a1.85,1.85,0,0,0-2,1.71h3.95A1.84,1.84,0,0,0,56.84,17.3Z"/><path class="cls-2" d="M61.54,19.78a4.09,4.09,0,0,1,4.25-4.21A3.74,3.74,0,0,1,69,17l-1.38,1.3a1.94,1.94,0,0,0-1.7-.87,2.14,2.14,0,0,0-2.17,2.33,2.15,2.15,0,0,0,2.17,2.34,2,2,0,0,0,1.7-.88L69,22.54A3.76,3.76,0,0,1,65.79,24,4.08,4.08,0,0,1,61.54,19.78Z"/><path class="cls-2" d="M69.48,13.65a1.26,1.26,0,1,1,1.25,1.26A1.25,1.25,0,0,1,69.48,13.65Zm.2,10.15v-8h2.11v8Z"/><path class="cls-2" d="M78,23.8V23a3.29,3.29,0,0,1-2.54,1,2.66,2.66,0,0,1-2.78-2.66,2.55,2.55,0,0,1,2.78-2.59,3.27,3.27,0,0,1,2.54,1v-1c0-.81-.7-1.35-1.76-1.35a3.34,3.34,0,0,0-2.31.95l-.83-1.48a5.17,5.17,0,0,1,3.5-1.26c1.85,0,3.53.73,3.53,3v5.19Zm0-1.92v-1a2.11,2.11,0,0,0-1.7-.72c-.83,0-1.51.45-1.51,1.22s.68,1.19,1.51,1.19A2.14,2.14,0,0,0,78,21.88Z"/><path class="cls-2" d="M81.24,23.81V12.72h2.11V23.81Z"/><path class="cls-2" d="M84.26,13.65a1.25,1.25,0,0,1,2.5,0,1.25,1.25,0,1,1-2.5,0Zm.19,10.16v-8h2.11v8Z"/><path class="cls-2" d="M87.29,22.76l.92-1.53A4.48,4.48,0,0,0,91,22.35c.91,0,1.35-.35,1.35-.85,0-1.31-4.76-.23-4.75-3.39,0-1.35,1.16-2.53,3.29-2.53a5.13,5.13,0,0,1,3.22,1.1l-.85,1.5a3.43,3.43,0,0,0-2.37-.93c-.77,0-1.27.33-1.27.78,0,1.18,4.77.18,4.77,3.42,0,1.48-1.26,2.56-3.49,2.56A5.41,5.41,0,0,1,87.29,22.76Z"/><path class="cls-2" d="M96,21.8V17.63H94.69V15.78H96v-2.2h2.11v2.2h1.63v1.84H98.13v3.61c0,.51.26.89.73.89a1,1,0,0,0,.73-.25L100,23.5a2.64,2.64,0,0,1-1.77.51A2,2,0,0,1,96,21.8Z"/><rect class="cls-2" width="28.79" height="28.79" rx="8.1"/><path class="cls-3" d="M14.45,4.16a5.52,5.52,0,0,1,5.23,5.76.67.67,0,0,1-1.34,0A4.19,4.19,0,0,0,14.45,5.5a4.19,4.19,0,0,0-3.89,4.42.67.67,0,0,1-1.34,0A5.52,5.52,0,0,1,14.45,4.16Z"/><path class="cls-4" d="M22.5,23.39H6.3a1.8,1.8,0,0,1-1.8-1.91l.91-10.79A1.79,1.79,0,0,1,7.2,9H21.59a1.8,1.8,0,0,1,1.8,1.69l.9,10.8A1.8,1.8,0,0,1,22.5,23.39Z"/><path class="cls-5" d="M14.4,18.9a5.53,5.53,0,0,1-5.23-5.77.67.67,0,0,1,1.34,0,4.2,4.2,0,0,0,3.89,4.43,4.2,4.2,0,0,0,3.89-4.43.67.67,0,0,1,1.34,0A5.53,5.53,0,0,1,14.4,18.9Z"/><circle class="cls-3" cx="18.93" cy="12.95" r="1.51"/><path class="cls-1" d="M51.85,9c-.29,0-.46-.24-.46-.56V6.21h1V5.06h-1V3.69H50.08V5.06h-.4A2.2,2.2,0,0,0,48,5.8V5.06H46.66v5H48V6.82a1.75,1.75,0,0,1,1.46-.61h.65v2.6a1.25,1.25,0,0,0,1.41,1.38,1.58,1.58,0,0,0,1.09-.33l-.28-1A.65.65,0,0,1,51.85,9Z"/></g></g></svg>