<svg xmlns="http://www.w3.org/2000/svg" viewBox="0 0 32 32"><defs><style>.cls-1{fill:#101416;}.cls-2{fill:#fff;}.cls-3{fill:#6154F9;}.cls-4{fill:#41729a;}</style></defs><g id="Layer_2" data-name="Layer 2"><g id="Layer_1-2" data-name="Layer 1"><rect class="cls-1" width="32" height="32" rx="9"/><path class="cls-2" d="M16.06,4.62c3.2,0,5.81,2.88,5.81,6.41a.75.75,0,0,1-1.49,0c0-2.71-1.94-4.92-4.32-4.92S11.74,8.32,11.74,11a.75.75,0,0,1-1.49,0C10.25,7.5,12.86,4.62,16.06,4.62Z"/><path class="cls-3" d="M25,26H7a2,2,0,0,1-2-2.11l1-12A2,2,0,0,1,8,10H24a2,2,0,0,1,2,1.88l1,12A2,2,0,0,1,25,26Z"/><path class="cls-4" d="M16,21c-3.2,0-5.81-2.87-5.81-6.4a.76.76,0,0,1,.75-.75.75.75,0,0,1,.74.75c0,2.71,1.94,4.91,4.32,4.91s4.32-2.2,4.32-4.91a.76.76,0,0,1,.75-.75.75.75,0,0,1,.74.75C21.81,18.13,19.21,21,16,21Z"/><circle class="cls-2" cx="21.04" cy="14.39" r="1.68"/></g></g></svg>