<?xml version="1.0" encoding="utf-8"?>
<!-- Generator: Adobe Illustrator 25.2.0, SVG Export Plug-In . SVG Version: 6.00 Build 0)  -->
<svg version="1.1" id="Layer_1" xmlns="http://www.w3.org/2000/svg" xmlns:xlink="http://www.w3.org/1999/xlink" x="0px" y="0px"
	 viewBox="0 0 1582.2 1260.1" style="enable-background:new 0 0 1582.2 1260.1;" xml:space="preserve">
<style type="text/css">
	.st0{fill:url(#SVGID_2_);}
	.st1{fill:url(#SVGID_3_);}
	.st2{fill:#9DD7F7;}
	.st3{fill:url(#SVGID_4_);}
	.st4{fill:#F6F6FB;}
	.st5{fill:url(#SVGID_5_);}
	.st6{fill:url(#SVGID_6_);}
	.st7{fill:url(#SVGID_7_);}
	.st8{fill:url(#SVGID_8_);}
	.st9{fill:#83C2EF;}
	.st10{fill:url(#SVGID_9_);}
	.st11{fill:#BFE9FC;}
	.st12{fill:#C6B4BB;}
	.st13{fill:#BBC0E6;}
	.st14{fill:#6154F9;}
	.st15{fill:url(#SVGID_10_);}
	.st16{fill:url(#SVGID_11_);}
	.st17{fill:#FFFFFF;}
	.st18{fill:url(#SVGID_12_);}
	.st19{fill:#BDCFE0;}
	.st20{fill:url(#SVGID_13_);}
	.st21{fill:url(#SVGID_14_);}
	.st22{fill:url(#SVGID_15_);}
	.st23{fill:url(#SVGID_16_);}
	.st24{fill:url(#SVGID_17_);}
	.st25{fill:url(#SVGID_18_);}
	.st26{fill:url(#SVGID_19_);}
	.st27{fill:#FFB3C7;}
	.st28{fill:#0A0B09;}
	.st29{fill:url(#SVGID_20_);}
	.st30{fill:url(#SVGID_21_);}
	.st31{clip-path:url(#SVGID_23_);}
	.st32{clip-path:url(#SVGID_25_);}
	.st33{opacity:0.4;fill:url(#SVGID_26_);enable-background:new    ;}
	.st34{clip-path:url(#SVGID_30_);}
	.st35{clip-path:url(#SVGID_31_);}
	.st36{clip-path:url(#SVGID_32_);fill:url(#SVGID_33_);}
	.st37{opacity:0.4;clip-path:url(#SVGID_35_);fill:url(#SVGID_36_);enable-background:new    ;}
	.st38{fill:#4D4D4F;}
	.st39{fill-rule:evenodd;clip-rule:evenodd;fill:#009DE2;}
	.st40{fill-rule:evenodd;clip-rule:evenodd;fill:#113984;}
	.st41{fill-rule:evenodd;clip-rule:evenodd;fill:#172C70;}
	.st42{fill:url(#SVGID_37_);}
	.st43{fill:url(#SVGID_38_);}
</style>
<g>
	
		<linearGradient id="SVGID_2_" gradientUnits="userSpaceOnUse" x1="182" y1="44.2" x2="281.1" y2="44.2" gradientTransform="matrix(1 0 0 1 0 492)">
		<stop  offset="0" style="stop-color:#D3D8F2"/>
		<stop  offset="0.4521" style="stop-color:#E6E9F8"/>
		<stop  offset="0.9749" style="stop-color:#F7F9FD"/>
	</linearGradient>
	<rect x="182" y="515.5" class="st0" width="99.1" height="41.4"/>
	<g>
		
			<linearGradient id="SVGID_3_" gradientUnits="userSpaceOnUse" x1="147.4" y1="769.375" x2="217.4" y2="769.375" gradientTransform="matrix(1 0 0 -1 0 1260)">
			<stop  offset="0.4247" style="stop-color:#BFE9FC"/>
			<stop  offset="0.4739" style="stop-color:#9ED3F4"/>
			<stop  offset="0.5626" style="stop-color:#6154F9"/>
		</linearGradient>
		<path class="st1" d="M147.4,424.4v112.3c0,0.9,0.6,1.9,1.9,2.6l28.6,16.5c2.5,1.4,6.5,1.4,9,0l28.6-16.5c1.2-0.7,1.9-1.7,1.9-2.6
			V424.4H147.4z"/>
		<path class="st2" d="M149.2,427c-1.2-0.7-1.9-1.7-1.9-2.6s0.6-1.9,1.9-2.6l28.6-16.5c2.5-1.4,6.5-1.4,9,0l28.6,16.5
			c1.2,0.7,1.9,1.7,1.9,2.6s-0.6,1.9-1.9,2.6l-28.6,16.5c-2.5,1.4-6.5,1.4-9,0L149.2,427z"/>
	</g>
</g>
<linearGradient id="SVGID_4_" gradientUnits="userSpaceOnUse" x1="784.2" y1="829.175" x2="1137.3999" y2="829.175" gradientTransform="matrix(1 0 0 -1 0 1260)">
	<stop  offset="0.4247" style="stop-color:#E6EFF9"/>
	<stop  offset="0.536" style="stop-color:#C5D6E5"/>
	<stop  offset="0.5626" style="stop-color:#BDCFE0"/>
</linearGradient>
<path class="st3" d="M784.2,155v469.4c0,4.4,2.9,8.7,8.6,12l132.5,76.5c11.5,6.6,30.2,6.6,41.6,0l161.9-87.6c5.7-3.3,8.6-7.7,8.6-12
	V143.8L784.2,155z"/>
<path class="st4" d="M792.8,167c-5.7-3.3-8.6-7.7-8.6-12c0-4.4,2.9-8.7,8.6-12l161.9-87.6c11.5-6.6,30.2-6.6,41.6,0l132.5,76.5
	c5.7,3.3,8.6,7.7,8.6,12c0,4.4-2.9,8.7-8.6,12l-161.9,87.6c-11.5,6.6-30.2,6.6-41.6,0L792.8,167z"/>
<g>
	
		<linearGradient id="SVGID_5_" gradientUnits="userSpaceOnUse" x1="295.7" y1="832.0375" x2="445.8" y2="832.0375" gradientTransform="matrix(1 0 0 -1 0 1260)">
		<stop  offset="0.4247" style="stop-color:#E6EFF9"/>
		<stop  offset="0.536" style="stop-color:#C5D6E5"/>
		<stop  offset="0.5626" style="stop-color:#BDCFE0"/>
	</linearGradient>
	<path class="st5" d="M295.7,297.4v217.7c0,2,1.3,4,4,5.6l61.4,35.5c5.3,3.1,14,3.1,19.3,0l61.4-35.5c2.7-1.5,4-3.6,4-5.6V297.4
		H295.7z"/>
	<path class="st4" d="M299.7,302.9c-2.7-1.5-4-3.6-4-5.6s1.3-4,4-5.6l61.4-35.5c5.3-3.1,14-3.1,19.3,0l61.4,35.5
		c2.7,1.5,4,3.6,4,5.6s-1.3,4-4,5.6l-61.4,35.5c-5.3,3.1-14,3.1-19.3,0L299.7,302.9z"/>
</g>
<linearGradient id="SVGID_6_" gradientUnits="userSpaceOnUse" x1="231.5" y1="249.5" x2="523.3" y2="249.5" gradientTransform="matrix(1 0 0 1 0 492)">
	<stop  offset="0" style="stop-color:#D3D8F2"/>
	<stop  offset="0.4521" style="stop-color:#E6E9F8"/>
	<stop  offset="0.9749" style="stop-color:#F7F9FD"/>
</linearGradient>
<rect x="231.5" y="677.8" class="st6" width="291.8" height="127.4"/>
<linearGradient id="SVGID_7_" gradientUnits="userSpaceOnUse" x1="915.7719" y1="278.1635" x2="1308.3663" y2="276.4417" gradientTransform="matrix(1 0 0 1 0 492)">
	<stop  offset="0" style="stop-color:#D3D8F2"/>
	<stop  offset="0.4521" style="stop-color:#E6E9F8"/>
	<stop  offset="0.9749" style="stop-color:#F7F9FD"/>
</linearGradient>
<path class="st7" d="M1073,875.4h339.8V608.7l-310.1-0.6L846,842.5c-10,5.8-10,15.2,0,21c0,0,106.6,61.5,107.1,61.8l-16.3,5.9
	c0,0,16.1,0,26.1,0s18.5-2.8,25.1-6.6L1073,875.4z"/>
<g>
	
		<linearGradient id="SVGID_8_" gradientUnits="userSpaceOnUse" x1="706.3" y1="318" x2="1068.1" y2="318" gradientTransform="matrix(1 0 0 1 0 492)">
		<stop  offset="0" style="stop-color:#FFFFFF"/>
		<stop  offset="0.4982" style="stop-color:#FCFDFF"/>
		<stop  offset="0.7974" style="stop-color:#F4F7FF"/>
		<stop  offset="1" style="stop-color:#E9EEFF"/>
	</linearGradient>
	<path class="st8" d="M819.5,709.9c10-5.8,26.4-5.8,36.3,0l204.8,118.2c10,5.8,10,15.2,0,21l-105.7,61c-10,5.8-26.4,5.8-36.4,0
		L713.8,791.9c-10-5.8-10-15.2,0-21L819.5,709.9z"/>
	<path class="st9" d="M713.8,791.9l204.8,118.2c10,5.8,26.4,5.8,36.4,0l105.7-61c4.8-2.8,7.3-6.4,7.5-10v16.1
		c0,3.8-2.5,7.6-7.5,10.5l-105.7,61c-10,5.8-26.4,5.8-36.4,0L713.8,808.5c-5.2-3-7.7-7-7.5-10.9v-15.7
		C706.5,785.5,709,789.2,713.8,791.9z"/>
</g>
<linearGradient id="SVGID_9_" gradientUnits="userSpaceOnUse" x1="834.9" y1="323.05" x2="1063.3" y2="323.05" gradientTransform="matrix(1 0 0 1 0 492)">
	<stop  offset="0" style="stop-color:#DAE0F5"/>
	<stop  offset="0.3194" style="stop-color:#E0E5F7"/>
	<stop  offset="0.7654" style="stop-color:#F3F5FC"/>
	<stop  offset="1" style="stop-color:#FFFFFF"/>
</linearGradient>
<path class="st10" d="M931.2,771.3h-1.8h-94.5c0.4,3.4,2.9,6.8,7.4,9.4l112.8,65.1l-0.8,1.8l-19.4,11.2h109l19.4-11.2L931.2,771.3z"
	/>
<g>
	<path class="st11" d="M817.4,750.5c8.2-25.2,8.2-46.7,8.2-55.6l14.5-8.4c0,3.7,0,9.4-0.5,16.5l118.1,68.2c0,12.5,0,49.8-22.9,87.6
		l-132.1-76.3L817.4,750.5z"/>
	<polygon class="st12" points="825.6,695 957.7,771.2 972.3,762.9 840.2,686.6 	"/>
	<path class="st13" d="M934.9,858.8c22.8-37.7,22.9-75.1,22.9-87.6l14.5-8.4c0,12.4,0,46.3-18,84.8L934.9,858.8z"/>
	<path class="st2" d="M950.4,823.8l15.6-9c2.7-10.4,4.2-20,5.1-28.1l-14.7,8.5C955.4,803.5,953.6,813.3,950.4,823.8z"/>
</g>
<g>
	<path class="st14" d="M606.9,177.7c0-11.5,8.2-16.3,18.2-10.5L1114.9,450c10,5.8,18.2,19.9,18.2,31.5v328.3L606.9,506V177.7z"/>
	<path class="st9" d="M644.8,155.8l489.8,282.8c10,5.8,18.2,19.9,18.2,31.5v328.3l-19.7,11.4V481.4c0-11.5-8.2-25.7-18.2-31.5
		L625,167.2c-4.1-2.4-7.8-2.9-10.9-2.1l15.8-9C633.2,152.7,638.6,152.3,644.8,155.8z"/>
	
		<linearGradient id="SVGID_10_" gradientUnits="userSpaceOnUse" x1="606.8" y1="205.4834" x2="1133" y2="205.4834" gradientTransform="matrix(1 0 0 1 0 492)">
		<stop  offset="0" style="stop-color:#FFFFFF"/>
		<stop  offset="0.4982" style="stop-color:#FCFDFF"/>
		<stop  offset="0.7974" style="stop-color:#F4F7FF"/>
		<stop  offset="1" style="stop-color:#E9EEFF"/>
	</linearGradient>
	<path class="st15" d="M1133,809.7v66.4c0,11.5-8.2,16.3-18.2,10.5L625,603.8c-10-5.8-18.2-19.9-18.2-31.5v-66.4L1133,809.7z"/>
	
		<linearGradient id="SVGID_11_" gradientUnits="userSpaceOnUse" x1="1128.3999" y1="350.7999" x2="1152.7" y2="350.7999" gradientTransform="matrix(1 0 0 1 0 492)">
		<stop  offset="0" style="stop-color:#FFFFFF"/>
		<stop  offset="0.4982" style="stop-color:#FCFDFF"/>
		<stop  offset="0.7974" style="stop-color:#F4F7FF"/>
		<stop  offset="1" style="stop-color:#E9EEFF"/>
	</linearGradient>
	<path class="st16" d="M1133,876.1v-66.4l19.7-11.4v66.4c0,5.8-2.1,9.9-5.4,11.8l-18.9,10.8C1131.2,885.3,1133,881.4,1133,876.1z"/>
	<polygon class="st17" points="625,516.5 1114.8,799.2 1114.8,470.9 625,188.2 	"/>
</g>
<polygon class="st11" points="856.5,632.1 638.5,506.2 638.5,213.9 856.5,339.8 "/>
<polygon class="st14" points="966.3,534.8 869.9,479.2 869.9,350.1 966.3,405.7 "/>
<polygon class="st11" points="966.3,691.7 869.9,636.1 869.9,507 966.3,562.6 "/>
<polygon class="st11" points="1080.3,759.2 984,703.6 984,574.5 1080.3,630.1 "/>
<g>
	<path class="st9" d="M491.9,309.9c3-2.2,7.5-2.1,12.4,0.7l185,106.8c9.2,5.3,16.6,18.2,16.6,28.8v255.9c0,5.2-1.8,8.8-4.7,10.6l0,0
		l-0.1,0.1c0,0-0.1,0-0.1,0.1l-7,4l0,0c2.9-1.8,4.7-5.5,4.7-10.6V450.4c0-10.6-7.5-23.5-16.6-28.8l-185-106.8
		c-4.2-2.5-8.1-2.8-11.1-1.5L491.9,309.9z"/>
	
		<linearGradient id="SVGID_12_" gradientUnits="userSpaceOnUse" x1="460.4992" y1="-197.4683" x2="652.3771" y2="130.8049" gradientTransform="matrix(1 0 0 1 0 492)">
		<stop  offset="0" style="stop-color:#FFFFFF"/>
		<stop  offset="0.4982" style="stop-color:#FCFDFF"/>
		<stop  offset="0.7974" style="stop-color:#F4F7FF"/>
		<stop  offset="1" style="stop-color:#E9EEFF"/>
	</linearGradient>
	<path class="st18" d="M497.1,314.8L682,421.6c9.2,5.3,16.6,18.2,16.6,28.8v255.9c0,10.6-7.5,14.9-16.6,9.6L497.1,609.1
		c-9.1-5.3-16.6-18.2-16.6-28.8V324.4C480.5,313.8,488,309.5,497.1,314.8z"/>
</g>
<g>
	<path class="st14" d="M632.7,210.6c0-3.7,2.6-5.2,5.8-3.3s5.8,6.3,5.8,10s-2.6,5.2-5.8,3.3S632.7,214.3,632.7,210.6z"/>
	<path class="st14" d="M850.7,336.5c0-3.7,2.6-5.2,5.8-3.3c3.2,1.9,5.8,6.3,5.8,10s-2.6,5.2-5.8,3.3
		C853.3,344.6,850.7,340.1,850.7,336.5z"/>
	<path class="st14" d="M850.7,628.8c0-3.7,2.6-5.2,5.8-3.3c3.2,1.8,5.8,6.3,5.8,10s-2.6,5.2-5.8,3.3
		C853.3,636.9,850.7,632.5,850.7,628.8z"/>
	<g>
		<g>
			<g>
				<g>
					<path class="st19" d="M491.9,299.5c-0.3,0-0.7-0.2-0.9-0.5c-0.3-0.5-0.1-1.1,0.4-1.4l5.2-3c0.5-0.3,1.1-0.1,1.4,0.4
						s0.1,1.1-0.4,1.4l-5.2,3C492.3,299.5,492.1,299.5,491.9,299.5z"/>
				</g>
				<g>
					<path class="st19" d="M507.6,290.5c-0.3,0-0.7-0.2-0.9-0.5c-0.3-0.5-0.1-1.1,0.4-1.4l10.5-6c0.5-0.3,1.1-0.1,1.4,0.4
						c0.3,0.5,0.1,1.1-0.4,1.4l-10.5,6C507.9,290.4,507.8,290.5,507.6,290.5z M528.5,278.4c-0.3,0-0.7-0.2-0.9-0.5
						c-0.3-0.5-0.1-1.1,0.4-1.4l10.5-6c0.5-0.3,1.1-0.1,1.4,0.4c0.3,0.5,0.1,1.1-0.4,1.4l-10.5,6
						C528.9,278.3,528.7,278.4,528.5,278.4z M549.5,266.3c-0.3,0-0.7-0.2-0.9-0.5c-0.3-0.5-0.1-1.1,0.4-1.4l10.5-6
						c0.5-0.3,1.1-0.1,1.4,0.4c0.3,0.5,0.1,1.1-0.4,1.4l-10.5,6C549.8,266.2,549.7,266.3,549.5,266.3z M570.4,254.2
						c-0.3,0-0.7-0.2-0.9-0.5c-0.3-0.5-0.1-1.1,0.4-1.4l10.5-6.1c0.5-0.3,1.1-0.1,1.4,0.4c0.3,0.5,0.1,1.1-0.4,1.4l-10.5,6.1
						C570.8,254.1,570.6,254.2,570.4,254.2z M591.4,242.1c-0.3,0-0.7-0.2-0.9-0.5c-0.3-0.5-0.1-1.1,0.4-1.4l10.5-6.1
						c0.5-0.3,1.1-0.1,1.4,0.4c0.3,0.5,0.1,1.1-0.4,1.4l-10.5,6.1C591.7,242.1,591.5,242.1,591.4,242.1z M612.3,230
						c-0.3,0-0.7-0.2-0.9-0.5c-0.3-0.5-0.1-1.1,0.4-1.4l10.5-6.1c0.5-0.3,1.1-0.1,1.4,0.4c0.3,0.5,0.1,1.1-0.4,1.4l-10.5,6.1
						C612.7,230,612.5,230,612.3,230z"/>
				</g>
				<g>
					<path class="st19" d="M633.3,217.9c-0.3,0-0.7-0.2-0.9-0.5c-0.3-0.5-0.1-1.1,0.4-1.4l5.2-3c0.5-0.3,1.1-0.1,1.4,0.4
						c0.3,0.5,0.1,1.1-0.4,1.4l-5.2,3C633.6,217.9,633.4,217.9,633.3,217.9z"/>
				</g>
			</g>
		</g>
	</g>
	<g>
		<g>
			<g>
				<g>
					<path class="st19" d="M710,425.4c-0.3,0-0.7-0.2-0.9-0.5c-0.3-0.5-0.1-1.1,0.4-1.4l5.2-3c0.5-0.3,1.1-0.1,1.4,0.4
						c0.3,0.5,0.1,1.1-0.4,1.4l-5.2,3C710.3,425.4,710.1,425.4,710,425.4z"/>
				</g>
				<g>
					<path class="st19" d="M725.6,416.4c-0.3,0-0.7-0.2-0.9-0.5c-0.3-0.5-0.1-1.1,0.4-1.4l10.5-6c0.5-0.3,1.1-0.1,1.4,0.4
						c0.3,0.5,0.1,1.1-0.4,1.4l-10.5,6C726,416.3,725.8,416.4,725.6,416.4z M746.6,404.3c-0.3,0-0.7-0.2-0.9-0.5
						c-0.3-0.5-0.1-1.1,0.4-1.4l10.5-6c0.5-0.3,1.1-0.1,1.4,0.4c0.3,0.5,0.1,1.1-0.4,1.4l-10.5,6
						C746.9,404.2,746.8,404.3,746.6,404.3z M767.5,392.2c-0.3,0-0.7-0.2-0.9-0.5c-0.3-0.5-0.1-1.1,0.4-1.4l10.5-6
						c0.5-0.3,1.1-0.1,1.4,0.4c0.3,0.5,0.1,1.1-0.4,1.4l-10.5,6C767.9,392.1,767.7,392.2,767.5,392.2z M788.5,380.1
						c-0.3,0-0.7-0.2-0.9-0.5c-0.3-0.5-0.1-1.1,0.4-1.4l10.5-6c0.5-0.3,1.1-0.1,1.4,0.4c0.3,0.5,0.1,1.1-0.4,1.4l-10.5,6
						C788.8,380,788.6,380.1,788.5,380.1z M809.4,368c-0.3,0-0.7-0.2-0.9-0.5c-0.3-0.5-0.1-1.1,0.4-1.4l10.5-6
						c0.5-0.3,1.1-0.1,1.4,0.4c0.3,0.5,0.1,1.1-0.4,1.4l-10.5,6C809.8,367.9,809.6,368,809.4,368z M830.4,355.9
						c-0.3,0-0.7-0.2-0.9-0.5c-0.3-0.5-0.1-1.1,0.4-1.4l10.5-6c0.5-0.3,1.1-0.1,1.4,0.4c0.3,0.5,0.1,1.1-0.4,1.4l-10.5,6
						C830.7,355.9,830.5,355.9,830.4,355.9z"/>
				</g>
				<g>
					<path class="st19" d="M851.3,343.8c-0.3,0-0.7-0.2-0.9-0.5c-0.3-0.5-0.1-1.1,0.4-1.4l5.2-3c0.5-0.3,1.1-0.1,1.4,0.4
						c0.3,0.5,0.1,1.1-0.4,1.4l-5.2,3C851.7,343.8,851.5,343.8,851.3,343.8z"/>
				</g>
			</g>
		</g>
	</g>
	<g>
		<g>
			<g>
				<g>
					<path class="st19" d="M710,717.7c-0.3,0-0.7-0.2-0.9-0.5c-0.3-0.5-0.1-1.1,0.4-1.4l5.2-3c0.5-0.3,1.1-0.1,1.4,0.4
						c0.3,0.5,0.1,1.1-0.4,1.4l-5.2,3C710.3,717.7,710.1,717.7,710,717.7z"/>
				</g>
				<g>
					<path class="st19" d="M725.6,708.7c-0.3,0-0.7-0.2-0.9-0.5c-0.3-0.5-0.1-1.1,0.4-1.4l10.5-6c0.5-0.3,1.1-0.1,1.4,0.4
						c0.3,0.5,0.1,1.1-0.4,1.4l-10.5,6C726,708.6,725.8,708.7,725.6,708.7z M746.6,696.6c-0.3,0-0.7-0.2-0.9-0.5
						c-0.3-0.5-0.1-1.1,0.4-1.4l10.5-6c0.5-0.3,1.1-0.1,1.4,0.4c0.3,0.5,0.1,1.1-0.4,1.4l-10.5,6
						C746.9,696.5,746.8,696.6,746.6,696.6z M767.5,684.5c-0.3,0-0.7-0.2-0.9-0.5c-0.3-0.5-0.1-1.1,0.4-1.4l10.5-6
						c0.5-0.3,1.1-0.1,1.4,0.4c0.3,0.5,0.1,1.1-0.4,1.4l-10.5,6C767.9,684.4,767.7,684.5,767.5,684.5z M788.5,672.4
						c-0.3,0-0.7-0.2-0.9-0.5c-0.3-0.5-0.1-1.1,0.4-1.4l10.5-6c0.5-0.3,1.1-0.1,1.4,0.4c0.3,0.5,0.1,1.1-0.4,1.4l-10.5,6
						C788.8,672.3,788.6,672.4,788.5,672.4z M809.4,660.3c-0.3,0-0.7-0.2-0.9-0.5c-0.3-0.5-0.1-1.1,0.4-1.4l10.5-6
						c0.5-0.3,1.1-0.1,1.4,0.4c0.3,0.5,0.1,1.1-0.4,1.4l-10.5,6C809.8,660.2,809.6,660.3,809.4,660.3z M830.4,648.2
						c-0.3,0-0.7-0.2-0.9-0.5c-0.3-0.5-0.1-1.1,0.4-1.4l10.5-6c0.5-0.3,1.1-0.1,1.4,0.4c0.3,0.5,0.1,1.1-0.4,1.4l-10.5,6
						C830.7,648.2,830.5,648.2,830.4,648.2z"/>
				</g>
				<g>
					<path class="st19" d="M851.3,636.1c-0.3,0-0.7-0.2-0.9-0.5c-0.3-0.5-0.1-1.1,0.4-1.4l5.2-3c0.5-0.3,1.1-0.1,1.4,0.4
						c0.3,0.5,0.1,1.1-0.4,1.4l-5.2,3C851.7,636.1,851.5,636.1,851.3,636.1z"/>
				</g>
			</g>
		</g>
	</g>
</g>
<g>
	<polygon class="st14" points="674.8,525.8 504.4,427.4 504.4,366.4 674.8,464.8 	"/>
	<path class="st17" d="M582.2,441.9c0-4.7,3.3-6.6,7.3-4.2c4,2.3,7.3,8,7.3,12.7s-3.3,6.6-7.3,4.2S582.2,446.5,582.2,441.9z"/>
	<ellipse transform="matrix(0.866 -0.5 0.5 0.866 -148.586 371.3244)" class="st17" cx="618.6" cy="462.9" rx="6" ry="10.4"/>
	<path class="st17" d="M567.8,433.5c0-4.7-3.3-10.4-7.3-12.7s-7.3-0.4-7.3,4.2s3.3,10.4,7.3,12.7
		C564.5,440.1,567.8,438.2,567.8,433.5z"/>
	<polygon class="st11" points="517,575.8 504.4,568.5 504.4,443.7 517,451 	"/>
	<polygon class="st11" points="587.6,519.4 587.6,508.9 674.8,559.3 674.8,569.8 	"/>
	<polygon class="st11" points="587.6,579.4 587.6,568.9 674.8,619.3 674.8,629.8 	"/>
	<polygon class="st11" points="530.9,583.8 530.9,573.4 674.8,656.4 674.8,666.9 	"/>
	<path class="st14" d="M535.6,484.2c0-12.4,8.7-17.4,19.5-11.2c10.7,6.2,19.5,21.3,19.5,33.7s-8.7,17.4-19.5,11.2
		S535.6,496.6,535.6,484.2z"/>
	<path class="st11" d="M535.6,544.2c0-12.4,8.7-17.4,19.5-11.2s19.5,21.3,19.5,33.7s-8.7,17.4-19.5,11.2S535.6,556.6,535.6,544.2z"
		/>
</g>
<linearGradient id="SVGID_13_" gradientUnits="userSpaceOnUse" x1="1289" y1="461.4" x2="1486.9" y2="461.4" gradientTransform="matrix(1 0 0 1 0 492)">
	<stop  offset="0" style="stop-color:#D3D8F2"/>
	<stop  offset="0.4521" style="stop-color:#E6E9F8"/>
	<stop  offset="0.9749" style="stop-color:#F7F9FD"/>
</linearGradient>
<rect x="1289" y="912.1" class="st20" width="197.9" height="82.6"/>
<g>
	
		<linearGradient id="SVGID_14_" gradientUnits="userSpaceOnUse" x1="1225.5" y1="375.575" x2="1352.4001" y2="375.575" gradientTransform="matrix(1 0 0 -1 0 1260)">
		<stop  offset="0.4247" style="stop-color:#E6EFF9"/>
		<stop  offset="0.536" style="stop-color:#C5D6E5"/>
		<stop  offset="0.5626" style="stop-color:#BDCFE0"/>
	</linearGradient>
	<path class="st21" d="M1225.5,774.1v184c0,1.7,1.1,3.4,3.4,4.7l51.9,30c4.5,2.6,11.8,2.6,16.3,0l51.9-30c2.2-1.3,3.4-3,3.4-4.7
		v-184H1225.5z"/>
	<path class="st4" d="M1228.9,778.8c-2.2-1.3-3.4-3-3.4-4.7s1.1-3.4,3.4-4.7l51.9-30c4.5-2.6,11.8-2.6,16.3,0l51.9,30
		c2.2,1.3,3.4,3,3.4,4.7s-1.1,3.4-3.4,4.7l-51.9,30c-4.5,2.6-11.8,2.6-16.3,0L1228.9,778.8z"/>
</g>
<linearGradient id="SVGID_15_" gradientUnits="userSpaceOnUse" x1="1206.7" y1="537.05" x2="1339.1" y2="537.05" gradientTransform="matrix(1 0 0 1 0 492)">
	<stop  offset="0" style="stop-color:#D3D8F2"/>
	<stop  offset="0.4521" style="stop-color:#E6E9F8"/>
	<stop  offset="0.9749" style="stop-color:#F7F9FD"/>
</linearGradient>
<rect x="1206.7" y="1001.4" class="st22" width="132.4" height="55.3"/>
<g>
	
		<linearGradient id="SVGID_16_" gradientUnits="userSpaceOnUse" x1="1158.1" y1="260.05" x2="1254.3704" y2="260.05" gradientTransform="matrix(1 0 0 -1 0 1260)">
		<stop  offset="0.4247" style="stop-color:#E6EFF9"/>
		<stop  offset="0.536" style="stop-color:#C5D6E5"/>
		<stop  offset="0.5626" style="stop-color:#BDCFE0"/>
	</linearGradient>
	<path class="st23" d="M1158.1,943.1v85.9c0,1.3,0.9,2.6,2.6,3.6l39.4,22.7c3.4,2,9,2,12.4,0l39.4-22.7c1.7-1,2.6-2.3,2.6-3.6v-85.9
		H1158.1z"/>
	<path class="st4" d="M1160.6,946.7c-1.7-1-2.6-2.3-2.6-3.6s0.9-2.6,2.6-3.6l39.4-22.7c3.4-2,9-2,12.4,0l39.4,22.7
		c1.7,1,2.6,2.3,2.6,3.6s-0.9,2.6-2.6,3.6l-39.4,22.7c-3.4,2-9,2-12.4,0L1160.6,946.7z"/>
</g>
<g>
	
		<linearGradient id="SVGID_17_" gradientUnits="userSpaceOnUse" x1="152.4" y1="548.375" x2="371.6" y2="548.375" gradientTransform="matrix(1 0 0 -1 0 1260)">
		<stop  offset="0.4247" style="stop-color:#E6EFF9"/>
		<stop  offset="0.536" style="stop-color:#C5D6E5"/>
		<stop  offset="0.5626" style="stop-color:#BDCFE0"/>
	</linearGradient>
	<path class="st24" d="M152.4,646.9v110.3c0,2.2,1.5,4.5,4.4,6.2l68.1,39.3c5.9,3.4,15.5,3.4,21.4,0l120.9-68.3
		c2.9-1.7,4.4-3.9,4.4-6.2V618L152.4,646.9z"/>
	<path class="st4" d="M156.9,653.1c-2.9-1.7-4.4-3.9-4.4-6.2c0-2.2,1.5-4.5,4.4-6.2l120.9-68.3c5.9-3.4,15.5-3.4,21.4,0l68.1,39.3
		c2.9,1.7,4.4,3.9,4.4,6.2c0,2.2-1.5,4.5-4.4,6.2l-120.9,68.3c-5.9,3.4-15.5,3.4-21.4,0L156.9,653.1z"/>
</g>
<g>
	
		<linearGradient id="SVGID_18_" gradientUnits="userSpaceOnUse" x1="232" y1="345.2" x2="317.9" y2="345.2" gradientTransform="matrix(1 0 0 1 0 492)">
		<stop  offset="0" style="stop-color:#D3D8F2"/>
		<stop  offset="0.4521" style="stop-color:#E6E9F8"/>
		<stop  offset="0.9749" style="stop-color:#F7F9FD"/>
	</linearGradient>
	<rect x="232" y="819.3" class="st25" width="85.9" height="35.8"/>
	<g>
		
			<linearGradient id="SVGID_19_" gradientUnits="userSpaceOnUse" x1="202" y1="433.7" x2="262.6" y2="433.7" gradientTransform="matrix(1 0 0 -1 0 1260)">
			<stop  offset="0.4247" style="stop-color:#BFE9FC"/>
			<stop  offset="0.4739" style="stop-color:#9ED3F4"/>
			<stop  offset="0.5626" style="stop-color:#6154F9"/>
		</linearGradient>
		<path class="st26" d="M202,797.5v40.1c0,0.8,0.5,1.6,1.6,2.3l24.8,14.3c2.1,1.2,5.7,1.2,7.8,0l24.8-14.3c1.1-0.6,1.6-1.4,1.6-2.3
			v-40.1H202z"/>
		<path class="st2" d="M203.6,799.7c-1.1-0.6-1.6-1.4-1.6-2.3c0-0.8,0.5-1.6,1.6-2.3l24.8-14.3c2.1-1.2,5.7-1.2,7.8,0l24.8,14.3
			c1.1,0.6,1.6,1.4,1.6,2.3c0,0.8-0.5,1.6-1.6,2.3L236.2,814c-2.1,1.2-5.7,1.2-7.8,0L203.6,799.7z"/>
	</g>
</g>
<g>
	<path class="st27" d="M185.3,634l86.2-47.8c5.6-3.1,15.4-2.6,21.8,1.1l44.1,25.9c6.5,3.8,7.1,9.4,1.4,12.6L252.2,674
		c-5.7,3.2-15.5,2.6-21.9-1.2l-43.7-26.2C180.2,642.7,179.6,637.1,185.3,634z"/>
	<path class="st28" d="M311.1,609.1c-1.4,0.8-1.2,2.2,0.4,3.1l0,0c1.6,0.9,4,1.1,5.4,0.3l0,0c1.4-0.8,1.2-2.2-0.4-3.1
		C315,608.5,312.5,608.4,311.1,609.1L311.1,609.1z M300.5,612.4c-2.2-1.3-5.6-1.4-7.6-0.3c-2,1.1-1.9,3.1,0.3,4.4
		c2.2,1.3,5.6,1.4,7.6,0.3C302.9,615.7,302.7,613.7,300.5,612.4L300.5,612.4z M292.8,607.9l4-2.2l15.4,9.1l-4,2.2l-1-0.6
		c-0.3,1.2-1.2,2.3-2.6,3.1c-3.9,2.2-10.8,1.8-15.3-0.8s-4.9-6.6-1-8.7c1.5-0.8,3.4-1.3,5.4-1.4L292.8,607.9z M262.5,627l-2-1.2
		l-4.1,2.3l15.4,9.1l4.1-2.3l-7.2-4.3c-2.4-1.4-1.4-3.5,0.2-4.4l0,0l-4.5-2.6C262.9,624.5,262.2,625.9,262.5,627z M257.9,636.1
		c-2.2-1.3-5.6-1.4-7.6-0.3c-2,1.1-1.9,3.1,0.3,4.4c2.2,1.3,5.6,1.4,7.6,0.3C260.3,639.4,260.1,637.4,257.9,636.1L257.9,636.1z
		 M250.3,631.5l4-2.2l15.4,9.1l-4,2.2l-1-0.6c-0.3,1.2-1.1,2.2-2.6,3.1c-3.9,2.2-10.8,1.8-15.2-0.9c-4.5-2.7-4.9-6.6-1-8.8
		c1.5-0.8,3.4-1.3,5.4-1.4L250.3,631.5z M274.1,617.8c-1.6,0.9-2.6,2.1-2,3.6l-1.7-1l-4,2.2l15.4,9.1l4.1-2.3l-8.1-4.8
		c-2.3-1.4-2.1-2.8-0.5-3.7c1.8-1,4-0.8,6.3,0.5l8.1,4.8l4-2.2l-9.8-5.8C282.3,616.1,277.4,616,274.1,617.8L274.1,617.8z
		 M248.6,650.1l4.2-2.4l-22.2-13.2l-4.2,2.3L248.6,650.1z M230,660.5l4.5-2.5l-22.2-13.2l-4.5,2.5L230,660.5z M223.5,638.5
		c4.8,2.9,7.6,6.4,8,10l15.8,2.3l-5.5,3.1l-17.2-2.5l0.3-1.8c0.4-3-1.7-6.2-5.7-8.6L223.5,638.5L223.5,638.5z"/>
</g>
<linearGradient id="SVGID_20_" gradientUnits="userSpaceOnUse" x1="455.3" y1="456.25" x2="753.7" y2="456.25" gradientTransform="matrix(1 0 0 1 0 492)">
	<stop  offset="0" style="stop-color:#D3D8F2"/>
	<stop  offset="0.4521" style="stop-color:#E6E9F8"/>
	<stop  offset="0.9749" style="stop-color:#F7F9FD"/>
</linearGradient>
<rect x="455.3" y="883.1" class="st29" width="298.4" height="130.3"/>
<g>
	
		<linearGradient id="SVGID_21_" gradientUnits="userSpaceOnUse" x1="374.5" y1="342.3875" x2="598.7" y2="342.3875" gradientTransform="matrix(1 0 0 -1 0 1260)">
		<stop  offset="0.4247" style="stop-color:#E6EFF9"/>
		<stop  offset="0.536" style="stop-color:#C5D6E5"/>
		<stop  offset="0.5626" style="stop-color:#BDCFE0"/>
	</linearGradient>
	<path class="st30" d="M374.5,851.5v112.8c0,2.3,1.5,4.6,4.5,6.3l69.7,40.2c6,3.5,15.9,3.5,21.9,0L594.2,941c3-1.7,4.5-4,4.5-6.3
		V821.8L374.5,851.5z"/>
	<path class="st4" d="M379,857.8c-3-1.7-4.5-4-4.5-6.3s1.5-4.6,4.5-6.3l123.6-69.8c6-3.5,15.9-3.5,21.9,0l69.7,40.2
		c3,1.7,4.5,4,4.5,6.3s-1.5,4.6-4.5,6.3L470.5,898c-6,3.5-15.9,3.5-21.9,0L379,857.8z"/>
</g>
<g>
	<g>
		<g>
			<defs>
				<path id="SVGID_22_" d="M457.4,845.8c14.4,8.3,16.9,20.3,5.4,26.9c-2.7,1.5-5.9,2.6-9.5,3.3c9.3-2.3,14.2-8,11.6-14.8
					c-3.4-8.7-18.1-15.9-33-16.2l-2.5-6.7C438.9,838.6,449.2,841.1,457.4,845.8z M407.7,853.8c-2.6-7,3.1-12.9,13.1-14.8
					c-4.1,0.6-7.8,1.7-10.8,3.4c-11.9,6.5-9.8,18.7,5,27.1c8.4,4.8,19,7.4,28.7,7.4l-2.6-6.8C425.9,869.9,411,862.6,407.7,853.8z"/>
			</defs>
			<clipPath id="SVGID_23_">
				<use xlink:href="#SVGID_22_"  style="overflow:visible;"/>
			</clipPath>
			<g class="st31">
			</g>
		</g>
		<g>
			<defs>
				<path id="SVGID_24_" d="M457.4,845.8c14.4,8.3,16.9,20.3,5.4,26.9c-2.7,1.5-5.9,2.6-9.5,3.3c9.3-2.3,14.2-8,11.6-14.8
					c-3.4-8.7-18.1-15.9-33-16.2l-2.5-6.7C438.9,838.6,449.2,841.1,457.4,845.8z M407.7,853.8c-2.6-7,3.1-12.9,13.1-14.8
					c-4.1,0.6-7.8,1.7-10.8,3.4c-11.9,6.5-9.8,18.7,5,27.1c8.4,4.8,19,7.4,28.7,7.4l-2.6-6.8C425.9,869.9,411,862.6,407.7,853.8z"/>
			</defs>
			<clipPath id="SVGID_25_">
				<use xlink:href="#SVGID_24_"  style="overflow:visible;"/>
			</clipPath>
			<g class="st32">
			</g>
		</g>
	</g>
	<g>
		
			<linearGradient id="SVGID_26_" gradientUnits="userSpaceOnUse" x1="402.3297" y1="405.3871" x2="452.6386" y2="405.3871" gradientTransform="matrix(1 0 0 -1 0 1260)">
			<stop  offset="0" style="stop-color:#00ADEE"/>
			<stop  offset="0.1767" style="stop-color:#3BC0F2"/>
			<stop  offset="0.4009" style="stop-color:#80D6F7"/>
			<stop  offset="0.6035" style="stop-color:#B7E8FA"/>
			<stop  offset="0.7772" style="stop-color:#DEF4FD"/>
			<stop  offset="0.9151" style="stop-color:#F6FCFE"/>
			<stop  offset="1" style="stop-color:#FFFFFF"/>
		</linearGradient>
		<path class="st33" d="M440.6,870.1c-15-0.3-29.7-7.5-32.9-16.3c-2.6-7,3.1-12.9,13.1-14.8c-4.1,0.6-7.8,1.7-10.8,3.4
			c-8.2,4.4-9.7,11.6-5.1,18.4c0.4,0.3,0.8,0.5,1.3,0.8C422.4,871.3,437.9,870.3,440.6,870.1z"/>
	</g>
	<g>
		<g>
			<g>
				<defs>
					<path id="SVGID_27_" d="M457.4,845.8c14.4,8.3,16.9,20.3,5.4,26.9c-2.7,1.5-5.9,2.6-9.5,3.3c9.3-2.3,14.2-8,11.6-14.8
						c-3.4-8.7-18.1-15.9-33-16.2l-2.5-6.7C438.9,838.6,449.2,841.1,457.4,845.8z"/>
				</defs>
				<defs>
					<polygon id="SVGID_28_" points="1,1 2,1 1,2 					"/>
				</defs>
				<defs>
					<polygon id="SVGID_29_" points="-1,-1 -2,-1 -1,-2 					"/>
				</defs>
				<clipPath id="SVGID_30_">
					<use xlink:href="#SVGID_27_"  style="overflow:visible;"/>
				</clipPath>
				<clipPath id="SVGID_31_" class="st34">
					<use xlink:href="#SVGID_28_"  style="overflow:visible;"/>
				</clipPath>
				<clipPath id="SVGID_32_" class="st35">
					<use xlink:href="#SVGID_29_"  style="overflow:visible;"/>
				</clipPath>
				
					<linearGradient id="SVGID_33_" gradientUnits="userSpaceOnUse" x1="442.702" y1="387.2062" x2="458.9578" y2="408.9936" gradientTransform="matrix(1 0 0 -1 0 1260)">
					<stop  offset="0" style="stop-color:#000000"/>
					<stop  offset="8.587653e-02" style="stop-color:#080808"/>
					<stop  offset="0.2181" style="stop-color:#1D1D1D"/>
					<stop  offset="0.3803" style="stop-color:#414141"/>
					<stop  offset="0.566" style="stop-color:#727272"/>
					<stop  offset="0.7717" style="stop-color:#B1B1B1"/>
					<stop  offset="0.9913" style="stop-color:#FCFCFC"/>
					<stop  offset="1" style="stop-color:#FFFFFF"/>
				</linearGradient>
				<path class="st36" d="M431.9,845c0,0,16.7-2.2,34.3,8.5c17.6,10.6,9.4,17.3,9.4,17.3l-9.6,8.3l-15.6,5.8L431.9,845z"/>
			</g>
		</g>
		<g>
			<defs>
				<path id="SVGID_34_" d="M457.4,845.8c14.4,8.3,16.9,20.3,5.4,26.9c-2.7,1.5-5.9,2.6-9.5,3.3c9.3-2.3,14.2-8,11.6-14.8
					c-3.4-8.7-18.1-15.9-33-16.2l-2.5-6.7C438.9,838.6,449.2,841.1,457.4,845.8z"/>
			</defs>
			<clipPath id="SVGID_35_">
				<use xlink:href="#SVGID_34_"  style="overflow:visible;"/>
			</clipPath>
			
				<linearGradient id="SVGID_36_" gradientUnits="userSpaceOnUse" x1="441.4149" y1="391.2566" x2="456.209" y2="411.0847" gradientTransform="matrix(1 0 0 -1 0 1260)">
				<stop  offset="0" style="stop-color:#FFFFFF"/>
				<stop  offset="8.587653e-02" style="stop-color:#FFFFF7"/>
				<stop  offset="0.2181" style="stop-color:#FFFDE2"/>
				<stop  offset="0.3803" style="stop-color:#FFFBBE"/>
				<stop  offset="0.566" style="stop-color:#FFF98D"/>
				<stop  offset="0.7717" style="stop-color:#FFF54E"/>
				<stop  offset="0.9913" style="stop-color:#FFF103"/>
				<stop  offset="1" style="stop-color:#FFF100"/>
			</linearGradient>
			<path class="st37" d="M431.9,845c0,0,16.7-2.2,34.3,8.5c3.6,2.2,3.7,4.4,4.5,6.4c0.6,1.5-0.1,6.4-2.4,9.3
				c-2.3,2.9-5.9,4.8-9.7,6.1c-3.7,1.3-14,1.7-14,1.7L431.9,845z"/>
		</g>
	</g>
	<g>
		<path class="st38" d="M476.5,844l-0.3-0.6c-0.4-0.7,0.1-1.1,1.4-1.2c1.3-0.1,3.3-0.3,4.9-1.2c1.4-0.8,1.4-1.7,0.2-2.4
			c-3.3-1.9-9.9,3.2-16.9-0.8c-4-2.3-3.3-5,0.1-6.9c2.1-1.2,4.5-1.5,5.9-1.6c1.2-0.1,2.1,0.3,2.7,1l0.4,0.6c0.6,0.8,0.1,1.1-1.1,1.3
			c-1.1,0.2-2.7,0.4-4,1.1c-1.4,0.8-1.4,1.6-0.2,2.3c3.3,1.9,9.9-3.2,16.8,0.7c3.5,2,3.8,4.9,0.2,6.9c-2.6,1.4-5.5,1.7-7.4,1.8
			C477.8,845.3,476.9,844.8,476.5,844L476.5,844z"/>
		<path class="st38" d="M475.1,828.4c-1.3-0.5-1.7-1.2-0.8-1.7l1.5-0.8c0.8-0.4,1.7-0.4,2.8,0.1l14.2,5.3c1.2,0.5,2.4,1.1,2.4,1.1
			h0.1c0,0-0.9-0.7-1.8-1.4l-9-8.2c-0.8-0.6-0.8-1.2,0-1.6l1.2-0.6c0.8-0.4,1.7-0.4,2.8,0l14.2,5.3c1.3,0.5,2.5,1,2.5,1h0.1
			c0,0-0.9-0.7-1.8-1.4l-9.2-8.1c-0.8-0.7-0.8-1.2,0-1.6l1.4-0.8c0.9-0.5,2-0.3,2.9,0.5l12.7,11.8c0.7,0.7,0.7,1.2-0.1,1.6l-2,1.1
			c-0.8,0.4-1.7,0.4-2.8,0l-12.3-4.4c-1.3-0.5-2.5-1-2.5-1h-0.1c0,0,0.9,0.7,1.8,1.5l7.6,7.1c0.8,0.7,0.8,1.2,0,1.6l-2.1,1.2
			c-0.7,0.4-1.6,0.4-2.8,0L475.1,828.4L475.1,828.4z"/>
		<path class="st38" d="M500.7,814c-1.1-0.6-1.2-1.2-0.4-1.6l1.3-0.7c0.8-0.4,1.8-0.3,2.9,0.3l16.5,9.5c1.1,0.6,1.2,1.2,0.4,1.6
			l-1.3,0.7c-0.8,0.5-1.8,0.4-2.9-0.2L500.7,814L500.7,814z"/>
		<path class="st38" d="M521.4,818.8l-0.3-0.6c-0.4-0.7,0.1-1.1,1.3-1.2c1.2-0.1,3.2-0.3,4.7-1.1c1.3-0.7,1.3-1.6,0.1-2.3
			c-3.2-1.8-9.6,3.1-16.3-0.8c-3.9-2.2-3.3-4.9-0.1-6.7c2-1.1,4.3-1.4,5.7-1.5c1.1-0.1,2,0.3,2.6,1l0.4,0.6c0.6,0.7,0.1,1.1-1.1,1.3
			c-1,0.1-2.6,0.4-3.9,1.1c-1.3,0.7-1.4,1.5-0.1,2.3c3.3,1.9,9.5-3.1,16.2,0.8c3.5,2,3.8,4.8,0.3,6.7c-2.4,1.4-5.3,1.6-7.1,1.7
			C522.7,820,521.8,819.6,521.4,818.8L521.4,818.8z"/>
		<path class="st38" d="M512.8,798.6c-1-0.6-1.2-1.2-0.4-1.6l1.3-0.7c0.8-0.5,1.8-0.4,2.9,0.2l7.9,4.6c1,0.6,1.6,1,1.6,1h0.1
			c-1.1-1.5-1.3-3.7,1.3-5.2c3.3-1.8,7.5-1.6,12.7,1.4l10.9,6.3c1.1,0.6,1.2,1.2,0.4,1.6l-1.3,0.7c-0.8,0.5-1.8,0.4-2.8-0.2l-10-5.7
			c-2.4-1.4-4.5-2-6.3-1c-2.6,1.5-1.6,4,2.2,6.2l7.5,4.3c1.1,0.6,1.2,1.2,0.4,1.6l-1.3,0.7c-0.8,0.4-1.8,0.4-2.9-0.2L512.8,798.6
			L512.8,798.6z"/>
		<path class="st38" d="M534.1,790.4c0.3-0.2,0.3-0.5-0.2-0.7c-0.4-0.3-0.9-0.3-1.2-0.1l-0.5,0.3l1.4,0.8L534.1,790.4L534.1,790.4z
			 M531.2,790.1c-0.3-0.1-0.3-0.3-0.1-0.4l1-0.6c0.6-0.3,1.6-0.3,2.4,0.2c0.7,0.4,0.7,0.8,0.5,1l0,0c0,0,0.1,0,0.4,0.1l1.6,0.4
			c0.4,0.1,0.5,0.2,0.3,0.3l-0.1,0.1c-0.2,0.1-0.4,0.1-0.6,0l-1.9-0.5l-0.6,0.3l1.3,0.8c0.2,0.1,0.3,0.3,0.1,0.4h-0.1
			c-0.2,0.1-0.4,0.1-0.6-0.1L531.2,790.1L531.2,790.1z M537.6,792.5c1.4-0.8,1-2.3-0.9-3.4c-1.9-1.1-4.5-1.4-6-0.6
			c-1.4,0.8-1,2.2,0.9,3.4C533.6,793,536.2,793.3,537.6,792.5L537.6,792.5z M529.9,788.1c1.8-1,5.1-0.7,7.4,0.7
			c2.3,1.4,2.8,3.2,1,4.2c-1.7,1-5,0.7-7.4-0.7C528.6,790.9,528.2,789,529.9,788.1L529.9,788.1z"/>
	</g>
</g>
<g>
	<path class="st39" d="M881.2,172.3l11.4-6.3c6.1-3.4,12.1-2.8,17.3,0.2c8.6,4.9,9.2,10,3.1,13.4l-3,1.7c-0.8,0.5-0.7,1.1,0.9,2.2
		l9.4,6.2c0.6,0.4,0.7,0.8,0.3,1.1l-7.2,4.1c-0.7,0.4-1.6,0.2-2.8-0.6l-29.3-19.8C880,173.6,880,173,881.2,172.3z"/>
	<path class="st40" d="M929.4,144.8c3.7-2.1,9.7-2.8,15.6,0.5c7,4,8,7.8,2.9,10.7l-4.5,2.5c-0.6,0.4-0.3,0.9,0.9,1.6l6.1,3.9
		c0.9,0.6,1,1.1,0.4,1.4l-4.2,2.4c-0.7,0.4-1.4,0.2-2.5-0.4L920,152c-1.2-0.8-1.3-1.2-0.5-1.6L929.4,144.8L929.4,144.8z
		 M937.3,155.7l3.4-1.9c2-1.2,1.6-2.9-1.6-4.6c-2-1-4.5-1.1-6.2-0.1l-3.2,1.8L937.3,155.7L937.3,155.7z M976.5,148.8
		c-0.1-0.4,0.1-0.7,0.6-0.5l1.2,0.7c0.6,0.4,1.2,0.4,1.7,0.1l3.7-2.1c0.6-0.3,0.6-0.7-0.5-1.3l-15.9-9.8c-0.8-0.5-1.4-0.6-1.9-0.3
		l-4,2.2c-0.4,0.2-0.3,0.4,0.3,0.8l1,0.6c0.5,0.3,0.4,0.5-0.4,0.3c-2.7-0.6-5.4-0.1-7.7,1.3c-5.5,3.2-3.9,8,2.7,11.6
		c5.1,2.8,12.5,3.1,16.5,0.9C976.5,151.7,976.7,150.4,976.5,148.8L976.5,148.8z M970.6,149.2c-2.4,1.4-6.6,1.1-9.3-0.5
		c-2.7-1.7-2.9-4.1-0.4-5.5c2.4-1.4,6.6-1.1,9.3,0.5C972.8,145.4,973,147.8,970.6,149.2L970.6,149.2z M972.8,131.3l-3.7,2
		c-0.8,0.4-0.4,0.9,0.8,1.2l21.9,5.6l3.8,6.5c0.3,0.5,1.3,0.7,1.8,0.4l4.1-2.4c0.6-0.4,0.7-0.6,0.4-1.1l-12.3-20
		c-0.4-0.6-1.4-0.9-2.1-0.5l-3.9,2.2c-0.7,0.4-0.6,0.7-0.3,1.2l5.2,8.4l-13.6-3.7C974.3,130.9,973.5,130.9,972.8,131.3z"/>
	<path class="st39" d="M992,110c3.6-2,9.5-2.7,15.5,0.4c7.1,3.8,8.3,7.4,3.4,10.2l-4.3,2.4c-0.6,0.3-0.3,0.8,1,1.5l6.2,3.7
		c0.9,0.6,1.1,1,0.4,1.4l-4,2.3c-0.6,0.4-1.4,0.2-2.5-0.4L983,116.9c-1.2-0.7-1.3-1.2-0.6-1.6L992,110L992,110z M1000.4,120.4
		l3.3-1.8c1.9-1.2,1.4-2.8-1.8-4.4c-2-1-4.5-1.1-6.2-0.1l-3,1.7L1000.4,120.4L1000.4,120.4z M1038.8,113.6c-0.1-0.4,0.1-0.7,0.6-0.4
		l1.2,0.7c0.6,0.3,1.2,0.4,1.7,0.1l3.5-2c0.6-0.3,0.6-0.6-0.5-1.3l-16.2-9.3c-0.8-0.5-1.4-0.6-1.9-0.3l-3.9,2.2
		c-0.3,0.2-0.3,0.4,0.4,0.8l1,0.6c0.5,0.3,0.4,0.5-0.4,0.3c-2.7-0.6-5.3,0-7.6,1.3c-5.3,3.1-3.5,7.6,3.2,11
		c5.2,2.7,12.5,2.9,16.4,0.7C1039,116.4,1039.2,115.2,1038.8,113.6L1038.8,113.6z M1033,114c-2.3,1.3-6.5,1.1-9.2-0.5
		s-3-3.9-0.7-5.2c2.3-1.3,6.5-1.1,9.2,0.4C1035,110.3,1035.4,112.7,1033,114L1033,114z M1054.4,107.1l-4,2.3
		c-0.3,0.2-0.9,0.2-1.3-0.1L1022.3,94c-0.4-0.2-0.4-0.5-0.1-0.7l4-2.2c0.3-0.2,0.9-0.2,1.2,0.1l26.9,15.3
		C1054.7,106.6,1054.7,106.9,1054.4,107.1z"/>
	<path class="st40" d="M862.7,170.4l11.4-6.3c3.2-1.8,7.1-3.8,12.3-3.8c3.5,0,7.2,0.9,10.1,2.6c9.8,5.7,10.6,11.6,3.6,15.5l-5.6,3.2
		c-1,0.5-0.8,1.3,1,2.5l10.7,7.2c0.7,0.5,0.9,0.9,0.4,1.2l-7.1,4c-0.8,0.4-1.8,0.2-3.2-0.7l-33.6-22.9
		C861.3,172,861.3,171.2,862.7,170.4z"/>
	<path class="st41" d="M894.4,183.3l-13.2-8.9c-1.2-0.8-1.2-1.4,0-2.1l11.4-6.3c1.9-1,3.7-1.7,5.6-2c8.2,5.4,8.5,10.8,1.9,14.5
		l-5.6,3.2C893.6,182,893.5,182.5,894.4,183.3z"/>
</g>
<linearGradient id="SVGID_37_" gradientUnits="userSpaceOnUse" x1="662.6" y1="572.2" x2="816.2" y2="572.2" gradientTransform="matrix(1 0 0 1 0 492)">
	<stop  offset="0" style="stop-color:#D3D8F2"/>
	<stop  offset="0.4521" style="stop-color:#E6E9F8"/>
	<stop  offset="0.9749" style="stop-color:#F7F9FD"/>
</linearGradient>
<rect x="662.6" y="1032.1" class="st42" width="153.6" height="64.2"/>
<g>
	
		<linearGradient id="SVGID_38_" gradientUnits="userSpaceOnUse" x1="608.9" y1="215.375" x2="717.3625" y2="215.375" gradientTransform="matrix(1 0 0 -1 0 1260)">
		<stop  offset="0.4247" style="stop-color:#BFE9FC"/>
		<stop  offset="0.4739" style="stop-color:#9ED3F4"/>
		<stop  offset="0.5626" style="stop-color:#6154F9"/>
	</linearGradient>
	<path class="st43" d="M608.9,993.1v71.8c0,1.5,1,2.9,2.9,4l44.4,25.6c3.8,2.2,10.1,2.2,14,0l44.4-25.6c1.9-1.1,2.9-2.6,2.9-4v-71.8
		L608.9,993.1L608.9,993.1z"/>
	<path class="st2" d="M611.8,997.2c-1.9-1.1-2.9-2.6-2.9-4c0-1.5,1-2.9,2.9-4l44.4-25.6c3.8-2.2,10.1-2.2,14,0l44.4,25.6
		c1.9,1.1,2.9,2.6,2.9,4c0,1.5-1,2.9-2.9,4l-44.4,25.6c-3.8,2.2-10.1,2.2-14,0L611.8,997.2z"/>
</g>
</svg>
