<?xml version="1.0" encoding="utf-8"?>
<!-- Generator: Adobe Illustrator 25.2.0, SVG Export Plug-In . SVG Version: 6.00 Build 0)  -->
<svg version="1.1" id="Layer_1" xmlns="http://www.w3.org/2000/svg" xmlns:xlink="http://www.w3.org/1999/xlink" x="0px" y="0px"
	 viewBox="0 0 68 87" style="enable-background:new 0 0 68 87;" xml:space="preserve">
<style type="text/css">
	.st0{fill:#362F4A;}
	.st1{fill:#6154F9;}
	.st2{fill:#FFFFFF;}
</style>
<path class="st0" d="M0,30.8L0,30.8c0-0.1,0.1-0.1,0.1-0.2c0.2-1,0.5-2,0.6-3c0.4-2.1,0.7-4.1,1-6.2c0.5-3.1,1.3-6.2,2.4-9.2
	c0.3-0.8,0.6-1.6,1.1-2.3c1-1.5,2.5-2.6,4.2-3.2c2.3-0.9,4.7-1.8,7-2.7c1.8-0.7,3.5-1.4,5.2-2.2c0.1-0.1,0.2-0.2,0.3-0.2
	c0.3-0.1,0.5-0.2,0.7-0.5c0.1-0.2,0.3-0.4,0.5-0.5c0.3-0.2,0.6-0.3,0.9-0.4s0.7-0.1,1,0.2c0.1,0.1,0.3,0.3,0.5,0.3
	C26,1,26.5,1.3,27,1.4c2.2,0.6,4.4,0.8,6.7,0.8c1.9,0,3.8-0.2,5.7-0.6C41,1.4,42.6,0.9,44,0c0.1,0.1,0.3,0.1,0.4,0.2
	c0.2,0.2,0.4,0.3,0.6,0.5c0.1,0.1,0.3,0.2,0.3,0.3c0.2,0.2,0.4,0.4,0.6,0.5c0.1,0,0.2,0.1,0.1,0.2c-0.1,0.1,0,0.2,0.1,0.2
	c0.2,0.1,0.4,0.2,0.6,0.3c3.1,1.2,6.2,2.4,9.3,3.7c1.1,0.5,2.3,0.8,3.4,1.4c1.5,0.9,2.6,2,3.3,3.6c0.4,1,0.8,2,1.2,3.1
	c1,2.8,1.5,5.8,2,8.8c0.4,2.6,0.8,5.3,1.4,7.9c0,0.1,0,0.2-0.1,0.2C67.1,31,67,31,66.8,31.1c-1.3,0.3-2.5,0.7-3.8,1
	c-1.1,0.3-2.2,0.7-3.2,1c-1.1,0.3-2.2,0.5-3.4,0.4c-0.5,0-1-0.2-1.5-0.5c-0.2-0.1-0.4-0.2-0.3-0.5c0,0.1-0.1,0.1-0.1,0.2
	c0,0.6,0,1.1-0.1,1.7c0,1,0,2-0.1,3c0,0.5-0.3,1-0.4,1.6c-0.1,0.8-0.2,1.6-0.3,2.4c-0.1,1.4-0.2,2.8-0.3,4.2
	c-0.1,1.5-0.1,3.1-0.2,4.6c0,0.6,0,1.2,0.1,1.8c0.1,1.1,0.3,2.1,0.4,3.2c0.1,1.1,0.2,2.1,0.3,3.2c0.4,2.8,0.7,5.6,0.8,8.5
	c0.1,1,0,2,0.1,2.9c0.1,1.4,0.4,2.7,0.8,3.9c0.1,0.3,0.2,0.5,0.2,0.8c0.1,0.7,0.1,1.4,0.2,2.1c0.1,1.4,0.3,2.9,0.4,4.3
	c0.1,0.9,0.1,1.9,0.2,2.8c0,0.1,0,0.3-0.2,0.3c-0.5,0.2-0.9,0.5-1.4,0.7c-2.1,0.9-4.2,1.2-6.4,1.5c-1.7,0.2-3.4,0.3-5.1,0.4
	c-1.4,0.1-2.9,0.1-4.3,0.2c-1.3,0.1-2.7,0.1-4,0.2c-3.1,0.1-6.1-0.1-9.2-0.3c-1.9-0.1-3.9-0.2-5.8-0.3c-1.7-0.1-3.4-0.4-5-0.7
	c-1.4-0.3-2.7-0.7-3.9-1.4c-0.4-0.2-0.5-0.5-0.5-0.8c0,0,0,0,0-0.1c0.1-1.2,0.1-2.4,0.2-3.5c0.1-1.3,0.3-2.7,0.5-4
	c0.1-0.7,0.2-1.4,0.3-2.1c0.2-1,0.5-2.1,0.7-3.1c0.1-0.5,0-1,0.1-1.6c0.1-1.3,0.1-2.6,0.2-3.9c0.1-1.4,0.3-2.9,0.4-4.4
	c0.1-1.1,0.3-2.2,0.4-3.3c0.1-1.3,0.3-2.7,0.4-4c0.1-0.7,0.2-1.5,0.2-2.2c0-1.3-0.1-2.6-0.1-4c-0.1-2.1-0.2-4.2-0.3-6.4
	c0-0.5-0.1-1-0.2-1.6c-0.1-0.3-0.2-0.7-0.2-1c0-1.1,0-2.3,0-3.4c0-0.8-0.1-1.7-0.3-2.6c-0.1,0.1-0.3,0.2-0.3,0.3
	c0,0.3-0.2,0.4-0.4,0.5c-0.5,0.3-1.1,0.4-1.7,0.4c-1.6,0-3.1-0.3-4.6-0.8c-1.7-0.5-3.3-1.1-5.1-1.5C0.8,31.1,0.4,30.9,0,30.8z"/>
<path class="st1" d="M43.6,24.9c0.3-0.4,0.3-1,0-1.4l-2.9-4.2c-0.3-0.4-0.9-0.7-1.3-0.7h-9c-0.5,0-0.6,0.3-0.4,0.7l2.7,4.2
	c0.3,0.4,0.3,1,0,1.4L30,29.1c-0.3,0.4-0.1,0.7,0.4,0.7h9c0.5,0,1.1-0.3,1.3-0.7L43.6,24.9z M35.4,27.1c-0.5,0-0.6-0.3-0.4-0.7
	l1-1.5c0.3-0.4,0.3-1,0-1.4L35,22c-0.3-0.4-0.1-0.7,0.4-0.7H38c0.5,0,1.1,0.3,1.3,0.7l1,1.5c0.3,0.4,0.3,1,0,1.4l-1,1.5
	c-0.3,0.4-0.9,0.7-1.3,0.7H35.4L35.4,27.1z"/>
<path class="st2" d="M26.5,21.1c-0.5,0-0.8-0.2-0.8-0.6s0.4-0.6,0.8-0.6h2.4c0.5,0,0.8,0.2,0.8,0.6s-0.4,0.6-0.8,0.6H26.5z"/>
<path class="st2" d="M26.5,28.5c-0.5,0-0.8-0.2-0.8-0.6s0.4-0.6,0.8-0.6h2.4c0.5,0,0.8,0.2,0.8,0.6s-0.4,0.6-0.8,0.6H26.5z"/>
<path class="st2" d="M26.5,24.8c-0.5,0-0.8-0.2-0.8-0.6s0.4-0.6,0.8-0.6h4.4c0.5,0,0.8,0.2,0.8,0.6s-0.4,0.6-0.8,0.6H26.5z"/>
</svg>
