<svg width="152" height="152" viewBox="0 0 152 152" fill="none" xmlns="http://www.w3.org/2000/svg">
<g clip-path="url(#clip0_1160_3298)">
<path d="M0 39.2258C0 17.562 17.562 0 39.2258 0H112.774C134.438 0 152 17.562 152 39.2258V112.774C152 134.438 134.438 152 112.774 152H39.2258C17.562 152 0 134.438 0 112.774V39.2258Z" fill="#5754F9"/>
<path d="M93.4135 127.907C92.6553 127.318 91.9946 126.611 91.4558 125.814L87.1535 120.095C83.5134 121.267 79.707 121.831 75.8855 121.765C64.0029 121.765 54.6622 118.833 47.8635 112.97C41.0648 107.106 37.4606 98.5046 37.0508 87.1659C36.9256 84.7067 36.9256 81.0695 36.9256 76.2313C36.9256 71.3931 36.9256 67.6301 37.0508 65.1709C37.3923 53.9847 41.042 45.3606 48.0001 39.2985C54.9582 33.2365 64.2533 30.2245 75.8855 30.2627C87.5329 30.2627 96.8545 33.2746 103.851 39.2985C110.847 45.3225 114.515 53.9466 114.857 65.1709C115.031 70.0892 115.115 73.776 115.107 76.2313C115.1 78.6866 115.016 82.3315 114.857 87.1659C114.515 97.5972 111.48 105.733 105.751 111.574L114.982 124.796C115.198 125.187 115.326 125.62 115.358 126.066V126.34C115.36 126.664 115.294 126.983 115.165 127.279C115.035 127.575 114.845 127.84 114.606 128.056C114.123 128.506 113.489 128.755 112.831 128.754H96.2589C95.243 128.799 94.2413 128.501 93.4135 127.907ZM87.0055 99.2442C89.7447 96.4534 91.1978 92.1718 91.3647 86.3995C91.4937 81.4965 91.5582 78.0347 91.5582 76.014C91.5582 73.8065 91.4672 70.2951 91.2964 65.5941C91.1447 59.8066 89.7144 55.5136 87.0055 52.7151C84.2966 49.9167 80.59 48.5327 75.8855 48.5632C73.873 48.4687 71.8628 48.7928 69.9807 49.5151C68.0986 50.2374 66.3851 51.3424 64.9476 52.7609C62.2008 55.5365 60.7439 59.8028 60.577 65.5598C60.5011 67.9541 60.4594 71.4389 60.4518 76.014C60.4442 80.5891 60.4859 84.0624 60.577 86.4338C60.7439 92.1985 62.178 96.4801 64.8793 99.2785C67.5806 102.077 71.2493 103.472 75.8855 103.465C80.5293 103.465 84.2359 102.058 87.0055 99.2442Z" fill="white"/>
</g>
<defs>
<clipPath id="clip0_1160_3298">
<rect width="152" height="152" fill="white"/>
</clipPath>
</defs>
</svg>
