<?xml version="1.0" encoding="utf-8"?>
<!-- Generator: Adobe Illustrator 25.2.1, SVG Export Plug-In . SVG Version: 6.00 Build 0)  -->
<svg version="1.1" id="Layer_1" xmlns="http://www.w3.org/2000/svg" xmlns:xlink="http://www.w3.org/1999/xlink" x="0px" y="0px"
	 viewBox="0 0 439 315" style="enable-background:new 0 0 439 315;" xml:space="preserve">
<style type="text/css">
	.st0{fill:#302b40;}
	.st1{fill:url(#SVGID_1_);}
	.st2{fill:#BDCFE0;}
	.st3{opacity:0.1;fill:#6154F9;enable-background:new    ;}
	.st4{opacity:0.2;fill:#6154F9;enable-background:new    ;}
	.st5{fill:url(#SVGID_2_);}
	.st6{fill:url(#SVGID_3_);}
	.st7{fill:url(#SVGID_4_);stroke:#302b40;stroke-width:0.25;stroke-miterlimit:10;}
	.st8{fill:#302b40;stroke:#302b40;stroke-width:0.75;stroke-miterlimit:10;}
	.st9{fill:#B5B5B5;}
	.st10{clip-path:url(#SVGID_6_);enable-background:new    ;}
	.st11{clip-path:url(#SVGID_8_);enable-background:new    ;}
	.st12{fill:#FFFFFF;}
	.st13{enable-background:new    ;}
	.st14{clip-path:url(#SVGID_10_);enable-background:new    ;}
	.st15{fill:#302b40;}
	.st16{fill:#302b40;}
	.st17{fill:#302b40;}
	.st18{fill:#302b40;}
	.st19{fill:#302b40;}
	.st20{fill:#302b40;}
	.st21{fill:#302b40;}
	.st22{fill:#302b40;}
	.st23{clip-path:url(#SVGID_12_);enable-background:new    ;}
	.st24{fill:#8F8F8F;}
	.st25{fill:#949494;}
	.st26{fill:#999999;}
	.st27{fill:#9E9E9E;}
	.st28{fill:#A3A3A3;}
	.st29{fill:#A8A8A8;}
	.st30{fill:#8A8A8A;}
	.st31{fill:#858585;}
	.st32{fill:#E7E7E7;}
	.st33{clip-path:url(#SVGID_14_);enable-background:new    ;}
	.st34{clip-path:url(#SVGID_16_);enable-background:new    ;}
	.st35{clip-path:url(#SVGID_18_);enable-background:new    ;}
	.st36{clip-path:url(#SVGID_20_);enable-background:new    ;}
	.st37{fill:#223B50;}
	.st38{clip-path:url(#SVGID_22_);enable-background:new    ;}
	.st39{clip-path:url(#SVGID_24_);enable-background:new    ;}
	.st40{clip-path:url(#SVGID_26_);enable-background:new    ;}
	.st41{clip-path:url(#SVGID_28_);enable-background:new    ;}
	.st42{clip-path:url(#SVGID_30_);enable-background:new    ;}
	.st43{clip-path:url(#SVGID_32_);enable-background:new    ;}
	.st44{clip-path:url(#SVGID_34_);enable-background:new    ;}
	.st45{clip-path:url(#SVGID_36_);enable-background:new    ;}
	.st46{fill:#302b409;}
	.st47{fill:#302b409;}
	.st48{fill:#302b409;}
	.st49{fill:#302b409;}
	.st50{fill:#302b409;}
	.st51{fill:#302b409;}
	.st52{fill:#302b409;}
	.st53{fill:#302b409;}
	.st54{fill:#6154F9;}
	.st55{clip-path:url(#SVGID_38_);enable-background:new    ;}
	.st56{clip-path:url(#SVGID_40_);enable-background:new    ;}
	.st57{clip-path:url(#SVGID_42_);enable-background:new    ;}
</style>
<path class="st0" d="M344.3,278.2c1.9,1.1,2,3,0,4.1l-54.6,31.5c-1.9,1.1-5.1,1.1-7,0l-36.6-23.3c-1.9-1.1-2-3,0-4.1l54.6-31.5
	c1.9-1.1,5.1-1.1,7,0L344.3,278.2z"/>
<path class="st0" d="M120.1,239.8c2.2,1.3,2.2,3.4,0,4.7l-62.9,36.3c-2.2,1.3-5.9,1.3-8.1,0L6.9,254c-2.2-1.3-2.3-3.4,0-4.7
	L69.8,213c2.2-1.3,5.9-1.3,8.1,0L120.1,239.8z"/>
<path class="st0" d="M437.5,175.8c1.1,0.7,1.1,1.7,0,2.4l-31.8,18.3c-1.1,0.7-3,0.7-4.1,0L380.4,183c-1.1-0.7-1.1-1.7,0-2.4
	l31.8-18.3c1.1-0.7,3-0.7,4.1,0L437.5,175.8z"/>
<path class="st0" d="M58,188.6c1.1,0.7,1.1,1.7,0,2.4l-31.8,18.3c-1.1,0.7-3,0.7-4.1,0L0.9,195.8c-1.1-0.7-1.1-1.7,0-2.4l31.8-18.3
	c1.1-0.7,3-0.7,4.1,0L58,188.6z"/>
<path class="st0" d="M379.9,138.2c8.7,5,8.7,13.1,0.1,18.1l-155.9,90.6c-8.6,5-22.6,5-31.3,0L35.9,156.3c-8.7-5-8.7-13.1-0.1-18.1
	l155.9-90.6c8.6-5,22.6-5,31.3,0L379.9,138.2z"/>
<linearGradient id="SVGID_1_" gradientUnits="userSpaceOnUse" x1="207.05" y1="-668.75" x2="207.05" y2="-461.75" gradientTransform="matrix(1 0 0 -1 0 -448)">
	<stop  offset="0" style="stop-color:#FFFFFF"/>
	<stop  offset="0.4982" style="stop-color:#FCFDFF"/>
	<stop  offset="0.7974" style="stop-color:#F4F7FF"/>
	<stop  offset="1" style="stop-color:#E9EEFF"/>
</linearGradient>
<path class="st1" d="M379.3,108.2c8.7,5,8.7,13.1,0.1,18.1L223.3,217c-8.6,5-22.7,5-31.3,0L34.8,126.4c-8.7-5-8.7-13.1-0.1-18.2
	l156.1-90.7c8.6-5,22.6-5,31.3,0L379.3,108.2z"/>
<path class="st2" d="M385.8,115.1c0,0.1,0,0.1,0,0.2s-0.1,0.3-0.1,0.4c0.9,3.8-1.2,7.8-6.2,10.7l-156.1,90.7c-8.6,5-22.7,5-31.3,0
	L34.8,126.4c-4.3-2.5-6.5-5.8-6.5-9.1v3.8c0,3.3,2.2,6.6,6.5,9.1L192,220.9c0.5,0.3,1.1,0.6,1.6,0.8c0.2,0.1,0.4,0.2,0.6,0.2
	c0.3,0.1,0.7,0.3,1,0.4c0.1,0,0.1,0,0.2,0.1c0.1,0,0.3,0.1,0.4,0.1c0.4,0.2,0.9,0.3,1.3,0.5c0.2,0,0.3,0.1,0.5,0.1
	c0.1,0,0.2,0.1,0.3,0.1c0.2,0.1,0.4,0.1,0.6,0.1c0.5,0.1,0.9,0.2,1.4,0.3c0.1,0,0.2,0.1,0.4,0.1s0.4,0.1,0.6,0.1
	c0.4,0.1,0.8,0.1,1.2,0.2c0.2,0,0.3,0.1,0.5,0.1s0.3,0,0.5,0.1c0.4,0,0.7,0.1,1.1,0.1c0.2,0,0.4,0,0.5,0.1c0.2,0,0.3,0,0.5,0
	c0.4,0,0.7,0,1.1,0.1c0.2,0,0.4,0,0.6,0c0.2,0,0.3,0,0.4,0c0.4,0,0.8,0,1.2,0c0.2,0,0.4,0,0.6,0c0.1,0,0.2,0,0.4,0
	c0.5,0,1-0.1,1.5-0.1c0.2,0,0.4,0,0.6,0c0.1,0,0.2,0,0.3,0c0.2,0,0.3,0,0.4-0.1c0.5-0.1,1-0.1,1.5-0.2c0.1,0,0.3,0,0.4-0.1
	c0.1,0,0.1,0,0.2,0c0.2,0,0.5-0.1,0.7-0.2c0.4-0.1,0.8-0.2,1.2-0.3c0.3-0.1,0.6-0.2,0.9-0.2c0.4-0.1,0.8-0.2,1.1-0.3
	c0.1,0,0.2,0,0.2-0.1c0.5-0.1,0.9-0.3,1.3-0.5c0.1,0,0.1-0.1,0.2-0.1c0.5-0.2,1-0.4,1.4-0.6c0.1-0.1,0.3-0.1,0.4-0.2
	c0.5-0.2,1-0.5,1.5-0.8L379.4,130c0.1-0.1,0.2-0.1,0.3-0.2c0.4-0.2,0.8-0.5,1.1-0.7c0.1,0,0.1-0.1,0.2-0.1c0.4-0.3,0.8-0.6,1.1-0.9
	c0.1,0,0.1-0.1,0.2-0.1c0.1-0.1,0.1-0.1,0.2-0.2c0.3-0.3,0.5-0.5,0.8-0.8c0.1-0.1,0.1-0.1,0.1-0.2c0.1-0.2,0.3-0.3,0.4-0.5
	c0.1-0.1,0.2-0.3,0.3-0.4l0.1-0.1c0.2-0.3,0.3-0.5,0.5-0.8c0-0.1,0.1-0.2,0.1-0.3c0-0.1,0.1-0.1,0.1-0.2c0.1-0.3,0.3-0.6,0.4-0.8
	c0-0.1,0-0.1,0.1-0.2c0-0.1,0-0.1,0.1-0.2c0.1-0.3,0.2-0.6,0.2-0.9c0-0.1,0-0.1,0-0.2s0-0.1,0-0.2c0-0.3,0.1-0.6,0.1-0.9
	c0-0.1,0-0.1,0-0.2v-7.2C385.9,114.3,385.8,114.7,385.8,115.1z"/>
<path class="st2" d="M385.8,118.3c0,0.1,0,0.1,0,0.2s-0.1,0.3-0.1,0.4c0.9,3.8-1.2,7.8-6.2,10.7l-156.1,90.7c-8.6,5-22.7,5-31.3,0
	L34.8,129.6c-4.3-2.5-6.5-5.8-6.5-9.1v3.8c0,3.3,2.2,6.6,6.5,9.1L192,224.1c0.5,0.3,1.1,0.6,1.6,0.8c0.2,0.1,0.4,0.2,0.6,0.3
	c0.3,0.1,0.7,0.3,1,0.4c0.1,0,0.1,0,0.2,0.1c0.1,0,0.3,0.1,0.4,0.1c0.4,0.2,0.9,0.3,1.3,0.5c0.2,0,0.3,0.1,0.5,0.1
	c0.1,0,0.2,0.1,0.3,0.1c0.2,0.1,0.4,0.1,0.6,0.1c0.5,0.1,0.9,0.2,1.4,0.3c0.1,0,0.2,0.1,0.4,0.1s0.4,0.1,0.6,0.1
	c0.4,0.1,0.8,0.1,1.2,0.2c0.2,0,0.3,0.1,0.5,0.1s0.3,0,0.5,0.1c0.4,0,0.7,0.1,1.1,0.1c0.2,0,0.3,0,0.5,0.1c0.2,0,0.3,0,0.5,0
	c0.4,0,0.7,0,1.1,0.1c0.2,0,0.4,0,0.6,0c0.2,0,0.3,0,0.4,0c0.4,0,0.8,0,1.2,0c0.2,0,0.4,0,0.6,0c0.1,0,0.2,0,0.4,0
	c0.5,0,1-0.1,1.5-0.1c0.2,0,0.4,0,0.6,0c0.1,0,0.2,0,0.3,0c0.2,0,0.3,0,0.5-0.1c0.5-0.1,1-0.1,1.5-0.2c0.1,0,0.3,0,0.4-0.1
	c0.1,0,0.1,0,0.2,0c0.2,0,0.5-0.1,0.7-0.2c0.4-0.1,0.8-0.2,1.2-0.3c0.3-0.1,0.6-0.2,0.9-0.2c0.4-0.1,0.8-0.2,1.1-0.3
	c0.1,0,0.2,0,0.2-0.1c0.5-0.1,0.9-0.3,1.3-0.5c0.1,0,0.1-0.1,0.2-0.1c0.5-0.2,1-0.4,1.4-0.6c0.1-0.1,0.3-0.1,0.4-0.2
	c0.5-0.2,1-0.5,1.5-0.8l156.1-90.7c0.1-0.1,0.2-0.1,0.3-0.2c0.4-0.2,0.8-0.5,1.1-0.7c0.1,0,0.1-0.1,0.2-0.1c0.4-0.3,0.8-0.6,1.1-0.9
	c0.1,0,0.1-0.1,0.2-0.1c0.1-0.1,0.1-0.1,0.2-0.2c0.3-0.3,0.5-0.5,0.8-0.8c0.1-0.1,0.1-0.1,0.1-0.2c0.1-0.2,0.3-0.3,0.4-0.5
	c0.1-0.1,0.2-0.3,0.3-0.4l0.1-0.1c0.2-0.3,0.3-0.5,0.5-0.8c0-0.1,0.1-0.2,0.1-0.3c0-0.1,0.1-0.1,0.1-0.2c0.1-0.3,0.3-0.6,0.4-0.8
	c0-0.1,0-0.1,0.1-0.2c0-0.1,0-0.1,0.1-0.2c0.1-0.3,0.2-0.6,0.2-0.9c0-0.1,0-0.1,0-0.2s0-0.1,0-0.2c0-0.3,0.1-0.6,0.1-0.9
	c0-0.1,0-0.1,0-0.2V117C385.9,117.6,385.8,117.9,385.8,118.3z"/>
<path class="st3" d="M75.1,124.1L196,194.4c5.1,3,13.5,3,18.7,0l121.7-70.2c4.1-2.4,4.9-5.9,2.6-8.7c-0.2-0.2-0.4-0.4-0.6-0.6
	c-0.5-0.5-1.2-1-2-1.5L215.5,43.1c-5.1-3-13.5-3-18.7,0L75.2,113.3c-0.8,0.5-1.5,1-2,1.5c-0.2,0.2-0.4,0.4-0.6,0.7
	C70.3,118.3,71.1,121.8,75.1,124.1z"/>
<path class="st0" d="M336.3,100.1l-121.7,70.2c-5.2,3-13.5,3-18.7,0L75.2,100c-4.2-2.4-4.9-6.1-2.3-9l0,0l6.4-6.9l8.7-9.5l2.2-2.4
	l14.3-15.5c-1.8,2.1-1.1,4.8,1.9,6.6l92,53.4c3.9,2.3,10.3,2.3,14.2,0l92.6-53.4c3.1-1.8,3.8-4.5,2-6.6l14.2,15.5l2.2,2.4l8.8,9.5
	l6.4,6.9C341.3,93.9,340.6,97.6,336.3,100.1z"/>
<path class="st4" d="M323.5,74.6l-108.9,62.9c-5.2,3-13.5,3-18.7,0L88,74.7l2.2-2.4l14.3-15.5c-1.8,2.1-1.1,4.8,1.9,6.6l92,53.4
	c3.9,2.3,10.3,2.3,14.2,0l92.6-53.4c3.1-1.8,3.8-4.5,2-6.6l14.2,15.5L323.5,74.6z"/>
<linearGradient id="SVGID_2_" gradientUnits="userSpaceOnUse" x1="90.2" y1="-544.425" x2="321.3" y2="-544.425" gradientTransform="matrix(1 0 0 -1 0 -448)">
	<stop  offset="0.1028" style="stop-color:#DDEAF7"/>
	<stop  offset="0.3774" style="stop-color:#FFFFFF"/>
	<stop  offset="0.7098" style="stop-color:#EAF2FA"/>
	<stop  offset="1" style="stop-color:#DDEAF7"/>
</linearGradient>
<path class="st5" d="M321.3,72.2l-106.6,61.6c-5.2,3-13.5,3-18.7,0L90.2,72.3l14.3-15.5c-1.8,2.1-1.1,4.8,1.9,6.6l92,53.4
	c3.9,2.3,10.3,2.3,14.2,0l92.6-53.4c3.1-1.8,3.8-4.5,2-6.6L321.3,72.2z"/>
<linearGradient id="SVGID_3_" gradientUnits="userSpaceOnUse" x1="103.4927" y1="-507.25" x2="307.9767" y2="-507.25" gradientTransform="matrix(1 0 0 -1 0 -448)">
	<stop  offset="0" style="stop-color:#FFFFFF"/>
	<stop  offset="0.4982" style="stop-color:#FCFDFF"/>
	<stop  offset="0.7974" style="stop-color:#F4F7FF"/>
	<stop  offset="1" style="stop-color:#E9EEFF"/>
</linearGradient>
<path class="st6" d="M106.4,63.4l91.9,53.4c3.9,2.3,10.3,2.3,14.2,0L305,63.4c3.1-1.8,3.8-4.5,2-6.6c-0.1-0.2-0.3-0.3-0.4-0.5
	c-0.4-0.4-0.9-0.8-1.5-1.1L213.2,1.7c-3.9-2.3-10.3-2.3-14.2,0l-92.5,53.4c-0.6,0.4-1.1,0.7-1.5,1.1c-0.2,0.2-0.3,0.3-0.5,0.5
	C102.7,58.9,103.3,61.6,106.4,63.4z"/>
<linearGradient id="SVGID_4_" gradientUnits="userSpaceOnUse" x1="105.674" y1="-507.3" x2="305.8361" y2="-507.3" gradientTransform="matrix(1 0 0 -1 0 -448)">
	<stop  offset="0" style="stop-color:#FFFFFF"/>
	<stop  offset="0.4982" style="stop-color:#FCFDFF"/>
	<stop  offset="0.7974" style="stop-color:#F4F7FF"/>
	<stop  offset="1" style="stop-color:#E9EEFF"/>
</linearGradient>
<path class="st7" d="M205.4,116.3c-2.3,0-4.4-0.5-6-1.4l-91.9-53.4c-1-0.6-1.7-1.3-1.8-2c-0.1-0.4,0.1-0.9,0.4-1.3
	c0.1-0.1,0.2-0.2,0.3-0.3l0,0c0.3-0.3,0.7-0.6,1.1-0.8L200,3.7c1.5-0.9,3.7-1.4,6-1.4s4.4,0.5,6,1.4l92,53.4
	c0.4,0.2,0.8,0.5,1.1,0.8c0.1,0.1,0.2,0.2,0.3,0.3c0.4,0.5,0.5,0.9,0.4,1.3c-0.1,0.7-0.8,1.4-1.8,2l-92.5,53.4
	C209.9,115.8,207.7,116.3,205.4,116.3z"/>
<path class="st0" d="M122,62.7l77.5,45.1c3.3,1.9,8.6,1.9,12,0l78-45.1c2.6-1.5,3.2-3.8,1.7-5.6c-0.1-0.1-0.2-0.3-0.4-0.4
	c-0.4-0.3-0.8-0.7-1.3-1l-77.5-45c-3.3-1.9-8.6-1.9-12,0l-78,45.1c-0.5,0.3-0.9,0.6-1.3,1c-0.1,0.1-0.3,0.3-0.4,0.4
	C118.9,59,119.4,61.2,122,62.7z"/>
<path class="st8" d="M205.5,107c-1.9,0-3.6-0.4-4.9-1.1l-77.5-45.1c-0.8-0.4-1.3-1-1.3-1.4c0-0.1-0.1-0.4,0.3-0.8
	c0.1-0.1,0.1-0.2,0.2-0.2l0,0c0.2-0.2,0.5-0.4,0.8-0.6l78-45.1c1.3-0.7,3-1.1,4.9-1.1c1.8,0,3.6,0.4,4.9,1.1l77.5,45.1
	c0.3,0.2,0.6,0.4,0.8,0.6c0.1,0.1,0.1,0.1,0.2,0.2c0.4,0.5,0.3,0.7,0.3,0.8c-0.1,0.4-0.6,1-1.4,1.4l-78,45.1
	C209.1,106.6,207.3,107,205.5,107z"/>
<g>
	<polygon class="st9" points="204.9,34.7 204.2,39.8 200.8,41.8 201.4,36.7 	"/>
</g>
<g>
	<polygon class="st9" points="182.3,47.7 181.7,52.8 178.2,54.8 178.9,49.7 	"/>
</g>
<g>
	<g>
		<defs>
			<path id="SVGID_5_" d="M178.6,45.7l0.7-5.1c0.2-1.9,1.4-3.6,3.5-4.8c4.7-2.7,12.5-2.3,18.6,0.8l-0.7,5.1
				c-6.1-3.1-13.9-3.5-18.6-0.8C180,42.2,178.9,43.9,178.6,45.7z"/>
		</defs>
		<use xlink:href="#SVGID_5_"  style="overflow:visible;fill:#BDCFE0;"/>
		<clipPath id="SVGID_6_">
			<use xlink:href="#SVGID_5_"  style="overflow:visible;"/>
		</clipPath>
		<g class="st10">
			<g>
				<path class="st2" d="M201.4,36.7l-0.7,5.1c-0.7-0.4-1.5-0.7-2.3-1l0.7-5.1C199.9,36,200.7,36.3,201.4,36.7"/>
				<path class="st2" d="M199.1,35.7l-0.7,5.1c-0.7-0.3-1.5-0.5-2.3-0.7l0.7-5.1C197.6,35.2,198.4,35.4,199.1,35.7"/>
				<path class="st2" d="M196.9,34.9l-0.7,5.1c-0.7-0.2-1.4-0.3-2.1-0.5l0.7-5.1C195.5,34.6,196.2,34.8,196.9,34.9"/>
				<path class="st2" d="M194.8,34.5l-0.7,5.1c-0.7-0.1-1.4-0.2-2.1-0.3l0.7-5.1C193.3,34.2,194.1,34.3,194.8,34.5"/>
				<path class="st2" d="M192.6,34.2l-0.7,5.1c-0.7-0.1-1.5-0.1-2.2-0.1l0.7-5.1C191.2,34.1,191.9,34.1,192.6,34.2"/>
				<path class="st2" d="M190.4,34.1l-0.7,5.1c-0.9,0-1.8,0.1-2.7,0.2l0.7-5.1C188.6,34.2,189.5,34.1,190.4,34.1"/>
				<path class="st2" d="M187.8,34.3l-0.7,5.1c-1.8,0.3-3.5,0.8-5,1.6c-0.2,0.1-0.3,0.2-0.5,0.3l0.7-5.1c0.2-0.1,0.3-0.2,0.5-0.3
					C184.2,35.1,185.9,34.5,187.8,34.3"/>
				<path class="st2" d="M182.3,36.2l-0.7,5.1c-0.5,0.4-1,0.8-1.4,1.2l0.7-5.1C181.3,36.9,181.8,36.5,182.3,36.2"/>
				<path class="st2" d="M180.9,37.4l-0.7,5.1c-0.3,0.3-0.6,0.7-0.8,1l0.7-5.1C180.3,38.1,180.6,37.7,180.9,37.4"/>
				<path class="st2" d="M180.1,38.4l-0.7,5.1c-0.2,0.3-0.4,0.7-0.5,1.1l0.7-5.1C179.7,39.1,179.9,38.8,180.1,38.4"/>
				<path class="st2" d="M179.6,39.5l-0.7,5.1c-0.1,0.4-0.2,0.8-0.3,1.1l0.7-5.1C179.3,40.2,179.4,39.9,179.6,39.5"/>
			</g>
			<path class="st2" d="M179.3,40.6l-0.7,5.1c0,0,0,0,0,0L179.3,40.6C179.3,40.6,179.3,40.6,179.3,40.6"/>
		</g>
	</g>
	<g>
		<defs>
			<path id="SVGID_7_" d="M173.8,45.1l0.7-5.1c-0.4,3.1,1.1,6.6,4.5,9.7l-0.7,5.1C174.9,51.7,173.4,48.2,173.8,45.1z"/>
		</defs>
		<use xlink:href="#SVGID_7_"  style="overflow:visible;fill:#BDCFE0;"/>
		<clipPath id="SVGID_8_">
			<use xlink:href="#SVGID_7_"  style="overflow:visible;"/>
		</clipPath>
		<g class="st11">
			<path class="st2" d="M178.9,49.7l-0.7,5.1c-3.4-3.1-4.9-6.5-4.5-9.7l0.7-5.1C174,43.1,175.6,46.6,178.9,49.7"/>
		</g>
	</g>
	<g>
		<path class="st12" d="M179.3,33.4c6.5-3.8,17.4-3.1,25.5,1.2l-3.4,2c-6.1-3.1-13.9-3.5-18.6-0.8c-4.7,2.7-4.7,7.7-0.5,11.8l-3.4,2
			C172.8,44.1,172.8,37.2,179.3,33.4z"/>
	</g>
</g>
<g class="st13">
	<g class="st13">
		<defs>
			<path id="SVGID_9_" class="st13" d="M208.8,45.2c-0.9,0.5-1.4,1.2-1.5,2l0.7-5.1c0.1-0.8,0.6-1.5,1.5-2c2.1-1.2,5.5-1,7.7,0.5
				c1.2,0.8,1.8,1.9,1.6,2.9l-0.7,5.1c0.1-1-0.4-2.1-1.6-2.9C214.4,44.2,210.9,44,208.8,45.2z"/>
		</defs>
		<clipPath id="SVGID_10_">
			<use xlink:href="#SVGID_9_"  style="overflow:visible;"/>
		</clipPath>
		<g class="st14">
			<path class="st15" d="M218.9,43.6l-0.7,5.1c0.1-1-0.4-2.1-1.6-2.9c-0.2-0.2-0.5-0.3-0.7-0.4l0.7-5.1c0.3,0.1,0.5,0.3,0.7,0.4
				C218.4,41.5,219,42.6,218.9,43.6"/>
			<path class="st16" d="M216.5,40.2l-0.7,5.1c-0.3-0.1-0.5-0.2-0.8-0.3l0.7-5.1C216,40,216.3,40.1,216.5,40.2"/>
			<path class="st17" d="M215.7,39.9L215,45c-0.2-0.1-0.5-0.2-0.7-0.2l0.7-5.1C215.2,39.7,215.5,39.8,215.7,39.9"/>
			<path class="st18" d="M215,39.6l-0.7,5.1c-0.2-0.1-0.5-0.1-0.7-0.2l0.7-5.1C214.5,39.5,214.8,39.6,215,39.6"/>
			<path class="st19" d="M214.3,39.5l-0.7,5.1c-0.2,0-0.5-0.1-0.7-0.1l0.7-5.1C213.8,39.4,214,39.4,214.3,39.5"/>
			<path class="st20" d="M213.5,39.4l-0.7,5.1c-0.3,0-0.6,0-0.8,0l0.7-5.1C213,39.3,213.3,39.3,213.5,39.4"/>
			<path class="st21" d="M212.7,39.3l-0.7,5.1c-0.4,0-0.7,0-1.1,0.1l0.7-5.1C212,39.4,212.3,39.3,212.7,39.3"/>
			<path class="st22" d="M211.6,39.4l-0.7,5.1c-0.8,0.1-1.5,0.3-2.1,0.7c-0.1,0-0.2,0.1-0.2,0.1l0.7-5.1c0.1,0,0.1-0.1,0.2-0.1
				C210.1,39.7,210.9,39.5,211.6,39.4"/>
			<path class="st21" d="M209.3,40.2l-0.7,5.1c-0.2,0.2-0.5,0.3-0.6,0.5l0.7-5.1C208.8,40.6,209,40.4,209.3,40.2"/>
			<path class="st20" d="M208.7,40.8l-0.7,5.1c-0.1,0.1-0.2,0.3-0.3,0.4l0.7-5.1C208.4,41.1,208.5,40.9,208.7,40.8"/>
			<path class="st19" d="M208.3,41.2l-0.7,5.1c-0.1,0.1-0.2,0.3-0.2,0.4l0.7-5.1C208.2,41.5,208.2,41.4,208.3,41.2"/>
			<path class="st18" d="M208.1,41.6l-0.7,5.1c-0.1,0.1-0.1,0.3-0.1,0.5l0.7-5.1C208,41.9,208.1,41.8,208.1,41.6"/>
			<polyline class="st17" points="208,42.1 207.3,47.2 207.3,47.2 208,42.1 208,42.1 			"/>
		</g>
	</g>
	<g class="st13">
		<defs>
			<path id="SVGID_11_" class="st13" d="M218.9,43.6l-0.7,5.1c0,0.3-0.2,0.6-0.4,0.9c-0.3,0.4-0.6,0.8-1.2,1.1
				c-0.7,0.4-1.6,0.6-2.5,0.7c-1.8,0.2-3.8-0.3-5.2-1.3c-1.2-0.9-1.8-1.9-1.6-2.9l0.7-5.1c-0.1,1,0.4,2.1,1.6,2.9
				c1.4,1,3.4,1.4,5.2,1.3c0.9-0.1,1.8-0.3,2.5-0.7c0.5-0.3,0.9-0.7,1.2-1.1C218.7,44.2,218.8,43.9,218.9,43.6z"/>
		</defs>
		<clipPath id="SVGID_12_">
			<use xlink:href="#SVGID_11_"  style="overflow:visible;"/>
		</clipPath>
		<g class="st23">
			<polyline class="st24" points="218.9,43.6 218.2,48.7 218.2,48.7 218.9,43.6 218.9,43.6 			"/>
			<path class="st25" d="M218.9,43.6l-0.7,5.1c0,0.2-0.1,0.3-0.1,0.5l0.7-5.1C218.8,43.9,218.8,43.7,218.9,43.6"/>
			<path class="st26" d="M218.8,44l-0.7,5.1c-0.1,0.1-0.1,0.3-0.2,0.4l0.7-5.1C218.6,44.3,218.7,44.2,218.8,44"/>
			<path class="st27" d="M218.5,44.4l-0.7,5.1c0,0,0,0,0,0c-0.1,0.1-0.2,0.3-0.3,0.4l0.7-5.1C218.3,44.8,218.4,44.6,218.5,44.4
				C218.5,44.5,218.5,44.5,218.5,44.4"/>
			<path class="st28" d="M218.2,44.9l-0.7,5.1c-0.2,0.2-0.4,0.4-0.6,0.5l0.7-5.1C217.8,45.2,218,45.1,218.2,44.9"/>
			<path class="st29" d="M217.6,45.4l-0.7,5.1c-0.1,0-0.2,0.1-0.2,0.1c-0.6,0.4-1.3,0.6-2.1,0.7l0.7-5.1c0.8-0.1,1.5-0.3,2.1-0.7
				C217.4,45.5,217.5,45.5,217.6,45.4"/>
			<path class="st28" d="M215.2,46.2l-0.7,5.1c-0.1,0-0.2,0-0.3,0c-0.2,0-0.5,0-0.7,0l0.7-5.1c0.2,0,0.5,0,0.7,0
				C215,46.3,215.1,46.3,215.2,46.2"/>
			<path class="st27" d="M214.2,46.3l-0.7,5.1c-0.3,0-0.6,0-0.8,0l0.7-5.1C213.6,46.3,213.9,46.3,214.2,46.3"/>
			<path class="st26" d="M213.3,46.3l-0.7,5.1c-0.2,0-0.5-0.1-0.7-0.1l0.7-5.1C212.8,46.2,213.1,46.3,213.3,46.3"/>
			<path class="st25" d="M212.6,46.2l-0.7,5.1c-0.2,0-0.5-0.1-0.7-0.2l0.7-5.1C212.1,46.1,212.3,46.1,212.6,46.2"/>
			<path class="st24" d="M211.9,46l-0.7,5.1c-0.2-0.1-0.5-0.1-0.7-0.2l0.7-5.1C211.4,45.9,211.6,46,211.9,46"/>
			<path class="st30" d="M211.2,45.8l-0.7,5.1c-0.3-0.1-0.5-0.2-0.8-0.3l0.7-5.1C210.6,45.6,210.9,45.7,211.2,45.8"/>
			<path class="st31" d="M210.4,45.4l-0.7,5.1c-0.3-0.1-0.5-0.3-0.7-0.4c-1.2-0.9-1.8-1.9-1.6-2.9l0.7-5.1c-0.1,1,0.4,2.1,1.6,2.9
				C209.9,45.2,210.1,45.3,210.4,45.4"/>
		</g>
	</g>
	<g>
		<path class="st32" d="M209.5,40.1c2.1-1.2,5.5-1,7.7,0.5c1.6,1.1,2.1,2.7,1.3,3.9c-0.3,0.4-0.6,0.8-1.2,1.1
			c-0.7,0.4-1.6,0.6-2.5,0.7c-1.8,0.2-3.8-0.3-5.2-1.3C207.5,43.5,207.4,41.3,209.5,40.1z"/>
	</g>
	<g class="st13">
		<defs>
			<path id="SVGID_13_" class="st13" d="M221.5,55.7c0-0.1,0-0.2,0-0.3c0,0,0-0.1,0-0.1c0,0,0-0.1,0-0.1c0.2-1.5,0.4-3,0.6-4.5
				c0.2,0.8,0.3,1.5,0.2,2.3c-0.2,1.7-0.5,3.4-0.7,5.1C221.8,57.3,221.7,56.5,221.5,55.7z"/>
		</defs>
		<clipPath id="SVGID_14_">
			<use xlink:href="#SVGID_13_"  style="overflow:visible;"/>
		</clipPath>
		<g class="st33">
			<path class="st15" d="M222.4,53.6l-0.7,5.1c0.4-2.9-0.9-6.2-3.9-9.1l0.7-5.1C221.5,47.4,222.8,50.7,222.4,53.6"/>
		</g>
	</g>
	<g class="st13">
		<defs>
			<path id="SVGID_15_" class="st13" d="M221.7,58.7c0-0.2,0-0.4,0.1-0.7c0.2-1.7,0.5-3.4,0.7-5.1c0,0.2,0,0.4-0.1,0.7
				C222.2,55.1,221.9,57.2,221.7,58.7z"/>
		</defs>
		<clipPath id="SVGID_16_">
			<use xlink:href="#SVGID_15_"  style="overflow:visible;"/>
		</clipPath>
		<g class="st34">
			<path class="st15" d="M222.4,53.6l-0.7,5.1c0.4-2.9-0.9-6.2-3.9-9.1l0.7-5.1C221.5,47.4,222.8,50.7,222.4,53.6"/>
		</g>
	</g>
	<g class="st13">
		<defs>
			<path id="SVGID_17_" class="st13" d="M189.4,59.9c0.1-0.7,0.2-1.5,0.3-2.2c0.1-0.8,0.2-1.5,0.3-2.3
				C189.8,56.9,189.6,58.4,189.4,59.9C189.4,59.9,189.4,59.9,189.4,59.9z"/>
		</defs>
		<clipPath id="SVGID_18_">
			<use xlink:href="#SVGID_17_"  style="overflow:visible;"/>
		</clipPath>
		<g class="st35">
			<path class="st22" d="M190.3,54.8l-0.7,5.1c-0.4,0-0.7,0.2-1,0.3c0,0-0.1,0-0.1,0.1l0.7-5.1c0,0,0.1,0,0.1-0.1
				C189.6,55,189.9,54.9,190.3,54.8"/>
		</g>
	</g>
	<g class="st13">
		<defs>
			<path id="SVGID_19_" class="st13" d="M216.9,58c0.3-2.1-0.6-4.5-3.5,4.8c0,0,0,0,0.9-11.4l-0.2,6.3c0,0,0,0,0.9-11.4
				c2,2.2,3,4.5,2.7,6.7C217.3,54.5,217.1,56.5,216.9,58z"/>
		</defs>
		<clipPath id="SVGID_20_">
			<use xlink:href="#SVGID_19_"  style="overflow:visible;"/>
		</clipPath>
		<g class="st36">
			<path class="st37" d="M217.5,52.9l-0.7,5.1c0.3-2.1-0.6-4.5-2.7-6.7l0.7-5.1C216.9,48.5,217.8,50.8,217.5,52.9"/>
		</g>
	</g>
	<g class="st13">
		<defs>
			<path id="SVGID_21_" class="st13" d="M191,54.8c-0.1,0.7-0.2,1.5-0.3,2.2c-0.1,0.8-0.2,1.5-0.3,2.3
				C190.6,57.8,190.8,56.3,191,54.8C191,54.8,191,54.8,191,54.8z"/>
		</defs>
		<clipPath id="SVGID_22_">
			<use xlink:href="#SVGID_21_"  style="overflow:visible;"/>
		</clipPath>
		<g class="st38">
			<path class="st20" d="M191.1,54.8l-0.7,5.1c-0.1,0-0.2,0-0.4,0l0.7-5.1C190.9,54.8,191,54.8,191.1,54.8"/>
		</g>
	</g>
	<g class="st13">
		<defs>
			<path id="SVGID_23_" class="st13" d="M190.4,59.3c0.1-0.8,0.2-1.5,0.3-2.3c0.1-0.7,0.2-1.5,0.3-2.2c0,0,0,0,0,0
				c0.6,0,1.2,0.2,1.7,0.6c-0.2,1.7-0.5,3.4-0.7,5.1c-0.5-0.3-1.1-0.5-1.7-0.6C190.4,59.7,190.4,59.5,190.4,59.3z M191.2,60.1
				L191.2,60.1L191.2,60.1L191.2,60.1L191.2,60.1L191.2,60.1L191.2,60.1L191.2,60.1L191.2,60.1L191.2,60.1L191.2,60.1L191.2,60.1
				L191.2,60.1L191.2,60.1L191.2,60.1L191.2,60.1L191.2,60.1L191.2,60.1L191.2,60.1L191.2,60.1L191.2,60.1L191.2,60.1L191.2,60.1
				L191.2,60.1L191.2,60.1L191.2,60.1L191.2,60.1L191.2,60.1L191.2,60.1L191.2,60.1L191.2,60.1L191.2,60.1L191.2,60.1L191.2,60.1
				L191.2,60.1l0-0.1l0,0l0,0l0,0l0,0l0,0l0,0l0,0l0,0l0,0l0,0l0,0l0,0l0,0l0-0.2l0-0.2l0-0.2l0-0.2l0-0.2l0-0.2l0-0.3l0-0.3l0-0.3
				l0-0.3l0-0.2l0-0.2l0-0.2l0-0.2l0-0.2l0-0.2l0,0l0,0l0,0l0,0l0,0l0,0l0,0l0,0l0,0l0,0l0,0l0,0l0,0l0,0l0,0l0,0l0,0l0,0l0,0l0,0
				l0,0l0,0l0,0l0,0l0,0l0,0l0,0l0,0l0,0l0,0l0,0l0,0l0,0.2l0,0.2l0,0.2l0,0.2l0,0.2l0,0.2l0,0.3l0,0.3l0,0.3l0,0.3l0,0.2l0,0.2
				l0,0.2l0,0.2l0,0.2l0,0.2l0,0l0,0l0,0l0,0l0,0l0,0l0,0l0,0l0,0l0,0l0,0l0,0l0,0L191.2,60.1L191.2,60.1L191.2,60.1"/>
		</defs>
		<clipPath id="SVGID_24_">
			<use xlink:href="#SVGID_23_"  style="overflow:visible;"/>
		</clipPath>
		<g class="st39">
			<path class="st15" d="M195.1,56.8l-0.7,5.1c-0.8-0.4-1.6-0.9-2.4-1.4c-0.1-0.1-0.2-0.1-0.3-0.2l0.7-5.1c0.1,0.1,0.2,0.1,0.3,0.2
				C193.5,55.9,194.3,56.4,195.1,56.8"/>
			<path class="st16" d="M192.4,55.2l-0.7,5.1c-0.1-0.1-0.2-0.1-0.4-0.2l0.7-5.1C192.2,55.1,192.3,55.1,192.4,55.2"/>
			<path class="st17" d="M192.1,55l-0.7,5.1c-0.1,0-0.2-0.1-0.3-0.1l0.7-5.1C191.9,54.9,192,55,192.1,55"/>
			<path class="st18" d="M191.7,54.9l-0.7,5.1c-0.1,0-0.2-0.1-0.3-0.1l0.7-5.1C191.5,54.9,191.6,54.9,191.7,54.9"/>
			<path class="st19" d="M191.4,54.8l-0.7,5.1c-0.1,0-0.2,0-0.3,0l0.7-5.1C191.2,54.8,191.3,54.8,191.4,54.8"/>
			<path class="st20" d="M191.1,54.8l-0.7,5.1c-0.1,0-0.2,0-0.4,0l0.7-5.1C190.9,54.8,191,54.8,191.1,54.8"/>
		</g>
	</g>
	<g class="st13">
		<defs>
			<path id="SVGID_25_" class="st13" d="M189.4,59.9c-0.3,0.1-0.6,0.2-0.8,0.3c0.2-1.7,0.5-3.4,0.7-5.1c0.5-0.3,1.1-0.4,1.7-0.3
				c-0.2,1.7-0.5,3.4-0.7,5.1C190,59.9,189.7,59.9,189.4,59.9c0.2-1.7,0.5-3.4,0.7-5.1C189.9,56.5,189.7,58.2,189.4,59.9z"/>
		</defs>
		<clipPath id="SVGID_26_">
			<use xlink:href="#SVGID_25_"  style="overflow:visible;"/>
		</clipPath>
		<g class="st40">
			<path class="st20" d="M191.1,54.8l-0.7,5.1c-0.1,0-0.2,0-0.4,0l0.7-5.1C190.9,54.8,191,54.8,191.1,54.8"/>
			<path class="st21" d="M190.7,54.8l-0.7,5.1c-0.2,0-0.3,0-0.5,0l0.7-5.1C190.4,54.8,190.6,54.8,190.7,54.8"/>
			<path class="st22" d="M190.3,54.8l-0.7,5.1c-0.4,0-0.7,0.2-1,0.3c0,0-0.1,0-0.1,0.1l0.7-5.1c0,0,0.1,0,0.1-0.1
				C189.6,55,189.9,54.9,190.3,54.8"/>
		</g>
	</g>
	<g class="st13">
		<defs>
			<path id="SVGID_27_" class="st13" d="M188.6,60.2c-0.2,0.1-0.4,0.3-0.5,0.5c0.2-1.7,0.5-3.4,0.7-5.1c0.1-0.2,0.3-0.3,0.5-0.5
				c0,0,0,0,0,0C189.1,56.8,188.9,58.5,188.6,60.2C188.6,60.2,188.6,60.2,188.6,60.2z"/>
		</defs>
		<clipPath id="SVGID_28_">
			<use xlink:href="#SVGID_27_"  style="overflow:visible;"/>
		</clipPath>
		<g class="st41">
			<path class="st22" d="M190.3,54.8l-0.7,5.1c-0.4,0-0.7,0.2-1,0.3c0,0-0.1,0-0.1,0.1l0.7-5.1c0,0,0.1,0,0.1-0.1
				C189.6,55,189.9,54.9,190.3,54.8"/>
			<path class="st21" d="M189.2,55.2l-0.7,5.1c-0.1,0.1-0.2,0.2-0.3,0.2l0.7-5.1C189,55.3,189.1,55.3,189.2,55.2"/>
			<path class="st20" d="M188.9,55.4l-0.7,5.1c-0.1,0.1-0.1,0.1-0.2,0.2l0.7-5.1C188.8,55.6,188.9,55.5,188.9,55.4"/>
		</g>
	</g>
	<g class="st13">
		<defs>
			<path id="SVGID_29_" class="st13" d="M188.1,60.7c-0.1,0.1-0.1,0.3-0.2,0.4l0.7-5.1c0-0.1,0.1-0.3,0.2-0.4
				c-0.1,0.8-0.2,1.7-0.3,2.5c0,0.3-0.1,0.7-0.1,1c-0.1,0.4-0.1,0.8-0.2,1.3C188.1,60.5,188.1,60.6,188.1,60.7z"/>
		</defs>
		<clipPath id="SVGID_30_">
			<use xlink:href="#SVGID_29_"  style="overflow:visible;"/>
		</clipPath>
		<g class="st42">
			<path class="st20" d="M188.9,55.4l-0.7,5.1c-0.1,0.1-0.1,0.1-0.2,0.2l0.7-5.1C188.8,55.6,188.9,55.5,188.9,55.4"/>
			<path class="st19" d="M188.8,55.6l-0.7,5.1c0,0.1-0.1,0.1-0.1,0.2l0.7-5.1C188.7,55.7,188.7,55.7,188.8,55.6"/>
			<path class="st18" d="M188.7,55.8l-0.7,5.1c0,0.1,0,0.1,0,0.2l0.7-5.1C188.6,55.9,188.7,55.9,188.7,55.8"/>
			<polyline class="st17" points="188.6,56 188,61.1 188,61.1 188.6,56 188.6,56 			"/>
		</g>
	</g>
	<g class="st13">
		<defs>
			<path id="SVGID_31_" class="st13" d="M221.5,55.7c-0.5-2.1-1.7-4.2-4.7,9.5c0,0,0,0,1-15.7l-0.3,10.6c0,0,0,0,1-15.7
				c2,2,3.2,4.1,3.7,6.1C222,52.3,221.8,54,221.5,55.7z"/>
		</defs>
		<clipPath id="SVGID_32_">
			<use xlink:href="#SVGID_31_"  style="overflow:visible;"/>
		</clipPath>
		<g class="st43">
			<path class="st15" d="M222.4,53.6l-0.7,5.1c0.4-2.9-0.9-6.2-3.9-9.1l0.7-5.1C221.5,47.4,222.8,50.7,222.4,53.6"/>
		</g>
	</g>
	<g class="st13">
		<defs>
			<path id="SVGID_33_" class="st13" d="M213.3,62.8c-5.4,3.1-14.9,2.1-21.3-2.4c0.2-1.7,0.5-3.4,0.7-5.1c6.3,4.4,15.9,5.5,21.3,2.4
				c2.1-1.2,3.3-2.9,3.5-4.8l-0.7,5.1C216.6,59.9,215.5,61.6,213.3,62.8z"/>
		</defs>
		<clipPath id="SVGID_34_">
			<use xlink:href="#SVGID_33_"  style="overflow:visible;"/>
		</clipPath>
		<g class="st44">
			<polyline class="st17" points="217.5,52.9 216.9,58 216.9,58.1 217.5,53 217.5,52.9 			"/>
			<path class="st18" d="M217.5,53l-0.7,5.1c-0.1,0.4-0.1,0.8-0.3,1.2l0.7-5.1C217.4,53.7,217.5,53.3,217.5,53"/>
			<path class="st19" d="M217.3,54.1l-0.7,5.1c-0.1,0.4-0.3,0.7-0.5,1.1l0.7-5.1C217,54.8,217.1,54.5,217.3,54.1"/>
			<path class="st20" d="M216.8,55.2l-0.7,5.1c-0.2,0.4-0.5,0.7-0.8,1l0.7-5.1C216.3,55.9,216.5,55.5,216.8,55.2"/>
			<path class="st21" d="M216,56.2l-0.7,5.1c-0.4,0.4-0.9,0.8-1.4,1.2l0.7-5.1C215.1,57,215.5,56.6,216,56.2"/>
			<path class="st22" d="M214.5,57.4l-0.7,5.1c-0.2,0.1-0.3,0.2-0.5,0.3c-1.4,0.8-3.1,1.3-4.9,1.6l0.7-5.1c1.8-0.3,3.5-0.8,4.9-1.6
				C214.2,57.6,214.4,57.5,214.5,57.4"/>
			<path class="st21" d="M209.1,59.3l-0.7,5.1c-0.9,0.1-1.8,0.2-2.7,0.2l0.7-5.1C207.3,59.5,208.2,59.4,209.1,59.3"/>
			<path class="st20" d="M206.4,59.5l-0.7,5.1c-0.7,0-1.5,0-2.2-0.1l0.7-5.1C204.9,59.5,205.7,59.5,206.4,59.5"/>
			<path class="st19" d="M204.2,59.4l-0.7,5.1c-0.7-0.1-1.4-0.2-2.1-0.3l0.7-5.1C202.8,59.2,203.5,59.3,204.2,59.4"/>
			<path class="st18" d="M202.1,59.1l-0.7,5.1c-0.7-0.1-1.4-0.3-2.1-0.5l0.7-5.1C200.7,58.8,201.4,59,202.1,59.1"/>
			<path class="st17" d="M199.9,58.6l-0.7,5.1c-0.8-0.2-1.5-0.4-2.3-0.7l0.7-5.1C198.4,58.2,199.2,58.4,199.9,58.6"/>
			<path class="st16" d="M197.7,57.9L197,63c-0.9-0.3-1.8-0.7-2.6-1.1l0.7-5.1C195.9,57.2,196.8,57.6,197.7,57.9"/>
			<path class="st15" d="M195.1,56.8l-0.7,5.1c-0.8-0.4-1.6-0.9-2.4-1.4c-0.1-0.1-0.2-0.1-0.3-0.2l0.7-5.1c0.1,0.1,0.2,0.1,0.3,0.2
				C193.5,55.9,194.3,56.4,195.1,56.8"/>
		</g>
	</g>
	<g class="st13">
		<defs>
			<path id="SVGID_35_" class="st13" d="M188.7,62.4c-0.5-0.4-0.8-0.9-0.7-1.3l0.7-5.1c-0.1,0.4,0.2,0.9,0.7,1.3
				c8.3,5.8,20.9,7,28.1,2.8c2.9-1.7,4.5-4,4.9-6.5l-0.7,5.1c-0.3,2.5-1.9,4.9-4.9,6.5C209.6,69.4,197,68.2,188.7,62.4z"/>
		</defs>
		<clipPath id="SVGID_36_">
			<use xlink:href="#SVGID_35_"  style="overflow:visible;"/>
		</clipPath>
		<g class="st45">
			<path class="st46" d="M222.4,53.6l-0.7,5.1c0,0,0,0,0,0L222.4,53.6C222.4,53.6,222.4,53.6,222.4,53.6"/>
			<path class="st47" d="M222.4,53.6l-0.7,5.1c-0.1,0.5-0.2,1.1-0.4,1.6l0.7-5.1C222.2,54.7,222.3,54.1,222.4,53.6"/>
			<path class="st48" d="M222,55.2l-0.7,5.1c-0.2,0.5-0.4,1-0.7,1.5l0.7-5.1C221.6,56.2,221.8,55.7,222,55.2"/>
			<path class="st49" d="M221.3,56.6l-0.7,5.1c-0.3,0.5-0.7,1-1.1,1.4l0.7-5.1C220.6,57.6,221,57.1,221.3,56.6"/>
			<path class="st50" d="M220.2,58.1l-0.7,5.1c-0.6,0.6-1.2,1.1-2,1.6l0.7-5.1C219,59.2,219.6,58.7,220.2,58.1"/>
			<path class="st51" d="M218.2,59.7l-0.7,5.1c-0.2,0.1-0.5,0.3-0.7,0.4c-1.9,1.1-4.3,1.9-6.8,2.2l0.7-5.1c2.5-0.4,4.9-1.1,6.8-2.2
				C217.7,60,218,59.9,218.2,59.7"/>
			<path class="st50" d="M210.7,62.4l-0.7,5.1c-1.2,0.2-2.4,0.3-3.6,0.3l0.7-5.1C208.3,62.6,209.5,62.5,210.7,62.4"/>
			<path class="st49" d="M207.1,62.6l-0.7,5.1c-1,0-2,0-3-0.1l0.7-5.1C205.1,62.6,206.1,62.6,207.1,62.6"/>
			<path class="st48" d="M204.1,62.5l-0.7,5.1c-0.9-0.1-1.9-0.2-2.8-0.4l0.7-5.1C202.2,62.3,203.2,62.4,204.1,62.5"/>
			<path class="st47" d="M201.3,62.1l-0.7,5.1c-0.9-0.2-1.9-0.4-2.8-0.6l0.7-5.1C199.5,61.7,200.4,61.9,201.3,62.1"/>
			<path class="st46" d="M198.5,61.5l-0.7,5.1c-1-0.3-1.9-0.6-2.9-0.9l0.7-5.1C196.6,60.9,197.6,61.2,198.5,61.5"/>
			<path class="st52" d="M195.7,60.6l-0.7,5.1c-1.1-0.4-2.2-0.9-3.3-1.4l0.7-5.1C193.4,59.7,194.5,60.1,195.7,60.6"/>
			<path class="st37" d="M192.4,59.1l-0.7,5.1c-1-0.5-2.1-1.1-3-1.8c-0.5-0.4-0.8-0.9-0.7-1.3l0.7-5.1c-0.1,0.4,0.2,0.9,0.7,1.3
				C190.3,58,191.3,58.6,192.4,59.1"/>
		</g>
	</g>
	<g>
		<path class="st53" d="M189.3,55.1c0.9-0.5,2.5-0.4,3.4,0.2c6.3,4.4,15.9,5.5,21.3,2.4c4.5-2.6,4.7-7.4,0.9-11.4
			c0.9-0.1,1.8-0.3,2.5-0.7c0.5-0.3,0.9-0.7,1.2-1.1c5.5,5.4,5.3,12-1,15.7c-7.3,4.2-19.9,2.9-28.1-2.8
			C188.4,56.6,188.4,55.7,189.3,55.1z"/>
	</g>
	<g>
		<path class="st54" d="M249.1,50.5c2.9,1.8,3.1,4.6,0.4,6.1L208.8,80c-2.6,1.5-6.9,1.1-9.5-0.8l-25.8-20.8
			c-2.3-1.8-2.3-4.3,0.1-5.7l5.2-3l3.4-2l19.1-11l3.4-2l5-2.9c2.4-1.4,6.3-1.2,8.9,0.5L249.1,50.5z M218.5,44.5
			c0.8-1.2,0.3-2.7-1.3-3.9c-2.2-1.5-5.6-1.7-7.7-0.5c-2.1,1.2-2,3.4,0.1,4.9c1.4,1,3.4,1.4,5.2,1.3c3.8,4.1,3.7,8.8-0.9,11.4
			c-5.4,3.1-14.9,2.1-21.3-2.4c-1-0.7-2.5-0.8-3.4-0.2c-0.9,0.5-0.9,1.5,0.1,2.2c8.3,5.8,20.9,7,28.1,2.8
			C223.8,56.5,224,49.9,218.5,44.5"/>
	</g>
	<g>
		<g class="st13">
			<defs>
				<path id="SVGID_37_" class="st13" d="M251.3,54.1l-0.7,5.1c-0.1,0.9-0.7,1.8-1.8,2.4l0.7-5.1C250.6,55.9,251.2,55,251.3,54.1z"
					/>
			</defs>
			<use xlink:href="#SVGID_37_"  style="overflow:visible;fill:#41729A;"/>
			<clipPath id="SVGID_38_">
				<use xlink:href="#SVGID_37_"  style="overflow:visible;"/>
			</clipPath>
			<g class="st55">
				<polyline class="st53" points="251.3,54.1 250.6,59.2 250.6,59.2 251.3,54.1 251.3,54.1 				"/>
				<path class="st53" d="M251.3,54.1l-0.7,5.1c0,0.2-0.1,0.4-0.1,0.5l0.7-5.1C251.3,54.5,251.3,54.3,251.3,54.1"/>
				<path class="st53" d="M251.2,54.7l-0.7,5.1c-0.1,0.2-0.1,0.3-0.2,0.5l0.7-5.1C251.1,55,251.1,54.9,251.2,54.7"/>
				<path class="st53" d="M250.9,55.2l-0.7,5.1c-0.1,0.2-0.2,0.4-0.4,0.5l0.7-5.1C250.7,55.6,250.8,55.4,250.9,55.2"/>
				<path class="st53" d="M250.5,55.7l-0.7,5.1c-0.2,0.2-0.5,0.4-0.8,0.6l0.7-5.1C250.1,56.2,250.3,56,250.5,55.7"/>
				<path class="st53" d="M249.8,56.4l-0.7,5.1c-0.1,0.1-0.2,0.1-0.3,0.2l0.7-5.1C249.6,56.5,249.7,56.4,249.8,56.4"/>
			</g>
		</g>
		<g class="st13">
			<defs>
				<path id="SVGID_39_" class="st13" d="M171.2,60.2l0.7-5.1c-0.1,1.1,0.4,2.3,1.7,3.3l-0.7,5.1C171.6,62.5,171,61.3,171.2,60.2z"
					/>
			</defs>
			<use xlink:href="#SVGID_39_"  style="overflow:visible;fill:#41729A;"/>
			<clipPath id="SVGID_40_">
				<use xlink:href="#SVGID_39_"  style="overflow:visible;"/>
			</clipPath>
			<g class="st56">
				<path class="st53" d="M173.6,58.4l-0.7,5.1c-1.3-1-1.8-2.2-1.7-3.3l0.7-5.1C171.7,56.2,172.3,57.4,173.6,58.4"/>
			</g>
		</g>
		<g>
			<polygon class="st53" points="249.5,56.5 248.8,61.6 208.1,85.1 208.8,80 			"/>
		</g>
		<g>
			<polygon class="st53" points="199.3,79.2 198.6,84.3 172.9,63.5 173.6,58.4 			"/>
		</g>
		<g class="st13">
			<defs>
				<path id="SVGID_41_" class="st13" d="M208.8,80l-0.7,5.1c-2.6,1.5-6.9,1.1-9.5-0.8l0.7-5.1C201.9,81.2,206.2,81.5,208.8,80z"/>
			</defs>
			<use xlink:href="#SVGID_41_"  style="overflow:visible;fill:#41729A;"/>
			<clipPath id="SVGID_42_">
				<use xlink:href="#SVGID_41_"  style="overflow:visible;"/>
			</clipPath>
			<g class="st57">
				<path class="st53" d="M208.8,80l-0.7,5.1c-0.7,0.4-1.6,0.7-2.5,0.8l0.7-5.1C207.2,80.7,208.1,80.5,208.8,80"/>
				<path class="st53" d="M206.3,80.9l-0.7,5.1c-0.4,0.1-0.8,0.1-1.3,0.1L205,81C205.4,80.9,205.9,80.9,206.3,80.9"/>
				<path class="st53" d="M205,81l-0.7,5.1c-0.3,0-0.7,0-1,0l0.7-5.1C204.3,80.9,204.7,81,205,81"/>
				<path class="st53" d="M204,80.9l-0.7,5.1c-0.3,0-0.6-0.1-0.9-0.1l0.7-5.1C203.4,80.8,203.7,80.9,204,80.9"/>
				<path class="st53" d="M203.1,80.8l-0.7,5.1c-0.3-0.1-0.6-0.1-0.9-0.2l0.7-5.1C202.5,80.7,202.8,80.7,203.1,80.8"/>
				<path class="st53" d="M202.3,80.6l-0.7,5.1c-0.3-0.1-0.6-0.2-0.9-0.3l0.7-5.1C201.7,80.4,202,80.5,202.3,80.6"/>
				<path class="st53" d="M201.4,80.3l-0.7,5.1c-0.3-0.1-0.6-0.3-1-0.4l0.7-5.1C200.8,80.1,201.1,80.2,201.4,80.3"/>
				<path class="st53" d="M200.4,79.9l-0.7,5.1c-0.4-0.2-0.8-0.4-1.1-0.7l0.7-5.1C199.7,79.5,200,79.7,200.4,79.9"/>
			</g>
		</g>
	</g>
</g>
</svg>
