<?xml version="1.0" encoding="utf-8"?>
<!-- Generator: Adobe Illustrator 25.0.1, SVG Export Plug-In . SVG Version: 6.00 Build 0)  -->
<svg version="1.1" id="Layer_1" xmlns="http://www.w3.org/2000/svg" xmlns:xlink="http://www.w3.org/1999/xlink" x="0px" y="0px"
	 viewBox="0 0 439 315" style="enable-background:new 0 0 439 315;" xml:space="preserve">
<style type="text/css">
	.st0{fill:#302b40;}
	.st1{fill:url(#SVGID_1_);}
	.st2{fill:#BDCFE0;}
	.st3{opacity:0.1;fill:#6154F9;enable-background:new    ;}
	.st4{opacity:0.2;fill:#6154F9;enable-background:new    ;}
	.st5{fill:url(#SVGID_2_);}
	.st6{fill:url(#SVGID_3_);}
	.st7{fill:url(#SVGID_4_);stroke:#76B6E3;stroke-width:0.25;stroke-miterlimit:10;}
	.st8{fill:#302b40;stroke:#76B6E3;stroke-width:0.75;stroke-miterlimit:10;}
	.st9{fill:#2B85BC;}
	.st10{fill:#D3E6F2;}
	.st11{fill:#6154F9;}
	.st12{fill:#FFFFFF;}
</style>
<path class="st0" d="M344.3,278.2c1.9,1.1,2,3,0,4.1l-54.6,31.5c-1.9,1.1-5.1,1.1-7,0l-36.6-23.3c-1.9-1.1-2-3,0-4.1l54.6-31.5
	c1.9-1.1,5.1-1.1,7,0L344.3,278.2z"/>
<path class="st0" d="M120.1,239.8c2.2,1.3,2.2,3.4,0,4.7l-62.9,36.3c-2.2,1.3-5.9,1.3-8.1,0L6.9,254c-2.2-1.3-2.3-3.4,0-4.7
	L69.8,213c2.2-1.3,5.9-1.3,8.1,0L120.1,239.8z"/>
<path class="st0" d="M437.5,175.8c1.1,0.7,1.1,1.7,0,2.4l-31.8,18.3c-1.1,0.7-3,0.7-4.1,0L380.4,183c-1.1-0.7-1.1-1.7,0-2.4
	l31.8-18.3c1.1-0.7,3-0.7,4.1,0L437.5,175.8z"/>
<path class="st0" d="M58,188.6c1.1,0.7,1.1,1.7,0,2.4l-31.8,18.3c-1.1,0.7-3,0.7-4.1,0L0.9,195.8c-1.1-0.7-1.1-1.7,0-2.4l31.8-18.3
	c1.1-0.7,3-0.7,4.1,0L58,188.6z"/>
<path class="st0" d="M379.9,138.2c8.7,5,8.7,13.1,0.1,18.1l-155.9,90.6c-8.6,5-22.6,5-31.3,0L35.9,156.3c-8.7-5-8.7-13.1-0.1-18.1
	l155.9-90.6c8.6-5,22.6-5,31.3,0L379.9,138.2z"/>
<linearGradient id="SVGID_1_" gradientUnits="userSpaceOnUse" x1="207.05" y1="984.75" x2="207.05" y2="777.75" gradientTransform="matrix(1 0 0 1 0 -764)">
	<stop  offset="0" style="stop-color:#FFFFFF"/>
	<stop  offset="0.4982" style="stop-color:#FCFDFF"/>
	<stop  offset="0.7974" style="stop-color:#F4F7FF"/>
	<stop  offset="1" style="stop-color:#E9EEFF"/>
</linearGradient>
<path class="st1" d="M379.3,108.2c8.7,5,8.7,13.1,0.1,18.1L223.3,217c-8.6,5-22.7,5-31.3,0L34.8,126.4c-8.7-5-8.7-13.1-0.1-18.2
	l156.1-90.7c8.6-5,22.6-5,31.3,0L379.3,108.2z"/>
<path class="st2" d="M385.8,115.1c0,0.1,0,0.1,0,0.2s-0.1,0.3-0.1,0.4c0.9,3.8-1.2,7.8-6.2,10.7l-156.1,90.7c-8.6,5-22.7,5-31.3,0
	L34.8,126.4c-4.3-2.5-6.5-5.8-6.5-9.1v3.8c0,3.3,2.2,6.6,6.5,9.1L192,220.9c0.5,0.3,1.1,0.6,1.6,0.8c0.2,0.1,0.4,0.2,0.6,0.2
	c0.3,0.1,0.7,0.3,1,0.4c0.1,0,0.1,0,0.2,0.1c0.1,0,0.3,0.1,0.4,0.1c0.4,0.2,0.9,0.3,1.3,0.5c0.2,0,0.3,0.1,0.5,0.1
	c0.1,0,0.2,0.1,0.3,0.1c0.2,0.1,0.4,0.1,0.6,0.1c0.5,0.1,0.9,0.2,1.4,0.3c0.1,0,0.2,0.1,0.4,0.1s0.4,0.1,0.6,0.1
	c0.4,0.1,0.8,0.1,1.2,0.2c0.2,0,0.3,0.1,0.5,0.1s0.3,0,0.5,0.1c0.4,0,0.7,0.1,1.1,0.1c0.2,0,0.4,0,0.5,0.1c0.2,0,0.3,0,0.5,0
	c0.4,0,0.7,0,1.1,0.1c0.2,0,0.4,0,0.6,0c0.2,0,0.3,0,0.4,0c0.4,0,0.8,0,1.2,0c0.2,0,0.4,0,0.6,0c0.1,0,0.2,0,0.4,0
	c0.5,0,1-0.1,1.5-0.1c0.2,0,0.4,0,0.6,0c0.1,0,0.2,0,0.3,0c0.2,0,0.3,0,0.4-0.1c0.5-0.1,1-0.1,1.5-0.2c0.1,0,0.3,0,0.4-0.1
	c0.1,0,0.1,0,0.2,0c0.2,0,0.5-0.1,0.7-0.2c0.4-0.1,0.8-0.2,1.2-0.3c0.3-0.1,0.6-0.2,0.9-0.2c0.4-0.1,0.8-0.2,1.1-0.3
	c0.1,0,0.2,0,0.2-0.1c0.5-0.1,0.9-0.3,1.3-0.5c0.1,0,0.1-0.1,0.2-0.1c0.5-0.2,1-0.4,1.4-0.6c0.1-0.1,0.3-0.1,0.4-0.2
	c0.5-0.2,1-0.5,1.5-0.8L379.4,130c0.1-0.1,0.2-0.1,0.3-0.2c0.4-0.2,0.8-0.5,1.1-0.7c0.1,0,0.1-0.1,0.2-0.1c0.4-0.3,0.8-0.6,1.1-0.9
	c0.1,0,0.1-0.1,0.2-0.1c0.1-0.1,0.1-0.1,0.2-0.2c0.3-0.3,0.5-0.5,0.8-0.8c0.1-0.1,0.1-0.1,0.1-0.2c0.1-0.2,0.3-0.3,0.4-0.5
	c0.1-0.1,0.2-0.3,0.3-0.4l0.1-0.1c0.2-0.3,0.3-0.5,0.5-0.8c0-0.1,0.1-0.2,0.1-0.3c0-0.1,0.1-0.1,0.1-0.2c0.1-0.3,0.3-0.6,0.4-0.8
	c0-0.1,0-0.1,0.1-0.2c0-0.1,0-0.1,0.1-0.2c0.1-0.3,0.2-0.6,0.2-0.9c0-0.1,0-0.1,0-0.2s0-0.1,0-0.2c0-0.3,0.1-0.6,0.1-0.9
	c0-0.1,0-0.1,0-0.2v-7.2C385.9,114.3,385.8,114.7,385.8,115.1z"/>
<path class="st2" d="M385.8,118.3c0,0.1,0,0.1,0,0.2s-0.1,0.3-0.1,0.4c0.9,3.8-1.2,7.8-6.2,10.7l-156.1,90.7c-8.6,5-22.7,5-31.3,0
	L34.8,129.6c-4.3-2.5-6.5-5.8-6.5-9.1v3.8c0,3.3,2.2,6.6,6.5,9.1L192,224.1c0.5,0.3,1.1,0.6,1.6,0.8c0.2,0.1,0.4,0.2,0.6,0.3
	c0.3,0.1,0.7,0.3,1,0.4c0.1,0,0.1,0,0.2,0.1c0.1,0,0.3,0.1,0.4,0.1c0.4,0.2,0.9,0.3,1.3,0.5c0.2,0,0.3,0.1,0.5,0.1
	c0.1,0,0.2,0.1,0.3,0.1c0.2,0.1,0.4,0.1,0.6,0.1c0.5,0.1,0.9,0.2,1.4,0.3c0.1,0,0.2,0.1,0.4,0.1s0.4,0.1,0.6,0.1
	c0.4,0.1,0.8,0.1,1.2,0.2c0.2,0,0.3,0.1,0.5,0.1s0.3,0,0.5,0.1c0.4,0,0.7,0.1,1.1,0.1c0.2,0,0.3,0,0.5,0.1c0.2,0,0.3,0,0.5,0
	c0.4,0,0.7,0,1.1,0.1c0.2,0,0.4,0,0.6,0c0.2,0,0.3,0,0.4,0c0.4,0,0.8,0,1.2,0c0.2,0,0.4,0,0.6,0c0.1,0,0.2,0,0.4,0
	c0.5,0,1-0.1,1.5-0.1c0.2,0,0.4,0,0.6,0c0.1,0,0.2,0,0.3,0c0.2,0,0.3,0,0.5-0.1c0.5-0.1,1-0.1,1.5-0.2c0.1,0,0.3,0,0.4-0.1
	c0.1,0,0.1,0,0.2,0c0.2,0,0.5-0.1,0.7-0.2c0.4-0.1,0.8-0.2,1.2-0.3c0.3-0.1,0.6-0.2,0.9-0.2c0.4-0.1,0.8-0.2,1.1-0.3
	c0.1,0,0.2,0,0.2-0.1c0.5-0.1,0.9-0.3,1.3-0.5c0.1,0,0.1-0.1,0.2-0.1c0.5-0.2,1-0.4,1.4-0.6c0.1-0.1,0.3-0.1,0.4-0.2
	c0.5-0.2,1-0.5,1.5-0.8l156.1-90.7c0.1-0.1,0.2-0.1,0.3-0.2c0.4-0.2,0.8-0.5,1.1-0.7c0.1,0,0.1-0.1,0.2-0.1c0.4-0.3,0.8-0.6,1.1-0.9
	c0.1,0,0.1-0.1,0.2-0.1c0.1-0.1,0.1-0.1,0.2-0.2c0.3-0.3,0.5-0.5,0.8-0.8c0.1-0.1,0.1-0.1,0.1-0.2c0.1-0.2,0.3-0.3,0.4-0.5
	c0.1-0.1,0.2-0.3,0.3-0.4l0.1-0.1c0.2-0.3,0.3-0.5,0.5-0.8c0-0.1,0.1-0.2,0.1-0.3c0-0.1,0.1-0.1,0.1-0.2c0.1-0.3,0.3-0.6,0.4-0.8
	c0-0.1,0-0.1,0.1-0.2c0-0.1,0-0.1,0.1-0.2c0.1-0.3,0.2-0.6,0.2-0.9c0-0.1,0-0.1,0-0.2s0-0.1,0-0.2c0-0.3,0.1-0.6,0.1-0.9
	c0-0.1,0-0.1,0-0.2V117C385.9,117.6,385.8,117.9,385.8,118.3z"/>
<path class="st3" d="M75.1,124.1L196,194.4c5.1,3,13.5,3,18.7,0l121.7-70.2c4.1-2.4,4.9-5.9,2.6-8.7c-0.2-0.2-0.4-0.4-0.6-0.6
	c-0.5-0.5-1.2-1-2-1.5L215.5,43.1c-5.1-3-13.5-3-18.7,0L75.2,113.3c-0.8,0.5-1.5,1-2,1.5c-0.2,0.2-0.4,0.4-0.6,0.7
	C70.3,118.3,71.1,121.8,75.1,124.1z"/>
<path class="st0" d="M336.3,100.1l-121.7,70.2c-5.2,3-13.5,3-18.7,0L75.2,100c-4.2-2.4-4.9-6.1-2.3-9l0,0l6.4-6.9l8.7-9.5l2.2-2.4
	l14.3-15.5c-1.8,2.1-1.1,4.8,1.9,6.6l92,53.4c3.9,2.3,10.3,2.3,14.2,0l92.6-53.4c3.1-1.8,3.8-4.5,2-6.6l14.2,15.5l2.2,2.4l8.8,9.5
	l6.4,6.9C341.3,93.9,340.6,97.6,336.3,100.1z"/>
<path class="st4" d="M323.5,74.6l-108.9,62.9c-5.2,3-13.5,3-18.7,0L88,74.7l2.2-2.4l14.3-15.5c-1.8,2.1-1.1,4.8,1.9,6.6l92,53.4
	c3.9,2.3,10.3,2.3,14.2,0l92.6-53.4c3.1-1.8,3.8-4.5,2-6.6l14.2,15.5L323.5,74.6z"/>
<linearGradient id="SVGID_2_" gradientUnits="userSpaceOnUse" x1="90.2" y1="860.425" x2="321.3" y2="860.425" gradientTransform="matrix(1 0 0 1 0 -764)">
	<stop  offset="0.1028" style="stop-color:#DDEAF7"/>
	<stop  offset="0.3774" style="stop-color:#FFFFFF"/>
	<stop  offset="0.7098" style="stop-color:#EAF2FA"/>
	<stop  offset="1" style="stop-color:#DDEAF7"/>
</linearGradient>
<path class="st5" d="M321.3,72.2l-106.6,61.6c-5.2,3-13.5,3-18.7,0L90.2,72.3l14.3-15.5c-1.8,2.1-1.1,4.8,1.9,6.6l92,53.4
	c3.9,2.3,10.3,2.3,14.2,0l92.6-53.4c3.1-1.8,3.8-4.5,2-6.6L321.3,72.2z"/>
<linearGradient id="SVGID_3_" gradientUnits="userSpaceOnUse" x1="103.4927" y1="823.25" x2="307.9767" y2="823.25" gradientTransform="matrix(1 0 0 1 0 -764)">
	<stop  offset="0" style="stop-color:#FFFFFF"/>
	<stop  offset="0.4982" style="stop-color:#FCFDFF"/>
	<stop  offset="0.7974" style="stop-color:#F4F7FF"/>
	<stop  offset="1" style="stop-color:#E9EEFF"/>
</linearGradient>
<path class="st6" d="M106.4,63.4l91.9,53.4c3.9,2.3,10.3,2.3,14.2,0L305,63.4c3.1-1.8,3.8-4.5,2-6.6c-0.1-0.2-0.3-0.3-0.4-0.5
	c-0.4-0.4-0.9-0.8-1.5-1.1L213.2,1.7c-3.9-2.3-10.3-2.3-14.2,0l-92.5,53.4c-0.6,0.4-1.1,0.7-1.5,1.1c-0.2,0.2-0.3,0.3-0.5,0.5
	C102.7,58.9,103.3,61.6,106.4,63.4z"/>
<linearGradient id="SVGID_4_" gradientUnits="userSpaceOnUse" x1="105.674" y1="823.3" x2="305.8361" y2="823.3" gradientTransform="matrix(1 0 0 1 0 -764)">
	<stop  offset="0" style="stop-color:#FFFFFF"/>
	<stop  offset="0.4982" style="stop-color:#FCFDFF"/>
	<stop  offset="0.7974" style="stop-color:#F4F7FF"/>
	<stop  offset="1" style="stop-color:#E9EEFF"/>
</linearGradient>
<path class="st7" d="M205.4,116.3c-2.3,0-4.4-0.5-6-1.4l-91.9-53.4c-1-0.6-1.7-1.3-1.8-2c-0.1-0.4,0.1-0.9,0.4-1.3
	c0.1-0.1,0.2-0.2,0.3-0.3l0,0c0.3-0.3,0.7-0.6,1.1-0.8L200,3.7c1.5-0.9,3.7-1.4,6-1.4s4.4,0.5,6,1.4l92,53.4
	c0.4,0.2,0.8,0.5,1.1,0.8c0.1,0.1,0.2,0.2,0.3,0.3c0.4,0.5,0.5,0.9,0.4,1.3c-0.1,0.7-0.8,1.4-1.8,2l-92.5,53.4
	C209.9,115.8,207.7,116.3,205.4,116.3z"/>
<path class="st0" d="M122,62.7l77.5,45.1c3.3,1.9,8.6,1.9,12,0l78-45.1c2.6-1.5,3.2-3.8,1.7-5.6c-0.1-0.1-0.2-0.3-0.4-0.4
	c-0.4-0.3-0.8-0.7-1.3-1l-77.5-45c-3.3-1.9-8.6-1.9-12,0l-78,45.1c-0.5,0.3-0.9,0.6-1.3,1c-0.1,0.1-0.3,0.3-0.4,0.4
	C118.9,59,119.4,61.2,122,62.7z"/>
<path class="st8" d="M205.5,107c-1.9,0-3.6-0.4-4.9-1.1l-77.5-45.1c-0.8-0.4-1.3-1-1.3-1.4c0-0.1-0.1-0.4,0.3-0.8
	c0.1-0.1,0.1-0.2,0.2-0.2l0,0c0.2-0.2,0.5-0.4,0.8-0.6l78-45.1c1.3-0.7,3-1.1,4.9-1.1c1.8,0,3.6,0.4,4.9,1.1l77.5,45.1
	c0.3,0.2,0.6,0.4,0.8,0.6c0.1,0.1,0.1,0.1,0.2,0.2c0.4,0.5,0.3,0.7,0.3,0.8c-0.1,0.4-0.6,1-1.4,1.4l-78,45.1
	C209.1,106.6,207.3,107,205.5,107z"/>
<path class="st9" d="M215.1,66.7c-0.5-2-1.7-4-3.4-5.9c-1.8-2-4.1-3.8-7-5.3c-2.7-1.5-5.8-2.8-9.2-3.7c-3.4-1-6.9-1.7-10.5-2
	c-3.6-0.4-7.1-0.3-10.4,0.1c-3.5,0.4-6.6,1.3-9,2.6c-2.5,1.2-4.2,2.8-5.2,4.6c-0.7,1.3-1.1,2.7-1,4.2c0,0.1,0,0.2,0,0.3s0,0.2,0,0.3
	s0,0.2,0,0.3s0,0.2,0,0.3s0,0.2,0,0.3s0,0.2,0,0.3s0,0.2,0,0.3s0,0.2,0,0.3s0,0.2,0,0.3s0,0.2,0,0.3c0,0.1,0,0.2,0,0.3
	c0,0.1,0,0.2,0,0.3c0,0.1,0,0.2,0,0.3c0,0.1,0,0.2,0,0.3c0,0.5,0,1.1,0.2,1.6c0.4,2,1.5,4,3.1,5.9c1.7,1.9,4,3.8,6.9,5.4
	c2.7,1.6,5.9,2.9,9.4,3.9c3.4,1,7,1.7,10.6,2.1c3.7,0.3,7.2,0.3,10.6-0.2c3.5-0.5,6.7-1.4,9.1-2.8c1.8-1,3.2-2.2,4.3-3.5
	c0.9-1.3,1.5-2.7,1.7-4.1l6.2,0.6l4.5-2.5h-0.4l0.4-0.2h-0.4l0.4-0.2h-0.4l0.4-0.2h-0.4l0.4-0.2h-0.4l0.4-0.2h-0.4l0.4-0.2h-0.4
	l0.4-0.2h-0.4l0.4-0.2h-0.4l0.4-0.2h-0.4l0.4-0.2h-0.4l0.4-0.2h-0.4l0.4-0.2h-0.4l0.4-0.2h-0.4l0.4-0.2h-0.4l0.4-0.2L215.1,66.7z
	 M197.2,70.2l-0.4,0.2h0.4l-0.4,0.2h0.4l-0.4,0.2h0.4l-0.4,0.2h0.4l-0.4,0.2l9.9,1c-0.7,0.7-1.5,1.3-2.5,1.8c-1.8,1-4,1.7-6.6,2.1
	c-2.5,0.3-5.2,0.3-7.9,0c-2.8-0.3-5.5-0.9-8.1-1.7c-5.2-1.6-9.7-4.2-12.5-7.1c-1.4-1.4-2.3-2.9-2.8-4.4c0,0,0,0,0-0.1
	c0.1-0.2,0.1-0.3,0.2-0.5c0.7-1.4,2-2.7,3.9-3.6c1.8-0.9,4-1.6,6.5-1.9c2.5-0.3,5.1-0.3,7.7,0c2.8,0.3,5.4,0.8,8,1.7
	c2.7,0.8,5.1,1.8,7.3,3s4,2.6,5.4,4l-3.9-0.4l-4.6,2.5h0.4l-0.4,0.2h0.4l-0.4,0.2h0.4l-0.4,0.2h0.4l-0.4,0.2h0.4l-0.4,0.2h0.4
	l-0.4,0.2h0.4l-0.4,0.2h0.4l-0.4,0.2h0.4l-0.4,0.2h0.4l-0.4,0.2L197.2,70.2z"/>
<path class="st10" d="M248.9,55.5c0-0.1,0-0.2,0-0.3s0-0.2,0-0.3s0-0.2,0-0.3s0-0.2,0-0.3s0-0.2,0-0.3s0-0.2,0-0.3s0-0.2,0-0.3
	s0-0.2,0-0.3s0-0.2,0-0.3s0-0.2,0-0.3s0-0.2,0-0.3s0-0.2,0-0.3v-0.1c0-0.6,0-1.2-0.2-1.8c-0.5-1.5-1.4-2.9-2.7-4.3
	c-1.4-1.4-3.2-2.8-5.4-3.9c-2.1-1.1-4.4-2.1-6.9-2.9c-2.4-0.8-5-1.3-7.6-1.6c-2.5-0.2-5-0.2-7.3,0c-5.3,0.7-9.1,2.9-10.1,5.9
	c-0.1,0.5-0.2,0.9-0.2,1.4c0,0.1,0,0.2,0,0.3s0,0.2,0,0.3s0,0.2,0,0.3s0,0.2,0,0.3s0,0.2,0,0.3s0,0.2,0,0.3s0,0.2,0,0.3s0,0.2,0,0.3
	s0,0.2,0,0.3s0,0.2,0,0.3s0,0.2,0,0.3s0,0.1,0,0.2l-17.7-9.7l-4.5,2.3l0.2,0.1l-0.2,0.1l0.2,0.1l-0.2,0.1l0.2,0.1l-0.2,0.1l0.2,0.1
	l-0.2,0.1l0.2,0.1l-0.2,0.1l0.2,0.1l-0.2,0.1l0.2,0.1l-0.2,0.1l0.2,0.1l-0.2,0.1l0.2,0.1l-0.2,0.1l0.2,0.1l-0.2,0.1l0.2,0.1
	l-0.2,0.1l0.2,0.1l-0.2,0.1l0.2,0.1l-0.2,0.1l0.2,0.1l-0.2,0.1l0.2,0.1l-0.2,0.1l44.2,24.5l4-2.2l-0.2-0.1l0.2-0.1l-0.2-0.1l0.2-0.1
	l-0.2-0.1l0.2-0.1l-0.2-0.1l0.2-0.1l-0.2-0.1l0.2-0.1l-0.2-0.1l0.2-0.1l-0.2-0.1l0.2-0.1l-0.2-0.1l0.2-0.1l-0.2-0.1l0.2-0.1
	l-0.2-0.1l0.2-0.1l-0.2-0.1l0.2-0.1l0,0c1,0,1.9,0,2.8-0.1c3-0.3,5.5-1,7.5-2c1.7-0.9,3-2.1,3.5-3.4
	C248.7,57.4,248.9,56.5,248.9,55.5C248.9,55.6,248.9,55.5,248.9,55.5z M213.4,48.4c0.4-0.7,1.2-1.3,2.1-1.8c1.2-0.7,2.8-1.2,4.5-1.3
	c1.7-0.2,3.5-0.2,5.4,0s3.8,0.6,5.6,1.1c1.9,0.5,3.6,1.2,5.1,2.1c1.5,0.8,2.8,1.8,3.8,2.8c0.8,0.8,1.3,1.6,1.7,2.4
	c-0.4,1-1.4,1.8-2.6,2.5c-0.9,0.5-1.9,0.8-3.1,1.1c-1.3,0.2-2.6,0.4-4,0.5c-1.4,0-2.8,0-4.3-0.2c-1.3-0.2-2.7-0.5-3.9-1l-9.2-5.1
	c-0.6-0.8-1-1.6-1.4-2.4l0,0C213.2,48.9,213.3,48.7,213.4,48.4z"/>
<path class="st11" d="M215.2,69.5c-0.2,1.4-0.8,2.8-1.7,4.1c-1,1.3-2.4,2.5-4.3,3.5c-2.4,1.4-5.5,2.3-9.1,2.8
	c-3.3,0.4-6.9,0.5-10.6,0.2c-3.7-0.3-7.3-1-10.6-2.1c-3.5-1-6.6-2.4-9.4-3.9c-2.8-1.6-5.1-3.5-6.9-5.4c-1.7-1.9-2.7-3.9-3.1-5.9
	c-0.4-1.9-0.1-3.9,0.9-5.6c1-1.8,2.8-3.4,5.2-4.6c2.4-1.3,5.5-2.2,9-2.6c3.3-0.4,6.8-0.5,10.4-0.1c3.5,0.3,7.1,1,10.5,2
	s6.5,2.3,9.2,3.7c2.9,1.6,5.2,3.4,7,5.3c1.7,1.9,2.9,3.9,3.4,5.9l10.8,0.9l-4.5,2.5L215.2,69.5z M204.3,74.2
	c1.3-0.7,2.4-1.5,3.1-2.5c0.7-0.9,1.1-1.9,1.2-2.9l-11.7-1.2l4.6-2.5l6.7,0.6c-1.2-3-4.1-5.7-8.2-8c-2.2-1.2-4.6-2.2-7.3-3
	c-2.6-0.8-5.2-1.3-8-1.7c-2.7-0.3-5.3-0.3-7.7,0c-2.5,0.3-4.7,1-6.5,1.9c-1.8,1-3.2,2.3-3.9,3.6c-0.6,1.4-0.7,2.8-0.2,4.3
	s1.4,3,2.8,4.4c2.8,2.9,7.3,5.5,12.5,7.1c2.6,0.8,5.3,1.4,8.1,1.7c2.7,0.3,5.4,0.3,7.9,0C200.2,75.9,202.5,75.2,204.3,74.2z"/>
<path class="st12" d="M244.8,58.1c-2,1.1-4.5,1.8-7.5,2c-2.8,0.2-5.9,0.1-8.8-0.5l6,3.3l-4,2.2l-44.2-24.5l4.5-2.3l18.7,10.3
	c-0.9-1.7-1.2-3.3-0.8-4.9c1-3,4.8-5.2,10.1-5.9c2.3-0.3,4.8-0.2,7.3,0c2.6,0.3,5.2,0.8,7.6,1.6c2.6,0.8,4.9,1.8,6.9,2.9
	c2.2,1.2,4,2.5,5.4,3.9c1.3,1.4,2.2,2.8,2.7,4.3c0.4,1.4,0.2,2.8-0.4,4.1C247.7,56,246.5,57.2,244.8,58.1z M239,56.1
	c1.3-0.7,2.2-1.5,2.7-2.5c0.5-0.9,0.5-2,0.2-3s-0.9-2.1-1.9-3.1s-2.3-1.9-3.8-2.8c-1.5-0.8-3.2-1.5-5.1-2.1
	c-1.8-0.5-3.7-0.9-5.6-1.1c-1.8-0.2-3.7-0.2-5.4,0s-3.3,0.6-4.5,1.3c-0.9,0.5-1.6,1.1-2.1,1.8c-0.4,0.7-0.7,1.4-0.8,2.1
	c0,0.7,0.1,1.5,0.4,2.3c0.3,0.8,0.7,1.6,1.4,2.4l9.2,5.1c1.2,0.5,2.6,0.8,3.9,1c1.4,0.2,2.8,0.2,4.3,0.2c1.4-0.1,2.7-0.2,4-0.5
	C237,57,238.1,56.6,239,56.1z"/>
</svg>
