<svg width="439" height="315" viewBox="0 0 439 315" fill="none" xmlns="http://www.w3.org/2000/svg">
<g clip-path="url(#clip0_1_21)">
<path d="M344.3 278.2C346.2 279.3 346.3 281.2 344.3 282.3L289.7 313.8C287.8 314.9 284.6 314.9 282.7 313.8L246.1 290.5C244.2 289.4 244.1 287.5 246.1 286.4L300.7 254.9C302.6 253.8 305.8 253.8 307.7 254.9L344.3 278.2Z" fill="#302B40"/>
<path d="M120.1 239.8C122.3 241.1 122.3 243.2 120.1 244.5L57.2 280.8C55 282.1 51.3 282.1 49.1 280.8L6.9 254C4.7 252.7 4.6 250.6 6.9 249.3L69.8 213C72 211.7 75.7 211.7 77.9 213L120.1 239.8Z" fill="#302B40"/>
<path d="M437.5 175.8C438.6 176.5 438.6 177.5 437.5 178.2L405.7 196.5C404.6 197.2 402.7 197.2 401.6 196.5L380.4 183C379.3 182.3 379.3 181.3 380.4 180.6L412.2 162.3C413.3 161.6 415.2 161.6 416.3 162.3L437.5 175.8Z" fill="#302B40"/>
<path d="M58 188.6C59.1 189.3 59.1 190.3 58 191L26.2 209.3C25.1 210 23.2 210 22.1 209.3L0.899997 195.8C-0.200003 195.1 -0.200003 194.1 0.899997 193.4L32.7 175.1C33.8 174.4 35.7 174.4 36.8 175.1L58 188.6Z" fill="#302B40"/>
<path d="M379.9 138.2C388.6 143.2 388.6 151.3 380 156.3L224.1 246.9C215.5 251.9 201.5 251.9 192.8 246.9L35.9 156.3C27.2 151.3 27.2 143.2 35.8 138.2L191.7 47.6C200.3 42.6 214.3 42.6 223 47.6L379.9 138.2Z" fill="#302B40"/>
<path d="M379.3 108.2C388 113.2 388 121.3 379.4 126.3L223.3 217C214.7 222 200.6 222 192 217L34.8 126.4C26.1 121.4 26.1 113.3 34.7 108.2L190.8 17.5C199.4 12.5 213.4 12.5 222.1 17.5L379.3 108.2Z" fill="url(#paint0_linear_1_21)"/>
<path d="M385.8 115.1C385.8 115.2 385.8 115.2 385.8 115.3C385.8 115.4 385.7 115.6 385.7 115.7C386.6 119.5 384.5 123.5 379.5 126.4L223.4 217.1C214.8 222.1 200.7 222.1 192.1 217.1L34.8 126.4C30.5 123.9 28.3 120.6 28.3 117.3V121.1C28.3 124.4 30.5 127.7 34.8 130.2L192 220.9C192.5 221.2 193.1 221.5 193.6 221.7C193.8 221.8 194 221.9 194.2 221.9C194.5 222 194.9 222.2 195.2 222.3C195.3 222.3 195.3 222.3 195.4 222.4C195.5 222.4 195.7 222.5 195.8 222.5C196.2 222.7 196.7 222.8 197.1 223C197.3 223 197.4 223.1 197.6 223.1C197.7 223.1 197.8 223.2 197.9 223.2C198.1 223.3 198.3 223.3 198.5 223.3C199 223.4 199.4 223.5 199.9 223.6C200 223.6 200.1 223.7 200.3 223.7C200.5 223.7 200.7 223.8 200.9 223.8C201.3 223.9 201.7 223.9 202.1 224C202.3 224 202.4 224.1 202.6 224.1C202.8 224.1 202.9 224.1 203.1 224.2C203.5 224.2 203.8 224.3 204.2 224.3C204.4 224.3 204.6 224.3 204.7 224.4C204.9 224.4 205 224.4 205.2 224.4C205.6 224.4 205.9 224.4 206.3 224.5C206.5 224.5 206.7 224.5 206.9 224.5C207.1 224.5 207.2 224.5 207.3 224.5C207.7 224.5 208.1 224.5 208.5 224.5C208.7 224.5 208.9 224.5 209.1 224.5C209.2 224.5 209.3 224.5 209.5 224.5C210 224.5 210.5 224.4 211 224.4C211.2 224.4 211.4 224.4 211.6 224.4C211.7 224.4 211.8 224.4 211.9 224.4C212.1 224.4 212.2 224.4 212.3 224.3C212.8 224.2 213.3 224.2 213.8 224.1C213.9 224.1 214.1 224.1 214.2 224C214.3 224 214.3 224 214.4 224C214.6 224 214.9 223.9 215.1 223.8C215.5 223.7 215.9 223.6 216.3 223.5C216.6 223.4 216.9 223.3 217.2 223.3C217.6 223.2 218 223.1 218.3 223C218.4 223 218.5 223 218.5 222.9C219 222.8 219.4 222.6 219.8 222.4C219.9 222.4 219.9 222.3 220 222.3C220.5 222.1 221 221.9 221.4 221.7C221.5 221.6 221.7 221.6 221.8 221.5C222.3 221.3 222.8 221 223.3 220.7L379.4 130C379.5 129.9 379.6 129.9 379.7 129.8C380.1 129.6 380.5 129.3 380.8 129.1C380.9 129.1 380.9 129 381 129C381.4 128.7 381.8 128.4 382.1 128.1C382.2 128.1 382.2 128 382.3 128C382.4 127.9 382.4 127.9 382.5 127.8C382.8 127.5 383 127.3 383.3 127C383.4 126.9 383.4 126.9 383.4 126.8C383.5 126.6 383.7 126.5 383.8 126.3C383.9 126.2 384 126 384.1 125.9L384.2 125.8C384.4 125.5 384.5 125.3 384.7 125C384.7 124.9 384.8 124.8 384.8 124.7C384.8 124.6 384.9 124.6 384.9 124.5C385 124.2 385.2 123.9 385.3 123.7C385.3 123.6 385.3 123.6 385.4 123.5C385.4 123.4 385.4 123.4 385.5 123.3C385.6 123 385.7 122.7 385.7 122.4C385.7 122.3 385.7 122.3 385.7 122.2C385.7 122.1 385.7 122.1 385.7 122C385.7 121.7 385.8 121.4 385.8 121.1C385.8 121 385.8 121 385.8 120.9V113.7C385.9 114.3 385.8 114.7 385.8 115.1Z" fill="#BDCFE0"/>
<path d="M385.8 118.3C385.8 118.4 385.8 118.4 385.8 118.5C385.8 118.6 385.7 118.8 385.7 118.9C386.6 122.7 384.5 126.7 379.5 129.6L223.4 220.3C214.8 225.3 200.7 225.3 192.1 220.3L34.8 129.6C30.5 127.1 28.3 123.8 28.3 120.5V124.3C28.3 127.6 30.5 130.9 34.8 133.4L192 224.1C192.5 224.4 193.1 224.7 193.6 224.9C193.8 225 194 225.1 194.2 225.2C194.5 225.3 194.9 225.5 195.2 225.6C195.3 225.6 195.3 225.6 195.4 225.7C195.5 225.7 195.7 225.8 195.8 225.8C196.2 226 196.7 226.1 197.1 226.3C197.3 226.3 197.4 226.4 197.6 226.4C197.7 226.4 197.8 226.5 197.9 226.5C198.1 226.6 198.3 226.6 198.5 226.6C199 226.7 199.4 226.8 199.9 226.9C200 226.9 200.1 227 200.3 227C200.5 227 200.7 227.1 200.9 227.1C201.3 227.2 201.7 227.2 202.1 227.3C202.3 227.3 202.4 227.4 202.6 227.4C202.8 227.4 202.9 227.4 203.1 227.5C203.5 227.5 203.8 227.6 204.2 227.6C204.4 227.6 204.5 227.6 204.7 227.7C204.9 227.7 205 227.7 205.2 227.7C205.6 227.7 205.9 227.7 206.3 227.8C206.5 227.8 206.7 227.8 206.9 227.8C207.1 227.8 207.2 227.8 207.3 227.8C207.7 227.8 208.1 227.8 208.5 227.8C208.7 227.8 208.9 227.8 209.1 227.8C209.2 227.8 209.3 227.8 209.5 227.8C210 227.8 210.5 227.7 211 227.7C211.2 227.7 211.4 227.7 211.6 227.7C211.7 227.7 211.8 227.7 211.9 227.7C212.1 227.7 212.2 227.7 212.4 227.6C212.9 227.5 213.4 227.5 213.9 227.4C214 227.4 214.2 227.4 214.3 227.3C214.4 227.3 214.4 227.3 214.5 227.3C214.7 227.3 215 227.2 215.2 227.1C215.6 227 216 226.9 216.4 226.8C216.7 226.7 217 226.6 217.3 226.6C217.7 226.5 218.1 226.4 218.4 226.3C218.5 226.3 218.6 226.3 218.6 226.2C219.1 226.1 219.5 225.9 219.9 225.7C220 225.7 220 225.6 220.1 225.6C220.6 225.4 221.1 225.2 221.5 225C221.6 224.9 221.8 224.9 221.9 224.8C222.4 224.6 222.9 224.3 223.4 224L379.5 133.3C379.6 133.2 379.7 133.2 379.8 133.1C380.2 132.9 380.6 132.6 380.9 132.4C381 132.4 381 132.3 381.1 132.3C381.5 132 381.9 131.7 382.2 131.4C382.3 131.4 382.3 131.3 382.4 131.3C382.5 131.2 382.5 131.2 382.6 131.1C382.9 130.8 383.1 130.6 383.4 130.3C383.5 130.2 383.5 130.2 383.5 130.1C383.6 129.9 383.8 129.8 383.9 129.6C384 129.5 384.1 129.3 384.2 129.2L384.3 129.1C384.5 128.8 384.6 128.6 384.8 128.3C384.8 128.2 384.9 128.1 384.9 128C384.9 127.9 385 127.9 385 127.8C385.1 127.5 385.3 127.2 385.4 127C385.4 126.9 385.4 126.9 385.5 126.8C385.5 126.7 385.5 126.7 385.6 126.6C385.7 126.3 385.8 126 385.8 125.7C385.8 125.6 385.8 125.6 385.8 125.5C385.8 125.4 385.8 125.4 385.8 125.3C385.8 125 385.9 124.7 385.9 124.4C385.9 124.3 385.9 124.3 385.9 124.2V117C385.9 117.6 385.8 117.9 385.8 118.3Z" fill="#BDCFE0"/>
<path opacity="0.1" d="M75.1 124.1L196 194.4C201.1 197.4 209.5 197.4 214.7 194.4L336.4 124.2C340.5 121.8 341.3 118.3 339 115.5C338.8 115.3 338.6 115.1 338.4 114.9C337.9 114.4 337.2 113.9 336.4 113.4L215.5 43.1C210.4 40.1 202 40.1 196.8 43.1L75.2 113.3C74.4 113.8 73.7 114.3 73.2 114.8C73 115 72.8 115.2 72.6 115.5C70.3 118.3 71.1 121.8 75.1 124.1Z" fill="#6154F9"/>
<path d="M336.3 100.1L214.6 170.3C209.4 173.3 201.1 173.3 195.9 170.3L75.2 100C71 97.6 70.3 93.9 72.9 91L79.3 84.1L88 74.6L90.2 72.2L104.5 56.7C102.7 58.8 103.4 61.5 106.4 63.3L198.4 116.7C202.3 119 208.7 119 212.6 116.7L305.2 63.3C308.3 61.5 309 58.8 307.2 56.7L321.4 72.2L323.6 74.6L332.4 84.1L338.8 91C341.3 93.9 340.6 97.6 336.3 100.1Z" fill="#302B40"/>
<path opacity="0.2" d="M323.5 74.6L214.6 137.5C209.4 140.5 201.1 140.5 195.9 137.5L88 74.7L90.2 72.3L104.5 56.8C102.7 58.9 103.4 61.6 106.4 63.4L198.4 116.8C202.3 119.1 208.7 119.1 212.6 116.8L305.2 63.4C308.3 61.6 309 58.9 307.2 56.8L321.4 72.3L323.5 74.6Z" fill="#6154F9"/>
<path d="M321.3 72.2L214.7 133.8C209.5 136.8 201.2 136.8 196 133.8L90.2 72.3L104.5 56.8C102.7 58.9 103.4 61.6 106.4 63.4L198.4 116.8C202.3 119.1 208.7 119.1 212.6 116.8L305.2 63.4C308.3 61.6 309 58.9 307.2 56.8L321.3 72.2Z" fill="url(#paint1_linear_1_21)"/>
<path d="M106.4 63.4L198.3 116.8C202.2 119.1 208.6 119.1 212.5 116.8L305 63.4C308.1 61.6 308.8 58.9 307 56.8C306.9 56.6 306.7 56.5 306.6 56.3C306.2 55.9 305.7 55.5 305.1 55.2L213.2 1.70001C209.3 -0.599994 202.9 -0.599994 199 1.70001L106.5 55.1C105.9 55.5 105.4 55.8 105 56.2C104.8 56.4 104.7 56.5 104.5 56.7C102.7 58.9 103.3 61.6 106.4 63.4Z" fill="url(#paint2_linear_1_21)"/>
<path d="M205.4 116.3C203.1 116.3 201 115.8 199.4 114.9L107.5 61.5C106.5 60.9 105.8 60.2 105.7 59.5C105.6 59.1 105.8 58.6 106.1 58.2C106.2 58.1 106.3 58 106.4 57.9C106.7 57.6 107.1 57.3 107.5 57.1L200 3.69999C201.5 2.79999 203.7 2.29999 206 2.29999C208.3 2.29999 210.4 2.79999 212 3.69999L304 57.1C304.4 57.3 304.8 57.6 305.1 57.9C305.2 58 305.3 58.1 305.4 58.2C305.8 58.7 305.9 59.1 305.8 59.5C305.7 60.2 305 60.9 304 61.5L211.5 114.9C209.9 115.8 207.7 116.3 205.4 116.3Z" fill="url(#paint3_linear_1_21)" stroke="#302B40" stroke-width="0.25" stroke-miterlimit="10"/>
<path d="M122 62.7L199.5 107.8C202.8 109.7 208.1 109.7 211.5 107.8L289.5 62.7C292.1 61.2 292.7 58.9 291.2 57.1C291.1 57 291 56.8 290.8 56.7C290.4 56.4 290 56 289.5 55.7L212 10.7C208.7 8.79999 203.4 8.79999 200 10.7L122 55.8C121.5 56.1 121.1 56.4 120.7 56.8C120.6 56.9 120.4 57.1 120.3 57.2C118.9 59 119.4 61.2 122 62.7Z" fill="#302B40"/>
<path d="M205.5 107C203.6 107 201.9 106.6 200.6 105.9L123.1 60.8C122.3 60.4 121.8 59.8 121.8 59.4C121.8 59.3 121.7 59 122.1 58.6C122.2 58.5 122.2 58.4 122.3 58.4C122.5 58.2 122.8 58 123.1 57.8L201.1 12.7C202.4 12 204.1 11.6 206 11.6C207.8 11.6 209.6 12 210.9 12.7L288.4 57.8C288.7 58 289 58.2 289.2 58.4C289.3 58.5 289.3 58.5 289.4 58.6C289.8 59.1 289.7 59.3 289.7 59.4C289.6 59.8 289.1 60.4 288.3 60.8L210.3 105.9C209.1 106.6 207.3 107 205.5 107Z" fill="#302B40" stroke="#302B40" stroke-width="0.75" stroke-miterlimit="10"/>
<path d="M239.498 69.3105C238.75 69.364 237.992 69.3489 237.251 69.2658L231.693 68.8089C230.327 70.3483 228.531 71.7464 226.378 72.9476C219.796 76.7478 212.994 78.7953 205.972 79.0903C198.951 79.3854 192.179 77.7816 185.658 74.2788C184.224 73.5308 182.204 72.3652 179.519 70.8147C176.833 69.2641 174.744 68.0582 173.448 67.23C167.427 63.536 164.662 59.6049 165.151 55.437C165.64 51.2691 169.118 47.3312 175.583 43.6234C182.035 39.8985 188.871 37.8827 196.09 37.5759C203.31 37.269 210.13 38.8596 216.55 42.3475C219.377 43.8678 221.469 45.0227 222.828 45.812C224.187 46.6012 226.164 47.796 228.76 49.3963C234.361 52.8485 237.196 56.4265 237.265 60.1305L249.719 61.4158C250.055 61.472 250.367 61.5699 250.632 61.7026L250.784 61.7906C250.965 61.8933 251.106 62.0168 251.198 62.1531C251.291 62.2892 251.332 62.4349 251.32 62.5806C251.302 62.8791 251.089 63.1619 250.724 63.372L241.544 68.6718C241.006 69.0111 240.286 69.236 239.498 69.3105ZM220.036 62.174C220.004 60.4036 218.432 58.5668 215.321 56.6635C212.67 55.051 210.784 53.9209 209.662 53.2733C208.437 52.5658 206.437 51.4697 203.733 50.0177C200.436 48.2116 197.261 47.2931 194.206 47.2626C191.152 47.2321 188.331 47.974 185.742 49.4882C184.574 50.1016 183.641 50.8483 182.999 51.6817C182.357 52.5151 182.022 53.4171 182.013 54.3315C182.032 56.0994 183.593 57.9326 186.697 59.831C187.984 60.6225 189.895 61.7526 192.431 63.2213C194.966 64.6899 196.917 65.7896 198.284 66.5205C201.577 68.3146 204.748 69.2281 207.798 69.261C210.848 69.294 213.655 68.5678 216.219 67.0827C218.791 65.5977 220.064 63.9614 220.036 62.174Z" fill="#DEDEDE"/>
<path d="M241.498 68.3105C240.75 68.364 239.992 68.3489 239.251 68.2658L233.693 67.8089C232.327 69.3483 230.531 70.7464 228.378 71.9476C221.796 75.7478 214.994 77.7953 207.972 78.0903C200.951 78.3854 194.179 76.7816 187.658 73.2788C186.224 72.5308 184.204 71.3652 181.519 69.8147C178.833 68.2641 176.744 67.0582 175.448 66.23C169.427 62.536 166.662 58.6049 167.151 54.437C167.64 50.2691 171.118 46.3312 177.583 42.6234C184.035 38.8985 190.871 36.8827 198.09 36.5759C205.31 36.269 212.13 37.8596 218.55 41.3475C221.377 42.8678 223.469 44.0227 224.828 44.812C226.187 45.6012 228.164 46.796 230.76 48.3963C236.361 51.8485 239.196 55.4265 239.265 59.1305L251.719 60.4158C252.055 60.472 252.367 60.5699 252.632 60.7026L252.784 60.7906C252.965 60.8933 253.106 61.0168 253.198 61.1531C253.291 61.2892 253.332 61.4349 253.32 61.5806C253.302 61.8791 253.089 62.1619 252.724 62.372L243.544 67.6718C243.006 68.0111 242.286 68.236 241.498 68.3105ZM222.036 61.174C222.004 59.4036 220.432 57.5668 217.321 55.6635C214.67 54.051 212.784 52.9209 211.662 52.2733C210.437 51.5658 208.437 50.4697 205.733 49.0177C202.436 47.2116 199.261 46.2931 196.206 46.2626C193.152 46.2321 190.331 46.974 187.742 48.4882C186.574 49.1016 185.641 49.8483 184.999 50.6817C184.357 51.5151 184.022 52.4171 184.013 53.3315C184.032 55.0994 185.593 56.9326 188.697 58.831C189.984 59.6225 191.895 60.7526 194.431 62.2213C196.966 63.6899 198.917 64.7896 200.284 65.5205C203.577 67.3146 206.748 68.2281 209.798 68.261C212.848 68.294 215.655 67.5678 218.219 66.0827C220.791 64.5977 222.064 62.9614 222.036 61.174Z" fill="white"/>
</g>
<defs>
<linearGradient id="paint0_linear_1_21" x1="207.05" y1="220.75" x2="207.05" y2="13.75" gradientUnits="userSpaceOnUse">
<stop stop-color="white"/>
<stop offset="0.4982" stop-color="#FCFDFF"/>
<stop offset="0.7974" stop-color="#F4F7FF"/>
<stop offset="1" stop-color="#E9EEFF"/>
</linearGradient>
<linearGradient id="paint1_linear_1_21" x1="90.2" y1="96.425" x2="321.3" y2="96.425" gradientUnits="userSpaceOnUse">
<stop offset="0.1028" stop-color="#DDEAF7"/>
<stop offset="0.3774" stop-color="white"/>
<stop offset="0.7098" stop-color="#EAF2FA"/>
<stop offset="1" stop-color="#DDEAF7"/>
</linearGradient>
<linearGradient id="paint2_linear_1_21" x1="103.493" y1="59.25" x2="307.977" y2="59.25" gradientUnits="userSpaceOnUse">
<stop stop-color="white"/>
<stop offset="0.4982" stop-color="#FCFDFF"/>
<stop offset="0.7974" stop-color="#F4F7FF"/>
<stop offset="1" stop-color="#E9EEFF"/>
</linearGradient>
<linearGradient id="paint3_linear_1_21" x1="105.674" y1="59.3" x2="305.836" y2="59.3" gradientUnits="userSpaceOnUse">
<stop stop-color="white"/>
<stop offset="0.4982" stop-color="#FCFDFF"/>
<stop offset="0.7974" stop-color="#F4F7FF"/>
<stop offset="1" stop-color="#E9EEFF"/>
</linearGradient>
<clipPath id="clip0_1_21">
<rect width="439" height="315" fill="white"/>
</clipPath>
</defs>
</svg>
