<svg width="301" height="88" viewBox="0 0 301 88" fill="none" xmlns="http://www.w3.org/2000/svg">
<path fill-rule="evenodd" clip-rule="evenodd" d="M255.633 8.05247C255.492 7.90996 255.382 7.73962 255.309 7.55214C255.236 7.36465 255.203 7.16407 255.211 6.963V1.51565C255.203 1.31452 255.236 1.11382 255.308 0.926255C255.381 0.73869 255.491 0.568343 255.633 0.425996C255.774 0.283649 255.943 0.172402 256.13 0.0992954C256.316 0.0261892 256.515 -0.00718401 256.715 0.00128797H263.785C263.985 -0.00718401 264.184 0.0261892 264.37 0.0992954C264.556 0.172402 264.725 0.283649 264.867 0.425996C265.008 0.568343 265.119 0.73869 265.191 0.926255C265.264 1.11382 265.297 1.31452 265.289 1.51565V6.963C265.297 7.16413 265.264 7.36483 265.191 7.55239C265.119 7.73996 265.008 7.91031 264.867 8.05265C264.725 8.195 264.556 8.30625 264.37 8.37935C264.184 8.45246 263.985 8.48583 263.785 8.47736H256.715C256.515 8.4848 256.316 8.45093 256.13 8.37785C255.944 8.30476 255.775 8.19402 255.633 8.05247ZM77.7617 7.55165C77.8334 7.73916 77.9429 7.90968 78.0833 8.05246C78.2254 8.19375 78.3946 8.30432 78.5807 8.37738C78.7667 8.45044 78.9656 8.48446 79.1652 8.47735H86.2405C86.44 8.48588 86.6391 8.4525 86.8251 8.37934C87.0111 8.30618 87.1799 8.19484 87.3208 8.05241C87.4618 7.90997 87.5717 7.73955 87.6437 7.55199C87.7157 7.36444 87.7481 7.16385 87.7389 6.96299V1.51564C87.746 1.31514 87.7128 1.11526 87.6412 0.928025C87.5697 0.740793 87.4612 0.570082 87.3224 0.42617C87.1803 0.284879 87.011 0.174311 86.825 0.101247C86.639 0.0281826 86.4401 -0.00583631 86.2405 0.00127678H79.1652C78.9656 -0.00583631 78.7667 0.0281826 78.5807 0.101247C78.3946 0.174311 78.2254 0.284879 78.0833 0.42617C77.9434 0.569331 77.8343 0.739915 77.7626 0.92733C77.691 1.11475 77.6584 1.31499 77.6668 1.51564V6.96299C77.6577 7.16371 77.69 7.36414 77.7617 7.55165ZM169.852 40.6058V42.5396C169.857 42.7403 169.822 42.94 169.75 43.127C169.677 43.3141 169.569 43.4847 169.43 43.6291C169.293 43.7783 169.125 43.896 168.938 43.974C168.752 44.052 168.55 44.0886 168.348 44.0812H161.554C161.353 44.0865 161.152 44.0489 160.966 43.9711C160.779 43.8932 160.611 43.7767 160.472 43.6291C160.327 43.4885 160.212 43.3192 160.135 43.1317C160.057 42.9442 160.02 42.7426 160.023 42.5396V2.58335C160.018 2.38016 160.055 2.17807 160.132 1.99033C160.21 1.80258 160.326 1.63341 160.472 1.49388C160.764 1.21563 161.153 1.06484 161.554 1.07444H168.889C169.088 1.06787 169.287 1.10161 169.473 1.17366C169.658 1.24571 169.828 1.3546 169.971 1.49388C170.111 1.63715 170.221 1.80763 170.293 1.99493C170.366 2.18222 170.4 2.38243 170.393 2.58335V15.5371C172.636 13.1694 175.561 11.9855 179.167 11.9855C183.055 11.9855 186.12 13.2565 188.363 15.7986C190.606 18.3407 191.809 21.7907 191.971 26.1486C192.014 26.6933 192.03 27.4015 192.03 28.3275C192.03 29.2536 192.03 29.9236 191.971 30.4465C191.769 34.9678 190.566 38.4705 188.363 40.9545C186.159 43.4385 183.094 44.6786 179.167 44.675C175.161 44.6714 172.056 43.315 169.852 40.6058ZM179.984 34.8643C180.885 33.4769 181.375 31.8593 181.396 30.2014C181.471 29.3952 181.515 28.7687 181.515 28.3221C181.515 27.8754 181.471 27.2326 181.396 26.4482C181.374 24.7921 180.884 23.1766 179.984 21.7907C179.162 20.6613 177.807 20.0966 175.921 20.0966C174.158 20.0966 172.817 20.6413 171.897 21.7308C170.95 22.8879 170.42 24.3336 170.393 25.8326L170.334 28.0715L170.393 30.3703C170.438 31.9673 170.95 33.5154 171.864 34.8208C172.723 35.972 174.075 36.5476 175.921 36.5476C177.768 36.5476 179.122 35.9865 179.984 34.8643ZM126.139 43.0837C126.217 43.2713 126.333 43.4404 126.48 43.5801C126.61 43.7332 126.771 43.857 126.952 43.9434C127.133 44.0297 127.33 44.0767 127.53 44.0812H134.508C134.71 44.0886 134.911 44.052 135.098 43.974C135.284 43.8959 135.452 43.7783 135.59 43.6291C135.866 43.3356 136.016 42.9439 136.006 42.5396V31.5196L145.51 43.0353C145.79 43.3349 146.102 43.6017 146.441 43.8306C146.804 44.0131 147.209 44.0958 147.615 44.0703H155.853C156.124 44.0861 156.394 44.0152 156.623 43.8679C156.852 43.7206 157.029 43.5042 157.129 43.2496C157.229 42.995 157.247 42.7152 157.18 42.4498C157.113 42.1844 156.965 41.9471 156.756 41.7715L144.428 26.6933L155.247 14.9542C155.405 14.8353 155.531 14.6792 155.615 14.4998C155.699 14.3203 155.738 14.1228 155.729 13.9247C155.731 13.75 155.697 13.5767 155.63 13.4155C155.563 13.2543 155.464 13.1087 155.339 12.9878C155.218 12.8608 155.073 12.76 154.912 12.6916C154.751 12.6232 154.578 12.5887 154.403 12.5901H146.349C146.062 12.5856 145.777 12.6374 145.51 12.7426C145.255 12.8534 145.021 13.0083 144.818 13.2002L144.364 13.6196L136.006 22.8801V2.59966C136.013 2.39924 135.979 2.19953 135.908 2.01239C135.836 1.82524 135.728 1.65447 135.59 1.51019C135.446 1.37092 135.277 1.26202 135.091 1.18997C134.905 1.11792 134.707 1.08418 134.508 1.09075H127.53C127.141 1.08302 126.765 1.22755 126.48 1.49385C126.332 1.63224 126.214 1.80108 126.136 1.98901C126.058 2.17693 126.02 2.37958 126.026 2.58332V42.4906C126.022 42.694 126.061 42.8961 126.139 43.0837ZM26.8464 47.5948C26.4861 47.3139 26.1721 46.9775 25.916 46.5979L23.8713 43.8742C22.1413 44.432 20.3323 44.7007 18.5161 44.6696C12.8687 44.6696 8.4295 43.2732 5.19834 40.4805C1.96718 37.6879 0.254237 33.5915 0.0595024 28.1913C0 27.0201 0 25.2879 0 22.9837C0 20.6794 0 18.8873 0.0595024 17.7161C0.221782 12.3886 1.95637 8.28127 5.26325 5.39418C8.57014 2.50708 12.9877 1.07261 18.5161 1.09077C24.0516 1.09077 28.4818 2.52524 31.8067 5.39418C35.1316 8.26311 36.8752 12.3704 37.0375 17.7161C37.1205 20.0584 37.1601 21.8143 37.1565 22.9837C37.1529 24.153 37.1132 25.8889 37.0375 28.1913C36.8752 33.1593 35.4328 37.0342 32.7101 39.816L37.097 46.1131C37.1996 46.2991 37.2605 46.5055 37.2755 46.7178V46.8485C37.2767 47.0024 37.2455 47.1547 37.1839 47.2956C37.1224 47.4364 37.0319 47.5625 36.9185 47.6656C36.689 47.8797 36.3875 47.9984 36.0747 47.9979H28.1987C27.7159 48.0194 27.2398 47.8775 26.8464 47.5948ZM23.8009 33.9437C25.1028 32.6146 25.7934 30.5755 25.8727 27.8264C25.934 25.4913 25.9647 23.8425 25.9647 22.8802C25.9647 21.8288 25.9214 20.1565 25.8403 17.9176C25.7681 15.1613 25.0884 13.1167 23.8009 11.7839C22.5135 10.4511 20.7519 9.792 18.5161 9.80653C17.5596 9.76154 16.6042 9.91588 15.7097 10.2599C14.8152 10.6039 14.0009 11.1301 13.3177 11.8057C12.0123 13.1276 11.3199 15.1595 11.2405 17.9013C11.2045 19.0416 11.1846 20.7012 11.181 22.8802C11.1774 25.0591 11.1973 26.7133 11.2405 27.8427C11.3199 30.5882 12.0014 32.6273 13.2853 33.9601C14.5691 35.2929 16.3127 35.9574 18.5161 35.9538C20.723 35.9538 22.4847 35.2838 23.8009 33.9437ZM78.0725 43.6291C77.9314 43.4866 77.8211 43.3163 77.7485 43.1288C77.6759 42.9413 77.6425 42.7407 77.6506 42.5396V14.0827C77.6422 13.8816 77.6753 13.6809 77.7479 13.4933C77.8205 13.3057 77.931 13.1354 78.0723 12.993C78.2137 12.8507 78.3828 12.7395 78.5691 12.6663C78.7553 12.5932 78.9546 12.5599 79.1544 12.5683H86.2459C86.4459 12.559 86.6455 12.5918 86.8322 12.6646C87.0188 12.7375 87.1883 12.8487 87.3298 12.9912C87.4714 13.1337 87.5818 13.3044 87.6541 13.4924C87.7264 13.6803 87.759 13.8814 87.7497 14.0827V42.5396C87.7593 42.944 87.6095 43.3356 87.3332 43.6291C87.1955 43.7781 87.0277 43.8955 86.841 43.9735C86.6544 44.0515 86.4533 44.0882 86.2514 44.0812H79.1544C78.9528 44.0852 78.7526 44.047 78.5664 43.9692C78.3802 43.8914 78.2121 43.7756 78.0725 43.6291ZM41.2243 30.9804C41.2243 35.3019 42.3062 38.663 44.4699 41.0634C46.6336 43.4675 49.4807 44.6696 53.0112 44.6696C57.5767 44.6696 60.8331 43.1933 62.921 40.2463V42.5233C62.9307 42.9219 63.0922 43.3015 63.3721 43.5834C63.6521 43.8653 64.029 44.028 64.4248 44.0377H71.4028C71.6052 44.044 71.8065 44.0064 71.9932 43.9274C72.1799 43.8485 72.3475 43.73 72.4847 43.5801C72.7533 43.3032 72.9046 42.9321 72.9066 42.5451V14.0882C72.915 13.887 72.8819 13.6863 72.8093 13.4988C72.7367 13.3112 72.6262 13.1408 72.4849 12.9985C72.3435 12.8561 72.1744 12.7449 71.9881 12.6718C71.8019 12.5987 71.6026 12.5653 71.4028 12.5738H63.8839C63.4904 12.5699 63.1114 12.7226 62.8291 12.9987C62.6815 13.1376 62.565 13.3066 62.4876 13.4945C62.4102 13.6824 62.3735 13.8848 62.3801 14.0882V30.6154C62.3801 32.4748 61.8987 33.9274 60.9358 34.9733C60.4255 35.5083 59.8068 35.9264 59.1216 36.199C58.4365 36.4716 57.701 36.5924 56.9654 36.553C53.4818 36.553 51.74 34.5738 51.74 30.6154V14.0882C51.7466 13.8843 51.7095 13.6814 51.631 13.4934C51.5526 13.3054 51.4348 13.1366 51.2856 12.9987C50.9841 12.715 50.5838 12.5623 50.1713 12.5738H42.7335C42.5329 12.5645 42.3325 12.5974 42.1452 12.6705C41.9579 12.7436 41.7878 12.8552 41.6458 12.9982C41.5038 13.1413 41.3929 13.3126 41.3204 13.5012C41.2478 13.6898 41.2151 13.8915 41.2243 14.0936V30.9804ZM199.089 41.0634C196.926 38.663 195.844 35.3019 195.844 30.9804V14.0936C195.835 13.8925 195.869 13.6918 195.941 13.5042C196.014 13.3166 196.124 13.1463 196.266 13.0039C196.407 12.8616 196.576 12.7504 196.762 12.6772C196.949 12.6041 197.148 12.5708 197.348 12.5792H204.796C205.207 12.568 205.606 12.7208 205.905 13.0041C206.054 13.1421 206.172 13.3108 206.251 13.4989C206.329 13.6869 206.366 13.8898 206.36 14.0936V30.6154C206.36 34.5738 208.103 36.553 211.59 36.553C212.325 36.5923 213.06 36.4715 213.744 36.1989C214.428 35.9262 215.046 35.5082 215.555 34.9733C216.518 33.9274 217 32.4748 217 30.6154V14.0882C216.993 13.8848 217.03 13.6824 217.107 13.4945C217.185 13.3066 217.301 13.1376 217.449 12.9987C217.731 12.7236 218.11 12.5711 218.503 12.5738H226.017C226.217 12.5653 226.416 12.5987 226.602 12.6718C226.788 12.7449 226.958 12.8562 227.099 12.9985C227.24 13.1408 227.351 13.3112 227.423 13.4988C227.496 13.6863 227.529 13.887 227.521 14.0882V42.5451C227.524 42.9397 227.373 43.3196 227.099 43.6019C226.962 43.7521 226.794 43.8708 226.608 43.9497C226.421 44.0287 226.219 44.0661 226.017 44.0595H219.039C218.644 44.0472 218.269 43.8837 217.989 43.6023C217.71 43.3209 217.547 42.9428 217.535 42.5451V40.2463C215.453 43.1933 212.196 44.6696 207.625 44.6696C204.098 44.6696 201.253 43.4675 199.089 41.0634ZM231.713 2.58332V12.5683H231.718V32.157C231.718 40.1065 235.866 44.0812 244.16 44.0812H249.731C249.933 44.0886 250.135 44.052 250.321 43.974C250.508 43.8959 250.676 43.7783 250.813 43.6291C250.952 43.4847 251.06 43.3141 251.133 43.127C251.205 42.94 251.24 42.7403 251.235 42.5396V37.272C251.242 37.0711 251.208 36.8708 251.136 36.6834C251.063 36.4961 250.954 36.3256 250.813 36.1826C250.67 36.0433 250.5 35.9344 250.315 35.8623C250.129 35.7903 249.93 35.7566 249.731 35.7631H245.101C242.815 35.7668 241.672 34.2724 241.672 31.2799V20.4942H249.19C249.602 20.5066 250.002 20.356 250.305 20.0748C250.452 19.9354 250.568 19.7663 250.645 19.5785C250.723 19.3907 250.76 19.1885 250.754 18.9853V14.0827C250.76 13.8794 250.723 13.6772 250.645 13.4894C250.568 13.3017 250.452 13.1325 250.305 12.9932C250.003 12.7105 249.603 12.558 249.19 12.5683H241.672V2.59966C241.678 2.39924 241.645 2.19953 241.573 2.01239C241.501 1.82524 241.393 1.65447 241.255 1.51019C241.112 1.37092 240.942 1.26202 240.756 1.18997C240.571 1.11792 240.372 1.08418 240.173 1.09075H233.217C232.828 1.08302 232.452 1.22755 232.167 1.49385C232.019 1.63224 231.901 1.80108 231.823 1.98901C231.745 2.17693 231.707 2.37958 231.713 2.58332ZM255.611 43.6291C255.47 43.4866 255.36 43.3163 255.287 43.1288C255.215 42.9413 255.181 42.7407 255.189 42.5396V14.0827C255.181 13.8816 255.214 13.6809 255.287 13.4933C255.359 13.3057 255.47 13.1354 255.611 12.993C255.752 12.8507 255.922 12.7394 256.108 12.6663C256.294 12.5932 256.493 12.5599 256.693 12.5683H263.79C263.99 12.5599 264.189 12.5932 264.375 12.6663C264.562 12.7394 264.731 12.8507 264.872 12.993C265.014 13.1354 265.124 13.3057 265.197 13.4933C265.269 13.6809 265.302 13.8816 265.294 14.0827V42.5396C265.299 42.7403 265.264 42.94 265.192 43.1271C265.119 43.3141 265.011 43.4847 264.872 43.6291C264.735 43.7783 264.567 43.896 264.38 43.974C264.193 44.052 263.992 44.0886 263.79 44.0812H256.693C256.492 44.0848 256.292 44.0465 256.105 43.9687C255.919 43.8909 255.751 43.7753 255.611 43.6291ZM269.947 43.0834C270.025 43.2711 270.14 43.4403 270.287 43.5801C270.418 43.7334 270.58 43.8572 270.761 43.9436C270.943 44.0299 271.141 44.0768 271.342 44.0812H278.314C278.516 44.0886 278.717 44.052 278.904 43.974C279.091 43.8959 279.259 43.7783 279.396 43.6291C279.535 43.4847 279.643 43.3141 279.716 43.127C279.788 42.94 279.823 42.7403 279.818 42.5396V31.5196L289.317 43.0353C289.598 43.328 289.91 43.5892 290.247 43.8143C290.611 43.9962 291.016 44.0789 291.421 44.054H299.675C299.941 44.0605 300.203 43.9844 300.424 43.836C300.645 43.6875 300.816 43.474 300.912 43.2245C301.008 42.9749 301.026 42.7015 300.963 42.4415C300.899 42.1815 300.758 41.9476 300.557 41.7715L288.235 26.6933L299.059 14.9542C299.216 14.835 299.341 14.6788 299.424 14.4992C299.507 14.3197 299.545 14.1224 299.535 13.9247C299.531 13.573 299.39 13.2368 299.144 12.9876C298.897 12.7383 298.564 12.5957 298.215 12.5901H290.155C289.868 12.5856 289.584 12.6374 289.317 12.7426C289.063 12.8561 288.829 13.0107 288.624 13.2002C288.454 13.3546 288.329 13.4739 288.243 13.5555L288.242 13.5569L288.175 13.6196L279.818 22.8801V2.59966C279.825 2.39874 279.791 2.19854 279.718 2.01124C279.646 1.82394 279.536 1.65347 279.396 1.51019C279.253 1.37092 279.083 1.26202 278.897 1.18997C278.711 1.11792 278.513 1.08418 278.314 1.09075H271.342C270.951 1.08274 270.573 1.22721 270.287 1.49385C270.139 1.63251 270.022 1.80153 269.945 1.98949C269.867 2.17744 269.831 2.37995 269.838 2.58332V42.4906C269.833 42.6937 269.87 42.8957 269.947 43.0834ZM107.499 36.9234C102.344 36.9234 101.717 32.2169 101.717 29.1936V27.494C101.717 24.4708 102.328 19.7643 107.499 19.7643C110.063 19.7643 111.626 21.3985 112.303 23.5774C112.388 23.8672 112.563 24.1218 112.803 24.3041C113.042 24.4864 113.333 24.5868 113.633 24.5906H120.665C120.867 24.5892 121.067 24.5439 121.25 24.4578C121.432 24.3716 121.595 24.2466 121.725 24.0914C121.856 23.9362 121.951 23.7544 122.006 23.5585C122.06 23.3626 122.071 23.1572 122.039 22.9564C121.379 19.0125 119.8 16.1036 116.7 14.2406C114.071 12.6664 110.972 12.0127 107.391 12.0127C103.81 12.0127 100.705 12.6664 98.0815 14.2406C94.1219 16.6211 91.6553 20.7012 91.6553 26.4318C91.6553 26.4318 91.6228 27.5866 91.6228 28.3057C91.6228 29.0247 91.6553 30.2504 91.6553 30.2504C91.6553 35.9974 94.1381 40.0556 98.0923 42.4307C100.716 44.005 103.821 44.6586 107.402 44.6586C110.983 44.6586 114.082 44.005 116.711 42.4307C119.811 40.5731 121.39 37.6642 122.05 33.7149C122.082 33.5141 122.071 33.3087 122.016 33.1128C121.962 32.9169 121.867 32.7351 121.736 32.5799C121.606 32.4247 121.443 32.2997 121.26 32.2135C121.077 32.1274 120.878 32.0821 120.676 32.0807H113.644C113.344 32.0833 113.053 32.1825 112.814 32.3639C112.574 32.5453 112.399 32.7993 112.313 33.0885C111.626 35.311 110.063 36.9234 107.499 36.9234ZM92.666 81H96.2109V58.5H92.666V81ZM72.3926 81V65.1504H68.8477V81H72.3926ZM69.1406 59.6572C68.7891 60.0088 68.6133 60.4531 68.6133 60.9902C68.6133 61.5176 68.7891 61.957 69.1406 62.3086C69.502 62.6602 70 62.8359 70.6348 62.8359C71.2598 62.8359 71.7529 62.6602 72.1143 62.3086C72.4756 61.957 72.6562 61.5176 72.6562 60.9902C72.6562 60.4531 72.4756 60.0088 72.1143 59.6572C71.7529 59.2959 71.2598 59.1152 70.6348 59.1152C70 59.1152 69.502 59.2959 69.1406 59.6572ZM13.3887 75.5068C13.3887 75.0674 13.3203 74.6768 13.1836 74.335C13.0566 73.9932 12.8271 73.6807 12.4951 73.3975C12.1631 73.1143 11.6943 72.8408 11.0889 72.5771C10.4932 72.3037 9.73145 72.0254 8.80371 71.7422C7.78809 71.4297 6.85059 71.083 5.99121 70.7021C5.1416 70.3115 4.39941 69.8623 3.76465 69.3545C3.12988 68.8369 2.63672 68.2461 2.28516 67.582C1.93359 66.9082 1.75781 66.1318 1.75781 65.2529C1.75781 64.3838 1.93848 63.5928 2.2998 62.8799C2.6709 62.167 3.19336 61.5518 3.86719 61.0342C4.55078 60.5068 5.35645 60.1016 6.28418 59.8184C7.21191 59.5254 8.2373 59.3789 9.36035 59.3789C10.9424 59.3789 12.3047 59.6719 13.4473 60.2578C14.5996 60.8438 15.4834 61.6299 16.0986 62.6162C16.7236 63.6025 17.0361 64.6914 17.0361 65.8828H13.3887C13.3887 65.1797 13.2373 64.5596 12.9346 64.0225C12.6416 63.4756 12.1924 63.0459 11.5869 62.7334C10.9912 62.4209 10.2344 62.2646 9.31641 62.2646C8.44727 62.2646 7.72461 62.3965 7.14844 62.6602C6.57227 62.9238 6.14258 63.2803 5.85938 63.7295C5.57617 64.1787 5.43457 64.6865 5.43457 65.2529C5.43457 65.6533 5.52734 66.0195 5.71289 66.3516C5.89844 66.6738 6.18164 66.9766 6.5625 67.2598C6.94336 67.5332 7.42188 67.792 7.99805 68.0361C8.57422 68.2803 9.25293 68.5146 10.0342 68.7393C11.2158 69.0908 12.2461 69.4814 13.125 69.9111C14.0039 70.3311 14.7363 70.8096 15.3223 71.3467C15.9082 71.8838 16.3477 72.4941 16.6406 73.1777C16.9336 73.8516 17.0801 74.6182 17.0801 75.4775C17.0801 76.376 16.8994 77.1865 16.5381 77.9092C16.1768 78.6221 15.6592 79.2324 14.9854 79.7402C14.3213 80.2383 13.5205 80.624 12.583 80.8975C11.6553 81.1611 10.6201 81.293 9.47754 81.293C8.45215 81.293 7.44141 81.1562 6.44531 80.8828C5.45898 80.6094 4.56055 80.1943 3.75 79.6377C2.93945 79.0713 2.29492 78.3682 1.81641 77.5283C1.33789 76.6787 1.09863 75.6875 1.09863 74.5547H4.77539C4.77539 75.248 4.89258 75.8389 5.12695 76.3271C5.37109 76.8154 5.70801 77.2158 6.1377 77.5283C6.56738 77.8311 7.06543 78.0557 7.63184 78.2021C8.20801 78.3486 8.82324 78.4219 9.47754 78.4219C10.3369 78.4219 11.0547 78.2998 11.6309 78.0557C12.2168 77.8115 12.6562 77.4697 12.9492 77.0303C13.2422 76.5908 13.3887 76.083 13.3887 75.5068ZM23.5254 87.0938V79.525C23.9765 80.0365 24.5038 80.4451 25.1074 80.751C25.8496 81.1123 26.7139 81.293 27.7002 81.293C28.6963 81.293 29.5752 81.0928 30.3369 80.6924C31.0986 80.292 31.7383 79.7305 32.2559 79.0078C32.7832 78.2754 33.1787 77.4209 33.4424 76.4443C33.7158 75.458 33.8525 74.3887 33.8525 73.2363V72.9287C33.8525 71.7178 33.7207 70.6191 33.457 69.6328C33.1934 68.6367 32.7979 67.7871 32.2705 67.084C31.7432 66.3711 31.0938 65.8242 30.3223 65.4434C29.5508 65.0527 28.667 64.8574 27.6709 64.8574C26.6943 64.8574 25.8398 65.043 25.1074 65.4141C24.446 65.7492 23.8762 66.2117 23.3979 66.8017L23.2471 65.1504H19.9951V87.0938H23.5254ZM24.7266 77.9678C24.209 77.6162 23.8086 77.1475 23.5254 76.5615V69.5882C23.6542 69.3331 23.8056 69.0989 23.9795 68.8857C24.2822 68.5146 24.6582 68.2266 25.1074 68.0215C25.5566 67.8066 26.0938 67.6992 26.7188 67.6992C27.3535 67.6992 27.8955 67.8359 28.3447 68.1094C28.8037 68.373 29.1797 68.7441 29.4727 69.2227C29.7656 69.7012 29.9805 70.2578 30.1172 70.8926C30.2539 71.5176 30.3223 72.1963 30.3223 72.9287V73.2363C30.3223 73.9492 30.2539 74.623 30.1172 75.2578C29.9805 75.8926 29.7656 76.4541 29.4727 76.9424C29.1895 77.4209 28.8232 77.7969 28.374 78.0703C27.9248 78.3438 27.3828 78.4805 26.748 78.4805C25.9277 78.4805 25.2539 78.3096 24.7266 77.9678ZM40.6641 80.7217C41.6113 81.1025 42.6709 81.293 43.8428 81.293C44.8779 81.293 45.7861 81.1514 46.5674 80.8682C47.3584 80.585 48.0273 80.2188 48.5742 79.7695C49.1211 79.3105 49.5654 78.832 49.9072 78.334L48.0469 76.5322C47.5586 77.1572 46.9824 77.6406 46.3184 77.9824C45.6543 78.3242 44.8975 78.4951 44.0479 78.4951C43.374 78.4951 42.7734 78.373 42.2461 78.1289C41.7188 77.875 41.2695 77.5283 40.8984 77.0889C40.5273 76.6494 40.2441 76.1367 40.0488 75.5508C39.9098 75.1045 39.8229 74.6309 39.788 74.1299H50.1855V72.6211C50.1855 71.4785 50.0439 70.4336 49.7607 69.4863C49.4873 68.5391 49.0674 67.7236 48.501 67.04C47.9443 66.3467 47.2412 65.8096 46.3916 65.4287C45.542 65.0479 44.5508 64.8574 43.418 64.8574C42.3926 64.8574 41.4404 65.0479 40.5615 65.4287C39.6826 65.8096 38.9209 66.3613 38.2764 67.084C37.6318 67.7969 37.1289 68.6562 36.7676 69.6621C36.4062 70.668 36.2256 71.791 36.2256 73.0312V73.6172C36.2256 74.7012 36.4014 75.7119 36.7529 76.6494C37.1045 77.5869 37.6074 78.4023 38.2617 79.0957C38.9258 79.7891 39.7266 80.3311 40.6641 80.7217ZM39.8613 71.5957C39.8981 71.3251 39.9459 71.0663 40.0049 70.8193C40.1709 70.1553 40.4053 69.5889 40.708 69.1201C41.0107 68.6514 41.3867 68.2949 41.8359 68.0508C42.2949 67.7969 42.8174 67.6699 43.4033 67.6699C44.1846 67.6699 44.8096 67.8408 45.2783 68.1826C45.7471 68.5244 46.0938 68.9736 46.3184 69.5303C46.5527 70.0869 46.6797 70.6826 46.6992 71.3174V71.5957H39.8613ZM59.4141 78.4805C59.9902 78.4805 60.5078 78.3682 60.9668 78.1436C61.4355 77.9092 61.8115 77.5869 62.0947 77.1768C62.3877 76.7666 62.5488 76.293 62.5781 75.7559H65.9033C65.8838 76.7812 65.5811 77.7139 64.9951 78.5537C64.4092 79.3936 63.6328 80.0625 62.666 80.5605C61.6992 81.0488 60.6299 81.293 59.458 81.293C58.2471 81.293 57.1924 81.0879 56.2939 80.6777C55.3955 80.2578 54.6484 79.6816 54.0527 78.9492C53.457 78.2168 53.0078 77.3721 52.7051 76.415C52.4121 75.458 52.2656 74.4326 52.2656 73.3389V72.8262C52.2656 71.7324 52.4121 70.707 52.7051 69.75C53.0078 68.7832 53.457 67.9336 54.0527 67.2012C54.6484 66.4688 55.3955 65.8975 56.2939 65.4873C57.1924 65.0674 58.2422 64.8574 59.4434 64.8574C60.7129 64.8574 61.8262 65.1113 62.7832 65.6191C63.7402 66.1172 64.4922 66.8154 65.0391 67.7139C65.5957 68.6025 65.8838 69.6377 65.9033 70.8193H62.5781C62.5488 70.2334 62.4023 69.7061 62.1387 69.2373C61.8848 68.7588 61.5234 68.3779 61.0547 68.0947C60.5957 67.8115 60.0439 67.6699 59.3994 67.6699C58.6865 67.6699 58.0957 67.8164 57.627 68.1094C57.1582 68.3926 56.792 68.7832 56.5283 69.2812C56.2646 69.7695 56.0742 70.3213 55.957 70.9365C55.8496 71.542 55.7959 72.1719 55.7959 72.8262V73.3389C55.7959 73.9932 55.8496 74.6279 55.957 75.2432C56.0645 75.8584 56.25 76.4102 56.5137 76.8984C56.7871 77.377 57.1582 77.7627 57.627 78.0557C58.0957 78.3389 58.6914 78.4805 59.4141 78.4805ZM84.8584 79.8867C85.0201 79.7388 85.1709 79.5884 85.3108 79.4356L85.3188 79.4927L85.3271 79.5498C85.4248 80.1357 85.5566 80.6191 85.7227 81H89.3408V80.7656C89.1455 80.3457 88.9941 79.8525 88.8867 79.2861C88.7891 78.71 88.7402 78.0605 88.7402 77.3379V70.292C88.7402 69.0811 88.4717 68.0752 87.9346 67.2744C87.4072 66.4639 86.6797 65.8584 85.752 65.458C84.834 65.0576 83.7793 64.8574 82.5879 64.8574C81.5918 64.8574 80.6934 64.9893 79.8926 65.2529C79.0918 65.5166 78.4033 65.8779 77.8271 66.3369C77.251 66.7959 76.8115 67.3184 76.5088 67.9043C76.2061 68.4902 76.0547 69.0957 76.0547 69.7207H79.5703C79.5703 69.3008 79.6875 68.9248 79.9219 68.5928C80.1562 68.2607 80.4834 67.9971 80.9033 67.8018C81.3232 67.6064 81.8213 67.5088 82.3975 67.5088C83.0225 67.5088 83.54 67.6211 83.9502 67.8457C84.3701 68.0703 84.6826 68.3877 84.8877 68.7979C85.0928 69.208 85.1953 69.6963 85.1953 70.2627V71.3613H82.9395C81.7871 71.3613 80.7617 71.4785 79.8633 71.7129C78.9648 71.9375 78.2031 72.2695 77.5781 72.709C76.9629 73.1484 76.4941 73.6953 76.1719 74.3496C75.8594 74.9941 75.7031 75.7363 75.7031 76.5762C75.7031 77.4746 75.9326 78.2803 76.3916 78.9932C76.8506 79.6963 77.4854 80.2578 78.2959 80.6777C79.1064 81.0879 80.0293 81.293 81.0645 81.293C81.8848 81.293 82.6074 81.1611 83.2324 80.8975C83.8672 80.6338 84.4092 80.2969 84.8584 79.8867ZM84.9316 76.957C85.0358 76.8105 85.1237 76.6668 85.1953 76.5257V73.5439H83.2031C82.5488 73.5439 81.9727 73.6074 81.4746 73.7344C80.9766 73.8516 80.5615 74.0273 80.2295 74.2617C79.8975 74.4961 79.6484 74.7793 79.4824 75.1113C79.3164 75.4434 79.2334 75.8193 79.2334 76.2393C79.2334 76.6592 79.3311 77.0449 79.5264 77.3965C79.7217 77.7383 80.0049 78.0068 80.376 78.2021C80.7568 78.3975 81.2158 78.4951 81.7529 78.4951C82.4756 78.4951 83.1055 78.3486 83.6426 78.0557C84.1895 77.7529 84.6191 77.3867 84.9316 76.957ZM103.857 65.1504V81H100.312V65.1504H103.857ZM100.078 60.9902C100.078 60.4531 100.254 60.0088 100.605 59.6572C100.967 59.2959 101.465 59.1152 102.1 59.1152C102.725 59.1152 103.218 59.2959 103.579 59.6572C103.94 60.0088 104.121 60.4531 104.121 60.9902C104.121 61.5176 103.94 61.957 103.579 62.3086C103.218 62.6602 102.725 62.8359 102.1 62.8359C101.465 62.8359 100.967 62.6602 100.605 62.3086C100.254 61.957 100.078 61.5176 100.078 60.9902ZM116.353 75.7559C116.528 76.0391 116.616 76.3564 116.616 76.708C116.616 77.0889 116.504 77.4307 116.279 77.7334C116.055 78.0264 115.728 78.2607 115.298 78.4365C114.868 78.6025 114.336 78.6855 113.701 78.6855C113.174 78.6855 112.661 78.6025 112.163 78.4365C111.675 78.2607 111.265 77.9824 110.933 77.6016C110.61 77.2109 110.43 76.6885 110.391 76.0342H106.978C106.978 76.9033 107.231 77.7432 107.739 78.5537C108.257 79.3545 109.014 80.0137 110.01 80.5312C111.006 81.0391 112.222 81.293 113.657 81.293C114.634 81.293 115.513 81.1758 116.294 80.9414C117.085 80.707 117.764 80.3799 118.33 79.96C118.896 79.5303 119.326 79.0273 119.619 78.4512C119.922 77.8652 120.073 77.2207 120.073 76.5176C120.073 75.5703 119.839 74.7891 119.37 74.1738C118.901 73.5488 118.228 73.041 117.349 72.6504C116.479 72.25 115.439 71.9229 114.229 71.6689C113.584 71.5322 113.047 71.3906 112.617 71.2441C112.197 71.0977 111.865 70.9414 111.621 70.7754C111.377 70.5996 111.201 70.4092 111.094 70.2041C110.996 69.9893 110.947 69.75 110.947 69.4863C110.947 69.125 111.04 68.793 111.226 68.4902C111.421 68.1875 111.714 67.9434 112.104 67.7578C112.505 67.5625 113.008 67.4648 113.613 67.4648C114.248 67.4648 114.775 67.582 115.195 67.8164C115.615 68.041 115.928 68.3389 116.133 68.71C116.348 69.0713 116.455 69.4619 116.455 69.8818H119.985C119.985 68.9346 119.731 68.085 119.224 67.333C118.716 66.5713 117.983 65.9707 117.026 65.5312C116.079 65.082 114.941 64.8574 113.613 64.8574C112.676 64.8574 111.826 64.9844 111.064 65.2383C110.312 65.4922 109.673 65.8389 109.146 66.2783C108.618 66.7178 108.213 67.2256 107.93 67.8018C107.646 68.3779 107.505 68.9883 107.505 69.6328C107.505 70.2969 107.642 70.8828 107.915 71.3906C108.188 71.8984 108.574 72.3379 109.072 72.709C109.57 73.0801 110.166 73.3975 110.859 73.6611C111.562 73.915 112.334 74.1348 113.174 74.3203C114.131 74.5156 114.854 74.7305 115.342 74.9648C115.84 75.1992 116.177 75.4629 116.353 75.7559ZM130.43 65.1504V67.7285H127.603V76.6201C127.603 77.1084 127.671 77.4844 127.808 77.748C127.954 78.002 128.154 78.1729 128.408 78.2607C128.662 78.3486 128.96 78.3926 129.302 78.3926C129.546 78.3926 129.78 78.3779 130.005 78.3486C130.229 78.3193 130.41 78.29 130.547 78.2607L130.562 80.9561C130.269 81.0439 129.927 81.1221 129.536 81.1904C129.155 81.2588 128.716 81.293 128.218 81.293C127.407 81.293 126.689 81.1514 126.064 80.8682C125.439 80.5752 124.951 80.1016 124.6 79.4473C124.248 78.793 124.072 77.9238 124.072 76.8398V67.7285H121.494V65.1504H124.072V61.2686H127.603V65.1504H130.43ZM144.653 73.0459H149.077C150.728 73.0459 152.129 72.7822 153.281 72.2549C154.443 71.7275 155.327 70.9707 155.933 69.9844C156.538 68.998 156.841 67.8164 156.841 66.4395C156.841 65.1309 156.538 63.9688 155.933 62.9531C155.327 61.9277 154.443 61.127 153.281 60.5508C152.129 59.9648 150.728 59.6719 149.077 59.6719H140.977V81H144.653V73.0459ZM144.653 70.1309V62.6016H149.077C150.044 62.6016 150.825 62.7822 151.421 63.1436C152.017 63.5049 152.451 63.9834 152.725 64.5791C153.008 65.165 153.149 65.7949 153.149 66.4688C153.149 67.1816 153.008 67.8164 152.725 68.373C152.451 68.9199 152.017 69.3496 151.421 69.6621C150.825 69.9746 150.044 70.1309 149.077 70.1309H144.653ZM168.208 79.8867C168.37 79.7388 168.521 79.5884 168.66 79.4356C168.666 79.4736 168.671 79.5117 168.677 79.5498C168.774 80.1357 168.906 80.6191 169.072 81H172.69V80.7656C172.495 80.3457 172.344 79.8525 172.236 79.2861C172.139 78.71 172.09 78.0605 172.09 77.3379V70.292C172.09 69.0811 171.821 68.0752 171.284 67.2744C170.757 66.4639 170.029 65.8584 169.102 65.458C168.184 65.0576 167.129 64.8574 165.938 64.8574C164.941 64.8574 164.043 64.9893 163.242 65.2529C162.441 65.5166 161.753 65.8779 161.177 66.3369C160.601 66.7959 160.161 67.3184 159.858 67.9043C159.556 68.4902 159.404 69.0957 159.404 69.7207H162.92C162.92 69.3008 163.037 68.9248 163.271 68.5928C163.506 68.2607 163.833 67.9971 164.253 67.8018C164.673 67.6064 165.171 67.5088 165.747 67.5088C166.372 67.5088 166.89 67.6211 167.3 67.8457C167.72 68.0703 168.032 68.3877 168.237 68.7979C168.442 69.208 168.545 69.6963 168.545 70.2627V71.3613H166.289C165.137 71.3613 164.111 71.4785 163.213 71.7129C162.314 71.9375 161.553 72.2695 160.928 72.709C160.312 73.1484 159.844 73.6953 159.521 74.3496C159.209 74.9941 159.053 75.7363 159.053 76.5762C159.053 77.4746 159.282 78.2803 159.741 78.9932C160.2 79.6963 160.835 80.2578 161.646 80.6777C162.456 81.0879 163.379 81.293 164.414 81.293C165.234 81.293 165.957 81.1611 166.582 80.8975C167.217 80.6338 167.759 80.2969 168.208 79.8867ZM168.281 76.957C168.385 76.8105 168.473 76.6668 168.545 76.5257V73.5439H166.553C165.898 73.5439 165.322 73.6074 164.824 73.7344C164.326 73.8516 163.911 74.0273 163.579 74.2617C163.247 74.4961 162.998 74.7793 162.832 75.1113C162.666 75.4434 162.583 75.8193 162.583 76.2393C162.583 76.6592 162.681 77.0449 162.876 77.3965C163.071 77.7383 163.354 78.0068 163.726 78.2021C164.106 78.3975 164.565 78.4951 165.103 78.4951C165.825 78.4951 166.455 78.3486 166.992 78.0557C167.539 77.7529 167.969 77.3867 168.281 76.957ZM179.326 70.1671V81H175.796V65.1504H179.165L179.264 67.0123C179.285 66.9773 179.305 66.9426 179.326 66.9082C179.727 66.2637 180.225 65.7607 180.82 65.3994C181.426 65.0381 182.124 64.8574 182.915 64.8574C183.13 64.8574 183.359 64.877 183.604 64.916C183.857 64.9551 184.048 64.999 184.175 65.0479L184.146 68.3291C183.931 68.29 183.696 68.2607 183.442 68.2412C183.198 68.2217 182.954 68.2119 182.71 68.2119C182.104 68.2119 181.572 68.2998 181.113 68.4756C180.654 68.6416 180.269 68.8857 179.956 69.208C179.695 69.477 179.485 69.7967 179.326 70.1671ZM194.385 67.7285H191.558V76.6201C191.558 77.1084 191.626 77.4844 191.763 77.748C191.909 78.002 192.109 78.1729 192.363 78.2607C192.617 78.3486 192.915 78.3926 193.257 78.3926C193.501 78.3926 193.735 78.3779 193.96 78.3486C194.185 78.3193 194.365 78.29 194.502 78.2607L194.517 80.9561C194.224 81.0439 193.882 81.1221 193.491 81.1904C193.11 81.2588 192.671 81.293 192.173 81.293C191.362 81.293 190.645 81.1514 190.02 80.8682C189.395 80.5752 188.906 80.1016 188.555 79.4473C188.203 78.793 188.027 77.9238 188.027 76.8398V67.7285H185.449V65.1504H188.027V61.2686H191.558V65.1504H194.385V67.7285ZM200.61 69.736V81H197.08V65.1504H200.405L200.521 67.0605C200.546 67.029 200.571 66.9978 200.596 66.9668C201.152 66.293 201.816 65.7754 202.588 65.4141C203.359 65.043 204.219 64.8574 205.166 64.8574C205.928 64.8574 206.616 64.9648 207.231 65.1797C207.856 65.3848 208.389 65.7217 208.828 66.1904C209.277 66.6592 209.619 67.2695 209.854 68.0215C210.088 68.7637 210.205 69.6768 210.205 70.7607V81H206.66V70.7461C206.66 69.9844 206.548 69.3838 206.323 68.9443C206.108 68.4951 205.791 68.1777 205.371 67.9922C204.961 67.7969 204.448 67.6992 203.833 67.6992C203.228 67.6992 202.686 67.8262 202.207 68.0801C201.729 68.334 201.323 68.6807 200.991 69.1201C200.85 69.3123 200.723 69.5176 200.61 69.736ZM220.796 81.293C219.624 81.293 218.564 81.1025 217.617 80.7217C216.68 80.3311 215.879 79.7891 215.215 79.0957C214.561 78.4023 214.058 77.5869 213.706 76.6494C213.354 75.7119 213.179 74.7012 213.179 73.6172V73.0312C213.179 71.791 213.359 70.668 213.721 69.6621C214.082 68.6562 214.585 67.7969 215.229 67.084C215.874 66.3613 216.636 65.8096 217.515 65.4287C218.394 65.0479 219.346 64.8574 220.371 64.8574C221.504 64.8574 222.495 65.0479 223.345 65.4287C224.194 65.8096 224.897 66.3467 225.454 67.04C226.021 67.7236 226.44 68.5391 226.714 69.4863C226.997 70.4336 227.139 71.4785 227.139 72.6211V74.1299H216.741C216.776 74.6309 216.863 75.1045 217.002 75.5508C217.197 76.1367 217.48 76.6494 217.852 77.0889C218.223 77.5283 218.672 77.875 219.199 78.1289C219.727 78.373 220.327 78.4951 221.001 78.4951C221.851 78.4951 222.607 78.3242 223.271 77.9824C223.936 77.6406 224.512 77.1572 225 76.5322L226.86 78.334C226.519 78.832 226.074 79.3105 225.527 79.7695C224.98 80.2188 224.312 80.585 223.521 80.8682C222.739 81.1514 221.831 81.293 220.796 81.293ZM216.958 70.8193C216.899 71.0663 216.851 71.3251 216.814 71.5957H223.652V71.3174C223.633 70.6826 223.506 70.0869 223.271 69.5303C223.047 68.9736 222.7 68.5244 222.231 68.1826C221.763 67.8408 221.138 67.6699 220.356 67.6699C219.771 67.6699 219.248 67.7969 218.789 68.0508C218.34 68.2949 217.964 68.6514 217.661 69.1201C217.358 69.5889 217.124 70.1553 216.958 70.8193ZM233.438 70.1671V81H229.907V65.1504H233.276L233.376 67.0123C233.396 66.9773 233.417 66.9426 233.438 66.9082C233.838 66.2637 234.336 65.7607 234.932 65.3994C235.537 65.0381 236.235 64.8574 237.026 64.8574C237.241 64.8574 237.471 64.877 237.715 64.916C237.969 64.9551 238.159 64.999 238.286 65.0479L238.257 68.3291C238.042 68.29 237.808 68.2607 237.554 68.2412C237.31 68.2217 237.065 68.2119 236.821 68.2119C236.216 68.2119 235.684 68.2998 235.225 68.4756C234.766 68.6416 234.38 68.8857 234.067 69.208C233.807 69.477 233.597 69.7967 233.438 70.1671Z" fill="black"/>
</svg>
