<svg width="301" height="82" viewBox="0 0 301 82" fill="none" xmlns="http://www.w3.org/2000/svg">
<path fill-rule="evenodd" clip-rule="evenodd" d="M255.633 8.05247C255.492 7.90997 255.382 7.73962 255.309 7.55214C255.236 7.36465 255.203 7.16408 255.211 6.963V1.51565C255.203 1.31452 255.236 1.11382 255.308 0.926258C255.381 0.738693 255.491 0.568346 255.633 0.425999C255.774 0.283652 255.943 0.172404 256.13 0.0992983C256.316 0.0261921 256.515 -0.00718108 256.715 0.0012909H263.785C263.985 -0.00718108 264.184 0.0261921 264.37 0.0992983C264.556 0.172404 264.725 0.283652 264.867 0.425999C265.008 0.568346 265.119 0.738693 265.191 0.926258C265.264 1.11382 265.297 1.31452 265.289 1.51565V6.963C265.297 7.16413 265.264 7.36483 265.191 7.5524C265.119 7.73996 265.008 7.91031 264.867 8.05266C264.725 8.195 264.556 8.30625 264.37 8.37936C264.184 8.45246 263.985 8.48584 263.785 8.47737H256.715C256.515 8.4848 256.316 8.45093 256.13 8.37785C255.944 8.30477 255.775 8.19403 255.633 8.05247ZM77.7617 7.55166C77.8334 7.73917 77.9429 7.90968 78.0833 8.05246C78.2254 8.19375 78.3946 8.30432 78.5807 8.37738C78.7667 8.45045 78.9656 8.48447 79.1652 8.47735H86.2405C86.44 8.48588 86.6391 8.4525 86.8251 8.37934C87.0111 8.30619 87.1799 8.19485 87.3208 8.05241C87.4618 7.90997 87.5717 7.73955 87.6437 7.552C87.7157 7.36444 87.7481 7.16385 87.7389 6.96299V1.51564C87.746 1.31514 87.7128 1.11526 87.6412 0.928028C87.5697 0.740796 87.4612 0.570085 87.3224 0.426173C87.1803 0.284882 87.011 0.174314 86.825 0.10125C86.639 0.0281855 86.4401 -0.00583339 86.2405 0.00127971H79.1652C78.9656 -0.00583339 78.7667 0.0281855 78.5807 0.10125C78.3946 0.174314 78.2254 0.284882 78.0833 0.426173C77.9434 0.569334 77.8343 0.739918 77.7626 0.927333C77.691 1.11475 77.6584 1.315 77.6668 1.51564V6.96299C77.6577 7.16371 77.69 7.36414 77.7617 7.55166ZM169.852 40.6058V42.5396C169.857 42.7403 169.822 42.94 169.75 43.127C169.677 43.3141 169.569 43.4847 169.43 43.6291C169.293 43.7783 169.125 43.896 168.938 43.974C168.752 44.052 168.55 44.0886 168.348 44.0812H161.554C161.353 44.0865 161.152 44.0489 160.966 43.9711C160.779 43.8932 160.611 43.7767 160.472 43.6291C160.327 43.4885 160.212 43.3192 160.135 43.1317C160.057 42.9442 160.02 42.7426 160.023 42.5396V2.58335C160.018 2.38016 160.055 2.17808 160.132 1.99033C160.21 1.80259 160.326 1.63341 160.472 1.49388C160.764 1.21564 161.153 1.06484 161.554 1.07444H168.889C169.088 1.06787 169.287 1.10161 169.473 1.17367C169.658 1.24572 169.828 1.35461 169.971 1.49388C170.111 1.63716 170.221 1.80763 170.293 1.99493C170.366 2.18223 170.4 2.38243 170.393 2.58335V15.5371C172.636 13.1694 175.561 11.9855 179.167 11.9855C183.055 11.9855 186.12 13.2565 188.363 15.7986C190.606 18.3407 191.809 21.7907 191.971 26.1486C192.014 26.6933 192.03 27.4015 192.03 28.3275C192.03 29.2536 192.03 29.9236 191.971 30.4465C191.769 34.9678 190.566 38.4705 188.363 40.9545C186.159 43.4385 183.094 44.6786 179.167 44.675C175.161 44.6714 172.056 43.315 169.852 40.6058ZM179.984 34.8643C180.885 33.4769 181.375 31.8593 181.396 30.2014C181.471 29.3952 181.515 28.7688 181.515 28.3221C181.515 27.8754 181.471 27.2326 181.396 26.4482C181.374 24.7921 180.884 23.1766 179.984 21.7907C179.162 20.6613 177.807 20.0966 175.921 20.0966C174.158 20.0966 172.817 20.6413 171.897 21.7308C170.95 22.8879 170.42 24.3336 170.393 25.8326L170.334 28.0715L170.393 30.3703C170.438 31.9673 170.95 33.5154 171.864 34.8208C172.723 35.972 174.075 36.5476 175.921 36.5476C177.768 36.5476 179.122 35.9865 179.984 34.8643ZM126.139 43.0837C126.217 43.2713 126.333 43.4404 126.48 43.5801C126.61 43.7332 126.771 43.857 126.952 43.9434C127.133 44.0298 127.33 44.0767 127.53 44.0812H134.508C134.71 44.0886 134.911 44.052 135.098 43.974C135.284 43.8959 135.452 43.7783 135.59 43.6291C135.866 43.3356 136.016 42.9439 136.006 42.5396V31.5196L145.51 43.0353C145.79 43.3349 146.102 43.6017 146.441 43.8306C146.804 44.0131 147.209 44.0958 147.615 44.0703H155.853C156.124 44.0861 156.394 44.0152 156.623 43.8679C156.852 43.7206 157.029 43.5042 157.129 43.2496C157.229 42.995 157.247 42.7152 157.18 42.4498C157.113 42.1845 156.965 41.9471 156.756 41.7715L144.428 26.6933L155.247 14.9543C155.405 14.8353 155.531 14.6792 155.615 14.4998C155.699 14.3203 155.738 14.1229 155.729 13.9247C155.731 13.75 155.697 13.5767 155.63 13.4155C155.563 13.2543 155.464 13.1087 155.339 12.9878C155.218 12.8608 155.073 12.76 154.912 12.6916C154.751 12.6232 154.578 12.5887 154.403 12.5901H146.349C146.062 12.5856 145.777 12.6374 145.51 12.7426C145.255 12.8534 145.021 13.0083 144.818 13.2002L144.364 13.6197L136.006 22.8801V2.59967C136.013 2.39924 135.979 2.19953 135.908 2.01239C135.836 1.82525 135.728 1.65447 135.59 1.5102C135.446 1.37092 135.277 1.26203 135.091 1.18998C134.905 1.11793 134.707 1.08418 134.508 1.09075H127.53C127.141 1.08302 126.765 1.22755 126.48 1.49385C126.332 1.63225 126.214 1.80108 126.136 1.98901C126.058 2.17693 126.02 2.37958 126.026 2.58332V42.4906C126.022 42.6941 126.061 42.8961 126.139 43.0837ZM26.8464 47.5948C26.4861 47.3139 26.1721 46.9775 25.916 46.5979L23.8713 43.8742C22.1413 44.432 20.3323 44.7007 18.5161 44.6696C12.8687 44.6696 8.4295 43.2732 5.19834 40.4805C1.96718 37.6879 0.254237 33.5915 0.0595024 28.1913C0 27.0201 0 25.2879 0 22.9837C0 20.6794 0 18.8873 0.0595024 17.7161C0.221782 12.3886 1.95637 8.28127 5.26325 5.39418C8.57014 2.50708 12.9877 1.07262 18.5161 1.09077C24.0516 1.09077 28.4818 2.52524 31.8067 5.39418C35.1316 8.26312 36.8752 12.3704 37.0375 17.7161C37.1205 20.0584 37.1601 21.8143 37.1565 22.9837C37.1529 24.153 37.1132 25.8889 37.0375 28.1913C36.8752 33.1593 35.4328 37.0342 32.7101 39.816L37.097 46.1131C37.1996 46.2991 37.2605 46.5055 37.2755 46.7178V46.8485C37.2767 47.0024 37.2455 47.1547 37.1839 47.2956C37.1224 47.4364 37.0319 47.5625 36.9185 47.6656C36.689 47.8797 36.3875 47.9984 36.0747 47.9979H28.1987C27.7159 48.0194 27.2398 47.8775 26.8464 47.5948ZM23.8009 33.9437C25.1028 32.6146 25.7934 30.5755 25.8727 27.8264C25.934 25.4913 25.9647 23.8425 25.9647 22.8802C25.9647 21.8288 25.9214 20.1565 25.8403 17.9176C25.7681 15.1613 25.0884 13.1167 23.8009 11.7839C22.5135 10.4511 20.7519 9.792 18.5161 9.80653C17.5596 9.76155 16.6042 9.91588 15.7097 10.2599C14.8152 10.6039 14.0009 11.1301 13.3177 11.8057C12.0123 13.1276 11.3199 15.1595 11.2405 17.9013C11.2045 19.0416 11.1846 20.7012 11.181 22.8802C11.1774 25.0591 11.1973 26.7133 11.2405 27.8427C11.3199 30.5882 12.0014 32.6273 13.2853 33.9601C14.5691 35.2929 16.3127 35.9574 18.5161 35.9538C20.723 35.9538 22.4847 35.2838 23.8009 33.9437ZM78.0725 43.6291C77.9314 43.4866 77.8211 43.3163 77.7485 43.1288C77.6759 42.9413 77.6425 42.7407 77.6506 42.5396V14.0827C77.6422 13.8816 77.6753 13.6809 77.7479 13.4933C77.8205 13.3057 77.931 13.1354 78.0723 12.9931C78.2137 12.8507 78.3828 12.7395 78.5691 12.6664C78.7553 12.5932 78.9546 12.5599 79.1544 12.5683H86.2459C86.4459 12.559 86.6455 12.5918 86.8322 12.6646C87.0188 12.7375 87.1883 12.8487 87.3298 12.9912C87.4714 13.1337 87.5818 13.3044 87.6541 13.4924C87.7264 13.6803 87.759 13.8814 87.7497 14.0827V42.5396C87.7593 42.944 87.6095 43.3356 87.3332 43.6291C87.1955 43.7781 87.0277 43.8955 86.841 43.9735C86.6544 44.0515 86.4533 44.0882 86.2514 44.0812H79.1544C78.9528 44.0852 78.7526 44.047 78.5664 43.9692C78.3802 43.8914 78.2121 43.7756 78.0725 43.6291ZM41.2243 30.9804C41.2243 35.3019 42.3062 38.663 44.4699 41.0634C46.6336 43.4675 49.4807 44.6696 53.0112 44.6696C57.5767 44.6696 60.8331 43.1933 62.921 40.2463V42.5233C62.9307 42.9219 63.0922 43.3015 63.3721 43.5834C63.6521 43.8653 64.029 44.028 64.4248 44.0377H71.4028C71.6052 44.044 71.8065 44.0064 71.9932 43.9274C72.1799 43.8485 72.3475 43.73 72.4847 43.5801C72.7533 43.3032 72.9046 42.9321 72.9066 42.5451V14.0882C72.915 13.887 72.8819 13.6863 72.8093 13.4988C72.7367 13.3112 72.6262 13.1408 72.4849 12.9985C72.3435 12.8562 72.1744 12.7449 71.9881 12.6718C71.8019 12.5987 71.6026 12.5653 71.4028 12.5738H63.8839C63.4904 12.5699 63.1114 12.7226 62.8291 12.9987C62.6815 13.1376 62.565 13.3066 62.4876 13.4945C62.4102 13.6824 62.3735 13.8848 62.3801 14.0882V30.6154C62.3801 32.4748 61.8987 33.9274 60.9358 34.9733C60.4255 35.5083 59.8068 35.9264 59.1216 36.199C58.4365 36.4716 57.701 36.5924 56.9654 36.553C53.4818 36.553 51.74 34.5738 51.74 30.6154V14.0882C51.7466 13.8843 51.7095 13.6815 51.631 13.4934C51.5526 13.3054 51.4348 13.1366 51.2856 12.9987C50.9841 12.715 50.5838 12.5623 50.1713 12.5738H42.7335C42.5329 12.5645 42.3325 12.5974 42.1452 12.6705C41.9579 12.7436 41.7878 12.8552 41.6458 12.9982C41.5038 13.1413 41.3929 13.3126 41.3204 13.5012C41.2478 13.6898 41.2151 13.8915 41.2243 14.0936V30.9804ZM199.089 41.0634C196.926 38.663 195.844 35.3019 195.844 30.9804V14.0936C195.835 13.8925 195.869 13.6918 195.941 13.5042C196.014 13.3166 196.124 13.1463 196.266 13.0039C196.407 12.8616 196.576 12.7504 196.762 12.6772C196.949 12.6041 197.148 12.5708 197.348 12.5792H204.796C205.207 12.568 205.606 12.7208 205.905 13.0041C206.054 13.1421 206.172 13.3108 206.251 13.4989C206.329 13.6869 206.366 13.8898 206.36 14.0936V30.6154C206.36 34.5738 208.103 36.553 211.59 36.553C212.325 36.5923 213.06 36.4715 213.744 36.1989C214.428 35.9262 215.046 35.5082 215.555 34.9733C216.518 33.9274 217 32.4748 217 30.6154V14.0882C216.993 13.8848 217.03 13.6824 217.107 13.4945C217.185 13.3066 217.301 13.1376 217.449 12.9987C217.731 12.7236 218.11 12.5711 218.503 12.5738H226.017C226.217 12.5653 226.416 12.5987 226.602 12.6718C226.788 12.7449 226.958 12.8562 227.099 12.9985C227.24 13.1408 227.351 13.3112 227.423 13.4988C227.496 13.6863 227.529 13.887 227.521 14.0882V42.5451C227.524 42.9397 227.373 43.3196 227.099 43.6019C226.962 43.7521 226.794 43.8708 226.608 43.9497C226.421 44.0287 226.219 44.0661 226.017 44.0595H219.039C218.644 44.0472 218.269 43.8837 217.989 43.6023C217.71 43.3209 217.547 42.9428 217.535 42.5451V40.2463C215.453 43.1933 212.196 44.6696 207.625 44.6696C204.098 44.6696 201.253 43.4675 199.089 41.0634ZM231.713 2.58332V12.5683H231.718V32.157C231.718 40.1065 235.866 44.0812 244.16 44.0812H249.731C249.933 44.0886 250.135 44.052 250.321 43.974C250.508 43.8959 250.676 43.7783 250.813 43.6291C250.952 43.4847 251.06 43.3141 251.133 43.127C251.205 42.94 251.24 42.7403 251.235 42.5396V37.272C251.242 37.0711 251.208 36.8708 251.136 36.6834C251.063 36.4961 250.954 36.3256 250.813 36.1826C250.67 36.0433 250.5 35.9344 250.315 35.8623C250.129 35.7903 249.93 35.7566 249.731 35.7631H245.101C242.815 35.7668 241.672 34.2724 241.672 31.28V20.4942H249.19C249.602 20.5066 250.002 20.356 250.305 20.0748C250.452 19.9354 250.568 19.7663 250.645 19.5785C250.723 19.3907 250.76 19.1885 250.754 18.9853V14.0827C250.76 13.8794 250.723 13.6772 250.645 13.4895C250.568 13.3017 250.452 13.1325 250.305 12.9932C250.003 12.7105 249.603 12.558 249.19 12.5683H241.672V2.59967C241.678 2.39924 241.645 2.19953 241.573 2.01239C241.501 1.82525 241.393 1.65447 241.255 1.5102C241.112 1.37092 240.942 1.26203 240.756 1.18998C240.571 1.11793 240.372 1.08418 240.173 1.09075H233.217C232.828 1.08302 232.452 1.22755 232.167 1.49385C232.019 1.63225 231.901 1.80108 231.823 1.98901C231.745 2.17693 231.707 2.37958 231.713 2.58332ZM255.611 43.6291C255.47 43.4866 255.36 43.3163 255.287 43.1288C255.215 42.9413 255.181 42.7407 255.189 42.5396V14.0827C255.181 13.8816 255.214 13.6809 255.287 13.4933C255.359 13.3057 255.47 13.1354 255.611 12.993C255.752 12.8507 255.922 12.7395 256.108 12.6663C256.294 12.5932 256.493 12.5599 256.693 12.5683H263.79C263.99 12.5599 264.189 12.5932 264.375 12.6663C264.562 12.7395 264.731 12.8507 264.872 12.993C265.014 13.1354 265.124 13.3057 265.197 13.4933C265.269 13.6809 265.302 13.8816 265.294 14.0827V42.5396C265.299 42.7403 265.264 42.94 265.192 43.1271C265.119 43.3141 265.011 43.4848 264.872 43.6291C264.735 43.7783 264.567 43.896 264.38 43.974C264.193 44.052 263.992 44.0886 263.79 44.0813H256.693C256.492 44.0848 256.292 44.0465 256.105 43.9687C255.919 43.8909 255.751 43.7753 255.611 43.6291ZM269.947 43.0834C270.025 43.2711 270.14 43.4403 270.287 43.5801C270.418 43.7334 270.58 43.8572 270.761 43.9436C270.943 44.0299 271.141 44.0768 271.342 44.0812H278.314C278.516 44.0886 278.717 44.052 278.904 43.974C279.091 43.8959 279.259 43.7783 279.396 43.6291C279.535 43.4847 279.643 43.3141 279.716 43.127C279.788 42.94 279.823 42.7403 279.818 42.5396V31.5196L289.317 43.0353C289.598 43.328 289.91 43.5892 290.247 43.8143C290.611 43.9963 291.016 44.0789 291.421 44.054H299.675C299.941 44.0605 300.203 43.9844 300.424 43.836C300.645 43.6875 300.816 43.474 300.912 43.2245C301.008 42.9749 301.026 42.7015 300.963 42.4416C300.899 42.1816 300.758 41.9476 300.557 41.7715L288.235 26.6933L299.059 14.9543C299.216 14.835 299.341 14.6788 299.424 14.4992C299.507 14.3197 299.545 14.1224 299.535 13.9247C299.531 13.573 299.39 13.2368 299.144 12.9876C298.897 12.7383 298.564 12.5957 298.215 12.5901H290.155C289.868 12.5856 289.584 12.6374 289.317 12.7426C289.063 12.8561 288.829 13.0107 288.624 13.2002C288.454 13.3546 288.329 13.4739 288.243 13.5555L288.242 13.5569L288.175 13.6197L279.818 22.8801V2.59967C279.825 2.39874 279.791 2.19854 279.718 2.01124C279.646 1.82394 279.536 1.65347 279.396 1.5102C279.253 1.37092 279.083 1.26203 278.897 1.18998C278.711 1.11793 278.513 1.08418 278.314 1.09075H271.342C270.951 1.08274 270.573 1.22722 270.287 1.49385C270.139 1.63252 270.022 1.80154 269.945 1.98949C269.867 2.17744 269.831 2.37995 269.838 2.58332V42.4906C269.833 42.6937 269.87 42.8957 269.947 43.0834ZM107.499 36.9234C102.344 36.9234 101.717 32.2169 101.717 29.1936V27.494C101.717 24.4708 102.328 19.7643 107.499 19.7643C110.063 19.7643 111.626 21.3985 112.303 23.5774C112.388 23.8672 112.563 24.1218 112.803 24.3041C113.042 24.4864 113.333 24.5868 113.633 24.5906H120.665C120.867 24.5892 121.067 24.5439 121.25 24.4578C121.432 24.3716 121.595 24.2467 121.725 24.0914C121.856 23.9362 121.951 23.7544 122.006 23.5585C122.06 23.3626 122.071 23.1572 122.039 22.9564C121.379 19.0125 119.8 16.1036 116.7 14.2406C114.071 12.6664 110.972 12.0127 107.391 12.0127C103.81 12.0127 100.705 12.6664 98.0815 14.2406C94.1219 16.6211 91.6553 20.7012 91.6553 26.4318C91.6553 26.4318 91.6228 27.5867 91.6228 28.3057C91.6228 29.0248 91.6553 30.2504 91.6553 30.2504C91.6553 35.9974 94.1381 40.0556 98.0923 42.4307C100.716 44.005 103.821 44.6586 107.402 44.6586C110.983 44.6586 114.082 44.005 116.711 42.4307C119.811 40.5731 121.39 37.6642 122.05 33.7149C122.082 33.5141 122.071 33.3087 122.016 33.1128C121.962 32.9169 121.867 32.7351 121.736 32.5799C121.606 32.4247 121.443 32.2997 121.26 32.2135C121.077 32.1274 120.878 32.0821 120.676 32.0807H113.644C113.344 32.0833 113.053 32.1826 112.814 32.3639C112.574 32.5453 112.399 32.7993 112.313 33.0885C111.626 35.311 110.063 36.9234 107.499 36.9234ZM10.2686 73.0459H5.84473V81H2.16797V59.6719H10.2686C11.9189 59.6719 13.3203 59.9648 14.4727 60.5508C15.6348 61.127 16.5186 61.9277 17.124 62.9531C17.7295 63.9688 18.0322 65.1309 18.0322 66.4395C18.0322 67.8164 17.7295 68.998 17.124 69.9844C16.5186 70.9707 15.6348 71.7275 14.4727 72.2549C13.3203 72.7822 11.9189 73.0459 10.2686 73.0459ZM5.84473 62.6016V70.1309H10.2686C11.2354 70.1309 12.0166 69.9746 12.6123 69.6621C13.208 69.3496 13.6426 68.9199 13.916 68.373C14.1992 67.8164 14.3408 67.1816 14.3408 66.4688C14.3408 65.7949 14.1992 65.165 13.916 64.5791C13.6426 63.9834 13.208 63.5049 12.6123 63.1436C12.0166 62.7822 11.2354 62.6016 10.2686 62.6016H5.84473ZM29.3994 79.8867C29.5611 79.7388 29.7119 79.5884 29.8518 79.4356L29.8577 79.4772L29.8682 79.5498C29.9658 80.1357 30.0977 80.6191 30.2637 81H33.8818V80.7656C33.6865 80.3457 33.5352 79.8525 33.4277 79.2861C33.3301 78.71 33.2812 78.0605 33.2812 77.3379V70.292C33.2812 69.0811 33.0127 68.0752 32.4756 67.2744C31.9482 66.4639 31.2207 65.8584 30.293 65.458C29.375 65.0576 28.3203 64.8574 27.1289 64.8574C26.1328 64.8574 25.2344 64.9893 24.4336 65.2529C23.6328 65.5166 22.9443 65.8779 22.3682 66.3369C21.792 66.7959 21.3525 67.3184 21.0498 67.9043C20.7471 68.4902 20.5957 69.0957 20.5957 69.7207H24.1113C24.1113 69.3008 24.2285 68.9248 24.4629 68.5928C24.6973 68.2607 25.0244 67.9971 25.4443 67.8018C25.8643 67.6064 26.3623 67.5088 26.9385 67.5088C27.5635 67.5088 28.0811 67.6211 28.4912 67.8457C28.9111 68.0703 29.2236 68.3877 29.4287 68.7979C29.6338 69.208 29.7363 69.6963 29.7363 70.2627V71.3613H27.4805C26.3281 71.3613 25.3027 71.4785 24.4043 71.7129C23.5059 71.9375 22.7441 72.2695 22.1191 72.709C21.5039 73.1484 21.0352 73.6953 20.7129 74.3496C20.4004 74.9941 20.2441 75.7363 20.2441 76.5762C20.2441 77.4746 20.4736 78.2803 20.9326 78.9932C21.3916 79.6963 22.0264 80.2578 22.8369 80.6777C23.6475 81.0879 24.5703 81.293 25.6055 81.293C26.4258 81.293 27.1484 81.1611 27.7734 80.8975C28.4082 80.6338 28.9502 80.2969 29.3994 79.8867ZM29.4727 76.957C29.5768 76.8105 29.6647 76.6668 29.7363 76.5257V73.5439H27.7441C27.0898 73.5439 26.5137 73.6074 26.0156 73.7344C25.5176 73.8516 25.1025 74.0273 24.7705 74.2617C24.4385 74.4961 24.1895 74.7793 24.0234 75.1113C23.8574 75.4434 23.7744 75.8193 23.7744 76.2393C23.7744 76.6592 23.8721 77.0449 24.0674 77.3965C24.2627 77.7383 24.5459 78.0068 24.917 78.2021C25.2979 78.3975 25.7568 78.4951 26.2939 78.4951C27.0166 78.4951 27.6465 78.3486 28.1836 78.0557C28.7305 77.7529 29.1602 77.3867 29.4727 76.957ZM40.5176 70.1671V81H36.9873V65.1504H40.3564L40.4559 67.0123C40.4687 66.9902 40.4816 66.9682 40.4947 66.9463L40.5176 66.9082C40.918 66.2637 41.416 65.7607 42.0117 65.3994C42.6172 65.0381 43.3154 64.8574 44.1064 64.8574C44.3213 64.8574 44.5508 64.877 44.7949 64.916C45.0488 64.9551 45.2393 64.999 45.3662 65.0479L45.3369 68.3291C45.1221 68.29 44.8877 68.2607 44.6338 68.2412C44.3896 68.2217 44.1455 68.2119 43.9014 68.2119C43.2959 68.2119 42.7637 68.2998 42.3047 68.4756C41.8457 68.6416 41.46 68.8857 41.1475 69.208C40.8868 69.477 40.6769 69.7967 40.5176 70.1671ZM55.5762 67.7285H52.749V76.6201C52.749 77.1084 52.8174 77.4844 52.9541 77.748C53.1006 78.002 53.3008 78.1729 53.5547 78.2607C53.8086 78.3486 54.1064 78.3926 54.4482 78.3926C54.6924 78.3926 54.9268 78.3779 55.1514 78.3486C55.376 78.3193 55.5566 78.29 55.6934 78.2607L55.708 80.9561C55.415 81.0439 55.0732 81.1221 54.6826 81.1904C54.3018 81.2588 53.8623 81.293 53.3643 81.293C52.5537 81.293 51.8359 81.1514 51.2109 80.8682C50.5859 80.5752 50.0977 80.1016 49.7461 79.4473C49.3945 78.793 49.2188 77.9238 49.2188 76.8398V67.7285H46.6406V65.1504H49.2188V61.2686H52.749V65.1504H55.5762V67.7285ZM61.8018 69.736V81H58.2715V65.1504H61.5967L61.7124 67.0605L61.7453 67.0189L61.7626 66.9972L61.7871 66.9668C62.3438 66.293 63.0078 65.7754 63.7793 65.4141C64.5508 65.043 65.4102 64.8574 66.3574 64.8574C67.1191 64.8574 67.8076 64.9648 68.4229 65.1797C69.0479 65.3848 69.5801 65.7217 70.0195 66.1904C70.4688 66.6592 70.8105 67.2695 71.0449 68.0215C71.2793 68.7637 71.3965 69.6768 71.3965 70.7607V81H67.8516V70.7461C67.8516 69.9844 67.7393 69.3838 67.5146 68.9443C67.2998 68.4951 66.9824 68.1777 66.5625 67.9922C66.1523 67.7969 65.6396 67.6992 65.0244 67.6992C64.4189 67.6992 63.877 67.8262 63.3984 68.0801C62.9199 68.334 62.5146 68.6807 62.1826 69.1201C62.0416 69.3123 61.9147 69.5176 61.8018 69.736ZM81.9873 81.293C80.8154 81.293 79.7559 81.1025 78.8086 80.7217C77.8711 80.3311 77.0703 79.7891 76.4062 79.0957C75.752 78.4023 75.249 77.5869 74.8975 76.6494C74.5459 75.7119 74.3701 74.7012 74.3701 73.6172V73.0312C74.3701 71.791 74.5508 70.668 74.9121 69.6621C75.2734 68.6562 75.7764 67.7969 76.4209 67.084C77.0654 66.3613 77.8271 65.8096 78.7061 65.4287C79.585 65.0479 80.5371 64.8574 81.5625 64.8574C82.6953 64.8574 83.6865 65.0479 84.5361 65.4287C85.3857 65.8096 86.0889 66.3467 86.6455 67.04C87.2119 67.7236 87.6318 68.5391 87.9053 69.4863C88.1885 70.4336 88.3301 71.4785 88.3301 72.6211V74.1299H77.9326C77.9674 74.6309 78.0544 75.1045 78.1934 75.5508C78.3887 76.1367 78.6719 76.6494 79.043 77.0889C79.4141 77.5283 79.8633 77.875 80.3906 78.1289C80.918 78.373 81.5186 78.4951 82.1924 78.4951C83.042 78.4951 83.7988 78.3242 84.4629 77.9824C85.127 77.6406 85.7031 77.1572 86.1914 76.5322L88.0518 78.334C87.71 78.832 87.2656 79.3105 86.7188 79.7695C86.1719 80.2188 85.5029 80.585 84.7119 80.8682C83.9307 81.1514 83.0225 81.293 81.9873 81.293ZM78.1494 70.8193C78.0904 71.0663 78.0426 71.3251 78.0059 71.5957H84.8438V71.3174C84.8242 70.6826 84.6973 70.0869 84.4629 69.5303C84.2383 68.9736 83.8916 68.5244 83.4229 68.1826C82.9541 67.8408 82.3291 67.6699 81.5479 67.6699C80.9619 67.6699 80.4395 67.7969 79.9805 68.0508C79.5312 68.2949 79.1553 68.6514 78.8525 69.1201C78.5498 69.5889 78.3154 70.1553 78.1494 70.8193ZM94.6289 70.1671V81H91.0986V65.1504H94.4678L94.5672 67.0123C94.5875 66.9773 94.6081 66.9426 94.6289 66.9082C95.0293 66.2637 95.5273 65.7607 96.123 65.3994C96.7285 65.0381 97.4268 64.8574 98.2178 64.8574C98.4326 64.8574 98.6621 64.877 98.9062 64.916C99.1602 64.9551 99.3506 64.999 99.4775 65.0479L99.4482 68.3291C99.2334 68.29 98.999 68.2607 98.7451 68.2412C98.501 68.2217 98.2568 68.2119 98.0127 68.2119C97.4072 68.2119 96.875 68.2998 96.416 68.4756C95.957 68.6416 95.5713 68.8857 95.2588 69.208C94.9982 69.477 94.7882 69.7967 94.6289 70.1671Z" fill="black"/>
</svg>
