<svg width="301" height="48" viewBox="0 0 301 48" fill="none" xmlns="http://www.w3.org/2000/svg">
<path d="M26.8464 47.5948C26.4861 47.3139 26.1721 46.9775 25.916 46.5979L23.8713 43.8742C22.1413 44.432 20.3323 44.7007 18.5161 44.6696C12.8687 44.6696 8.4295 43.2732 5.19834 40.4805C1.96718 37.6879 0.254237 33.5915 0.0595024 28.1913C0 27.0201 0 25.2879 0 22.9837C0 20.6794 0 18.8873 0.0595024 17.7161C0.221782 12.3886 1.95637 8.28127 5.26325 5.39417C8.57014 2.50708 12.9877 1.07261 18.5161 1.09077C24.0516 1.09077 28.4818 2.52524 31.8067 5.39417C35.1316 8.26311 36.8752 12.3704 37.0375 17.7161C37.1205 20.0584 37.1601 21.8143 37.1565 22.9837C37.1529 24.153 37.1132 25.8889 37.0375 28.1913C36.8752 33.1593 35.4328 37.0342 32.7101 39.816L37.097 46.1131C37.1996 46.2991 37.2605 46.5055 37.2755 46.7178V46.8485C37.2767 47.0024 37.2455 47.1547 37.1839 47.2956C37.1224 47.4364 37.0319 47.5625 36.9185 47.6656C36.689 47.8797 36.3875 47.9984 36.0747 47.9979H28.1987C27.7159 48.0194 27.2398 47.8775 26.8464 47.5948ZM23.8009 33.9437C25.1028 32.6146 25.7934 30.5754 25.8727 27.8264C25.934 25.4913 25.9647 23.8425 25.9647 22.8802C25.9647 21.8288 25.9214 20.1565 25.8403 17.9176C25.7681 15.1613 25.0884 13.1167 23.8009 11.7839C22.5135 10.4511 20.7519 9.792 18.5161 9.80653C17.5596 9.76154 16.6042 9.91588 15.7097 10.2599C14.8152 10.6039 14.0009 11.1301 13.3177 11.8057C12.0123 13.1276 11.3199 15.1595 11.2405 17.9013C11.2045 19.0416 11.1846 20.7012 11.181 22.8802C11.1774 25.0591 11.1973 26.7133 11.2405 27.8427C11.3199 30.5882 12.0014 32.6273 13.2853 33.9601C14.5691 35.2929 16.3127 35.9574 18.5161 35.9538C20.723 35.9538 22.4847 35.2838 23.8009 33.9437Z" fill="#5754F9"/>
<path d="M78.0725 43.6291C77.9314 43.4866 77.8211 43.3163 77.7485 43.1288C77.6759 42.9413 77.6425 42.7407 77.6506 42.5396V14.0827C77.6422 13.8816 77.6753 13.6809 77.7479 13.4933C77.8205 13.3057 77.931 13.1354 78.0723 12.993C78.2137 12.8507 78.3828 12.7395 78.5691 12.6663C78.7553 12.5932 78.9546 12.5599 79.1544 12.5683H86.246C86.4459 12.559 86.6456 12.5918 86.8322 12.6646C87.0188 12.7375 87.1883 12.8487 87.3298 12.9912C87.4714 13.1337 87.5818 13.3044 87.6541 13.4924C87.7264 13.6803 87.759 13.8814 87.7497 14.0827V42.5396C87.7593 42.944 87.6095 43.3356 87.3332 43.6291C87.1955 43.7781 87.0277 43.8955 86.8411 43.9735C86.6544 44.0515 86.4533 44.0882 86.2514 44.0812H79.1544C78.9528 44.0852 78.7526 44.047 78.5664 43.9692C78.3803 43.8914 78.2121 43.7756 78.0725 43.6291Z" fill="#5754F9"/>
<path d="M126.48 43.5801C126.333 43.4404 126.217 43.2713 126.139 43.0837C126.061 42.8961 126.022 42.694 126.026 42.4906V2.58332C126.02 2.37958 126.058 2.17693 126.136 1.989C126.214 1.80108 126.332 1.63224 126.48 1.49385C126.765 1.22755 127.141 1.08301 127.53 1.09075H134.508C134.707 1.08418 134.905 1.11792 135.091 1.18997C135.277 1.26202 135.446 1.37091 135.59 1.51019C135.728 1.65447 135.836 1.82524 135.908 2.01239C135.979 2.19953 136.013 2.39923 136.006 2.59966V22.8801L144.364 13.6196L144.818 13.2002C145.021 13.0083 145.255 12.8534 145.51 12.7426C145.777 12.6374 146.062 12.5856 146.349 12.5901H154.403C154.578 12.5887 154.751 12.6232 154.912 12.6916C155.073 12.76 155.218 12.8608 155.339 12.9878C155.464 13.1087 155.563 13.2543 155.63 13.4155C155.697 13.5767 155.731 13.75 155.729 13.9247C155.738 14.1228 155.699 14.3203 155.615 14.4998C155.531 14.6792 155.405 14.8353 155.247 14.9542L144.428 26.6933L156.756 41.7715C156.965 41.9471 157.113 42.1844 157.18 42.4498C157.247 42.7152 157.229 42.995 157.129 43.2496C157.029 43.5042 156.852 43.7206 156.623 43.8679C156.394 44.0152 156.124 44.0861 155.853 44.0703H147.615C147.209 44.0957 146.804 44.0131 146.441 43.8306C146.102 43.6017 145.79 43.3349 145.51 43.0353L136.006 31.5196V42.5396C136.016 42.9439 135.866 43.3356 135.59 43.6291C135.452 43.7783 135.284 43.8959 135.098 43.974C134.911 44.052 134.71 44.0886 134.508 44.0812H127.53C127.33 44.0767 127.133 44.0297 126.952 43.9434C126.771 43.857 126.61 43.7332 126.48 43.5801Z" fill="#5754F9"/>
<path d="M169.852 40.6058V42.5396C169.857 42.7403 169.822 42.94 169.75 43.127C169.677 43.3141 169.569 43.4847 169.43 43.6291C169.293 43.7783 169.125 43.896 168.938 43.974C168.752 44.052 168.55 44.0886 168.348 44.0812H161.554C161.353 44.0865 161.152 44.0489 160.966 43.9711C160.779 43.8932 160.611 43.7767 160.472 43.6291C160.327 43.4885 160.212 43.3192 160.135 43.1317C160.058 42.9442 160.02 42.7426 160.023 42.5396V2.58335C160.018 2.38016 160.055 2.17807 160.132 1.99033C160.21 1.80258 160.326 1.63341 160.472 1.49388C160.764 1.21563 161.153 1.06484 161.554 1.07443H168.889C169.088 1.06787 169.287 1.10161 169.473 1.17366C169.658 1.24571 169.828 1.3546 169.971 1.49388C170.111 1.63715 170.221 1.80763 170.293 1.99492C170.366 2.18222 170.4 2.38243 170.393 2.58335V15.5371C172.636 13.1694 175.561 11.9855 179.167 11.9855C183.055 11.9855 186.12 13.2565 188.363 15.7986C190.606 18.3407 191.809 21.7907 191.971 26.1486C192.014 26.6933 192.03 27.4015 192.03 28.3275C192.03 29.2536 192.03 29.9236 191.971 30.4465C191.769 34.9678 190.566 38.4705 188.363 40.9545C186.159 43.4384 183.094 44.6786 179.167 44.675C175.161 44.6714 172.056 43.315 169.852 40.6058ZM179.984 34.8643C180.885 33.4769 181.375 31.8593 181.396 30.2014C181.471 29.3952 181.515 28.7687 181.515 28.3221C181.515 27.8754 181.471 27.2326 181.396 26.4482C181.374 24.7921 180.884 23.1766 179.984 21.7907C179.162 20.6613 177.807 20.0966 175.921 20.0966C174.158 20.0966 172.817 20.6413 171.897 21.7308C170.95 22.8879 170.42 24.3336 170.393 25.8326L170.334 28.0715L170.393 30.3703C170.438 31.9673 170.95 33.5154 171.864 34.8208C172.723 35.972 174.075 36.5476 175.921 36.5476C177.768 36.5476 179.122 35.9865 179.984 34.8643Z" fill="#5754F9"/>
<path d="M44.4699 41.0634C42.3062 38.663 41.2243 35.3019 41.2243 30.9804V14.0936C41.2151 13.8915 41.2478 13.6898 41.3204 13.5012C41.3929 13.3126 41.5038 13.1413 41.6458 12.9982C41.7878 12.8552 41.9579 12.7436 42.1452 12.6705C42.3325 12.5974 42.5329 12.5645 42.7335 12.5738H50.1713C50.5838 12.5623 50.9841 12.715 51.2856 12.9987C51.4348 13.1366 51.5526 13.3054 51.631 13.4934C51.7095 13.6814 51.7466 13.8843 51.74 14.0882V30.6154C51.74 34.5738 53.4818 36.553 56.9654 36.553C57.701 36.5924 58.4365 36.4716 59.1216 36.199C59.8068 35.9264 60.4255 35.5083 60.9358 34.9733C61.8987 33.9274 62.3801 32.4748 62.3801 30.6154V14.0882C62.3735 13.8848 62.4102 13.6824 62.4876 13.4945C62.565 13.3066 62.6815 13.1376 62.8291 12.9987C63.1114 12.7226 63.4904 12.5699 63.8839 12.5738H71.4028C71.6026 12.5653 71.8019 12.5987 71.9881 12.6718C72.1744 12.7449 72.3435 12.8562 72.4849 12.9985C72.6262 13.1408 72.7367 13.3112 72.8093 13.4988C72.8819 13.6863 72.915 13.887 72.9066 14.0882V42.5451C72.9046 42.9321 72.7533 43.3032 72.4847 43.5801C72.3475 43.73 72.1799 43.8485 71.9932 43.9274C71.8065 44.0064 71.6052 44.044 71.4028 44.0377H64.4248C64.029 44.028 63.6521 43.8653 63.3721 43.5834C63.0922 43.3015 62.9307 42.9219 62.921 42.5233V40.2463C60.8331 43.1933 57.5767 44.6696 53.0112 44.6696C49.4807 44.6696 46.6336 43.4675 44.4699 41.0634Z" fill="#5754F9"/>
<path d="M199.089 41.0634C196.926 38.663 195.844 35.3019 195.844 30.9804V14.0936C195.835 13.8925 195.869 13.6918 195.941 13.5042C196.014 13.3166 196.124 13.1463 196.266 13.0039C196.407 12.8616 196.576 12.7504 196.762 12.6772C196.949 12.6041 197.148 12.5708 197.348 12.5792H204.796C205.207 12.568 205.606 12.7208 205.905 13.0041C206.054 13.1421 206.172 13.3108 206.251 13.4989C206.329 13.6869 206.366 13.8898 206.36 14.0936V30.6154C206.36 34.5738 208.103 36.553 211.59 36.553C212.325 36.5923 213.06 36.4715 213.744 36.1989C214.428 35.9262 215.046 35.5082 215.555 34.9733C216.518 33.9274 217 32.4748 217 30.6154V14.0882C216.993 13.8848 217.03 13.6824 217.107 13.4945C217.185 13.3066 217.301 13.1376 217.449 12.9987C217.731 12.7236 218.11 12.5711 218.503 12.5738H226.017C226.217 12.5653 226.416 12.5987 226.602 12.6718C226.788 12.7449 226.958 12.8562 227.099 12.9985C227.24 13.1408 227.351 13.3112 227.423 13.4988C227.496 13.6863 227.529 13.887 227.521 14.0882V42.5451C227.524 42.9397 227.373 43.3196 227.099 43.6019C226.962 43.7521 226.794 43.8708 226.608 43.9497C226.421 44.0287 226.219 44.0661 226.017 44.0595H219.039C218.644 44.0472 218.269 43.8837 217.989 43.6023C217.71 43.3209 217.547 42.9428 217.535 42.5451V40.2463C215.453 43.1933 212.196 44.6696 207.625 44.6696C204.098 44.6696 201.253 43.4675 199.089 41.0634Z" fill="#5754F9"/>
<path d="M231.713 12.5683V2.58332C231.707 2.37958 231.745 2.17693 231.823 1.989C231.901 1.80108 232.019 1.63224 232.167 1.49385C232.452 1.22755 232.828 1.08301 233.217 1.09075H240.173C240.372 1.08418 240.571 1.11792 240.756 1.18997C240.942 1.26202 241.112 1.37091 241.255 1.51019C241.393 1.65447 241.501 1.82524 241.573 2.01239C241.645 2.19953 241.678 2.39923 241.672 2.59966V12.5683H249.19C249.603 12.558 250.003 12.7105 250.305 12.9932C250.452 13.1325 250.568 13.3017 250.645 13.4894C250.723 13.6772 250.76 13.8794 250.754 14.0827V18.9853C250.76 19.1885 250.723 19.3907 250.645 19.5785C250.568 19.7663 250.452 19.9354 250.305 20.0748C250.002 20.356 249.602 20.5065 249.19 20.4942H241.672V31.2799C241.672 34.2724 242.815 35.7667 245.101 35.7631H249.731C249.93 35.7565 250.129 35.7903 250.315 35.8623C250.5 35.9344 250.67 36.0433 250.813 36.1826C250.954 36.3256 251.063 36.4961 251.136 36.6834C251.208 36.8708 251.242 37.0711 251.235 37.272V42.5396C251.24 42.7403 251.205 42.94 251.133 43.127C251.06 43.3141 250.952 43.4847 250.813 43.6291C250.676 43.7783 250.508 43.8959 250.321 43.974C250.135 44.052 249.933 44.0886 249.731 44.0812H244.16C235.866 44.0812 231.718 40.1065 231.718 32.157V12.5683H231.713Z" fill="#5754F9"/>
<path d="M255.611 43.6291C255.47 43.4866 255.36 43.3163 255.287 43.1288C255.215 42.9413 255.181 42.7407 255.189 42.5396V14.0827C255.181 13.8816 255.214 13.6809 255.287 13.4933C255.359 13.3057 255.47 13.1354 255.611 12.993C255.752 12.8507 255.922 12.7394 256.108 12.6663C256.294 12.5932 256.493 12.5599 256.693 12.5683H263.79C263.99 12.5599 264.189 12.5932 264.375 12.6663C264.562 12.7394 264.731 12.8507 264.872 12.993C265.014 13.1354 265.124 13.3057 265.197 13.4933C265.269 13.6809 265.302 13.8816 265.294 14.0827V42.5396C265.299 42.7403 265.264 42.94 265.192 43.1271C265.119 43.3141 265.011 43.4847 264.872 43.6291C264.735 43.7783 264.567 43.896 264.38 43.974C264.193 44.052 263.992 44.0886 263.79 44.0812H256.693C256.492 44.0848 256.292 44.0465 256.105 43.9687C255.919 43.8909 255.751 43.7753 255.611 43.6291Z" fill="#5754F9"/>
<path d="M270.287 43.5801C270.14 43.4403 270.025 43.2711 269.947 43.0834C269.87 42.8957 269.833 42.6937 269.838 42.4906V2.58332C269.831 2.37994 269.867 2.17744 269.945 1.98948C270.022 1.80153 270.139 1.63251 270.287 1.49385C270.573 1.22721 270.951 1.08274 271.342 1.09075H278.314C278.513 1.08418 278.711 1.11792 278.897 1.18997C279.083 1.26202 279.253 1.37091 279.396 1.51019C279.536 1.65346 279.646 1.82394 279.718 2.01124C279.791 2.19853 279.825 2.39874 279.818 2.59966V22.8801L288.175 13.6196C288.256 13.5434 288.402 13.4018 288.624 13.2002C288.829 13.0107 289.063 12.8561 289.317 12.7426C289.584 12.6374 289.868 12.5856 290.155 12.5901H298.215C298.564 12.5957 298.897 12.7383 299.144 12.9876C299.39 13.2368 299.531 13.573 299.535 13.9247C299.545 14.1224 299.507 14.3197 299.424 14.4992C299.341 14.6788 299.216 14.835 299.059 14.9542L288.235 26.6933L300.557 41.7715C300.758 41.9476 300.899 42.1815 300.963 42.4415C301.026 42.7015 301.008 42.9749 300.912 43.2245C300.816 43.474 300.645 43.6875 300.424 43.836C300.203 43.9844 299.941 44.0605 299.675 44.054H291.421C291.016 44.0789 290.611 43.9962 290.247 43.8143C289.91 43.5892 289.598 43.328 289.317 43.0353L279.818 31.5196V42.5396C279.823 42.7403 279.788 42.94 279.716 43.127C279.643 43.3141 279.535 43.4847 279.396 43.6291C279.259 43.7783 279.091 43.8959 278.904 43.974C278.717 44.052 278.516 44.0886 278.314 44.0812H271.342C271.141 44.0768 270.943 44.0299 270.761 43.9436C270.58 43.8572 270.418 43.7334 270.287 43.5801Z" fill="#5754F9"/>
<path d="M107.499 36.9234C102.344 36.9234 101.717 32.2169 101.717 29.1936V27.494C101.717 24.4708 102.328 19.7643 107.499 19.7643C110.063 19.7643 111.626 21.3985 112.303 23.5774C112.388 23.8672 112.563 24.1218 112.803 24.3041C113.042 24.4864 113.333 24.5868 113.633 24.5906H120.665C120.867 24.5892 121.067 24.5439 121.25 24.4578C121.432 24.3716 121.595 24.2466 121.725 24.0914C121.856 23.9362 121.951 23.7544 122.006 23.5585C122.06 23.3626 122.071 23.1572 122.039 22.9564C121.379 19.0125 119.8 16.1036 116.7 14.2406C114.071 12.6664 110.972 12.0127 107.391 12.0127C103.81 12.0127 100.705 12.6664 98.0815 14.2406C94.1219 16.6211 91.6553 20.7012 91.6553 26.4318C91.6553 26.4318 91.6228 27.5866 91.6228 28.3057C91.6228 29.0247 91.6553 30.2504 91.6553 30.2504C91.6553 35.9974 94.1382 40.0556 98.0924 42.4307C100.716 44.005 103.821 44.6586 107.402 44.6586C110.983 44.6586 114.082 44.005 116.711 42.4307C119.811 40.5731 121.39 37.6642 122.05 33.7149C122.082 33.5141 122.071 33.3087 122.016 33.1128C121.962 32.9169 121.867 32.7351 121.736 32.5799C121.606 32.4247 121.443 32.2997 121.26 32.2135C121.077 32.1274 120.878 32.0821 120.676 32.0807H113.644C113.344 32.0833 113.053 32.1825 112.814 32.3639C112.574 32.5453 112.399 32.7993 112.313 33.0885C111.626 35.311 110.063 36.9234 107.499 36.9234Z" fill="#5754F9"/>
<path d="M78.0833 8.05245C77.9429 7.90968 77.8334 7.73916 77.7617 7.55165C77.69 7.36414 77.6577 7.1637 77.6668 6.96299V1.51564C77.6584 1.31499 77.691 1.11474 77.7626 0.927328C77.8343 0.739913 77.9434 0.569329 78.0833 0.426168C78.2254 0.284877 78.3946 0.174309 78.5807 0.101245C78.7667 0.0281806 78.9656 -0.00583822 79.1652 0.00127488H86.2405C86.4401 -0.00583822 86.639 0.0281806 86.825 0.101245C87.0111 0.174309 87.1803 0.284877 87.3224 0.426168C87.4612 0.570081 87.5697 0.740791 87.6412 0.928023C87.7128 1.11526 87.746 1.31514 87.7389 1.51564V6.96299C87.7481 7.16385 87.7157 7.36444 87.6437 7.55199C87.5717 7.73955 87.4618 7.90997 87.3208 8.0524C87.1799 8.19484 87.0111 8.30618 86.8251 8.37934C86.6391 8.4525 86.44 8.48588 86.2405 8.47735H79.1652C78.9656 8.48446 78.7667 8.45044 78.5807 8.37738C78.3946 8.30431 78.2254 8.19374 78.0833 8.05245Z" fill="#5754F9"/>
<path d="M255.633 8.05247C255.492 7.90996 255.382 7.73962 255.309 7.55214C255.236 7.36465 255.203 7.16408 255.211 6.963V1.51565C255.203 1.31452 255.236 1.11382 255.308 0.926256C255.381 0.73869 255.491 0.568343 255.633 0.425996C255.774 0.283649 255.943 0.172402 256.13 0.099296C256.316 0.0261899 256.515 -0.00718335 256.715 0.00128863H263.785C263.985 -0.00718335 264.184 0.0261899 264.37 0.099296C264.556 0.172402 264.725 0.283649 264.867 0.425996C265.008 0.568343 265.119 0.73869 265.191 0.926256C265.264 1.11382 265.297 1.31452 265.289 1.51565V6.963C265.297 7.16413 265.264 7.36483 265.191 7.5524C265.119 7.73996 265.008 7.91031 264.867 8.05266C264.725 8.195 264.556 8.30625 264.37 8.37936C264.184 8.45246 263.985 8.48584 263.785 8.47736H256.715C256.515 8.4848 256.316 8.45093 256.13 8.37785C255.944 8.30476 255.775 8.19402 255.633 8.05247Z" fill="#5754F9"/>
</svg>
