<svg width="1441" height="971" viewBox="0 0 1441 971" fill="none" xmlns="http://www.w3.org/2000/svg">
<g clip-path="url(#clip0_426_2537)">
<path opacity="0.24" d="M388.9 702.301C411.2 630.401 446.6 546.601 496.6 543.301C543.6 540.101 566.4 610.501 611.1 603.501C669.9 594.201 671 466.001 757.4 437.201C778.5 430.201 797.9 431.301 810.1 433.001V702.401L388.9 702.301Z" fill="#69A1DA"/>
<path opacity="0.24" d="M926.1 637.1C942.8 614.6 970.5 585.3 1008.4 581.1C1054 576 1072.5 612 1104.5 603.1C1160.5 587.6 1150.8 464.3 1203.6 453C1232.9 446.7 1251 481.5 1290.7 474C1316.3 469.2 1334.6 449.9 1346.6 433V702.4H926.1V637.1Z" fill="#20D287"/>
<path d="M274.3 0H0V970.1H274.3V0Z" fill="#362F4A"/>
<path d="M140.779 82.1515V93.9995H160.885V82.1515L150.817 76.3555L140.779 82.1515Z" fill="white"/>
<path d="M137 34C120.443 34 107 47.4388 107 64C107 80.5612 120.443 94 137 94V82.5414C126.765 82.5414 118.459 74.2349 118.459 64C118.459 53.7651 126.765 45.4586 137 45.4586C147.235 45.4586 155.541 53.7651 155.541 64C155.541 67.3782 154.637 70.5414 153.057 73.2707L162.98 79C165.535 74.5871 167 69.4623 167 64C167 47.4388 153.557 34 137 34Z" fill="white"/>
<path d="M274.3 226.9H0V290.9H274.3V226.9Z" fill="#302B40"/>
<path d="M245.6 249.199C253.1 249.199 259.1 255.199 259.1 262.699C259.1 265.199 258.4 267.499 257.3 269.499C257 269.999 256.5 270.199 256 270.199H235.2C234.7 270.199 234.2 269.899 233.9 269.499C232.7 267.499 232.1 265.199 232.1 262.699C232.1 255.199 238.2 249.199 245.6 249.199ZM235.7 267.899H255.6C256.5 266.299 256.9 264.499 256.9 262.699C256.9 256.499 251.8 251.499 245.7 251.499C239.6 251.499 234.5 256.499 234.5 262.699C234.4 264.499 234.8 266.299 235.7 267.899ZM239.6 262.699C239.6 263.499 238.9 264.199 238.1 264.199C237.3 264.199 236.6 263.499 236.6 262.699C236.6 261.899 237.3 261.199 238.1 261.199C238.9 261.199 239.6 261.899 239.6 262.699ZM238.9 257.399C238.9 256.599 239.6 255.899 240.4 255.899C241.2 255.899 241.9 256.599 241.9 257.399C241.9 258.199 241.2 258.899 240.4 258.899C239.6 258.899 238.9 258.299 238.9 257.399ZM245.6 261.199C245.9 261.199 246.2 261.199 246.4 261.299L250 256.699C250.4 256.199 251.1 256.099 251.6 256.499C252.1 256.899 252.2 257.599 251.8 258.099L248.2 262.699C248.5 263.099 248.6 263.699 248.6 264.199C248.6 264.699 248.4 265.299 248.2 265.699H243C242.7 265.299 242.6 264.699 242.6 264.199C242.6 262.499 244 261.199 245.6 261.199ZM245.6 256.699C244.8 256.699 244.1 255.999 244.1 255.199C244.1 254.399 244.8 253.699 245.6 253.699C246.4 253.699 247.1 254.399 247.1 255.199C247.1 255.999 246.5 256.699 245.6 256.699ZM253.1 261.199C253.9 261.199 254.6 261.899 254.6 262.699C254.6 263.499 253.9 264.199 253.1 264.199C252.3 264.199 251.6 263.499 251.6 262.699C251.6 261.899 252.3 261.199 253.1 261.199Z" fill="#69A1DA"/>
<path d="M257.7 315.9L255.6 325.7C255.5 326.2 255 326.6 254.5 326.6H239.9L240.3 328.8H253.5C254.2 328.8 254.7 329.5 254.6 330.2L254.5 330.4C255.1 330.9 255.4 331.7 255.4 332.6C255.4 334.3 254.1 335.6 252.4 335.6C250.7 335.6 249.4 334.3 249.4 332.6C249.4 332.2 249.6 331.5 249.8 331.1H243C243.2 331.5 243.4 332.1 243.4 332.6C243.4 334.3 242.1 335.6 240.4 335.6C238.7 335.6 237.4 334.3 237.4 332.6C237.4 331.8 237.7 331.1 238.2 330.5L234.9 313.8H231.1C230.8 313.8 230.5 313.6 230.5 313.2V312.1C230.5 311.8 230.7 311.5 231.1 311.5H235.8C236.3 311.5 236.8 311.9 236.9 312.4L237.3 314.5H256.4C257.3 314.5 257.9 315.2 257.7 315.9ZM255.2 316.8H237.9L239.4 324.3H253.6L255.2 316.8ZM241.6 332.5C241.6 331.9 241.1 331.4 240.5 331.4C239.9 331.4 239.4 331.9 239.4 332.5C239.4 333.1 239.9 333.6 240.5 333.6C241.1 333.6 241.6 333.2 241.6 332.5ZM253.6 332.5C253.6 331.9 253.1 331.4 252.5 331.4C251.9 331.4 251.4 331.9 251.4 332.5C251.4 333.1 251.9 333.6 252.5 333.6C253.1 333.6 253.6 333.2 253.6 332.5Z" fill="#626D7B"/>
<path d="M236.3 389.4C236.1 389.3 235.9 389.3 235.7 389.3H234.6C233.7 389.3 232.9 390.1 232.9 391C232.9 391.6 232.4 392.1 231.8 392.1C231.2 392.1 230.7 391.6 230.7 391C230.7 388.8 232.5 387.1 234.6 387.1H235.7C236.5 387.1 237.3 387.3 237.9 387.8C237.3 388.2 236.7 388.7 236.3 389.4ZM231.4 381.8C231.4 379.7 233.1 378 235.2 378C237.3 378 239 379.7 239 381.8C239 383.9 237.3 385.6 235.2 385.6C233.1 385.6 231.4 383.9 231.4 381.8ZM233.6 381.8C233.6 382.6 234.3 383.3 235.1 383.3C235.9 383.3 236.6 382.6 236.6 381.8C236.6 381 235.9 380.3 235.1 380.3C234.3 380.3 233.6 381 233.6 381.8ZM254.6 393.2V395.3C254.6 396.5 253.6 397.5 252.4 397.5H238.9C237.7 397.5 236.7 396.5 236.7 395.3V393.2C236.7 392.1 237 391.1 237.6 390.2C238.9 388.3 241.4 387.6 243.6 388.2C244.3 388.4 245 388.5 245.7 388.5C246.4 388.5 247.1 388.4 247.8 388.2C250 387.5 252.5 388.2 253.8 390.2C254.3 391 254.6 392.1 254.6 393.2ZM252.4 393.2C252.4 391.5 251 390.1 249.3 390.1C248.1 390.6 246.9 390.9 245.6 390.9C244.3 390.9 243.1 390.7 241.9 390.1C240.2 390.1 238.8 391.5 238.8 393.2V395.3H252.3V393.2H252.4ZM240.4 381.8C240.4 378.9 242.8 376.6 245.6 376.6C248.4 376.6 250.8 379 250.8 381.8C250.8 384.6 248.4 387 245.6 387C242.8 387 240.4 384.7 240.4 381.8ZM242.6 381.8C242.6 383.4 244 384.8 245.6 384.8C247.2 384.8 248.6 383.4 248.6 381.8C248.6 380.2 247.2 378.8 245.6 378.8C244 378.8 242.6 380.1 242.6 381.8ZM252.4 381.8C252.4 379.7 254.1 378 256.2 378C258.3 378 260 379.7 260 381.8C260 383.9 258.3 385.6 256.2 385.6C254.1 385.6 252.4 383.9 252.4 381.8ZM260.6 391C260.6 391.6 260.1 392.1 259.5 392.1C258.9 392.1 258.4 391.6 258.4 391C258.4 390.1 257.6 389.3 256.7 389.3H255.6C255.4 389.3 255.2 389.3 255 389.4C254.6 388.7 254 388.2 253.4 387.7C254 387.3 254.8 387 255.6 387H256.7C258.9 387 260.6 388.8 260.6 391ZM254.6 381.8C254.6 382.6 255.3 383.3 256.1 383.3C256.9 383.3 257.6 382.6 257.6 381.8C257.6 381 256.9 380.3 256.1 380.3C255.3 380.3 254.6 381 254.6 381.8Z" fill="#626D7B"/>
<path d="M244.9 441.201L254.7 444.901C255.6 445.201 256.2 446.101 256.2 447.001V457.501C256.2 458.401 255.7 459.101 255 459.501L245.2 464.401C244.6 464.701 243.8 464.701 243.2 464.401L233.4 459.501C232.6 459.101 232.2 458.301 232.2 457.501V447.001C232.2 446.101 232.8 445.201 233.7 444.901L243.5 441.201C243.9 441.001 244.4 441.001 244.9 441.201ZM234.4 447.001L244.2 451.001L254 447.001L244.2 443.301L234.4 447.001ZM234.4 457.501L243 461.801V452.901L234.4 449.401V457.501ZM253.9 457.501V449.401L245.3 452.901V461.801L253.9 457.501Z" fill="#626D7B"/>
<path d="M256.9 515.999H252V519.399H254.6C255.4 519.399 256.1 520.099 256.1 520.899V525.399C256.1 526.199 255.4 526.899 254.6 526.899H247.1C246.3 526.899 245.6 526.199 245.6 525.399V520.899C245.6 520.099 246.3 519.399 247.1 519.399H249.7V515.999H235.5V519.399H238.1C238.9 519.399 239.6 520.099 239.6 520.899V525.399C239.6 526.199 238.9 526.899 238.1 526.899H230.6C229.8 526.899 229.1 526.199 229.1 525.399V520.899C229.1 520.099 229.8 519.399 230.6 519.399H233.2V515.999H228.3C227.9 515.999 227.5 515.699 227.5 515.199V514.399C227.5 513.999 227.8 513.599 228.3 513.599H241.4V510.199H238C237.2 510.199 236.5 509.499 236.5 508.699V504.199C236.5 503.399 237.2 502.699 238 502.699H247C247.8 502.699 248.5 503.399 248.5 504.199V508.699C248.5 509.499 247.8 510.199 247 510.199H243.6V513.599H256.7C257.1 513.599 257.5 513.899 257.5 514.399V515.199C257.6 515.599 257.3 515.999 256.9 515.999ZM231.4 521.599V524.599H237.4V521.599H231.4ZM238.9 508.099H246.4V505.099H238.9V508.099ZM247.9 521.599V524.599H253.9V521.599H247.9Z" fill="#626D7B"/>
<path d="M257.3 569.099V584.099C257.3 585.299 256.3 586.299 255.1 586.299H252.9V588.499C252.9 589.699 251.9 590.699 250.7 590.699H235.7C234.5 590.699 233.5 589.699 233.5 588.499V573.499C233.5 572.299 234.5 571.299 235.7 571.299H237.9V569.099C237.9 567.899 238.9 566.899 240.1 566.899H255.1C256.2 566.799 257.3 567.799 257.3 569.099ZM250.5 578.799H235.5V588.599H250.5V578.799ZM255 569.099H240V571.299H250.5C251.7 571.299 252.7 572.299 252.7 573.499V583.999H254.9V569.099H255Z" fill="#626D7B"/>
<path d="M253.2 652.6C253.2 653.8 252.2 654.8 251 654.8H237.5C236.3 654.8 235.3 653.8 235.3 652.6V633.1C235.3 631.9 236.3 630.9 237.5 630.9H247.1C247.7 630.9 248.3 631.1 248.7 631.6L252.6 635.5C253 635.9 253.3 636.5 253.3 637.1L253.2 652.6ZM251 639.1H246.1C245.5 639.1 245 638.6 245 638V633.1H237.5V652.6H251V639.1ZM248.7 643.8C248.7 644.1 248.5 644.4 248.1 644.4H240.2C239.9 644.4 239.6 644.2 239.6 643.8V642.5C239.6 642.2 239.8 641.9 240.2 641.9H248.1C248.4 641.9 248.7 642.1 248.7 642.5V643.8ZM248.7 646.4V647.7C248.7 648 248.5 648.3 248.1 648.3H240.2C239.9 648.3 239.6 648.1 239.6 647.7V646.4C239.6 646.1 239.8 645.8 240.2 645.8H248.1C248.5 645.8 248.7 646.1 248.7 646.4ZM247.2 636.8H250.8L247.2 633.2V636.8Z" fill="#626D7B"/>
<path d="M256.5 703.801C256.5 704.001 256.4 704.301 256.3 704.501C253.8 709.501 248.7 712.801 243 712.801C237.3 712.801 232.2 709.401 229.7 704.501C229.6 704.301 229.5 704.001 229.5 703.801C229.5 703.601 229.6 703.301 229.7 703.101C232.2 698.101 237.3 694.801 243 694.801C248.7 694.801 253.8 698.201 256.3 703.101C256.4 703.301 256.5 703.701 256.5 703.801ZM254.2 703.801C251.9 699.601 247.7 697.001 243.1 697.001C238.5 697.001 234.2 699.601 232 703.801C234.3 708.001 238.5 710.601 243.1 710.601C247.7 710.601 251.9 708.001 254.2 703.801ZM243 698.601C245.9 698.601 248.2 700.901 248.2 703.801C248.2 706.701 245.8 709.001 243 709.001C240.2 709.001 237.8 706.701 237.8 703.801C237.8 703.401 237.9 702.701 238 702.301C238.3 702.501 238.9 702.601 239.3 702.601C240.7 702.601 241.9 701.401 241.9 700.001C241.9 699.601 241.8 699.101 241.6 698.701C242 698.701 242.6 698.601 243 698.601Z" fill="#626D7B"/>
<path d="M255.1 768.399V769.499C255.1 769.799 254.9 770.099 254.5 770.099H253.6L252.3 779.399C252.2 780.499 251.2 781.299 250.1 781.299H233C231.9 781.299 230.9 780.499 230.8 779.399L229.5 770.099H228.6C228.3 770.099 228 769.899 228 769.499V768.399C228 768.099 228.2 767.799 228.6 767.799H232L238 760.699C238.4 760.199 239.1 760.199 239.6 760.599C240.1 760.999 240.1 761.699 239.7 762.199L234.9 767.899H248L243.2 762.199C242.8 761.699 242.8 760.999 243.3 760.599C243.8 760.199 244.5 760.299 244.9 760.699L250.9 767.799H254.3C254.9 767.799 255.1 768.099 255.1 768.399ZM251.4 770.099H231.8L233 779.099H250.1L251.4 770.099ZM237.5 776.499C237.5 777.099 237 777.599 236.4 777.599C235.8 777.599 235.3 777.099 235.3 776.499V772.699C235.3 772.099 235.8 771.599 236.4 771.599C237 771.599 237.5 772.099 237.5 772.699V776.499ZM242.7 776.499C242.7 777.099 242.2 777.599 241.6 777.599C241 777.599 240.5 777.099 240.5 776.499V772.699C240.5 772.099 241 771.599 241.6 771.599C242.2 771.599 242.7 772.099 242.7 772.699V776.499ZM248 776.499C248 777.099 247.5 777.599 246.9 777.599C246.3 777.599 245.8 777.099 245.8 776.499V772.699C245.8 772.099 246.3 771.599 246.9 771.599C247.5 771.599 248 772.099 248 772.699V776.499Z" fill="#626D7B"/>
<path d="M252.1 845.701V847.301C252.1 847.901 251.6 848.401 251 848.401C250.4 848.401 249.9 847.901 249.9 847.301V845.701C249.9 843.501 248.1 841.701 245.8 841.701H245.2C244.1 842.201 242.9 842.501 241.6 842.501C240.3 842.501 239.1 842.201 238 841.701H237.4C235.2 841.701 233.3 843.501 233.3 845.701V847.301C233.3 847.901 232.8 848.401 232.2 848.401C231.6 848.401 231.1 847.901 231.1 847.301V845.701C231.1 843.001 232.9 840.701 235.3 839.801C234.3 838.801 233.6 837.701 233.1 836.401H232.6C232.2 836.401 231.8 836.101 231.8 835.601V831.101C231.8 830.701 232.1 830.301 232.6 830.301H233.1C234.3 826.801 237.7 824.301 241.6 824.301C245.5 824.301 248.8 826.801 250.1 830.301H250.6C251 830.301 251.4 830.601 251.4 831.101V835.601C251.4 836.001 251.1 836.401 250.6 836.401H250C249.5 837.701 248.8 838.901 247.8 839.801C250.3 840.701 252.1 843.001 252.1 845.701ZM248.3 833.401C248.3 829.701 245.3 826.601 241.5 826.601C237.7 826.601 234.7 829.601 234.7 833.401C234.7 837.201 237.7 840.201 241.5 840.201C245.3 840.201 248.3 837.101 248.3 833.401ZM246.8 832.601V833.401C246.8 835.901 244.8 837.901 242.3 837.901H240.8C238.3 837.901 236.3 835.901 236.3 833.401V832.601C236.3 831.401 237.3 830.401 238.5 830.401H244.5C245.8 830.401 246.8 831.401 246.8 832.601ZM246.8 845.401V848.401H240V846.201C240 845.801 239.7 845.401 239.2 845.401C238.7 845.401 238.4 845.701 238.4 846.201V848.401H236.2V845.401C236.2 844.601 236.9 843.901 237.7 843.901H245.2C246.1 843.901 246.8 844.601 246.8 845.401ZM242.3 834.101L240.6 833.501L240 831.801L239.4 833.501L237.7 834.101L239.4 834.701L240 836.401L240.6 834.701L242.3 834.101ZM244.6 846.101C244.6 845.701 244.3 845.301 243.8 845.301C243.3 845.301 243 845.601 243 846.101C243 846.601 243.3 846.901 243.8 846.901C244.3 846.901 244.6 846.501 244.6 846.101Z" fill="#626D7B"/>
<path d="M31.1002 182.9C31.4002 182.9 31.7002 183.1 31.7002 183.5V184.6C31.7002 184.9 31.5002 185.2 31.1002 185.2H27.2002C26.0002 185.2 25.0002 186.2 25.0002 187.4V196.4C25.0002 197.6 26.0002 198.6 27.2002 198.6H31.1002C31.4002 198.6 31.7002 198.8 31.7002 199.2V200.3C31.7002 200.6 31.5002 200.9 31.1002 200.9H27.2002C24.7002 200.9 22.7002 198.9 22.7002 196.4V187.4C22.7002 184.9 24.7002 182.9 27.2002 182.9H31.1002ZM38.8002 183.8L46.5002 191.5C46.7002 191.7 46.7002 192.1 46.5002 192.3L38.8002 200C38.6002 200.2 38.2002 200.2 38.0002 200L37.1002 199.1C36.9002 198.9 36.9002 198.5 37.1002 198.3L42.4002 193.2H30.7002C30.4002 193.2 30.1002 193 30.1002 192.6V191.3C30.1002 191 30.3002 190.7 30.7002 190.7H42.4002L37.1002 185.6C36.9002 185.4 36.9002 185 37.1002 184.8L38.0002 183.9C38.2002 183.6 38.6002 183.6 38.8002 183.8Z" fill="white"/>
<path d="M98.7 191.901C98.7 198.301 93.5 203.501 87.1 203.501C80.7 203.501 75.5 198.301 75.5 191.901C75.5 185.501 80.7 180.301 87.1 180.301C93.5 180.301 98.7 185.401 98.7 191.901ZM96.4 191.901C96.4 186.701 92.2 182.501 87 182.501C81.8 182.501 77.6 186.701 77.6 191.901C77.6 197.101 81.8 201.301 87 201.301C92.2 201.201 96.4 197.001 96.4 191.901ZM88.7 193.601V193.901C88.7 194.201 88.5 194.501 88.1 194.501H86C85.7 194.501 85.4 194.301 85.4 193.901V193.501C85.4 191.801 86.7 191.201 87.6 190.601C88.4 190.101 88.9 189.801 88.9 189.201C88.9 188.401 87.9 187.901 87 187.901C85.9 187.901 85.4 188.401 84.7 189.301C84.5 189.501 84.2 189.601 83.9 189.401L82.6 188.401C82.4 188.201 82.3 187.901 82.5 187.601C83.6 186.001 85 185.101 87.2 185.101C89.5 185.101 92 186.901 92 189.301C92.1 192.401 88.7 192.501 88.7 193.601ZM87 199.101C85.9 199.101 85 198.201 85 197.101C85 196.001 85.9 195.101 87 195.101C88.1 195.101 89 196.001 89 197.101C89 198.201 88.1 199.101 87 199.101Z" fill="white"/>
<path d="M142.7 203.901H126.7C125.5 203.901 124.5 202.901 124.5 201.701V200.501C124.5 197.001 127.3 194.201 130.8 194.201C132.2 194.201 132.8 195.001 135 195.001C137.1 195.001 137.7 194.301 139 194.301C138.7 195.401 138.7 196.301 138.7 196.601C138.2 196.701 136.9 197.301 134.9 197.301C132.5 197.301 131.4 196.501 130.7 196.501C128.5 196.501 126.6 198.301 126.6 200.601V201.801H140.3C141 202.501 141.8 203.201 142.7 203.901ZM128.2 186.601C128.2 182.901 131.2 179.801 135 179.801C138.8 179.801 141.8 182.801 141.8 186.601C141.8 190.401 138.8 193.401 135 193.401C131.2 193.401 128.2 190.301 128.2 186.601ZM130.4 186.601C130.4 189.101 132.4 191.101 134.9 191.101C137.4 191.101 139.4 189.101 139.4 186.601C139.4 184.101 137.4 182.101 134.9 182.101C132.4 182.101 130.4 184.101 130.4 186.601ZM154.3 198.101C154.4 198.201 154.5 198.301 154.4 198.501C154.1 199.501 153.5 200.401 152.8 201.201C152.7 201.301 152.5 201.301 152.4 201.301L151.2 200.601C150.7 201.001 150.1 201.401 149.5 201.601V203.001C149.5 203.201 149.4 203.301 149.2 203.301C148.2 203.501 147.1 203.501 146.1 203.301C146 203.301 145.8 203.101 145.8 203.001V201.601C145.2 201.401 144.6 201.001 144.1 200.601L142.9 201.301C142.8 201.401 142.6 201.401 142.5 201.201C141.8 200.401 141.3 199.501 140.9 198.501C140.8 198.301 140.9 198.201 141 198.101L142.2 197.401C142.1 196.701 142.1 196.101 142.2 195.401L141 194.701C140.9 194.601 140.8 194.501 140.9 194.301C141.2 193.301 141.8 192.401 142.5 191.601C142.6 191.501 142.8 191.501 142.9 191.501L144.1 192.201C144.6 191.801 145.2 191.401 145.8 191.201V189.801C145.8 189.601 145.9 189.501 146.1 189.501C147.1 189.301 148.2 189.301 149.2 189.501C149.3 189.501 149.5 189.701 149.5 189.801V191.201C150.1 191.401 150.7 191.801 151.2 192.201L152.4 191.501C152.5 191.401 152.7 191.401 152.8 191.601C153.5 192.401 154 193.301 154.4 194.301C154.5 194.501 154.4 194.601 154.3 194.701L153.1 195.401C153.2 196.101 153.2 196.701 153.1 197.401L154.3 198.101ZM150 196.401C150 195.201 149 194.101 147.7 194.101C146.4 194.101 145.4 195.101 145.4 196.401C145.4 197.701 146.4 198.701 147.7 198.701C149 198.701 150 197.601 150 196.401Z" fill="white"/>
<path d="M205.3 191.1C205.3 192.2 204.7 193.2 203.8 193.7V200.9C203.8 201.3 203.5 202.4 202.3 202.4C202 202.4 201.6 202.3 201.4 202.1L197.4 198.9C195.4 197.3 192.9 196.4 190.3 196.4H189C188.9 196.9 188.8 197.4 188.8 197.9C188.8 199.3 189.3 200.5 190 201.5C190.7 202.5 190 203.9 188.8 203.9H183.8C183.2 203.9 182.7 203.6 182.5 203.1C181.7 201.5 181.3 199.8 181.3 197.9V196.4C179.6 196.4 178.3 195.1 178.3 193.4V188.9C178.3 187.2 179.6 185.9 181.3 185.9H190.3C192.9 185.9 195.4 185 197.4 183.4L201.4 180.2C201.7 180 202 179.9 202.3 179.9C203.5 179.9 203.8 181 203.8 181.4V188.6C204.7 189 205.3 190 205.3 191.1ZM189.6 188.1H181.4C181 188.1 180.6 188.4 180.6 188.9V193.4C180.6 193.8 180.9 194.2 181.4 194.2H189.6V188.1ZM187.5 201.6C186.9 200.5 186.6 199.2 186.6 197.8C186.6 197.3 186.7 196.8 186.8 196.3H183.8C183.8 196.6 183.7 197.1 183.7 197.8C183.7 199.1 184 200.4 184.5 201.6H187.5ZM201.6 182.9L198.8 185.1C196.8 186.7 194.4 187.7 191.8 188V194.2C194.3 194.5 196.8 195.5 198.8 197.1L201.6 199.3V182.9Z" fill="white"/>
<path d="M256.2 191.6V202.3C256.2 203.2 255.5 203.9 254.7 203.9H233.7C232.9 203.9 232.2 203.2 232.2 202.3V191.6C230 190.7 229 187.7 230.4 185.5L233.4 180.6C233.7 180.2 234.2 179.9 234.7 179.9H253.6C254.1 179.9 254.6 180.2 254.9 180.6L257.9 185.5C259.4 187.6 258.5 190.6 256.2 191.6ZM256.1 186.6L253.3 182.1H235.2L232.4 186.6C232 187.3 232.1 188.1 232.3 188.6C232.4 188.9 232.8 189.5 233.6 189.6C233.7 189.6 233.8 189.6 233.9 189.6C234.6 189.6 235.2 189.3 235.7 188.8L237.4 186.9L239.1 188.8C239.6 189.3 240.2 189.6 240.9 189.6C241.6 189.6 242.2 189.3 242.7 188.8L244.4 186.9L246.1 188.8C246.6 189.3 247.2 189.6 247.9 189.6C248.6 189.6 249.2 189.3 249.7 188.8L251.4 186.9L253.1 188.8C253.6 189.3 254.2 189.6 254.9 189.6C255 189.6 255.1 189.6 255.2 189.6C256 189.5 256.3 188.9 256.5 188.6C256.5 188.1 256.5 187.3 256.1 186.6ZM254 191.8C252.9 191.6 251.9 191.1 251.2 190.3C250.4 191.2 249.1 191.9 247.7 191.9C246.3 191.9 245.1 191.3 244.2 190.3C243.4 191.2 242.1 191.9 240.7 191.9C239.3 191.9 238.1 191.3 237.2 190.3C236.5 191.1 235.5 191.7 234.4 191.8V194.8H254V191.8ZM254 197.1H234.5V201.6H254V197.1Z" fill="white"/>
<path d="M390.8 805.499L386.9 809.399C386.5 809.799 385.8 810.099 385.3 810.099H372.7C371.5 810.099 370.5 809.099 370.5 807.899V791.399C370.5 790.199 371.5 789.199 372.7 789.199H389.2C390.4 789.199 391.4 790.199 391.4 791.399V803.999C391.5 804.499 391.2 805.199 390.8 805.499ZM372.7 791.399V807.899H383.2V802.999C383.2 802.399 383.7 801.899 384.3 801.899H389.2V791.399H372.7ZM389 804.099H385.4V807.699L389 804.099Z" fill="#EAEAEA"/>
<path d="M1250 317.301V318.101C1250 318.501 1249.7 318.901 1249.2 318.901H1227.4C1226.6 318.901 1225.9 318.201 1225.9 317.401V301.601C1225.9 301.201 1226.2 300.801 1226.7 300.801H1227.5C1227.9 300.801 1228.3 301.101 1228.3 301.601V316.601H1249.3C1249.7 316.501 1250 316.901 1250 317.301ZM1230.5 313.701V310.401C1230.5 310.101 1230.8 309.801 1231.1 309.801H1232.2C1232.5 309.801 1232.8 310.101 1232.8 310.401V313.701C1232.8 314.001 1232.5 314.301 1232.2 314.301H1231.1C1230.8 314.301 1230.5 314.001 1230.5 313.701ZM1235 313.701V304.401C1235 304.101 1235.3 303.801 1235.6 303.801H1236.7C1237 303.801 1237.3 304.101 1237.3 304.401V313.701C1237.3 314.001 1237 314.301 1236.7 314.301H1235.6C1235.3 314.301 1235 314.001 1235 313.701ZM1239.5 313.701V307.401C1239.5 307.101 1239.8 306.801 1240.1 306.801H1241.2C1241.5 306.801 1241.8 307.101 1241.8 307.401V313.701C1241.8 314.001 1241.5 314.301 1241.2 314.301H1240.1C1239.8 314.301 1239.5 314.001 1239.5 313.701ZM1244 313.701V302.901C1244 302.601 1244.3 302.301 1244.6 302.301H1245.7C1246 302.301 1246.3 302.601 1246.3 302.901V313.701C1246.3 314.001 1246 314.301 1245.7 314.301H1244.6C1244.3 314.301 1244 314.001 1244 313.701Z" fill="#EAEAEA"/>
<path d="M0 162.9H274.3" stroke="#302B40" stroke-miterlimit="10"/>
<path d="M0 226.9H274.3" stroke="#302B40" stroke-miterlimit="10"/>
<path d="M0 290.9H274.3" stroke="#302B40" stroke-miterlimit="10"/>
<path d="M0 354.9H274.3" stroke="#302B40" stroke-miterlimit="10"/>
<path d="M0 418.9H274.3" stroke="#302B40" stroke-miterlimit="10"/>
<path d="M0 482.9H274.3" stroke="#302B40" stroke-miterlimit="10"/>
<path d="M0 546.801H274.3" stroke="#302B40" stroke-miterlimit="10"/>
<path d="M0 610.801H274.3" stroke="#302B40" stroke-miterlimit="10"/>
<path d="M0 674.801H274.3" stroke="#302B40" stroke-miterlimit="10"/>
<path d="M0 738.801H274.3" stroke="#302B40" stroke-miterlimit="10"/>
<path d="M0 802.801H274.3" stroke="#302B40" stroke-miterlimit="10"/>
<path d="M0 867H274.3" stroke="#302B40" stroke-miterlimit="10"/>
<path d="M0 931.1H274.3" stroke="#302B40" stroke-miterlimit="10"/>
<path d="M150.2 271.6H32.3002C26.7002 271.6 22.2002 267.1 22.2002 261.5C22.2002 255.9 26.7002 251.4 32.3002 251.4H150.2C155.8 251.4 160.3 255.9 160.3 261.5C160.2 267.1 155.7 271.6 150.2 271.6Z" fill="#626D7B"/>
<path d="M195.4 135.399H77.4999C71.8999 135.399 67.3999 130.899 67.3999 125.299C67.3999 119.699 71.8999 115.199 77.4999 115.199H195.4C201 115.199 205.5 119.699 205.5 125.299C205.5 130.899 200.9 135.399 195.4 135.399Z" fill="#626D7B"/>
<path d="M135.3 334.399H32.3002C26.7002 334.399 22.2002 329.899 22.2002 324.299C22.2002 318.699 26.7002 314.199 32.3002 314.199H135.4C141 314.199 145.5 318.699 145.5 324.299C145.4 329.899 140.9 334.399 135.3 334.399Z" fill="#626D7B"/>
<path d="M144.4 398.001H32.3002C26.7002 398.001 22.2002 393.501 22.2002 387.901C22.2002 382.301 26.7002 377.801 32.3002 377.801H144.5C150.1 377.801 154.6 382.301 154.6 387.901C154.5 393.501 150 398.001 144.4 398.001Z" fill="#626D7B"/>
<path d="M132.2 462.899H32.2001C26.6001 462.899 22.1001 458.399 22.1001 452.799C22.1001 447.199 26.6001 442.699 32.2001 442.699H132.2C137.8 442.699 142.3 447.199 142.3 452.799C142.3 458.399 137.8 462.899 132.2 462.899Z" fill="#626D7B"/>
<path d="M132.2 652.899H32.2001C26.6001 652.899 22.1001 648.399 22.1001 642.799C22.1001 637.199 26.6001 632.699 32.2001 632.699H132.2C137.8 632.699 142.3 637.199 142.3 642.799C142.3 648.399 137.8 652.899 132.2 652.899Z" fill="#626D7B"/>
<path d="M144.4 526.8H32.3002C26.7002 526.8 22.2002 522.3 22.2002 516.7C22.2002 511.1 26.7002 506.6 32.3002 506.6H144.5C150.1 506.6 154.6 511.1 154.6 516.7C154.5 522.2 150 526.8 144.4 526.8Z" fill="#626D7B"/>
<path d="M158.6 588.899H32.3002C26.7002 588.899 22.2002 584.399 22.2002 578.799C22.2002 573.199 26.7002 568.699 32.3002 568.699H158.7C164.3 568.699 168.8 573.199 168.8 578.799C168.7 584.399 164.2 588.899 158.6 588.899Z" fill="#626D7B"/>
<path d="M414.7 734.3H364.2C360.4 734.3 357.3 731.2 357.3 727.4C357.3 723.6 360.4 720.5 364.2 720.5H414.7C418.5 720.5 421.6 723.6 421.6 727.4C421.6 731.2 418.5 734.3 414.7 734.3Z" fill="#EAEAEA"/>
<path d="M553.8 847.499H374.4C370.6 847.499 367.5 844.399 367.5 840.599C367.5 836.799 370.6 833.699 374.4 833.699H553.9C557.7 833.699 560.8 836.799 560.8 840.599C560.7 844.399 557.6 847.499 553.8 847.499Z" fill="#EAEAEA"/>
<path d="M486.5 880.7H373C370 880.7 367.5 878.2 367.5 875.2V872.5C367.5 869.5 370 867 373 867H486.4C489.4 867 491.9 869.5 491.9 872.5V875.2C492 878.2 489.5 880.7 486.5 880.7Z" fill="#EAEAEA"/>
<path d="M549.5 948.499H374.3C370.5 948.499 367.5 945.499 367.5 941.699V941.499C367.5 937.699 370.5 934.699 374.3 934.699H549.5C553.3 934.699 556.3 937.699 556.3 941.499V941.699C556.3 945.399 553.2 948.499 549.5 948.499Z" fill="#EAEAEA"/>
<path d="M662.7 948.501H565.8C563 948.501 560.7 946.201 560.7 943.401V939.901C560.7 937.101 563 934.801 565.8 934.801H662.7C665.5 934.801 667.8 937.101 667.8 939.901V943.401C667.8 946.201 665.6 948.501 662.7 948.501Z" fill="#EAEAEA"/>
<path d="M750.1 912.8H636.7C633.7 912.8 631.2 910.3 631.2 907.3V904.6C631.2 901.6 633.7 899.1 636.7 899.1H750.1C753.1 899.1 755.6 901.6 755.6 904.6V907.3C755.6 910.4 753.2 912.8 750.1 912.8Z" fill="#EAEAEA"/>
<path d="M615.6 912.8H374.4C370.6 912.8 367.5 909.7 367.5 905.9C367.5 902.1 370.6 899 374.4 899H615.6C619.4 899 622.5 902.1 622.5 905.9C622.5 909.8 619.4 912.8 615.6 912.8Z" fill="#EAEAEA"/>
<path d="M645.1 847.501H579.4C577.1 847.501 575.2 845.601 575.2 843.301V838.001C575.2 835.701 577.1 833.801 579.4 833.801H645.1C647.4 833.801 649.3 835.701 649.3 838.001V843.201C649.4 845.601 647.5 847.501 645.1 847.501Z" fill="#EAEAEA"/>
<path d="M369.2 702.8H364.2C360.4 702.8 357.3 699.7 357.3 695.9C357.3 692.1 360.4 689 364.2 689H369.2C373 689 376.1 692.1 376.1 695.9C376.1 699.8 373 702.8 369.2 702.8Z" fill="#EAEAEA"/>
<path d="M369.2 602.3H364.2C360.4 602.3 357.3 599.2 357.3 595.4C357.3 591.6 360.4 588.5 364.2 588.5H369.2C373 588.5 376.1 591.6 376.1 595.4C376.1 599.2 373 602.3 369.2 602.3Z" fill="#EAEAEA"/>
<path d="M369.2 501.8H364.2C360.4 501.8 357.3 498.7 357.3 494.9C357.3 491.1 360.4 488 364.2 488H369.2C373 488 376.1 491.1 376.1 494.9C376.1 498.7 373 501.8 369.2 501.8Z" fill="#EAEAEA"/>
<path d="M369.2 401.2H364.2C360.4 401.2 357.3 398.1 357.3 394.3C357.3 390.5 360.4 387.4 364.2 387.4H369.2C373 387.4 376.1 390.5 376.1 394.3C376.1 398.1 373 401.2 369.2 401.2Z" fill="#EAEAEA"/>
<path d="M1273.9 124.2H1238.1C1234.3 124.2 1231.2 121.1 1231.2 117.3C1231.2 113.5 1234.3 110.4 1238.1 110.4H1273.9C1277.7 110.4 1280.8 113.5 1280.8 117.3C1280.8 121.2 1277.7 124.2 1273.9 124.2Z" fill="#EAEAEA"/>
<path opacity="0.24" d="M1318.6 124.2H1291.4C1288 124.2 1285.3 121.5 1285.3 118.1V116.6C1285.3 113.2 1288 110.5 1291.4 110.5H1318.6C1322 110.5 1324.7 113.2 1324.7 116.6V118.1C1324.8 121.5 1322 124.2 1318.6 124.2Z" fill="#69A1DA"/>
<path d="M1364.2 124.2H1337C1333.6 124.2 1330.9 121.5 1330.9 118.1V116.6C1330.9 113.2 1333.6 110.5 1337 110.5H1364.2C1367.6 110.5 1370.3 113.2 1370.3 116.6V118.1C1370.4 121.5 1367.6 124.2 1364.2 124.2Z" fill="#EAEAEA"/>
<path d="M513.1 734.3H462.6C458.8 734.3 455.7 731.2 455.7 727.4C455.7 723.6 458.8 720.5 462.6 720.5H513.1C516.9 720.5 520 723.6 520 727.4C520 731.2 516.9 734.3 513.1 734.3Z" fill="#EAEAEA"/>
<path d="M611.5 734.3H561C557.2 734.3 554.1 731.2 554.1 727.4C554.1 723.6 557.2 720.5 561 720.5H611.5C615.3 720.5 618.4 723.6 618.4 727.4C618.3 731.2 615.2 734.3 611.5 734.3Z" fill="#EAEAEA"/>
<path d="M709.8 734.3H659.3C655.5 734.3 652.4 731.2 652.4 727.4C652.4 723.6 655.5 720.5 659.3 720.5H709.8C713.6 720.5 716.7 723.6 716.7 727.4C716.7 731.2 713.6 734.3 709.8 734.3Z" fill="#EAEAEA"/>
<path d="M808.2 734.3H757.7C753.9 734.3 750.8 731.2 750.8 727.4C750.8 723.6 753.9 720.5 757.7 720.5H808.2C812 720.5 815.1 723.6 815.1 727.4C815 731.2 811.9 734.3 808.2 734.3Z" fill="#EAEAEA"/>
<path d="M132.2 716.899H32.2001C26.6001 716.899 22.1001 712.399 22.1001 706.799C22.1001 701.199 26.6001 696.699 32.2001 696.699H132.2C137.8 696.699 142.3 701.199 142.3 706.799C142.3 712.399 137.8 716.899 132.2 716.899Z" fill="#626D7B"/>
<path d="M132.2 844.899H32.2001C26.6001 844.899 22.1001 840.399 22.1001 834.799C22.1001 829.199 26.6001 824.699 32.2001 824.699H132.2C137.8 824.699 142.3 829.199 142.3 834.799C142.3 840.399 137.8 844.899 132.2 844.899Z" fill="#626D7B"/>
<path d="M104.1 910.6H31.0002C26.2002 910.6 22.2002 906.7 22.2002 901.8V899.2C22.2002 894.4 26.1002 890.4 31.0002 890.4H104.2C109 890.4 113 894.3 113 899.2V901.8C112.9 906.7 109 910.6 104.1 910.6Z" fill="#626D7B"/>
<path d="M149.1 780.899H32.3002C26.7002 780.899 22.2002 776.399 22.2002 770.799C22.2002 765.199 26.7002 760.699 32.3002 760.699H149.1C154.7 760.699 159.2 765.199 159.2 770.799C159.2 776.399 154.6 780.899 149.1 780.899Z" fill="#626D7B"/>
<path d="M1369.9 265H354.5C347.9 265 342.5 259.6 342.5 253V144.4C342.5 137.8 347.9 132.4 354.5 132.4H1370C1376.6 132.4 1382 137.8 1382 144.4V253C1381.9 259.6 1376.6 265 1369.9 265Z" stroke="#EAEAEA" stroke-miterlimit="10"/>
<path d="M829.5 744.001H354.5C347.9 744.001 342.5 738.601 342.5 732.001V349.301C342.5 342.701 347.9 337.301 354.5 337.301H829.5C836.1 337.301 841.5 342.701 841.5 349.301V732.001C841.5 738.601 836.2 744.001 829.5 744.001Z" stroke="#EAEAEA" stroke-miterlimit="10"/>
<path d="M1368.7 955.999H355.9C348.6 955.999 342.6 950.099 342.6 942.699V788.499C342.6 781.199 348.5 775.199 355.9 775.199H1368.7C1376 775.199 1382 781.099 1382 788.499V942.699C1381.9 949.999 1376 955.999 1368.7 955.999Z" stroke="#EAEAEA" stroke-miterlimit="10"/>
<path d="M1369.9 744.001H884.8C878.2 744.001 872.8 738.601 872.8 732.001V349.301C872.8 342.701 878.2 337.301 884.8 337.301H1369.9C1376.5 337.301 1381.9 342.701 1381.9 349.301V732.001C1381.9 738.601 1376.6 744.001 1369.9 744.001Z" stroke="#EAEAEA" stroke-miterlimit="10"/>
<path d="M1374.4 332.2H1206.5C1202.4 332.2 1199 328.8 1199 324.7V293.4C1199 289.3 1202.3 285.9 1206.5 285.9H1374.4C1378.5 285.9 1381.9 289.3 1381.9 293.4V324.7C1381.9 328.9 1378.6 332.2 1374.4 332.2Z" stroke="#EAEAEA" stroke-miterlimit="10"/>
<path d="M689 132.5V265" stroke="#EAEAEA" stroke-miterlimit="10"/>
<path d="M1035.5 132.5V265" stroke="#EAEAEA" stroke-miterlimit="10"/>
<path d="M389.5 394.4V702.3" stroke="#EAEAEA" stroke-miterlimit="10"/>
<path d="M389.5 702.301H809.5" stroke="#EAEAEA" stroke-miterlimit="10"/>
<path d="M389.5 702.301C411.8 630.401 447.2 546.601 497.2 543.301C544.2 540.101 567 610.501 611.7 603.501C670.5 594.201 671.6 466.001 758 437.201C779.1 430.201 798.5 431.301 810.7 433.001" stroke="#6154F9" stroke-width="4" stroke-miterlimit="10" stroke-linecap="round" stroke-linejoin="round"/>
<path d="M926.1 637.1C942.8 614.6 970.5 585.3 1008.4 581.1C1054 576 1072.5 612 1104.5 603.1C1160.5 587.6 1150.8 464.3 1203.6 453C1232.9 446.7 1251 481.5 1290.7 474C1316.3 469.2 1334.6 449.9 1346.6 433" stroke="#20D287" stroke-width="4" stroke-miterlimit="10" stroke-linecap="round" stroke-linejoin="round"/>
<path d="M951.4 734.3H900.9C897.1 734.3 894 731.2 894 727.4C894 723.6 897.1 720.5 900.9 720.5H951.4C955.2 720.5 958.3 723.6 958.3 727.4C958.2 731.2 955.2 734.3 951.4 734.3Z" fill="#EAEAEA"/>
<path d="M905.9 702.8H900.9C897.1 702.8 894 699.7 894 695.9C894 692.1 897.1 689 900.9 689H905.9C909.7 689 912.8 692.1 912.8 695.9C912.7 699.8 909.7 702.8 905.9 702.8Z" fill="#EAEAEA"/>
<path d="M905.9 602.3H900.9C897.1 602.3 894 599.2 894 595.4C894 591.6 897.1 588.5 900.9 588.5H905.9C909.7 588.5 912.8 591.6 912.8 595.4C912.7 599.2 909.7 602.3 905.9 602.3Z" fill="#EAEAEA"/>
<path d="M905.9 501.8H900.9C897.1 501.8 894 498.7 894 494.9C894 491.1 897.1 488 900.9 488H905.9C909.7 488 912.8 491.1 912.8 494.9C912.7 498.7 909.7 501.8 905.9 501.8Z" fill="#EAEAEA"/>
<path d="M905.9 401.2H900.9C897.1 401.2 894 398.1 894 394.3C894 390.5 897.1 387.4 900.9 387.4H905.9C909.7 387.4 912.8 390.5 912.8 394.3C912.7 398.1 909.7 401.2 905.9 401.2Z" fill="#EAEAEA"/>
<path d="M1049.7 734.3H999.2C995.4 734.3 992.3 731.2 992.3 727.4C992.3 723.6 995.4 720.5 999.2 720.5H1049.7C1053.5 720.5 1056.6 723.6 1056.6 727.4C1056.6 731.2 1053.5 734.3 1049.7 734.3Z" fill="#EAEAEA"/>
<path d="M1148.1 734.3H1097.6C1093.8 734.3 1090.7 731.2 1090.7 727.4C1090.7 723.6 1093.8 720.5 1097.6 720.5H1148.1C1151.9 720.5 1155 723.6 1155 727.4C1154.9 731.2 1151.9 734.3 1148.1 734.3Z" fill="#EAEAEA"/>
<path d="M1246.4 734.3H1195.9C1192.1 734.3 1189 731.2 1189 727.4C1189 723.6 1192.1 720.5 1195.9 720.5H1246.4C1250.2 720.5 1253.3 723.6 1253.3 727.4C1253.3 731.2 1250.2 734.3 1246.4 734.3Z" fill="#EAEAEA"/>
<path d="M1344.8 734.3H1294.3C1290.5 734.3 1287.4 731.2 1287.4 727.4C1287.4 723.6 1290.5 720.5 1294.3 720.5H1344.8C1348.6 720.5 1351.7 723.6 1351.7 727.4C1351.6 731.2 1348.6 734.3 1344.8 734.3Z" fill="#EAEAEA"/>
<path d="M926.1 394.4V702.3" stroke="#EAEAEA" stroke-miterlimit="10"/>
<path d="M926.1 702.301H1346.1" stroke="#EAEAEA" stroke-miterlimit="10"/>
<path d="M389.6 706.699C392.362 706.699 394.6 704.461 394.6 701.699C394.6 698.938 392.362 696.699 389.6 696.699C386.839 696.699 384.6 698.938 384.6 701.699C384.6 704.461 386.839 706.699 389.6 706.699Z" fill="#69A1DA"/>
<path d="M809.5 437.5C812.261 437.5 814.5 435.261 814.5 432.5C814.5 429.739 812.261 427.5 809.5 427.5C806.739 427.5 804.5 429.739 804.5 432.5C804.5 435.261 806.739 437.5 809.5 437.5Z" fill="#69A1DA"/>
<path d="M926.1 642.1C928.862 642.1 931.1 639.861 931.1 637.1C931.1 634.338 928.862 632.1 926.1 632.1C923.339 632.1 921.1 634.338 921.1 637.1C921.1 639.861 923.339 642.1 926.1 642.1Z" fill="#20D287"/>
<path d="M1346.7 436.6C1349.46 436.6 1351.7 434.361 1351.7 431.6C1351.7 428.838 1349.46 426.6 1346.7 426.6C1343.94 426.6 1341.7 428.838 1341.7 431.6C1341.7 434.361 1343.94 436.6 1346.7 436.6Z" fill="#20D287"/>
<path d="M342.6 821.801H1381.9" stroke="#EFEFEF" stroke-miterlimit="10"/>
<path d="M342.6 855.301H1381.9" stroke="#EFEFEF" stroke-miterlimit="10"/>
<path d="M342.6 888.699H1381.9" stroke="#EFEFEF" stroke-miterlimit="10"/>
<path d="M342.6 923.199H1381.9" stroke="#EFEFEF" stroke-miterlimit="10"/>
<path d="M625 598.6V702.8" stroke="#6154F9" stroke-miterlimit="10" stroke-linecap="round" stroke-linejoin="round"/>
<path d="M1029.6 581.9V702.3" stroke="#20D287" stroke-miterlimit="10" stroke-linecap="round" stroke-linejoin="round"/>
<path d="M625 603.999C627.982 603.999 630.4 601.582 630.4 598.599C630.4 595.617 627.982 593.199 625 593.199C622.018 593.199 619.6 595.617 619.6 598.599C619.6 601.582 622.018 603.999 625 603.999Z" fill="white" stroke="#69A1DA" stroke-width="2" stroke-miterlimit="10" stroke-linecap="round" stroke-linejoin="round"/>
<path d="M1029.8 587.3C1032.78 587.3 1035.2 584.882 1035.2 581.9C1035.2 578.918 1032.78 576.5 1029.8 576.5C1026.82 576.5 1024.4 578.918 1024.4 581.9C1024.4 584.882 1026.82 587.3 1029.8 587.3Z" fill="white" stroke="#6AD8B9" stroke-width="2" stroke-miterlimit="10" stroke-linecap="round" stroke-linejoin="round"/>
<path d="M253.5 905.101C253 906.801 252.1 908.301 250.9 909.601C250.7 909.801 250.4 909.801 250.2 909.701L248.2 908.501C247.3 909.201 246.4 909.801 245.3 910.201V912.501C245.3 912.801 245.1 913.001 244.9 913.001C243.3 913.401 241.5 913.401 239.8 913.001C239.5 912.901 239.4 912.701 239.4 912.501V910.201C238.3 909.801 237.4 909.301 236.5 908.501L234.5 909.701C234.3 909.801 234 909.801 233.8 909.601C232.6 908.301 231.7 906.801 231.2 905.101C231.1 904.901 231.2 904.601 231.5 904.401L233.5 903.201C233.3 902.101 233.3 901.001 233.5 899.901L231.5 898.701C231.3 898.601 231.2 898.301 231.2 898.001C231.7 896.301 232.6 894.801 233.8 893.501C234 893.301 234.3 893.301 234.5 893.401L236.5 894.601C237.4 893.901 238.3 893.301 239.4 892.901V890.601C239.4 890.301 239.6 890.101 239.8 890.101C241.4 889.701 243.2 889.701 244.9 890.101C245.2 890.201 245.3 890.401 245.3 890.601V892.901C246.4 893.301 247.3 893.801 248.2 894.601L250.2 893.401C250.4 893.301 250.7 893.301 250.9 893.501C252.1 894.801 253 896.301 253.5 898.001C253.6 898.201 253.5 898.501 253.2 898.701L251.2 899.901C251.4 901.001 251.4 902.101 251.2 903.201L253.2 904.401C253.4 904.601 253.5 904.901 253.5 905.101ZM246.1 901.701C246.1 899.601 244.4 897.901 242.3 897.901C240.2 897.901 238.5 899.601 238.5 901.701C238.5 903.801 240.2 905.501 242.3 905.501C244.4 905.501 246.1 903.701 246.1 901.701Z" fill="#626D7B"/>
<path d="M628 361.7H560.9C557.1 361.7 554 358.6 554 354.8C554 351 557.1 347.9 560.9 347.9H628C631.8 347.9 634.9 351 634.9 354.8C634.9 358.6 631.8 361.7 628 361.7Z" fill="#EAEAEA"/>
<path d="M1182.2 361.7H1115.1C1111.3 361.7 1108.2 358.6 1108.2 354.8C1108.2 351 1111.3 347.9 1115.1 347.9H1182.2C1186 347.9 1189.1 351 1189.1 354.8C1189.1 358.6 1186 361.7 1182.2 361.7Z" fill="#EAEAEA"/>
<path d="M462.7 327.399H367.2C361.8 327.399 357.4 322.999 357.4 317.599V317.499C357.4 312.099 361.8 307.699 367.2 307.699H462.7C468.1 307.699 472.5 312.099 472.5 317.499V317.599C472.5 322.999 468.1 327.399 462.7 327.399Z" fill="#EAEAEA"/>
<path d="M441.9 806.499H411.2C407.4 806.499 404.3 803.399 404.3 799.599C404.3 795.799 407.4 792.699 411.2 792.699H441.9C445.7 792.699 448.8 795.799 448.8 799.599C448.7 803.399 445.6 806.499 441.9 806.499Z" fill="#EAEAEA"/>
<path d="M551.3 201.601H515.7C509.7 201.601 504.8 196.701 504.8 190.701C504.8 184.701 509.7 179.801 515.7 179.801H551.3C557.3 179.801 562.2 184.701 562.2 190.701C562.2 196.701 557.3 201.601 551.3 201.601Z" fill="#EAEAEA"/>
<path d="M543.4 219.101H513.4C509.6 219.101 506.5 216.001 506.5 212.201C506.5 208.401 509.6 205.301 513.4 205.301H543.4C547.2 205.301 550.3 208.401 550.3 212.201C550.2 216.001 547.2 219.101 543.4 219.101Z" fill="#EAEAEA"/>
<path opacity="0.24" d="M582.5 179.9H571.8C568 179.9 564.9 176.8 564.9 173C564.9 169.2 568 166.1 571.8 166.1H582.5C586.3 166.1 589.4 169.2 589.4 173C589.4 176.8 586.3 179.9 582.5 179.9Z" fill="#20D287"/>
<path opacity="0.24" d="M931.4 179.9H920.7C916.9 179.9 913.8 176.8 913.8 173C913.8 169.2 916.9 166.1 920.7 166.1H931.4C935.2 166.1 938.3 169.2 938.3 173C938.3 176.8 935.2 179.9 931.4 179.9Z" fill="#20D287"/>
<path opacity="0.24" d="M1295.8 179.9H1285.1C1281.3 179.9 1278.2 176.8 1278.2 173C1278.2 169.2 1281.3 166.1 1285.1 166.1H1295.8C1299.6 166.1 1302.7 169.2 1302.7 173C1302.7 176.8 1299.6 179.9 1295.8 179.9Z" fill="#20D287"/>
<path d="M892 219.101H862C858.2 219.101 855.1 216.001 855.1 212.201C855.1 208.401 858.2 205.301 862 205.301H892C895.8 205.301 898.9 208.401 898.9 212.201C898.9 216.001 895.8 219.101 892 219.101Z" fill="#EAEAEA"/>
<path d="M899.8 201.601H864.2C858.2 201.601 853.3 196.701 853.3 190.701C853.3 184.701 858.2 179.801 864.2 179.801H899.8C905.8 179.801 910.7 184.701 910.7 190.701C910.6 196.701 905.8 201.601 899.8 201.601Z" fill="#EAEAEA"/>
<path d="M1265.9 201.601H1147.2C1141.2 201.601 1136.3 196.701 1136.3 190.701C1136.3 184.701 1141.2 179.801 1147.2 179.801H1265.9C1271.9 179.801 1276.8 184.701 1276.8 190.701C1276.8 196.701 1271.9 201.601 1265.9 201.601Z" fill="#EAEAEA"/>
<path d="M1233.8 219.101H1191.6C1187.8 219.101 1184.7 216.001 1184.7 212.201C1184.7 208.401 1187.8 205.301 1191.6 205.301H1233.8C1237.6 205.301 1240.7 208.401 1240.7 212.201C1240.7 216.001 1237.6 219.101 1233.8 219.101Z" fill="#EAEAEA"/>
<path d="M1352.4 317.101H1265C1261.2 317.101 1258.1 314.001 1258.1 310.201C1258.1 306.401 1261.2 303.301 1265 303.301H1352.4C1356.2 303.301 1359.3 306.401 1359.3 310.201C1359.3 314.101 1356.2 317.101 1352.4 317.101Z" fill="#EAEAEA"/>
<path d="M483.4 219.1H455.2C447.1 219.1 440.6 212.6 440.6 204.5V194.5C440.6 186.4 447.1 179.9 455.2 179.9H483.4C491.5 179.9 498 186.4 498 194.5V204.5C498 212.6 491.5 219.1 483.4 219.1Z" fill="#EAEAEA"/>
<path d="M831.3 219.1H803.1C795 219.1 788.5 212.6 788.5 204.5V194.5C788.5 186.4 795 179.9 803.1 179.9H831.3C839.4 179.9 845.9 186.4 845.9 194.5V204.5C845.9 212.6 839.4 219.1 831.3 219.1Z" fill="#EAEAEA"/>
<mask id="mask0_426_2537" style="mask-type:luminance" maskUnits="userSpaceOnUse" x="769" y="57" width="194" height="26">
<path d="M962.4 57H769.6V83H962.4V57Z" fill="white"/>
</mask>
<g mask="url(#mask0_426_2537)">
<path d="M833.7 76.5L830.4 71C832 70.6 833.6 69.2 833.6 66.7C833.6 64 831.7 62 828.7 62H821.9V76.5H825V71.4H827.3L830.1 76.5H833.7ZM828.3 68.7H825V64.8H828.2C829.4 64.8 830.3 65.5 830.3 66.7C830.4 67.9 829.5 68.7 828.3 68.7ZM844.4 76.5V69.7C844.4 66.7 842.2 65.7 839.8 65.7C838.2 65.7 836.5 66.2 835.2 67.3L836.3 69.2C837.2 68.4 838.2 68 839.3 68C840.7 68 841.6 68.7 841.6 69.8V71.1C840.9 70.3 839.7 69.8 838.3 69.8C836.6 69.8 834.7 70.7 834.7 73.2C834.7 75.5 836.7 76.7 838.3 76.7C839.7 76.7 840.9 76.2 841.6 75.3V76.4L844.4 76.5ZM839.4 74.9C838.3 74.9 837.4 74.3 837.4 73.3C837.4 72.3 838.3 71.7 839.4 71.7C840.3 71.7 841.2 72 841.6 72.6V74C841.2 74.6 840.3 74.9 839.4 74.9ZM857.4 76.5L853.1 70.8L857.2 66.1H853.8L849.8 70.8V62H847V76.5H849.8V73.8L851.1 72.5L853.9 76.5H857.4ZM863.5 76.8C865.1 76.8 866.8 76.3 867.8 75.3L866.6 73.5C865.9 74.2 864.7 74.5 863.8 74.5C862 74.5 861 73.4 860.8 72.2H868.6V71.5C868.6 68.1 866.5 65.8 863.4 65.8C860.2 65.8 858 68.2 858 71.3C857.9 74.6 860.3 76.8 863.5 76.8ZM865.9 70.3H860.7C860.8 69.3 861.5 68.1 863.3 68.1C865.2 68 865.9 69.3 865.9 70.3ZM874.1 76.8C875.2 76.8 876 76.5 876.4 76.1L875.8 74C875.6 74.2 875.3 74.3 874.8 74.3C874.2 74.3 873.8 73.8 873.8 73.1V68.4H875.9V66H873.8V63.1H871V66H869.3V68.4H871V73.8C871.1 75.8 872.2 76.8 874.1 76.8ZM881.7 76.8C884.6 76.8 886.2 75.4 886.2 73.5C886.2 69.3 880 70.6 880 69C880 68.4 880.6 68 881.6 68C882.9 68 884.1 68.6 884.7 69.2L885.8 67.3C884.8 66.5 883.4 65.9 881.6 65.9C878.8 65.9 877.3 67.4 877.3 69.2C877.3 73.3 883.5 71.9 883.5 73.6C883.5 74.3 882.9 74.7 881.7 74.7C880.4 74.7 878.9 74 878.1 73.2L876.9 75.2C878.1 76.2 879.8 76.8 881.7 76.8ZM898.1 76.5V69.1C898.1 67.1 897 65.8 894.7 65.8C893 65.8 891.7 66.6 891 67.4V62H888.2V76.5H891V69.4C891.5 68.8 892.3 68.2 893.4 68.2C894.6 68.2 895.3 68.7 895.3 70.1V76.5H898.1ZM905.6 76.8C909.1 76.8 911.1 74.3 911.1 71.3C911.1 68.3 909 65.8 905.6 65.8C902.2 65.8 900.1 68.3 900.1 71.3C900.1 74.2 902.2 76.8 905.6 76.8ZM905.6 74.3C903.9 74.3 902.9 72.9 902.9 71.2C902.9 69.6 903.9 68.2 905.6 68.2C907.3 68.2 908.3 69.6 908.3 71.2C908.3 72.9 907.4 74.3 905.6 74.3ZM919.2 76.8C921.9 76.8 923.8 74.8 923.8 71.3C923.8 67.8 921.8 65.8 919.2 65.8C917.9 65.8 916.8 66.4 916 67.4V66H913.2V80.5H916V75.2C916.9 76.2 918 76.8 919.2 76.8ZM918.4 74.3C917.5 74.3 916.5 73.8 916 73.1V69.4C916.5 68.7 917.5 68.2 918.4 68.2C920 68.2 921.1 69.4 921.1 71.2C921 73.1 919.9 74.3 918.4 74.3ZM931.9 76.8C934.6 76.8 936.5 74.8 936.5 71.3C936.5 67.8 934.5 65.8 931.9 65.8C930.6 65.8 929.5 66.4 928.7 67.4V66H925.9V80.5H928.7V75.2C929.5 76.2 930.6 76.8 931.9 76.8ZM931 74.3C930.1 74.3 929.1 73.8 928.6 73.1V69.4C929.1 68.7 930.1 68.2 931 68.2C932.6 68.2 933.7 69.4 933.7 71.2C933.7 73.1 932.6 74.3 931 74.3ZM943.4 76.8C945 76.8 946.7 76.3 947.7 75.3L946.5 73.5C945.8 74.2 944.6 74.5 943.7 74.5C941.9 74.5 940.9 73.4 940.7 72.2H948.5V71.5C948.5 68.1 946.4 65.8 943.3 65.8C940.1 65.8 937.9 68.2 937.9 71.3C937.8 74.6 940.2 76.8 943.4 76.8ZM945.9 70.3H940.7C940.8 69.3 941.5 68.1 943.3 68.1C945.1 68 945.8 69.3 945.9 70.3ZM960.3 76.5V69.1C960.3 67.1 959.2 65.8 956.9 65.8C955.2 65.8 953.9 66.6 953.2 67.4V66H950.4V76.5H953.2V69.4C953.7 68.8 954.5 68.2 955.6 68.2C956.8 68.2 957.5 68.7 957.5 70.1V76.4L960.3 76.5Z" fill="#362F4A"/>
<path d="M813.3 71.6C813.9 70.7 813.9 69.3 813.3 68.4L806.5 58.6C805.9 57.7 804.5 57 803.4 57H782C780.9 57 780.5 57.7 781.1 58.6L787.6 68.3C788.2 69.2 788.2 70.7 787.6 71.6L781.1 81.3C780.5 82.2 780.9 82.9 782 82.9H803.4C804.5 82.9 805.9 82.2 806.5 81.3L813.3 71.6ZM793.8 76.7C792.7 76.7 792.3 76 792.9 75.1L795.2 71.6C795.8 70.7 795.8 69.2 795.2 68.3L792.9 64.8C792.3 63.9 792.7 63.2 793.8 63.2H800C801.1 63.2 802.5 63.9 803.1 64.8L805.6 68.3C806.2 69.2 806.2 70.6 805.6 71.5L803.1 75C802.5 75.9 801.1 76.6 800 76.6L793.8 76.7Z" fill="#6154F9"/>
<path d="M772.7 62.8996C771.6 62.8996 770.7 62.2996 770.7 61.4996C770.7 60.5996 771.6 60.0996 772.7 60.0996H778.3C779.4 60.0996 780.3 60.6996 780.3 61.4996C780.3 62.3996 779.4 62.8996 778.3 62.8996H772.7Z" fill="#362F4A"/>
<path d="M772.7 79.8996C771.6 79.8996 770.7 79.2996 770.7 78.4996C770.7 77.5996 771.6 77.0996 772.7 77.0996H778.3C779.4 77.0996 780.3 77.6996 780.3 78.4996C780.3 79.3996 779.4 79.8996 778.3 79.8996H772.7Z" fill="#362F4A"/>
<path d="M772.7 71.3996C771.6 71.3996 770.7 70.7996 770.7 69.9996C770.7 69.0996 771.6 68.5996 772.7 68.5996H783.1C784.2 68.5996 785.1 69.1996 785.1 69.9996C785.1 70.8996 784.2 71.3996 783.1 71.3996H772.7Z" fill="#362F4A"/>
</g>
</g>
<defs>
<clipPath id="clip0_426_2537">
<rect width="1440.4" height="970.1" fill="white"/>
</clipPath>
</defs>
</svg>
