<svg width="37" height="45" viewBox="0 0 37 45" fill="none" xmlns="http://www.w3.org/2000/svg">
<path d="M36.936 40.4208C28.8443 46.3436 28.5331 44.785 24.6948 43.8498C12.1424 40.8364 15.1508 49.6687 0.41987 40.8364C-0.098825 40.5247 -0.0988238 40.213 0.212393 39.6934C1.561 37.4074 11.8312 19.4311 11.8312 19.4311C12.7648 17.7685 13.3872 15.8981 13.2835 14.0278C13.1798 11.534 12.9723 10.8066 12.5573 10.287C12.2461 9.8714 10.5863 8.52058 11.6237 6.33848C13.6985 2.07819 12.4536 0 13.6985 0C13.8022 0 14.0097 3.94835e-07 14.0097 0.10391C14.1134 0.207819 14.1134 0.415638 14.1134 0.519547C14.2171 0.935185 14.2171 2.28601 14.8396 4.05247C15.3583 5.40329 15.877 5.19547 17.0181 6.23457C17.1218 6.33848 17.2256 6.44239 17.3293 6.5463C17.6405 6.85803 17.9518 7.16975 18.1592 7.58539C19.9228 4.98765 21.6864 6.5463 22.3088 0.623457C22.4125 -0.207819 23.4499 -0.10391 23.4499 0.727366C23.5537 2.07819 23.6574 2.90947 23.9686 3.94856L24.4873 5.40329C25.006 6.75412 25.5247 7.58539 25.006 8.83231C24.6948 9.45576 24.3836 9.76749 24.1761 10.1831C24.0723 10.287 23.9686 10.4949 23.9686 10.7027C23.5537 11.7418 23.5537 13.9239 23.5537 14.8591C23.5537 15.3786 23.6574 15.8981 23.7611 16.3138C24.1761 18.1842 25.2135 19.4311 27.0808 22.6523C30.6079 28.9907 36.8322 40.3169 36.936 40.4208Z" fill="#362F4A"/>
</svg>
