<?xml version="1.0" encoding="utf-8"?>
<!-- Generator: Adobe Illustrator 25.2.0, SVG Export Plug-In . SVG Version: 6.00 Build 0)  -->
<svg version="1.1" id="Layer_1" xmlns="http://www.w3.org/2000/svg" xmlns:xlink="http://www.w3.org/1999/xlink" x="0px" y="0px"
	 viewBox="0 0 69 39" style="enable-background:new 0 0 69 39;" xml:space="preserve">
<style type="text/css">
	.st0{fill:#362F4A;}
	.st1{fill:#626D7B;}
	.st2{fill:#FFFFFF;}
	.st3{fill:#6154F9;}
</style>
<path class="st0" d="M67.9,29.8c-0.3-0.5-0.5-1.1-0.8-1.3c-1.1-1.3-2.4-2.7-4.8-3.5c-3.2-1.1-5.9-1.3-8.3-1.6c-0.5,0-1.3,0-1.9-0.3
	c-7.2-0.8-13.1-1.9-26-17.8c-1.3-1.6-1.9-3.2-3.5-4.8c-1.3-1.3-3.8,0.3-6.7,0.8c-0.5,0.3-1.3,0.3-1.9,0.3C11.6,1.6,9,1.3,6.6,1
	C3.1,0.8,5.2-1.1,0.9,25c-0.3,1.9-0.5,4-0.8,5.9c0,1.6-0.3,3.5,0,5.1c0,0.8,0,1.9,1.1,1.9c11,1.1,18,0.5,35.4,0.5
	c8.8,0,17.4,0,26-1.6l2.1-0.3c1.6-0.3,3.8-0.8,3.8-2.1C68.8,33,68.5,31.4,67.9,29.8z"/>
<path class="st1" d="M54.3,23.4L53,29.5C41.7,29,29.6,21.8,23.7,12.8c-2.1-3.2-3.8-6.7-6.2-9.3c0,0-0.8-0.8-1.6-1.6
	c2.9-0.5,5.1-2.4,6.7-0.8c1.1,1.1,1.6,2.1,2.4,3.2c0.3,0.3,0.5,0.8,0.8,1.1l0.3,0.3c0.8,1.1,1.6,1.9,2.4,2.7
	c0.3,0.3,0.5,0.5,0.8,0.8c0.8,1.1,1.6,1.9,2.4,2.7c0.3,0.3,0.5,0.5,0.8,0.8c0.8,0.8,1.6,1.6,2.4,2.4c0.3,0.3,0.5,0.5,0.8,0.8
	c0.8,0.8,1.6,1.3,2.4,1.9c0.3,0.3,0.8,0.5,1.1,0.8c0.5,0.5,1.3,0.8,1.9,1.3c0.5,0.3,0.8,0.5,1.3,0.8c1.3,0.5,2.4,1.1,3.5,1.6
	c0.5,0.3,0.8,0.3,1.3,0.3c1.9,0.5,3.5,0.5,5.4,0.8C52.9,23.4,53.5,23.4,54.3,23.4z"/>
<path class="st1" d="M69,34.7c0,1.4-2.1,1.9-3.7,2.2l-2.1,0.3c-8.5,1.7-17.3,1.7-25.9,1.7C19.9,38.9,11.9,39.1,1,38c-0.8,0-1-1-1-2
	c0-1.7,0-3.3,0-5c6.1,0.6,33.3,2,53-0.2c5.6-0.6,9.5-1.9,13.5-3.3c0.5,0.5,1.4,1.3,1.7,1.9C68.7,31.1,69,32.7,69,34.7z"/>
<path class="st1" d="M68,29.7c-4,1.3-8.3,2.1-12.6,2.7c-0.8,0-1.3,0-1.9-0.3C53.3,31.8,53,31.3,53,31c0-0.3,0-0.5,0-0.5
	c-0.3-2.4-1.8-5.1-1.5-7.5c2.9,0.3,7.6,0.4,11.4,2.2c2.4,0.8,3.8,1.9,4.8,3.5C67.5,28.6,67.7,29.2,68,29.7z"/>
<path class="st2" d="M25.9,5C25.9,5.3,25.9,5.3,25.9,5l-2.9,2.4c0,0-0.3,0.3-0.5,0.3s-0.5,0-0.5-0.3c-0.3-0.3-0.3-0.8,0-1.1L24.8,4
	c0,0,0,0,0.3,0C25.3,4.5,25.6,4.8,25.9,5z"/>
<path class="st2" d="M29.1,9c0,0,0,0.3-0.3,0.3c-0.8,1.1-1.9,1.9-2.9,2.7c0,0-0.3,0.3-0.5,0.3c-0.3,0-0.5,0-0.5-0.3
	c-0.3-0.3-0.3-0.8,0-1.1c1.1-0.8,1.9-1.6,2.9-2.7C28,8,28,8,28.3,8C28.5,8.5,28.8,8.8,29.1,9z"/>
<path class="st2" d="M32.3,12.5c0,0.3,0,0.3-0.3,0.3c-1.1,1.1-1.9,2.1-2.9,2.9C28.8,16,28.8,16,28.5,16s-0.3,0-0.5-0.3
	c-0.3-0.3-0.3-0.8,0-1.1c1.1-1.1,1.9-2.1,2.9-2.9c0,0,0.3-0.3,0.5-0.3C31.8,12,32,12.2,32.3,12.5z"/>
<path class="st2" d="M35.8,15.7c0,0.3,0,0.3-0.3,0.3c-1.1,0.8-2.1,1.9-3.2,3.2c-0.3,0.3-0.3,0.3-0.5,0.3c-0.3,0-0.3,0-0.5-0.3
	c-0.3-0.3-0.3-0.8,0-1.1c1.1-1.3,2.1-2.4,3.2-3.5h0.3C35,15.2,35.2,15.7,35.8,15.7z"/>
<path class="st2" d="M39,18.6c-0.8,1.3-1.6,2.7-2.1,4c0,0.3-0.3,0.3-0.5,0.3H36c-0.3-0.3-0.5-0.5-0.3-1.1c0.8-1.3,1.3-2.7,2.1-4
	c0,0,0-0.3,0.3-0.3C38.5,18.1,38.7,18.4,39,18.6z"/>
<path class="st2" d="M42.2,20.5l-0.5,4.3c0,0.3-0.3,0.5-0.8,0.5c-0.3,0-0.5-0.5-0.5-0.8l0.8-4.5c0,0,0-0.3,0.3-0.3
	C41.4,20,41.7,20.2,42.2,20.5z"/>
<path class="st2" d="M47,22.4c-0.3,1.3-0.3,2.4-0.5,3.7c0,0.3-0.3,0.5-0.8,0.5c0,0,0,0-0.3,0c-0.3,0-0.5-0.5-0.5-0.8
	c0.3-1.3,0.5-2.4,0.5-3.7C46,22.1,46.5,22.4,47,22.4z"/>
<path class="st3" d="M12.7,18.6c3.1,0,5.6-2.5,5.6-5.6c0-3.1-2.5-5.6-5.6-5.6c-3.1,0-5.6,2.5-5.6,5.6C7.1,16.1,9.6,18.6,12.7,18.6z"
	/>
<path class="st0" d="M12.7,15.4c1.3,0,2.4-1.1,2.4-2.4c0-1.3-1.1-2.4-2.4-2.4s-2.4,1.1-2.4,2.4C10.3,14.4,11.4,15.4,12.7,15.4z"/>
</svg>
