<svg width="189" height="56" viewBox="0 0 189 56" fill="none" xmlns="http://www.w3.org/2000/svg">
<g clip-path="url(#clip0)">
<path d="M40.9369 10.6031C40.9016 10.3277 40.6633 10.1716 40.4691 10.1533C40.2749 10.1349 36.506 10.0798 36.506 10.0798C36.506 10.0798 33.355 6.89426 33.0373 6.57295C32.7283 6.25164 32.1193 6.34344 31.881 6.41689C31.881 6.41689 31.2896 6.60967 30.3011 6.93098C30.1334 6.37098 29.8951 5.68246 29.542 4.99393C28.4211 2.76311 26.7793 1.58803 24.7846 1.58803C24.7846 1.58803 24.7846 1.58803 24.7757 1.58803C24.6345 1.58803 24.5021 1.59721 24.3609 1.61557C24.2991 1.54213 24.2462 1.46869 24.1844 1.40443C23.3282 0.431312 22.2161 -0.0368851 20.8833 -0.000163768C18.3148 0.0732789 15.764 2.00115 13.6898 5.42541C12.2334 7.83066 11.1213 10.8602 10.8124 13.2011C7.86433 14.1467 5.80778 14.8169 5.76365 14.8261C4.28081 15.3126 4.22785 15.3585 4.03367 16.8182C3.89245 17.929 0 49.2156 0 49.2156L32.6048 55.0818L46.7359 51.428C46.7359 51.428 40.9722 10.8877 40.9369 10.6031ZM28.6682 7.45426C27.9179 7.69295 27.0618 7.96836 26.135 8.27131C26.1174 6.9218 25.9585 5.03984 25.3583 3.41492C27.3089 3.80049 28.2622 6.08639 28.6682 7.45426ZM24.4315 8.82213C22.7192 9.37295 20.8568 9.96967 18.9856 10.5756C19.5152 8.48246 20.5126 6.39852 21.7306 5.03066C22.1896 4.52574 22.8251 3.95656 23.5753 3.63525C24.2991 5.16836 24.4492 7.3441 24.4315 8.82213ZM20.9363 1.78082C21.5364 1.77164 22.0484 1.90016 22.4809 2.20311C21.7836 2.57951 21.1216 3.11197 20.4861 3.81885C18.8532 5.63656 17.6087 8.4641 17.1056 11.1815C15.5521 11.6772 14.034 12.173 12.6306 12.6228C13.5221 8.32639 16.982 1.90016 20.9363 1.78082Z" fill="#95BF47"/>
<path d="M40.4693 10.1626C40.2752 10.1443 36.5063 10.0892 36.5063 10.0892C36.5063 10.0892 33.3553 6.90361 33.0375 6.5823C32.9228 6.46296 32.7639 6.3987 32.5962 6.37115V55.0912L46.7273 51.4374C46.7273 51.4374 40.9636 10.8971 40.9283 10.6216C40.9018 10.3279 40.6635 10.1718 40.4693 10.1626Z" fill="#5E8E3E"/>
<path d="M24.7756 17.718L23.1339 24.1075C23.1339 24.1075 21.3068 23.2446 19.1355 23.3823C15.9492 23.5934 15.9227 25.6774 15.9492 26.2007C16.1257 29.0557 23.3457 29.68 23.7517 36.3725C24.0695 41.6328 21.0685 45.2315 16.7435 45.5161C11.5536 45.8557 8.69385 42.6702 8.69385 42.6702L9.79715 37.8046C9.79715 37.8046 12.6746 40.063 14.9783 39.9161C16.4787 39.8151 17.0172 38.5482 16.9642 37.6393C16.7347 33.9121 10.8563 34.1325 10.4856 28.0092C10.1767 22.859 13.4248 17.6354 20.6007 17.1672C23.3545 16.9836 24.7756 17.718 24.7756 17.718Z" fill="white"/>
<path d="M65.3421 31.0846C63.718 30.1666 62.8795 29.3954 62.8795 28.3305C62.8795 26.981 64.0358 26.1089 65.854 26.1089C67.9635 26.1089 69.8436 27.0269 69.8436 27.0269L71.3264 22.299C71.3264 22.299 69.9583 21.1882 65.9423 21.1882C60.3463 21.1882 56.4715 24.5207 56.4715 29.2026C56.4715 31.8557 58.281 33.8846 60.6994 35.3351C62.65 36.4918 63.3473 37.318 63.3473 38.5207C63.3473 39.7784 62.3764 40.7882 60.5582 40.7882C57.8573 40.7882 55.3153 39.3377 55.3153 39.3377L53.7354 44.0656C53.7354 44.0656 56.092 45.7089 60.0462 45.7089C65.8011 45.7089 69.9318 42.762 69.9318 37.4557C69.9407 34.6098 67.8488 32.581 65.3421 31.0846Z" fill="#362F4A"/>
<path d="M88.2728 21.1423C85.4395 21.1423 83.2153 22.5469 81.4941 24.6676L81.397 24.6217L83.8596 11.2459H77.4516L71.229 45.2866H77.637L79.773 33.6551C80.6115 29.2577 82.7916 26.5587 84.8305 26.5587C86.2692 26.5587 86.8253 27.5685 86.8253 29.019C86.8253 29.9371 86.7282 31.0479 86.5428 31.9659L84.1332 45.2866H90.5412L93.0479 31.5253C93.3304 30.0748 93.5157 28.3397 93.5157 27.183C93.5245 23.4098 91.618 21.1423 88.2728 21.1423Z" fill="#362F4A"/>
<path d="M108 21.1423C100.295 21.1423 95.1929 28.3856 95.1929 36.4459C95.1929 41.6144 98.2556 45.7639 104.01 45.7639C111.575 45.7639 116.685 38.7134 116.685 30.4603C116.685 25.6774 113.993 21.1423 108 21.1423ZM104.849 40.6505C102.669 40.6505 101.742 38.7226 101.742 36.3082C101.742 32.4983 103.649 26.2649 107.126 26.2649C109.403 26.2649 110.145 28.2937 110.145 30.2767C110.136 34.3711 108.238 40.6505 104.849 40.6505Z" fill="#362F4A"/>
<path d="M133.067 21.1423C128.742 21.1423 126.288 25.099 126.288 25.099H126.2L126.571 21.5278H120.904C120.631 23.9423 120.119 27.6144 119.607 30.3593L115.149 54.7423H121.557L123.323 44.8918H123.464C123.464 44.8918 124.779 45.7639 127.224 45.7639C134.744 45.7639 139.66 37.7495 139.66 29.6341C139.66 25.1541 137.754 21.1423 133.067 21.1423ZM126.942 40.7423C125.282 40.7423 124.294 39.7783 124.294 39.7783L125.362 33.5541C126.103 29.4046 128.195 26.6505 130.419 26.6505C132.37 26.6505 132.97 28.5324 132.97 30.3226C132.979 34.6098 130.516 40.7423 126.942 40.7423Z" fill="#362F4A"/>
<path d="M148.805 11.5856C146.766 11.5856 145.142 13.2748 145.142 15.4505C145.142 17.4334 146.351 18.7829 148.16 18.7829H148.249C150.243 18.7829 151.964 17.3784 152.009 14.918C152.009 12.981 150.755 11.5856 148.805 11.5856Z" fill="#362F4A"/>
<path d="M139.846 45.2774H146.254L150.614 21.6747H144.162L139.846 45.2774Z" fill="#362F4A"/>
<path d="M166.908 21.6289H162.45L162.68 20.518C163.051 18.2505 164.348 16.2216 166.484 16.2216C167.623 16.2216 168.523 16.5613 168.523 16.5613L169.776 11.3469C169.776 11.3469 168.664 10.7685 166.29 10.7685C164.013 10.7685 161.744 11.4479 160.023 12.9902C157.843 14.918 156.819 17.718 156.307 20.518L156.122 21.6289H153.147L152.221 26.6505H155.195L151.806 45.2866H158.214L161.603 26.6505H166.016L166.908 21.6289Z" fill="#362F4A"/>
<path d="M182.319 21.6747C182.319 21.6747 178.311 32.1679 176.52 37.8964H176.423C176.299 36.0511 174.843 21.6747 174.843 21.6747H168.108L171.965 43.3495C172.062 43.8361 172.009 44.1206 171.824 44.4603C171.083 45.9567 169.829 47.4072 168.338 48.4721C167.128 49.3901 165.787 49.9685 164.719 50.3541L166.484 56C167.782 55.7062 170.474 54.5954 172.751 52.3829C175.672 49.537 178.364 45.1397 181.154 39.1541L189 21.6747H182.319Z" fill="#362F4A"/>
</g>
<defs>
<clipPath id="clip0">
<rect width="189" height="56" fill="white"/>
</clipPath>
</defs>
</svg>
