<?xml version="1.0" encoding="utf-8"?>
<!-- Generator: Adobe Illustrator 25.2.0, SVG Export Plug-In . SVG Version: 6.00 Build 0)  -->
<svg version="1.1" id="Layer_1" xmlns="http://www.w3.org/2000/svg" xmlns:xlink="http://www.w3.org/1999/xlink" x="0px" y="0px"
	 viewBox="0 0 65 82" style="enable-background:new 0 0 65 82;" xml:space="preserve">
<style type="text/css">
	.st0{fill:#362F4A;}
	.st1{fill:#6154F9;}
</style>
<path class="st0" d="M63.3,79l-17.2,2.5c-1,0-1.5-0.5-2-1l-0.5-2L32.4,35.2l-1-8.1L20.3,77.5L19.8,80c0,1-1,1.5-2,1L3,79.5H1.5
	c-1,0-1.5-1-1.5-2l0.5-2L11.7,4l0.5-3c0-0.5,0.5-1,1.5-1h35c0.5,0,1.5,0.5,1.5,1l0.5,2.5V4l14.2,71.5v1C64.9,78,64.4,78.5,63.3,79z"
	/>
<path class="st1" d="M50.7,17.1c-4.6-2-8.1-5-11.1-9.1c-0.5-0.5,0-1,0.5-1.5c0.5-0.5,1,0,1.5,0.5c2.5,4,5.6,6.5,9.6,8.1
	c0.5,0.5,1,1,0.5,1.5C51.7,16.6,51.2,17.1,50.7,17.1z"/>
<path class="st1" d="M12.7,17.1c4.6-2,8.1-5,11.1-9.1c0.5-0.5,0-1-0.5-1.5s-1,0-1.5,0.5c-2.5,4-5.6,6.5-9.6,8.1
	c-0.5,0.5-1,1-0.5,1.5C11.7,16.6,12.2,17.1,12.7,17.1z"/>
<path class="st1" d="M31.4,21.1c-0.5,0-1-0.5-1-1V5c0-0.5,0.5-1,1-1c0.5,0,1,0.5,1,1v15.1C32.4,20.6,31.9,21.1,31.4,21.1z"/>
</svg>
