<?xml version="1.0" encoding="utf-8"?>
<!-- Generator: Adobe Illustrator 25.1.0, SVG Export Plug-In . SVG Version: 6.00 Build 0)  -->
<svg version="1.1" id="Layer_1" xmlns="http://www.w3.org/2000/svg" xmlns:xlink="http://www.w3.org/1999/xlink" x="0px" y="0px"
	 viewBox="0 0 1440.4 887" style="enable-background:new 0 0 1440.4 887;" xml:space="preserve">
<style type="text/css">
	.st0{fill:#FFFFFF;}
	.st1{fill:#362F4A;}
	.st2{fill:#302b40;}
	.st3{font-family:'ProximaNova-Regular';}
	.st4{font-size:16px;}
	.st5{fill:#20D287;}
	.st6{fill:#6154F9;}
	.st7{font-size:26px;}
	.st8{font-family:'ProximaNova-Semibold';}
	.st9{fill:none;stroke:#9DA4AD;stroke-width:3;stroke-linecap:round;stroke-linejoin:round;stroke-dasharray:11.95,11.95;}
	.st10{fill:#9DA4AD;}
	.st11{fill:#EAEAEA;}
	.st12{fill:none;stroke:#EAEAEA;stroke-miterlimit:10;}
	.st13{fill:#FD9489;}
	.st14{font-size:19px;}
	.st15{fill:#3B5998;}
	.st16{fill:#55ACEE;}
	.st17{fill:#BD081C;}
	.st18{fill:#2177B4;}
	.st19{font-size:32px;}
</style>
<g id="Layer_2_1_">
	<g id="Layer_1-2">
		<rect class="st0" width="1440.4" height="887"/>
		<rect class="st1" width="1440.4" height="125.4"/>
		<text transform="matrix(1 0 0 1 765.59 333.04)" class="st2 st3 st4" style="text-decoration: line-through;">399kr</text>
		<text transform="matrix(1 0 0 1 767.15 678.96)" class="st2 st3 st4">Add to wishlist</text>
		<g>
			<text transform="matrix(1 0 0 1 791.3101 573.04)" class="st5 st3 st4">In stock</text>
		</g>
		<text transform="matrix(1 0 0 1 788.24 622.83)" class="st2 st3 st4">1</text>
		<text transform="matrix(1 0 0 1 765.59 364.23)" class="st6 st3 st7">295kr</text>
		<text transform="matrix(1 0 0 1 516.84 88.82)" class="st0 st8 st4">HOME          </text>
		<text transform="matrix(1 0 0 1 697.67 88.82)" class="st0 st8 st4">BL</text>
		<text transform="matrix(1 0 0 1 715.29 88.82)" class="st0 st8 st4">OG      </text>
		<text transform="matrix(1 0 0 1 587.84 88.82)" class="st0 st8 st4">PRODUCTS</text>
		<text transform="matrix(1 0 0 1 757.84 88.82)" class="st0 st8 st4">CONTACT</text>
		<path class="st6" d="M1100.6,91.7l-0.8,0.8c-0.2,0.2-0.5,0.2-0.6,0l-4.5-4.5c-0.1-0.1-0.1-0.2-0.1-0.3v-0.5
			c-1.4,1.2-3.2,1.9-5,1.9c-4.3,0-7.7-3.4-7.7-7.7s3.4-7.7,7.7-7.7c4.3,0,7.7,3.4,7.7,7.7l0,0c0,1.8-0.7,3.6-1.9,5h0.5
			c0.1,0,0.2,0,0.3,0.1l4.5,4.5C1100.7,91.2,1100.7,91.5,1100.6,91.7z M1095.4,81.4c0-3.3-2.6-5.9-5.9-5.9s-5.9,2.6-5.9,5.9
			s2.6,5.9,5.9,5.9S1095.4,84.7,1095.4,81.4z"/>
		<path class="st6" d="M1136.5,89.9v1c0,1-0.8,1.8-1.8,1.8l0,0h-13.1c-1,0-1.8-0.8-1.8-1.8l0,0v-1c0-2.8,2.2-5,5-5
			c1.1,0,1.6,0.6,3.3,0.6s2.3-0.6,3.3-0.6C1134.2,84.9,1136.4,87.1,1136.5,89.9z M1134.7,89.9c0-1.7-1.4-3.2-3.1-3.2h-0.1
			c-2.1,0.8-4.5,0.8-6.6,0c-1.7,0-3.2,1.4-3.2,3.1v0.1v1h13.1L1134.7,89.9L1134.7,89.9z M1122.9,79c0-2.9,2.3-5.3,5.2-5.3
			c0,0,0,0,0.1,0c2.9,0,5.3,2.4,5.3,5.3s-2.4,5.3-5.3,5.3C1125.3,84.3,1122.9,82,1122.9,79L1122.9,79z M1124.7,79
			c0,2,1.6,3.6,3.6,3.6s3.6-1.6,3.6-3.6s-1.6-3.6-3.6-3.6l0,0C1126.3,75.4,1124.7,77,1124.7,79L1124.7,79z"/>
		<path class="st6" d="M1173.1,84.3l-6.5,6.6c-0.7,0.8-2,0.8-2.7,0.1c0,0,0,0-0.1-0.1l-6.5-6.6c-2.1-4.4-0.2-9.6,4.2-11.6
			c4.4-2.1,9.6-0.2,11.6,4.2C1174.2,79.2,1174.2,81.9,1173.1,84.3z M1171.6,77.4c-1.6-1.2-3.7-1-5.1,0.4l-1.3,1.3l-1.3-1.3
			c-1.4-1.4-3.5-1.6-5.1-0.4c-1.6,1.4-1.8,3.8-0.4,5.5l0.1,0.1l6.5,6.6c0.1,0.1,0.2,0.1,0.3,0l0,0l6.5-6.6c1.5-1.5,1.5-3.9,0.1-5.4
			C1171.8,77.6,1171.7,77.5,1171.6,77.4z"/>
		<path class="st6" d="M1210.6,78.4v11.3c0,1.7-1.3,3-3,3h-10.7c-1.7,0-3-1.3-3-3V78.4h3.6c0-2.7,2.1-4.8,4.8-4.8l0,0
			c2.6,0,4.8,2.1,4.8,4.7v0.1C1207.1,78.4,1210.6,78.4,1210.6,78.4z M1208.8,80.2h-1.8v1.5c0,0.5-0.4,0.9-0.9,0.9s-0.9-0.4-0.9-0.9
			v-1.5h-5.9v1.5c0,0.5-0.4,0.9-0.9,0.9s-0.9-0.4-0.9-0.9v-1.5h-1.8v9.5c0,0.6,0.5,1.2,1.1,1.2h0.1h10.7c0.6,0,1.2-0.5,1.2-1.1v-0.1
			L1208.8,80.2L1208.8,80.2z M1199.3,78.4h5.9c0-1.7-1.3-3-3-3C1200.6,75.5,1199.3,76.8,1199.3,78.4L1199.3,78.4z"/>
		<path class="st9" d="M665.7,801.3H175.4c-16.7,0-30.3-13.5-30.3-30.3l0,0V280.7c0-16.7,13.5-30.3,30.3-30.3l0,0h490.4
			c16.7,0,30.3,13.5,30.3,30.3l0,0v490.4C696,787.8,682.4,801.3,665.7,801.3z"/>
		<text transform="matrix(1 0 0 1 584.86 165.37)" class="st10 st8 st4">HOME  &gt;  PRODUC</text>
		<text transform="matrix(1 0 0 1 730.79 165.37)" class="st10 st8 st4"> &gt;</text>
		<path class="st11" d="M844.7,171.6H778c-6,0-10.9-4.9-10.9-10.9l0,0c0-6,4.9-10.9,10.9-10.9h66.7c6,0,10.9,4.9,10.9,10.9l0,0
			C855.6,166.7,850.7,171.6,844.7,171.6z"/>
		<path class="st11" d="M930.5,285.6H778.9c-9.7,0-17.6-7.9-17.6-17.6l0,0c0-9.7,7.9-17.6,17.6-17.6h151.6c9.7,0,17.6,7.9,17.6,17.6
			l0,0C948.1,277.7,940.3,285.6,930.5,285.6C930.6,285.6,930.5,285.6,930.5,285.6z"/>
		<path class="st11" d="M983.9,416.8H773.7c-6,0-10.9-4.9-10.9-10.9l0,0c0-6,4.9-10.9,10.9-10.9h210.2c6,0,10.9,4.9,10.9,10.9l0,0
			C994.8,411.9,989.9,416.8,983.9,416.8z"/>
		<path class="st11" d="M892.9,450H773.7c-6,0-10.9-4.9-10.9-10.9l0,0c0-6,4.9-10.9,10.9-10.9h119.2c6,0,10.9,4.9,10.9,10.9l0,0
			C903.8,445.1,898.9,450,892.9,450z"/>
		<path class="st11" d="M1071.8,450H919c-6,0-10.9-4.9-10.9-10.9l0,0c0-6,4.9-10.9,10.9-10.9h152.8c6,0,10.9,4.9,10.9,10.9l0,0
			C1082.7,445.1,1077.8,450,1071.8,450z"/>
		<path class="st11" d="M966.1,483.2H773.7c-6,0-10.9-4.9-10.9-10.9l0,0c0-6,4.9-10.9,10.9-10.9h192.4c6,0,10.9,4.9,10.9,10.9l0,0
			C977,478.3,972.2,483.2,966.1,483.2C966.2,483.2,966.1,483.2,966.1,483.2z"/>
		<path class="st11" d="M1077.2,483.2h-77c-6,0-10.9-4.9-10.9-10.9l0,0c0-6,4.9-10.9,10.9-10.9h77c6,0,10.9,4.9,10.9,10.9l0,0
			C1088.1,478.3,1083.3,483.2,1077.2,483.2C1077.3,483.2,1077.2,483.2,1077.2,483.2z"/>
		<path class="st12" d="M1032,646.4H774.1c-6.2,0-11.3-5.1-11.3-11.3v-34.5c0-6.2,5.1-11.3,11.3-11.3H1032c6.2,0,11.3,5.1,11.3,11.3
			v34.5C1043.3,641.3,1038.3,646.4,1032,646.4L1032,646.4z"/>
		<path class="st5" d="M769.1,568.9c-0.3-0.3-0.3-0.8,0-1.1l1.1-1.1c0.3-0.3,0.8-0.3,1.1,0l3.5,3.5l7.5-7.5c0.3-0.3,0.8-0.3,1.1,0
			l1.1,1.1c0.3,0.3,0.3,0.8,0,1.1l-9.2,9.2c-0.3,0.3-0.8,0.3-1.1,0L769.1,568.9z"/>
		<path class="st13" d="M1113.3,646.4h-293v-57.1h293c6.2,0,11.3,5.1,11.3,11.3v34.5C1124.6,641.3,1119.6,646.4,1113.3,646.4
			L1113.3,646.4z"/>
		<text transform="matrix(1 0 0 1 895.99 625.74)" class="st0 st3 st14">ADD </text>
		<text transform="matrix(1 0 0 1 940.01 625.74)" class="st0 st3 st14">T</text>
		<text transform="matrix(1 0 0 1 950.3301 625.74)" class="st0 st3 st14">O </text>
		<text transform="matrix(1 0 0 1 969.79 625.74)" class="st0 st3 st14">C</text>
		<text transform="matrix(1 0 0 1 982.5701 625.74)" class="st0 st3 st14">A</text>
		<text transform="matrix(1 0 0 1 995.0701 625.74)" class="st0 st3 st14">R</text>
		<text transform="matrix(1 0 0 1 1006.45 625.74)" class="st0 st3 st14">T</text>
		<path class="st15" d="M793.1,735.6H770c-4.2,0-7.6-3.4-7.6-7.6v-23.1c0-4.2,3.4-7.6,7.6-7.6h23.1c4.2,0,7.6,3.4,7.6,7.6V728
			C800.6,732.2,797.3,735.5,793.1,735.6z"/>
		<path class="st0" d="M783.2,717.7v8.3h-3.7v-8.3h-3v-3.4h3v-2.6c0-3,1.8-4.6,4.5-4.6c0.9,0,1.8,0.1,2.7,0.2v2.9h-1.5
			c-0.9-0.1-1.8,0.5-1.9,1.4c0,0.2,0,0.3,0,0.5v2.2h3.3l-0.5,3.4L783.2,717.7z"/>
		<path class="st16" d="M837.8,735.4h-23.1c-4.2,0-7.6-3.4-7.6-7.6v-23.1c0-4.2,3.4-7.6,7.6-7.6h23.1c4.2,0,7.6,3.4,7.6,7.6v23.1
			C845.4,732,842,735.4,837.8,735.4L837.8,735.4z"/>
		<path class="st0" d="M834.3,712.9c0,6.2-5.1,11.1-11.2,11.1c-2.1,0-4.1-0.6-5.9-1.7h0.9c1.8,0,3.5-0.6,4.8-1.7
			c-1.7,0-3.1-1.1-3.6-2.7c0.2,0,0.5,0.1,0.7,0.1c0.3,0,0.7,0,1-0.1c-1.8-0.4-3.1-2-3.1-3.8l0,0c0.5,0.3,1.2,0.5,1.8,0.5
			c-1-0.7-1.7-1.9-1.7-3.2c0-0.7,0.2-1.4,0.5-2c2,2.4,4.9,3.9,8,4.1c-0.1-0.3-0.1-0.6-0.1-0.9c0-2.2,1.7-3.9,3.9-3.9l0,0
			c1.1,0,2.1,0.4,2.8,1.2c0.9-0.2,1.7-0.5,2.5-0.9c-0.3,0.9-0.9,1.6-1.7,2.1c0.8-0.1,1.5-0.3,2.2-0.6c-0.5,0.8-1.2,1.5-2,2
			C834.2,712.6,834.3,712.7,834.3,712.9z"/>
		<path class="st17" d="M882.6,735.4h-23.1c-4.2,0-7.6-3.4-7.6-7.6v-23.1c0-4.2,3.4-7.6,7.6-7.6h23.1c4.2,0,7.6,3.4,7.6,7.6v23.1
			C890.2,732,886.8,735.4,882.6,735.4z"/>
		<path class="st0" d="M878.1,712.9c0,3.5-1.8,7.3-5.7,7.3c-1,0-2-0.5-2.6-1.3c-0.8,3.4-0.8,3.9-2.6,6.4c-0.2,0.1-0.1,0.1-0.3-0.1
			c-0.1-0.7-0.2-1.4-0.2-2.1c0-2.3,1-5.6,1.6-7.8c-0.3-0.6-0.4-1.2-0.4-1.9c0-3,3.5-3.4,3.5-1c0,1.4-1,2.8-1,4.2
			c0,0.9,0.7,1.6,1.6,1.6h0.1c2.6,0,3.4-3.7,3.4-5.7c0-2.6-1.9-4.1-4.4-4.1c-2.8-0.1-5.1,2-5.2,4.8c0,0.1,0,0.2,0,0.3
			c0.1,0.9,0.4,1.7,0.9,2.5c0,0.3-0.2,1.3-0.6,1.3c-0.9,0-2.4-1.5-2.4-4.1c0-4.1,3.8-6.6,7.6-6.6C875,706.8,878.1,709.2,878.1,712.9
			z"/>
		<path class="st18" d="M927.4,735.4h-23.1c-4.2,0-7.6-3.4-7.6-7.6v-23.1c0-4.2,3.4-7.6,7.6-7.6h23.1c4.2,0,7.6,3.4,7.6,7.6v23.1
			C934.9,732,931.6,735.3,927.4,735.4z"/>
		<path class="st0" d="M907.5,708.3c0-1.1,0.9-2,2-2s2,0.9,2,2s-0.9,2-2,2S907.5,709.4,907.5,708.3z M907.7,722.9v-11.1h3.4v11.1
			H907.7z M920.7,722.9v-5.4c0-1.3,0-2.9-1.8-2.9s-2.1,1.4-2.1,2.8v5.5h-3.4v-11.1h3.3v1.5l0,0c0.7-1.2,2-1.9,3.3-1.8
			c3.5,0,4.1,2.3,4.1,5.3v6.1L920.7,722.9L920.7,722.9z"/>
		<path class="st2" d="M972.1,735.4H949c-4.2,0-7.6-3.4-7.6-7.6v-23.1c0-4.2,3.4-7.6,7.6-7.6h23.1c4.2,0,7.6,3.4,7.6,7.6v23.1
			C979.7,732,976.3,735.4,972.1,735.4L972.1,735.4z"/>
		<path class="st0" d="M957.8,716.9c-4.9-3.6-5.3-3.9-6.4-4.8c-0.2-0.2-0.3-0.4-0.3-0.7v-0.7c0-1,0.8-1.8,1.8-1.8l0,0h15.4
			c1,0,1.8,0.8,1.8,1.8l0,0v0.7c0,0.3-0.1,0.5-0.3,0.7c-1.1,0.9-1.5,1.2-6.4,4.8c-0.6,0.5-1.9,1.6-2.7,1.5
			C959.7,718.5,958.4,717.4,957.8,716.9z M970,713.8v7.6c0,1-0.8,1.8-1.8,1.8l0,0h-15.4c-1,0-1.8-0.8-1.8-1.8l0,0v-7.6
			c0-0.2,0.2-0.3,0.4-0.2c0.8,0.6,1.9,1.5,5.7,4.2c0.8,0.6,2.1,1.8,3.4,1.8s2.7-1.2,3.4-1.8c3.8-2.8,4.9-3.6,5.7-4.2
			C969.8,713.5,970,713.6,970,713.8L970,713.8z"/>
	</g>
</g>
<text transform="matrix(1 0 0 1 145.1001 93.9)" class="st0 st8 st19">YOUR STORE</text>
</svg>
