<svg width="199" height="36" viewBox="0 0 199 36" fill="none" xmlns="http://www.w3.org/2000/svg">
<g clip-path="url(#clip0)">
<path d="M41.3979 10.885H43.0055L46.2018 21.676L50.6879 10.885H51.0103L55.445 21.676L58.6974 10.885H60.2909L55.7955 25.8619H55.5058L50.8608 14.5297L46.127 25.8619H45.8373L41.3979 10.885Z" fill="#362F4A"/>
<path d="M63.4687 10.2231C63.8098 10.2231 64.0949 10.3394 64.3379 10.5675C64.5809 10.7955 64.6977 11.0773 64.6977 11.4037C64.6977 11.7212 64.5762 11.9985 64.3379 12.2266C64.0995 12.4591 63.8098 12.5709 63.4687 12.5709C63.1369 12.5709 62.8518 12.4547 62.6088 12.2266C62.3705 11.994 62.249 11.7212 62.249 11.4037C62.249 11.0773 62.3705 10.8 62.6088 10.5675C62.8472 10.3349 63.1369 10.2231 63.4687 10.2231ZM62.7303 14.7846H64.221V25.8619H62.7303V14.7846Z" fill="#362F4A"/>
<path d="M67.3052 10.5093H68.7959V19.2566L74.1605 14.7846H76.3474L69.9875 20.0706L76.7213 25.8619H74.6231L68.7959 20.8755V25.8619H67.3052V10.5093Z" fill="#362F4A"/>
<path d="M78.768 10.2231C79.1091 10.2231 79.3942 10.3394 79.6372 10.5675C79.8802 10.7955 79.997 11.0773 79.997 11.4037C79.997 11.7212 79.8755 11.9985 79.6372 12.2266C79.3989 12.4591 79.1091 12.5709 78.768 12.5709C78.4362 12.5709 78.1512 12.4547 77.9082 12.2266C77.6698 11.994 77.5483 11.7212 77.5483 11.4037C77.5483 11.0773 77.6698 10.8 77.9082 10.5675C78.1465 10.3349 78.4362 10.2231 78.768 10.2231ZM78.0297 14.7846H79.5204V25.8619H78.0297V14.7846Z" fill="#362F4A"/>
<path d="M82.614 14.7846H84.1047V16.7702C84.6982 16.0099 85.3618 15.442 86.0814 15.0663C86.8057 14.6907 87.5908 14.5029 88.4413 14.5029C89.3058 14.5029 90.0722 14.7131 90.7451 15.1334C91.4133 15.5538 91.9087 16.1217 92.2311 16.8328C92.5535 17.5439 92.7077 18.6574 92.7077 20.16V25.8619H91.2171V20.5804C91.2171 19.3058 91.161 18.4517 91.0535 18.0268C90.8806 17.2934 90.5488 16.7434 90.0628 16.3722C89.5768 16.001 88.9366 15.8176 88.1469 15.8176C87.245 15.8176 86.4366 16.1039 85.7263 16.6718C85.016 17.2398 84.544 17.9463 84.315 18.7916C84.1748 19.3416 84.1001 20.3478 84.1001 21.8057V25.8663H82.6094V14.7846H82.614Z" fill="#362F4A"/>
<path d="M105.88 14.7846H107.371V23.6124C107.371 25.1687 107.231 26.3046 106.946 27.0246C106.553 28.0442 105.876 28.8268 104.913 29.3769C103.951 29.927 102.787 30.1998 101.432 30.1998C100.441 30.1998 99.5485 30.0656 98.7541 29.7973C97.9644 29.5289 97.3195 29.1667 96.8242 28.715C96.3288 28.2634 95.8709 27.6015 95.4503 26.7294H97.0672C97.5064 27.4629 98.0765 28.004 98.7728 28.3573C99.4691 28.7106 100.334 28.885 101.362 28.885C102.376 28.885 103.236 28.7061 103.932 28.3439C104.633 27.9816 105.128 27.5255 105.427 26.9799C105.726 26.4298 105.876 25.5488 105.876 24.328V23.76C105.315 24.4398 104.628 24.9585 103.82 25.3208C103.011 25.683 102.151 25.8663 101.245 25.8663C100.179 25.8663 99.1794 25.6114 98.2401 25.1061C97.3008 24.6008 96.5765 23.921 96.0672 23.0668C95.5578 22.2127 95.3008 21.2735 95.3008 20.245C95.3008 19.2209 95.5671 18.2639 96.0999 17.3784C96.6326 16.4929 97.3709 15.7908 98.3102 15.2765C99.2495 14.7622 100.245 14.5029 101.287 14.5029C102.151 14.5029 102.96 14.6728 103.708 15.0172C104.455 15.3615 105.18 15.925 105.876 16.7121V14.7846H105.88ZM101.488 15.8758C100.642 15.8758 99.8616 16.0726 99.1373 16.4616C98.413 16.8507 97.8476 17.3918 97.4363 18.0805C97.0251 18.7692 96.8195 19.516 96.8195 20.3165C96.8195 21.5329 97.2447 22.5347 98.0952 23.3307C98.9457 24.1267 100.049 24.5203 101.404 24.5203C102.773 24.5203 103.876 24.1267 104.708 23.3396C105.539 22.5526 105.96 21.515 105.96 20.236C105.96 19.3998 105.768 18.6574 105.385 18C105.002 17.3471 104.46 16.8283 103.759 16.4482C103.053 16.0636 102.296 15.8758 101.488 15.8758Z" fill="#362F4A"/>
<path d="M120.54 14.7846H122.031V23.6124C122.031 25.1687 121.891 26.3046 121.606 27.0246C121.218 28.0442 120.54 28.8268 119.573 29.3769C118.61 29.927 117.447 30.1998 116.091 30.1998C115.101 30.1998 114.208 30.0656 113.414 29.7973C112.624 29.5289 111.979 29.1667 111.484 28.715C110.989 28.2634 110.531 27.6015 110.11 26.7294H111.727C112.166 27.4629 112.736 28.004 113.432 28.3573C114.129 28.7106 114.989 28.885 116.021 28.885C117.035 28.885 117.895 28.7061 118.591 28.3439C119.292 27.9816 119.788 27.5255 120.087 26.9799C120.386 26.4298 120.535 25.5488 120.535 24.328V23.76C119.975 24.4398 119.288 24.9585 118.479 25.3208C117.671 25.683 116.811 25.8663 115.905 25.8663C114.839 25.8663 113.839 25.6114 112.9 25.1061C111.961 24.6008 111.236 23.921 110.727 23.0668C110.217 22.2127 109.96 21.2735 109.96 20.245C109.96 19.2209 110.227 18.2639 110.76 17.3784C111.292 16.4929 112.026 15.7908 112.97 15.2765C113.909 14.7622 114.904 14.5029 115.947 14.5029C116.811 14.5029 117.62 14.6728 118.367 15.0172C119.115 15.3615 119.839 15.925 120.535 16.7121V14.7846H120.54ZM116.148 15.8758C115.302 15.8758 114.521 16.0726 113.797 16.4616C113.073 16.8507 112.507 17.3918 112.096 18.0805C111.685 18.7692 111.479 19.516 111.479 20.3165C111.479 21.5329 111.904 22.5347 112.755 23.3307C113.605 24.1267 114.708 24.5203 116.063 24.5203C117.433 24.5203 118.535 24.1267 119.367 23.3396C120.199 22.5526 120.615 21.515 120.615 20.236C120.615 19.3998 120.423 18.6574 120.04 18C119.657 17.3471 119.115 16.8283 118.414 16.4482C117.713 16.0636 116.956 15.8758 116.148 15.8758Z" fill="#362F4A"/>
<path d="M124.657 14.7846H126.18V16.4035C126.633 15.764 127.115 15.2899 127.615 14.9724C128.115 14.6549 128.643 14.4984 129.19 14.4984C129.601 14.4984 130.04 14.6236 130.507 14.874L129.732 16.077C129.419 15.9473 129.157 15.8847 128.947 15.8847C128.451 15.8847 127.97 16.0815 127.512 16.4706C127.049 16.8596 126.699 17.4678 126.461 18.2862C126.278 18.9168 126.185 20.1958 126.185 22.1143V25.8619H124.661V14.7846H124.657Z" fill="#362F4A"/>
<path d="M131.583 14.7846H133.073V19.9588C133.073 21.2199 133.143 22.0919 133.288 22.566C133.503 23.2457 133.91 23.7824 134.508 24.1759C135.106 24.5694 135.826 24.7662 136.653 24.7662C137.485 24.7662 138.19 24.5739 138.77 24.1893C139.349 23.8047 139.746 23.3039 139.971 22.6778C140.12 22.2485 140.195 21.3451 140.195 19.9588V14.7846H141.718V20.2226C141.718 21.7521 141.531 22.9014 141.158 23.675C140.784 24.4487 140.223 25.0524 139.475 25.4907C138.728 25.929 137.788 26.1481 136.662 26.1481C135.536 26.1481 134.592 25.929 133.84 25.4907C133.087 25.0524 132.522 24.4442 132.148 23.6571C131.774 22.8745 131.587 21.6939 131.587 20.1198V14.7846H131.583Z" fill="#362F4A"/>
<path d="M145.04 14.7846H146.531V16.8194C147.12 16.0457 147.797 15.4644 148.559 15.0798C149.325 14.6907 150.176 14.4984 151.12 14.4984C152.765 14.4984 154.171 15.0663 155.34 16.1978C156.508 17.3337 157.092 18.6976 157.092 20.2897C157.092 21.9175 156.513 23.3039 155.354 24.4398C154.195 25.5757 152.798 26.1436 151.162 26.1436C150.241 26.1436 149.396 25.9603 148.62 25.5935C147.849 25.2268 147.148 24.6812 146.526 23.9523V29.9091H145.036V14.7846H145.04ZM150.998 15.8758C149.709 15.8758 148.625 16.3051 147.746 17.1682C146.863 18.0313 146.424 19.1001 146.424 20.3836C146.424 21.2244 146.62 21.9801 147.012 22.6509C147.405 23.3217 147.966 23.8539 148.699 24.2475C149.433 24.641 150.204 24.8378 151.017 24.8378C151.816 24.8378 152.569 24.641 153.274 24.243C153.98 23.845 154.541 23.2904 154.956 22.5794C155.372 21.8683 155.583 21.1215 155.583 20.3434C155.583 19.5563 155.377 18.8094 154.961 18.1073C154.545 17.4007 153.989 16.8552 153.288 16.4661C152.592 16.0681 151.826 15.8758 150.998 15.8758Z" fill="#362F4A"/>
<path d="M159.906 14.7846H161.396V16.8194C161.985 16.0457 162.663 15.4644 163.424 15.0798C164.191 14.6907 165.041 14.4984 165.985 14.4984C167.63 14.4984 169.037 15.0663 170.205 16.1978C171.373 17.3337 171.957 18.6976 171.957 20.2897C171.957 21.9175 171.378 23.3039 170.219 24.4398C169.06 25.5757 167.663 26.1436 166.027 26.1436C165.107 26.1436 164.261 25.9603 163.485 25.5935C162.714 25.2268 162.013 24.6812 161.392 23.9523V29.9091H159.901V14.7846H159.906ZM165.864 15.8758C164.574 15.8758 163.49 16.3051 162.611 17.1682C161.728 18.0313 161.289 19.1001 161.289 20.3836C161.289 21.2244 161.485 21.9801 161.878 22.6509C162.27 23.3217 162.831 23.8539 163.565 24.2475C164.298 24.641 165.069 24.8378 165.882 24.8378C166.681 24.8378 167.434 24.641 168.139 24.243C168.845 23.845 169.406 23.2904 169.822 22.5794C170.238 21.8683 170.448 21.1215 170.448 20.3434C170.448 19.5563 170.242 18.8094 169.826 18.1073C169.41 17.4007 168.854 16.8552 168.153 16.4661C167.452 16.0681 166.691 15.8758 165.864 15.8758Z" fill="#362F4A"/>
<path d="M184.49 22.1858L185.747 22.8164C185.336 23.5901 184.859 24.2162 184.322 24.6902C183.785 25.1642 183.177 25.5265 182.5 25.7724C181.827 26.0184 181.06 26.1436 180.21 26.1436C178.322 26.1436 176.845 25.5533 175.78 24.3682C174.714 23.1831 174.182 21.846 174.182 20.3523C174.182 18.9481 174.63 17.6959 175.532 16.5958C176.677 15.196 178.205 14.4984 180.121 14.4984C182.093 14.4984 183.673 15.2139 184.85 16.645C185.687 17.6557 186.112 18.9168 186.126 20.4328H175.71C175.738 21.7207 176.168 22.7762 176.999 23.599C177.831 24.4219 178.855 24.8333 180.079 24.8333C180.668 24.8333 181.243 24.7349 181.799 24.5381C182.355 24.3414 182.831 24.082 183.219 23.7555C183.612 23.4335 184.037 22.9103 184.49 22.1858ZM184.49 19.203C184.294 18.4427 184.004 17.8345 183.621 17.3784C183.243 16.9222 182.738 16.5555 182.112 16.2783C181.486 16.001 180.831 15.8624 180.14 15.8624C179.004 15.8624 178.028 16.2112 177.21 16.9088C176.612 17.4186 176.163 18.1834 175.859 19.1985H184.49V19.203Z" fill="#362F4A"/>
<path d="M188.906 14.7846H190.397V16.7702C190.99 16.0099 191.654 15.442 192.373 15.0663C193.098 14.6907 193.883 14.5029 194.733 14.5029C195.598 14.5029 196.369 14.7131 197.037 15.1334C197.705 15.5538 198.201 16.1217 198.523 16.8328C198.841 17.5439 199 18.6574 199 20.16V25.8619H197.509V20.5804C197.509 19.3058 197.453 18.4517 197.346 18.0268C197.173 17.2934 196.841 16.7434 196.355 16.3722C195.864 16.001 195.229 15.8176 194.439 15.8176C193.537 15.8176 192.729 16.1039 192.018 16.6718C191.308 17.2398 190.836 17.9463 190.607 18.7916C190.467 19.3416 190.392 20.3478 190.392 21.8057V25.8663H188.901V14.7846H188.906Z" fill="#362F4A"/>
<path d="M10.2291 34.6047C10.2291 34.6047 -2.93473 13.5503 10.2291 2.18236H4.73835C4.73835 2.18236 -7.30866 15.2631 7.00943 34.6047H10.2291Z" fill="url(#paint0_linear)"/>
<path d="M17.5891 35.2755C17.5891 35.2755 4.73833 14.3687 23.8977 1.06435H17.4723C17.4723 1.06435 0.532619 10.7911 14.0843 35.2755H17.5891Z" fill="url(#paint1_linear)"/>
<path d="M21.4446 36H25.1269C25.1269 36 16.365 11.681 38.9777 0H31.4915C31.4915 0 11.0098 9.44497 21.4446 36Z" fill="url(#paint2_linear)"/>
</g>
<defs>
<linearGradient id="paint0_linear" x1="-1.79017" y1="8.42856" x2="17.0302" y2="28.0946" gradientUnits="userSpaceOnUse">
<stop stop-color="#6DC7F1"/>
<stop offset="1" stop-color="#35A3D7"/>
</linearGradient>
<linearGradient id="paint1_linear" x1="9.07109" y1="8.67372" x2="26.4303" y2="26.813" gradientUnits="userSpaceOnUse">
<stop stop-color="#6DC7F1"/>
<stop offset="1" stop-color="#35A3D7"/>
</linearGradient>
<linearGradient id="paint2_linear" x1="20.7701" y1="8.96485" x2="36.3566" y2="25.2517" gradientUnits="userSpaceOnUse">
<stop stop-color="#6DC7F1"/>
<stop offset="1" stop-color="#35A3D7"/>
</linearGradient>
<clipPath id="clip0">
<rect width="199" height="36" fill="white"/>
</clipPath>
</defs>
</svg>
