<svg width="199" height="40" viewBox="0 0 199 40" fill="none" xmlns="http://www.w3.org/2000/svg">
<path fill-rule="evenodd" clip-rule="evenodd" d="M0.500259 3.80729C1.42458 1.57772 3.74421 0.00248214 6.17441 0.0068884C24.4551 0.000279016 42.7358 0.00909153 61.0164 0.00248214C62.6019 -0.0327679 64.1896 0.555467 65.3594 1.62398C66.6994 2.81808 67.4623 4.60261 67.4247 6.39155C67.4181 13.3733 67.438 20.3528 67.4159 27.3345C67.4026 30.4894 64.6363 33.305 61.472 33.3909C54.8049 33.4195 48.1357 33.3931 41.4687 33.4041C42.3643 35.6028 43.2709 37.7994 44.1665 40.0003C40.195 37.8214 36.2633 35.5654 32.2698 33.4328C23.4998 33.3556 14.7232 33.4394 5.95107 33.3887C2.79115 33.3006 0.0358899 30.4872 0.0181997 27.3389C-0.00833573 20.5048 0.0181997 13.6685 0.00493196 6.83218C-0.0193921 5.80552 0.0779043 4.75683 0.500259 3.80729Z" fill="#9C5C8F"/>
<path fill-rule="evenodd" clip-rule="evenodd" d="M27.3139 4.31592C28.3267 3.243 30.2483 3.5911 30.9957 4.80502C31.4003 5.44172 31.4357 6.29213 31.1107 6.97069C29.7021 9.73121 29.1139 12.8068 28.5721 15.8295C27.9308 19.7709 27.3979 23.7629 27.6058 27.7638C27.6633 28.7839 27.1679 30.022 26.0689 30.26C25.0296 30.4913 24.0832 29.8127 23.4309 29.0813C20.4456 25.8823 18.7562 21.7383 17.5378 17.603C16.3061 20.0242 15.07 22.4455 13.8759 24.8865C13.0401 26.5367 12.1578 28.2199 10.8221 29.5307C10.2583 30.0881 9.3052 30.5926 8.57769 30.0198C7.4831 29.0659 7.21333 27.5457 6.74896 26.2393C4.98656 20.1829 3.98706 13.9414 2.96324 7.72857C2.72884 6.6931 3.16447 5.45274 4.20156 5.03855C5.03963 4.72571 6.11211 4.68164 6.82635 5.29632C7.32389 5.73915 7.46099 6.42432 7.55386 7.05001C8.27253 11.8594 9.1283 16.6534 10.2936 21.3769C12.2904 17.6052 14.2762 13.8268 16.2663 10.0507C16.5626 9.49768 16.9164 8.94249 17.4604 8.59881C18.1879 8.13395 19.267 8.16699 19.8751 8.81692C20.3859 9.35007 20.5562 10.0925 20.6977 10.7931C21.2926 13.915 22.0975 17.0059 23.2672 19.9647C23.7714 15.5056 24.3884 10.9914 26.0225 6.78123C26.3918 5.93302 26.7168 5.03635 27.3139 4.31592ZM38.5384 6.70412C40.6877 6.44194 43.0074 7.15355 44.4712 8.78167C45.6653 10.1278 46.3353 11.8749 46.5609 13.6418C46.9258 16.6645 46.3796 19.8061 44.9201 22.4873C44.0953 24.0163 43.0162 25.4814 41.4948 26.3803C39.2659 27.7286 36.2762 27.5633 34.1224 26.1401C32.4021 24.9658 31.4357 22.9654 31.0421 20.9716C30.2505 16.4596 31.6038 11.4298 35.0335 8.27935C36.0175 7.43335 37.2448 6.86054 38.5384 6.70412ZM38.9873 11.3461C37.9546 11.6876 37.3023 12.6305 36.7472 13.5074C35.3563 15.7391 34.9539 18.6825 36.0728 21.1104C36.3669 21.7493 36.8401 22.4212 37.5853 22.5556C38.3769 22.6856 39.1133 22.234 39.6904 21.7427C40.9619 20.6565 41.5944 19.024 41.9017 17.4223C42.2467 15.5981 42.0698 13.5779 40.9951 12.0159C40.5639 11.3792 39.717 11.0905 38.9873 11.3461ZM55.7842 6.70852C57.8849 6.44855 60.1647 7.09407 61.6352 8.65609C62.9509 10.0705 63.663 11.963 63.8642 13.8643C64.1738 16.7856 63.6342 19.8061 62.2433 22.4036C61.4075 23.9744 60.304 25.4858 58.7384 26.4001C56.5979 27.6779 53.7719 27.5611 51.6513 26.3009C50.2184 25.4417 49.2653 23.9744 48.7169 22.4322C47.2132 17.7154 48.4825 12.1657 51.9476 8.60542C52.9869 7.59638 54.3358 6.88918 55.7842 6.70852ZM56.2397 11.3527C55.1119 11.7537 54.4353 12.8266 53.8493 13.8004C52.58 16.03 52.2682 18.9006 53.4159 21.2426C53.7255 21.8903 54.2739 22.5424 55.05 22.5777C55.8947 22.6085 56.6222 22.0753 57.2082 21.5246C58.4841 20.271 59.0679 18.4798 59.2714 16.7416C59.4814 15.1135 59.2094 13.3642 58.2586 11.9982C57.823 11.3615 56.9672 11.0905 56.2397 11.3527Z" fill="white"/>
<path fill-rule="evenodd" clip-rule="evenodd" d="M78.7796 7.32761C80.6128 6.92443 82.541 6.97951 84.3653 7.40251C84.3719 8.88962 84.3653 10.3767 84.3697 11.8638C82.8727 11.5047 81.1988 11.1677 79.7459 11.8661C78.0101 12.7121 77.0614 14.6618 77.0438 16.5345C76.9465 18.4005 77.57 20.4781 79.2285 21.5268C80.7521 22.5314 82.698 22.3177 84.3697 21.8396C84.3653 23.3267 84.3697 24.8138 84.3653 26.3009C82.154 26.9399 79.7371 26.8605 77.5789 26.0608C74.9873 25.0914 72.9241 22.8619 72.1347 20.2203C71.5377 18.2155 71.4603 16.0432 71.9445 14.0053C72.7251 10.7358 75.4959 8.05684 78.7796 7.32761ZM92.2507 7.10729C94.5063 6.85614 96.9608 7.20203 98.7829 8.64287C100.541 10.0022 101.419 12.1943 101.724 14.3358C102.033 16.6799 101.965 19.1187 101.237 21.3836C100.618 23.3069 99.3224 25.0848 97.4561 25.9595C95.5588 26.8495 93.3475 26.909 91.3286 26.4552C89.4579 26.0366 87.8105 24.8006 86.8817 23.1329C85.597 20.8835 85.3626 18.2133 85.4621 15.6753C85.5683 13.4854 86.1233 11.2029 87.6004 9.51531C88.7591 8.14276 90.4751 7.30778 92.2507 7.10729ZM92.9451 11.3725C91.9765 11.6171 91.4281 12.5688 91.1849 13.4655C90.7051 15.239 90.7869 17.1051 90.9085 18.9205C91.0257 19.9009 91.1318 20.9848 91.8328 21.7493C92.7638 22.8046 94.6345 22.6614 95.4903 21.5818C96.0564 20.8901 96.2023 19.978 96.3328 19.1232C96.5141 17.5942 96.5605 16.0388 96.3261 14.5142C96.1625 13.5999 95.9082 12.6349 95.2338 11.952C94.6544 11.3527 93.7389 11.1699 92.9451 11.3725ZM181.405 7.40472C183.32 6.90461 185.35 6.97731 187.276 7.38709C187.32 8.87861 187.285 10.3723 187.296 11.8638C185.83 11.5135 184.211 11.1853 182.776 11.8154C181.127 12.5644 180.127 14.3269 179.999 16.0872C179.795 18.0612 180.342 20.3305 182.089 21.4849C183.619 22.5336 185.602 22.3287 187.296 21.8396C187.276 23.3377 187.34 24.8381 187.261 26.334C184.904 26.9443 182.336 26.8627 180.09 25.8912C177.622 24.8204 175.709 22.5997 174.999 20.0176C174.455 18.0348 174.393 15.9022 174.895 13.9039C175.678 10.7799 178.285 8.21547 181.405 7.40472ZM104.698 7.55232C106.83 7.54792 108.964 7.54792 111.098 7.55232C111.869 10.998 112.603 14.4547 113.245 17.9269C113.855 14.4393 114.675 10.9936 115.5 7.55232C117.687 7.54792 119.874 7.55012 122.063 7.55012C122.912 13.7872 123.757 20.0242 124.6 26.2613C122.926 26.2635 121.254 26.2635 119.58 26.2613C119.116 21.9894 118.704 17.7132 118.213 13.4435C117.198 17.722 116.128 21.9872 115.093 26.2613C113.952 26.2657 112.809 26.2635 111.668 26.2613C110.573 21.9828 109.497 17.6977 108.393 13.4215C107.962 17.7021 107.535 21.9828 107.1 26.2635C105.501 26.2613 103.9 26.2657 102.301 26.2613C103.097 20.0242 103.9 13.7894 104.698 7.55232ZM127.653 7.55012C129.787 7.55232 131.921 7.54572 134.057 7.55232C134.827 10.9936 135.554 14.4437 136.2 17.9114C136.819 14.4305 137.631 10.987 138.458 7.55012C140.636 7.55012 142.816 7.55012 144.994 7.55012C145.841 13.7872 146.686 20.0242 147.528 26.2613C145.857 26.2657 144.185 26.2591 142.513 26.2657C142.049 21.9916 141.615 17.7176 141.158 13.4435C140.114 17.7154 139.09 21.9916 138.046 26.2635C136.905 26.2613 135.767 26.2635 134.628 26.2635C133.533 21.9806 132.445 17.6955 131.353 13.4104C130.915 17.6933 130.493 21.9784 130.057 26.2613C128.456 26.2635 126.857 26.2635 125.256 26.2613C126.055 20.0242 126.853 13.7872 127.653 7.55012ZM148.957 7.61181C152.382 7.5347 155.812 7.60079 159.239 7.57876C159.246 8.90725 159.235 10.2335 159.246 11.562C157.517 11.5818 155.788 11.5642 154.058 11.573C154.056 12.7143 154.056 13.8555 154.058 14.9967C155.555 15.0011 157.052 14.9967 158.549 14.9989C158.549 16.2921 158.552 17.5832 158.549 18.8742C157.052 18.8764 155.555 18.872 154.058 18.8764C154.056 20.0176 154.056 21.1611 154.058 22.3023C155.794 22.3067 157.532 22.3023 159.268 22.3045C159.268 23.633 159.27 24.9614 159.268 26.2899C155.841 26.2921 152.413 26.2921 148.988 26.2899C148.966 20.0639 149.023 13.8356 148.957 7.61181ZM160.719 7.55012C162.864 7.55893 165.009 7.5325 167.154 7.56334C169.175 7.62723 171.317 8.12954 172.825 9.55497C174.188 10.8174 174.659 12.8773 174.13 14.6332C173.712 16.0608 172.638 17.2197 171.295 17.8453C172.638 20.6543 173.993 23.4545 175.335 26.2613C173.551 26.2635 171.766 26.2613 169.984 26.2635C168.584 23.3994 167.229 20.5111 165.811 17.6559C165.776 20.5243 165.807 23.3928 165.796 26.2613C164.102 26.2635 162.41 26.2635 160.719 26.2613C160.716 20.0242 160.716 13.7872 160.719 7.55012ZM165.771 11.1478C165.767 12.6349 165.767 14.1243 165.771 15.6136C166.689 15.5497 167.686 15.5144 168.467 14.9614C169.365 14.3159 169.268 12.9346 168.701 12.1018C168 11.247 166.782 11.2293 165.771 11.1478ZM188.716 7.55453C192.137 7.54572 195.557 7.55453 198.978 7.55012C198.981 8.88081 198.978 10.2115 198.978 11.5422C197.242 11.5444 195.507 11.5422 193.771 11.5444C193.769 12.6834 193.769 13.8224 193.769 14.9636C195.266 14.9681 196.763 14.9614 198.26 14.9659C198.26 16.2591 198.262 17.5545 198.26 18.8478C196.763 18.8478 195.268 18.8478 193.773 18.8478C193.766 19.989 193.769 21.1302 193.771 22.2736C195.513 22.278 197.256 22.2736 199 22.2758C199 23.6043 199 24.9328 198.998 26.2635C195.573 26.2635 192.145 26.2635 188.72 26.2613C188.714 20.0264 188.72 13.7894 188.716 7.55453Z" fill="#362F4A"/>
</svg>
