<?xml version="1.0" encoding="UTF-8" standalone="no"?>
<svg
   width="32"
   height="32"
   viewBox="0 0 32 32"
   fill="none"
   version="1.1"
   id="svg12"
   xmlns:xlink="http://www.w3.org/1999/xlink"
   xmlns="http://www.w3.org/2000/svg"
   xmlns:svg="http://www.w3.org/2000/svg">
  <defs
     id="defs16" />
  <path
     fill-rule="evenodd"
     clip-rule="evenodd"
     d="M 1,16 C 1,7.721304 7.721304,1 16,1 c 8.27868,0 15,6.721304 15,15 0,2.73506 -0.7334,5.29762 -2.01038,7.50216 L 24.02846,20.63762 C 24.81794,19.27 25.27094,17.69106 25.27094,16 25.27094,10.8835 21.1165,6.729072 16,6.729072 10.8835,6.729072 6.729072,10.8835 6.729072,16 c 0,5.1165 4.154428,9.27094 9.270928,9.27094 V 31 C 7.721304,31 1,24.27868 1,16 Z m 16.88962,14.9999 v -5.92322 l 5.02163,-2.89902 5.03015,2.89902 v 5.92322 z"
     fill="#5754f9"
     id="path10"
     style="stroke-width:0.9375" />
  <use
     x="0"
     y="0"
     xlink:href="#path10"
     id="use176" />
</svg>
